<?xml version="1.0" encoding="utf-8" standalone="no"?>
<!DOCTYPE svg PUBLIC "-//W3C//DTD SVG 1.1//EN"
  "http://www.w3.org/Graphics/SVG/1.1/DTD/svg11.dtd">
<!-- Created with matplotlib (http://matplotlib.org/) -->
<svg height="345.6pt" version="1.1" viewBox="0 0 460.8 345.6" width="460.8pt" xmlns="http://www.w3.org/2000/svg" xmlns:xlink="http://www.w3.org/1999/xlink">
 <defs>
  <style type="text/css">
*{stroke-linecap:butt;stroke-linejoin:round;}
  </style>
 </defs>
 <g id="figure_1">
  <g id="patch_1">
   <path d="M 0 345.6 
L 460.8 345.6 
L 460.8 0 
L 0 0 
z
" style="fill:#ffffff;"/>
  </g>
  <g id="axes_1">
   <g id="patch_2">
    <path d="M 57.6 307.584 
L 414.72 307.584 
L 414.72 41.472 
L 57.6 41.472 
z
" style="fill:#ffffff;"/>
   </g>
   <g id="PathCollection_1">
    <defs>
     <path d="M 0 3 
C 0.795609 3 1.55874 2.683901 2.12132 2.12132 
C 2.683901 1.55874 3 0.795609 3 0 
C 3 -0.795609 2.683901 -1.55874 2.12132 -2.12132 
C 1.55874 -2.683901 0.795609 -3 0 -3 
C -0.795609 -3 -1.55874 -2.683901 -2.12132 -2.12132 
C -2.683901 -1.55874 -3 -0.795609 -3 0 
C -3 0.795609 -2.683901 1.55874 -2.12132 2.12132 
C -1.55874 2.683901 -0.795609 3 0 3 
z
" id="ma803ba97bc" style="stroke:#1f77b4;"/>
    </defs>
    <g clip-path="url(#pab436a9fac)">
     <use style="fill:#1f77b4;stroke:#1f77b4;" x="194.45166" xlink:href="#ma803ba97bc" y="53.63182"/>
     <use style="fill:#1f77b4;stroke:#1f77b4;" x="199.537725" xlink:href="#ma803ba97bc" y="63.397008"/>
     <use style="fill:#1f77b4;stroke:#1f77b4;" x="203.752158" xlink:href="#ma803ba97bc" y="72.770747"/>
     <use style="fill:#1f77b4;stroke:#1f77b4;" x="207.131245" xlink:href="#ma803ba97bc" y="81.763434"/>
     <use style="fill:#1f77b4;stroke:#1f77b4;" x="209.711273" xlink:href="#ma803ba97bc" y="90.385465"/>
     <use style="fill:#1f77b4;stroke:#1f77b4;" x="211.528528" xlink:href="#ma803ba97bc" y="98.647239"/>
     <use style="fill:#1f77b4;stroke:#1f77b4;" x="212.619296" xlink:href="#ma803ba97bc" y="106.55915"/>
     <use style="fill:#1f77b4;stroke:#1f77b4;" x="213.019863" xlink:href="#ma803ba97bc" y="114.131597"/>
     <use style="fill:#1f77b4;stroke:#1f77b4;" x="212.766515" xlink:href="#ma803ba97bc" y="121.374975"/>
     <use style="fill:#1f77b4;stroke:#1f77b4;" x="211.895538" xlink:href="#ma803ba97bc" y="128.299683"/>
     <use style="fill:#1f77b4;stroke:#1f77b4;" x="210.443219" xlink:href="#ma803ba97bc" y="134.916115"/>
     <use style="fill:#1f77b4;stroke:#1f77b4;" x="208.445844" xlink:href="#ma803ba97bc" y="141.23467"/>
     <use style="fill:#1f77b4;stroke:#1f77b4;" x="205.939699" xlink:href="#ma803ba97bc" y="147.265744"/>
     <use style="fill:#1f77b4;stroke:#1f77b4;" x="202.96107" xlink:href="#ma803ba97bc" y="153.019734"/>
     <use style="fill:#1f77b4;stroke:#1f77b4;" x="199.546244" xlink:href="#ma803ba97bc" y="158.507036"/>
     <use style="fill:#1f77b4;stroke:#1f77b4;" x="195.731506" xlink:href="#ma803ba97bc" y="163.738047"/>
     <use style="fill:#1f77b4;stroke:#1f77b4;" x="191.553142" xlink:href="#ma803ba97bc" y="168.723165"/>
     <use style="fill:#1f77b4;stroke:#1f77b4;" x="187.33795" xlink:href="#ma803ba97bc" y="173.182637"/>
     <use style="fill:#1f77b4;stroke:#1f77b4;" x="182.864955" xlink:href="#ma803ba97bc" y="177.443695"/>
     <use style="fill:#1f77b4;stroke:#1f77b4;" x="178.164059" xlink:href="#ma803ba97bc" y="181.514907"/>
     <use style="fill:#1f77b4;stroke:#1f77b4;" x="173.265158" xlink:href="#ma803ba97bc" y="185.404839"/>
     <use style="fill:#1f77b4;stroke:#1f77b4;" x="168.198153" xlink:href="#ma803ba97bc" y="189.122058"/>
     <use style="fill:#1f77b4;stroke:#1f77b4;" x="162.992941" xlink:href="#ma803ba97bc" y="192.675131"/>
     <use style="fill:#1f77b4;stroke:#1f77b4;" x="152.287496" xlink:href="#ma803ba97bc" y="199.323103"/>
     <use style="fill:#1f77b4;stroke:#1f77b4;" x="143.207918" xlink:href="#ma803ba97bc" y="204.43714"/>
     <use style="fill:#1f77b4;stroke:#1f77b4;" x="134.132013" xlink:href="#ma803ba97bc" y="209.206264"/>
     <use style="fill:#1f77b4;stroke:#1f77b4;" x="102.492964" xlink:href="#ma803ba97bc" y="224.695617"/>
     <use style="fill:#1f77b4;stroke:#1f77b4;" x="94.482176" xlink:href="#ma803ba97bc" y="228.818038"/>
     <use style="fill:#1f77b4;stroke:#1f77b4;" x="87.505271" xlink:href="#ma803ba97bc" y="232.798827"/>
     <use style="fill:#1f77b4;stroke:#1f77b4;" x="82.023868" xlink:href="#ma803ba97bc" y="236.49365"/>
     <use style="fill:#1f77b4;stroke:#1f77b4;" x="79.750648" xlink:href="#ma803ba97bc" y="238.327393"/>
     <use style="fill:#1f77b4;stroke:#1f77b4;" x="77.81708" xlink:href="#ma803ba97bc" y="240.160046"/>
     <use style="fill:#1f77b4;stroke:#1f77b4;" x="76.244164" xlink:href="#ma803ba97bc" y="241.997625"/>
     <use style="fill:#1f77b4;stroke:#1f77b4;" x="75.052898" xlink:href="#ma803ba97bc" y="243.846148"/>
     <use style="fill:#1f77b4;stroke:#1f77b4;" x="74.264282" xlink:href="#ma803ba97bc" y="245.71163"/>
     <use style="fill:#1f77b4;stroke:#1f77b4;" x="73.899314" xlink:href="#ma803ba97bc" y="247.600089"/>
     <use style="fill:#1f77b4;stroke:#1f77b4;" x="73.973626" xlink:href="#ma803ba97bc" y="249.515684"/>
     <use style="fill:#1f77b4;stroke:#1f77b4;" x="74.481373" xlink:href="#ma803ba97bc" y="251.455139"/>
     <use style="fill:#1f77b4;stroke:#1f77b4;" x="75.411343" xlink:href="#ma803ba97bc" y="253.413324"/>
     <use style="fill:#1f77b4;stroke:#1f77b4;" x="76.752326" xlink:href="#ma803ba97bc" y="255.385107"/>
     <use style="fill:#1f77b4;stroke:#1f77b4;" x="78.493109" xlink:href="#ma803ba97bc" y="257.365355"/>
     <use style="fill:#1f77b4;stroke:#1f77b4;" x="80.622479" xlink:href="#ma803ba97bc" y="259.348937"/>
     <use style="fill:#1f77b4;stroke:#1f77b4;" x="83.129227" xlink:href="#ma803ba97bc" y="261.330722"/>
     <use style="fill:#1f77b4;stroke:#1f77b4;" x="86.002139" xlink:href="#ma803ba97bc" y="263.305577"/>
     <use style="fill:#1f77b4;stroke:#1f77b4;" x="89.230004" xlink:href="#ma803ba97bc" y="265.26837"/>
     <use style="fill:#1f77b4;stroke:#1f77b4;" x="92.801609" xlink:href="#ma803ba97bc" y="267.213969"/>
     <use style="fill:#1f77b4;stroke:#1f77b4;" x="100.931196" xlink:href="#ma803ba97bc" y="271.03306"/>
     <use style="fill:#1f77b4;stroke:#1f77b4;" x="110.301205" xlink:href="#ma803ba97bc" y="274.721796"/>
     <use style="fill:#1f77b4;stroke:#1f77b4;" x="120.821941" xlink:href="#ma803ba97bc" y="278.23912"/>
     <use style="fill:#1f77b4;stroke:#1f77b4;" x="132.40371" xlink:href="#ma803ba97bc" y="281.543979"/>
     <use style="fill:#1f77b4;stroke:#1f77b4;" x="144.956817" xlink:href="#ma803ba97bc" y="284.595317"/>
     <use style="fill:#1f77b4;stroke:#1f77b4;" x="158.391568" xlink:href="#ma803ba97bc" y="287.35208"/>
     <use style="fill:#1f77b4;stroke:#1f77b4;" x="172.618268" xlink:href="#ma803ba97bc" y="289.773213"/>
     <use style="fill:#1f77b4;stroke:#1f77b4;" x="187.547221" xlink:href="#ma803ba97bc" y="291.817661"/>
     <use style="fill:#1f77b4;stroke:#1f77b4;" x="203.088735" xlink:href="#ma803ba97bc" y="293.444369"/>
     <use style="fill:#1f77b4;stroke:#1f77b4;" x="219.153113" xlink:href="#ma803ba97bc" y="294.612283"/>
     <use style="fill:#1f77b4;stroke:#1f77b4;" x="235.650662" xlink:href="#ma803ba97bc" y="295.280347"/>
     <use style="fill:#1f77b4;stroke:#1f77b4;" x="245.7198" xlink:href="#ma803ba97bc" y="295.42418"/>
     <use style="fill:#1f77b4;stroke:#1f77b4;" x="255.893216" xlink:href="#ma803ba97bc" y="295.364419"/>
     <use style="fill:#1f77b4;stroke:#1f77b4;" x="266.151534" xlink:href="#ma803ba97bc" y="295.092196"/>
     <use style="fill:#1f77b4;stroke:#1f77b4;" x="276.475382" xlink:href="#ma803ba97bc" y="294.598645"/>
     <use style="fill:#1f77b4;stroke:#1f77b4;" x="286.845385" xlink:href="#ma803ba97bc" y="293.874897"/>
     <use style="fill:#1f77b4;stroke:#1f77b4;" x="297.24217" xlink:href="#ma803ba97bc" y="292.912084"/>
     <use style="fill:#1f77b4;stroke:#1f77b4;" x="307.646361" xlink:href="#ma803ba97bc" y="291.701339"/>
     <use style="fill:#1f77b4;stroke:#1f77b4;" x="318.038585" xlink:href="#ma803ba97bc" y="290.233794"/>
     <use style="fill:#1f77b4;stroke:#1f77b4;" x="328.399469" xlink:href="#ma803ba97bc" y="288.50058"/>
     <use style="fill:#1f77b4;stroke:#1f77b4;" x="338.709637" xlink:href="#ma803ba97bc" y="286.49283"/>
     <use style="fill:#1f77b4;stroke:#1f77b4;" x="348.949716" xlink:href="#ma803ba97bc" y="284.201677"/>
     <use style="fill:#1f77b4;stroke:#1f77b4;" x="359.100332" xlink:href="#ma803ba97bc" y="281.618252"/>
     <use style="fill:#1f77b4;stroke:#1f77b4;" x="369.142111" xlink:href="#ma803ba97bc" y="278.733687"/>
     <use style="fill:#1f77b4;stroke:#1f77b4;" x="379.055679" xlink:href="#ma803ba97bc" y="275.539115"/>
     <use style="fill:#1f77b4;stroke:#1f77b4;" x="388.821662" xlink:href="#ma803ba97bc" y="272.025667"/>
     <use style="fill:#1f77b4;stroke:#1f77b4;" x="398.420686" xlink:href="#ma803ba97bc" y="268.184477"/>
    </g>
   </g>
   <g id="matplotlib.axis_1">
    <g id="xtick_1">
     <g id="line2d_1">
      <defs>
       <path d="M 0 0 
L 0 3.5 
" id="m0b0316deee" style="stroke:#000000;stroke-width:0.8;"/>
      </defs>
      <g>
       <use style="stroke:#000000;stroke-width:0.8;" x="68.240181" xlink:href="#m0b0316deee" y="307.584"/>
      </g>
     </g>
     <g id="text_1">
      <!-- −25 -->
      <defs>
       <path d="M 10.59375 35.5 
L 73.1875 35.5 
L 73.1875 27.203125 
L 10.59375 27.203125 
z
" id="DejaVuSans-2212"/>
       <path d="M 19.1875 8.296875 
L 53.609375 8.296875 
L 53.609375 0 
L 7.328125 0 
L 7.328125 8.296875 
Q 12.9375 14.109375 22.625 23.890625 
Q 32.328125 33.6875 34.8125 36.53125 
Q 39.546875 41.84375 41.421875 45.53125 
Q 43.3125 49.21875 43.3125 52.78125 
Q 43.3125 58.59375 39.234375 62.25 
Q 35.15625 65.921875 28.609375 65.921875 
Q 23.96875 65.921875 18.8125 64.3125 
Q 13.671875 62.703125 7.8125 59.421875 
L 7.8125 69.390625 
Q 13.765625 71.78125 18.9375 73 
Q 24.125 74.21875 28.421875 74.21875 
Q 39.75 74.21875 46.484375 68.546875 
Q 53.21875 62.890625 53.21875 53.421875 
Q 53.21875 48.921875 51.53125 44.890625 
Q 49.859375 40.875 45.40625 35.40625 
Q 44.1875 33.984375 37.640625 27.21875 
Q 31.109375 20.453125 19.1875 8.296875 
z
" id="DejaVuSans-32"/>
       <path d="M 10.796875 72.90625 
L 49.515625 72.90625 
L 49.515625 64.59375 
L 19.828125 64.59375 
L 19.828125 46.734375 
Q 21.96875 47.46875 24.109375 47.828125 
Q 26.265625 48.1875 28.421875 48.1875 
Q 40.625 48.1875 47.75 41.5 
Q 54.890625 34.8125 54.890625 23.390625 
Q 54.890625 11.625 47.5625 5.09375 
Q 40.234375 -1.421875 26.90625 -1.421875 
Q 22.3125 -1.421875 17.546875 -0.640625 
Q 12.796875 0.140625 7.71875 1.703125 
L 7.71875 11.625 
Q 12.109375 9.234375 16.796875 8.0625 
Q 21.484375 6.890625 26.703125 6.890625 
Q 35.15625 6.890625 40.078125 11.328125 
Q 45.015625 15.765625 45.015625 23.390625 
Q 45.015625 31 40.078125 35.4375 
Q 35.15625 39.890625 26.703125 39.890625 
Q 22.75 39.890625 18.8125 39.015625 
Q 14.890625 38.140625 10.796875 36.28125 
z
" id="DejaVuSans-35"/>
      </defs>
      <g transform="translate(57.687837 322.182437)scale(0.1 -0.1)">
       <use xlink:href="#DejaVuSans-2212"/>
       <use x="83.789062" xlink:href="#DejaVuSans-32"/>
       <use x="147.412109" xlink:href="#DejaVuSans-35"/>
      </g>
     </g>
    </g>
    <g id="xtick_2">
     <g id="line2d_2">
      <g>
       <use style="stroke:#000000;stroke-width:0.8;" x="123.285621" xlink:href="#m0b0316deee" y="307.584"/>
      </g>
     </g>
     <g id="text_2">
      <!-- −20 -->
      <defs>
       <path d="M 31.78125 66.40625 
Q 24.171875 66.40625 20.328125 58.90625 
Q 16.5 51.421875 16.5 36.375 
Q 16.5 21.390625 20.328125 13.890625 
Q 24.171875 6.390625 31.78125 6.390625 
Q 39.453125 6.390625 43.28125 13.890625 
Q 47.125 21.390625 47.125 36.375 
Q 47.125 51.421875 43.28125 58.90625 
Q 39.453125 66.40625 31.78125 66.40625 
z
M 31.78125 74.21875 
Q 44.046875 74.21875 50.515625 64.515625 
Q 56.984375 54.828125 56.984375 36.375 
Q 56.984375 17.96875 50.515625 8.265625 
Q 44.046875 -1.421875 31.78125 -1.421875 
Q 19.53125 -1.421875 13.0625 8.265625 
Q 6.59375 17.96875 6.59375 36.375 
Q 6.59375 54.828125 13.0625 64.515625 
Q 19.53125 74.21875 31.78125 74.21875 
z
" id="DejaVuSans-30"/>
      </defs>
      <g transform="translate(112.733277 322.182437)scale(0.1 -0.1)">
       <use xlink:href="#DejaVuSans-2212"/>
       <use x="83.789062" xlink:href="#DejaVuSans-32"/>
       <use x="147.412109" xlink:href="#DejaVuSans-30"/>
      </g>
     </g>
    </g>
    <g id="xtick_3">
     <g id="line2d_3">
      <g>
       <use style="stroke:#000000;stroke-width:0.8;" x="178.33106" xlink:href="#m0b0316deee" y="307.584"/>
      </g>
     </g>
     <g id="text_3">
      <!-- −15 -->
      <defs>
       <path d="M 12.40625 8.296875 
L 28.515625 8.296875 
L 28.515625 63.921875 
L 10.984375 60.40625 
L 10.984375 69.390625 
L 28.421875 72.90625 
L 38.28125 72.90625 
L 38.28125 8.296875 
L 54.390625 8.296875 
L 54.390625 0 
L 12.40625 0 
z
" id="DejaVuSans-31"/>
      </defs>
      <g transform="translate(167.778717 322.182437)scale(0.1 -0.1)">
       <use xlink:href="#DejaVuSans-2212"/>
       <use x="83.789062" xlink:href="#DejaVuSans-31"/>
       <use x="147.412109" xlink:href="#DejaVuSans-35"/>
      </g>
     </g>
    </g>
    <g id="xtick_4">
     <g id="line2d_4">
      <g>
       <use style="stroke:#000000;stroke-width:0.8;" x="233.3765" xlink:href="#m0b0316deee" y="307.584"/>
      </g>
     </g>
     <g id="text_4">
      <!-- −10 -->
      <g transform="translate(222.824156 322.182437)scale(0.1 -0.1)">
       <use xlink:href="#DejaVuSans-2212"/>
       <use x="83.789062" xlink:href="#DejaVuSans-31"/>
       <use x="147.412109" xlink:href="#DejaVuSans-30"/>
      </g>
     </g>
    </g>
    <g id="xtick_5">
     <g id="line2d_5">
      <g>
       <use style="stroke:#000000;stroke-width:0.8;" x="288.42194" xlink:href="#m0b0316deee" y="307.584"/>
      </g>
     </g>
     <g id="text_5">
      <!-- −5 -->
      <g transform="translate(281.050846 322.182437)scale(0.1 -0.1)">
       <use xlink:href="#DejaVuSans-2212"/>
       <use x="83.789062" xlink:href="#DejaVuSans-35"/>
      </g>
     </g>
    </g>
    <g id="xtick_6">
     <g id="line2d_6">
      <g>
       <use style="stroke:#000000;stroke-width:0.8;" x="343.46738" xlink:href="#m0b0316deee" y="307.584"/>
      </g>
     </g>
     <g id="text_6">
      <!-- 0 -->
      <g transform="translate(340.28613 322.182437)scale(0.1 -0.1)">
       <use xlink:href="#DejaVuSans-30"/>
      </g>
     </g>
    </g>
    <g id="xtick_7">
     <g id="line2d_7">
      <g>
       <use style="stroke:#000000;stroke-width:0.8;" x="398.512819" xlink:href="#m0b0316deee" y="307.584"/>
      </g>
     </g>
     <g id="text_7">
      <!-- 5 -->
      <g transform="translate(395.331569 322.182437)scale(0.1 -0.1)">
       <use xlink:href="#DejaVuSans-35"/>
      </g>
     </g>
    </g>
   </g>
   <g id="matplotlib.axis_2">
    <g id="ytick_1">
     <g id="line2d_8">
      <defs>
       <path d="M 0 0 
L -3.5 0 
" id="mde5a5cad87" style="stroke:#000000;stroke-width:0.8;"/>
      </defs>
      <g>
       <use style="stroke:#000000;stroke-width:0.8;" x="57.6" xlink:href="#mde5a5cad87" y="283.681645"/>
      </g>
     </g>
     <g id="text_8">
      <!-- −10 -->
      <g transform="translate(29.495313 287.480864)scale(0.1 -0.1)">
       <use xlink:href="#DejaVuSans-2212"/>
       <use x="83.789062" xlink:href="#DejaVuSans-31"/>
       <use x="147.412109" xlink:href="#DejaVuSans-30"/>
      </g>
     </g>
    </g>
    <g id="ytick_2">
     <g id="line2d_9">
      <g>
       <use style="stroke:#000000;stroke-width:0.8;" x="57.6" xlink:href="#mde5a5cad87" y="244.36834"/>
      </g>
     </g>
     <g id="text_9">
      <!-- −5 -->
      <g transform="translate(35.857813 248.167559)scale(0.1 -0.1)">
       <use xlink:href="#DejaVuSans-2212"/>
       <use x="83.789062" xlink:href="#DejaVuSans-35"/>
      </g>
     </g>
    </g>
    <g id="ytick_3">
     <g id="line2d_10">
      <g>
       <use style="stroke:#000000;stroke-width:0.8;" x="57.6" xlink:href="#mde5a5cad87" y="205.055035"/>
      </g>
     </g>
     <g id="text_10">
      <!-- 0 -->
      <g transform="translate(44.2375 208.854254)scale(0.1 -0.1)">
       <use xlink:href="#DejaVuSans-30"/>
      </g>
     </g>
    </g>
    <g id="ytick_4">
     <g id="line2d_11">
      <g>
       <use style="stroke:#000000;stroke-width:0.8;" x="57.6" xlink:href="#mde5a5cad87" y="165.741731"/>
      </g>
     </g>
     <g id="text_11">
      <!-- 5 -->
      <g transform="translate(44.2375 169.540949)scale(0.1 -0.1)">
       <use xlink:href="#DejaVuSans-35"/>
      </g>
     </g>
    </g>
    <g id="ytick_5">
     <g id="line2d_12">
      <g>
       <use style="stroke:#000000;stroke-width:0.8;" x="57.6" xlink:href="#mde5a5cad87" y="126.428426"/>
      </g>
     </g>
     <g id="text_12">
      <!-- 10 -->
      <g transform="translate(37.875 130.227645)scale(0.1 -0.1)">
       <use xlink:href="#DejaVuSans-31"/>
       <use x="63.623047" xlink:href="#DejaVuSans-30"/>
      </g>
     </g>
    </g>
    <g id="ytick_6">
     <g id="line2d_13">
      <g>
       <use style="stroke:#000000;stroke-width:0.8;" x="57.6" xlink:href="#mde5a5cad87" y="87.115121"/>
      </g>
     </g>
     <g id="text_13">
      <!-- 15 -->
      <g transform="translate(37.875 90.91434)scale(0.1 -0.1)">
       <use xlink:href="#DejaVuSans-31"/>
       <use x="63.623047" xlink:href="#DejaVuSans-35"/>
      </g>
     </g>
    </g>
    <g id="ytick_7">
     <g id="line2d_14">
      <g>
       <use style="stroke:#000000;stroke-width:0.8;" x="57.6" xlink:href="#mde5a5cad87" y="47.801816"/>
      </g>
     </g>
     <g id="text_14">
      <!-- 20 -->
      <g transform="translate(37.875 51.601035)scale(0.1 -0.1)">
       <use xlink:href="#DejaVuSans-32"/>
       <use x="63.623047" xlink:href="#DejaVuSans-30"/>
      </g>
     </g>
    </g>
   </g>
   <g id="patch_3">
    <path d="M 57.6 307.584 
L 57.6 41.472 
" style="fill:none;stroke:#000000;stroke-linecap:square;stroke-linejoin:miter;stroke-width:0.8;"/>
   </g>
   <g id="patch_4">
    <path d="M 414.72 307.584 
L 414.72 41.472 
" style="fill:none;stroke:#000000;stroke-linecap:square;stroke-linejoin:miter;stroke-width:0.8;"/>
   </g>
   <g id="patch_5">
    <path d="M 57.6 307.584 
L 414.72 307.584 
" style="fill:none;stroke:#000000;stroke-linecap:square;stroke-linejoin:miter;stroke-width:0.8;"/>
   </g>
   <g id="patch_6">
    <path d="M 57.6 41.472 
L 414.72 41.472 
" style="fill:none;stroke:#000000;stroke-linecap:square;stroke-linejoin:miter;stroke-width:0.8;"/>
   </g>
  </g>
 </g>
 <defs>
  <clipPath id="pab436a9fac">
   <rect height="266.112" width="357.12" x="57.6" y="41.472"/>
  </clipPath>
 </defs>
</svg>
