<svg xmlns="http://www.w3.org/2000/svg" xmlns:xlink="http://www.w3.org/1999/xlink" contentStyleType="text/css" height="1173px" preserveAspectRatio="none" style="width:430px;height:1173px;background:#FFFFFF;" version="1.1" viewBox="0 0 430 1173" width="430px" zoomAndPan="magnify"><defs/><g><rect fill="#F1F1F1" height="35.9609" rx="12.5" ry="12.5" style="stroke:#181818;stroke-width:0.5;" width="190.0801" x="114.1816" y="11"/><text fill="#000000" font-family="sans-serif" font-size="12" lengthAdjust="spacing" textLength="170.0801" x="124.1816" y="33.9492">CalculatePipeHeightIncrement()</text><rect fill="#F1F1F1" height="35.9609" rx="12.5" ry="12.5" style="stroke:#181818;stroke-width:0.5;" width="79.707" x="169.3682" y="66.9609"/><text fill="#000000" font-family="sans-serif" font-size="12" lengthAdjust="spacing" textLength="56.373" x="182.7021" y="89.9102">iteration=0</text><rect fill="#F1F1F1" height="35.9609" rx="12.5" ry="12.5" style="stroke:#181818;stroke-width:0.5;" width="160.4082" x="129.0176" y="180.292"/><text fill="#000000" font-family="sans-serif" font-size="12" lengthAdjust="spacing" textLength="140.4082" x="139.0176" y="203.2412">converged = Recalculate()</text><rect fill="#F1F1F1" height="35.9609" rx="12.5" ry="12.5" style="stroke:#181818;stroke-width:0.5;" width="262.4727" x="77.9854" y="337.623"/><text fill="#000000" font-family="sans-serif" font-size="12" lengthAdjust="spacing" textLength="242.4727" x="87.9854" y="360.5723">eq_height = CalculateEquilibriumPipeHeight()</text><rect fill="#F1F1F1" height="35.9609" rx="12.5" ry="12.5" style="stroke:#181818;stroke-width:0.5;" width="165.0605" x="126.6914" y="437.584"/><text fill="#000000" font-family="sans-serif" font-size="12" lengthAdjust="spacing" textLength="145.0605" x="136.6914" y="460.5332">Set PIPE_EROSION = true</text><polygon fill="#F1F1F1" points="142.4214,393.584,276.022,393.584,288.022,405.584,276.022,417.584,142.4214,417.584,130.4214,405.584,142.4214,393.584" style="stroke:#181818;stroke-width:0.5;"/><text fill="#000000" font-family="sans-serif" font-size="11" lengthAdjust="spacing" textLength="133.6006" x="142.4214" y="410.1387">PIPE_HEIGHT &gt; eq_height</text><polygon fill="#F1F1F1" points="209.2217,493.5449,221.2217,505.5449,209.2217,517.5449,197.2217,505.5449,209.2217,493.5449" style="stroke:#181818;stroke-width:0.5;"/><rect fill="#F1F1F1" height="35.9609" rx="12.5" ry="12.5" style="stroke:#181818;stroke-width:0.5;" width="255.793" x="81.3252" y="586.8066"/><text fill="#000000" font-family="sans-serif" font-size="12" lengthAdjust="spacing" textLength="235.793" x="91.3252" y="609.7559">Set PIPE_HEIGHT + pipe_height_increment</text><rect fill="#F1F1F1" height="35.9609" rx="12.5" ry="12.5" style="stroke:#181818;stroke-width:0.5;" width="117.0488" x="150.6973" y="657.7676"/><text fill="#000000" font-family="sans-serif" font-size="12" lengthAdjust="spacing" textLength="97.0488" x="160.6973" y="680.7168">equilibrium = false</text><polygon fill="#F1F1F1" points="81.4944,537.5449,336.949,537.5449,348.949,552.1758,336.949,566.8066,81.4944,566.8066,69.4944,552.1758,81.4944,537.5449" style="stroke:#181818;stroke-width:0.5;"/><text fill="#000000" font-family="sans-serif" font-size="11" lengthAdjust="spacing" textLength="255.4546" x="81.4944" y="549.415">(!PIPE_EROSION || PIPE_HEIGHT &gt; eq_height) &amp;&amp;</text><text fill="#000000" font-family="sans-serif" font-size="11" lengthAdjust="spacing" textLength="112.1753" x="170.1228" y="564.0459">PIPE_HEIGHT &lt; amax</text><polygon fill="#F1F1F1" points="209.2217,717.7285,221.2217,729.7285,209.2217,741.7285,197.2217,729.7285,209.2217,717.7285" style="stroke:#181818;stroke-width:0.5;"/><rect fill="#F1F1F1" height="35.9609" rx="12.5" ry="12.5" style="stroke:#181818;stroke-width:0.5;" width="112.3789" x="153.0322" y="810.9902"/><text fill="#000000" font-family="sans-serif" font-size="12" lengthAdjust="spacing" textLength="92.3789" x="163.0322" y="833.9395">equilibrium = true</text><rect fill="#F1F1F1" height="35.9609" rx="12.5" ry="12.5" style="stroke:#181818;stroke-width:0.5;" width="141.0488" x="138.6973" y="881.9512"/><text fill="#000000" font-family="sans-serif" font-size="12" lengthAdjust="spacing" textLength="121.0488" x="148.6973" y="904.9004">Set PIPE_HEIGHT = 0</text><polygon fill="#F1F1F1" points="79.7729,761.7285,338.6704,761.7285,350.6704,776.3594,338.6704,790.9902,79.7729,790.9902,67.7729,776.3594,79.7729,761.7285" style="stroke:#181818;stroke-width:0.5;"/><text fill="#000000" font-family="sans-serif" font-size="11" lengthAdjust="spacing" textLength="188.6006" x="79.7729" y="773.5986">(!PIPE_EROSION &amp;&amp; iteration &gt; 1) &amp;&amp;</text><text fill="#000000" font-family="sans-serif" font-size="11" lengthAdjust="spacing" textLength="246.6729" x="91.9976" y="788.2295">eq_height - PIPE_HEIGHT &gt; DIFF_PIPE_HEIGHT</text><polygon fill="#F1F1F1" points="209.2217,937.9121,221.2217,949.9121,209.2217,961.9121,197.2217,949.9121,209.2217,937.9121" style="stroke:#181818;stroke-width:0.5;"/><rect fill="#F1F1F1" height="35.9609" rx="12.5" ry="12.5" style="stroke:#181818;stroke-width:0.5;" width="310.4434" x="54" y="981.9121"/><text fill="#000000" font-family="sans-serif" font-size="12" lengthAdjust="spacing" textLength="290.4434" x="64" y="1004.8613">Set DIFF_PIPE_HEIGHT = eq_height - PIPE_HEIGHT</text><rect fill="#F1F1F1" height="35.9609" rx="12.5" ry="12.5" style="stroke:#181818;stroke-width:0.5;" width="76.707" x="170.8682" y="1037.873"/><text fill="#000000" font-family="sans-serif" font-size="12" lengthAdjust="spacing" textLength="56.707" x="180.8682" y="1060.8223">iteration++</text><polygon fill="#F1F1F1" points="142.5637,280.2529,275.8796,280.2529,287.8796,292.2529,275.8796,304.2529,142.5637,304.2529,130.5637,292.2529,142.5637,280.2529" style="stroke:#181818;stroke-width:0.5;"/><text fill="#000000" font-family="sans-serif" font-size="11" lengthAdjust="spacing" textLength="18.9546" x="213.2217" y="316.123">true</text><text fill="#000000" font-family="sans-serif" font-size="11" lengthAdjust="spacing" textLength="133.3159" x="142.5637" y="296.8076">for each open pipe element</text><polygon fill="#F1F1F1" points="183.5371,236.2529,234.9063,236.2529,246.9063,248.2529,234.9063,260.2529,183.5371,260.2529,171.5371,248.2529,183.5371,236.2529" style="stroke:#181818;stroke-width:0.5;"/><text fill="#000000" font-family="sans-serif" font-size="11" lengthAdjust="spacing" textLength="51.3691" x="183.5371" y="252.8076">converged</text><polygon fill="#F1F1F1" points="209.2217,1115.834,221.2217,1127.834,209.2217,1139.834,197.2217,1127.834,209.2217,1115.834" style="stroke:#181818;stroke-width:0.5;"/><polygon fill="#F1F1F1" points="74.5576,122.9219,343.8857,122.9219,355.8857,134.9219,343.8857,146.9219,74.5576,146.9219,62.5576,134.9219,74.5576,122.9219" style="stroke:#181818;stroke-width:0.5;"/><text fill="#000000" font-family="sans-serif" font-size="11" lengthAdjust="spacing" textLength="18.9546" x="213.2217" y="158.792">true</text><text fill="#000000" font-family="sans-serif" font-size="11" lengthAdjust="spacing" textLength="269.3281" x="74.5576" y="139.4766">iteration &lt; max iterations &amp;&amp; !equilibrium &amp;&amp; converged</text><line style="stroke:#181818;stroke-width:1.0;" x1="209.2217" x2="209.2217" y1="46.9609" y2="66.9609"/><polygon fill="#181818" points="205.2217,56.9609,209.2217,66.9609,213.2217,56.9609,209.2217,60.9609" style="stroke:#181818;stroke-width:1.0;"/><line style="stroke:#181818;stroke-width:1.0;" x1="209.2217" x2="209.2217" y1="417.584" y2="437.584"/><polygon fill="#181818" points="205.2217,427.584,209.2217,437.584,213.2217,427.584,209.2217,431.584" style="stroke:#181818;stroke-width:1.0;"/><line style="stroke:#181818;stroke-width:1.0;" x1="288.022" x2="301.752" y1="405.584" y2="405.584"/><polygon fill="#181818" points="297.752,445.5645,301.752,455.5645,305.752,445.5645,301.752,449.5645" style="stroke:#181818;stroke-width:1.0;"/><line style="stroke:#181818;stroke-width:1.0;" x1="301.752" x2="301.752" y1="405.584" y2="505.5449"/><line style="stroke:#181818;stroke-width:1.0;" x1="301.752" x2="221.2217" y1="505.5449" y2="505.5449"/><polygon fill="#181818" points="231.2217,501.5449,221.2217,505.5449,231.2217,509.5449,227.2217,505.5449" style="stroke:#181818;stroke-width:1.0;"/><line style="stroke:#181818;stroke-width:1.0;" x1="209.2217" x2="209.2217" y1="473.5449" y2="493.5449"/><polygon fill="#181818" points="205.2217,483.5449,209.2217,493.5449,213.2217,483.5449,209.2217,487.5449" style="stroke:#181818;stroke-width:1.0;"/><line style="stroke:#181818;stroke-width:1.0;" x1="209.2217" x2="209.2217" y1="373.584" y2="393.584"/><polygon fill="#181818" points="205.2217,383.584,209.2217,393.584,213.2217,383.584,209.2217,387.584" style="stroke:#181818;stroke-width:1.0;"/><line style="stroke:#181818;stroke-width:1.0;" x1="209.2217" x2="209.2217" y1="622.7676" y2="657.7676"/><polygon fill="#181818" points="205.2217,647.7676,209.2217,657.7676,213.2217,647.7676,209.2217,651.7676" style="stroke:#181818;stroke-width:1.0;"/><line style="stroke:#181818;stroke-width:1.0;" x1="209.2217" x2="209.2217" y1="566.8066" y2="586.8066"/><polygon fill="#181818" points="205.2217,576.8066,209.2217,586.8066,213.2217,576.8066,209.2217,580.8066" style="stroke:#181818;stroke-width:1.0;"/><line style="stroke:#181818;stroke-width:1.0;" x1="348.949" x2="360.949" y1="552.1758" y2="552.1758"/><polygon fill="#181818" points="356.949,628.9521,360.949,638.9521,364.949,628.9521,360.949,632.9521" style="stroke:#181818;stroke-width:1.0;"/><line style="stroke:#181818;stroke-width:1.0;" x1="360.949" x2="360.949" y1="552.1758" y2="729.7285"/><line style="stroke:#181818;stroke-width:1.0;" x1="360.949" x2="221.2217" y1="729.7285" y2="729.7285"/><polygon fill="#181818" points="231.2217,725.7285,221.2217,729.7285,231.2217,733.7285,227.2217,729.7285" style="stroke:#181818;stroke-width:1.0;"/><line style="stroke:#181818;stroke-width:1.0;" x1="209.2217" x2="209.2217" y1="693.7285" y2="717.7285"/><polygon fill="#181818" points="205.2217,707.7285,209.2217,717.7285,213.2217,707.7285,209.2217,711.7285" style="stroke:#181818;stroke-width:1.0;"/><line style="stroke:#181818;stroke-width:1.0;" x1="209.2217" x2="209.2217" y1="517.5449" y2="537.5449"/><polygon fill="#181818" points="205.2217,527.5449,209.2217,537.5449,213.2217,527.5449,209.2217,531.5449" style="stroke:#181818;stroke-width:1.0;"/><line style="stroke:#181818;stroke-width:1.0;" x1="209.2217" x2="209.2217" y1="846.9512" y2="881.9512"/><polygon fill="#181818" points="205.2217,871.9512,209.2217,881.9512,213.2217,871.9512,209.2217,875.9512" style="stroke:#181818;stroke-width:1.0;"/><line style="stroke:#181818;stroke-width:1.0;" x1="209.2217" x2="209.2217" y1="790.9902" y2="810.9902"/><polygon fill="#181818" points="205.2217,800.9902,209.2217,810.9902,213.2217,800.9902,209.2217,804.9902" style="stroke:#181818;stroke-width:1.0;"/><line style="stroke:#181818;stroke-width:1.0;" x1="350.6704" x2="362.6704" y1="776.3594" y2="776.3594"/><polygon fill="#181818" points="358.6704,853.1357,362.6704,863.1357,366.6704,853.1357,362.6704,857.1357" style="stroke:#181818;stroke-width:1.0;"/><line style="stroke:#181818;stroke-width:1.0;" x1="362.6704" x2="362.6704" y1="776.3594" y2="949.9121"/><line style="stroke:#181818;stroke-width:1.0;" x1="362.6704" x2="221.2217" y1="949.9121" y2="949.9121"/><polygon fill="#181818" points="231.2217,945.9121,221.2217,949.9121,231.2217,953.9121,227.2217,949.9121" style="stroke:#181818;stroke-width:1.0;"/><line style="stroke:#181818;stroke-width:1.0;" x1="209.2217" x2="209.2217" y1="917.9121" y2="937.9121"/><polygon fill="#181818" points="205.2217,927.9121,209.2217,937.9121,213.2217,927.9121,209.2217,931.9121" style="stroke:#181818;stroke-width:1.0;"/><line style="stroke:#181818;stroke-width:1.0;" x1="209.2217" x2="209.2217" y1="741.7285" y2="761.7285"/><polygon fill="#181818" points="205.2217,751.7285,209.2217,761.7285,213.2217,751.7285,209.2217,755.7285" style="stroke:#181818;stroke-width:1.0;"/><line style="stroke:#181818;stroke-width:1.0;" x1="209.2217" x2="209.2217" y1="961.9121" y2="981.9121"/><polygon fill="#181818" points="205.2217,971.9121,209.2217,981.9121,213.2217,971.9121,209.2217,975.9121" style="stroke:#181818;stroke-width:1.0;"/><line style="stroke:#181818;stroke-width:1.0;" x1="209.2217" x2="209.2217" y1="1017.873" y2="1037.873"/><polygon fill="#181818" points="205.2217,1027.873,209.2217,1037.873,213.2217,1027.873,209.2217,1031.873" style="stroke:#181818;stroke-width:1.0;"/><line style="stroke:#181818;stroke-width:1.0;" x1="209.2217" x2="209.2217" y1="304.2529" y2="337.623"/><polygon fill="#181818" points="205.2217,327.623,209.2217,337.623,213.2217,327.623,209.2217,331.623" style="stroke:#181818;stroke-width:1.0;"/><line style="stroke:#181818;stroke-width:1.0;" x1="209.2217" x2="209.2217" y1="1073.834" y2="1083.834"/><line style="stroke:#181818;stroke-width:1.0;" x1="209.2217" x2="376.4434" y1="1083.834" y2="1083.834"/><polygon fill="#181818" points="372.4434,701.9131,376.4434,691.9131,380.4434,701.9131,376.4434,697.9131" style="stroke:#181818;stroke-width:1.0;"/><line style="stroke:#181818;stroke-width:1.0;" x1="376.4434" x2="376.4434" y1="292.2529" y2="1083.834"/><line style="stroke:#181818;stroke-width:1.0;" x1="376.4434" x2="287.8796" y1="292.2529" y2="292.2529"/><polygon fill="#181818" points="297.8796,288.2529,287.8796,292.2529,297.8796,296.2529,293.8796,292.2529" style="stroke:#181818;stroke-width:1.0;"/><line style="stroke:#181818;stroke-width:1.0;" x1="130.5637" x2="42" y1="292.2529" y2="292.2529"/><polygon fill="#181818" points="38,687.9131,42,697.9131,46,687.9131,42,691.9131" style="stroke:#181818;stroke-width:1.0;"/><line style="stroke:#181818;stroke-width:1.0;" x1="42" x2="42" y1="292.2529" y2="1095.834"/><line style="stroke:#181818;stroke-width:1.0;" x1="42" x2="209.2217" y1="1095.834" y2="1095.834"/><line style="stroke:#181818;stroke-width:1.0;" x1="209.2217" x2="209.2217" y1="1095.834" y2="1115.834"/><polygon fill="#181818" points="205.2217,1105.834,209.2217,1115.834,213.2217,1105.834,209.2217,1109.834" style="stroke:#181818;stroke-width:1.0;"/><line style="stroke:#181818;stroke-width:1.0;" x1="209.2217" x2="209.2217" y1="260.2529" y2="280.2529"/><polygon fill="#181818" points="205.2217,270.2529,209.2217,280.2529,213.2217,270.2529,209.2217,274.2529" style="stroke:#181818;stroke-width:1.0;"/><line style="stroke:#181818;stroke-width:1.0;" x1="246.9063" x2="386.4434" y1="248.2529" y2="248.2529"/><polygon fill="#181818" points="382.4434,681.9131,386.4434,691.9131,390.4434,681.9131,386.4434,685.9131" style="stroke:#181818;stroke-width:1.0;"/><line style="stroke:#181818;stroke-width:1.0;" x1="386.4434" x2="386.4434" y1="248.2529" y2="1127.834"/><line style="stroke:#181818;stroke-width:1.0;" x1="386.4434" x2="221.2217" y1="1127.834" y2="1127.834"/><polygon fill="#181818" points="231.2217,1123.834,221.2217,1127.834,231.2217,1131.834,227.2217,1127.834" style="stroke:#181818;stroke-width:1.0;"/><line style="stroke:#181818;stroke-width:1.0;" x1="209.2217" x2="209.2217" y1="216.2529" y2="236.2529"/><polygon fill="#181818" points="205.2217,226.2529,209.2217,236.2529,213.2217,226.2529,209.2217,230.2529" style="stroke:#181818;stroke-width:1.0;"/><line style="stroke:#181818;stroke-width:1.0;" x1="209.2217" x2="209.2217" y1="146.9219" y2="180.292"/><polygon fill="#181818" points="205.2217,170.292,209.2217,180.292,213.2217,170.292,209.2217,174.292" style="stroke:#181818;stroke-width:1.0;"/><line style="stroke:#181818;stroke-width:1.0;" x1="209.2217" x2="209.2217" y1="1139.834" y2="1149.834"/><line style="stroke:#181818;stroke-width:1.0;" x1="209.2217" x2="404.4434" y1="1149.834" y2="1149.834"/><polygon fill="#181818" points="400.4434,647.1172,404.4434,637.1172,408.4434,647.1172,404.4434,643.1172" style="stroke:#181818;stroke-width:1.0;"/><line style="stroke:#181818;stroke-width:1.0;" x1="404.4434" x2="404.4434" y1="134.9219" y2="1149.834"/><line style="stroke:#181818;stroke-width:1.0;" x1="404.4434" x2="355.8857" y1="134.9219" y2="134.9219"/><polygon fill="#181818" points="365.8857,130.9219,355.8857,134.9219,365.8857,138.9219,361.8857,134.9219" style="stroke:#181818;stroke-width:1.0;"/><line style="stroke:#181818;stroke-width:1.0;" x1="62.5576" x2="24" y1="134.9219" y2="134.9219"/><polygon fill="#181818" points="20,633.1172,24,643.1172,28,633.1172,24,637.1172" style="stroke:#181818;stroke-width:1.0;"/><line style="stroke:#181818;stroke-width:1.0;" x1="24" x2="24" y1="134.9219" y2="1161.834"/><line style="stroke:#181818;stroke-width:1.0;" x1="24" x2="209.2217" y1="1161.834" y2="1161.834"/><line style="stroke:#181818;stroke-width:1.0;" x1="209.2217" x2="209.2217" y1="102.9219" y2="122.9219"/><polygon fill="#181818" points="205.2217,112.9219,209.2217,122.9219,213.2217,112.9219,209.2217,116.9219" style="stroke:#181818;stroke-width:1.0;"/><!--SRC=[VP91Su8m48Nl_ehdXO5nEcElAbvQh5ogexqpAIwI6GoAeUt17z-GaWHmR6xPxBxztcumUs55MXTCqfQVQKtycCjOf1MTI4W_c8ym0vTKCSbB4KxL_Jld1S6tGInmOZykwGhFmvWkDI_uPyNhKtDFI_55rP4E0VWLlgng2fIq3IF4ZbA3ellopEzKoPn4szlFoWh4qXpbcGJEYXjKQE2-EbsIN1jIwjPcvC2SOzDm6s-ZP1t5R-iFB67hJVlPdYHqJhJRxEFDkn9kcgbY4WUUQGr_tCkutV1GrVD6-Ezq2nTWQipt9EtpHC-XLKwusU1SZy6j8aJ6YciF64DYjIwtt2MUBQURvzF0qskyMYMTaC5ipm2X7Pbv75e9CNLy-dKehr8Ui3H-BVnaygUZVurLD85V]--></g></svg>