<svg xmlns="http://www.w3.org/2000/svg" xmlns:xlink="http://www.w3.org/1999/xlink" contentStyleType="text/css" height="511px" preserveAspectRatio="none" style="width:461px;height:511px;background:#FFFFFF;" version="1.1" viewBox="0 0 461 511" width="461px" zoomAndPan="magnify"><defs/><g><rect fill="#F1F1F1" height="35.9609" rx="12.5" ry="12.5" style="stroke:#181818;stroke-width:0.5;" width="80.3633" x="247.125" y="11"/><text fill="#000000" font-family="sans-serif" font-size="12" lengthAdjust="spacing" textLength="60.3633" x="257.125" y="33.9492">grow = true</text><polygon fill="#F1F1F1" points="188.4033,66.9609,386.21,66.9609,398.21,78.9609,386.21,90.9609,188.4033,90.9609,176.4033,78.9609,188.4033,66.9609" style="stroke:#181818;stroke-width:0.5;"/><text fill="#000000" font-family="sans-serif" font-size="11" lengthAdjust="spacing" textLength="197.8066" x="188.4033" y="83.5156">n_open_elements &lt; PipeElements.size()</text><rect fill="#F1F1F1" height="35.9609" rx="12.5" ry="12.5" style="stroke:#181818;stroke-width:0.5;" width="310.8066" x="11" y="100.9609"/><text fill="#000000" font-family="sans-serif" font-size="12" lengthAdjust="spacing" textLength="290.8066" x="21" y="123.9102">PIPE_HEIGHT of PipeElements(n_open_elements - 1)</text><rect fill="#F1F1F1" height="35.9609" rx="12.5" ry="12.5" style="stroke:#181818;stroke-width:0.5;" width="85.0332" x="123.8867" y="206.1836"/><text fill="#000000" font-family="sans-serif" font-size="12" lengthAdjust="spacing" textLength="65.0332" x="133.8867" y="229.1328">grow = false</text><rect fill="#F1F1F1" height="35.9609" rx="12.5" ry="12.5" style="stroke:#181818;stroke-width:0.5;" width="163.0625" x="84.8721" y="262.1445"/><text fill="#000000" font-family="sans-serif" font-size="12" lengthAdjust="spacing" textLength="143.0625" x="94.8721" y="285.0938">Set PIPE_EROSION=false</text><rect fill="#F1F1F1" height="35.9609" rx="12.5" ry="12.5" style="stroke:#181818;stroke-width:0.5;" width="154.3965" x="89.2051" y="333.1055"/><text fill="#000000" font-family="sans-serif" font-size="12" lengthAdjust="spacing" textLength="134.3965" x="99.2051" y="356.0547">Set PIPE_ACTIVE= false</text><rect fill="#F1F1F1" height="35.9609" rx="12.5" ry="12.5" style="stroke:#181818;stroke-width:0.5;" width="126.7344" x="103.0361" y="389.0664"/><text fill="#000000" font-family="sans-serif" font-size="12" lengthAdjust="spacing" textLength="106.7344" x="113.0361" y="412.0156">n_open_elements --</text><polygon fill="#F1F1F1" points="77.4875,156.9219,255.3191,156.9219,267.3191,171.5527,255.3191,186.1836,77.4875,186.1836,65.4875,171.5527,77.4875,156.9219" style="stroke:#181818;stroke-width:0.5;"/><text fill="#000000" font-family="sans-serif" font-size="11" lengthAdjust="spacing" textLength="177.8315" x="77.4875" y="168.792">PIPE_HEIGHT &gt; max_pipe_height ||</text><text fill="#000000" font-family="sans-serif" font-size="11" lengthAdjust="spacing" textLength="129.293" x="92.7683" y="183.4229">PIPE_HEIGHT &lt; accuracy</text><polygon fill="#F1F1F1" points="166.4033,445.0273,178.4033,457.0273,166.4033,469.0273,154.4033,457.0273,166.4033,445.0273" style="stroke:#181818;stroke-width:0.5;"/><rect fill="#F1F1F1" height="35.9609" rx="12.5" ry="12.5" style="stroke:#181818;stroke-width:0.5;" width="85.0332" x="365.6934" y="100.9609"/><text fill="#000000" font-family="sans-serif" font-size="12" lengthAdjust="spacing" textLength="65.0332" x="375.6934" y="123.9102">grow = false</text><polygon fill="#F1F1F1" points="287.3066,475.0273,299.3066,487.0273,287.3066,499.0273,275.3066,487.0273,287.3066,475.0273" style="stroke:#181818;stroke-width:0.5;"/><line style="stroke:#181818;stroke-width:1.0;" x1="166.4033" x2="166.4033" y1="242.1445" y2="262.1445"/><polygon fill="#181818" points="162.4033,252.1445,166.4033,262.1445,170.4033,252.1445,166.4033,256.1445" style="stroke:#181818;stroke-width:1.0;"/><line style="stroke:#181818;stroke-width:1.0;" x1="166.4033" x2="166.4033" y1="298.1055" y2="333.1055"/><polygon fill="#181818" points="162.4033,323.1055,166.4033,333.1055,170.4033,323.1055,166.4033,327.1055" style="stroke:#181818;stroke-width:1.0;"/><line style="stroke:#181818;stroke-width:1.0;" x1="166.4033" x2="166.4033" y1="369.0664" y2="389.0664"/><polygon fill="#181818" points="162.4033,379.0664,166.4033,389.0664,170.4033,379.0664,166.4033,383.0664" style="stroke:#181818;stroke-width:1.0;"/><line style="stroke:#181818;stroke-width:1.0;" x1="166.4033" x2="166.4033" y1="186.1836" y2="206.1836"/><polygon fill="#181818" points="162.4033,196.1836,166.4033,206.1836,170.4033,196.1836,166.4033,200.1836" style="stroke:#181818;stroke-width:1.0;"/><line style="stroke:#181818;stroke-width:1.0;" x1="267.3191" x2="279.3191" y1="171.5527" y2="171.5527"/><polygon fill="#181818" points="275.3191,304.29,279.3191,314.29,283.3191,304.29,279.3191,308.29" style="stroke:#181818;stroke-width:1.0;"/><line style="stroke:#181818;stroke-width:1.0;" x1="279.3191" x2="279.3191" y1="171.5527" y2="457.0273"/><line style="stroke:#181818;stroke-width:1.0;" x1="279.3191" x2="178.4033" y1="457.0273" y2="457.0273"/><polygon fill="#181818" points="188.4033,453.0273,178.4033,457.0273,188.4033,461.0273,184.4033,457.0273" style="stroke:#181818;stroke-width:1.0;"/><line style="stroke:#181818;stroke-width:1.0;" x1="166.4033" x2="166.4033" y1="425.0273" y2="445.0273"/><polygon fill="#181818" points="162.4033,435.0273,166.4033,445.0273,170.4033,435.0273,166.4033,439.0273" style="stroke:#181818;stroke-width:1.0;"/><line style="stroke:#181818;stroke-width:1.0;" x1="166.4033" x2="166.4033" y1="136.9219" y2="156.9219"/><polygon fill="#181818" points="162.4033,146.9219,166.4033,156.9219,170.4033,146.9219,166.4033,150.9219" style="stroke:#181818;stroke-width:1.0;"/><line style="stroke:#181818;stroke-width:1.0;" x1="176.4033" x2="166.4033" y1="78.9609" y2="78.9609"/><line style="stroke:#181818;stroke-width:1.0;" x1="166.4033" x2="166.4033" y1="78.9609" y2="100.9609"/><polygon fill="#181818" points="162.4033,90.9609,166.4033,100.9609,170.4033,90.9609,166.4033,94.9609" style="stroke:#181818;stroke-width:1.0;"/><line style="stroke:#181818;stroke-width:1.0;" x1="398.21" x2="408.21" y1="78.9609" y2="78.9609"/><line style="stroke:#181818;stroke-width:1.0;" x1="408.21" x2="408.21" y1="78.9609" y2="100.9609"/><polygon fill="#181818" points="404.21,90.9609,408.21,100.9609,412.21,90.9609,408.21,94.9609" style="stroke:#181818;stroke-width:1.0;"/><line style="stroke:#181818;stroke-width:1.0;" x1="166.4033" x2="166.4033" y1="469.0273" y2="487.0273"/><line style="stroke:#181818;stroke-width:1.0;" x1="166.4033" x2="275.3066" y1="487.0273" y2="487.0273"/><polygon fill="#181818" points="265.3066,483.0273,275.3066,487.0273,265.3066,491.0273,269.3066,487.0273" style="stroke:#181818;stroke-width:1.0;"/><line style="stroke:#181818;stroke-width:1.0;" x1="408.21" x2="408.21" y1="136.9219" y2="487.0273"/><line style="stroke:#181818;stroke-width:1.0;" x1="408.21" x2="299.3066" y1="487.0273" y2="487.0273"/><polygon fill="#181818" points="309.3066,483.0273,299.3066,487.0273,309.3066,491.0273,305.3066,487.0273" style="stroke:#181818;stroke-width:1.0;"/><line style="stroke:#181818;stroke-width:1.0;" x1="287.3066" x2="287.3066" y1="46.9609" y2="66.9609"/><polygon fill="#181818" points="283.3066,56.9609,287.3066,66.9609,291.3066,56.9609,287.3066,60.9609" style="stroke:#181818;stroke-width:1.0;"/><!--SRC=[RKzD2u904BtlhvYZ7WowcWOHItf9IUcwB3Qh2xgAhlI1Fpur1SlcCioyz-Qz0JkjopkueEiMTmIa04EniaB5CCS2bMx0WL1MIATnqyWN6gO9EaD5m0xza3AF-YSlXb9yKLUNBDYQaybIjeU2FrZLArc6CiqqT1s1ePOi1tYIj3LFdhFtK7D-mVDcU63SHQW_Kde98Zyuk__Hmp7sh_H7kyfizGYgcnHzwtb_RSb8U0C0]--></g></svg>