<svg xmlns="http://www.w3.org/2000/svg" xmlns:xlink="http://www.w3.org/1999/xlink" contentStyleType="text/css" height="816px" preserveAspectRatio="none" style="width:389px;height:816px;background:#FFFFFF;" version="1.1" viewBox="0 0 389 816" width="389px" zoomAndPan="magnify"><defs/><g><rect fill="#F1F1F1" height="35.9609" rx="12.5" ry="12.5" style="stroke:#181818;stroke-width:0.5;" width="218.4277" x="84.6943" y="11"/><text fill="#000000" font-family="sans-serif" font-size="12" lengthAdjust="spacing" textLength="198.4277" x="94.6943" y="33.9492">PipeElements = GetPipingElements()</text><rect fill="#F1F1F1" height="35.9609" rx="12.5" ry="12.5" style="stroke:#181818;stroke-width:0.5;" width="317.8086" x="35.0039" y="66.9609"/><text fill="#000000" font-family="sans-serif" font-size="12" lengthAdjust="spacing" textLength="297.8086" x="45.0039" y="89.9102">openPipeElements = InitialiseNumActivePipeElements()</text><rect fill="#F1F1F1" height="35.9609" rx="12.5" ry="12.5" style="stroke:#181818;stroke-width:0.5;" width="202.4141" x="92.7012" y="122.9219"/><text fill="#000000" font-family="sans-serif" font-size="12" lengthAdjust="spacing" textLength="182.4141" x="102.7012" y="145.8711">amax = CalculateMaxPipeHeight()</text><rect fill="#F1F1F1" height="35.9609" rx="12.5" ry="12.5" style="stroke:#181818;stroke-width:0.5;" width="315.8164" x="36" y="236.2529"/><text fill="#000000" font-family="sans-serif" font-size="12" lengthAdjust="spacing" textLength="295.8164" x="46" y="259.2021">Activates next piping element: Set PIPE_ACTIVE = true</text><rect fill="#F1F1F1" height="35.9609" rx="12.5" ry="12.5" style="stroke:#181818;stroke-width:0.5;" width="153.4004" x="117.208" y="292.2139"/><text fill="#000000" font-family="sans-serif" font-size="12" lengthAdjust="spacing" textLength="133.4004" x="127.208" y="315.1631">check_pipe_equilibrium()</text><rect fill="#F1F1F1" height="35.9609" rx="12.5" ry="12.5" style="stroke:#181818;stroke-width:0.5;" width="313.8301" x="36.9932" y="348.1748"/><text fill="#000000" font-family="sans-serif" font-size="12" lengthAdjust="spacing" textLength="293.8301" x="46.9932" y="371.124">grow, openPipeElements = check_status_tip_element()</text><rect fill="#F1F1F1" height="35.9609" rx="12.5" ry="12.5" style="stroke:#181818;stroke-width:0.5;" width="178.7656" x="104.5254" y="448.1357"/><text fill="#000000" font-family="sans-serif" font-size="12" lengthAdjust="spacing" textLength="158.7656" x="114.5254" y="471.085">save_or_reset_pipe_heights()</text><polygon fill="#F1F1F1" points="96.2268,404.1357,291.5896,404.1357,303.5896,416.1357,291.5896,428.1357,96.2268,428.1357,84.2268,416.1357,96.2268,404.1357" style="stroke:#181818;stroke-width:0.5;"/><text fill="#000000" font-family="sans-serif" font-size="11" lengthAdjust="spacing" textLength="195.3628" x="96.2268" y="420.6904">openPipeElements &lt; PipeElements.size</text><polygon fill="#F1F1F1" points="193.9082,504.0967,205.9082,516.0967,193.9082,528.0967,181.9082,516.0967,193.9082,504.0967" style="stroke:#181818;stroke-width:0.5;"/><rect fill="#F1F1F1" height="35.9609" rx="12.5" ry="12.5" style="stroke:#181818;stroke-width:0.5;" width="160.4082" x="113.7041" y="548.0967"/><text fill="#000000" font-family="sans-serif" font-size="12" lengthAdjust="spacing" textLength="140.4082" x="123.7041" y="571.0459">converged = Recalculate()</text><rect fill="#F1F1F1" height="35.9609" rx="12.5" ry="12.5" style="stroke:#181818;stroke-width:0.5;" width="42.6816" x="172.5674" y="648.0576"/><text fill="#000000" font-family="sans-serif" font-size="12" lengthAdjust="spacing" textLength="22.6816" x="182.5674" y="671.0068">stop</text><polygon fill="#F1F1F1" points="159.0498,604.0576,228.7666,604.0576,240.7666,616.0576,228.7666,628.0576,159.0498,628.0576,147.0498,616.0576,159.0498,604.0576" style="stroke:#181818;stroke-width:0.5;"/><text fill="#000000" font-family="sans-serif" font-size="11" lengthAdjust="spacing" textLength="69.7168" x="159.0498" y="620.6123">not converged</text><polygon fill="#F1F1F1" points="193.9082,704.0186,205.9082,716.0186,193.9082,728.0186,181.9082,716.0186,193.9082,704.0186" style="stroke:#181818;stroke-width:0.5;"/><polygon fill="#F1F1F1" points="68.4099,178.8828,319.4065,178.8828,331.4065,190.8828,319.4065,202.8828,68.4099,202.8828,56.4099,190.8828,68.4099,178.8828" style="stroke:#181818;stroke-width:0.5;"/><text fill="#000000" font-family="sans-serif" font-size="11" lengthAdjust="spacing" textLength="18.9546" x="197.9082" y="214.7529">true</text><text fill="#000000" font-family="sans-serif" font-size="11" lengthAdjust="spacing" textLength="250.9966" x="68.4099" y="195.4375">grow and openPipeElements &lt; PipeElements.size()</text><rect fill="#F1F1F1" height="35.9609" rx="12.5" ry="12.5" style="stroke:#181818;stroke-width:0.5;" width="357.5117" x="15.1523" y="770.0186"/><text fill="#000000" font-family="sans-serif" font-size="12" lengthAdjust="spacing" textLength="337.5117" x="25.1523" y="792.9678">GeoMechanicsNewtonRaphsonStrategy::FinalizeSolutionStep()</text><line style="stroke:#181818;stroke-width:1.0;" x1="193.9082" x2="193.9082" y1="46.9609" y2="66.9609"/><polygon fill="#181818" points="189.9082,56.9609,193.9082,66.9609,197.9082,56.9609,193.9082,60.9609" style="stroke:#181818;stroke-width:1.0;"/><line style="stroke:#181818;stroke-width:1.0;" x1="193.9082" x2="193.9082" y1="102.9219" y2="122.9219"/><polygon fill="#181818" points="189.9082,112.9219,193.9082,122.9219,197.9082,112.9219,193.9082,116.9219" style="stroke:#181818;stroke-width:1.0;"/><line style="stroke:#181818;stroke-width:1.0;" x1="193.9082" x2="193.9082" y1="272.2139" y2="292.2139"/><polygon fill="#181818" points="189.9082,282.2139,193.9082,292.2139,197.9082,282.2139,193.9082,286.2139" style="stroke:#181818;stroke-width:1.0;"/><line style="stroke:#181818;stroke-width:1.0;" x1="193.9082" x2="193.9082" y1="328.1748" y2="348.1748"/><polygon fill="#181818" points="189.9082,338.1748,193.9082,348.1748,197.9082,338.1748,193.9082,342.1748" style="stroke:#181818;stroke-width:1.0;"/><line style="stroke:#181818;stroke-width:1.0;" x1="193.9082" x2="193.9082" y1="428.1357" y2="448.1357"/><polygon fill="#181818" points="189.9082,438.1357,193.9082,448.1357,197.9082,438.1357,193.9082,442.1357" style="stroke:#181818;stroke-width:1.0;"/><line style="stroke:#181818;stroke-width:1.0;" x1="303.5896" x2="315.5896" y1="416.1357" y2="416.1357"/><polygon fill="#181818" points="311.5896,456.1162,315.5896,466.1162,319.5896,456.1162,315.5896,460.1162" style="stroke:#181818;stroke-width:1.0;"/><line style="stroke:#181818;stroke-width:1.0;" x1="315.5896" x2="315.5896" y1="416.1357" y2="516.0967"/><line style="stroke:#181818;stroke-width:1.0;" x1="315.5896" x2="205.9082" y1="516.0967" y2="516.0967"/><polygon fill="#181818" points="215.9082,512.0967,205.9082,516.0967,215.9082,520.0967,211.9082,516.0967" style="stroke:#181818;stroke-width:1.0;"/><line style="stroke:#181818;stroke-width:1.0;" x1="193.9082" x2="193.9082" y1="484.0967" y2="504.0967"/><polygon fill="#181818" points="189.9082,494.0967,193.9082,504.0967,197.9082,494.0967,193.9082,498.0967" style="stroke:#181818;stroke-width:1.0;"/><line style="stroke:#181818;stroke-width:1.0;" x1="193.9082" x2="193.9082" y1="384.1357" y2="404.1357"/><polygon fill="#181818" points="189.9082,394.1357,193.9082,404.1357,197.9082,394.1357,193.9082,398.1357" style="stroke:#181818;stroke-width:1.0;"/><line style="stroke:#181818;stroke-width:1.0;" x1="193.9082" x2="193.9082" y1="528.0967" y2="548.0967"/><polygon fill="#181818" points="189.9082,538.0967,193.9082,548.0967,197.9082,538.0967,193.9082,542.0967" style="stroke:#181818;stroke-width:1.0;"/><line style="stroke:#181818;stroke-width:1.0;" x1="193.9082" x2="193.9082" y1="628.0576" y2="648.0576"/><polygon fill="#181818" points="189.9082,638.0576,193.9082,648.0576,197.9082,638.0576,193.9082,642.0576" style="stroke:#181818;stroke-width:1.0;"/><line style="stroke:#181818;stroke-width:1.0;" x1="240.7666" x2="252.7666" y1="616.0576" y2="616.0576"/><polygon fill="#181818" points="248.7666,656.0381,252.7666,666.0381,256.7666,656.0381,252.7666,660.0381" style="stroke:#181818;stroke-width:1.0;"/><line style="stroke:#181818;stroke-width:1.0;" x1="252.7666" x2="252.7666" y1="616.0576" y2="716.0186"/><line style="stroke:#181818;stroke-width:1.0;" x1="252.7666" x2="205.9082" y1="716.0186" y2="716.0186"/><polygon fill="#181818" points="215.9082,712.0186,205.9082,716.0186,215.9082,720.0186,211.9082,716.0186" style="stroke:#181818;stroke-width:1.0;"/><line style="stroke:#181818;stroke-width:1.0;" x1="193.9082" x2="193.9082" y1="684.0186" y2="704.0186"/><polygon fill="#181818" points="189.9082,694.0186,193.9082,704.0186,197.9082,694.0186,193.9082,698.0186" style="stroke:#181818;stroke-width:1.0;"/><line style="stroke:#181818;stroke-width:1.0;" x1="193.9082" x2="193.9082" y1="584.0576" y2="604.0576"/><polygon fill="#181818" points="189.9082,594.0576,193.9082,604.0576,197.9082,594.0576,193.9082,598.0576" style="stroke:#181818;stroke-width:1.0;"/><line style="stroke:#181818;stroke-width:1.0;" x1="193.9082" x2="193.9082" y1="202.8828" y2="236.2529"/><polygon fill="#181818" points="189.9082,226.2529,193.9082,236.2529,197.9082,226.2529,193.9082,230.2529" style="stroke:#181818;stroke-width:1.0;"/><line style="stroke:#181818;stroke-width:1.0;" x1="193.9082" x2="193.9082" y1="728.0186" y2="738.0186"/><line style="stroke:#181818;stroke-width:1.0;" x1="193.9082" x2="363.8164" y1="738.0186" y2="738.0186"/><polygon fill="#181818" points="359.8164,469.3203,363.8164,459.3203,367.8164,469.3203,363.8164,465.3203" style="stroke:#181818;stroke-width:1.0;"/><line style="stroke:#181818;stroke-width:1.0;" x1="363.8164" x2="363.8164" y1="190.8828" y2="738.0186"/><line style="stroke:#181818;stroke-width:1.0;" x1="363.8164" x2="331.4065" y1="190.8828" y2="190.8828"/><polygon fill="#181818" points="341.4065,186.8828,331.4065,190.8828,341.4065,194.8828,337.4065,190.8828" style="stroke:#181818;stroke-width:1.0;"/><line style="stroke:#181818;stroke-width:1.0;" x1="56.4099" x2="24" y1="190.8828" y2="190.8828"/><polygon fill="#181818" points="20,455.3203,24,465.3203,28,455.3203,24,459.3203" style="stroke:#181818;stroke-width:1.0;"/><line style="stroke:#181818;stroke-width:1.0;" x1="24" x2="24" y1="190.8828" y2="750.0186"/><line style="stroke:#181818;stroke-width:1.0;" x1="24" x2="193.9082" y1="750.0186" y2="750.0186"/><line style="stroke:#181818;stroke-width:1.0;" x1="193.9082" x2="193.9082" y1="750.0186" y2="770.0186"/><polygon fill="#181818" points="189.9082,760.0186,193.9082,770.0186,197.9082,760.0186,193.9082,764.0186" style="stroke:#181818;stroke-width:1.0;"/><line style="stroke:#181818;stroke-width:1.0;" x1="193.9082" x2="193.9082" y1="158.8828" y2="178.8828"/><polygon fill="#181818" points="189.9082,168.8828,193.9082,178.8828,197.9082,168.8828,193.9082,172.8828" style="stroke:#181818;stroke-width:1.0;"/><!--SRC=[ZL51Ri8m4Bpd5NjCfAeFCEq18KevW11KlKPk699L7JkDrq1vVPq44A8zr0TBNi_ipCwg5JUO6jImukcPPf1OOLjUQcasIXBb6jWxvDooi3RiiGprk13UunOny7IjZn4xqQO8HWiM-jY1Ni5b9JtaKB41fMNh3gJjbdufFT7jyz7p2McM4NjAfGt84bAzUkpkoU8erFG340QAeWs4LlFLD1zFtkRlq-Yd8uuYiQXGVEOHZnnVWGr_j1pgpXUfpj43_J7uGFAY9VXSkCdFGZsDTvJ-PuICf89DwFueh_V8NPkty931MjMdrITAi5lUTSwTtQCjiOs6rYWk-PuzfDO9NI4NBUN5DTSUyUwpZrkQmIrGLDfouPSuYBDhtLJUsOsqiMdvhTGBsxZh4pRE1E7k1qqK-m40]--></g></svg>