solid GiD
  facet normal               0              -0               1
    outer loop
      vertex               5               0               4.9
      vertex              10               0               4.9
      vertex             7.5               5               4.9
    endloop
  endfacet
  facet normal               0               0               1
    outer loop
      vertex              10              10               4.9
      vertex               5              10               4.9
      vertex             7.5               5               4.9
    endloop
  endfacet
  facet normal              -0               0               1
    outer loop
      vertex             7.5               5               4.9
      vertex              10               0               4.9
      vertex              10              10               4.9
    endloop
  endfacet
  facet normal               0              -0               1
    outer loop
      vertex               5               0               4.9
      vertex             7.5               5               4.9
      vertex               5              10               4.9
    endloop
  endfacet
endsolid GiD
