solid GiD
  facet normal               0              -0               1
    outer loop
      vertex               5               0               5
      vertex              10               0               5
      vertex             7.5               5               5
    endloop
  endfacet
  facet normal               0               0               1
    outer loop
      vertex              10              10               5
      vertex               5              10               5
      vertex             7.5               5               5
    endloop
  endfacet
  facet normal              -0               0               1
    outer loop
      vertex             7.5               5               5
      vertex              10               0               5
      vertex              10              10               5
    endloop
  endfacet
  facet normal               0              -0               1
    outer loop
      vertex               5               0               5
      vertex             7.5               5               5
      vertex               5              10               5
    endloop
  endfacet
endsolid GiD
