<svg width="4643" height="1647" xmlns="http://www.w3.org/2000/svg" xmlns:xlink="http://www.w3.org/1999/xlink" xml:space="preserve" overflow="hidden"><g transform="translate(-93 -196)"><rect x="178.5" y="430.5" width="3694" height="922" stroke="#042433" stroke-width="6.875" stroke-miterlimit="8" fill="#BFBFBF"/><rect x="178.5" y="756.5" width="3694" height="277" stroke="#042433" stroke-width="6.875" stroke-miterlimit="8" fill="#96DCF8"/><path d="M100 430 100 1368.78" stroke="#000000" stroke-width="13.75" stroke-miterlimit="8" fill="none" fill-rule="evenodd"/><path d="M3947 430 3947 1368.78" stroke="#000000" stroke-width="13.75" stroke-miterlimit="8" fill="none" fill-rule="evenodd"/><path d="M0 0 3697.16 0.000360892" stroke="#000000" stroke-width="13.75" stroke-miterlimit="8" fill="none" fill-rule="evenodd" transform="matrix(-1 0 0 1 3872.16 1426)"/><path d="M111.5 461C111.5 446.364 123.364 434.5 138 434.5 152.636 434.5 164.5 446.364 164.5 461 164.5 475.635 152.636 487.5 138 487.5 123.364 487.5 111.5 475.635 111.5 461Z" stroke="#000000" stroke-width="6.875" stroke-miterlimit="8" fill-rule="evenodd"/><path d="M111.5 679.5C111.5 665.141 123.364 653.5 138 653.5 152.636 653.5 164.5 665.141 164.5 679.5 164.5 693.859 152.636 705.5 138 705.5 123.364 705.5 111.5 693.859 111.5 679.5Z" stroke="#000000" stroke-width="6.875" stroke-miterlimit="8" fill-rule="evenodd"/><path d="M111.5 898.5C111.5 884.141 123.364 872.5 138 872.5 152.636 872.5 164.5 884.141 164.5 898.5 164.5 912.859 152.636 924.5 138 924.5 123.364 924.5 111.5 912.859 111.5 898.5Z" stroke="#000000" stroke-width="6.875" stroke-miterlimit="8" fill-rule="evenodd"/><path d="M111.5 1117C111.5 1102.36 123.364 1090.5 138 1090.5 152.636 1090.5 164.5 1102.36 164.5 1117 164.5 1131.64 152.636 1143.5 138 1143.5 123.364 1143.5 111.5 1131.64 111.5 1117Z" stroke="#000000" stroke-width="6.875" stroke-miterlimit="8" fill-rule="evenodd"/><path d="M111.5 1335.5C111.5 1321.14 123.364 1309.5 138 1309.5 152.636 1309.5 164.5 1321.14 164.5 1335.5 164.5 1349.86 152.636 1361.5 138 1361.5 123.364 1361.5 111.5 1349.86 111.5 1335.5Z" stroke="#000000" stroke-width="6.875" stroke-miterlimit="8" fill-rule="evenodd"/><path d="M3883.5 461C3883.5 446.364 3895.14 434.5 3909.5 434.5 3923.86 434.5 3935.5 446.364 3935.5 461 3935.5 475.635 3923.86 487.5 3909.5 487.5 3895.14 487.5 3883.5 475.635 3883.5 461Z" stroke="#000000" stroke-width="6.875" stroke-miterlimit="8" fill-rule="evenodd"/><path d="M3883.5 679.5C3883.5 665.141 3895.14 653.5 3909.5 653.5 3923.86 653.5 3935.5 665.141 3935.5 679.5 3935.5 693.859 3923.86 705.5 3909.5 705.5 3895.14 705.5 3883.5 693.859 3883.5 679.5Z" stroke="#000000" stroke-width="6.875" stroke-miterlimit="8" fill-rule="evenodd"/><path d="M3883.5 898.5C3883.5 884.141 3895.14 872.5 3909.5 872.5 3923.86 872.5 3935.5 884.141 3935.5 898.5 3935.5 912.859 3923.86 924.5 3909.5 924.5 3895.14 924.5 3883.5 912.859 3883.5 898.5Z" stroke="#000000" stroke-width="6.875" stroke-miterlimit="8" fill-rule="evenodd"/><path d="M3883.5 1117C3883.5 1102.36 3895.14 1090.5 3909.5 1090.5 3923.86 1090.5 3935.5 1102.36 3935.5 1117 3935.5 1131.64 3923.86 1143.5 3909.5 1143.5 3895.14 1143.5 3883.5 1131.64 3883.5 1117Z" stroke="#000000" stroke-width="6.875" stroke-miterlimit="8" fill-rule="evenodd"/><path d="M3883.5 1335.5C3883.5 1321.14 3895.14 1309.5 3909.5 1309.5 3923.86 1309.5 3935.5 1321.14 3935.5 1335.5 3935.5 1349.86 3923.86 1361.5 3909.5 1361.5 3895.14 1361.5 3883.5 1349.86 3883.5 1335.5Z" stroke="#000000" stroke-width="6.875" stroke-miterlimit="8" fill-rule="evenodd"/><path d="M178.5 1387.5C178.5 1373.14 190.141 1361.5 204.5 1361.5 218.86 1361.5 230.5 1373.14 230.5 1387.5 230.5 1401.86 218.86 1413.5 204.5 1413.5 190.141 1413.5 178.5 1401.86 178.5 1387.5Z" stroke="#000000" stroke-width="6.875" stroke-miterlimit="8" fill-rule="evenodd"/><path d="M477.5 1387.5C477.5 1373.14 489.141 1361.5 503.5 1361.5 517.859 1361.5 529.5 1373.14 529.5 1387.5 529.5 1401.86 517.859 1413.5 503.5 1413.5 489.141 1413.5 477.5 1401.86 477.5 1387.5Z" stroke="#000000" stroke-width="6.875" stroke-miterlimit="8" fill-rule="evenodd"/><path d="M775.5 1387.5C775.5 1373.14 787.141 1361.5 801.5 1361.5 815.859 1361.5 827.5 1373.14 827.5 1387.5 827.5 1401.86 815.859 1413.5 801.5 1413.5 787.141 1413.5 775.5 1401.86 775.5 1387.5Z" stroke="#000000" stroke-width="6.875" stroke-miterlimit="8" fill-rule="evenodd"/><path d="M1074.5 1387.5C1074.5 1373.14 1086.14 1361.5 1100.5 1361.5 1114.86 1361.5 1126.5 1373.14 1126.5 1387.5 1126.5 1401.86 1114.86 1413.5 1100.5 1413.5 1086.14 1413.5 1074.5 1401.86 1074.5 1387.5Z" stroke="#000000" stroke-width="6.875" stroke-miterlimit="8" fill-rule="evenodd"/><path d="M1373.5 1387.5C1373.5 1373.14 1385.14 1361.5 1399.5 1361.5 1413.86 1361.5 1425.5 1373.14 1425.5 1387.5 1425.5 1401.86 1413.86 1413.5 1399.5 1413.5 1385.14 1413.5 1373.5 1401.86 1373.5 1387.5Z" stroke="#000000" stroke-width="6.875" stroke-miterlimit="8" fill-rule="evenodd"/><path d="M1671.5 1387.5C1671.5 1373.14 1683.14 1361.5 1697.5 1361.5 1711.86 1361.5 1723.5 1373.14 1723.5 1387.5 1723.5 1401.86 1711.86 1413.5 1697.5 1413.5 1683.14 1413.5 1671.5 1401.86 1671.5 1387.5Z" stroke="#000000" stroke-width="6.875" stroke-miterlimit="8" fill-rule="evenodd"/><path d="M1970.5 1387.5C1970.5 1373.14 1982.14 1361.5 1996.5 1361.5 2010.86 1361.5 2022.5 1373.14 2022.5 1387.5 2022.5 1401.86 2010.86 1413.5 1996.5 1413.5 1982.14 1413.5 1970.5 1401.86 1970.5 1387.5Z" stroke="#000000" stroke-width="6.875" stroke-miterlimit="8" fill-rule="evenodd"/><path d="M2269.5 1387.5C2269.5 1373.14 2281.14 1361.5 2295.5 1361.5 2309.86 1361.5 2321.5 1373.14 2321.5 1387.5 2321.5 1401.86 2309.86 1413.5 2295.5 1413.5 2281.14 1413.5 2269.5 1401.86 2269.5 1387.5Z" stroke="#000000" stroke-width="6.875" stroke-miterlimit="8" fill-rule="evenodd"/><path d="M2567.5 1387.5C2567.5 1373.14 2579.36 1361.5 2594 1361.5 2608.64 1361.5 2620.5 1373.14 2620.5 1387.5 2620.5 1401.86 2608.64 1413.5 2594 1413.5 2579.36 1413.5 2567.5 1401.86 2567.5 1387.5Z" stroke="#000000" stroke-width="6.875" stroke-miterlimit="8" fill-rule="evenodd"/><path d="M2866.5 1387.5C2866.5 1373.14 2878.14 1361.5 2892.5 1361.5 2906.86 1361.5 2918.5 1373.14 2918.5 1387.5 2918.5 1401.86 2906.86 1413.5 2892.5 1413.5 2878.14 1413.5 2866.5 1401.86 2866.5 1387.5Z" stroke="#000000" stroke-width="6.875" stroke-miterlimit="8" fill-rule="evenodd"/><path d="M3165.5 1387.5C3165.5 1373.14 3177.14 1361.5 3191.5 1361.5 3205.86 1361.5 3217.5 1373.14 3217.5 1387.5 3217.5 1401.86 3205.86 1413.5 3191.5 1413.5 3177.14 1413.5 3165.5 1401.86 3165.5 1387.5Z" stroke="#000000" stroke-width="6.875" stroke-miterlimit="8" fill-rule="evenodd"/><path d="M3463.5 1387.5C3463.5 1373.14 3475.36 1361.5 3490 1361.5 3504.64 1361.5 3516.5 1373.14 3516.5 1387.5 3516.5 1401.86 3504.64 1413.5 3490 1413.5 3475.36 1413.5 3463.5 1401.86 3463.5 1387.5Z" stroke="#000000" stroke-width="6.875" stroke-miterlimit="8" fill-rule="evenodd"/><path d="M3820.5 1387.5C3820.5 1373.14 3832.14 1361.5 3846.5 1361.5 3860.86 1361.5 3872.5 1373.14 3872.5 1387.5 3872.5 1401.86 3860.86 1413.5 3846.5 1413.5 3832.14 1413.5 3820.5 1401.86 3820.5 1387.5Z" stroke="#000000" stroke-width="6.875" stroke-miterlimit="8" fill-rule="evenodd"/><path d="M0 0 536.028 921.619" stroke="#000000" stroke-width="13.75" stroke-miterlimit="8" fill="none" fill-rule="evenodd" transform="matrix(1 0 0 -1 1756 1351.62)"/><path d="M2039.02 880.775C2098.35 906.063 2125.63 975.44 2099.93 1035.73" stroke="#000000" stroke-width="4.58333" stroke-miterlimit="8" fill="none" fill-rule="evenodd"/><path d="M172.937 245.5 172.938 403.052 166.063 403.052 166.062 245.5ZM169.5 403.052 192.417 384.719 169.5 430.552 146.584 384.719Z" fill="#FF0000"/><path d="M3865.94 245.5 3865.94 403.052 3859.06 403.052 3859.06 245.5ZM3862.5 403.052 3885.42 384.719 3862.5 430.552 3839.58 384.719Z" fill="#FF0000"/><path d="M457.937 245.5 457.938 403.052 451.063 403.052 451.062 245.5ZM454.5 403.052 477.417 384.719 454.5 430.552 431.584 384.719Z" fill="#FF0000"/><path d="M741.937 245.5 741.938 403.052 735.063 403.052 735.062 245.5ZM738.5 403.052 761.417 384.719 738.5 430.552 715.583 384.719Z" fill="#FF0000"/><path d="M1025.94 245.5 1025.94 403.052 1019.06 403.052 1019.06 245.5ZM1022.5 403.052 1045.42 384.719 1022.5 430.552 999.584 384.719Z" fill="#FF0000"/><path d="M1309.94 245.5 1309.94 403.052 1303.06 403.052 1303.06 245.5ZM1306.5 403.052 1329.42 384.719 1306.5 430.552 1283.58 384.719Z" fill="#FF0000"/><path d="M1593.94 245.5 1593.94 403.052 1587.06 403.052 1587.06 245.5ZM1590.5 403.052 1613.42 384.719 1590.5 430.552 1567.58 384.719Z" fill="#FF0000"/><path d="M1877.94 245.5 1877.94 403.052 1871.06 403.052 1871.06 245.5ZM1874.5 403.052 1897.42 384.719 1874.5 430.552 1851.58 384.719Z" fill="#FF0000"/><path d="M2161.94 245.5 2161.94 403.052 2155.06 403.052 2155.06 245.5ZM2158.5 403.052 2181.42 384.719 2158.5 430.552 2135.58 384.719Z" fill="#FF0000"/><path d="M2445.94 245.5 2445.94 403.052 2439.06 403.052 2439.06 245.5ZM2442.5 403.052 2465.42 384.719 2442.5 430.552 2419.58 384.719Z" fill="#FF0000"/><path d="M2729.94 245.5 2729.94 403.052 2723.06 403.052 2723.06 245.5ZM2726.5 403.052 2749.42 384.719 2726.5 430.552 2703.58 384.719Z" fill="#FF0000"/><path d="M3013.94 245.5 3013.94 403.052 3007.06 403.052 3007.06 245.5ZM3010.5 403.052 3033.42 384.719 3010.5 430.552 2987.58 384.719Z" fill="#FF0000"/><path d="M3297.94 245.5 3297.94 403.052 3291.06 403.052 3291.06 245.5ZM3294.5 403.052 3317.42 384.719 3294.5 430.552 3271.58 384.719Z" fill="#FF0000"/><path d="M3581.94 245.5 3581.94 403.052 3575.06 403.052 3575.06 245.5ZM3578.5 403.052 3601.42 384.719 3578.5 430.552 3555.58 384.719Z" fill="#FF0000"/><text font-family="Times New Roman,Times New Roman_MSFontService,sans-serif" font-weight="400" font-size="165" transform="matrix(1 0 0 1 3904.53 405)">70 MPa</text><path d="M205.996 1521.21 3837.95 1521.21 3837.95 1525.79 205.996 1525.79ZM206 1523.5 224.333 1546.42 178.5 1523.5 224.333 1500.58ZM3837.95 1523.5 3819.61 1500.58 3865.45 1523.5 3819.61 1546.42Z"/><path d="M178.5 1478.5 178.5 1580.56" stroke="#000000" stroke-width="4.58333" stroke-miterlimit="8" fill="none" fill-rule="evenodd"/><path d="M3865.5 1478.5 3865.5 1580.56" stroke="#000000" stroke-width="4.58333" stroke-miterlimit="8" fill="none" fill-rule="evenodd"/><text font-family="Times New Roman,Times New Roman_MSFontService,sans-serif" font-weight="400" font-size="165" transform="matrix(1 0 0 1 1730.37 1705)">4000.0 m</text><path d="M2.29167 18.333 2.29202 898.26-2.29131 898.26-2.29166 18.333ZM7.21843e-06 18.3333-13.75 27.5 0 0 13.75 27.5ZM0.000353674 898.26 13.7503 889.093 0.000360892 916.593-13.7497 889.093Z" transform="matrix(1 0 0 -1 4143.5 1351.09)"/><path d="M4104.5 430.5 4206.56 430.5" stroke="#000000" stroke-width="4.58333" stroke-miterlimit="8" fill="none" fill-rule="evenodd"/><path d="M4104.5 1351.5 4206.56 1351.5" stroke="#000000" stroke-width="4.58333" stroke-miterlimit="8" fill="none" fill-rule="evenodd"/><rect x="3980" y="814" width="697" height="233" fill="#FFFFFF"/><text font-family="Times New Roman,Times New Roman_MSFontService,sans-serif" font-weight="400" font-size="165" transform="matrix(1 0 0 1 4012.9 990)">1000.0 m</text><text font-family="Times New Roman,Times New Roman_MSFontService,sans-serif" font-weight="400" font-size="165" transform="matrix(1 0 0 1 2137.5 990)">dip</text><text font-family="Times New Roman,Times New Roman_MSFontService,sans-serif" font-style="italic" font-weight="400" font-size="165" transform="matrix(1 0 0 1 774.099 662)">P</text><text font-family="Times New Roman,Times New Roman_MSFontService,sans-serif" font-weight="400" font-size="110" transform="matrix(1 0 0 1 874.932 702)">0</text><text font-family="Times New Roman,Times New Roman_MSFontService,sans-serif" font-style="italic" font-weight="400" font-size="165" transform="matrix(1 0 0 1 774.099 950)">P</text><text font-family="Times New Roman,Times New Roman_MSFontService,sans-serif" font-weight="400" font-size="110" transform="matrix(1 0 0 1 874.932 990)">0</text><text font-family="Times New Roman,Times New Roman_MSFontService,sans-serif" font-weight="400" font-size="165" transform="matrix(1 0 0 1 971.182 950)">+ </text><path d="M1154.31 856.111 1123.61 936.677 1179.69 936.677ZM1151.49 838.306 1163.41 838.306 1197.41 944.412 1197.41 949.568 1109.35 949.568 1109.35 944.412Z" fill-rule="evenodd"/><text fill="#000000" fill-opacity="0" font-family="Arial,Arial_MSFontService,sans-serif" font-size="111.262" x="1109.35" y="935.66">∆</text><text font-family="Times New Roman,Times New Roman_MSFontService,sans-serif" font-style="italic" font-weight="400" font-size="165" transform="matrix(1 0 0 1 1203.79 950)">P</text><text font-family="Times New Roman,Times New Roman_MSFontService,sans-serif" font-style="italic" font-weight="400" font-size="165" transform="matrix(1 0 0 1 774.099 1244)">P</text><text font-family="Times New Roman,Times New Roman_MSFontService,sans-serif" font-weight="400" font-size="110" transform="matrix(1 0 0 1 874.932 1284)">0</text></g></svg>