<svg width="2712" height="1083" xmlns="http://www.w3.org/2000/svg" xmlns:xlink="http://www.w3.org/1999/xlink" xml:space="preserve" overflow="hidden"><g transform="translate(-937 -600)"><rect x="1031.5" y="838.5" width="1995" height="448" stroke="#042433" stroke-width="6.875" stroke-miterlimit="8" fill="#D9D9D9"/><path d="M0 0 54.481 37.5732" stroke="#000000" stroke-width="6.875" stroke-miterlimit="8" fill="none" fill-rule="evenodd" transform="matrix(-1 0 0 1 1085.98 1290.5)"/><path d="M0 0 54.481 37.5732" stroke="#000000" stroke-width="6.875" stroke-miterlimit="8" fill="none" fill-rule="evenodd" transform="matrix(-1 0 0 1 1170.98 1290.5)"/><path d="M0 0 54.481 37.5732" stroke="#000000" stroke-width="6.875" stroke-miterlimit="8" fill="none" fill-rule="evenodd" transform="matrix(-1 0 0 1 1254.98 1290.5)"/><path d="M0 0 54.481 37.5732" stroke="#000000" stroke-width="6.875" stroke-miterlimit="8" fill="none" fill-rule="evenodd" transform="matrix(-1 0 0 1 1339.98 1290.5)"/><path d="M0 0 54.481 37.5732" stroke="#000000" stroke-width="6.875" stroke-miterlimit="8" fill="none" fill-rule="evenodd" transform="matrix(-1 0 0 1 1424.98 1290.5)"/><path d="M0 0 54.481 37.5732" stroke="#000000" stroke-width="6.875" stroke-miterlimit="8" fill="none" fill-rule="evenodd" transform="matrix(-1 0 0 1 1509.98 1290.5)"/><path d="M0 0 54.481 37.5732" stroke="#000000" stroke-width="6.875" stroke-miterlimit="8" fill="none" fill-rule="evenodd" transform="matrix(-1 0 0 1 1594.98 1290.5)"/><path d="M0 0 54.481 37.5732" stroke="#000000" stroke-width="6.875" stroke-miterlimit="8" fill="none" fill-rule="evenodd" transform="matrix(-1 0 0 1 1678.98 1290.5)"/><path d="M0 0 54.481 37.5732" stroke="#000000" stroke-width="6.875" stroke-miterlimit="8" fill="none" fill-rule="evenodd" transform="matrix(-1 0 0 1 1763.98 1290.5)"/><path d="M0 0 54.481 37.5732" stroke="#000000" stroke-width="6.875" stroke-miterlimit="8" fill="none" fill-rule="evenodd" transform="matrix(-1 0 0 1 1848.98 1290.5)"/><path d="M0 0 54.481 37.5732" stroke="#000000" stroke-width="6.875" stroke-miterlimit="8" fill="none" fill-rule="evenodd" transform="matrix(-1 0 0 1 2357.98 1290.5)"/><path d="M0 0 54.481 37.5732" stroke="#000000" stroke-width="6.875" stroke-miterlimit="8" fill="none" fill-rule="evenodd" transform="matrix(-1 0 0 1 2442.98 1290.5)"/><path d="M0 0 54.481 37.5732" stroke="#000000" stroke-width="6.875" stroke-miterlimit="8" fill="none" fill-rule="evenodd" transform="matrix(-1 0 0 1 2526.98 1290.5)"/><path d="M0 0 54.481 37.5732" stroke="#000000" stroke-width="6.875" stroke-miterlimit="8" fill="none" fill-rule="evenodd" transform="matrix(-1 0 0 1 2611.98 1290.5)"/><path d="M0 0 54.481 37.5732" stroke="#000000" stroke-width="6.875" stroke-miterlimit="8" fill="none" fill-rule="evenodd" transform="matrix(-1 0 0 1 2696.98 1290.5)"/><path d="M0 0 54.481 37.5732" stroke="#000000" stroke-width="6.875" stroke-miterlimit="8" fill="none" fill-rule="evenodd" transform="matrix(-1 0 0 1 2781.98 1290.5)"/><path d="M0 0 54.481 37.5732" stroke="#000000" stroke-width="6.875" stroke-miterlimit="8" fill="none" fill-rule="evenodd" transform="matrix(-1 0 0 1 2866.98 1290.5)"/><path d="M0 0 54.481 37.5732" stroke="#000000" stroke-width="6.875" stroke-miterlimit="8" fill="none" fill-rule="evenodd" transform="matrix(-1 0 0 1 2950.98 1290.5)"/><path d="M0 0 54.481 37.5732" stroke="#000000" stroke-width="6.875" stroke-miterlimit="8" fill="none" fill-rule="evenodd" transform="matrix(-1 0 0 1 3035.98 1290.5)"/><path d="M0 0 54.481 37.5732" stroke="#000000" stroke-width="6.875" stroke-miterlimit="8" fill="none" fill-rule="evenodd" transform="matrix(-1 0 0 1 1933.98 1290.5)"/><path d="M0 0 54.481 37.5732" stroke="#000000" stroke-width="6.875" stroke-miterlimit="8" fill="none" fill-rule="evenodd" transform="matrix(-1 0 0 1 2018.98 1290.5)"/><path d="M0 0 54.481 37.5732" stroke="#000000" stroke-width="6.875" stroke-miterlimit="8" fill="none" fill-rule="evenodd" transform="matrix(-1 0 0 1 2102.98 1290.5)"/><path d="M0 0 54.481 37.5732" stroke="#000000" stroke-width="6.875" stroke-miterlimit="8" fill="none" fill-rule="evenodd" transform="matrix(-1 0 0 1 2187.98 1290.5)"/><path d="M0 0 54.481 37.5732" stroke="#000000" stroke-width="6.875" stroke-miterlimit="8" fill="none" fill-rule="evenodd" transform="matrix(-1 0 0 1 2272.98 1290.5)"/><path d="M966.5 844.5C966.5 831.245 977.245 820.5 990.5 820.5 1003.75 820.5 1014.5 831.245 1014.5 844.5 1014.5 857.755 1003.75 868.5 990.5 868.5 977.245 868.5 966.5 857.755 966.5 844.5Z" stroke="#000000" stroke-width="6.875" stroke-miterlimit="8" fill-rule="evenodd"/><path d="M966.5 985.5C966.5 972.245 977.245 961.5 990.5 961.5 1003.75 961.5 1014.5 972.245 1014.5 985.5 1014.5 998.755 1003.75 1009.5 990.5 1009.5 977.245 1009.5 966.5 998.755 966.5 985.5Z" stroke="#000000" stroke-width="6.875" stroke-miterlimit="8" fill-rule="evenodd"/><path d="M966.5 1266.5C966.5 1253.25 977.245 1242.5 990.5 1242.5 1003.75 1242.5 1014.5 1253.25 1014.5 1266.5 1014.5 1279.75 1003.75 1290.5 990.5 1290.5 977.245 1290.5 966.5 1279.75 966.5 1266.5Z" stroke="#000000" stroke-width="6.875" stroke-miterlimit="8" fill-rule="evenodd"/><path d="M966.5 1126C966.5 1112.47 977.245 1101.5 990.5 1101.5 1003.75 1101.5 1014.5 1112.47 1014.5 1126 1014.5 1139.53 1003.75 1150.5 990.5 1150.5 977.245 1150.5 966.5 1139.53 966.5 1126Z" stroke="#000000" stroke-width="6.875" stroke-miterlimit="8" fill-rule="evenodd"/><path d="M3049.5 863C3049.5 849.469 3060.25 838.5 3073.5 838.5 3086.75 838.5 3097.5 849.469 3097.5 863 3097.5 876.531 3086.75 887.5 3073.5 887.5 3060.25 887.5 3049.5 876.531 3049.5 863Z" stroke="#000000" stroke-width="6.875" stroke-miterlimit="8" fill-rule="evenodd"/><path d="M3049.5 997.5C3049.5 984.245 3060.25 973.5 3073.5 973.5 3086.75 973.5 3097.5 984.245 3097.5 997.5 3097.5 1010.75 3086.75 1021.5 3073.5 1021.5 3060.25 1021.5 3049.5 1010.75 3049.5 997.5Z" stroke="#000000" stroke-width="6.875" stroke-miterlimit="8" fill-rule="evenodd"/><path d="M3049.5 1266.5C3049.5 1253.25 3060.25 1242.5 3073.5 1242.5 3086.75 1242.5 3097.5 1253.25 3097.5 1266.5 3097.5 1279.75 3086.75 1290.5 3073.5 1290.5 3060.25 1290.5 3049.5 1279.75 3049.5 1266.5Z" stroke="#000000" stroke-width="6.875" stroke-miterlimit="8" fill-rule="evenodd"/><path d="M3049.5 1132.5C3049.5 1119.25 3060.25 1108.5 3073.5 1108.5 3086.75 1108.5 3097.5 1119.25 3097.5 1132.5 3097.5 1145.75 3086.75 1156.5 3073.5 1156.5 3060.25 1156.5 3049.5 1145.75 3049.5 1132.5Z" stroke="#000000" stroke-width="6.875" stroke-miterlimit="8" fill-rule="evenodd"/><path d="M0 0 0.000360892 470.193" stroke="#000000" stroke-width="13.75" stroke-miterlimit="8" fill="none" fill-rule="evenodd" transform="matrix(1 0 0 -1 3115 1290.19)"/><path d="M0 0 0.000360892 470.193" stroke="#000000" stroke-width="13.75" stroke-miterlimit="8" fill="none" fill-rule="evenodd" transform="matrix(1 0 0 -1 944 1290.19)"/><path d="M1031 1062 3026.72 1062" stroke="#FF0000" stroke-width="13.75" stroke-miterlimit="8" stroke-dasharray="55 41.25" fill="none" fill-rule="evenodd"/><path d="M1036.08 645.5 1036.08 811.832 1026.92 811.832 1026.92 645.5ZM1031.5 811.832 1054.42 793.499 1031.5 839.332 1008.58 793.499Z" fill="#FF0000"/><path d="M3031.08 645.5 3031.08 811.832 3021.92 811.832 3021.92 645.5ZM3026.5 811.832 3049.42 793.499 3026.5 839.332 3003.58 793.499Z" fill="#FF0000"/><path d="M1368.08 645.5 1368.08 811.832 1358.92 811.832 1358.92 645.5ZM1363.5 811.832 1386.42 793.499 1363.5 839.332 1340.58 793.499Z" fill="#FF0000"/><path d="M1701.08 645.5 1701.08 811.832 1691.92 811.832 1691.92 645.5ZM1696.5 811.832 1719.42 793.499 1696.5 839.332 1673.58 793.499Z" fill="#FF0000"/><path d="M2034.08 645.5 2034.08 811.832 2024.92 811.832 2024.92 645.5ZM2029.5 811.832 2052.42 793.499 2029.5 839.332 2006.58 793.499Z" fill="#FF0000"/><path d="M2366.08 645.5 2366.08 811.832 2356.92 811.832 2356.92 645.5ZM2361.5 811.832 2384.42 793.499 2361.5 839.332 2338.58 793.499Z" fill="#FF0000"/><path d="M2699.08 645.5 2699.08 811.832 2689.92 811.832 2689.92 645.5ZM2694.5 811.832 2717.42 793.499 2694.5 839.332 2671.58 793.499Z" fill="#FF0000"/><text font-family="Times New Roman,Times New Roman_MSFontService,sans-serif" font-weight="400" font-size="110" transform="matrix(1 0 0 1 3090.78 739)">50 </text><text font-family="Times New Roman,Times New Roman_MSFontService,sans-serif" font-weight="400" font-size="110" transform="matrix(1 0 0 1 3228.28 739)">MPa</text><path d="M2.29168 18.3335 2.29201 432.606-2.29132 432.606-2.29165 18.3335ZM1.46724e-05 18.3333-13.75 27.5 0 0 13.75 27.5ZM0.00034622 432.606 13.7503 423.44 0.000360892 450.94-13.7497 423.44Z" transform="matrix(1 0 0 -1 3403.5 1290.44)"/><path d="M3348.5 838.5 3450.56 838.5" stroke="#000000" stroke-width="4.58333" stroke-miterlimit="8" fill="none" fill-rule="evenodd"/><rect x="3266" y="994" width="383" height="167" fill="#FFFFFF"/><text font-family="Times New Roman,Times New Roman_MSFontService,sans-serif" font-weight="400" font-size="110" transform="matrix(1 0 0 1 3298.94 1117)">1.0 m</text><path d="M1053.84 1466.21 3008.49 1466.21 3008.49 1470.79 1053.84 1470.79ZM1053.83 1468.5 1063 1482.25 1035.5 1468.5 1063 1454.75ZM3008.5 1468.5 2999.33 1454.75 3026.83 1468.5 2999.33 1482.25Z"/><path d="M1035.5 1417.5 1035.5 1519.56" stroke="#000000" stroke-width="4.58333" stroke-miterlimit="8" fill="none" fill-rule="evenodd"/><path d="M3026.5 1417.5 3026.5 1519.56" stroke="#000000" stroke-width="4.58333" stroke-miterlimit="8" fill="none" fill-rule="evenodd"/><text font-family="Times New Roman,Times New Roman_MSFontService,sans-serif" font-weight="400" font-size="110" transform="matrix(1 0 0 1 1881.49 1591)">25.0 m</text><path d="M3348.5 1306.5 3450.56 1306.5" stroke="#000000" stroke-width="4.58333" stroke-miterlimit="8" fill="none" fill-rule="evenodd"/><rect x="1000.5" y="1032.5" width="49.9998" height="50.9999" stroke="#FF0000" stroke-width="6.875" stroke-miterlimit="8" fill="#FF0000"/><rect x="3003.5" y="1032.5" width="50.0002" height="50.9999" stroke="#FF0000" stroke-width="6.875" stroke-miterlimit="8" fill="#FF0000"/><text fill="#FF0000" font-family="Times New Roman,Times New Roman_MSFontService,sans-serif" font-weight="400" font-size="110" transform="matrix(1 0 0 1 2609.64 1003)">11 MPa</text><text fill="#FF0000" font-family="Times New Roman,Times New Roman_MSFontService,sans-serif" font-weight="400" font-size="110" transform="matrix(1 0 0 1 1063.78 1003)">11.9 MPa</text></g></svg>