<svg width="3095" height="1719" xmlns="http://www.w3.org/2000/svg" xmlns:xlink="http://www.w3.org/1999/xlink" xml:space="preserve" overflow="hidden"><g transform="translate(-758 -398)"><path d="M804.833 1894.21 1649.27 1894.21 1649.27 1898.79 804.833 1898.79ZM804.833 1896.5 814 1910.25 786.5 1896.5 814 1882.75ZM1649.27 1896.5 1640.1 1882.75 1667.6 1896.5 1640.1 1910.25Z"/><path d="M1682.83 1894.21 2085.07 1894.21 2085.07 1898.79 1682.83 1898.79ZM1682.83 1896.5 1692 1910.25 1664.5 1896.5 1692 1882.75ZM2085.07 1896.5 2075.9 1882.75 2103.4 1896.5 2075.9 1910.25Z"/><path d="M2121.83 1894.21 3408.53 1894.21 3408.53 1898.79 2121.83 1898.79ZM2121.83 1896.5 2131 1910.25 2103.5 1896.5 2131 1882.75ZM3408.53 1896.5 3399.37 1882.75 3426.87 1896.5 3399.37 1910.25Z"/><path d="M786.5 1851.5 786.5 1953.56" stroke="#000000" stroke-width="4.58333" stroke-miterlimit="8" fill="none" fill-rule="evenodd"/><path d="M1664.5 1851.5 1664.5 1953.56" stroke="#000000" stroke-width="4.58333" stroke-miterlimit="8" fill="none" fill-rule="evenodd"/><path d="M2103.5 1851.5 2103.5 1953.56" stroke="#000000" stroke-width="4.58333" stroke-miterlimit="8" fill="none" fill-rule="evenodd"/><path d="M3426.5 1851.5 3426.5 1953.56" stroke="#000000" stroke-width="4.58333" stroke-miterlimit="8" fill="none" fill-rule="evenodd"/><text font-family="Times New Roman,Times New Roman_MSFontService,sans-serif" font-weight="400" font-size="110" transform="matrix(1 0 0 1 1798.77 2025)">4.0 m</text><text font-family="Times New Roman,Times New Roman_MSFontService,sans-serif" font-weight="400" font-size="110" transform="matrix(1 0 0 1 1144.06 2025)">8.0 m</text><text font-family="Times New Roman,Times New Roman_MSFontService,sans-serif" font-weight="400" font-size="110" transform="matrix(1 0 0 1 2686.97 2025)">12.0 m</text><rect x="786" y="565" width="915" height="534" fill="#C1E5F5"/><rect x="1883" y="832" width="1543" height="267" fill="#C1E5F5"/><path d="M786.5 561.5 1664.23 561.5" stroke="#1D1DEB" stroke-width="6.875" stroke-miterlimit="8" fill="none" fill-rule="evenodd"/><path d="M1990.5 828.5 3426.17 828.5" stroke="#1D1DEB" stroke-width="6.875" stroke-miterlimit="8" fill="none" fill-rule="evenodd"/><path d="M1845.34 422.5 2103.5 1099.5 1667.5 1099.5 1667.5 422.5 1845.34 422.5Z" stroke="#000000" stroke-width="6.875" stroke-miterlimit="8" fill="#A6A6A6" fill-rule="evenodd"/><text font-family="Times New Roman,Times New Roman_MSFontService,sans-serif" font-weight="400" font-size="110" transform="matrix(1 0 0 1 917.82 538)">12.0 m</text><path d="M817.5 576.5 885.541 576.5" stroke="#1D1DEB" stroke-width="6.875" stroke-miterlimit="8" fill="none" fill-rule="evenodd"/><path d="M832.5 591.5 869.923 591.5" stroke="#1D1DEB" stroke-width="6.875" stroke-miterlimit="8" fill="none" fill-rule="evenodd"/><path d="M3319.5 843.5 3387.54 843.5" stroke="#1D1DEB" stroke-width="6.875" stroke-miterlimit="8" fill="none" fill-rule="evenodd"/><path d="M3335.5 858.5 3372.92 858.5" stroke="#1D1DEB" stroke-width="6.875" stroke-miterlimit="8" fill="none" fill-rule="evenodd"/><text font-family="Times New Roman,Times New Roman_MSFontService,sans-serif" font-weight="400" font-size="110" transform="matrix(1 0 0 1 3106.17 809)">6.0 m</text><path d="M2.29168 18.333 2.29202 644.641-2.29132 644.641-2.29166 18.333ZM9.97984e-06 18.3333-13.75 27.5 0 0 13.75 27.5ZM0.000350913 644.639 13.7503 635.473 0.000360892 662.973-13.7497 635.473Z" transform="matrix(1 0 0 -1 3508.5 1758.47)"/><path d="M3464.5 1091.5 3566.56 1091.5" stroke="#000000" stroke-width="4.58333" stroke-miterlimit="8" fill="none" fill-rule="evenodd"/><path d="M3464.5 1758.5 3566.56 1758.5" stroke="#000000" stroke-width="4.58333" stroke-miterlimit="8" fill="none" fill-rule="evenodd"/><text font-family="Times New Roman,Times New Roman_MSFontService,sans-serif" font-weight="400" font-size="110" transform="matrix(1 0 0 1 3535.99 1479)">6.0 m</text><rect x="787.5" y="1098.5" width="2637" height="660" stroke="#000000" stroke-width="6.875" stroke-miterlimit="8" fill="#F6C6AD"/><path d="M786.5 1098.5 1664.23 1098.5" stroke="#0000FF" stroke-width="20.625" stroke-miterlimit="8" fill="none" fill-rule="evenodd"/><path d="M2103.5 1098.5 3425.15 1098.5" stroke="#0000FF" stroke-width="20.625" stroke-miterlimit="8" fill="none" fill-rule="evenodd"/><text font-family="Times New Roman,Times New Roman_MSFontService,sans-serif" font-style="italic" font-weight="400" font-size="110" transform="matrix(1 0 0 1 924.906 1054)">p</text><text font-family="Times New Roman,Times New Roman_MSFontService,sans-serif" font-weight="400" font-size="110" transform="matrix(1 0 0 1 1007.41 1054)">= 120.0 kPa</text><text font-family="Times New Roman,Times New Roman_MSFontService,sans-serif" font-style="italic" font-weight="400" font-size="110" transform="matrix(1 0 0 1 2384.83 1054)">p</text><text font-family="Times New Roman,Times New Roman_MSFontService,sans-serif" font-weight="400" font-size="110" transform="matrix(1 0 0 1 2467.33 1054)">= 60.0 kPa</text></g></svg>