<svg width="1733" height="1450" xmlns="http://www.w3.org/2000/svg" xmlns:xlink="http://www.w3.org/1999/xlink" xml:space="preserve" overflow="hidden"><g transform="translate(-1551 -406)"><rect x="1634.5" y="420.5" width="451" height="1320" stroke="#000000" stroke-width="6.875" stroke-miterlimit="8" fill="#F2F2F2"/><path d="M1573.5 585.5C1573.5 572.245 1584.25 561.5 1597.5 561.5 1610.75 561.5 1621.5 572.245 1621.5 585.5 1621.5 598.755 1610.75 609.5 1597.5 609.5 1584.25 609.5 1573.5 598.755 1573.5 585.5Z" stroke="#000000" stroke-width="6.875" stroke-miterlimit="8" fill-rule="evenodd"/><path d="M1573.5 444.5C1573.5 431.245 1584.25 420.5 1597.5 420.5 1610.75 420.5 1621.5 431.245 1621.5 444.5 1621.5 457.755 1610.75 468.5 1597.5 468.5 1584.25 468.5 1573.5 457.755 1573.5 444.5Z" stroke="#000000" stroke-width="6.875" stroke-miterlimit="8" fill-rule="evenodd"/><path d="M1558.6 1734.62 1558 413" stroke="#000000" stroke-width="13.75" stroke-miterlimit="8" fill="none" fill-rule="evenodd"/><path d="M1573.5 726.5C1573.5 713.245 1584.25 702.5 1597.5 702.5 1610.75 702.5 1621.5 713.245 1621.5 726.5 1621.5 739.755 1610.75 750.5 1597.5 750.5 1584.25 750.5 1573.5 739.755 1573.5 726.5Z" stroke="#000000" stroke-width="6.875" stroke-miterlimit="8" fill-rule="evenodd"/><path d="M1573.5 866.5C1573.5 853.245 1584.25 842.5 1597.5 842.5 1610.75 842.5 1621.5 853.245 1621.5 866.5 1621.5 879.755 1610.75 890.5 1597.5 890.5 1584.25 890.5 1573.5 879.755 1573.5 866.5Z" stroke="#000000" stroke-width="6.875" stroke-miterlimit="8" fill-rule="evenodd"/><path d="M1573.5 1007.5C1573.5 994.245 1584.25 983.5 1597.5 983.5 1610.75 983.5 1621.5 994.245 1621.5 1007.5 1621.5 1020.75 1610.75 1031.5 1597.5 1031.5 1584.25 1031.5 1573.5 1020.75 1573.5 1007.5Z" stroke="#000000" stroke-width="6.875" stroke-miterlimit="8" fill-rule="evenodd"/><path d="M1573.5 1148.5C1573.5 1135.25 1584.25 1124.5 1597.5 1124.5 1610.75 1124.5 1621.5 1135.25 1621.5 1148.5 1621.5 1161.75 1610.75 1172.5 1597.5 1172.5 1584.25 1172.5 1573.5 1161.75 1573.5 1148.5Z" stroke="#000000" stroke-width="6.875" stroke-miterlimit="8" fill-rule="evenodd"/><path d="M1573.5 1288.5C1573.5 1275.25 1584.25 1264.5 1597.5 1264.5 1610.75 1264.5 1621.5 1275.25 1621.5 1288.5 1621.5 1301.75 1610.75 1312.5 1597.5 1312.5 1584.25 1312.5 1573.5 1301.75 1573.5 1288.5Z" stroke="#000000" stroke-width="6.875" stroke-miterlimit="8" fill-rule="evenodd"/><path d="M1573.5 1429.5C1573.5 1416.25 1584.25 1405.5 1597.5 1405.5 1610.75 1405.5 1621.5 1416.25 1621.5 1429.5 1621.5 1442.75 1610.75 1453.5 1597.5 1453.5 1584.25 1453.5 1573.5 1442.75 1573.5 1429.5Z" stroke="#000000" stroke-width="6.875" stroke-miterlimit="8" fill-rule="evenodd"/><path d="M1573.5 1711C1573.5 1697.47 1584.25 1686.5 1597.5 1686.5 1610.75 1686.5 1621.5 1697.47 1621.5 1711 1621.5 1724.53 1610.75 1735.5 1597.5 1735.5 1584.25 1735.5 1573.5 1724.53 1573.5 1711Z" stroke="#000000" stroke-width="6.875" stroke-miterlimit="8" fill-rule="evenodd"/><path d="M1573.5 1570.5C1573.5 1557.25 1584.25 1546.5 1597.5 1546.5 1610.75 1546.5 1621.5 1557.25 1621.5 1570.5 1621.5 1583.75 1610.75 1594.5 1597.5 1594.5 1584.25 1594.5 1573.5 1583.75 1573.5 1570.5Z" stroke="#000000" stroke-width="6.875" stroke-miterlimit="8" fill-rule="evenodd"/><path d="M2099.5 592.5C2099.5 579.245 2110.25 568.5 2123.5 568.5 2136.75 568.5 2147.5 579.245 2147.5 592.5 2147.5 605.755 2136.75 616.5 2123.5 616.5 2110.25 616.5 2099.5 605.755 2099.5 592.5Z" stroke="#000000" stroke-width="6.875" stroke-miterlimit="8" fill-rule="evenodd"/><path d="M2099.5 452C2099.5 438.469 2110.25 427.5 2123.5 427.5 2136.75 427.5 2147.5 438.469 2147.5 452 2147.5 465.531 2136.75 476.5 2123.5 476.5 2110.25 476.5 2099.5 465.531 2099.5 452Z" stroke="#000000" stroke-width="6.875" stroke-miterlimit="8" fill-rule="evenodd"/><path d="M0 0 0.000360892 1320" stroke="#000000" stroke-width="13.75" stroke-miterlimit="8" fill="none" fill-rule="evenodd" transform="matrix(1 0 0 -1 2162 1742)"/><path d="M2099.5 733.5C2099.5 720.245 2110.25 709.5 2123.5 709.5 2136.75 709.5 2147.5 720.245 2147.5 733.5 2147.5 746.755 2136.75 757.5 2123.5 757.5 2110.25 757.5 2099.5 746.755 2099.5 733.5Z" stroke="#000000" stroke-width="6.875" stroke-miterlimit="8" fill-rule="evenodd"/><path d="M2099.5 874.5C2099.5 861.245 2110.25 850.5 2123.5 850.5 2136.75 850.5 2147.5 861.245 2147.5 874.5 2147.5 887.755 2136.75 898.5 2123.5 898.5 2110.25 898.5 2099.5 887.755 2099.5 874.5Z" stroke="#000000" stroke-width="6.875" stroke-miterlimit="8" fill-rule="evenodd"/><path d="M2099.5 1014.5C2099.5 1001.24 2110.25 990.5 2123.5 990.5 2136.75 990.5 2147.5 1001.24 2147.5 1014.5 2147.5 1027.75 2136.75 1038.5 2123.5 1038.5 2110.25 1038.5 2099.5 1027.75 2099.5 1014.5Z" stroke="#000000" stroke-width="6.875" stroke-miterlimit="8" fill-rule="evenodd"/><path d="M2099.5 1155.5C2099.5 1142.25 2110.25 1131.5 2123.5 1131.5 2136.75 1131.5 2147.5 1142.25 2147.5 1155.5 2147.5 1168.75 2136.75 1179.5 2123.5 1179.5 2110.25 1179.5 2099.5 1168.75 2099.5 1155.5Z" stroke="#000000" stroke-width="6.875" stroke-miterlimit="8" fill-rule="evenodd"/><path d="M2099.5 1296.5C2099.5 1283.25 2110.25 1272.5 2123.5 1272.5 2136.75 1272.5 2147.5 1283.25 2147.5 1296.5 2147.5 1309.75 2136.75 1320.5 2123.5 1320.5 2110.25 1320.5 2099.5 1309.75 2099.5 1296.5Z" stroke="#000000" stroke-width="6.875" stroke-miterlimit="8" fill-rule="evenodd"/><path d="M2099.5 1436.5C2099.5 1423.25 2110.25 1412.5 2123.5 1412.5 2136.75 1412.5 2147.5 1423.25 2147.5 1436.5 2147.5 1449.75 2136.75 1460.5 2123.5 1460.5 2110.25 1460.5 2099.5 1449.75 2099.5 1436.5Z" stroke="#000000" stroke-width="6.875" stroke-miterlimit="8" fill-rule="evenodd"/><path d="M2099.5 1718.5C2099.5 1705.25 2110.25 1694.5 2123.5 1694.5 2136.75 1694.5 2147.5 1705.25 2147.5 1718.5 2147.5 1731.75 2136.75 1742.5 2123.5 1742.5 2110.25 1742.5 2099.5 1731.75 2099.5 1718.5Z" stroke="#000000" stroke-width="6.875" stroke-miterlimit="8" fill-rule="evenodd"/><path d="M2099.5 1577.5C2099.5 1564.25 2110.25 1553.5 2123.5 1553.5 2136.75 1553.5 2147.5 1564.25 2147.5 1577.5 2147.5 1590.75 2136.75 1601.5 2123.5 1601.5 2110.25 1601.5 2099.5 1590.75 2099.5 1577.5Z" stroke="#000000" stroke-width="6.875" stroke-miterlimit="8" fill-rule="evenodd"/><path d="M1637.5 1770.5C1637.5 1757.25 1648.47 1746.5 1662 1746.5 1675.53 1746.5 1686.5 1757.25 1686.5 1770.5 1686.5 1783.75 1675.53 1794.5 1662 1794.5 1648.47 1794.5 1637.5 1783.75 1637.5 1770.5Z" stroke="#000000" stroke-width="6.875" stroke-miterlimit="8" fill-rule="evenodd"/><path d="M1771.5 1770.5C1771.5 1757.25 1782.25 1746.5 1795.5 1746.5 1808.75 1746.5 1819.5 1757.25 1819.5 1770.5 1819.5 1783.75 1808.75 1794.5 1795.5 1794.5 1782.25 1794.5 1771.5 1783.75 1771.5 1770.5Z" stroke="#000000" stroke-width="6.875" stroke-miterlimit="8" fill-rule="evenodd"/><path d="M1904.5 1770.5C1904.5 1757.25 1915.25 1746.5 1928.5 1746.5 1941.75 1746.5 1952.5 1757.25 1952.5 1770.5 1952.5 1783.75 1941.75 1794.5 1928.5 1794.5 1915.25 1794.5 1904.5 1783.75 1904.5 1770.5Z" stroke="#000000" stroke-width="6.875" stroke-miterlimit="8" fill-rule="evenodd"/><path d="M2037.5 1770.5C2037.5 1757.25 2048.25 1746.5 2061.5 1746.5 2074.75 1746.5 2085.5 1757.25 2085.5 1770.5 2085.5 1783.75 2074.75 1794.5 2061.5 1794.5 2048.25 1794.5 2037.5 1783.75 2037.5 1770.5Z" stroke="#000000" stroke-width="6.875" stroke-miterlimit="8" fill-rule="evenodd"/><path d="M0 0 450.776 0.000360892" stroke="#000000" stroke-width="13.75" stroke-miterlimit="8" fill="none" fill-rule="evenodd" transform="matrix(-1 0 0 1 2084.78 1806)"/><path d="M0 0 450.776 0.000360892" stroke="#0000FF" stroke-width="27.5" stroke-miterlimit="8" fill="none" fill-rule="evenodd" transform="matrix(-1 0 0 1 2084.78 420)"/><path d="M0 0 450.776 0.000360892" stroke="#0000FF" stroke-width="27.5" stroke-miterlimit="8" fill="none" fill-rule="evenodd" transform="matrix(-1 0 0 1 2084.78 1731)"/><text font-family="Times New Roman,Times New Roman_MSFontService,sans-serif" font-style="italic" font-weight="400" font-size="110" transform="matrix(1 0 0 1 2363.37 879)">p</text><text font-family="Times New Roman,Times New Roman_MSFontService,sans-serif" font-weight="400" font-size="73" transform="matrix(1 0 0 1 2418.37 906)">l</text><text font-family="Times New Roman,Times New Roman_MSFontService,sans-serif" font-weight="400" font-size="110" transform="matrix(1 0 0 1 2466.5 879)">(0) = </text><text font-family="Times New Roman,Times New Roman_MSFontService,sans-serif" font-weight="400" font-size="110" transform="matrix(1 0 0 1 2711.7 879)">101225 </text><text font-family="Times New Roman,Times New Roman_MSFontService,sans-serif" font-weight="400" font-size="110" transform="matrix(1 0 0 1 3069.2 879)">Pa</text><text font-family="Times New Roman,Times New Roman_MSFontService,sans-serif" font-style="italic" font-weight="400" font-size="110" transform="matrix(1 0 0 1 2363.37 1078)">p</text><text font-family="Times New Roman,Times New Roman_MSFontService,sans-serif" font-weight="400" font-size="73" transform="matrix(1 0 0 1 2418.37 1105)">g</text><text font-family="Times New Roman,Times New Roman_MSFontService,sans-serif" font-weight="400" font-size="110" transform="matrix(1 0 0 1 2482.54 1078)">(0) = </text><text font-family="Times New Roman,Times New Roman_MSFontService,sans-serif" font-weight="400" font-size="110" transform="matrix(1 0 0 1 2727.75 1078)">1</text><text font-family="Times New Roman,Times New Roman_MSFontService,sans-serif" font-weight="400" font-size="110" transform="matrix(1 0 0 1 2782.75 1078)">01325</text><text font-family="Times New Roman,Times New Roman_MSFontService,sans-serif" font-weight="400" font-size="110" transform="matrix(1 0 0 1 3085.25 1078)">Pa</text><text font-family="Times New Roman,Times New Roman_MSFontService,sans-serif" font-style="italic" font-weight="400" font-size="110" transform="matrix(1 0 0 1 2363.37 1564)">p</text><text font-family="Times New Roman,Times New Roman_MSFontService,sans-serif" font-weight="400" font-size="73" transform="matrix(1 0 0 1 2418.37 1591)">l</text><text font-family="Times New Roman,Times New Roman_MSFontService,sans-serif" font-weight="400" font-size="110" transform="matrix(1 0 0 1 2466.5 1564)">(</text><text font-family="Times New Roman,Times New Roman_MSFontService,sans-serif" font-style="italic" font-weight="400" font-size="110" transform="matrix(1 0 0 1 2503.16 1564)">t</text><text font-family="Times New Roman,Times New Roman_MSFontService,sans-serif" font-weight="400" font-size="110" transform="matrix(1 0 0 1 2533.53 1564)">) </text><text font-family="Times New Roman,Times New Roman_MSFontService,sans-serif" font-weight="400" font-size="110" transform="matrix(1 0 0 1 2597.69 1564)">= </text><text font-family="Times New Roman,Times New Roman_MSFontService,sans-serif" font-weight="400" font-size="110" transform="matrix(1 0 0 1 2687.07 1564)">101225 </text><text font-family="Times New Roman,Times New Roman_MSFontService,sans-serif" font-weight="400" font-size="110" transform="matrix(1 0 0 1 3044.57 1564)">Pa</text><text font-family="Times New Roman,Times New Roman_MSFontService,sans-serif" font-style="italic" font-weight="400" font-size="110" transform="matrix(1 0 0 1 2363.37 1763)">p</text><text font-family="Times New Roman,Times New Roman_MSFontService,sans-serif" font-weight="400" font-size="73" transform="matrix(1 0 0 1 2418.37 1790)">g</text><text font-family="Times New Roman,Times New Roman_MSFontService,sans-serif" font-weight="400" font-size="110" transform="matrix(1 0 0 1 2482.54 1763)">(</text><text font-family="Times New Roman,Times New Roman_MSFontService,sans-serif" font-style="italic" font-weight="400" font-size="110" transform="matrix(1 0 0 1 2519.2 1763)">t</text><text font-family="Times New Roman,Times New Roman_MSFontService,sans-serif" font-weight="400" font-size="110" transform="matrix(1 0 0 1 2549.57 1763)">) </text><text font-family="Times New Roman,Times New Roman_MSFontService,sans-serif" font-weight="400" font-size="110" transform="matrix(1 0 0 1 2613.74 1763)">= 1</text><text font-family="Times New Roman,Times New Roman_MSFontService,sans-serif" font-weight="400" font-size="110" transform="matrix(1 0 0 1 2758.11 1763)">01325</text><text font-family="Times New Roman,Times New Roman_MSFontService,sans-serif" font-weight="400" font-size="110" transform="matrix(1 0 0 1 3060.61 1763)">Pa</text><text font-family="Times New Roman,Times New Roman_MSFontService,sans-serif" font-style="italic" font-weight="400" font-size="110" transform="matrix(1 0 0 1 2363.37 564)">p</text><text font-family="Times New Roman,Times New Roman_MSFontService,sans-serif" font-weight="400" font-size="73" transform="matrix(1 0 0 1 2418.37 591)">g</text><text font-family="Times New Roman,Times New Roman_MSFontService,sans-serif" font-weight="400" font-size="110" transform="matrix(1 0 0 1 2482.54 564)">(</text><text font-family="Times New Roman,Times New Roman_MSFontService,sans-serif" font-style="italic" font-weight="400" font-size="110" transform="matrix(1 0 0 1 2519.2 564)">t</text><text font-family="Times New Roman,Times New Roman_MSFontService,sans-serif" font-weight="400" font-size="110" transform="matrix(1 0 0 1 2549.57 564)">) </text><text font-family="Times New Roman,Times New Roman_MSFontService,sans-serif" font-weight="400" font-size="110" transform="matrix(1 0 0 1 2613.74 564)">= 1</text><text font-family="Times New Roman,Times New Roman_MSFontService,sans-serif" font-weight="400" font-size="110" transform="matrix(1 0 0 1 2758.11 564)">01325</text><text font-family="Times New Roman,Times New Roman_MSFontService,sans-serif" font-weight="400" font-size="110" transform="matrix(1 0 0 1 3060.61 564)">Pa</text><path d="M0 0 419.63 186.013" stroke="#0000FF" stroke-width="6.875" stroke-miterlimit="8" fill="none" fill-rule="evenodd" transform="matrix(1 0 0 -1 1866.5 1084.51)"/><path d="M2286.5 811.5 2286.5 1131.7" stroke="#0000FF" stroke-width="6.875" stroke-miterlimit="8" fill="none" fill-rule="evenodd"/><path d="M1928.5 428.5 2286.3 542.514" stroke="#0000FF" stroke-width="6.875" stroke-miterlimit="8" fill="none" fill-rule="evenodd"/><path d="M0 0 419.63 122.616" stroke="#0000FF" stroke-width="6.875" stroke-miterlimit="8" fill="none" fill-rule="evenodd" transform="matrix(1 0 0 -1 1866.5 1731.12)"/><path d="M2286.5 1471.5 2286.5 1791.7" stroke="#0000FF" stroke-width="6.875" stroke-miterlimit="8" fill="none" fill-rule="evenodd"/></g></svg>