<svg width="2132" height="2066" xmlns="http://www.w3.org/2000/svg" xmlns:xlink="http://www.w3.org/1999/xlink" xml:space="preserve" overflow="hidden"><g transform="translate(-678 -180)"><rect x="765.5" y="420.5" width="1320" height="1320" stroke="#000000" stroke-width="6.875" stroke-miterlimit="8" fill="#F2F2F2"/><path d="M703.5 585.5C703.5 572.245 714.245 561.5 727.5 561.5 740.755 561.5 751.5 572.245 751.5 585.5 751.5 598.755 740.755 609.5 727.5 609.5 714.245 609.5 703.5 598.755 703.5 585.5Z" stroke="#000000" stroke-width="6.875" stroke-miterlimit="8" fill-rule="evenodd"/><path d="M703.5 444.5C703.5 431.245 714.245 420.5 727.5 420.5 740.755 420.5 751.5 431.245 751.5 444.5 751.5 457.755 740.755 468.5 727.5 468.5 714.245 468.5 703.5 457.755 703.5 444.5Z" stroke="#000000" stroke-width="6.875" stroke-miterlimit="8" fill-rule="evenodd"/><path d="M685.604 1734.62 685 413" stroke="#000000" stroke-width="13.75" stroke-miterlimit="8" fill="none" fill-rule="evenodd"/><path d="M703.5 726.5C703.5 713.245 714.245 702.5 727.5 702.5 740.755 702.5 751.5 713.245 751.5 726.5 751.5 739.755 740.755 750.5 727.5 750.5 714.245 750.5 703.5 739.755 703.5 726.5Z" stroke="#000000" stroke-width="6.875" stroke-miterlimit="8" fill-rule="evenodd"/><path d="M703.5 866.5C703.5 853.245 714.245 842.5 727.5 842.5 740.755 842.5 751.5 853.245 751.5 866.5 751.5 879.755 740.755 890.5 727.5 890.5 714.245 890.5 703.5 879.755 703.5 866.5Z" stroke="#000000" stroke-width="6.875" stroke-miterlimit="8" fill-rule="evenodd"/><path d="M703.5 1007.5C703.5 994.245 714.245 983.5 727.5 983.5 740.755 983.5 751.5 994.245 751.5 1007.5 751.5 1020.75 740.755 1031.5 727.5 1031.5 714.245 1031.5 703.5 1020.75 703.5 1007.5Z" stroke="#000000" stroke-width="6.875" stroke-miterlimit="8" fill-rule="evenodd"/><path d="M703.5 1148.5C703.5 1135.25 714.245 1124.5 727.5 1124.5 740.755 1124.5 751.5 1135.25 751.5 1148.5 751.5 1161.75 740.755 1172.5 727.5 1172.5 714.245 1172.5 703.5 1161.75 703.5 1148.5Z" stroke="#000000" stroke-width="6.875" stroke-miterlimit="8" fill-rule="evenodd"/><path d="M703.5 1288.5C703.5 1275.25 714.245 1264.5 727.5 1264.5 740.755 1264.5 751.5 1275.25 751.5 1288.5 751.5 1301.75 740.755 1312.5 727.5 1312.5 714.245 1312.5 703.5 1301.75 703.5 1288.5Z" stroke="#000000" stroke-width="6.875" stroke-miterlimit="8" fill-rule="evenodd"/><path d="M703.5 1429.5C703.5 1416.25 714.245 1405.5 727.5 1405.5 740.755 1405.5 751.5 1416.25 751.5 1429.5 751.5 1442.75 740.755 1453.5 727.5 1453.5 714.245 1453.5 703.5 1442.75 703.5 1429.5Z" stroke="#000000" stroke-width="6.875" stroke-miterlimit="8" fill-rule="evenodd"/><path d="M703.5 1711C703.5 1697.47 714.245 1686.5 727.5 1686.5 740.755 1686.5 751.5 1697.47 751.5 1711 751.5 1724.53 740.755 1735.5 727.5 1735.5 714.245 1735.5 703.5 1724.53 703.5 1711Z" stroke="#000000" stroke-width="6.875" stroke-miterlimit="8" fill-rule="evenodd"/><path d="M703.5 1570.5C703.5 1557.25 714.245 1546.5 727.5 1546.5 740.755 1546.5 751.5 1557.25 751.5 1570.5 751.5 1583.75 740.755 1594.5 727.5 1594.5 714.245 1594.5 703.5 1583.75 703.5 1570.5Z" stroke="#000000" stroke-width="6.875" stroke-miterlimit="8" fill-rule="evenodd"/><path d="M2099.5 592.5C2099.5 579.245 2110.25 568.5 2123.5 568.5 2136.75 568.5 2147.5 579.245 2147.5 592.5 2147.5 605.755 2136.75 616.5 2123.5 616.5 2110.25 616.5 2099.5 605.755 2099.5 592.5Z" stroke="#000000" stroke-width="6.875" stroke-miterlimit="8" fill-rule="evenodd"/><path d="M2099.5 452C2099.5 438.469 2110.25 427.5 2123.5 427.5 2136.75 427.5 2147.5 438.469 2147.5 452 2147.5 465.531 2136.75 476.5 2123.5 476.5 2110.25 476.5 2099.5 465.531 2099.5 452Z" stroke="#000000" stroke-width="6.875" stroke-miterlimit="8" fill-rule="evenodd"/><path d="M0 0 0.000360892 1320" stroke="#000000" stroke-width="13.75" stroke-miterlimit="8" fill="none" fill-rule="evenodd" transform="matrix(1 0 0 -1 2162 1742)"/><path d="M2099.5 733.5C2099.5 720.245 2110.25 709.5 2123.5 709.5 2136.75 709.5 2147.5 720.245 2147.5 733.5 2147.5 746.755 2136.75 757.5 2123.5 757.5 2110.25 757.5 2099.5 746.755 2099.5 733.5Z" stroke="#000000" stroke-width="6.875" stroke-miterlimit="8" fill-rule="evenodd"/><path d="M2099.5 874.5C2099.5 861.245 2110.25 850.5 2123.5 850.5 2136.75 850.5 2147.5 861.245 2147.5 874.5 2147.5 887.755 2136.75 898.5 2123.5 898.5 2110.25 898.5 2099.5 887.755 2099.5 874.5Z" stroke="#000000" stroke-width="6.875" stroke-miterlimit="8" fill-rule="evenodd"/><path d="M2099.5 1014.5C2099.5 1001.24 2110.25 990.5 2123.5 990.5 2136.75 990.5 2147.5 1001.24 2147.5 1014.5 2147.5 1027.75 2136.75 1038.5 2123.5 1038.5 2110.25 1038.5 2099.5 1027.75 2099.5 1014.5Z" stroke="#000000" stroke-width="6.875" stroke-miterlimit="8" fill-rule="evenodd"/><path d="M2099.5 1155.5C2099.5 1142.25 2110.25 1131.5 2123.5 1131.5 2136.75 1131.5 2147.5 1142.25 2147.5 1155.5 2147.5 1168.75 2136.75 1179.5 2123.5 1179.5 2110.25 1179.5 2099.5 1168.75 2099.5 1155.5Z" stroke="#000000" stroke-width="6.875" stroke-miterlimit="8" fill-rule="evenodd"/><path d="M2099.5 1296.5C2099.5 1283.25 2110.25 1272.5 2123.5 1272.5 2136.75 1272.5 2147.5 1283.25 2147.5 1296.5 2147.5 1309.75 2136.75 1320.5 2123.5 1320.5 2110.25 1320.5 2099.5 1309.75 2099.5 1296.5Z" stroke="#000000" stroke-width="6.875" stroke-miterlimit="8" fill-rule="evenodd"/><path d="M2099.5 1436.5C2099.5 1423.25 2110.25 1412.5 2123.5 1412.5 2136.75 1412.5 2147.5 1423.25 2147.5 1436.5 2147.5 1449.75 2136.75 1460.5 2123.5 1460.5 2110.25 1460.5 2099.5 1449.75 2099.5 1436.5Z" stroke="#000000" stroke-width="6.875" stroke-miterlimit="8" fill-rule="evenodd"/><path d="M2099.5 1718.5C2099.5 1705.25 2110.25 1694.5 2123.5 1694.5 2136.75 1694.5 2147.5 1705.25 2147.5 1718.5 2147.5 1731.75 2136.75 1742.5 2123.5 1742.5 2110.25 1742.5 2099.5 1731.75 2099.5 1718.5Z" stroke="#000000" stroke-width="6.875" stroke-miterlimit="8" fill-rule="evenodd"/><path d="M2099.5 1577.5C2099.5 1564.25 2110.25 1553.5 2123.5 1553.5 2136.75 1553.5 2147.5 1564.25 2147.5 1577.5 2147.5 1590.75 2136.75 1601.5 2123.5 1601.5 2110.25 1601.5 2099.5 1590.75 2099.5 1577.5Z" stroke="#000000" stroke-width="6.875" stroke-miterlimit="8" fill-rule="evenodd"/><path d="M1929.5 1755.5C1942.75 1755.5 1953.5 1766.47 1953.5 1780 1953.5 1793.53 1942.75 1804.5 1929.5 1804.5 1916.25 1804.5 1905.5 1793.53 1905.5 1780 1905.5 1766.47 1916.25 1755.5 1929.5 1755.5Z" stroke="#000000" stroke-width="6.875" stroke-miterlimit="8" fill-rule="evenodd"/><path d="M2070.5 1755.5C2083.75 1755.5 2094.5 1766.47 2094.5 1780 2094.5 1793.53 2083.75 1804.5 2070.5 1804.5 2057.25 1804.5 2046.5 1793.53 2046.5 1780 2046.5 1766.47 2057.25 1755.5 2070.5 1755.5Z" stroke="#000000" stroke-width="6.875" stroke-miterlimit="8" fill-rule="evenodd"/><path d="M0 0 0.000360892 1320" stroke="#000000" stroke-width="13.75" stroke-miterlimit="8" fill="none" fill-rule="evenodd" transform="matrix(6.12323e-17 1 1 -6.12323e-17 779 1818)"/><path d="M1788.5 1755.5C1801.75 1755.5 1812.5 1766.47 1812.5 1780 1812.5 1793.53 1801.75 1804.5 1788.5 1804.5 1775.25 1804.5 1764.5 1793.53 1764.5 1780 1764.5 1766.47 1775.25 1755.5 1788.5 1755.5Z" stroke="#000000" stroke-width="6.875" stroke-miterlimit="8" fill-rule="evenodd"/><path d="M1648 1755.5C1661.53 1755.5 1672.5 1766.47 1672.5 1780 1672.5 1793.53 1661.53 1804.5 1648 1804.5 1634.47 1804.5 1623.5 1793.53 1623.5 1780 1623.5 1766.47 1634.47 1755.5 1648 1755.5Z" stroke="#000000" stroke-width="6.875" stroke-miterlimit="8" fill-rule="evenodd"/><path d="M1507.5 1755.5C1520.76 1755.5 1531.5 1766.47 1531.5 1780 1531.5 1793.53 1520.76 1804.5 1507.5 1804.5 1494.25 1804.5 1483.5 1793.53 1483.5 1780 1483.5 1766.47 1494.25 1755.5 1507.5 1755.5Z" stroke="#000000" stroke-width="6.875" stroke-miterlimit="8" fill-rule="evenodd"/><path d="M1366.5 1755.5C1379.75 1755.5 1390.5 1766.47 1390.5 1780 1390.5 1793.53 1379.75 1804.5 1366.5 1804.5 1353.25 1804.5 1342.5 1793.53 1342.5 1780 1342.5 1766.47 1353.25 1755.5 1366.5 1755.5Z" stroke="#000000" stroke-width="6.875" stroke-miterlimit="8" fill-rule="evenodd"/><path d="M1226 1755.5C1239.53 1755.5 1250.5 1766.47 1250.5 1780 1250.5 1793.53 1239.53 1804.5 1226 1804.5 1212.47 1804.5 1201.5 1793.53 1201.5 1780 1201.5 1766.47 1212.47 1755.5 1226 1755.5Z" stroke="#000000" stroke-width="6.875" stroke-miterlimit="8" fill-rule="evenodd"/><path d="M1085.5 1755.5C1098.75 1755.5 1109.5 1766.47 1109.5 1780 1109.5 1793.53 1098.75 1804.5 1085.5 1804.5 1072.25 1804.5 1061.5 1793.53 1061.5 1780 1061.5 1766.47 1072.25 1755.5 1085.5 1755.5Z" stroke="#000000" stroke-width="6.875" stroke-miterlimit="8" fill-rule="evenodd"/><path d="M803.5 1755.5C816.755 1755.5 827.5 1766.47 827.5 1780 827.5 1793.53 816.755 1804.5 803.5 1804.5 790.245 1804.5 779.5 1793.53 779.5 1780 779.5 1766.47 790.245 1755.5 803.5 1755.5Z" stroke="#000000" stroke-width="6.875" stroke-miterlimit="8" fill-rule="evenodd"/><path d="M944.5 1755.5C957.755 1755.5 968.5 1766.47 968.5 1780 968.5 1793.53 957.755 1804.5 944.5 1804.5 931.245 1804.5 920.5 1793.53 920.5 1780 920.5 1766.47 931.245 1755.5 944.5 1755.5Z" stroke="#000000" stroke-width="6.875" stroke-miterlimit="8" fill-rule="evenodd"/><path d="M765 420 897 420" stroke="#FF0000" stroke-width="27.5" stroke-miterlimit="8" fill="none" fill-rule="evenodd"/><path d="M777.156 273 777.157 382.312 766.844 382.312 766.844 273ZM772 382.312 797.782 361.687 772 413.25 746.219 361.688Z" fill="#FF0000"/><path d="M832.156 273 832.157 382.312 821.844 382.312 821.844 273ZM827 382.312 852.782 361.687 827 413.25 801.219 361.688Z" fill="#FF0000"/><path d="M888.156 273 888.157 382.312 877.844 382.312 877.844 273ZM883 382.312 908.782 361.687 883 413.25 857.219 361.688Z" fill="#FF0000"/><text font-family="Times New Roman,Times New Roman_MSFontService,sans-serif" font-style="italic" font-weight="400" font-size="147" transform="matrix(1 0 0 1 960.483 366)">P</text><path d="M791.999 1955.21 2051.25 1955.21 2051.25 1959.79 791.999 1959.79ZM792 1957.5 810.333 1980.42 764.5 1957.5 810.333 1934.58ZM2051.25 1957.5 2032.92 1934.58 2078.75 1957.5 2032.92 1980.42Z"/><path d="M764.5 1906.5 764.5 2008.56" stroke="#000000" stroke-width="4.58333" stroke-miterlimit="8" fill="none" fill-rule="evenodd"/><path d="M2078.5 1906.5 2078.5 2008.56" stroke="#000000" stroke-width="4.58333" stroke-miterlimit="8" fill="none" fill-rule="evenodd"/><text font-family="Times New Roman,Times New Roman_MSFontService,sans-serif" font-weight="400" font-size="147" transform="matrix(1 0 0 1 1308.18 2123)">5.0 </text><text font-family="Times New Roman,Times New Roman_MSFontService,sans-serif" font-weight="400" font-size="147" transform="matrix(1 0 0 1 1528.18 2123)">m</text><path d="M2.29167 27.4989 2.29202 1276.17-2.29131 1276.17-2.29166 27.4989ZM7.61282e-06 27.5-22.9167 45.8333 0 0 22.9167 45.8333ZM0.00035328 1276.16 22.917 1257.83 0.000360892 1303.66-22.9163 1257.83Z" transform="matrix(1 0 0 -1 2303.5 1735.16)"/><path d="M2252.5 431.5 2354.56 431.5" stroke="#000000" stroke-width="4.58333" stroke-miterlimit="8" fill="none" fill-rule="evenodd"/><path d="M2252.5 1742.5 2354.56 1742.5" stroke="#000000" stroke-width="4.58333" stroke-miterlimit="8" fill="none" fill-rule="evenodd"/><text font-family="Times New Roman,Times New Roman_MSFontService,sans-serif" font-weight="400" font-size="147" transform="matrix(1 0 0 1 2387.45 1149)">5</text><text font-family="Times New Roman,Times New Roman_MSFontService,sans-serif" font-weight="400" font-size="147" transform="matrix(1 0 0 1 2460.79 1149)">.0</text><text font-family="Times New Roman,Times New Roman_MSFontService,sans-serif" font-weight="400" font-size="147" transform="matrix(1 0 0 1 2607.45 1149)">m</text><path d="M792 614.208 870.466 614.208 870.466 618.792 792 618.792ZM792 616.5 810.333 639.417 764.5 616.5 810.333 593.583ZM870.466 616.5 852.133 593.583 897.966 616.5 852.133 639.417Z"/><path d="M900.5 568.5 900.5 670.562" stroke="#000000" stroke-width="4.58333" stroke-miterlimit="8" fill="none" fill-rule="evenodd"/><text font-family="Times New Roman,Times New Roman_MSFontService,sans-serif" font-weight="400" font-size="147" transform="matrix(1 0 0 1 801.859 857)">0.5</text><text font-family="Times New Roman,Times New Roman_MSFontService,sans-serif" font-weight="400" font-size="147" transform="matrix(1 0 0 1 1021.86 857)">m</text></g></svg>