<svg xmlns="http://www.w3.org/2000/svg" xmlns:xlink="http://www.w3.org/1999/xlink" contentStyleType="text/css" height="281px" preserveAspectRatio="none" style="width:966px;height:281px;background:#FFFFFF;" version="1.1" viewBox="0 0 966 281" width="966px" zoomAndPan="magnify"><defs/><g><!--class StressStatePolicy--><g id="elem_StressStatePolicy"><rect codeLine="2" fill="#F1F1F1" height="103.8633" id="StressStatePolicy" rx="2.5" ry="2.5" style="stroke:#181818;stroke-width:0.5;" width="294.4746" x="336" y="7"/><ellipse cx="424.1323" cy="23" fill="#A9DCDF" rx="11" ry="11" style="stroke:#181818;stroke-width:1.0;"/><path d="M426.3198,24.7656 L422.1792,24.7656 L421.7573,25.7969 L422.1792,25.7969 Q422.7886,25.7969 423.0542,26.0313 Q423.3198,26.2656 423.3198,26.6563 Q423.3198,27.0313 423.0542,27.2656 Q422.7886,27.5 422.1792,27.5 L419.8823,27.5 Q419.2729,27.5 419.0229,27.2656 Q418.7573,27.0313 418.7573,26.6406 Q418.7573,26.2656 419.0386,26.0313 Q419.3042,25.7813 419.9292,25.7969 L422.6011,19.1406 L421.4917,19.1406 Q420.8823,19.1406 420.6167,18.9063 Q420.3511,18.6719 420.3511,18.2813 Q420.3511,17.9063 420.6167,17.6719 Q420.8823,17.4375 421.4917,17.4375 L425.1636,17.4375 L428.5542,25.7969 Q429.1479,25.7969 429.3354,25.9375 Q429.7261,26.2031 429.7261,26.6563 Q429.7261,27.0313 429.4604,27.2656 Q429.2104,27.5 428.6011,27.5 L426.3042,27.5 Q425.6948,27.5 425.4292,27.2656 Q425.1636,27.0313 425.1636,26.6406 Q425.1636,26.2656 425.4292,26.0313 Q425.6948,25.7969 426.3042,25.7969 L426.7261,25.7969 L426.3198,24.7656 Z M425.6011,23.0625 L424.2417,19.6875 L422.8667,23.0625 L425.6011,23.0625 Z " fill="#000000"/><text fill="#000000" font-family="sans-serif" font-size="14" font-style="italic" lengthAdjust="spacing" textLength="109.71" x="444.6323" y="28.7969">StressStatePolicy</text><line style="stroke:#181818;stroke-width:0.5;" x1="337" x2="629.4746" y1="39" y2="39"/><line style="stroke:#181818;stroke-width:0.5;" x1="337" x2="629.4746" y1="47" y2="47"/><ellipse cx="347" cy="61.8105" fill="#84BE84" rx="3" ry="3" style="stroke:#038048;stroke-width:1.0;"/><text fill="#000000" font-family="sans-serif" font-size="14" font-style="italic" lengthAdjust="spacing" textLength="157.1377" x="356" y="66.1074">Matrix CalculateBMatrix()</text><ellipse cx="347" cy="80.4316" fill="#84BE84" rx="3" ry="3" style="stroke:#038048;stroke-width:1.0;"/><text fill="#000000" font-family="sans-serif" font-size="14" font-style="italic" lengthAdjust="spacing" textLength="246.6885" x="356" y="84.7285">Vector CalculateGreenLagrangeStrain()</text><ellipse cx="347" cy="99.0527" fill="#84BE84" rx="3" ry="3" style="stroke:#038048;stroke-width:1.0;"/><text fill="#000000" font-family="sans-serif" font-size="14" font-style="italic" lengthAdjust="spacing" textLength="268.4746" x="356" y="103.3496">std::unique_ptr&lt;StressStatePolicy&gt; Clone()</text></g><!--class ThreeDimensionalStressState--><g id="elem_ThreeDimensionalStressState"><rect codeLine="9" fill="#F1F1F1" height="103.8633" id="ThreeDimensionalStressState" rx="2.5" ry="2.5" style="stroke:#181818;stroke-width:0.5;" width="294.4746" x="7" y="171"/><ellipse cx="57.0015" cy="187" fill="#ADD1B2" rx="11" ry="11" style="stroke:#181818;stroke-width:1.0;"/><path d="M59.7671,182.875 Q59.9233,182.6563 60.1108,182.5469 Q60.2983,182.4375 60.5171,182.4375 Q60.8921,182.4375 61.1265,182.7031 Q61.3608,182.9531 61.3608,183.5625 L61.3608,185.0156 Q61.3608,185.625 61.1265,185.8906 Q60.8921,186.1563 60.5171,186.1563 Q60.1733,186.1563 59.9702,185.9531 Q59.7671,185.7656 59.6577,185.25 Q59.6108,184.8906 59.4233,184.7031 Q59.0952,184.3281 58.4858,184.1094 Q57.8765,183.8906 57.2515,183.8906 Q56.4858,183.8906 55.8452,184.2188 Q55.2202,184.5469 54.7202,185.2969 Q54.2358,186.0469 54.2358,187.0781 L54.2358,188.1719 Q54.2358,189.4063 55.1265,190.2344 Q56.0171,191.0469 57.6108,191.0469 Q58.5483,191.0469 59.2046,190.7969 Q59.5952,190.6406 60.0171,190.2031 Q60.2827,189.9375 60.4233,189.8594 Q60.5796,189.7813 60.7827,189.7813 Q61.1108,189.7813 61.3608,190.0469 Q61.6265,190.2969 61.6265,190.6406 Q61.6265,190.9844 61.2827,191.3906 Q60.7827,191.9688 59.9858,192.2969 Q58.9077,192.75 57.6108,192.75 Q56.0952,192.75 54.8921,192.125 Q53.9077,191.625 53.2202,190.5625 Q52.5327,189.4844 52.5327,188.2031 L52.5327,187.0469 Q52.5327,185.7188 53.1421,184.5781 Q53.7671,183.4219 54.8608,182.8125 Q55.9546,182.1875 57.189,182.1875 Q57.9233,182.1875 58.564,182.3594 Q59.2202,182.5156 59.7671,182.875 Z " fill="#000000"/><text fill="#000000" font-family="sans-serif" font-size="14" lengthAdjust="spacing" textLength="185.9717" x="77.5015" y="192.7969">ThreeDimensionalStressState</text><line style="stroke:#181818;stroke-width:0.5;" x1="8" x2="300.4746" y1="203" y2="203"/><line style="stroke:#181818;stroke-width:0.5;" x1="8" x2="300.4746" y1="211" y2="211"/><ellipse cx="18" cy="225.8105" fill="#84BE84" rx="3" ry="3" style="stroke:#038048;stroke-width:1.0;"/><text fill="#000000" font-family="sans-serif" font-size="14" lengthAdjust="spacing" textLength="157.1377" x="27" y="230.1074">Matrix CalculateBMatrix()</text><ellipse cx="18" cy="244.4316" fill="#84BE84" rx="3" ry="3" style="stroke:#038048;stroke-width:1.0;"/><text fill="#000000" font-family="sans-serif" font-size="14" lengthAdjust="spacing" textLength="246.6885" x="27" y="248.7285">Vector CalculateGreenLagrangeStrain()</text><ellipse cx="18" cy="263.0527" fill="#84BE84" rx="3" ry="3" style="stroke:#038048;stroke-width:1.0;"/><text fill="#000000" font-family="sans-serif" font-size="14" lengthAdjust="spacing" textLength="268.4746" x="27" y="267.3496">std::unique_ptr&lt;StressStatePolicy&gt; Clone()</text></g><!--class PlaneStrainStressState--><g id="elem_PlaneStrainStressState"><rect codeLine="15" fill="#F1F1F1" height="103.8633" id="PlaneStrainStressState" rx="2.5" ry="2.5" style="stroke:#181818;stroke-width:0.5;" width="294.4746" x="336" y="171"/><ellipse cx="406.6152" cy="187" fill="#ADD1B2" rx="11" ry="11" style="stroke:#181818;stroke-width:1.0;"/><path d="M409.3809,182.875 Q409.5371,182.6563 409.7246,182.5469 Q409.9121,182.4375 410.1309,182.4375 Q410.5059,182.4375 410.7402,182.7031 Q410.9746,182.9531 410.9746,183.5625 L410.9746,185.0156 Q410.9746,185.625 410.7402,185.8906 Q410.5059,186.1563 410.1309,186.1563 Q409.7871,186.1563 409.584,185.9531 Q409.3809,185.7656 409.2715,185.25 Q409.2246,184.8906 409.0371,184.7031 Q408.709,184.3281 408.0996,184.1094 Q407.4902,183.8906 406.8652,183.8906 Q406.0996,183.8906 405.459,184.2188 Q404.834,184.5469 404.334,185.2969 Q403.8496,186.0469 403.8496,187.0781 L403.8496,188.1719 Q403.8496,189.4063 404.7402,190.2344 Q405.6309,191.0469 407.2246,191.0469 Q408.1621,191.0469 408.8184,190.7969 Q409.209,190.6406 409.6309,190.2031 Q409.8965,189.9375 410.0371,189.8594 Q410.1934,189.7813 410.3965,189.7813 Q410.7246,189.7813 410.9746,190.0469 Q411.2402,190.2969 411.2402,190.6406 Q411.2402,190.9844 410.8965,191.3906 Q410.3965,191.9688 409.5996,192.2969 Q408.5215,192.75 407.2246,192.75 Q405.709,192.75 404.5059,192.125 Q403.5215,191.625 402.834,190.5625 Q402.1465,189.4844 402.1465,188.2031 L402.1465,187.0469 Q402.1465,185.7188 402.7559,184.5781 Q403.3809,183.4219 404.4746,182.8125 Q405.5684,182.1875 406.8027,182.1875 Q407.5371,182.1875 408.1777,182.3594 Q408.834,182.5156 409.3809,182.875 Z " fill="#000000"/><text fill="#000000" font-family="sans-serif" font-size="14" lengthAdjust="spacing" textLength="144.7441" x="427.1152" y="192.7969">PlaneStrainStressState</text><line style="stroke:#181818;stroke-width:0.5;" x1="337" x2="629.4746" y1="203" y2="203"/><line style="stroke:#181818;stroke-width:0.5;" x1="337" x2="629.4746" y1="211" y2="211"/><ellipse cx="347" cy="225.8105" fill="#84BE84" rx="3" ry="3" style="stroke:#038048;stroke-width:1.0;"/><text fill="#000000" font-family="sans-serif" font-size="14" lengthAdjust="spacing" textLength="157.1377" x="356" y="230.1074">Matrix CalculateBMatrix()</text><ellipse cx="347" cy="244.4316" fill="#84BE84" rx="3" ry="3" style="stroke:#038048;stroke-width:1.0;"/><text fill="#000000" font-family="sans-serif" font-size="14" lengthAdjust="spacing" textLength="246.6885" x="356" y="248.7285">Vector CalculateGreenLagrangeStrain()</text><ellipse cx="347" cy="263.0527" fill="#84BE84" rx="3" ry="3" style="stroke:#038048;stroke-width:1.0;"/><text fill="#000000" font-family="sans-serif" font-size="14" lengthAdjust="spacing" textLength="268.4746" x="356" y="267.3496">std::unique_ptr&lt;StressStatePolicy&gt; Clone()</text></g><!--class AxisymmetricStressState--><g id="elem_AxisymmetricStressState"><rect codeLine="21" fill="#F1F1F1" height="103.8633" id="AxisymmetricStressState" rx="2.5" ry="2.5" style="stroke:#181818;stroke-width:0.5;" width="294.4746" x="665" y="171"/><ellipse cx="730.1943" cy="187" fill="#ADD1B2" rx="11" ry="11" style="stroke:#181818;stroke-width:1.0;"/><path d="M732.96,182.875 Q733.1162,182.6563 733.3037,182.5469 Q733.4912,182.4375 733.71,182.4375 Q734.085,182.4375 734.3193,182.7031 Q734.5537,182.9531 734.5537,183.5625 L734.5537,185.0156 Q734.5537,185.625 734.3193,185.8906 Q734.085,186.1563 733.71,186.1563 Q733.3662,186.1563 733.1631,185.9531 Q732.96,185.7656 732.8506,185.25 Q732.8037,184.8906 732.6162,184.7031 Q732.2881,184.3281 731.6787,184.1094 Q731.0693,183.8906 730.4443,183.8906 Q729.6787,183.8906 729.0381,184.2188 Q728.4131,184.5469 727.9131,185.2969 Q727.4287,186.0469 727.4287,187.0781 L727.4287,188.1719 Q727.4287,189.4063 728.3193,190.2344 Q729.21,191.0469 730.8037,191.0469 Q731.7412,191.0469 732.3975,190.7969 Q732.7881,190.6406 733.21,190.2031 Q733.4756,189.9375 733.6162,189.8594 Q733.7725,189.7813 733.9756,189.7813 Q734.3037,189.7813 734.5537,190.0469 Q734.8193,190.2969 734.8193,190.6406 Q734.8193,190.9844 734.4756,191.3906 Q733.9756,191.9688 733.1787,192.2969 Q732.1006,192.75 730.8037,192.75 Q729.2881,192.75 728.085,192.125 Q727.1006,191.625 726.4131,190.5625 Q725.7256,189.4844 725.7256,188.2031 L725.7256,187.0469 Q725.7256,185.7188 726.335,184.5781 Q726.96,183.4219 728.0537,182.8125 Q729.1475,182.1875 730.3818,182.1875 Q731.1162,182.1875 731.7568,182.3594 Q732.4131,182.5156 732.96,182.875 Z " fill="#000000"/><text fill="#000000" font-family="sans-serif" font-size="14" lengthAdjust="spacing" textLength="155.5859" x="750.6943" y="192.7969">AxisymmetricStressState</text><line style="stroke:#181818;stroke-width:0.5;" x1="666" x2="958.4746" y1="203" y2="203"/><line style="stroke:#181818;stroke-width:0.5;" x1="666" x2="958.4746" y1="211" y2="211"/><ellipse cx="676" cy="225.8105" fill="#84BE84" rx="3" ry="3" style="stroke:#038048;stroke-width:1.0;"/><text fill="#000000" font-family="sans-serif" font-size="14" lengthAdjust="spacing" textLength="157.1377" x="685" y="230.1074">Matrix CalculateBMatrix()</text><ellipse cx="676" cy="244.4316" fill="#84BE84" rx="3" ry="3" style="stroke:#038048;stroke-width:1.0;"/><text fill="#000000" font-family="sans-serif" font-size="14" lengthAdjust="spacing" textLength="246.6885" x="685" y="248.7285">Vector CalculateGreenLagrangeStrain()</text><ellipse cx="676" cy="263.0527" fill="#84BE84" rx="3" ry="3" style="stroke:#038048;stroke-width:1.0;"/><text fill="#000000" font-family="sans-serif" font-size="14" lengthAdjust="spacing" textLength="268.4746" x="685" y="267.3496">std::unique_ptr&lt;StressStatePolicy&gt; Clone()</text></g><!--reverse link StressStatePolicy to ThreeDimensionalStressState--><g id="link_StressStatePolicy_ThreeDimensionalStressState"><path codeLine="27" d="M363.2007,118.9898 C324.4007,138.0898 296.49,151.84 257.69,170.94 " fill="none" id="StressStatePolicy-backto-ThreeDimensionalStressState" style="stroke:#181818;stroke-width:1.0;"/><polygon fill="none" points="379.35,111.04,360.5507,113.6067,365.8506,124.3729,379.35,111.04" style="stroke:#181818;stroke-width:1.0;"/></g><!--reverse link StressStatePolicy to PlaneStrainStressState--><g id="link_StressStatePolicy_PlaneStrainStressState"><path codeLine="28" d="M483,129.26 C483,148.26 483,151.8 483,170.8 " fill="none" id="StressStatePolicy-backto-PlaneStrainStressState" style="stroke:#181818;stroke-width:1.0;"/><polygon fill="none" points="483,111.26,477,129.26,489,129.26,483,111.26" style="stroke:#181818;stroke-width:1.0;"/></g><!--reverse link StressStatePolicy to AxisymmetricStressState--><g id="link_StressStatePolicy_AxisymmetricStressState"><path codeLine="29" d="M602.7993,118.9898 C641.5993,138.0898 669.51,151.84 708.31,170.94 " fill="none" id="StressStatePolicy-backto-AxisymmetricStressState" style="stroke:#181818;stroke-width:1.0;"/><polygon fill="none" points="586.65,111.04,600.1494,124.3729,605.4493,113.6067,586.65,111.04" style="stroke:#181818;stroke-width:1.0;"/></g><!--SRC=[pPB12i8m38RlVOeU5TaBo11qWXU5mSIhn1fceMkrpM1ZxjqjRAWuD_IsQ_Z-v2C9d1nP4CI50kTuGXQTImW8OwEaA7d5E9zLq68rtm5PMV08bCYLnrPDOJBzu0ueoDWNjx68UWkf1PsY7mDITpAEplDvhkKjn-ELRDYnMV186Oq-o6h66kNznNTUomoraqQ3UWiryeF6Fsl-uVPKYnNejic8h9Q5T6MMeHydHg7LVRhm7WH3X-sBV5zu7zspY0S0]--></g></svg>