<?xml version="1.0" encoding="UTF-8" standalone="no"?>
<!-- Created with Inkscape (http://www.inkscape.org/) -->

<svg
   width="61.073032mm"
   height="23.654688mm"
   viewBox="0 0 61.073515 23.654876"
   version="1.1"
   id="svg1"
   sodipodi:docname="3Plus3NodedLineGeometry.svg"
   inkscape:version="1.3.2 (091e20e, 2023-11-25, custom)"
   xmlns:inkscape="http://www.inkscape.org/namespaces/inkscape"
   xmlns:sodipodi="http://sodipodi.sourceforge.net/DTD/sodipodi-0.dtd"
   xmlns="http://www.w3.org/2000/svg"
   xmlns:svg="http://www.w3.org/2000/svg">
  <sodipodi:namedview
     id="namedview1"
     pagecolor="#ffffff"
     bordercolor="#000000"
     borderopacity="0.25"
     inkscape:showpageshadow="2"
     inkscape:pageopacity="0.0"
     inkscape:pagecheckerboard="0"
     inkscape:deskcolor="#d1d1d1"
     inkscape:document-units="mm"
     inkscape:zoom="2.9255612"
     inkscape:cx="81.693728"
     inkscape:cy="57.595787"
     inkscape:window-width="1920"
     inkscape:window-height="1017"
     inkscape:window-x="-8"
     inkscape:window-y="-8"
     inkscape:window-maximized="1"
     inkscape:current-layer="mid_line" />
  <defs
     id="defs1">
    <marker
       style="overflow:visible"
       id="DartArrow"
       refX="0"
       refY="0"
       orient="auto-start-reverse"
       inkscape:stockid="Dart arrow"
       markerWidth="1"
       markerHeight="1"
       viewBox="0 0 1 1"
       inkscape:isstock="true"
       inkscape:collect="always"
       preserveAspectRatio="xMidYMid">
      <path
         style="fill:context-stroke;fill-rule:evenodd;stroke:none"
         d="M 0,0 5,-5 -12.5,0 5,5 Z"
         transform="scale(-0.5)"
         id="path6" />
    </marker>
  </defs>
  <g
     inkscape:label="Laag 1"
     inkscape:groupmode="layer"
     id="layer1"
     transform="translate(-72.440441,-137.11208)">
    <g
       id="g5"
       transform="translate(2.0278704,1.6279057)">
      <ellipse
         style="fill:#000000;fill-opacity:1;stroke:#156082;stroke-width:0;stroke-dasharray:none"
         id="path1"
         cx="71.563889"
         cy="154.88835"
         rx="1.1513177"
         ry="1.1513178" />
      <ellipse
         style="fill:#000000;fill-opacity:1;stroke:#156082;stroke-width:0;stroke-dasharray:none"
         id="path1-9"
         cx="99.887772"
         cy="154.88835"
         rx="1.1513177"
         ry="1.1513178" />
      <ellipse
         style="fill:#000000;fill-opacity:1;stroke:#156082;stroke-width:0;stroke-dasharray:none"
         id="path1-9-3"
         cx="128.21165"
         cy="154.88835"
         rx="1.1513177"
         ry="1.1513178" />
      <text
         xml:space="preserve"
         style="font-size:4.31218px;font-family:Arial;-inkscape-font-specification:'Arial, Normal';fill:#000000;fill-opacity:1;stroke:#6e6e6e;stroke-width:0;stroke-dasharray:none;stroke-dashoffset:0;stroke-opacity:1"
         x="72.245667"
         y="159.13905"
         id="text5"><tspan
           sodipodi:role="line"
           id="tspan5"
           style="stroke:#6e6e6e;stroke-width:0;stroke-dasharray:none;stroke-dashoffset:0;stroke-opacity:1"
           x="72.245667"
           y="159.13905">1</tspan></text>
      <text
         xml:space="preserve"
         style="font-style:normal;font-variant:normal;font-weight:normal;font-stretch:normal;font-size:4.31218px;font-family:Arial;-inkscape-font-specification:'Arial, Normal';font-variant-ligatures:normal;font-variant-caps:normal;font-variant-numeric:normal;font-variant-east-asian:normal;fill:#000000;fill-opacity:1;stroke:#6e6e6e;stroke-width:0;stroke-dasharray:none;stroke-dashoffset:0;stroke-opacity:1"
         x="101.08631"
         y="159.0843"
         id="text5-8"><tspan
           sodipodi:role="line"
           id="tspan6"
           x="101.08631"
           y="159.0843">3</tspan></text>
      <text
         xml:space="preserve"
         style="font-style:normal;font-variant:normal;font-weight:normal;font-stretch:normal;font-size:4.31218px;font-family:Arial;-inkscape-font-specification:'Arial, Normal';font-variant-ligatures:normal;font-variant-caps:normal;font-variant-numeric:normal;font-variant-east-asian:normal;fill:#000000;fill-opacity:1;stroke:#6e6e6e;stroke-width:0;stroke-dasharray:none;stroke-dashoffset:0;stroke-opacity:1"
         x="129.26051"
         y="159.0843"
         id="text5-8-5"><tspan
           sodipodi:role="line"
           id="tspan7"
           x="129.26051"
           y="159.0843">2</tspan></text>
    </g>
    <g
       id="g4"
       transform="translate(2.0278704,1.6279057)">
      <ellipse
         style="fill:#000000;fill-opacity:1;stroke:#156082;stroke-width:0;stroke-dasharray:none"
         id="path1-1"
         cx="71.563889"
         cy="140.35606"
         rx="1.1513177"
         ry="1.1513178" />
      <ellipse
         style="fill:#000000;fill-opacity:1;stroke:#156082;stroke-width:0;stroke-dasharray:none"
         id="path1-9-9"
         cx="99.887772"
         cy="140.35606"
         rx="1.1513177"
         ry="1.1513178" />
      <ellipse
         style="fill:#000000;fill-opacity:1;stroke:#156082;stroke-width:0;stroke-dasharray:none"
         id="path1-9-3-0"
         cx="128.21164"
         cy="140.35606"
         rx="1.1513177"
         ry="1.1513178" />
      <text
         xml:space="preserve"
         style="font-style:normal;font-variant:normal;font-weight:normal;font-stretch:normal;font-size:4.31218px;font-family:Arial;-inkscape-font-specification:'Arial, Normal';font-variant-ligatures:normal;font-variant-caps:normal;font-variant-numeric:normal;font-variant-east-asian:normal;fill:#000000;fill-opacity:1;stroke:#6e6e6e;stroke-width:0;stroke-dasharray:none;stroke-dashoffset:0;stroke-opacity:1"
         x="72.245667"
         y="138.63831"
         id="text5-6"><tspan
           sodipodi:role="line"
           id="tspan8"
           x="72.245667"
           y="138.63831">4</tspan></text>
      <text
         xml:space="preserve"
         style="font-style:normal;font-variant:normal;font-weight:normal;font-stretch:normal;font-size:4.31218px;font-family:Arial;-inkscape-font-specification:'Arial, Normal';font-variant-ligatures:normal;font-variant-caps:normal;font-variant-numeric:normal;font-variant-east-asian:normal;fill:#000000;fill-opacity:1;stroke:#6e6e6e;stroke-width:0;stroke-dasharray:none;stroke-dashoffset:0;stroke-opacity:1"
         x="101.08631"
         y="138.58356"
         id="text5-8-6"><tspan
           sodipodi:role="line"
           id="tspan6-0"
           x="101.08631"
           y="138.58356">6</tspan></text>
      <text
         xml:space="preserve"
         style="font-style:normal;font-variant:normal;font-weight:normal;font-stretch:normal;font-size:4.31218px;font-family:Arial;-inkscape-font-specification:'Arial, Normal';font-variant-ligatures:normal;font-variant-caps:normal;font-variant-numeric:normal;font-variant-east-asian:normal;fill:#000000;fill-opacity:1;stroke:#6e6e6e;stroke-width:0;stroke-dasharray:none;stroke-dashoffset:0;stroke-opacity:1"
         x="129.26051"
         y="138.58356"
         id="text5-8-5-9"><tspan
           sodipodi:role="line"
           id="tspan7-6"
           x="129.26051"
           y="138.58356">5</tspan></text>
    </g>
    <g
       id="mid_line">
      <ellipse
         style="fill:#6e6e6e;fill-opacity:1;stroke:#156082;stroke-width:0;stroke-dasharray:none"
         id="path1-1-8"
         cx="73.591759"
         cy="149.25011"
         rx="1.1513177"
         ry="1.1513178" />
      <ellipse
         style="fill:#6e6e6e;fill-opacity:1;stroke:#156082;stroke-width:0;stroke-dasharray:none"
         id="path1-9-9-8"
         cx="101.91564"
         cy="149.25011"
         rx="1.1513177"
         ry="1.1513178"
         inkscape:label="path1-9-9-8" />
      <ellipse
         style="fill:#6e6e6e;fill-opacity:1;stroke:#156082;stroke-width:0;stroke-dasharray:none"
         id="path1-9-3-0-2"
         cx="130.23952"
         cy="149.25011"
         rx="1.1513177"
         ry="1.1513178" />
      <path
         style="fill:#6e6e6e;fill-opacity:1;stroke:#6e6e6e;stroke-width:0.3;stroke-dasharray:1.2, 0.3;stroke-dashoffset:0;stroke-opacity:1"
         d="M 74.743076,149.25012 H 129.08819"
         id="path5" />
      <path
         style="fill:#6e6e6e;fill-opacity:1;stroke:#000000;stroke-width:0.3;stroke-dasharray:none;stroke-dashoffset:0;stroke-opacity:1"
         d="M 74.743076,156.51626 H 129.08821"
         id="path8" />
      <path
         style="fill:#6e6e6e;stroke:#000000;stroke-width:0.300003"
         d="M 74.743077,141.98397 H 129.08819"
         id="path2" />
      <path
         d="m 110.80576,150.30102 v 0.0752 q -0.19401,0.0277 -0.19401,0.17027 0,0.15441 0.22173,0.19796 0.1267,-0.1366 0.29894,-0.23954 0.17223,-0.10492 0.30685,-0.10492 0.10097,0 0.10097,0.0911 0,0.12076 -0.19798,0.23756 -0.19797,0.11681 -0.47315,0.12076 -0.16233,0.16432 -0.16233,0.34843 0,0.19401 0.19005,0.31874 0.28508,-0.15641 0.60183,-0.15641 0.21776,0 0.21776,0.10889 0,0.0733 -0.11481,0.12473 -0.11483,0.0515 -0.33062,0.0515 -0.18015,0 -0.3504,-0.0257 -0.52066,0.33259 -0.52066,0.75427 0,0.18609 0.13066,0.30882 0.13066,0.12275 0.42366,0.12275 0.0515,0 0.13858,-0.006 0.22766,-0.0178 0.30685,-0.0178 0.23954,0 0.34843,0.15441 0.10888,0.15441 0.10888,0.38605 0,0.32468 -0.17817,0.49295 -0.17817,0.17026 -0.40187,0.17026 -0.11879,0 -0.196,-0.0495 -0.0772,-0.0475 -0.0772,-0.13066 0,-0.0594 0.0396,-0.095 0.0416,-0.0357 0.093,-0.0357 0.0357,0 0.10097,0.0218 0.12274,0.0396 0.19599,0.0396 0.13461,0 0.21184,-0.093 0.0772,-0.0931 0.0772,-0.23361 0,-0.099 -0.0594,-0.17619 -0.0594,-0.0752 -0.19401,-0.0752 -0.0594,0 -0.14253,0.004 -0.24747,0.0139 -0.33061,0.0139 -0.3524,0 -0.56225,-0.20589 -0.20984,-0.2059 -0.20984,-0.52859 0,-0.50681 0.55828,-0.84929 -0.20193,-0.16036 -0.20193,-0.36625 0,-0.19401 0.17026,-0.38605 -0.2831,-0.0712 -0.2831,-0.28904 0,-0.24351 0.33853,-0.24945 z"
         id="path1-2"
         style="fill:#6e6e6e;fill-opacity:1;stroke:#6e6e6e;stroke-width:0.0106847;stroke-opacity:1"
         inkscape:label="path1-2" />
      <path
         style="fill:#6e6e6e;stroke:#6e6e6e;stroke-width:0.293002;stroke-dasharray:none;stroke-opacity:1;marker-end:url(#DartArrow)"
         d="m 101.88759,151.81609 h 5.88231"
         id="path2-6" />
      <path
         style="fill:#6e6e6e;fill-opacity:1;stroke:#6a6a6a;stroke-width:0.300002;stroke-dasharray:none;stroke-opacity:1"
         d="m 101.88759,153.71743 v -1.90134 -1.78264"
         id="path10" />
    </g>
  </g>
</svg>
