<svg xmlns="http://www.w3.org/2000/svg" xmlns:xlink="http://www.w3.org/1999/xlink" contentStyleType="text/css" data-diagram-type="CLASS" height="571px" preserveAspectRatio="none" style="width:2826px;height:571px;background:#FFFFFF;" version="1.1" viewBox="0 0 2826 571" width="2826px" zoomAndPan="magnify"><defs/><g><!--class Scheme--><g class="entity" data-entity="Scheme" data-source-line="3" data-uid="ent0002" id="entity_Scheme"><rect fill="#F1F1F1" height="48" rx="2.5" ry="2.5" style="stroke:#181818;stroke-width:0.5;" width="83.3584" x="733" y="7"/><ellipse cx="748" cy="23" fill="#A9DCDF" rx="11" ry="11" style="stroke:#181818;stroke-width:1;"/><path d="M750.1875,24.7656 L746.0469,24.7656 L745.625,25.7969 L746.0469,25.7969 Q746.6563,25.7969 746.9219,26.0313 Q747.1875,26.2656 747.1875,26.6563 Q747.1875,27.0313 746.9219,27.2656 Q746.6563,27.5 746.0469,27.5 L743.75,27.5 Q743.1406,27.5 742.8906,27.2656 Q742.625,27.0313 742.625,26.6406 Q742.625,26.2656 742.9063,26.0313 Q743.1719,25.7813 743.7969,25.7969 L746.4688,19.1406 L745.3594,19.1406 Q744.75,19.1406 744.4844,18.9063 Q744.2188,18.6719 744.2188,18.2813 Q744.2188,17.9063 744.4844,17.6719 Q744.75,17.4375 745.3594,17.4375 L749.0313,17.4375 L752.4219,25.7969 Q753.0156,25.7969 753.2031,25.9375 Q753.5938,26.2031 753.5938,26.6563 Q753.5938,27.0313 753.3281,27.2656 Q753.0781,27.5 752.4688,27.5 L750.1719,27.5 Q749.5625,27.5 749.2969,27.2656 Q749.0313,27.0313 749.0313,26.6406 Q749.0313,26.2656 749.2969,26.0313 Q749.5625,25.7969 750.1719,25.7969 L750.5938,25.7969 L750.1875,24.7656 Z M749.4688,23.0625 L748.1094,19.6875 L746.7344,23.0625 L749.4688,23.0625 Z " fill="#000000"/><text fill="#000000" font-family="sans-serif" font-size="14" font-style="italic" lengthAdjust="spacing" textLength="51.3584" x="762" y="28.7969">Scheme</text><line style="stroke:#181818;stroke-width:0.5;" x1="734" x2="815.3584" y1="39" y2="39"/><line style="stroke:#181818;stroke-width:0.5;" x1="734" x2="815.3584" y1="47" y2="47"/></g><!--class GeoMechanicsTimeIntegrationScheme--><g class="entity" data-entity="GeoMechanicsTimeIntegrationScheme" data-source-line="4" data-uid="ent0003" id="entity_GeoMechanicsTimeIntegrationScheme"><rect fill="#F1F1F1" height="122.4844" rx="2.5" ry="2.5" style="stroke:#181818;stroke-width:0.5;" width="469.5635" x="539.5" y="115"/><ellipse cx="649.0288" cy="131" fill="#ADD1B2" rx="11" ry="11" style="stroke:#181818;stroke-width:1;"/><path d="M651.7944,126.875 Q651.9507,126.6563 652.1382,126.5469 Q652.3257,126.4375 652.5444,126.4375 Q652.9194,126.4375 653.1538,126.7031 Q653.3882,126.9531 653.3882,127.5625 L653.3882,129.0156 Q653.3882,129.625 653.1538,129.8906 Q652.9194,130.1563 652.5444,130.1563 Q652.2007,130.1563 651.9976,129.9531 Q651.7944,129.7656 651.6851,129.25 Q651.6382,128.8906 651.4507,128.7031 Q651.1226,128.3281 650.5132,128.1094 Q649.9038,127.8906 649.2788,127.8906 Q648.5132,127.8906 647.8726,128.2188 Q647.2476,128.5469 646.7476,129.2969 Q646.2632,130.0469 646.2632,131.0781 L646.2632,132.1719 Q646.2632,133.4063 647.1538,134.2344 Q648.0444,135.0469 649.6382,135.0469 Q650.5757,135.0469 651.2319,134.7969 Q651.6226,134.6406 652.0444,134.2031 Q652.3101,133.9375 652.4507,133.8594 Q652.6069,133.7813 652.8101,133.7813 Q653.1382,133.7813 653.3882,134.0469 Q653.6538,134.2969 653.6538,134.6406 Q653.6538,134.9844 653.3101,135.3906 Q652.8101,135.9688 652.0132,136.2969 Q650.9351,136.75 649.6382,136.75 Q648.1226,136.75 646.9194,136.125 Q645.9351,135.625 645.2476,134.5625 Q644.5601,133.4844 644.5601,132.2031 L644.5601,131.0469 Q644.5601,129.7188 645.1694,128.5781 Q645.7944,127.4219 646.8882,126.8125 Q647.9819,126.1875 649.2163,126.1875 Q649.9507,126.1875 650.5913,126.3594 Q651.2476,126.5156 651.7944,126.875 Z " fill="#000000"/><text fill="#000000" font-family="sans-serif" font-size="14" lengthAdjust="spacing" textLength="242.0059" x="669.5288" y="136.7969">GeoMechanicsTimeIntegrationScheme</text><line style="stroke:#181818;stroke-width:0.5;" x1="540.5" x2="1008.0635" y1="147" y2="147"/><rect fill="none" height="6" style="stroke:#C82930;stroke-width:1;" width="6" x="547.5" y="158.8105"/><text fill="#000000" font-family="sans-serif" font-size="14" lengthAdjust="spacing" textLength="399.1436" x="559.5" y="166.1074">std::vector&lt;FirstOrderScalarVariable&gt; firstOrderScalarVariables;</text><rect fill="none" height="6" style="stroke:#C82930;stroke-width:1;" width="6" x="547.5" y="177.4316"/><text fill="#000000" font-family="sans-serif" font-size="14" lengthAdjust="spacing" textLength="443.5635" x="559.5" y="184.7285">std::vector&lt;SecondOrderVectorVariable&gt; secondOrderVectorVariables;</text><line style="stroke:#181818;stroke-width:0.5;" x1="540.5" x2="1008.0635" y1="192.2422" y2="192.2422"/><text fill="#000000" font-family="sans-serif" font-size="14" lengthAdjust="spacing" textLength="280.5127" x="545.5" y="211.3496">virtual void UpdateVariablesDerivatives() = 0;</text><text fill="#000000" font-family="sans-serif" font-size="14" lengthAdjust="spacing" textLength="182.8203" x="545.5" y="229.9707">virtual void SetTimeFactors();</text></g><!--class GeoMechanicsStaticScheme--><g class="entity" data-entity="GeoMechanicsStaticScheme" data-source-line="14" data-uid="ent0005" id="entity_GeoMechanicsStaticScheme"><rect fill="#F1F1F1" height="66.6211" rx="2.5" ry="2.5" style="stroke:#181818;stroke-width:0.5;" width="282.0059" x="164.5" y="306"/><ellipse cx="211.3774" cy="322" fill="#ADD1B2" rx="11" ry="11" style="stroke:#181818;stroke-width:1;"/><path d="M214.1431,317.875 Q214.2993,317.6563 214.4868,317.5469 Q214.6743,317.4375 214.8931,317.4375 Q215.2681,317.4375 215.5024,317.7031 Q215.7368,317.9531 215.7368,318.5625 L215.7368,320.0156 Q215.7368,320.625 215.5024,320.8906 Q215.2681,321.1563 214.8931,321.1563 Q214.5493,321.1563 214.3462,320.9531 Q214.1431,320.7656 214.0337,320.25 Q213.9868,319.8906 213.7993,319.7031 Q213.4712,319.3281 212.8618,319.1094 Q212.2524,318.8906 211.6274,318.8906 Q210.8618,318.8906 210.2212,319.2188 Q209.5962,319.5469 209.0962,320.2969 Q208.6118,321.0469 208.6118,322.0781 L208.6118,323.1719 Q208.6118,324.4063 209.5024,325.2344 Q210.3931,326.0469 211.9868,326.0469 Q212.9243,326.0469 213.5806,325.7969 Q213.9712,325.6406 214.3931,325.2031 Q214.6587,324.9375 214.7993,324.8594 Q214.9556,324.7813 215.1587,324.7813 Q215.4868,324.7813 215.7368,325.0469 Q216.0024,325.2969 216.0024,325.6406 Q216.0024,325.9844 215.6587,326.3906 Q215.1587,326.9688 214.3618,327.2969 Q213.2837,327.75 211.9868,327.75 Q210.4712,327.75 209.2681,327.125 Q208.2837,326.625 207.5962,325.5625 Q206.9087,324.4844 206.9087,323.2031 L206.9087,322.0469 Q206.9087,320.7188 207.5181,319.5781 Q208.1431,318.4219 209.2368,317.8125 Q210.3306,317.1875 211.5649,317.1875 Q212.2993,317.1875 212.9399,317.3594 Q213.5962,317.5156 214.1431,317.875 Z " fill="#000000"/><text fill="#000000" font-family="sans-serif" font-size="14" lengthAdjust="spacing" textLength="179.751" x="231.8774" y="327.7969">GeoMechanicsStaticScheme</text><line style="stroke:#181818;stroke-width:0.5;" x1="165.5" x2="445.5059" y1="338" y2="338"/><line style="stroke:#181818;stroke-width:0.5;" x1="165.5" x2="445.5059" y1="346" y2="346"/><text fill="#000000" font-family="sans-serif" font-size="14" lengthAdjust="spacing" textLength="270.0059" x="170.5" y="365.1074">void UpdateVariablesDerivatives() override;</text></g><!--class LoadSteppingScheme--><g class="entity" data-entity="LoadSteppingScheme" data-source-line="21" data-uid="ent0007" id="entity_LoadSteppingScheme"><rect fill="#F1F1F1" height="103.8633" rx="2.5" ry="2.5" style="stroke:#181818;stroke-width:0.5;" width="292.8955" x="7" y="451"/><ellipse cx="80.312" cy="467" fill="#ADD1B2" rx="11" ry="11" style="stroke:#181818;stroke-width:1;"/><path d="M83.0776,462.875 Q83.2339,462.6563 83.4214,462.5469 Q83.6089,462.4375 83.8276,462.4375 Q84.2026,462.4375 84.437,462.7031 Q84.6714,462.9531 84.6714,463.5625 L84.6714,465.0156 Q84.6714,465.625 84.437,465.8906 Q84.2026,466.1563 83.8276,466.1563 Q83.4839,466.1563 83.2808,465.9531 Q83.0776,465.7656 82.9683,465.25 Q82.9214,464.8906 82.7339,464.7031 Q82.4058,464.3281 81.7964,464.1094 Q81.187,463.8906 80.562,463.8906 Q79.7964,463.8906 79.1558,464.2188 Q78.5308,464.5469 78.0308,465.2969 Q77.5464,466.0469 77.5464,467.0781 L77.5464,468.1719 Q77.5464,469.4063 78.437,470.2344 Q79.3276,471.0469 80.9214,471.0469 Q81.8589,471.0469 82.5151,470.7969 Q82.9058,470.6406 83.3276,470.2031 Q83.5933,469.9375 83.7339,469.8594 Q83.8901,469.7813 84.0933,469.7813 Q84.4214,469.7813 84.6714,470.0469 Q84.937,470.2969 84.937,470.6406 Q84.937,470.9844 84.5933,471.3906 Q84.0933,471.9688 83.2964,472.2969 Q82.2183,472.75 80.9214,472.75 Q79.4058,472.75 78.2026,472.125 Q77.2183,471.625 76.5308,470.5625 Q75.8433,469.4844 75.8433,468.2031 L75.8433,467.0469 Q75.8433,465.7188 76.4526,464.5781 Q77.0776,463.4219 78.1714,462.8125 Q79.2651,462.1875 80.4995,462.1875 Q81.2339,462.1875 81.8745,462.3594 Q82.5308,462.5156 83.0776,462.875 Z " fill="#000000"/><text fill="#000000" font-family="sans-serif" font-size="14" lengthAdjust="spacing" textLength="137.7715" x="100.812" y="472.7969">LoadSteppingScheme</text><line style="stroke:#181818;stroke-width:0.5;" x1="8" x2="298.8955" y1="483" y2="483"/><line style="stroke:#181818;stroke-width:0.5;" x1="8" x2="298.8955" y1="491" y2="491"/><text fill="#000000" font-family="sans-serif" font-size="14" lengthAdjust="spacing" textLength="223.3369" x="13" y="510.1074">void InitializeSolutionStep() override</text><text fill="#000000" font-family="sans-serif" font-size="14" lengthAdjust="spacing" textLength="280.8955" x="13" y="528.7285">void CalculateSystemContributions() override</text><text fill="#000000" font-family="sans-serif" font-size="14" lengthAdjust="spacing" textLength="256.7783" x="13" y="547.3496">void CalculateRHSContribution() override</text></g><!--class BackwardEulerScheme--><g class="entity" data-entity="BackwardEulerScheme" data-source-line="30" data-uid="ent0009" id="entity_BackwardEulerScheme"><rect fill="#F1F1F1" height="85.2422" rx="2.5" ry="2.5" style="stroke:#181818;stroke-width:0.5;" width="282.0059" x="633.5" y="297"/><ellipse cx="697.498" cy="313" fill="#ADD1B2" rx="11" ry="11" style="stroke:#181818;stroke-width:1;"/><path d="M700.2637,308.875 Q700.4199,308.6563 700.6074,308.5469 Q700.7949,308.4375 701.0137,308.4375 Q701.3887,308.4375 701.623,308.7031 Q701.8574,308.9531 701.8574,309.5625 L701.8574,311.0156 Q701.8574,311.625 701.623,311.8906 Q701.3887,312.1563 701.0137,312.1563 Q700.6699,312.1563 700.4668,311.9531 Q700.2637,311.7656 700.1543,311.25 Q700.1074,310.8906 699.9199,310.7031 Q699.5918,310.3281 698.9824,310.1094 Q698.373,309.8906 697.748,309.8906 Q696.9824,309.8906 696.3418,310.2188 Q695.7168,310.5469 695.2168,311.2969 Q694.7324,312.0469 694.7324,313.0781 L694.7324,314.1719 Q694.7324,315.4063 695.623,316.2344 Q696.5137,317.0469 698.1074,317.0469 Q699.0449,317.0469 699.7012,316.7969 Q700.0918,316.6406 700.5137,316.2031 Q700.7793,315.9375 700.9199,315.8594 Q701.0762,315.7813 701.2793,315.7813 Q701.6074,315.7813 701.8574,316.0469 Q702.123,316.2969 702.123,316.6406 Q702.123,316.9844 701.7793,317.3906 Q701.2793,317.9688 700.4824,318.2969 Q699.4043,318.75 698.1074,318.75 Q696.5918,318.75 695.3887,318.125 Q694.4043,317.625 693.7168,316.5625 Q693.0293,315.4844 693.0293,314.2031 L693.0293,313.0469 Q693.0293,311.7188 693.6387,310.5781 Q694.2637,309.4219 695.3574,308.8125 Q696.4512,308.1875 697.6855,308.1875 Q698.4199,308.1875 699.0605,308.3594 Q699.7168,308.5156 700.2637,308.875 Z " fill="#000000"/><text fill="#000000" font-family="sans-serif" font-size="14" lengthAdjust="spacing" textLength="145.5098" x="717.998" y="318.7969">BackwardEulerScheme</text><line style="stroke:#181818;stroke-width:0.5;" x1="634.5" x2="914.5059" y1="329" y2="329"/><line style="stroke:#181818;stroke-width:0.5;" x1="634.5" x2="914.5059" y1="337" y2="337"/><text fill="#000000" font-family="sans-serif" font-size="14" lengthAdjust="spacing" textLength="270.0059" x="639.5" y="356.1074">void UpdateVariablesDerivatives() override;</text><text fill="#000000" font-family="sans-serif" font-size="14" lengthAdjust="spacing" textLength="196.0547" x="639.5" y="374.7285">void SetTimeFactors() override;</text></g><!--class BackwardEulerQuasistaticPwScheme--><g class="entity" data-entity="BackwardEulerQuasistaticPwScheme" data-source-line="35" data-uid="ent0010" id="entity_BackwardEulerQuasistaticPwScheme"><rect fill="#F1F1F1" height="48" rx="2.5" ry="2.5" style="stroke:#181818;stroke-width:0.5;" width="266.2061" x="335.5" y="479"/><ellipse cx="350.5" cy="495" fill="#ADD1B2" rx="11" ry="11" style="stroke:#181818;stroke-width:1;"/><path d="M353.2656,490.875 Q353.4219,490.6563 353.6094,490.5469 Q353.7969,490.4375 354.0156,490.4375 Q354.3906,490.4375 354.625,490.7031 Q354.8594,490.9531 354.8594,491.5625 L354.8594,493.0156 Q354.8594,493.625 354.625,493.8906 Q354.3906,494.1563 354.0156,494.1563 Q353.6719,494.1563 353.4688,493.9531 Q353.2656,493.7656 353.1563,493.25 Q353.1094,492.8906 352.9219,492.7031 Q352.5938,492.3281 351.9844,492.1094 Q351.375,491.8906 350.75,491.8906 Q349.9844,491.8906 349.3438,492.2188 Q348.7188,492.5469 348.2188,493.2969 Q347.7344,494.0469 347.7344,495.0781 L347.7344,496.1719 Q347.7344,497.4063 348.625,498.2344 Q349.5156,499.0469 351.1094,499.0469 Q352.0469,499.0469 352.7031,498.7969 Q353.0938,498.6406 353.5156,498.2031 Q353.7813,497.9375 353.9219,497.8594 Q354.0781,497.7813 354.2813,497.7813 Q354.6094,497.7813 354.8594,498.0469 Q355.125,498.2969 355.125,498.6406 Q355.125,498.9844 354.7813,499.3906 Q354.2813,499.9688 353.4844,500.2969 Q352.4063,500.75 351.1094,500.75 Q349.5938,500.75 348.3906,500.125 Q347.4063,499.625 346.7188,498.5625 Q346.0313,497.4844 346.0313,496.2031 L346.0313,495.0469 Q346.0313,493.7188 346.6406,492.5781 Q347.2656,491.4219 348.3594,490.8125 Q349.4531,490.1875 350.6875,490.1875 Q351.4219,490.1875 352.0625,490.3594 Q352.7188,490.5156 353.2656,490.875 Z " fill="#000000"/><text fill="#000000" font-family="sans-serif" font-size="14" lengthAdjust="spacing" textLength="234.2061" x="364.5" y="500.7969">BackwardEulerQuasistaticPwScheme</text><line style="stroke:#181818;stroke-width:0.5;" x1="336.5" x2="600.7061" y1="511" y2="511"/><line style="stroke:#181818;stroke-width:0.5;" x1="336.5" x2="600.7061" y1="519" y2="519"/></g><!--class BackwardEulerQuasistaticUPwScheme--><g class="entity" data-entity="BackwardEulerQuasistaticUPwScheme" data-source-line="36" data-uid="ent0011" id="entity_BackwardEulerQuasistaticUPwScheme"><rect fill="#F1F1F1" height="48" rx="2.5" ry="2.5" style="stroke:#181818;stroke-width:0.5;" width="276.3164" x="636.5" y="479"/><ellipse cx="651.5" cy="495" fill="#ADD1B2" rx="11" ry="11" style="stroke:#181818;stroke-width:1;"/><path d="M654.2656,490.875 Q654.4219,490.6563 654.6094,490.5469 Q654.7969,490.4375 655.0156,490.4375 Q655.3906,490.4375 655.625,490.7031 Q655.8594,490.9531 655.8594,491.5625 L655.8594,493.0156 Q655.8594,493.625 655.625,493.8906 Q655.3906,494.1563 655.0156,494.1563 Q654.6719,494.1563 654.4688,493.9531 Q654.2656,493.7656 654.1563,493.25 Q654.1094,492.8906 653.9219,492.7031 Q653.5938,492.3281 652.9844,492.1094 Q652.375,491.8906 651.75,491.8906 Q650.9844,491.8906 650.3438,492.2188 Q649.7188,492.5469 649.2188,493.2969 Q648.7344,494.0469 648.7344,495.0781 L648.7344,496.1719 Q648.7344,497.4063 649.625,498.2344 Q650.5156,499.0469 652.1094,499.0469 Q653.0469,499.0469 653.7031,498.7969 Q654.0938,498.6406 654.5156,498.2031 Q654.7813,497.9375 654.9219,497.8594 Q655.0781,497.7813 655.2813,497.7813 Q655.6094,497.7813 655.8594,498.0469 Q656.125,498.2969 656.125,498.6406 Q656.125,498.9844 655.7813,499.3906 Q655.2813,499.9688 654.4844,500.2969 Q653.4063,500.75 652.1094,500.75 Q650.5938,500.75 649.3906,500.125 Q648.4063,499.625 647.7188,498.5625 Q647.0313,497.4844 647.0313,496.2031 L647.0313,495.0469 Q647.0313,493.7188 647.6406,492.5781 Q648.2656,491.4219 649.3594,490.8125 Q650.4531,490.1875 651.6875,490.1875 Q652.4219,490.1875 653.0625,490.3594 Q653.7188,490.5156 654.2656,490.875 Z " fill="#000000"/><text fill="#000000" font-family="sans-serif" font-size="14" lengthAdjust="spacing" textLength="244.3164" x="665.5" y="500.7969">BackwardEulerQuasistaticUPwScheme</text><line style="stroke:#181818;stroke-width:0.5;" x1="637.5" x2="911.8164" y1="511" y2="511"/><line style="stroke:#181818;stroke-width:0.5;" x1="637.5" x2="911.8164" y1="519" y2="519"/></g><!--class BackwardEulerQuasistaticTScheme--><g class="entity" data-entity="BackwardEulerQuasistaticTScheme" data-source-line="37" data-uid="ent0012" id="entity_BackwardEulerQuasistaticTScheme"><rect fill="#F1F1F1" height="48" rx="2.5" ry="2.5" style="stroke:#181818;stroke-width:0.5;" width="255.3096" x="948" y="479"/><ellipse cx="963" cy="495" fill="#ADD1B2" rx="11" ry="11" style="stroke:#181818;stroke-width:1;"/><path d="M965.7656,490.875 Q965.9219,490.6563 966.1094,490.5469 Q966.2969,490.4375 966.5156,490.4375 Q966.8906,490.4375 967.125,490.7031 Q967.3594,490.9531 967.3594,491.5625 L967.3594,493.0156 Q967.3594,493.625 967.125,493.8906 Q966.8906,494.1563 966.5156,494.1563 Q966.1719,494.1563 965.9688,493.9531 Q965.7656,493.7656 965.6563,493.25 Q965.6094,492.8906 965.4219,492.7031 Q965.0938,492.3281 964.4844,492.1094 Q963.875,491.8906 963.25,491.8906 Q962.4844,491.8906 961.8438,492.2188 Q961.2188,492.5469 960.7188,493.2969 Q960.2344,494.0469 960.2344,495.0781 L960.2344,496.1719 Q960.2344,497.4063 961.125,498.2344 Q962.0156,499.0469 963.6094,499.0469 Q964.5469,499.0469 965.2031,498.7969 Q965.5938,498.6406 966.0156,498.2031 Q966.2813,497.9375 966.4219,497.8594 Q966.5781,497.7813 966.7813,497.7813 Q967.1094,497.7813 967.3594,498.0469 Q967.625,498.2969 967.625,498.6406 Q967.625,498.9844 967.2813,499.3906 Q966.7813,499.9688 965.9844,500.2969 Q964.9063,500.75 963.6094,500.75 Q962.0938,500.75 960.8906,500.125 Q959.9063,499.625 959.2188,498.5625 Q958.5313,497.4844 958.5313,496.2031 L958.5313,495.0469 Q958.5313,493.7188 959.1406,492.5781 Q959.7656,491.4219 960.8594,490.8125 Q961.9531,490.1875 963.1875,490.1875 Q963.9219,490.1875 964.5625,490.3594 Q965.2188,490.5156 965.7656,490.875 Z " fill="#000000"/><text fill="#000000" font-family="sans-serif" font-size="14" lengthAdjust="spacing" textLength="223.3096" x="977" y="500.7969">BackwardEulerQuasistaticTScheme</text><line style="stroke:#181818;stroke-width:0.5;" x1="949" x2="1202.3096" y1="511" y2="511"/><line style="stroke:#181818;stroke-width:0.5;" x1="949" x2="1202.3096" y1="519" y2="519"/></g><!--class GeneralizedNewmarkScheme--><g class="entity" data-entity="GeneralizedNewmarkScheme" data-source-line="44" data-uid="ent0017" id="entity_GeneralizedNewmarkScheme"><rect fill="#F1F1F1" height="66.6211" rx="2.5" ry="2.5" style="stroke:#181818;stroke-width:0.5;" width="217.9648" x="1749.5" y="306"/><ellipse cx="1764.5" cy="322" fill="#ADD1B2" rx="11" ry="11" style="stroke:#181818;stroke-width:1;"/><path d="M1767.2656,317.875 Q1767.4219,317.6563 1767.6094,317.5469 Q1767.7969,317.4375 1768.0156,317.4375 Q1768.3906,317.4375 1768.625,317.7031 Q1768.8594,317.9531 1768.8594,318.5625 L1768.8594,320.0156 Q1768.8594,320.625 1768.625,320.8906 Q1768.3906,321.1563 1768.0156,321.1563 Q1767.6719,321.1563 1767.4688,320.9531 Q1767.2656,320.7656 1767.1563,320.25 Q1767.1094,319.8906 1766.9219,319.7031 Q1766.5938,319.3281 1765.9844,319.1094 Q1765.375,318.8906 1764.75,318.8906 Q1763.9844,318.8906 1763.3438,319.2188 Q1762.7188,319.5469 1762.2188,320.2969 Q1761.7344,321.0469 1761.7344,322.0781 L1761.7344,323.1719 Q1761.7344,324.4063 1762.625,325.2344 Q1763.5156,326.0469 1765.1094,326.0469 Q1766.0469,326.0469 1766.7031,325.7969 Q1767.0938,325.6406 1767.5156,325.2031 Q1767.7813,324.9375 1767.9219,324.8594 Q1768.0781,324.7813 1768.2813,324.7813 Q1768.6094,324.7813 1768.8594,325.0469 Q1769.125,325.2969 1769.125,325.6406 Q1769.125,325.9844 1768.7813,326.3906 Q1768.2813,326.9688 1767.4844,327.2969 Q1766.4063,327.75 1765.1094,327.75 Q1763.5938,327.75 1762.3906,327.125 Q1761.4063,326.625 1760.7188,325.5625 Q1760.0313,324.4844 1760.0313,323.2031 L1760.0313,322.0469 Q1760.0313,320.7188 1760.6406,319.5781 Q1761.2656,318.4219 1762.3594,317.8125 Q1763.4531,317.1875 1764.6875,317.1875 Q1765.4219,317.1875 1766.0625,317.3594 Q1766.7188,317.5156 1767.2656,317.875 Z " fill="#000000"/><text fill="#000000" font-family="sans-serif" font-size="14" lengthAdjust="spacing" textLength="185.9648" x="1778.5" y="327.7969">GeneralizedNewmarkScheme</text><line style="stroke:#181818;stroke-width:0.5;" x1="1750.5" x2="1966.4648" y1="338" y2="338"/><line style="stroke:#181818;stroke-width:0.5;" x1="1750.5" x2="1966.4648" y1="346" y2="346"/><text fill="#000000" font-family="sans-serif" font-size="14" lengthAdjust="spacing" textLength="196.0547" x="1755.5" y="365.1074">void SetTimeFactors() override;</text></g><!--class NewmarkQuasistaticPwScheme--><g class="entity" data-entity="NewmarkQuasistaticPwScheme" data-source-line="48" data-uid="ent0018" id="entity_NewmarkQuasistaticPwScheme"><rect fill="#F1F1F1" height="66.6211" rx="2.5" ry="2.5" style="stroke:#181818;stroke-width:0.5;" width="282.0059" x="1238.5" y="469.5"/><ellipse cx="1276.3753" cy="485.5" fill="#ADD1B2" rx="11" ry="11" style="stroke:#181818;stroke-width:1;"/><path d="M1279.1409,481.375 Q1279.2972,481.1563 1279.4847,481.0469 Q1279.6722,480.9375 1279.8909,480.9375 Q1280.2659,480.9375 1280.5003,481.2031 Q1280.7347,481.4531 1280.7347,482.0625 L1280.7347,483.5156 Q1280.7347,484.125 1280.5003,484.3906 Q1280.2659,484.6563 1279.8909,484.6563 Q1279.5472,484.6563 1279.344,484.4531 Q1279.1409,484.2656 1279.0315,483.75 Q1278.9847,483.3906 1278.7972,483.2031 Q1278.469,482.8281 1277.8597,482.6094 Q1277.2503,482.3906 1276.6253,482.3906 Q1275.8597,482.3906 1275.219,482.7188 Q1274.594,483.0469 1274.094,483.7969 Q1273.6097,484.5469 1273.6097,485.5781 L1273.6097,486.6719 Q1273.6097,487.9063 1274.5003,488.7344 Q1275.3909,489.5469 1276.9847,489.5469 Q1277.9222,489.5469 1278.5784,489.2969 Q1278.969,489.1406 1279.3909,488.7031 Q1279.6565,488.4375 1279.7972,488.3594 Q1279.9534,488.2813 1280.1565,488.2813 Q1280.4847,488.2813 1280.7347,488.5469 Q1281.0003,488.7969 1281.0003,489.1406 Q1281.0003,489.4844 1280.6565,489.8906 Q1280.1565,490.4688 1279.3597,490.7969 Q1278.2815,491.25 1276.9847,491.25 Q1275.469,491.25 1274.2659,490.625 Q1273.2815,490.125 1272.594,489.0625 Q1271.9065,487.9844 1271.9065,486.7031 L1271.9065,485.5469 Q1271.9065,484.2188 1272.5159,483.0781 Q1273.1409,481.9219 1274.2347,481.3125 Q1275.3284,480.6875 1276.5628,480.6875 Q1277.2972,480.6875 1277.9378,480.8594 Q1278.594,481.0156 1279.1409,481.375 Z " fill="#000000"/><text fill="#000000" font-family="sans-serif" font-size="14" lengthAdjust="spacing" textLength="199.1719" x="1295.4587" y="491.2969">NewmarkQuasistaticPwScheme</text><line style="stroke:#181818;stroke-width:0.5;" x1="1239.5" x2="1519.5059" y1="501.5" y2="501.5"/><line style="stroke:#181818;stroke-width:0.5;" x1="1239.5" x2="1519.5059" y1="509.5" y2="509.5"/><text fill="#000000" font-family="sans-serif" font-size="14" lengthAdjust="spacing" textLength="270.0059" x="1244.5" y="528.6074">void UpdateVariablesDerivatives() override;</text></g><!--class GeneralizedNewmarkTScheme--><g class="entity" data-entity="GeneralizedNewmarkTScheme" data-source-line="52" data-uid="ent0019" id="entity_GeneralizedNewmarkTScheme"><rect fill="#F1F1F1" height="66.6211" rx="2.5" ry="2.5" style="stroke:#181818;stroke-width:0.5;" width="282.0059" x="1555.5" y="469.5"/><ellipse cx="1595.4702" cy="485.5" fill="#ADD1B2" rx="11" ry="11" style="stroke:#181818;stroke-width:1;"/><path d="M1598.2358,481.375 Q1598.392,481.1563 1598.5795,481.0469 Q1598.767,480.9375 1598.9858,480.9375 Q1599.3608,480.9375 1599.5952,481.2031 Q1599.8295,481.4531 1599.8295,482.0625 L1599.8295,483.5156 Q1599.8295,484.125 1599.5952,484.3906 Q1599.3608,484.6563 1598.9858,484.6563 Q1598.642,484.6563 1598.4389,484.4531 Q1598.2358,484.2656 1598.1264,483.75 Q1598.0795,483.3906 1597.892,483.2031 Q1597.5639,482.8281 1596.9545,482.6094 Q1596.3452,482.3906 1595.7202,482.3906 Q1594.9545,482.3906 1594.3139,482.7188 Q1593.6889,483.0469 1593.1889,483.7969 Q1592.7045,484.5469 1592.7045,485.5781 L1592.7045,486.6719 Q1592.7045,487.9063 1593.5952,488.7344 Q1594.4858,489.5469 1596.0795,489.5469 Q1597.017,489.5469 1597.6733,489.2969 Q1598.0639,489.1406 1598.4858,488.7031 Q1598.7514,488.4375 1598.892,488.3594 Q1599.0483,488.2813 1599.2514,488.2813 Q1599.5795,488.2813 1599.8295,488.5469 Q1600.0952,488.7969 1600.0952,489.1406 Q1600.0952,489.4844 1599.7514,489.8906 Q1599.2514,490.4688 1598.4545,490.7969 Q1597.3764,491.25 1596.0795,491.25 Q1594.5639,491.25 1593.3608,490.625 Q1592.3764,490.125 1591.6889,489.0625 Q1591.0014,487.9844 1591.0014,486.7031 L1591.0014,485.5469 Q1591.0014,484.2188 1591.6108,483.0781 Q1592.2358,481.9219 1593.3295,481.3125 Q1594.4233,480.6875 1595.6577,480.6875 Q1596.392,480.6875 1597.0327,480.8594 Q1597.6889,481.0156 1598.2358,481.375 Z " fill="#000000"/><text fill="#000000" font-family="sans-serif" font-size="14" lengthAdjust="spacing" textLength="194.5166" x="1615.0191" y="491.2969">GeneralizedNewmarkTScheme</text><line style="stroke:#181818;stroke-width:0.5;" x1="1556.5" x2="1836.5059" y1="501.5" y2="501.5"/><line style="stroke:#181818;stroke-width:0.5;" x1="1556.5" x2="1836.5059" y1="509.5" y2="509.5"/><text fill="#000000" font-family="sans-serif" font-size="14" lengthAdjust="spacing" textLength="270.0059" x="1561.5" y="528.6074">void UpdateVariablesDerivatives() override;</text></g><!--class NewmarkDynamicUPwScheme--><g class="entity" data-entity="NewmarkDynamicUPwScheme" data-source-line="56" data-uid="ent0020" id="entity_NewmarkDynamicUPwScheme"><rect fill="#F1F1F1" height="122.4844" rx="2.5" ry="2.5" style="stroke:#181818;stroke-width:0.5;" width="296.7852" x="1873" y="442"/><ellipse cx="1919.8979" cy="458" fill="#ADD1B2" rx="11" ry="11" style="stroke:#181818;stroke-width:1;"/><path d="M1922.6636,453.875 Q1922.8198,453.6563 1923.0073,453.5469 Q1923.1948,453.4375 1923.4136,453.4375 Q1923.7886,453.4375 1924.0229,453.7031 Q1924.2573,453.9531 1924.2573,454.5625 L1924.2573,456.0156 Q1924.2573,456.625 1924.0229,456.8906 Q1923.7886,457.1563 1923.4136,457.1563 Q1923.0698,457.1563 1922.8667,456.9531 Q1922.6636,456.7656 1922.5542,456.25 Q1922.5073,455.8906 1922.3198,455.7031 Q1921.9917,455.3281 1921.3823,455.1094 Q1920.7729,454.8906 1920.1479,454.8906 Q1919.3823,454.8906 1918.7417,455.2188 Q1918.1167,455.5469 1917.6167,456.2969 Q1917.1323,457.0469 1917.1323,458.0781 L1917.1323,459.1719 Q1917.1323,460.4063 1918.0229,461.2344 Q1918.9136,462.0469 1920.5073,462.0469 Q1921.4448,462.0469 1922.1011,461.7969 Q1922.4917,461.6406 1922.9136,461.2031 Q1923.1792,460.9375 1923.3198,460.8594 Q1923.4761,460.7813 1923.6792,460.7813 Q1924.0073,460.7813 1924.2573,461.0469 Q1924.5229,461.2969 1924.5229,461.6406 Q1924.5229,461.9844 1924.1792,462.3906 Q1923.6792,462.9688 1922.8823,463.2969 Q1921.8042,463.75 1920.5073,463.75 Q1918.9917,463.75 1917.7886,463.125 Q1916.8042,462.625 1916.1167,461.5625 Q1915.4292,460.4844 1915.4292,459.2031 L1915.4292,458.0469 Q1915.4292,456.7188 1916.0386,455.5781 Q1916.6636,454.4219 1917.7573,453.8125 Q1918.8511,453.1875 1920.0854,453.1875 Q1920.8198,453.1875 1921.4604,453.3594 Q1922.1167,453.5156 1922.6636,453.875 Z " fill="#000000"/><text fill="#000000" font-family="sans-serif" font-size="14" lengthAdjust="spacing" textLength="194.4893" x="1940.3979" y="463.7969">NewmarkDynamicUPwScheme</text><line style="stroke:#181818;stroke-width:0.5;" x1="1874" x2="2168.7852" y1="474" y2="474"/><line style="stroke:#181818;stroke-width:0.5;" x1="1874" x2="2168.7852" y1="482" y2="482"/><text fill="#000000" font-family="sans-serif" font-size="14" lengthAdjust="spacing" textLength="270.0059" x="1879" y="501.1074">void UpdateVariablesDerivatives() override;</text><text fill="#000000" font-family="sans-serif" font-size="14" lengthAdjust="spacing" textLength="284.7852" x="1879" y="519.7285">void CalculateSystemContributions() override;</text><text fill="#000000" font-family="sans-serif" font-size="14" lengthAdjust="spacing" textLength="258.3438" x="1879" y="538.3496">void CalculateLHSContribution() override;</text><text fill="#000000" font-family="sans-serif" font-size="14" lengthAdjust="spacing" textLength="260.668" x="1879" y="556.9707">void CalculateRHSContribution() override;</text></g><!--class NewmarkQuasistaticDampedUPwScheme--><g class="entity" data-entity="NewmarkQuasistaticDampedUPwScheme" data-source-line="63" data-uid="ent0021" id="entity_NewmarkQuasistaticDampedUPwScheme"><rect fill="#F1F1F1" height="122.4844" rx="2.5" ry="2.5" style="stroke:#181818;stroke-width:0.5;" width="296.7852" x="2205" y="442"/><ellipse cx="2221.1637" cy="458" fill="#ADD1B2" rx="11" ry="11" style="stroke:#181818;stroke-width:1;"/><path d="M2223.9293,453.875 Q2224.0855,453.6563 2224.273,453.5469 Q2224.4605,453.4375 2224.6793,453.4375 Q2225.0543,453.4375 2225.2887,453.7031 Q2225.523,453.9531 2225.523,454.5625 L2225.523,456.0156 Q2225.523,456.625 2225.2887,456.8906 Q2225.0543,457.1563 2224.6793,457.1563 Q2224.3355,457.1563 2224.1324,456.9531 Q2223.9293,456.7656 2223.8199,456.25 Q2223.773,455.8906 2223.5855,455.7031 Q2223.2574,455.3281 2222.648,455.1094 Q2222.0387,454.8906 2221.4137,454.8906 Q2220.648,454.8906 2220.0074,455.2188 Q2219.3824,455.5469 2218.8824,456.2969 Q2218.398,457.0469 2218.398,458.0781 L2218.398,459.1719 Q2218.398,460.4063 2219.2887,461.2344 Q2220.1793,462.0469 2221.773,462.0469 Q2222.7105,462.0469 2223.3668,461.7969 Q2223.7574,461.6406 2224.1793,461.2031 Q2224.4449,460.9375 2224.5855,460.8594 Q2224.7418,460.7813 2224.9449,460.7813 Q2225.273,460.7813 2225.523,461.0469 Q2225.7887,461.2969 2225.7887,461.6406 Q2225.7887,461.9844 2225.4449,462.3906 Q2224.9449,462.9688 2224.148,463.2969 Q2223.0699,463.75 2221.773,463.75 Q2220.2574,463.75 2219.0543,463.125 Q2218.0699,462.625 2217.3824,461.5625 Q2216.6949,460.4844 2216.6949,459.2031 L2216.6949,458.0469 Q2216.6949,456.7188 2217.3043,455.5781 Q2217.9293,454.4219 2219.023,453.8125 Q2220.1168,453.1875 2221.3512,453.1875 Q2222.0855,453.1875 2222.7262,453.3594 Q2223.3824,453.5156 2223.9293,453.875 Z " fill="#000000"/><text fill="#000000" font-family="sans-serif" font-size="14" lengthAdjust="spacing" textLength="262.1992" x="2235.4223" y="463.7969">NewmarkQuasistaticDampedUPwScheme</text><line style="stroke:#181818;stroke-width:0.5;" x1="2206" x2="2500.7852" y1="474" y2="474"/><line style="stroke:#181818;stroke-width:0.5;" x1="2206" x2="2500.7852" y1="482" y2="482"/><text fill="#000000" font-family="sans-serif" font-size="14" lengthAdjust="spacing" textLength="270.0059" x="2211" y="501.1074">void UpdateVariablesDerivatives() override;</text><text fill="#000000" font-family="sans-serif" font-size="14" lengthAdjust="spacing" textLength="284.7852" x="2211" y="519.7285">void CalculateSystemContributions() override;</text><text fill="#000000" font-family="sans-serif" font-size="14" lengthAdjust="spacing" textLength="258.3438" x="2211" y="538.3496">void CalculateLHSContribution() override;</text><text fill="#000000" font-family="sans-serif" font-size="14" lengthAdjust="spacing" textLength="260.668" x="2211" y="556.9707">void CalculateRHSContribution() override;</text></g><!--class NewmarkQuasistaticUPwScheme--><g class="entity" data-entity="NewmarkQuasistaticUPwScheme" data-source-line="70" data-uid="ent0022" id="entity_NewmarkQuasistaticUPwScheme"><rect fill="#F1F1F1" height="66.6211" rx="2.5" ry="2.5" style="stroke:#181818;stroke-width:0.5;" width="282.0059" x="2537.5" y="469.5"/><ellipse cx="2570.8256" cy="485.5" fill="#ADD1B2" rx="11" ry="11" style="stroke:#181818;stroke-width:1;"/><path d="M2573.5913,481.375 Q2573.7475,481.1563 2573.935,481.0469 Q2574.1225,480.9375 2574.3413,480.9375 Q2574.7163,480.9375 2574.9506,481.2031 Q2575.185,481.4531 2575.185,482.0625 L2575.185,483.5156 Q2575.185,484.125 2574.9506,484.3906 Q2574.7163,484.6563 2574.3413,484.6563 Q2573.9975,484.6563 2573.7944,484.4531 Q2573.5913,484.2656 2573.4819,483.75 Q2573.435,483.3906 2573.2475,483.2031 Q2572.9194,482.8281 2572.31,482.6094 Q2571.7006,482.3906 2571.0756,482.3906 Q2570.31,482.3906 2569.6694,482.7188 Q2569.0444,483.0469 2568.5444,483.7969 Q2568.06,484.5469 2568.06,485.5781 L2568.06,486.6719 Q2568.06,487.9063 2568.9506,488.7344 Q2569.8413,489.5469 2571.435,489.5469 Q2572.3725,489.5469 2573.0288,489.2969 Q2573.4194,489.1406 2573.8413,488.7031 Q2574.1069,488.4375 2574.2475,488.3594 Q2574.4038,488.2813 2574.6069,488.2813 Q2574.935,488.2813 2575.185,488.5469 Q2575.4506,488.7969 2575.4506,489.1406 Q2575.4506,489.4844 2575.1069,489.8906 Q2574.6069,490.4688 2573.81,490.7969 Q2572.7319,491.25 2571.435,491.25 Q2569.9194,491.25 2568.7163,490.625 Q2567.7319,490.125 2567.0444,489.0625 Q2566.3569,487.9844 2566.3569,486.7031 L2566.3569,485.5469 Q2566.3569,484.2188 2566.9663,483.0781 Q2567.5913,481.9219 2568.685,481.3125 Q2569.7788,480.6875 2571.0131,480.6875 Q2571.7475,480.6875 2572.3881,480.8594 Q2573.0444,481.0156 2573.5913,481.375 Z " fill="#000000"/><text fill="#000000" font-family="sans-serif" font-size="14" lengthAdjust="spacing" textLength="209.2822" x="2588.898" y="491.2969">NewmarkQuasistaticUPwScheme</text><line style="stroke:#181818;stroke-width:0.5;" x1="2538.5" x2="2818.5059" y1="501.5" y2="501.5"/><line style="stroke:#181818;stroke-width:0.5;" x1="2538.5" x2="2818.5059" y1="509.5" y2="509.5"/><text fill="#000000" font-family="sans-serif" font-size="14" lengthAdjust="spacing" textLength="270.0059" x="2543.5" y="528.6074">void UpdateVariablesDerivatives() override;</text></g><!--reverse link Scheme to GeoMechanicsTimeIntegrationScheme--><g class="link" data-entity-1="Scheme" data-entity-2="GeoMechanicsTimeIntegrationScheme" data-source-line="12" data-uid="lnk4" id="link_Scheme_GeoMechanicsTimeIntegrationScheme"><path codeLine="12" d="M774.5,73.29 C774.5,89.52 774.5,93.94 774.5,115" fill="none" id="Scheme-backto-GeoMechanicsTimeIntegrationScheme" style="stroke:#181818;stroke-width:1;"/><polygon fill="none" points="774.5,55.29,768.5,73.29,780.5,73.29,774.5,55.29" style="stroke:#181818;stroke-width:1;"/></g><!--reverse link GeoMechanicsTimeIntegrationScheme to GeoMechanicsStaticScheme--><g class="link" data-entity-1="GeoMechanicsTimeIntegrationScheme" data-entity-2="GeoMechanicsStaticScheme" data-source-line="19" data-uid="lnk6" id="link_GeoMechanicsTimeIntegrationScheme_GeoMechanicsStaticScheme"><path codeLine="19" d="M583.1808,242.8806 C515.4308,266.2106 457.51,286.15 400.16,305.9" fill="none" id="GeoMechanicsTimeIntegrationScheme-backto-GeoMechanicsStaticScheme" style="stroke:#181818;stroke-width:1;"/><polygon fill="none" points="600.2,237.02,581.2273,237.2076,585.1343,248.5537,600.2,237.02" style="stroke:#181818;stroke-width:1;"/></g><!--reverse link GeoMechanicsStaticScheme to LoadSteppingScheme--><g class="link" data-entity-1="GeoMechanicsStaticScheme" data-entity-2="LoadSteppingScheme" data-source-line="28" data-uid="lnk8" id="link_GeoMechanicsStaticScheme_LoadSteppingScheme"><path codeLine="28" d="M262.4058,386.2898 C241.4158,408.5998 225.51,425.49 201.57,450.92" fill="none" id="GeoMechanicsStaticScheme-backto-LoadSteppingScheme" style="stroke:#181818;stroke-width:1;"/><polygon fill="none" points="274.74,373.18,258.0359,382.1784,266.7758,390.4012,274.74,373.18" style="stroke:#181818;stroke-width:1;"/></g><!--reverse link GeoMechanicsTimeIntegrationScheme to BackwardEulerScheme--><g class="link" data-entity-1="GeoMechanicsTimeIntegrationScheme" data-entity-2="BackwardEulerScheme" data-source-line="39" data-uid="lnk13" id="link_GeoMechanicsTimeIntegrationScheme_BackwardEulerScheme"><path codeLine="39" d="M774.5,255.14 C774.5,275.05 774.5,278.75 774.5,296.94" fill="none" id="GeoMechanicsTimeIntegrationScheme-backto-BackwardEulerScheme" style="stroke:#181818;stroke-width:1;"/><polygon fill="none" points="774.5,237.14,768.5,255.14,780.5,255.14,774.5,237.14" style="stroke:#181818;stroke-width:1;"/></g><!--reverse link BackwardEulerScheme to BackwardEulerQuasistaticPwScheme--><g class="link" data-entity-1="BackwardEulerScheme" data-entity-2="BackwardEulerQuasistaticPwScheme" data-source-line="40" data-uid="lnk14" id="link_BackwardEulerScheme_BackwardEulerQuasistaticPwScheme"><path codeLine="40" d="M679.7813,390.492 C621.5213,421.242 560.24,453.58 512.5,478.78" fill="none" id="BackwardEulerScheme-backto-BackwardEulerQuasistaticPwScheme" style="stroke:#181818;stroke-width:1;"/><polygon fill="none" points="695.7,382.09,676.9806,385.1858,682.5819,395.7983,695.7,382.09" style="stroke:#181818;stroke-width:1;"/></g><!--reverse link BackwardEulerScheme to BackwardEulerQuasistaticUPwScheme--><g class="link" data-entity-1="BackwardEulerScheme" data-entity-2="BackwardEulerQuasistaticUPwScheme" data-source-line="41" data-uid="lnk15" id="link_BackwardEulerScheme_BackwardEulerQuasistaticUPwScheme"><path codeLine="41" d="M774.5,400.09 C774.5,430.75 774.5,453.33 774.5,478.55" fill="none" id="BackwardEulerScheme-backto-BackwardEulerQuasistaticUPwScheme" style="stroke:#181818;stroke-width:1;"/><polygon fill="none" points="774.5,382.09,768.5,400.09,780.5,400.09,774.5,382.09" style="stroke:#181818;stroke-width:1;"/></g><!--reverse link BackwardEulerScheme to BackwardEulerQuasistaticTScheme--><g class="link" data-entity-1="BackwardEulerScheme" data-entity-2="BackwardEulerQuasistaticTScheme" data-source-line="42" data-uid="lnk16" id="link_BackwardEulerScheme_BackwardEulerQuasistaticTScheme"><path codeLine="42" d="M867.8711,390.6004 C925.1811,421.3504 985.26,453.58 1032.22,478.78" fill="none" id="BackwardEulerScheme-backto-BackwardEulerQuasistaticTScheme" style="stroke:#181818;stroke-width:1;"/><polygon fill="none" points="852.01,382.09,865.0343,395.8874,870.7079,385.3133,852.01,382.09" style="stroke:#181818;stroke-width:1;"/></g><!--reverse link GeoMechanicsTimeIntegrationScheme to GeneralizedNewmarkScheme--><g class="link" data-entity-1="GeoMechanicsTimeIntegrationScheme" data-entity-2="GeneralizedNewmarkScheme" data-source-line="75" data-uid="lnk23" id="link_GeoMechanicsTimeIntegrationScheme_GeneralizedNewmarkScheme"><path codeLine="75" d="M1027.5135,214.6925 C1256.6635,248.8325 1577.09,296.57 1749.22,322.22" fill="none" id="GeoMechanicsTimeIntegrationScheme-backto-GeneralizedNewmarkScheme" style="stroke:#181818;stroke-width:1;"/><polygon fill="none" points="1009.71,212.04,1026.6293,220.627,1028.3976,208.758,1009.71,212.04" style="stroke:#181818;stroke-width:1;"/></g><!--reverse link GeneralizedNewmarkScheme to NewmarkQuasistaticPwScheme--><g class="link" data-entity-1="GeneralizedNewmarkScheme" data-entity-2="NewmarkQuasistaticPwScheme" data-source-line="76" data-uid="lnk24" id="link_GeneralizedNewmarkScheme_NewmarkQuasistaticPwScheme"><path codeLine="76" d="M1733.0648,378.3399 C1670.5848,397.5499 1607.89,417.53 1537.5,442 C1513.11,450.48 1486.82,460.22 1462.82,469.35" fill="none" id="GeneralizedNewmarkScheme-backto-NewmarkQuasistaticPwScheme" style="stroke:#181818;stroke-width:1;"/><polygon fill="none" points="1750.27,373.05,1731.3016,372.6048,1734.8281,384.0749,1750.27,373.05" style="stroke:#181818;stroke-width:1;"/></g><!--reverse link GeneralizedNewmarkScheme to GeneralizedNewmarkTScheme--><g class="link" data-entity-1="GeneralizedNewmarkScheme" data-entity-2="GeneralizedNewmarkTScheme" data-source-line="77" data-uid="lnk25" id="link_GeneralizedNewmarkScheme_GeneralizedNewmarkTScheme"><path codeLine="77" d="M1812.9717,385.8875 C1784.8617,413.9075 1757.33,441.36 1729.23,469.37" fill="none" id="GeneralizedNewmarkScheme-backto-GeneralizedNewmarkTScheme" style="stroke:#181818;stroke-width:1;"/><polygon fill="none" points="1825.72,373.18,1808.7359,381.6381,1817.2075,390.1369,1825.72,373.18" style="stroke:#181818;stroke-width:1;"/></g><!--reverse link GeneralizedNewmarkScheme to NewmarkDynamicUPwScheme--><g class="link" data-entity-1="GeneralizedNewmarkScheme" data-entity-2="NewmarkDynamicUPwScheme" data-source-line="78" data-uid="lnk26" id="link_GeneralizedNewmarkScheme_NewmarkDynamicUPwScheme"><path codeLine="78" d="M1904.2724,385.8532 C1924.1724,405.5832 1937.37,418.65 1960.87,441.93" fill="none" id="GeneralizedNewmarkScheme-backto-NewmarkDynamicUPwScheme" style="stroke:#181818;stroke-width:1;"/><polygon fill="none" points="1891.49,373.18,1900.048,390.114,1908.4968,381.5924,1891.49,373.18" style="stroke:#181818;stroke-width:1;"/></g><!--reverse link GeneralizedNewmarkScheme to NewmarkQuasistaticDampedUPwScheme--><g class="link" data-entity-1="GeneralizedNewmarkScheme" data-entity-2="NewmarkQuasistaticDampedUPwScheme" data-source-line="79" data-uid="lnk27" id="link_GeneralizedNewmarkScheme_NewmarkQuasistaticDampedUPwScheme"><path codeLine="79" d="M1985.0661,377.998 C2049.2861,397.328 2114.66,417.62 2187.5,442 C2193.17,443.9 2198.93,445.85 2204.75,447.85" fill="none" id="GeneralizedNewmarkScheme-backto-NewmarkQuasistaticDampedUPwScheme" style="stroke:#181818;stroke-width:1;"/><polygon fill="none" points="1967.83,372.81,1983.3368,383.7434,1986.7955,372.2526,1967.83,372.81" style="stroke:#181818;stroke-width:1;"/></g><!--reverse link GeneralizedNewmarkScheme to NewmarkQuasistaticUPwScheme--><g class="link" data-entity-1="GeneralizedNewmarkScheme" data-entity-2="NewmarkQuasistaticUPwScheme" data-source-line="80" data-uid="lnk28" id="link_GeneralizedNewmarkScheme_NewmarkQuasistaticUPwScheme"><path codeLine="80" d="M1985.4387,352.021 C2117.6487,365.391 2328.59,391.91 2519.5,442 C2546.9,449.19 2576.11,459.42 2601.91,469.41" fill="none" id="GeneralizedNewmarkScheme-backto-NewmarkQuasistaticUPwScheme" style="stroke:#181818;stroke-width:1;"/><polygon fill="none" points="1967.53,350.21,1984.835,357.9906,1986.0423,346.0515,1967.53,350.21" style="stroke:#181818;stroke-width:1;"/></g><!--SRC=[vLJBKkCm4BpxAtJRvP3DdXFO0mGMge1zAE4-aGQYGW-ND7OA5luTnp74YUNW9CVDpLBtJFTeEbzcH6aOzFkf1akPqT-4CtsX8OIULF3WmIG9J0Dv4CJASyR530qcou-Vw6vGpC0g4SRAu9KbB5YadArm_n9M_7eia1mCSXJa_F65ye5-UOcU2z3Wxy0hc6hymUvRRi8mKeQZS5QMwBloP5Kdj5qLXSfAkVAKWMQvKv9DKWc47v0HUfKN7d8CNu_O2Vi-R58uqiBl1IoA5x1Xyfei7RFZbrwlms0Y4-HK0CJQu3xNvtBqNabSA4W-RTjKjzQq4dNjG7B2D5NseIddoYfIeDKpSgUpidQ1hKbPGSz0YqmNulbJ83Hdpf9Nqv8JjXF-Nl8wkWxUy5atiBGNaLyPEmNnE0SlppEzMB4z1_s1tzo2jSU8TFoJGL2XrFjxlXQaDjYa8sxyxhFZ1iG64JcBW6CUTcPEzgUED_DZqPVBA6znRi0_Df-rmpDLt9YvVOBOfcrySCsgqEZ9WgdFyO0jxXZI6EEwDQN3dJAzxI56O5AK_uFJoK4xr_tFloKnRHTBsfQ4R2Usfw1JmyQcxofpStzsvQ-ORm00]--></g></svg>