<svg xmlns="http://www.w3.org/2000/svg" xmlns:xlink="http://www.w3.org/1999/xlink" contentStyleType="text/css" data-diagram-type="CLASS" height="571px" preserveAspectRatio="none" style="width:2498px;height:571px;background:#FFFFFF;" version="1.1" viewBox="0 0 2498 571" width="2498px" zoomAndPan="magnify"><defs/><g><!--class Scheme--><g class="entity" data-entity="Scheme" data-source-line="3" data-uid="ent0002" id="entity_Scheme"><rect fill="#F1F1F1" height="48" rx="2.5" ry="2.5" style="stroke:#181818;stroke-width:0.5;" width="83.3584" x="554.5" y="7"/><ellipse cx="569.5" cy="23" fill="#A9DCDF" rx="11" ry="11" style="stroke:#181818;stroke-width:1;"/><path d="M571.6875,24.7656 L567.5469,24.7656 L567.125,25.7969 L567.5469,25.7969 Q568.1563,25.7969 568.4219,26.0313 Q568.6875,26.2656 568.6875,26.6563 Q568.6875,27.0313 568.4219,27.2656 Q568.1563,27.5 567.5469,27.5 L565.25,27.5 Q564.6406,27.5 564.3906,27.2656 Q564.125,27.0313 564.125,26.6406 Q564.125,26.2656 564.4063,26.0313 Q564.6719,25.7813 565.2969,25.7969 L567.9688,19.1406 L566.8594,19.1406 Q566.25,19.1406 565.9844,18.9063 Q565.7188,18.6719 565.7188,18.2813 Q565.7188,17.9063 565.9844,17.6719 Q566.25,17.4375 566.8594,17.4375 L570.5313,17.4375 L573.9219,25.7969 Q574.5156,25.7969 574.7031,25.9375 Q575.0938,26.2031 575.0938,26.6563 Q575.0938,27.0313 574.8281,27.2656 Q574.5781,27.5 573.9688,27.5 L571.6719,27.5 Q571.0625,27.5 570.7969,27.2656 Q570.5313,27.0313 570.5313,26.6406 Q570.5313,26.2656 570.7969,26.0313 Q571.0625,25.7969 571.6719,25.7969 L572.0938,25.7969 L571.6875,24.7656 Z M570.9688,23.0625 L569.6094,19.6875 L568.2344,23.0625 L570.9688,23.0625 Z " fill="#000000"/><text fill="#000000" font-family="sans-serif" font-size="14" font-style="italic" lengthAdjust="spacing" textLength="51.3584" x="583.5" y="28.7969">Scheme</text><line style="stroke:#181818;stroke-width:0.5;" x1="555.5" x2="636.8584" y1="39" y2="39"/><line style="stroke:#181818;stroke-width:0.5;" x1="555.5" x2="636.8584" y1="47" y2="47"/></g><!--class GeoMechanicsTimeIntegrationScheme--><g class="entity" data-entity="GeoMechanicsTimeIntegrationScheme" data-source-line="4" data-uid="ent0003" id="entity_GeoMechanicsTimeIntegrationScheme"><rect fill="#F1F1F1" height="122.4844" rx="2.5" ry="2.5" style="stroke:#181818;stroke-width:0.5;" width="469.5635" x="361" y="115"/><ellipse cx="470.5288" cy="131" fill="#ADD1B2" rx="11" ry="11" style="stroke:#181818;stroke-width:1;"/><path d="M473.2944,126.875 Q473.4507,126.6563 473.6382,126.5469 Q473.8257,126.4375 474.0444,126.4375 Q474.4194,126.4375 474.6538,126.7031 Q474.8882,126.9531 474.8882,127.5625 L474.8882,129.0156 Q474.8882,129.625 474.6538,129.8906 Q474.4194,130.1563 474.0444,130.1563 Q473.7007,130.1563 473.4976,129.9531 Q473.2944,129.7656 473.1851,129.25 Q473.1382,128.8906 472.9507,128.7031 Q472.6226,128.3281 472.0132,128.1094 Q471.4038,127.8906 470.7788,127.8906 Q470.0132,127.8906 469.3726,128.2188 Q468.7476,128.5469 468.2476,129.2969 Q467.7632,130.0469 467.7632,131.0781 L467.7632,132.1719 Q467.7632,133.4063 468.6538,134.2344 Q469.5444,135.0469 471.1382,135.0469 Q472.0757,135.0469 472.7319,134.7969 Q473.1226,134.6406 473.5444,134.2031 Q473.8101,133.9375 473.9507,133.8594 Q474.1069,133.7813 474.3101,133.7813 Q474.6382,133.7813 474.8882,134.0469 Q475.1538,134.2969 475.1538,134.6406 Q475.1538,134.9844 474.8101,135.3906 Q474.3101,135.9688 473.5132,136.2969 Q472.4351,136.75 471.1382,136.75 Q469.6226,136.75 468.4194,136.125 Q467.4351,135.625 466.7476,134.5625 Q466.0601,133.4844 466.0601,132.2031 L466.0601,131.0469 Q466.0601,129.7188 466.6694,128.5781 Q467.2944,127.4219 468.3882,126.8125 Q469.4819,126.1875 470.7163,126.1875 Q471.4507,126.1875 472.0913,126.3594 Q472.7476,126.5156 473.2944,126.875 Z " fill="#000000"/><text fill="#000000" font-family="sans-serif" font-size="14" lengthAdjust="spacing" textLength="242.0059" x="491.0288" y="136.7969">GeoMechanicsTimeIntegrationScheme</text><line style="stroke:#181818;stroke-width:0.5;" x1="362" x2="829.5635" y1="147" y2="147"/><rect fill="none" height="6" style="stroke:#C82930;stroke-width:1;" width="6" x="369" y="158.8105"/><text fill="#000000" font-family="sans-serif" font-size="14" lengthAdjust="spacing" textLength="399.1436" x="381" y="166.1074">std::vector&lt;FirstOrderScalarVariable&gt; firstOrderScalarVariables;</text><rect fill="none" height="6" style="stroke:#C82930;stroke-width:1;" width="6" x="369" y="177.4316"/><text fill="#000000" font-family="sans-serif" font-size="14" lengthAdjust="spacing" textLength="443.5635" x="381" y="184.7285">std::vector&lt;SecondOrderVectorVariable&gt; secondOrderVectorVariables;</text><line style="stroke:#181818;stroke-width:0.5;" x1="362" x2="829.5635" y1="192.2422" y2="192.2422"/><text fill="#000000" font-family="sans-serif" font-size="14" lengthAdjust="spacing" textLength="280.5127" x="367" y="211.3496">virtual void UpdateVariablesDerivatives() = 0;</text><text fill="#000000" font-family="sans-serif" font-size="14" lengthAdjust="spacing" textLength="182.8203" x="367" y="229.9707">virtual void SetTimeFactors();</text></g><!--class GeoMechanicsStaticScheme--><g class="entity" data-entity="GeoMechanicsStaticScheme" data-source-line="14" data-uid="ent0005" id="entity_GeoMechanicsStaticScheme"><rect fill="#F1F1F1" height="66.6211" rx="2.5" ry="2.5" style="stroke:#181818;stroke-width:0.5;" width="282.0059" x="138" y="306"/><ellipse cx="184.8774" cy="322" fill="#ADD1B2" rx="11" ry="11" style="stroke:#181818;stroke-width:1;"/><path d="M187.6431,317.875 Q187.7993,317.6563 187.9868,317.5469 Q188.1743,317.4375 188.3931,317.4375 Q188.7681,317.4375 189.0024,317.7031 Q189.2368,317.9531 189.2368,318.5625 L189.2368,320.0156 Q189.2368,320.625 189.0024,320.8906 Q188.7681,321.1563 188.3931,321.1563 Q188.0493,321.1563 187.8462,320.9531 Q187.6431,320.7656 187.5337,320.25 Q187.4868,319.8906 187.2993,319.7031 Q186.9712,319.3281 186.3618,319.1094 Q185.7524,318.8906 185.1274,318.8906 Q184.3618,318.8906 183.7212,319.2188 Q183.0962,319.5469 182.5962,320.2969 Q182.1118,321.0469 182.1118,322.0781 L182.1118,323.1719 Q182.1118,324.4063 183.0024,325.2344 Q183.8931,326.0469 185.4868,326.0469 Q186.4243,326.0469 187.0806,325.7969 Q187.4712,325.6406 187.8931,325.2031 Q188.1587,324.9375 188.2993,324.8594 Q188.4556,324.7813 188.6587,324.7813 Q188.9868,324.7813 189.2368,325.0469 Q189.5024,325.2969 189.5024,325.6406 Q189.5024,325.9844 189.1587,326.3906 Q188.6587,326.9688 187.8618,327.2969 Q186.7837,327.75 185.4868,327.75 Q183.9712,327.75 182.7681,327.125 Q181.7837,326.625 181.0962,325.5625 Q180.4087,324.4844 180.4087,323.2031 L180.4087,322.0469 Q180.4087,320.7188 181.0181,319.5781 Q181.6431,318.4219 182.7368,317.8125 Q183.8306,317.1875 185.0649,317.1875 Q185.7993,317.1875 186.4399,317.3594 Q187.0962,317.5156 187.6431,317.875 Z " fill="#000000"/><text fill="#000000" font-family="sans-serif" font-size="14" lengthAdjust="spacing" textLength="179.751" x="205.3774" y="327.7969">GeoMechanicsStaticScheme</text><line style="stroke:#181818;stroke-width:0.5;" x1="139" x2="419.0059" y1="338" y2="338"/><line style="stroke:#181818;stroke-width:0.5;" x1="139" x2="419.0059" y1="346" y2="346"/><text fill="#000000" font-family="sans-serif" font-size="14" lengthAdjust="spacing" textLength="270.0059" x="144" y="365.1074">void UpdateVariablesDerivatives() override;</text></g><!--class BackwardEulerScheme--><g class="entity" data-entity="BackwardEulerScheme" data-source-line="20" data-uid="ent0007" id="entity_BackwardEulerScheme"><rect fill="#F1F1F1" height="85.2422" rx="2.5" ry="2.5" style="stroke:#181818;stroke-width:0.5;" width="282.0059" x="455" y="297"/><ellipse cx="518.998" cy="313" fill="#ADD1B2" rx="11" ry="11" style="stroke:#181818;stroke-width:1;"/><path d="M521.7637,308.875 Q521.9199,308.6563 522.1074,308.5469 Q522.2949,308.4375 522.5137,308.4375 Q522.8887,308.4375 523.123,308.7031 Q523.3574,308.9531 523.3574,309.5625 L523.3574,311.0156 Q523.3574,311.625 523.123,311.8906 Q522.8887,312.1563 522.5137,312.1563 Q522.1699,312.1563 521.9668,311.9531 Q521.7637,311.7656 521.6543,311.25 Q521.6074,310.8906 521.4199,310.7031 Q521.0918,310.3281 520.4824,310.1094 Q519.873,309.8906 519.248,309.8906 Q518.4824,309.8906 517.8418,310.2188 Q517.2168,310.5469 516.7168,311.2969 Q516.2324,312.0469 516.2324,313.0781 L516.2324,314.1719 Q516.2324,315.4063 517.123,316.2344 Q518.0137,317.0469 519.6074,317.0469 Q520.5449,317.0469 521.2012,316.7969 Q521.5918,316.6406 522.0137,316.2031 Q522.2793,315.9375 522.4199,315.8594 Q522.5762,315.7813 522.7793,315.7813 Q523.1074,315.7813 523.3574,316.0469 Q523.623,316.2969 523.623,316.6406 Q523.623,316.9844 523.2793,317.3906 Q522.7793,317.9688 521.9824,318.2969 Q520.9043,318.75 519.6074,318.75 Q518.0918,318.75 516.8887,318.125 Q515.9043,317.625 515.2168,316.5625 Q514.5293,315.4844 514.5293,314.2031 L514.5293,313.0469 Q514.5293,311.7188 515.1387,310.5781 Q515.7637,309.4219 516.8574,308.8125 Q517.9512,308.1875 519.1855,308.1875 Q519.9199,308.1875 520.5605,308.3594 Q521.2168,308.5156 521.7637,308.875 Z " fill="#000000"/><text fill="#000000" font-family="sans-serif" font-size="14" lengthAdjust="spacing" textLength="145.5098" x="539.498" y="318.7969">BackwardEulerScheme</text><line style="stroke:#181818;stroke-width:0.5;" x1="456" x2="736.0059" y1="329" y2="329"/><line style="stroke:#181818;stroke-width:0.5;" x1="456" x2="736.0059" y1="337" y2="337"/><text fill="#000000" font-family="sans-serif" font-size="14" lengthAdjust="spacing" textLength="270.0059" x="461" y="356.1074">void UpdateVariablesDerivatives() override;</text><text fill="#000000" font-family="sans-serif" font-size="14" lengthAdjust="spacing" textLength="196.0547" x="461" y="374.7285">void SetTimeFactors() override;</text></g><!--class BackwardEulerQuasistaticPwScheme--><g class="entity" data-entity="BackwardEulerQuasistaticPwScheme" data-source-line="25" data-uid="ent0008" id="entity_BackwardEulerQuasistaticPwScheme"><rect fill="#F1F1F1" height="48" rx="2.5" ry="2.5" style="stroke:#181818;stroke-width:0.5;" width="266.2061" x="7" y="479"/><ellipse cx="22" cy="495" fill="#ADD1B2" rx="11" ry="11" style="stroke:#181818;stroke-width:1;"/><path d="M24.7656,490.875 Q24.9219,490.6563 25.1094,490.5469 Q25.2969,490.4375 25.5156,490.4375 Q25.8906,490.4375 26.125,490.7031 Q26.3594,490.9531 26.3594,491.5625 L26.3594,493.0156 Q26.3594,493.625 26.125,493.8906 Q25.8906,494.1563 25.5156,494.1563 Q25.1719,494.1563 24.9688,493.9531 Q24.7656,493.7656 24.6563,493.25 Q24.6094,492.8906 24.4219,492.7031 Q24.0938,492.3281 23.4844,492.1094 Q22.875,491.8906 22.25,491.8906 Q21.4844,491.8906 20.8438,492.2188 Q20.2188,492.5469 19.7188,493.2969 Q19.2344,494.0469 19.2344,495.0781 L19.2344,496.1719 Q19.2344,497.4063 20.125,498.2344 Q21.0156,499.0469 22.6094,499.0469 Q23.5469,499.0469 24.2031,498.7969 Q24.5938,498.6406 25.0156,498.2031 Q25.2813,497.9375 25.4219,497.8594 Q25.5781,497.7813 25.7813,497.7813 Q26.1094,497.7813 26.3594,498.0469 Q26.625,498.2969 26.625,498.6406 Q26.625,498.9844 26.2813,499.3906 Q25.7813,499.9688 24.9844,500.2969 Q23.9063,500.75 22.6094,500.75 Q21.0938,500.75 19.8906,500.125 Q18.9063,499.625 18.2188,498.5625 Q17.5313,497.4844 17.5313,496.2031 L17.5313,495.0469 Q17.5313,493.7188 18.1406,492.5781 Q18.7656,491.4219 19.8594,490.8125 Q20.9531,490.1875 22.1875,490.1875 Q22.9219,490.1875 23.5625,490.3594 Q24.2188,490.5156 24.7656,490.875 Z " fill="#000000"/><text fill="#000000" font-family="sans-serif" font-size="14" lengthAdjust="spacing" textLength="234.2061" x="36" y="500.7969">BackwardEulerQuasistaticPwScheme</text><line style="stroke:#181818;stroke-width:0.5;" x1="8" x2="272.2061" y1="511" y2="511"/><line style="stroke:#181818;stroke-width:0.5;" x1="8" x2="272.2061" y1="519" y2="519"/></g><!--class BackwardEulerQuasistaticUPwScheme--><g class="entity" data-entity="BackwardEulerQuasistaticUPwScheme" data-source-line="26" data-uid="ent0009" id="entity_BackwardEulerQuasistaticUPwScheme"><rect fill="#F1F1F1" height="48" rx="2.5" ry="2.5" style="stroke:#181818;stroke-width:0.5;" width="276.3164" x="308" y="479"/><ellipse cx="323" cy="495" fill="#ADD1B2" rx="11" ry="11" style="stroke:#181818;stroke-width:1;"/><path d="M325.7656,490.875 Q325.9219,490.6563 326.1094,490.5469 Q326.2969,490.4375 326.5156,490.4375 Q326.8906,490.4375 327.125,490.7031 Q327.3594,490.9531 327.3594,491.5625 L327.3594,493.0156 Q327.3594,493.625 327.125,493.8906 Q326.8906,494.1563 326.5156,494.1563 Q326.1719,494.1563 325.9688,493.9531 Q325.7656,493.7656 325.6563,493.25 Q325.6094,492.8906 325.4219,492.7031 Q325.0938,492.3281 324.4844,492.1094 Q323.875,491.8906 323.25,491.8906 Q322.4844,491.8906 321.8438,492.2188 Q321.2188,492.5469 320.7188,493.2969 Q320.2344,494.0469 320.2344,495.0781 L320.2344,496.1719 Q320.2344,497.4063 321.125,498.2344 Q322.0156,499.0469 323.6094,499.0469 Q324.5469,499.0469 325.2031,498.7969 Q325.5938,498.6406 326.0156,498.2031 Q326.2813,497.9375 326.4219,497.8594 Q326.5781,497.7813 326.7813,497.7813 Q327.1094,497.7813 327.3594,498.0469 Q327.625,498.2969 327.625,498.6406 Q327.625,498.9844 327.2813,499.3906 Q326.7813,499.9688 325.9844,500.2969 Q324.9063,500.75 323.6094,500.75 Q322.0938,500.75 320.8906,500.125 Q319.9063,499.625 319.2188,498.5625 Q318.5313,497.4844 318.5313,496.2031 L318.5313,495.0469 Q318.5313,493.7188 319.1406,492.5781 Q319.7656,491.4219 320.8594,490.8125 Q321.9531,490.1875 323.1875,490.1875 Q323.9219,490.1875 324.5625,490.3594 Q325.2188,490.5156 325.7656,490.875 Z " fill="#000000"/><text fill="#000000" font-family="sans-serif" font-size="14" lengthAdjust="spacing" textLength="244.3164" x="337" y="500.7969">BackwardEulerQuasistaticUPwScheme</text><line style="stroke:#181818;stroke-width:0.5;" x1="309" x2="583.3164" y1="511" y2="511"/><line style="stroke:#181818;stroke-width:0.5;" x1="309" x2="583.3164" y1="519" y2="519"/></g><!--class BackwardEulerQuasistaticTScheme--><g class="entity" data-entity="BackwardEulerQuasistaticTScheme" data-source-line="27" data-uid="ent0010" id="entity_BackwardEulerQuasistaticTScheme"><rect fill="#F1F1F1" height="48" rx="2.5" ry="2.5" style="stroke:#181818;stroke-width:0.5;" width="255.3096" x="619.5" y="479"/><ellipse cx="634.5" cy="495" fill="#ADD1B2" rx="11" ry="11" style="stroke:#181818;stroke-width:1;"/><path d="M637.2656,490.875 Q637.4219,490.6563 637.6094,490.5469 Q637.7969,490.4375 638.0156,490.4375 Q638.3906,490.4375 638.625,490.7031 Q638.8594,490.9531 638.8594,491.5625 L638.8594,493.0156 Q638.8594,493.625 638.625,493.8906 Q638.3906,494.1563 638.0156,494.1563 Q637.6719,494.1563 637.4688,493.9531 Q637.2656,493.7656 637.1563,493.25 Q637.1094,492.8906 636.9219,492.7031 Q636.5938,492.3281 635.9844,492.1094 Q635.375,491.8906 634.75,491.8906 Q633.9844,491.8906 633.3438,492.2188 Q632.7188,492.5469 632.2188,493.2969 Q631.7344,494.0469 631.7344,495.0781 L631.7344,496.1719 Q631.7344,497.4063 632.625,498.2344 Q633.5156,499.0469 635.1094,499.0469 Q636.0469,499.0469 636.7031,498.7969 Q637.0938,498.6406 637.5156,498.2031 Q637.7813,497.9375 637.9219,497.8594 Q638.0781,497.7813 638.2813,497.7813 Q638.6094,497.7813 638.8594,498.0469 Q639.125,498.2969 639.125,498.6406 Q639.125,498.9844 638.7813,499.3906 Q638.2813,499.9688 637.4844,500.2969 Q636.4063,500.75 635.1094,500.75 Q633.5938,500.75 632.3906,500.125 Q631.4063,499.625 630.7188,498.5625 Q630.0313,497.4844 630.0313,496.2031 L630.0313,495.0469 Q630.0313,493.7188 630.6406,492.5781 Q631.2656,491.4219 632.3594,490.8125 Q633.4531,490.1875 634.6875,490.1875 Q635.4219,490.1875 636.0625,490.3594 Q636.7188,490.5156 637.2656,490.875 Z " fill="#000000"/><text fill="#000000" font-family="sans-serif" font-size="14" lengthAdjust="spacing" textLength="223.3096" x="648.5" y="500.7969">BackwardEulerQuasistaticTScheme</text><line style="stroke:#181818;stroke-width:0.5;" x1="620.5" x2="873.8096" y1="511" y2="511"/><line style="stroke:#181818;stroke-width:0.5;" x1="620.5" x2="873.8096" y1="519" y2="519"/></g><!--class GeneralizedNewmarkScheme--><g class="entity" data-entity="GeneralizedNewmarkScheme" data-source-line="34" data-uid="ent0015" id="entity_GeneralizedNewmarkScheme"><rect fill="#F1F1F1" height="66.6211" rx="2.5" ry="2.5" style="stroke:#181818;stroke-width:0.5;" width="217.9648" x="1421" y="306"/><ellipse cx="1436" cy="322" fill="#ADD1B2" rx="11" ry="11" style="stroke:#181818;stroke-width:1;"/><path d="M1438.7656,317.875 Q1438.9219,317.6563 1439.1094,317.5469 Q1439.2969,317.4375 1439.5156,317.4375 Q1439.8906,317.4375 1440.125,317.7031 Q1440.3594,317.9531 1440.3594,318.5625 L1440.3594,320.0156 Q1440.3594,320.625 1440.125,320.8906 Q1439.8906,321.1563 1439.5156,321.1563 Q1439.1719,321.1563 1438.9688,320.9531 Q1438.7656,320.7656 1438.6563,320.25 Q1438.6094,319.8906 1438.4219,319.7031 Q1438.0938,319.3281 1437.4844,319.1094 Q1436.875,318.8906 1436.25,318.8906 Q1435.4844,318.8906 1434.8438,319.2188 Q1434.2188,319.5469 1433.7188,320.2969 Q1433.2344,321.0469 1433.2344,322.0781 L1433.2344,323.1719 Q1433.2344,324.4063 1434.125,325.2344 Q1435.0156,326.0469 1436.6094,326.0469 Q1437.5469,326.0469 1438.2031,325.7969 Q1438.5938,325.6406 1439.0156,325.2031 Q1439.2813,324.9375 1439.4219,324.8594 Q1439.5781,324.7813 1439.7813,324.7813 Q1440.1094,324.7813 1440.3594,325.0469 Q1440.625,325.2969 1440.625,325.6406 Q1440.625,325.9844 1440.2813,326.3906 Q1439.7813,326.9688 1438.9844,327.2969 Q1437.9063,327.75 1436.6094,327.75 Q1435.0938,327.75 1433.8906,327.125 Q1432.9063,326.625 1432.2188,325.5625 Q1431.5313,324.4844 1431.5313,323.2031 L1431.5313,322.0469 Q1431.5313,320.7188 1432.1406,319.5781 Q1432.7656,318.4219 1433.8594,317.8125 Q1434.9531,317.1875 1436.1875,317.1875 Q1436.9219,317.1875 1437.5625,317.3594 Q1438.2188,317.5156 1438.7656,317.875 Z " fill="#000000"/><text fill="#000000" font-family="sans-serif" font-size="14" lengthAdjust="spacing" textLength="185.9648" x="1450" y="327.7969">GeneralizedNewmarkScheme</text><line style="stroke:#181818;stroke-width:0.5;" x1="1422" x2="1637.9648" y1="338" y2="338"/><line style="stroke:#181818;stroke-width:0.5;" x1="1422" x2="1637.9648" y1="346" y2="346"/><text fill="#000000" font-family="sans-serif" font-size="14" lengthAdjust="spacing" textLength="196.0547" x="1427" y="365.1074">void SetTimeFactors() override;</text></g><!--class NewmarkQuasistaticPwScheme--><g class="entity" data-entity="NewmarkQuasistaticPwScheme" data-source-line="38" data-uid="ent0016" id="entity_NewmarkQuasistaticPwScheme"><rect fill="#F1F1F1" height="66.6211" rx="2.5" ry="2.5" style="stroke:#181818;stroke-width:0.5;" width="282.0059" x="910" y="469.5"/><ellipse cx="947.8753" cy="485.5" fill="#ADD1B2" rx="11" ry="11" style="stroke:#181818;stroke-width:1;"/><path d="M950.6409,481.375 Q950.7972,481.1563 950.9847,481.0469 Q951.1722,480.9375 951.3909,480.9375 Q951.7659,480.9375 952.0003,481.2031 Q952.2347,481.4531 952.2347,482.0625 L952.2347,483.5156 Q952.2347,484.125 952.0003,484.3906 Q951.7659,484.6563 951.3909,484.6563 Q951.0472,484.6563 950.844,484.4531 Q950.6409,484.2656 950.5315,483.75 Q950.4847,483.3906 950.2972,483.2031 Q949.969,482.8281 949.3597,482.6094 Q948.7503,482.3906 948.1253,482.3906 Q947.3597,482.3906 946.719,482.7188 Q946.094,483.0469 945.594,483.7969 Q945.1097,484.5469 945.1097,485.5781 L945.1097,486.6719 Q945.1097,487.9063 946.0003,488.7344 Q946.8909,489.5469 948.4847,489.5469 Q949.4222,489.5469 950.0784,489.2969 Q950.469,489.1406 950.8909,488.7031 Q951.1565,488.4375 951.2972,488.3594 Q951.4534,488.2813 951.6565,488.2813 Q951.9847,488.2813 952.2347,488.5469 Q952.5003,488.7969 952.5003,489.1406 Q952.5003,489.4844 952.1565,489.8906 Q951.6565,490.4688 950.8597,490.7969 Q949.7815,491.25 948.4847,491.25 Q946.969,491.25 945.7659,490.625 Q944.7815,490.125 944.094,489.0625 Q943.4065,487.9844 943.4065,486.7031 L943.4065,485.5469 Q943.4065,484.2188 944.0159,483.0781 Q944.6409,481.9219 945.7347,481.3125 Q946.8284,480.6875 948.0628,480.6875 Q948.7972,480.6875 949.4378,480.8594 Q950.094,481.0156 950.6409,481.375 Z " fill="#000000"/><text fill="#000000" font-family="sans-serif" font-size="14" lengthAdjust="spacing" textLength="199.1719" x="966.9587" y="491.2969">NewmarkQuasistaticPwScheme</text><line style="stroke:#181818;stroke-width:0.5;" x1="911" x2="1191.0059" y1="501.5" y2="501.5"/><line style="stroke:#181818;stroke-width:0.5;" x1="911" x2="1191.0059" y1="509.5" y2="509.5"/><text fill="#000000" font-family="sans-serif" font-size="14" lengthAdjust="spacing" textLength="270.0059" x="916" y="528.6074">void UpdateVariablesDerivatives() override;</text></g><!--class GeneralizedNewmarkTScheme--><g class="entity" data-entity="GeneralizedNewmarkTScheme" data-source-line="42" data-uid="ent0017" id="entity_GeneralizedNewmarkTScheme"><rect fill="#F1F1F1" height="66.6211" rx="2.5" ry="2.5" style="stroke:#181818;stroke-width:0.5;" width="282.0059" x="1227" y="469.5"/><ellipse cx="1266.9702" cy="485.5" fill="#ADD1B2" rx="11" ry="11" style="stroke:#181818;stroke-width:1;"/><path d="M1269.7358,481.375 Q1269.892,481.1563 1270.0795,481.0469 Q1270.267,480.9375 1270.4858,480.9375 Q1270.8608,480.9375 1271.0952,481.2031 Q1271.3295,481.4531 1271.3295,482.0625 L1271.3295,483.5156 Q1271.3295,484.125 1271.0952,484.3906 Q1270.8608,484.6563 1270.4858,484.6563 Q1270.142,484.6563 1269.9389,484.4531 Q1269.7358,484.2656 1269.6264,483.75 Q1269.5795,483.3906 1269.392,483.2031 Q1269.0639,482.8281 1268.4545,482.6094 Q1267.8452,482.3906 1267.2202,482.3906 Q1266.4545,482.3906 1265.8139,482.7188 Q1265.1889,483.0469 1264.6889,483.7969 Q1264.2045,484.5469 1264.2045,485.5781 L1264.2045,486.6719 Q1264.2045,487.9063 1265.0952,488.7344 Q1265.9858,489.5469 1267.5795,489.5469 Q1268.517,489.5469 1269.1733,489.2969 Q1269.5639,489.1406 1269.9858,488.7031 Q1270.2514,488.4375 1270.392,488.3594 Q1270.5483,488.2813 1270.7514,488.2813 Q1271.0795,488.2813 1271.3295,488.5469 Q1271.5952,488.7969 1271.5952,489.1406 Q1271.5952,489.4844 1271.2514,489.8906 Q1270.7514,490.4688 1269.9545,490.7969 Q1268.8764,491.25 1267.5795,491.25 Q1266.0639,491.25 1264.8608,490.625 Q1263.8764,490.125 1263.1889,489.0625 Q1262.5014,487.9844 1262.5014,486.7031 L1262.5014,485.5469 Q1262.5014,484.2188 1263.1108,483.0781 Q1263.7358,481.9219 1264.8295,481.3125 Q1265.9233,480.6875 1267.1577,480.6875 Q1267.892,480.6875 1268.5327,480.8594 Q1269.1889,481.0156 1269.7358,481.375 Z " fill="#000000"/><text fill="#000000" font-family="sans-serif" font-size="14" lengthAdjust="spacing" textLength="194.5166" x="1286.5191" y="491.2969">GeneralizedNewmarkTScheme</text><line style="stroke:#181818;stroke-width:0.5;" x1="1228" x2="1508.0059" y1="501.5" y2="501.5"/><line style="stroke:#181818;stroke-width:0.5;" x1="1228" x2="1508.0059" y1="509.5" y2="509.5"/><text fill="#000000" font-family="sans-serif" font-size="14" lengthAdjust="spacing" textLength="270.0059" x="1233" y="528.6074">void UpdateVariablesDerivatives() override;</text></g><!--class NewmarkDynamicUPwScheme--><g class="entity" data-entity="NewmarkDynamicUPwScheme" data-source-line="46" data-uid="ent0018" id="entity_NewmarkDynamicUPwScheme"><rect fill="#F1F1F1" height="122.4844" rx="2.5" ry="2.5" style="stroke:#181818;stroke-width:0.5;" width="296.7852" x="1544.5" y="442"/><ellipse cx="1591.3979" cy="458" fill="#ADD1B2" rx="11" ry="11" style="stroke:#181818;stroke-width:1;"/><path d="M1594.1636,453.875 Q1594.3198,453.6563 1594.5073,453.5469 Q1594.6948,453.4375 1594.9136,453.4375 Q1595.2886,453.4375 1595.5229,453.7031 Q1595.7573,453.9531 1595.7573,454.5625 L1595.7573,456.0156 Q1595.7573,456.625 1595.5229,456.8906 Q1595.2886,457.1563 1594.9136,457.1563 Q1594.5698,457.1563 1594.3667,456.9531 Q1594.1636,456.7656 1594.0542,456.25 Q1594.0073,455.8906 1593.8198,455.7031 Q1593.4917,455.3281 1592.8823,455.1094 Q1592.2729,454.8906 1591.6479,454.8906 Q1590.8823,454.8906 1590.2417,455.2188 Q1589.6167,455.5469 1589.1167,456.2969 Q1588.6323,457.0469 1588.6323,458.0781 L1588.6323,459.1719 Q1588.6323,460.4063 1589.5229,461.2344 Q1590.4136,462.0469 1592.0073,462.0469 Q1592.9448,462.0469 1593.6011,461.7969 Q1593.9917,461.6406 1594.4136,461.2031 Q1594.6792,460.9375 1594.8198,460.8594 Q1594.9761,460.7813 1595.1792,460.7813 Q1595.5073,460.7813 1595.7573,461.0469 Q1596.0229,461.2969 1596.0229,461.6406 Q1596.0229,461.9844 1595.6792,462.3906 Q1595.1792,462.9688 1594.3823,463.2969 Q1593.3042,463.75 1592.0073,463.75 Q1590.4917,463.75 1589.2886,463.125 Q1588.3042,462.625 1587.6167,461.5625 Q1586.9292,460.4844 1586.9292,459.2031 L1586.9292,458.0469 Q1586.9292,456.7188 1587.5386,455.5781 Q1588.1636,454.4219 1589.2573,453.8125 Q1590.3511,453.1875 1591.5854,453.1875 Q1592.3198,453.1875 1592.9604,453.3594 Q1593.6167,453.5156 1594.1636,453.875 Z " fill="#000000"/><text fill="#000000" font-family="sans-serif" font-size="14" lengthAdjust="spacing" textLength="194.4893" x="1611.8979" y="463.7969">NewmarkDynamicUPwScheme</text><line style="stroke:#181818;stroke-width:0.5;" x1="1545.5" x2="1840.2852" y1="474" y2="474"/><line style="stroke:#181818;stroke-width:0.5;" x1="1545.5" x2="1840.2852" y1="482" y2="482"/><text fill="#000000" font-family="sans-serif" font-size="14" lengthAdjust="spacing" textLength="270.0059" x="1550.5" y="501.1074">void UpdateVariablesDerivatives() override;</text><text fill="#000000" font-family="sans-serif" font-size="14" lengthAdjust="spacing" textLength="284.7852" x="1550.5" y="519.7285">void CalculateSystemContributions() override;</text><text fill="#000000" font-family="sans-serif" font-size="14" lengthAdjust="spacing" textLength="258.3438" x="1550.5" y="538.3496">void CalculateLHSContribution() override;</text><text fill="#000000" font-family="sans-serif" font-size="14" lengthAdjust="spacing" textLength="260.668" x="1550.5" y="556.9707">void CalculateRHSContribution() override;</text></g><!--class NewmarkQuasistaticDampedUPwScheme--><g class="entity" data-entity="NewmarkQuasistaticDampedUPwScheme" data-source-line="53" data-uid="ent0019" id="entity_NewmarkQuasistaticDampedUPwScheme"><rect fill="#F1F1F1" height="122.4844" rx="2.5" ry="2.5" style="stroke:#181818;stroke-width:0.5;" width="296.7852" x="1876.5" y="442"/><ellipse cx="1892.6637" cy="458" fill="#ADD1B2" rx="11" ry="11" style="stroke:#181818;stroke-width:1;"/><path d="M1895.4293,453.875 Q1895.5855,453.6563 1895.773,453.5469 Q1895.9605,453.4375 1896.1793,453.4375 Q1896.5543,453.4375 1896.7887,453.7031 Q1897.023,453.9531 1897.023,454.5625 L1897.023,456.0156 Q1897.023,456.625 1896.7887,456.8906 Q1896.5543,457.1563 1896.1793,457.1563 Q1895.8355,457.1563 1895.6324,456.9531 Q1895.4293,456.7656 1895.3199,456.25 Q1895.273,455.8906 1895.0855,455.7031 Q1894.7574,455.3281 1894.148,455.1094 Q1893.5387,454.8906 1892.9137,454.8906 Q1892.148,454.8906 1891.5074,455.2188 Q1890.8824,455.5469 1890.3824,456.2969 Q1889.898,457.0469 1889.898,458.0781 L1889.898,459.1719 Q1889.898,460.4063 1890.7887,461.2344 Q1891.6793,462.0469 1893.273,462.0469 Q1894.2105,462.0469 1894.8668,461.7969 Q1895.2574,461.6406 1895.6793,461.2031 Q1895.9449,460.9375 1896.0855,460.8594 Q1896.2418,460.7813 1896.4449,460.7813 Q1896.773,460.7813 1897.023,461.0469 Q1897.2887,461.2969 1897.2887,461.6406 Q1897.2887,461.9844 1896.9449,462.3906 Q1896.4449,462.9688 1895.648,463.2969 Q1894.5699,463.75 1893.273,463.75 Q1891.7574,463.75 1890.5543,463.125 Q1889.5699,462.625 1888.8824,461.5625 Q1888.1949,460.4844 1888.1949,459.2031 L1888.1949,458.0469 Q1888.1949,456.7188 1888.8043,455.5781 Q1889.4293,454.4219 1890.523,453.8125 Q1891.6168,453.1875 1892.8512,453.1875 Q1893.5855,453.1875 1894.2262,453.3594 Q1894.8824,453.5156 1895.4293,453.875 Z " fill="#000000"/><text fill="#000000" font-family="sans-serif" font-size="14" lengthAdjust="spacing" textLength="262.1992" x="1906.9223" y="463.7969">NewmarkQuasistaticDampedUPwScheme</text><line style="stroke:#181818;stroke-width:0.5;" x1="1877.5" x2="2172.2852" y1="474" y2="474"/><line style="stroke:#181818;stroke-width:0.5;" x1="1877.5" x2="2172.2852" y1="482" y2="482"/><text fill="#000000" font-family="sans-serif" font-size="14" lengthAdjust="spacing" textLength="270.0059" x="1882.5" y="501.1074">void UpdateVariablesDerivatives() override;</text><text fill="#000000" font-family="sans-serif" font-size="14" lengthAdjust="spacing" textLength="284.7852" x="1882.5" y="519.7285">void CalculateSystemContributions() override;</text><text fill="#000000" font-family="sans-serif" font-size="14" lengthAdjust="spacing" textLength="258.3438" x="1882.5" y="538.3496">void CalculateLHSContribution() override;</text><text fill="#000000" font-family="sans-serif" font-size="14" lengthAdjust="spacing" textLength="260.668" x="1882.5" y="556.9707">void CalculateRHSContribution() override;</text></g><!--class NewmarkQuasistaticUPwScheme--><g class="entity" data-entity="NewmarkQuasistaticUPwScheme" data-source-line="60" data-uid="ent0020" id="entity_NewmarkQuasistaticUPwScheme"><rect fill="#F1F1F1" height="66.6211" rx="2.5" ry="2.5" style="stroke:#181818;stroke-width:0.5;" width="282.0059" x="2209" y="469.5"/><ellipse cx="2242.3256" cy="485.5" fill="#ADD1B2" rx="11" ry="11" style="stroke:#181818;stroke-width:1;"/><path d="M2245.0913,481.375 Q2245.2475,481.1563 2245.435,481.0469 Q2245.6225,480.9375 2245.8413,480.9375 Q2246.2163,480.9375 2246.4506,481.2031 Q2246.685,481.4531 2246.685,482.0625 L2246.685,483.5156 Q2246.685,484.125 2246.4506,484.3906 Q2246.2163,484.6563 2245.8413,484.6563 Q2245.4975,484.6563 2245.2944,484.4531 Q2245.0913,484.2656 2244.9819,483.75 Q2244.935,483.3906 2244.7475,483.2031 Q2244.4194,482.8281 2243.81,482.6094 Q2243.2006,482.3906 2242.5756,482.3906 Q2241.81,482.3906 2241.1694,482.7188 Q2240.5444,483.0469 2240.0444,483.7969 Q2239.56,484.5469 2239.56,485.5781 L2239.56,486.6719 Q2239.56,487.9063 2240.4506,488.7344 Q2241.3413,489.5469 2242.935,489.5469 Q2243.8725,489.5469 2244.5288,489.2969 Q2244.9194,489.1406 2245.3413,488.7031 Q2245.6069,488.4375 2245.7475,488.3594 Q2245.9038,488.2813 2246.1069,488.2813 Q2246.435,488.2813 2246.685,488.5469 Q2246.9506,488.7969 2246.9506,489.1406 Q2246.9506,489.4844 2246.6069,489.8906 Q2246.1069,490.4688 2245.31,490.7969 Q2244.2319,491.25 2242.935,491.25 Q2241.4194,491.25 2240.2163,490.625 Q2239.2319,490.125 2238.5444,489.0625 Q2237.8569,487.9844 2237.8569,486.7031 L2237.8569,485.5469 Q2237.8569,484.2188 2238.4663,483.0781 Q2239.0913,481.9219 2240.185,481.3125 Q2241.2788,480.6875 2242.5131,480.6875 Q2243.2475,480.6875 2243.8881,480.8594 Q2244.5444,481.0156 2245.0913,481.375 Z " fill="#000000"/><text fill="#000000" font-family="sans-serif" font-size="14" lengthAdjust="spacing" textLength="209.2822" x="2260.398" y="491.2969">NewmarkQuasistaticUPwScheme</text><line style="stroke:#181818;stroke-width:0.5;" x1="2210" x2="2490.0059" y1="501.5" y2="501.5"/><line style="stroke:#181818;stroke-width:0.5;" x1="2210" x2="2490.0059" y1="509.5" y2="509.5"/><text fill="#000000" font-family="sans-serif" font-size="14" lengthAdjust="spacing" textLength="270.0059" x="2215" y="528.6074">void UpdateVariablesDerivatives() override;</text></g><!--reverse link Scheme to GeoMechanicsTimeIntegrationScheme--><g class="link" data-entity-1="Scheme" data-entity-2="GeoMechanicsTimeIntegrationScheme" data-source-line="12" data-uid="lnk4" id="link_Scheme_GeoMechanicsTimeIntegrationScheme"><path codeLine="12" d="M596,73.29 C596,89.52 596,93.94 596,115" fill="none" id="Scheme-backto-GeoMechanicsTimeIntegrationScheme" style="stroke:#181818;stroke-width:1;"/><polygon fill="none" points="596,55.29,590,73.29,602,73.29,596,55.29" style="stroke:#181818;stroke-width:1;"/></g><!--reverse link GeoMechanicsTimeIntegrationScheme to GeoMechanicsStaticScheme--><g class="link" data-entity-1="GeoMechanicsTimeIntegrationScheme" data-entity-2="GeoMechanicsStaticScheme" data-source-line="18" data-uid="lnk6" id="link_GeoMechanicsTimeIntegrationScheme_GeoMechanicsStaticScheme"><path codeLine="18" d="M461.9203,245.3088 C416.1503,268.6188 381.6,286.23 342.89,305.95" fill="none" id="GeoMechanicsTimeIntegrationScheme-backto-GeoMechanicsStaticScheme" style="stroke:#181818;stroke-width:1;"/><polygon fill="none" points="477.96,237.14,459.1974,239.9622,464.6433,250.6553,477.96,237.14" style="stroke:#181818;stroke-width:1;"/></g><!--reverse link GeoMechanicsTimeIntegrationScheme to BackwardEulerScheme--><g class="link" data-entity-1="GeoMechanicsTimeIntegrationScheme" data-entity-2="BackwardEulerScheme" data-source-line="29" data-uid="lnk11" id="link_GeoMechanicsTimeIntegrationScheme_BackwardEulerScheme"><path codeLine="29" d="M596,255.14 C596,275.05 596,278.75 596,296.94" fill="none" id="GeoMechanicsTimeIntegrationScheme-backto-BackwardEulerScheme" style="stroke:#181818;stroke-width:1;"/><polygon fill="none" points="596,237.14,590,255.14,602,255.14,596,237.14" style="stroke:#181818;stroke-width:1;"/></g><!--reverse link BackwardEulerScheme to BackwardEulerQuasistaticPwScheme--><g class="link" data-entity-1="BackwardEulerScheme" data-entity-2="BackwardEulerQuasistaticPwScheme" data-source-line="30" data-uid="lnk12" id="link_BackwardEulerScheme_BackwardEulerQuasistaticPwScheme"><path codeLine="30" d="M447.6269,387.7005 C393.2869,405.4205 346.91,421.2 290,442 C258.39,453.55 223.45,467.46 195.26,478.97" fill="none" id="BackwardEulerScheme-backto-BackwardEulerQuasistaticPwScheme" style="stroke:#181818;stroke-width:1;"/><polygon fill="none" points="464.74,382.12,445.7667,381.9961,449.4871,393.4049,464.74,382.12" style="stroke:#181818;stroke-width:1;"/></g><!--reverse link BackwardEulerScheme to BackwardEulerQuasistaticUPwScheme--><g class="link" data-entity-1="BackwardEulerScheme" data-entity-2="BackwardEulerQuasistaticUPwScheme" data-source-line="31" data-uid="lnk13" id="link_BackwardEulerScheme_BackwardEulerQuasistaticUPwScheme"><path codeLine="31" d="M545.1219,395.2803 C516.6519,425.9403 491.2,453.33 467.78,478.55" fill="none" id="BackwardEulerScheme-backto-BackwardEulerQuasistaticUPwScheme" style="stroke:#181818;stroke-width:1;"/><polygon fill="none" points="557.37,382.09,540.7251,391.1976,549.5186,399.363,557.37,382.09" style="stroke:#181818;stroke-width:1;"/></g><!--reverse link BackwardEulerScheme to BackwardEulerQuasistaticTScheme--><g class="link" data-entity-1="BackwardEulerScheme" data-entity-2="BackwardEulerQuasistaticTScheme" data-source-line="32" data-uid="lnk14" id="link_BackwardEulerScheme_BackwardEulerQuasistaticTScheme"><path codeLine="32" d="M647.1818,395.2396 C675.8418,425.8996 701.5,453.33 725.07,478.55" fill="none" id="BackwardEulerScheme-backto-BackwardEulerQuasistaticTScheme" style="stroke:#181818;stroke-width:1;"/><polygon fill="none" points="634.89,382.09,642.7986,399.3368,651.565,391.1423,634.89,382.09" style="stroke:#181818;stroke-width:1;"/></g><!--reverse link GeoMechanicsTimeIntegrationScheme to GeneralizedNewmarkScheme--><g class="link" data-entity-1="GeoMechanicsTimeIntegrationScheme" data-entity-2="GeneralizedNewmarkScheme" data-source-line="65" data-uid="lnk21" id="link_GeoMechanicsTimeIntegrationScheme_GeneralizedNewmarkScheme"><path codeLine="65" d="M848.8168,220.7167 C1037.8268,253.3967 1277.01,294.75 1420.86,319.63" fill="none" id="GeoMechanicsTimeIntegrationScheme-backto-GeneralizedNewmarkScheme" style="stroke:#181818;stroke-width:1;"/><polygon fill="none" points="831.08,217.65,847.7946,226.629,849.8391,214.8044,831.08,217.65" style="stroke:#181818;stroke-width:1;"/></g><!--reverse link GeneralizedNewmarkScheme to NewmarkQuasistaticPwScheme--><g class="link" data-entity-1="GeneralizedNewmarkScheme" data-entity-2="NewmarkQuasistaticPwScheme" data-source-line="66" data-uid="lnk22" id="link_GeneralizedNewmarkScheme_NewmarkQuasistaticPwScheme"><path codeLine="66" d="M1404.5648,378.3399 C1342.0848,397.5499 1279.39,417.53 1209,442 C1184.61,450.48 1158.32,460.22 1134.32,469.35" fill="none" id="GeneralizedNewmarkScheme-backto-NewmarkQuasistaticPwScheme" style="stroke:#181818;stroke-width:1;"/><polygon fill="none" points="1421.77,373.05,1402.8016,372.6048,1406.3281,384.0749,1421.77,373.05" style="stroke:#181818;stroke-width:1;"/></g><!--reverse link GeneralizedNewmarkScheme to GeneralizedNewmarkTScheme--><g class="link" data-entity-1="GeneralizedNewmarkScheme" data-entity-2="GeneralizedNewmarkTScheme" data-source-line="67" data-uid="lnk23" id="link_GeneralizedNewmarkScheme_GeneralizedNewmarkTScheme"><path codeLine="67" d="M1484.4717,385.8875 C1456.3617,413.9075 1428.83,441.36 1400.73,469.37" fill="none" id="GeneralizedNewmarkScheme-backto-GeneralizedNewmarkTScheme" style="stroke:#181818;stroke-width:1;"/><polygon fill="none" points="1497.22,373.18,1480.2359,381.6381,1488.7075,390.1369,1497.22,373.18" style="stroke:#181818;stroke-width:1;"/></g><!--reverse link GeneralizedNewmarkScheme to NewmarkDynamicUPwScheme--><g class="link" data-entity-1="GeneralizedNewmarkScheme" data-entity-2="NewmarkDynamicUPwScheme" data-source-line="68" data-uid="lnk24" id="link_GeneralizedNewmarkScheme_NewmarkDynamicUPwScheme"><path codeLine="68" d="M1575.7724,385.8532 C1595.6724,405.5832 1608.87,418.65 1632.37,441.93" fill="none" id="GeneralizedNewmarkScheme-backto-NewmarkDynamicUPwScheme" style="stroke:#181818;stroke-width:1;"/><polygon fill="none" points="1562.99,373.18,1571.548,390.114,1579.9968,381.5924,1562.99,373.18" style="stroke:#181818;stroke-width:1;"/></g><!--reverse link GeneralizedNewmarkScheme to NewmarkQuasistaticDampedUPwScheme--><g class="link" data-entity-1="GeneralizedNewmarkScheme" data-entity-2="NewmarkQuasistaticDampedUPwScheme" data-source-line="69" data-uid="lnk25" id="link_GeneralizedNewmarkScheme_NewmarkQuasistaticDampedUPwScheme"><path codeLine="69" d="M1656.5661,377.998 C1720.7861,397.328 1786.16,417.62 1859,442 C1864.67,443.9 1870.43,445.85 1876.25,447.85" fill="none" id="GeneralizedNewmarkScheme-backto-NewmarkQuasistaticDampedUPwScheme" style="stroke:#181818;stroke-width:1;"/><polygon fill="none" points="1639.33,372.81,1654.8368,383.7434,1658.2955,372.2526,1639.33,372.81" style="stroke:#181818;stroke-width:1;"/></g><!--reverse link GeneralizedNewmarkScheme to NewmarkQuasistaticUPwScheme--><g class="link" data-entity-1="GeneralizedNewmarkScheme" data-entity-2="NewmarkQuasistaticUPwScheme" data-source-line="70" data-uid="lnk26" id="link_GeneralizedNewmarkScheme_NewmarkQuasistaticUPwScheme"><path codeLine="70" d="M1656.9387,352.021 C1789.1487,365.391 2000.09,391.91 2191,442 C2218.4,449.19 2247.61,459.42 2273.41,469.41" fill="none" id="GeneralizedNewmarkScheme-backto-NewmarkQuasistaticUPwScheme" style="stroke:#181818;stroke-width:1;"/><polygon fill="none" points="1639.03,350.21,1656.335,357.9906,1657.5423,346.0515,1639.03,350.21" style="stroke:#181818;stroke-width:1;"/></g><!--SRC=[vLHDSu8m4BtpAt9hUw3shBQ7Qcqxqs_0-vfiQyO4c2JWs8__Na2g8Y2enteZUU_jszqNJwR6XBhRwOG2V1D9SKu3sQ42jBOPXmy5qh9Weeq2QaXsJXmwHOdMykCMWqUaK_0vrIwNUEyRJ5Y61twE-x98yhE9DgpRZP6QGFL7N6dph1WgXu80DGR5OIBmYhpNtEXUXOo3DF1PXXvd9siTNNUL26LACLSc0a7YW3FYXGmChY13L3nEUeXHdvwHItBHArCSD6c_8qZ54rZF-h6M7PF-jsst64p511sJ06XXSCt-WXYLuWnJ1urLo-OADNDFrq1dSr3i9XBf8Wwqiy9lpwfWkQBYQmIQwypNoxmGjpgOrnBd_lNPSb1LWwWugm1NzR0tqpkSwcwdp4S5WdyYUyAv13KhhxN5cd9kLNE7nBNEctkqPYuqNFWWD-TuH8e786Wa4egpq0Rb8F2DufCeZKmJu-7EsOGteDzseEiNCGGP8liFdNf7PQxzVsJDYwcxMD9sl93TnFfNqAfWAUdxsjpEpxxyDVCN]--></g></svg>