<?xml version="1.0" encoding="us-ascii" standalone="no"?><svg xmlns="http://www.w3.org/2000/svg" xmlns:xlink="http://www.w3.org/1999/xlink" contentStyleType="text/css" height="552px" preserveAspectRatio="none" style="width:2560px;height:552px;background:#FFFFFF;" version="1.1" viewBox="0 0 2560 552" width="2560px" zoomAndPan="magnify"><defs/><g><!--class Scheme--><g id="elem_Scheme"><rect codeLine="3" fill="#F1F1F1" height="48" id="Scheme" rx="2.5" ry="2.5" style="stroke:#181818;stroke-width:0.5;" width="83" x="878" y="7"/><ellipse cx="893" cy="23" fill="#A9DCDF" rx="11" ry="11" style="stroke:#181818;stroke-width:1.0;"/><path d="M895.1875,24.7656 L891.0469,24.7656 L890.625,25.7969 L891.0469,25.7969 Q891.6563,25.7969 891.9219,26.0313 Q892.1875,26.2656 892.1875,26.6563 Q892.1875,27.0313 891.9219,27.2656 Q891.6563,27.5 891.0469,27.5 L888.75,27.5 Q888.1406,27.5 887.8906,27.2656 Q887.625,27.0313 887.625,26.6406 Q887.625,26.2656 887.9063,26.0313 Q888.1719,25.7813 888.7969,25.7969 L891.4688,19.1406 L890.3594,19.1406 Q889.75,19.1406 889.4844,18.9063 Q889.2188,18.6719 889.2188,18.2813 Q889.2188,17.9063 889.4844,17.6719 Q889.75,17.4375 890.3594,17.4375 L894.0313,17.4375 L897.4219,25.7969 Q898.0156,25.7969 898.2031,25.9375 Q898.5938,26.2031 898.5938,26.6563 Q898.5938,27.0313 898.3281,27.2656 Q898.0781,27.5 897.4688,27.5 L895.1719,27.5 Q894.5625,27.5 894.2969,27.2656 Q894.0313,27.0313 894.0313,26.6406 Q894.0313,26.2656 894.2969,26.0313 Q894.5625,25.7969 895.1719,25.7969 L895.5938,25.7969 L895.1875,24.7656 Z M894.4688,23.0625 L893.1094,19.6875 L891.7344,23.0625 L894.4688,23.0625 Z " fill="#000000"/><text fill="#000000" font-family="sans-serif" font-size="14" font-style="italic" lengthAdjust="spacing" textLength="51" x="907" y="28.7969">Scheme</text><line style="stroke:#181818;stroke-width:0.5;" x1="879" x2="960" y1="39" y2="39"/><line style="stroke:#181818;stroke-width:0.5;" x1="879" x2="960" y1="47" y2="47"/></g><!--class GeoMechanicsTimeIntegrationScheme--><g id="elem_GeoMechanicsTimeIntegrationScheme"><rect codeLine="4" fill="#F1F1F1" height="122.4844" id="GeoMechanicsTimeIntegrationScheme" rx="2.5" ry="2.5" style="stroke:#181818;stroke-width:0.5;" width="477" x="681" y="115"/><ellipse cx="793.75" cy="131" fill="#ADD1B2" rx="11" ry="11" style="stroke:#181818;stroke-width:1.0;"/><path d="M796.5156,126.875 Q796.6719,126.6563 796.8594,126.5469 Q797.0469,126.4375 797.2656,126.4375 Q797.6406,126.4375 797.875,126.7031 Q798.1094,126.9531 798.1094,127.5625 L798.1094,129.0156 Q798.1094,129.625 797.875,129.8906 Q797.6406,130.1563 797.2656,130.1563 Q796.9219,130.1563 796.7188,129.9531 Q796.5156,129.7656 796.4063,129.25 Q796.3594,128.8906 796.1719,128.7031 Q795.8438,128.3281 795.2344,128.1094 Q794.625,127.8906 794,127.8906 Q793.2344,127.8906 792.5938,128.2188 Q791.9688,128.5469 791.4688,129.2969 Q790.9844,130.0469 790.9844,131.0781 L790.9844,132.1719 Q790.9844,133.4063 791.875,134.2344 Q792.7656,135.0469 794.3594,135.0469 Q795.2969,135.0469 795.9531,134.7969 Q796.3438,134.6406 796.7656,134.2031 Q797.0313,133.9375 797.1719,133.8594 Q797.3281,133.7813 797.5313,133.7813 Q797.8594,133.7813 798.1094,134.0469 Q798.375,134.2969 798.375,134.6406 Q798.375,134.9844 798.0313,135.3906 Q797.5313,135.9688 796.7344,136.2969 Q795.6563,136.75 794.3594,136.75 Q792.8438,136.75 791.6406,136.125 Q790.6563,135.625 789.9688,134.5625 Q789.2813,133.4844 789.2813,132.2031 L789.2813,131.0469 Q789.2813,129.7188 789.8906,128.5781 Q790.5156,127.4219 791.6094,126.8125 Q792.7031,126.1875 793.9375,126.1875 Q794.6719,126.1875 795.3125,126.3594 Q795.9688,126.5156 796.5156,126.875 Z " fill="#000000"/><text fill="#000000" font-family="sans-serif" font-size="14" lengthAdjust="spacing" textLength="243" x="814.25" y="136.7969">GeoMechanicsTimeIntegrationScheme</text><line style="stroke:#181818;stroke-width:0.5;" x1="682" x2="1157" y1="147" y2="147"/><rect fill="none" height="6" style="stroke:#C82930;stroke-width:1.0;" width="6" x="689" y="158.8105"/><text fill="#000000" font-family="sans-serif" font-size="14" lengthAdjust="spacing" textLength="406" x="701" y="166.1074">std::vector&lt;FirstOrderScalarVariable&gt; firstOrderScalarVariables;</text><rect fill="none" height="6" style="stroke:#C82930;stroke-width:1.0;" width="6" x="689" y="177.4316"/><text fill="#000000" font-family="sans-serif" font-size="14" lengthAdjust="spacing" textLength="451" x="701" y="184.7285">std::vector&lt;SecondOrderVectorVariable&gt; secondOrderVectorVariables;</text><line style="stroke:#181818;stroke-width:0.5;" x1="682" x2="1157" y1="192.2422" y2="192.2422"/><text fill="#000000" font-family="sans-serif" font-size="14" lengthAdjust="spacing" textLength="284" x="687" y="211.3496">virtual void UpdateVariablesDerivatives() = 0;</text><text fill="#000000" font-family="sans-serif" font-size="14" lengthAdjust="spacing" textLength="186" x="687" y="229.9707">virtual void SetTimeFactors();</text></g><!--class BackwardEulerScheme--><g id="elem_BackwardEulerScheme"><rect codeLine="14" fill="#F1F1F1" height="85.2422" id="BackwardEulerScheme" rx="2.5" ry="2.5" style="stroke:#181818;stroke-width:0.5;" width="286" x="451.5" y="297"/><ellipse cx="517.75" cy="313" fill="#ADD1B2" rx="11" ry="11" style="stroke:#181818;stroke-width:1.0;"/><path d="M520.5156,308.875 Q520.6719,308.6563 520.8594,308.5469 Q521.0469,308.4375 521.2656,308.4375 Q521.6406,308.4375 521.875,308.7031 Q522.1094,308.9531 522.1094,309.5625 L522.1094,311.0156 Q522.1094,311.625 521.875,311.8906 Q521.6406,312.1563 521.2656,312.1563 Q520.9219,312.1563 520.7188,311.9531 Q520.5156,311.7656 520.4063,311.25 Q520.3594,310.8906 520.1719,310.7031 Q519.8438,310.3281 519.2344,310.1094 Q518.625,309.8906 518,309.8906 Q517.2344,309.8906 516.5938,310.2188 Q515.9688,310.5469 515.4688,311.2969 Q514.9844,312.0469 514.9844,313.0781 L514.9844,314.1719 Q514.9844,315.4063 515.875,316.2344 Q516.7656,317.0469 518.3594,317.0469 Q519.2969,317.0469 519.9531,316.7969 Q520.3438,316.6406 520.7656,316.2031 Q521.0313,315.9375 521.1719,315.8594 Q521.3281,315.7813 521.5313,315.7813 Q521.8594,315.7813 522.1094,316.0469 Q522.375,316.2969 522.375,316.6406 Q522.375,316.9844 522.0313,317.3906 Q521.5313,317.9688 520.7344,318.2969 Q519.6563,318.75 518.3594,318.75 Q516.8438,318.75 515.6406,318.125 Q514.6563,317.625 513.9688,316.5625 Q513.2813,315.4844 513.2813,314.2031 L513.2813,313.0469 Q513.2813,311.7188 513.8906,310.5781 Q514.5156,309.4219 515.6094,308.8125 Q516.7031,308.1875 517.9375,308.1875 Q518.6719,308.1875 519.3125,308.3594 Q519.9688,308.5156 520.5156,308.875 Z " fill="#000000"/><text fill="#000000" font-family="sans-serif" font-size="14" lengthAdjust="spacing" textLength="145" x="538.25" y="318.7969">BackwardEulerScheme</text><line style="stroke:#181818;stroke-width:0.5;" x1="452.5" x2="736.5" y1="329" y2="329"/><line style="stroke:#181818;stroke-width:0.5;" x1="452.5" x2="736.5" y1="337" y2="337"/><text fill="#000000" font-family="sans-serif" font-size="14" lengthAdjust="spacing" textLength="274" x="457.5" y="356.1074">void UpdateVariablesDerivatives() override;</text><text fill="#000000" font-family="sans-serif" font-size="14" lengthAdjust="spacing" textLength="200" x="457.5" y="374.7285">void SetTimeFactors() override;</text></g><!--class BackwardEulerQuasistaticPwScheme--><g id="elem_BackwardEulerQuasistaticPwScheme"><rect codeLine="19" fill="#F1F1F1" height="48" id="BackwardEulerQuasistaticPwScheme" rx="2.5" ry="2.5" style="stroke:#181818;stroke-width:0.5;" width="265" x="7" y="470"/><ellipse cx="22" cy="486" fill="#ADD1B2" rx="11" ry="11" style="stroke:#181818;stroke-width:1.0;"/><path d="M24.7656,481.875 Q24.9219,481.6563 25.1094,481.5469 Q25.2969,481.4375 25.5156,481.4375 Q25.8906,481.4375 26.125,481.7031 Q26.3594,481.9531 26.3594,482.5625 L26.3594,484.0156 Q26.3594,484.625 26.125,484.8906 Q25.8906,485.1563 25.5156,485.1563 Q25.1719,485.1563 24.9688,484.9531 Q24.7656,484.7656 24.6563,484.25 Q24.6094,483.8906 24.4219,483.7031 Q24.0938,483.3281 23.4844,483.1094 Q22.875,482.8906 22.25,482.8906 Q21.4844,482.8906 20.8438,483.2188 Q20.2188,483.5469 19.7188,484.2969 Q19.2344,485.0469 19.2344,486.0781 L19.2344,487.1719 Q19.2344,488.4063 20.125,489.2344 Q21.0156,490.0469 22.6094,490.0469 Q23.5469,490.0469 24.2031,489.7969 Q24.5938,489.6406 25.0156,489.2031 Q25.2813,488.9375 25.4219,488.8594 Q25.5781,488.7813 25.7813,488.7813 Q26.1094,488.7813 26.3594,489.0469 Q26.625,489.2969 26.625,489.6406 Q26.625,489.9844 26.2813,490.3906 Q25.7813,490.9688 24.9844,491.2969 Q23.9063,491.75 22.6094,491.75 Q21.0938,491.75 19.8906,491.125 Q18.9063,490.625 18.2188,489.5625 Q17.5313,488.4844 17.5313,487.2031 L17.5313,486.0469 Q17.5313,484.7188 18.1406,483.5781 Q18.7656,482.4219 19.8594,481.8125 Q20.9531,481.1875 22.1875,481.1875 Q22.9219,481.1875 23.5625,481.3594 Q24.2188,481.5156 24.7656,481.875 Z " fill="#000000"/><text fill="#000000" font-family="sans-serif" font-size="14" lengthAdjust="spacing" textLength="233" x="36" y="491.7969">BackwardEulerQuasistaticPwScheme</text><line style="stroke:#181818;stroke-width:0.5;" x1="8" x2="271" y1="502" y2="502"/><line style="stroke:#181818;stroke-width:0.5;" x1="8" x2="271" y1="510" y2="510"/></g><!--class BackwardEulerQuasistaticUPwScheme--><g id="elem_BackwardEulerQuasistaticUPwScheme"><rect codeLine="20" fill="#F1F1F1" height="48" id="BackwardEulerQuasistaticUPwScheme" rx="2.5" ry="2.5" style="stroke:#181818;stroke-width:0.5;" width="274" x="307.5" y="470"/><ellipse cx="322.5" cy="486" fill="#ADD1B2" rx="11" ry="11" style="stroke:#181818;stroke-width:1.0;"/><path d="M325.2656,481.875 Q325.4219,481.6563 325.6094,481.5469 Q325.7969,481.4375 326.0156,481.4375 Q326.3906,481.4375 326.625,481.7031 Q326.8594,481.9531 326.8594,482.5625 L326.8594,484.0156 Q326.8594,484.625 326.625,484.8906 Q326.3906,485.1563 326.0156,485.1563 Q325.6719,485.1563 325.4688,484.9531 Q325.2656,484.7656 325.1563,484.25 Q325.1094,483.8906 324.9219,483.7031 Q324.5938,483.3281 323.9844,483.1094 Q323.375,482.8906 322.75,482.8906 Q321.9844,482.8906 321.3438,483.2188 Q320.7188,483.5469 320.2188,484.2969 Q319.7344,485.0469 319.7344,486.0781 L319.7344,487.1719 Q319.7344,488.4063 320.625,489.2344 Q321.5156,490.0469 323.1094,490.0469 Q324.0469,490.0469 324.7031,489.7969 Q325.0938,489.6406 325.5156,489.2031 Q325.7813,488.9375 325.9219,488.8594 Q326.0781,488.7813 326.2813,488.7813 Q326.6094,488.7813 326.8594,489.0469 Q327.125,489.2969 327.125,489.6406 Q327.125,489.9844 326.7813,490.3906 Q326.2813,490.9688 325.4844,491.2969 Q324.4063,491.75 323.1094,491.75 Q321.5938,491.75 320.3906,491.125 Q319.4063,490.625 318.7188,489.5625 Q318.0313,488.4844 318.0313,487.2031 L318.0313,486.0469 Q318.0313,484.7188 318.6406,483.5781 Q319.2656,482.4219 320.3594,481.8125 Q321.4531,481.1875 322.6875,481.1875 Q323.4219,481.1875 324.0625,481.3594 Q324.7188,481.5156 325.2656,481.875 Z " fill="#000000"/><text fill="#000000" font-family="sans-serif" font-size="14" lengthAdjust="spacing" textLength="242" x="336.5" y="491.7969">BackwardEulerQuasistaticUPwScheme</text><line style="stroke:#181818;stroke-width:0.5;" x1="308.5" x2="580.5" y1="502" y2="502"/><line style="stroke:#181818;stroke-width:0.5;" x1="308.5" x2="580.5" y1="510" y2="510"/></g><!--class BackwardEulerQuasistaticTScheme--><g id="elem_BackwardEulerQuasistaticTScheme"><rect codeLine="21" fill="#F1F1F1" height="48" id="BackwardEulerQuasistaticTScheme" rx="2.5" ry="2.5" style="stroke:#181818;stroke-width:0.5;" width="256" x="616.5" y="470"/><ellipse cx="631.5" cy="486" fill="#ADD1B2" rx="11" ry="11" style="stroke:#181818;stroke-width:1.0;"/><path d="M634.2656,481.875 Q634.4219,481.6563 634.6094,481.5469 Q634.7969,481.4375 635.0156,481.4375 Q635.3906,481.4375 635.625,481.7031 Q635.8594,481.9531 635.8594,482.5625 L635.8594,484.0156 Q635.8594,484.625 635.625,484.8906 Q635.3906,485.1563 635.0156,485.1563 Q634.6719,485.1563 634.4688,484.9531 Q634.2656,484.7656 634.1563,484.25 Q634.1094,483.8906 633.9219,483.7031 Q633.5938,483.3281 632.9844,483.1094 Q632.375,482.8906 631.75,482.8906 Q630.9844,482.8906 630.3438,483.2188 Q629.7188,483.5469 629.2188,484.2969 Q628.7344,485.0469 628.7344,486.0781 L628.7344,487.1719 Q628.7344,488.4063 629.625,489.2344 Q630.5156,490.0469 632.1094,490.0469 Q633.0469,490.0469 633.7031,489.7969 Q634.0938,489.6406 634.5156,489.2031 Q634.7813,488.9375 634.9219,488.8594 Q635.0781,488.7813 635.2813,488.7813 Q635.6094,488.7813 635.8594,489.0469 Q636.125,489.2969 636.125,489.6406 Q636.125,489.9844 635.7813,490.3906 Q635.2813,490.9688 634.4844,491.2969 Q633.4063,491.75 632.1094,491.75 Q630.5938,491.75 629.3906,491.125 Q628.4063,490.625 627.7188,489.5625 Q627.0313,488.4844 627.0313,487.2031 L627.0313,486.0469 Q627.0313,484.7188 627.6406,483.5781 Q628.2656,482.4219 629.3594,481.8125 Q630.4531,481.1875 631.6875,481.1875 Q632.4219,481.1875 633.0625,481.3594 Q633.7188,481.5156 634.2656,481.875 Z " fill="#000000"/><text fill="#000000" font-family="sans-serif" font-size="14" lengthAdjust="spacing" textLength="224" x="645.5" y="491.7969">BackwardEulerQuasistaticTScheme</text><line style="stroke:#181818;stroke-width:0.5;" x1="617.5" x2="871.5" y1="502" y2="502"/><line style="stroke:#181818;stroke-width:0.5;" x1="617.5" x2="871.5" y1="510" y2="510"/></g><!--class GeneralizedNewmarkScheme--><g id="elem_GeneralizedNewmarkScheme"><rect codeLine="28" fill="#F1F1F1" height="66.6211" id="GeneralizedNewmarkScheme" rx="2.5" ry="2.5" style="stroke:#181818;stroke-width:0.5;" width="216" x="1454.5" y="306"/><ellipse cx="1469.5" cy="322" fill="#ADD1B2" rx="11" ry="11" style="stroke:#181818;stroke-width:1.0;"/><path d="M1472.2656,317.875 Q1472.4219,317.6563 1472.6094,317.5469 Q1472.7969,317.4375 1473.0156,317.4375 Q1473.3906,317.4375 1473.625,317.7031 Q1473.8594,317.9531 1473.8594,318.5625 L1473.8594,320.0156 Q1473.8594,320.625 1473.625,320.8906 Q1473.3906,321.1563 1473.0156,321.1563 Q1472.6719,321.1563 1472.4688,320.9531 Q1472.2656,320.7656 1472.1563,320.25 Q1472.1094,319.8906 1471.9219,319.7031 Q1471.5938,319.3281 1470.9844,319.1094 Q1470.375,318.8906 1469.75,318.8906 Q1468.9844,318.8906 1468.3438,319.2188 Q1467.7188,319.5469 1467.2188,320.2969 Q1466.7344,321.0469 1466.7344,322.0781 L1466.7344,323.1719 Q1466.7344,324.4063 1467.625,325.2344 Q1468.5156,326.0469 1470.1094,326.0469 Q1471.0469,326.0469 1471.7031,325.7969 Q1472.0938,325.6406 1472.5156,325.2031 Q1472.7813,324.9375 1472.9219,324.8594 Q1473.0781,324.7813 1473.2813,324.7813 Q1473.6094,324.7813 1473.8594,325.0469 Q1474.125,325.2969 1474.125,325.6406 Q1474.125,325.9844 1473.7813,326.3906 Q1473.2813,326.9688 1472.4844,327.2969 Q1471.4063,327.75 1470.1094,327.75 Q1468.5938,327.75 1467.3906,327.125 Q1466.4063,326.625 1465.7188,325.5625 Q1465.0313,324.4844 1465.0313,323.2031 L1465.0313,322.0469 Q1465.0313,320.7188 1465.6406,319.5781 Q1466.2656,318.4219 1467.3594,317.8125 Q1468.4531,317.1875 1469.6875,317.1875 Q1470.4219,317.1875 1471.0625,317.3594 Q1471.7188,317.5156 1472.2656,317.875 Z " fill="#000000"/><text fill="#000000" font-family="sans-serif" font-size="14" lengthAdjust="spacing" textLength="184" x="1483.5" y="327.7969">GeneralizedNewmarkScheme</text><line style="stroke:#181818;stroke-width:0.5;" x1="1455.5" x2="1669.5" y1="338" y2="338"/><line style="stroke:#181818;stroke-width:0.5;" x1="1455.5" x2="1669.5" y1="346" y2="346"/><text fill="#000000" font-family="sans-serif" font-size="14" lengthAdjust="spacing" textLength="200" x="1460.5" y="365.1074">void SetTimeFactors() override;</text></g><!--class NewmarkQuasistaticPwScheme--><g id="elem_NewmarkQuasistaticPwScheme"><rect codeLine="32" fill="#F1F1F1" height="103.8633" id="NewmarkQuasistaticPwScheme" rx="2.5" ry="2.5" style="stroke:#181818;stroke-width:0.5;" width="301" x="908" y="442"/><ellipse cx="956.25" cy="458" fill="#ADD1B2" rx="11" ry="11" style="stroke:#181818;stroke-width:1.0;"/><path d="M959.0156,453.875 Q959.1719,453.6563 959.3594,453.5469 Q959.5469,453.4375 959.7656,453.4375 Q960.1406,453.4375 960.375,453.7031 Q960.6094,453.9531 960.6094,454.5625 L960.6094,456.0156 Q960.6094,456.625 960.375,456.8906 Q960.1406,457.1563 959.7656,457.1563 Q959.4219,457.1563 959.2188,456.9531 Q959.0156,456.7656 958.9063,456.25 Q958.8594,455.8906 958.6719,455.7031 Q958.3438,455.3281 957.7344,455.1094 Q957.125,454.8906 956.5,454.8906 Q955.7344,454.8906 955.0938,455.2188 Q954.4688,455.5469 953.9688,456.2969 Q953.4844,457.0469 953.4844,458.0781 L953.4844,459.1719 Q953.4844,460.4063 954.375,461.2344 Q955.2656,462.0469 956.8594,462.0469 Q957.7969,462.0469 958.4531,461.7969 Q958.8438,461.6406 959.2656,461.2031 Q959.5313,460.9375 959.6719,460.8594 Q959.8281,460.7813 960.0313,460.7813 Q960.3594,460.7813 960.6094,461.0469 Q960.875,461.2969 960.875,461.6406 Q960.875,461.9844 960.5313,462.3906 Q960.0313,462.9688 959.2344,463.2969 Q958.1563,463.75 956.8594,463.75 Q955.3438,463.75 954.1406,463.125 Q953.1563,462.625 952.4688,461.5625 Q951.7813,460.4844 951.7813,459.2031 L951.7813,458.0469 Q951.7813,456.7188 952.3906,455.5781 Q953.0156,454.4219 954.1094,453.8125 Q955.2031,453.1875 956.4375,453.1875 Q957.1719,453.1875 957.8125,453.3594 Q958.4688,453.5156 959.0156,453.875 Z " fill="#000000"/><text fill="#000000" font-family="sans-serif" font-size="14" lengthAdjust="spacing" textLength="196" x="976.75" y="463.7969">NewmarkQuasistaticPwScheme</text><line style="stroke:#181818;stroke-width:0.5;" x1="909" x2="1208" y1="474" y2="474"/><line style="stroke:#181818;stroke-width:0.5;" x1="909" x2="1208" y1="482" y2="482"/><text fill="#000000" font-family="sans-serif" font-size="14" lengthAdjust="spacing" textLength="274" x="914" y="501.1074">void UpdateVariablesDerivatives() override;</text><text fill="#000000" font-family="sans-serif" font-size="14" lengthAdjust="spacing" textLength="289" x="914" y="519.7285">void CalculateSystemContributions() override;</text><text fill="#000000" font-family="sans-serif" font-size="14" lengthAdjust="spacing" textLength="264" x="914" y="538.3496">void CalculateRHSContribution() override;</text></g><!--class GeneralizedNewmarkTScheme--><g id="elem_GeneralizedNewmarkTScheme"><rect codeLine="38" fill="#F1F1F1" height="103.8633" id="GeneralizedNewmarkTScheme" rx="2.5" ry="2.5" style="stroke:#181818;stroke-width:0.5;" width="301" x="1244" y="442"/><ellipse cx="1293.75" cy="458" fill="#ADD1B2" rx="11" ry="11" style="stroke:#181818;stroke-width:1.0;"/><path d="M1296.5156,453.875 Q1296.6719,453.6563 1296.8594,453.5469 Q1297.0469,453.4375 1297.2656,453.4375 Q1297.6406,453.4375 1297.875,453.7031 Q1298.1094,453.9531 1298.1094,454.5625 L1298.1094,456.0156 Q1298.1094,456.625 1297.875,456.8906 Q1297.6406,457.1563 1297.2656,457.1563 Q1296.9219,457.1563 1296.7188,456.9531 Q1296.5156,456.7656 1296.4063,456.25 Q1296.3594,455.8906 1296.1719,455.7031 Q1295.8438,455.3281 1295.2344,455.1094 Q1294.625,454.8906 1294,454.8906 Q1293.2344,454.8906 1292.5938,455.2188 Q1291.9688,455.5469 1291.4688,456.2969 Q1290.9844,457.0469 1290.9844,458.0781 L1290.9844,459.1719 Q1290.9844,460.4063 1291.875,461.2344 Q1292.7656,462.0469 1294.3594,462.0469 Q1295.2969,462.0469 1295.9531,461.7969 Q1296.3438,461.6406 1296.7656,461.2031 Q1297.0313,460.9375 1297.1719,460.8594 Q1297.3281,460.7813 1297.5313,460.7813 Q1297.8594,460.7813 1298.1094,461.0469 Q1298.375,461.2969 1298.375,461.6406 Q1298.375,461.9844 1298.0313,462.3906 Q1297.5313,462.9688 1296.7344,463.2969 Q1295.6563,463.75 1294.3594,463.75 Q1292.8438,463.75 1291.6406,463.125 Q1290.6563,462.625 1289.9688,461.5625 Q1289.2813,460.4844 1289.2813,459.2031 L1289.2813,458.0469 Q1289.2813,456.7188 1289.8906,455.5781 Q1290.5156,454.4219 1291.6094,453.8125 Q1292.7031,453.1875 1293.9375,453.1875 Q1294.6719,453.1875 1295.3125,453.3594 Q1295.9688,453.5156 1296.5156,453.875 Z " fill="#000000"/><text fill="#000000" font-family="sans-serif" font-size="14" lengthAdjust="spacing" textLength="193" x="1314.25" y="463.7969">GeneralizedNewmarkTScheme</text><line style="stroke:#181818;stroke-width:0.5;" x1="1245" x2="1544" y1="474" y2="474"/><line style="stroke:#181818;stroke-width:0.5;" x1="1245" x2="1544" y1="482" y2="482"/><text fill="#000000" font-family="sans-serif" font-size="14" lengthAdjust="spacing" textLength="274" x="1250" y="501.1074">void UpdateVariablesDerivatives() override;</text><text fill="#000000" font-family="sans-serif" font-size="14" lengthAdjust="spacing" textLength="289" x="1250" y="519.7285">void CalculateSystemContributions() override;</text><text fill="#000000" font-family="sans-serif" font-size="14" lengthAdjust="spacing" textLength="264" x="1250" y="538.3496">void CalculateRHSContribution() override;</text></g><!--class NewmarkDynamicUPwScheme--><g id="elem_NewmarkDynamicUPwScheme"><rect codeLine="44" fill="#F1F1F1" height="103.8633" id="NewmarkDynamicUPwScheme" rx="2.5" ry="2.5" style="stroke:#181818;stroke-width:0.5;" width="301" x="1580" y="442"/><ellipse cx="1631.75" cy="458" fill="#ADD1B2" rx="11" ry="11" style="stroke:#181818;stroke-width:1.0;"/><path d="M1634.5156,453.875 Q1634.6719,453.6563 1634.8594,453.5469 Q1635.0469,453.4375 1635.2656,453.4375 Q1635.6406,453.4375 1635.875,453.7031 Q1636.1094,453.9531 1636.1094,454.5625 L1636.1094,456.0156 Q1636.1094,456.625 1635.875,456.8906 Q1635.6406,457.1563 1635.2656,457.1563 Q1634.9219,457.1563 1634.7188,456.9531 Q1634.5156,456.7656 1634.4063,456.25 Q1634.3594,455.8906 1634.1719,455.7031 Q1633.8438,455.3281 1633.2344,455.1094 Q1632.625,454.8906 1632,454.8906 Q1631.2344,454.8906 1630.5938,455.2188 Q1629.9688,455.5469 1629.4688,456.2969 Q1628.9844,457.0469 1628.9844,458.0781 L1628.9844,459.1719 Q1628.9844,460.4063 1629.875,461.2344 Q1630.7656,462.0469 1632.3594,462.0469 Q1633.2969,462.0469 1633.9531,461.7969 Q1634.3438,461.6406 1634.7656,461.2031 Q1635.0313,460.9375 1635.1719,460.8594 Q1635.3281,460.7813 1635.5313,460.7813 Q1635.8594,460.7813 1636.1094,461.0469 Q1636.375,461.2969 1636.375,461.6406 Q1636.375,461.9844 1636.0313,462.3906 Q1635.5313,462.9688 1634.7344,463.2969 Q1633.6563,463.75 1632.3594,463.75 Q1630.8438,463.75 1629.6406,463.125 Q1628.6563,462.625 1627.9688,461.5625 Q1627.2813,460.4844 1627.2813,459.2031 L1627.2813,458.0469 Q1627.2813,456.7188 1627.8906,455.5781 Q1628.5156,454.4219 1629.6094,453.8125 Q1630.7031,453.1875 1631.9375,453.1875 Q1632.6719,453.1875 1633.3125,453.3594 Q1633.9688,453.5156 1634.5156,453.875 Z " fill="#000000"/><text fill="#000000" font-family="sans-serif" font-size="14" lengthAdjust="spacing" textLength="189" x="1652.25" y="463.7969">NewmarkDynamicUPwScheme</text><line style="stroke:#181818;stroke-width:0.5;" x1="1581" x2="1880" y1="474" y2="474"/><line style="stroke:#181818;stroke-width:0.5;" x1="1581" x2="1880" y1="482" y2="482"/><text fill="#000000" font-family="sans-serif" font-size="14" lengthAdjust="spacing" textLength="274" x="1586" y="501.1074">void UpdateVariablesDerivatives() override;</text><text fill="#000000" font-family="sans-serif" font-size="14" lengthAdjust="spacing" textLength="289" x="1586" y="519.7285">void CalculateSystemContributions() override;</text><text fill="#000000" font-family="sans-serif" font-size="14" lengthAdjust="spacing" textLength="264" x="1586" y="538.3496">void CalculateRHSContribution() override;</text></g><!--class NewmarkQuasistaticDampedUPwScheme--><g id="elem_NewmarkQuasistaticDampedUPwScheme"><rect codeLine="50" fill="#F1F1F1" height="103.8633" id="NewmarkQuasistaticDampedUPwScheme" rx="2.5" ry="2.5" style="stroke:#181818;stroke-width:0.5;" width="301" x="1916" y="442"/><ellipse cx="1935.95" cy="458" fill="#ADD1B2" rx="11" ry="11" style="stroke:#181818;stroke-width:1.0;"/><path d="M1938.7156,453.875 Q1938.8719,453.6563 1939.0594,453.5469 Q1939.2469,453.4375 1939.4656,453.4375 Q1939.8406,453.4375 1940.075,453.7031 Q1940.3094,453.9531 1940.3094,454.5625 L1940.3094,456.0156 Q1940.3094,456.625 1940.075,456.8906 Q1939.8406,457.1563 1939.4656,457.1563 Q1939.1219,457.1563 1938.9188,456.9531 Q1938.7156,456.7656 1938.6063,456.25 Q1938.5594,455.8906 1938.3719,455.7031 Q1938.0438,455.3281 1937.4344,455.1094 Q1936.825,454.8906 1936.2,454.8906 Q1935.4344,454.8906 1934.7938,455.2188 Q1934.1688,455.5469 1933.6688,456.2969 Q1933.1844,457.0469 1933.1844,458.0781 L1933.1844,459.1719 Q1933.1844,460.4063 1934.075,461.2344 Q1934.9656,462.0469 1936.5594,462.0469 Q1937.4969,462.0469 1938.1531,461.7969 Q1938.5438,461.6406 1938.9656,461.2031 Q1939.2313,460.9375 1939.3719,460.8594 Q1939.5281,460.7813 1939.7313,460.7813 Q1940.0594,460.7813 1940.3094,461.0469 Q1940.575,461.2969 1940.575,461.6406 Q1940.575,461.9844 1940.2313,462.3906 Q1939.7313,462.9688 1938.9344,463.2969 Q1937.8563,463.75 1936.5594,463.75 Q1935.0438,463.75 1933.8406,463.125 Q1932.8563,462.625 1932.1688,461.5625 Q1931.4813,460.4844 1931.4813,459.2031 L1931.4813,458.0469 Q1931.4813,456.7188 1932.0906,455.5781 Q1932.7156,454.4219 1933.8094,453.8125 Q1934.9031,453.1875 1936.1375,453.1875 Q1936.8719,453.1875 1937.5125,453.3594 Q1938.1688,453.5156 1938.7156,453.875 Z " fill="#000000"/><text fill="#000000" font-family="sans-serif" font-size="14" lengthAdjust="spacing" textLength="258" x="1951.05" y="463.7969">NewmarkQuasistaticDampedUPwScheme</text><line style="stroke:#181818;stroke-width:0.5;" x1="1917" x2="2216" y1="474" y2="474"/><line style="stroke:#181818;stroke-width:0.5;" x1="1917" x2="2216" y1="482" y2="482"/><text fill="#000000" font-family="sans-serif" font-size="14" lengthAdjust="spacing" textLength="274" x="1922" y="501.1074">void UpdateVariablesDerivatives() override;</text><text fill="#000000" font-family="sans-serif" font-size="14" lengthAdjust="spacing" textLength="289" x="1922" y="519.7285">void CalculateSystemContributions() override;</text><text fill="#000000" font-family="sans-serif" font-size="14" lengthAdjust="spacing" textLength="264" x="1922" y="538.3496">void CalculateRHSContribution() override;</text></g><!--class NewmarkQuasistaticUPwScheme--><g id="elem_NewmarkQuasistaticUPwScheme"><rect codeLine="56" fill="#F1F1F1" height="103.8633" id="NewmarkQuasistaticUPwScheme" rx="2.5" ry="2.5" style="stroke:#181818;stroke-width:0.5;" width="301" x="2252" y="442"/><ellipse cx="2295.8" cy="458" fill="#ADD1B2" rx="11" ry="11" style="stroke:#181818;stroke-width:1.0;"/><path d="M2298.5656,453.875 Q2298.7219,453.6563 2298.9094,453.5469 Q2299.0969,453.4375 2299.3156,453.4375 Q2299.6906,453.4375 2299.925,453.7031 Q2300.1594,453.9531 2300.1594,454.5625 L2300.1594,456.0156 Q2300.1594,456.625 2299.925,456.8906 Q2299.6906,457.1563 2299.3156,457.1563 Q2298.9719,457.1563 2298.7688,456.9531 Q2298.5656,456.7656 2298.4563,456.25 Q2298.4094,455.8906 2298.2219,455.7031 Q2297.8938,455.3281 2297.2844,455.1094 Q2296.675,454.8906 2296.05,454.8906 Q2295.2844,454.8906 2294.6438,455.2188 Q2294.0188,455.5469 2293.5188,456.2969 Q2293.0344,457.0469 2293.0344,458.0781 L2293.0344,459.1719 Q2293.0344,460.4063 2293.925,461.2344 Q2294.8156,462.0469 2296.4094,462.0469 Q2297.3469,462.0469 2298.0031,461.7969 Q2298.3938,461.6406 2298.8156,461.2031 Q2299.0813,460.9375 2299.2219,460.8594 Q2299.3781,460.7813 2299.5813,460.7813 Q2299.9094,460.7813 2300.1594,461.0469 Q2300.425,461.2969 2300.425,461.6406 Q2300.425,461.9844 2300.0813,462.3906 Q2299.5813,462.9688 2298.7844,463.2969 Q2297.7063,463.75 2296.4094,463.75 Q2294.8938,463.75 2293.6906,463.125 Q2292.7063,462.625 2292.0188,461.5625 Q2291.3313,460.4844 2291.3313,459.2031 L2291.3313,458.0469 Q2291.3313,456.7188 2291.9406,455.5781 Q2292.5656,454.4219 2293.6594,453.8125 Q2294.7531,453.1875 2295.9875,453.1875 Q2296.7219,453.1875 2297.3625,453.3594 Q2298.0188,453.5156 2298.5656,453.875 Z " fill="#000000"/><text fill="#000000" font-family="sans-serif" font-size="14" lengthAdjust="spacing" textLength="205" x="2316.2" y="463.7969">NewmarkQuasistaticUPwScheme</text><line style="stroke:#181818;stroke-width:0.5;" x1="2253" x2="2552" y1="474" y2="474"/><line style="stroke:#181818;stroke-width:0.5;" x1="2253" x2="2552" y1="482" y2="482"/><text fill="#000000" font-family="sans-serif" font-size="14" lengthAdjust="spacing" textLength="274" x="2258" y="501.1074">void UpdateVariablesDerivatives() override;</text><text fill="#000000" font-family="sans-serif" font-size="14" lengthAdjust="spacing" textLength="289" x="2258" y="519.7285">void CalculateSystemContributions() override;</text><text fill="#000000" font-family="sans-serif" font-size="14" lengthAdjust="spacing" textLength="264" x="2258" y="538.3496">void CalculateRHSContribution() override;</text></g><!--reverse link Scheme to GeoMechanicsTimeIntegrationScheme--><g id="link_Scheme_GeoMechanicsTimeIntegrationScheme"><path codeLine="12" d="M919.5,73.29 C919.5,89.52 919.5,93.94 919.5,115 " fill="none" id="Scheme-backto-GeoMechanicsTimeIntegrationScheme" style="stroke:#181818;stroke-width:1.0;"/><polygon fill="none" points="919.5,55.29,913.5,73.29,925.5,73.29,919.5,55.29" style="stroke:#181818;stroke-width:1.0;"/></g><!--reverse link GeoMechanicsTimeIntegrationScheme to BackwardEulerScheme--><g id="link_GeoMechanicsTimeIntegrationScheme_BackwardEulerScheme"><path codeLine="23" d="M782.361,245.1512 C742.301,265.0612 714.75,278.75 678.13,296.94 " fill="none" id="GeoMechanicsTimeIntegrationScheme-backto-BackwardEulerScheme" style="stroke:#181818;stroke-width:1.0;"/><polygon fill="none" points="798.48,237.14,779.6906,239.7782,785.0314,250.5242,798.48,237.14" style="stroke:#181818;stroke-width:1.0;"/></g><!--reverse link BackwardEulerScheme to BackwardEulerQuasistaticPwScheme--><g id="link_BackwardEulerScheme_BackwardEulerQuasistaticPwScheme"><path codeLine="24" d="M451.9672,387.7226 C396.8572,406.0226 348.48,422.16 289.5,442 C262.52,451.08 232.83,461.15 207.04,469.93 " fill="none" id="BackwardEulerScheme-backto-BackwardEulerQuasistaticPwScheme" style="stroke:#181818;stroke-width:1.0;"/><polygon fill="none" points="469.05,382.05,450.0763,382.0283,453.8581,393.4168,469.05,382.05" style="stroke:#181818;stroke-width:1.0;"/></g><!--reverse link BackwardEulerScheme to BackwardEulerQuasistaticUPwScheme--><g id="link_BackwardEulerScheme_BackwardEulerQuasistaticUPwScheme"><path codeLine="25" d="M540.8871,395.0021 C513.1271,423.2221 490.11,446.63 467.28,469.84 " fill="none" id="BackwardEulerScheme-backto-BackwardEulerQuasistaticUPwScheme" style="stroke:#181818;stroke-width:1.0;"/><polygon fill="none" points="553.51,382.17,536.6097,390.7944,545.1645,399.2097,553.51,382.17" style="stroke:#181818;stroke-width:1.0;"/></g><!--reverse link BackwardEulerScheme to BackwardEulerQuasistaticTScheme--><g id="link_BackwardEulerScheme_BackwardEulerQuasistaticTScheme"><path codeLine="26" d="M648.1129,395.0021 C675.8729,423.2221 698.89,446.63 721.72,469.84 " fill="none" id="BackwardEulerScheme-backto-BackwardEulerQuasistaticTScheme" style="stroke:#181818;stroke-width:1.0;"/><polygon fill="none" points="635.49,382.17,643.8355,399.2097,652.3903,390.7944,635.49,382.17" style="stroke:#181818;stroke-width:1.0;"/></g><!--reverse link GeoMechanicsTimeIntegrationScheme to GeneralizedNewmarkScheme--><g id="link_GeoMechanicsTimeIntegrationScheme_GeneralizedNewmarkScheme"><path codeLine="63" d="M1175.4777,241.295 C1277.1577,266.835 1373.27,290.97 1454.12,311.28 " fill="none" id="GeoMechanicsTimeIntegrationScheme-backto-GeneralizedNewmarkScheme" style="stroke:#181818;stroke-width:1.0;"/><polygon fill="none" points="1158.02,236.91,1174.016,247.1143,1176.9394,235.4758,1158.02,236.91" style="stroke:#181818;stroke-width:1.0;"/></g><!--reverse link GeneralizedNewmarkScheme to NewmarkQuasistaticPwScheme--><g id="link_GeneralizedNewmarkScheme_NewmarkQuasistaticPwScheme"><path codeLine="64" d="M1437.4383,378.2327 C1371.5283,398.1327 1302.76,418.91 1226.5,442 C1220.81,443.72 1215.01,445.48 1209.16,447.25 " fill="none" id="GeneralizedNewmarkScheme-backto-NewmarkQuasistaticPwScheme" style="stroke:#181818;stroke-width:1.0;"/><polygon fill="none" points="1454.67,373.03,1435.7041,372.4888,1439.1725,383.9766,1454.67,373.03" style="stroke:#181818;stroke-width:1.0;"/></g><!--reverse link GeneralizedNewmarkScheme to GeneralizedNewmarkTScheme--><g id="link_GeneralizedNewmarkScheme_GeneralizedNewmarkTScheme"><path codeLine="65" d="M1513.1315,385.3175 C1491.1515,405.2675 1475.91,419.11 1450.97,441.74 " fill="none" id="GeneralizedNewmarkScheme-backto-GeneralizedNewmarkTScheme" style="stroke:#181818;stroke-width:1.0;"/><polygon fill="none" points="1526.46,373.22,1509.099,380.8747,1517.164,389.7604,1526.46,373.22" style="stroke:#181818;stroke-width:1.0;"/></g><!--reverse link GeneralizedNewmarkScheme to NewmarkDynamicUPwScheme--><g id="link_GeneralizedNewmarkScheme_NewmarkDynamicUPwScheme"><path codeLine="66" d="M1611.8685,385.3175 C1633.8485,405.2675 1649.09,419.11 1674.03,441.74 " fill="none" id="GeneralizedNewmarkScheme-backto-NewmarkDynamicUPwScheme" style="stroke:#181818;stroke-width:1.0;"/><polygon fill="none" points="1598.54,373.22,1607.836,389.7604,1615.901,380.8747,1598.54,373.22" style="stroke:#181818;stroke-width:1.0;"/></g><!--reverse link GeneralizedNewmarkScheme to NewmarkQuasistaticDampedUPwScheme--><g id="link_GeneralizedNewmarkScheme_NewmarkQuasistaticDampedUPwScheme"><path codeLine="67" d="M1687.5617,378.2327 C1753.4717,398.1327 1822.24,418.91 1898.5,442 C1904.19,443.72 1909.99,445.48 1915.84,447.25 " fill="none" id="GeneralizedNewmarkScheme-backto-NewmarkQuasistaticDampedUPwScheme" style="stroke:#181818;stroke-width:1.0;"/><polygon fill="none" points="1670.33,373.03,1685.8275,383.9766,1689.2959,372.4888,1670.33,373.03" style="stroke:#181818;stroke-width:1.0;"/></g><!--reverse link GeneralizedNewmarkScheme to NewmarkQuasistaticUPwScheme--><g id="link_GeneralizedNewmarkScheme_NewmarkQuasistaticUPwScheme"><path codeLine="68" d="M1688.6438,354.002 C1822.2038,369.252 2037.85,397.55 2234.5,442 C2240.15,443.28 2245.88,444.65 2251.66,446.08 " fill="none" id="GeneralizedNewmarkScheme-backto-NewmarkQuasistaticUPwScheme" style="stroke:#181818;stroke-width:1.0;"/><polygon fill="none" points="1670.76,351.96,1687.9631,359.9633,1689.3245,348.0407,1670.76,351.96" style="stroke:#181818;stroke-width:1.0;"/></g><!--SRC=[rLJBLi8m4DttAx9J5nNN55q8WYvyjh0Vab5oIDgU92q7bN-tBwNG5efkiBjaxftSEu-Up8m9TRVJ2GNu9fBYd0QoGmLeRJCERmgaPS5K6mNKaEoUk7I64gtyCCBW7kaCV4wrnoNU-GOJbk61N-0-B99yDj66TRinKXEetf0hRHuLG-LI4A0ce3XC1LwHruQ8TchIk4W3dsNeINQppgERGacYB5FCbOb0a3ZWZ8n31WP_80DKF4uynAXFpyWbkN2g51TDwdS8QV84vbWhAtTCUf-stQ8mHGMlWSuNeDXD95BJfPhjbnR4g1HdwApnsxfAc5NTYyyHQAvDaf8-BJPQsmGRjyHvtpxtbYAlM5qXQkvgm7KU3cQEVq_rDZiwGXyL2FwEx04N4jIysjOMRIguTUR-C1zz43GI2SLTQeEo7_X6yMcKDcCVu-NMBSDhHLUzUqUlkH0wMFeWotDmz8fBep406IBxdzgFMtNRtrVZrZS5SjgEBTzDRDwqLWzMflrGcTiJToX_pVm2]--></g></svg>