<?xml version="1.0" encoding="us-ascii" standalone="no"?><svg xmlns="http://www.w3.org/2000/svg" xmlns:xlink="http://www.w3.org/1999/xlink" contentStyleType="text/css" height="569px" preserveAspectRatio="none" style="width:1846px;height:569px;background:#FFFFFF;" version="1.1" viewBox="0 0 1846 569" width="1846px" zoomAndPan="magnify"><defs/><g><!--class Scheme--><g id="elem_Scheme"><rect codeLine="3" fill="#F1F1F1" height="48" id="Scheme" rx="2.5" ry="2.5" style="stroke:#181818;stroke-width:0.5;" width="83" x="777" y="7"/><ellipse cx="792" cy="23" fill="#A9DCDF" rx="11" ry="11" style="stroke:#181818;stroke-width:1.0;"/><path d="M794.1875,24.7656 L790.0469,24.7656 L789.625,25.7969 L790.0469,25.7969 Q790.6563,25.7969 790.9219,26.0313 Q791.1875,26.2656 791.1875,26.6563 Q791.1875,27.0313 790.9219,27.2656 Q790.6563,27.5 790.0469,27.5 L787.75,27.5 Q787.1406,27.5 786.8906,27.2656 Q786.625,27.0313 786.625,26.6406 Q786.625,26.2656 786.9063,26.0313 Q787.1719,25.7813 787.7969,25.7969 L790.4688,19.1406 L789.3594,19.1406 Q788.75,19.1406 788.4844,18.9063 Q788.2188,18.6719 788.2188,18.2813 Q788.2188,17.9063 788.4844,17.6719 Q788.75,17.4375 789.3594,17.4375 L793.0313,17.4375 L796.4219,25.7969 Q797.0156,25.7969 797.2031,25.9375 Q797.5938,26.2031 797.5938,26.6563 Q797.5938,27.0313 797.3281,27.2656 Q797.0781,27.5 796.4688,27.5 L794.1719,27.5 Q793.5625,27.5 793.2969,27.2656 Q793.0313,27.0313 793.0313,26.6406 Q793.0313,26.2656 793.2969,26.0313 Q793.5625,25.7969 794.1719,25.7969 L794.5938,25.7969 L794.1875,24.7656 Z M793.4688,23.0625 L792.1094,19.6875 L790.7344,23.0625 L793.4688,23.0625 Z " fill="#000000"/><text fill="#000000" font-family="sans-serif" font-size="14" font-style="italic" lengthAdjust="spacing" textLength="51" x="806" y="28.7969">Scheme</text><line style="stroke:#181818;stroke-width:0.5;" x1="778" x2="859" y1="39" y2="39"/><line style="stroke:#181818;stroke-width:0.5;" x1="778" x2="859" y1="47" y2="47"/></g><!--class GeoMechanicsTimeIntegrationScheme--><g id="elem_GeoMechanicsTimeIntegrationScheme"><rect codeLine="4" fill="#F1F1F1" height="103.8633" id="GeoMechanicsTimeIntegrationScheme" rx="2.5" ry="2.5" style="stroke:#181818;stroke-width:0.5;" width="477" x="580" y="115"/><ellipse cx="692.75" cy="131" fill="#ADD1B2" rx="11" ry="11" style="stroke:#181818;stroke-width:1.0;"/><path d="M695.5156,126.875 Q695.6719,126.6563 695.8594,126.5469 Q696.0469,126.4375 696.2656,126.4375 Q696.6406,126.4375 696.875,126.7031 Q697.1094,126.9531 697.1094,127.5625 L697.1094,129.0156 Q697.1094,129.625 696.875,129.8906 Q696.6406,130.1563 696.2656,130.1563 Q695.9219,130.1563 695.7188,129.9531 Q695.5156,129.7656 695.4063,129.25 Q695.3594,128.8906 695.1719,128.7031 Q694.8438,128.3281 694.2344,128.1094 Q693.625,127.8906 693,127.8906 Q692.2344,127.8906 691.5938,128.2188 Q690.9688,128.5469 690.4688,129.2969 Q689.9844,130.0469 689.9844,131.0781 L689.9844,132.1719 Q689.9844,133.4063 690.875,134.2344 Q691.7656,135.0469 693.3594,135.0469 Q694.2969,135.0469 694.9531,134.7969 Q695.3438,134.6406 695.7656,134.2031 Q696.0313,133.9375 696.1719,133.8594 Q696.3281,133.7813 696.5313,133.7813 Q696.8594,133.7813 697.1094,134.0469 Q697.375,134.2969 697.375,134.6406 Q697.375,134.9844 697.0313,135.3906 Q696.5313,135.9688 695.7344,136.2969 Q694.6563,136.75 693.3594,136.75 Q691.8438,136.75 690.6406,136.125 Q689.6563,135.625 688.9688,134.5625 Q688.2813,133.4844 688.2813,132.2031 L688.2813,131.0469 Q688.2813,129.7188 688.8906,128.5781 Q689.5156,127.4219 690.6094,126.8125 Q691.7031,126.1875 692.9375,126.1875 Q693.6719,126.1875 694.3125,126.3594 Q694.9688,126.5156 695.5156,126.875 Z " fill="#000000"/><text fill="#000000" font-family="sans-serif" font-size="14" lengthAdjust="spacing" textLength="243" x="713.25" y="136.7969">GeoMechanicsTimeIntegrationScheme</text><line style="stroke:#181818;stroke-width:0.5;" x1="581" x2="1056" y1="147" y2="147"/><rect fill="none" height="6" style="stroke:#C82930;stroke-width:1.0;" width="6" x="588" y="158.8105"/><text fill="#000000" font-family="sans-serif" font-size="14" lengthAdjust="spacing" textLength="406" x="600" y="166.1074">std::vector&lt;FirstOrderScalarVariable&gt; firstOrderScalarVariables;</text><rect fill="none" height="6" style="stroke:#C82930;stroke-width:1.0;" width="6" x="588" y="177.4316"/><text fill="#000000" font-family="sans-serif" font-size="14" lengthAdjust="spacing" textLength="451" x="600" y="184.7285">std::vector&lt;SecondOrderVectorVariable&gt; secondOrderVectorVariables;</text><line style="stroke:#181818;stroke-width:0.5;" x1="581" x2="1056" y1="192.2422" y2="192.2422"/><text fill="#000000" font-family="sans-serif" font-size="14" lengthAdjust="spacing" textLength="284" x="586" y="211.3496">virtual void UpdateVariablesDerivatives() = 0;</text></g><!--class BackwardEulerScheme--><g id="elem_BackwardEulerScheme"><rect codeLine="13" fill="#F1F1F1" height="66.6211" id="BackwardEulerScheme" rx="2.5" ry="2.5" style="stroke:#181818;stroke-width:0.5;" width="286" x="515.5" y="279"/><ellipse cx="581.75" cy="295" fill="#ADD1B2" rx="11" ry="11" style="stroke:#181818;stroke-width:1.0;"/><path d="M584.5156,290.875 Q584.6719,290.6563 584.8594,290.5469 Q585.0469,290.4375 585.2656,290.4375 Q585.6406,290.4375 585.875,290.7031 Q586.1094,290.9531 586.1094,291.5625 L586.1094,293.0156 Q586.1094,293.625 585.875,293.8906 Q585.6406,294.1563 585.2656,294.1563 Q584.9219,294.1563 584.7188,293.9531 Q584.5156,293.7656 584.4063,293.25 Q584.3594,292.8906 584.1719,292.7031 Q583.8438,292.3281 583.2344,292.1094 Q582.625,291.8906 582,291.8906 Q581.2344,291.8906 580.5938,292.2188 Q579.9688,292.5469 579.4688,293.2969 Q578.9844,294.0469 578.9844,295.0781 L578.9844,296.1719 Q578.9844,297.4063 579.875,298.2344 Q580.7656,299.0469 582.3594,299.0469 Q583.2969,299.0469 583.9531,298.7969 Q584.3438,298.6406 584.7656,298.2031 Q585.0313,297.9375 585.1719,297.8594 Q585.3281,297.7813 585.5313,297.7813 Q585.8594,297.7813 586.1094,298.0469 Q586.375,298.2969 586.375,298.6406 Q586.375,298.9844 586.0313,299.3906 Q585.5313,299.9688 584.7344,300.2969 Q583.6563,300.75 582.3594,300.75 Q580.8438,300.75 579.6406,300.125 Q578.6563,299.625 577.9688,298.5625 Q577.2813,297.4844 577.2813,296.2031 L577.2813,295.0469 Q577.2813,293.7188 577.8906,292.5781 Q578.5156,291.4219 579.6094,290.8125 Q580.7031,290.1875 581.9375,290.1875 Q582.6719,290.1875 583.3125,290.3594 Q583.9688,290.5156 584.5156,290.875 Z " fill="#000000"/><text fill="#000000" font-family="sans-serif" font-size="14" lengthAdjust="spacing" textLength="145" x="602.25" y="300.7969">BackwardEulerScheme</text><line style="stroke:#181818;stroke-width:0.5;" x1="516.5" x2="800.5" y1="311" y2="311"/><line style="stroke:#181818;stroke-width:0.5;" x1="516.5" x2="800.5" y1="319" y2="319"/><text fill="#000000" font-family="sans-serif" font-size="14" lengthAdjust="spacing" textLength="274" x="521.5" y="338.1074">void UpdateVariablesDerivatives() override;</text></g><!--class BackwardEulerQuasistaticPwScheme--><g id="elem_BackwardEulerQuasistaticPwScheme"><rect codeLine="17" fill="#F1F1F1" height="48" id="BackwardEulerQuasistaticPwScheme" rx="2.5" ry="2.5" style="stroke:#181818;stroke-width:0.5;" width="265" x="7" y="406"/><ellipse cx="22" cy="422" fill="#ADD1B2" rx="11" ry="11" style="stroke:#181818;stroke-width:1.0;"/><path d="M24.7656,417.875 Q24.9219,417.6563 25.1094,417.5469 Q25.2969,417.4375 25.5156,417.4375 Q25.8906,417.4375 26.125,417.7031 Q26.3594,417.9531 26.3594,418.5625 L26.3594,420.0156 Q26.3594,420.625 26.125,420.8906 Q25.8906,421.1563 25.5156,421.1563 Q25.1719,421.1563 24.9688,420.9531 Q24.7656,420.7656 24.6563,420.25 Q24.6094,419.8906 24.4219,419.7031 Q24.0938,419.3281 23.4844,419.1094 Q22.875,418.8906 22.25,418.8906 Q21.4844,418.8906 20.8438,419.2188 Q20.2188,419.5469 19.7188,420.2969 Q19.2344,421.0469 19.2344,422.0781 L19.2344,423.1719 Q19.2344,424.4063 20.125,425.2344 Q21.0156,426.0469 22.6094,426.0469 Q23.5469,426.0469 24.2031,425.7969 Q24.5938,425.6406 25.0156,425.2031 Q25.2813,424.9375 25.4219,424.8594 Q25.5781,424.7813 25.7813,424.7813 Q26.1094,424.7813 26.3594,425.0469 Q26.625,425.2969 26.625,425.6406 Q26.625,425.9844 26.2813,426.3906 Q25.7813,426.9688 24.9844,427.2969 Q23.9063,427.75 22.6094,427.75 Q21.0938,427.75 19.8906,427.125 Q18.9063,426.625 18.2188,425.5625 Q17.5313,424.4844 17.5313,423.2031 L17.5313,422.0469 Q17.5313,420.7188 18.1406,419.5781 Q18.7656,418.4219 19.8594,417.8125 Q20.9531,417.1875 22.1875,417.1875 Q22.9219,417.1875 23.5625,417.3594 Q24.2188,417.5156 24.7656,417.875 Z " fill="#000000"/><text fill="#000000" font-family="sans-serif" font-size="14" lengthAdjust="spacing" textLength="233" x="36" y="427.7969">BackwardEulerQuasistaticPwScheme</text><line style="stroke:#181818;stroke-width:0.5;" x1="8" x2="271" y1="438" y2="438"/><line style="stroke:#181818;stroke-width:0.5;" x1="8" x2="271" y1="446" y2="446"/></g><!--class BackwardEulerQuasistaticUPwScheme--><g id="elem_BackwardEulerQuasistaticUPwScheme"><rect codeLine="18" fill="#F1F1F1" height="48" id="BackwardEulerQuasistaticUPwScheme" rx="2.5" ry="2.5" style="stroke:#181818;stroke-width:0.5;" width="274" x="307.5" y="406"/><ellipse cx="322.5" cy="422" fill="#ADD1B2" rx="11" ry="11" style="stroke:#181818;stroke-width:1.0;"/><path d="M325.2656,417.875 Q325.4219,417.6563 325.6094,417.5469 Q325.7969,417.4375 326.0156,417.4375 Q326.3906,417.4375 326.625,417.7031 Q326.8594,417.9531 326.8594,418.5625 L326.8594,420.0156 Q326.8594,420.625 326.625,420.8906 Q326.3906,421.1563 326.0156,421.1563 Q325.6719,421.1563 325.4688,420.9531 Q325.2656,420.7656 325.1563,420.25 Q325.1094,419.8906 324.9219,419.7031 Q324.5938,419.3281 323.9844,419.1094 Q323.375,418.8906 322.75,418.8906 Q321.9844,418.8906 321.3438,419.2188 Q320.7188,419.5469 320.2188,420.2969 Q319.7344,421.0469 319.7344,422.0781 L319.7344,423.1719 Q319.7344,424.4063 320.625,425.2344 Q321.5156,426.0469 323.1094,426.0469 Q324.0469,426.0469 324.7031,425.7969 Q325.0938,425.6406 325.5156,425.2031 Q325.7813,424.9375 325.9219,424.8594 Q326.0781,424.7813 326.2813,424.7813 Q326.6094,424.7813 326.8594,425.0469 Q327.125,425.2969 327.125,425.6406 Q327.125,425.9844 326.7813,426.3906 Q326.2813,426.9688 325.4844,427.2969 Q324.4063,427.75 323.1094,427.75 Q321.5938,427.75 320.3906,427.125 Q319.4063,426.625 318.7188,425.5625 Q318.0313,424.4844 318.0313,423.2031 L318.0313,422.0469 Q318.0313,420.7188 318.6406,419.5781 Q319.2656,418.4219 320.3594,417.8125 Q321.4531,417.1875 322.6875,417.1875 Q323.4219,417.1875 324.0625,417.3594 Q324.7188,417.5156 325.2656,417.875 Z " fill="#000000"/><text fill="#000000" font-family="sans-serif" font-size="14" lengthAdjust="spacing" textLength="242" x="336.5" y="427.7969">BackwardEulerQuasistaticUPwScheme</text><line style="stroke:#181818;stroke-width:0.5;" x1="308.5" x2="580.5" y1="438" y2="438"/><line style="stroke:#181818;stroke-width:0.5;" x1="308.5" x2="580.5" y1="446" y2="446"/></g><!--class BackwardEulerQuasistaticTScheme--><g id="elem_BackwardEulerQuasistaticTScheme"><rect codeLine="19" fill="#F1F1F1" height="48" id="BackwardEulerQuasistaticTScheme" rx="2.5" ry="2.5" style="stroke:#181818;stroke-width:0.5;" width="256" x="616.5" y="406"/><ellipse cx="631.5" cy="422" fill="#ADD1B2" rx="11" ry="11" style="stroke:#181818;stroke-width:1.0;"/><path d="M634.2656,417.875 Q634.4219,417.6563 634.6094,417.5469 Q634.7969,417.4375 635.0156,417.4375 Q635.3906,417.4375 635.625,417.7031 Q635.8594,417.9531 635.8594,418.5625 L635.8594,420.0156 Q635.8594,420.625 635.625,420.8906 Q635.3906,421.1563 635.0156,421.1563 Q634.6719,421.1563 634.4688,420.9531 Q634.2656,420.7656 634.1563,420.25 Q634.1094,419.8906 633.9219,419.7031 Q633.5938,419.3281 632.9844,419.1094 Q632.375,418.8906 631.75,418.8906 Q630.9844,418.8906 630.3438,419.2188 Q629.7188,419.5469 629.2188,420.2969 Q628.7344,421.0469 628.7344,422.0781 L628.7344,423.1719 Q628.7344,424.4063 629.625,425.2344 Q630.5156,426.0469 632.1094,426.0469 Q633.0469,426.0469 633.7031,425.7969 Q634.0938,425.6406 634.5156,425.2031 Q634.7813,424.9375 634.9219,424.8594 Q635.0781,424.7813 635.2813,424.7813 Q635.6094,424.7813 635.8594,425.0469 Q636.125,425.2969 636.125,425.6406 Q636.125,425.9844 635.7813,426.3906 Q635.2813,426.9688 634.4844,427.2969 Q633.4063,427.75 632.1094,427.75 Q630.5938,427.75 629.3906,427.125 Q628.4063,426.625 627.7188,425.5625 Q627.0313,424.4844 627.0313,423.2031 L627.0313,422.0469 Q627.0313,420.7188 627.6406,419.5781 Q628.2656,418.4219 629.3594,417.8125 Q630.4531,417.1875 631.6875,417.1875 Q632.4219,417.1875 633.0625,417.3594 Q633.7188,417.5156 634.2656,417.875 Z " fill="#000000"/><text fill="#000000" font-family="sans-serif" font-size="14" lengthAdjust="spacing" textLength="224" x="645.5" y="427.7969">BackwardEulerQuasistaticTScheme</text><line style="stroke:#181818;stroke-width:0.5;" x1="617.5" x2="871.5" y1="438" y2="438"/><line style="stroke:#181818;stroke-width:0.5;" x1="617.5" x2="871.5" y1="446" y2="446"/></g><!--class GeneralizedNewmarkScheme--><g id="elem_GeneralizedNewmarkScheme"><rect codeLine="26" fill="#F1F1F1" height="66.6211" id="GeneralizedNewmarkScheme" rx="2.5" ry="2.5" style="stroke:#181818;stroke-width:0.5;" width="286" x="964.5" y="279"/><ellipse cx="1011.25" cy="295" fill="#ADD1B2" rx="11" ry="11" style="stroke:#181818;stroke-width:1.0;"/><path d="M1014.0156,290.875 Q1014.1719,290.6563 1014.3594,290.5469 Q1014.5469,290.4375 1014.7656,290.4375 Q1015.1406,290.4375 1015.375,290.7031 Q1015.6094,290.9531 1015.6094,291.5625 L1015.6094,293.0156 Q1015.6094,293.625 1015.375,293.8906 Q1015.1406,294.1563 1014.7656,294.1563 Q1014.4219,294.1563 1014.2188,293.9531 Q1014.0156,293.7656 1013.9063,293.25 Q1013.8594,292.8906 1013.6719,292.7031 Q1013.3438,292.3281 1012.7344,292.1094 Q1012.125,291.8906 1011.5,291.8906 Q1010.7344,291.8906 1010.0938,292.2188 Q1009.4688,292.5469 1008.9688,293.2969 Q1008.4844,294.0469 1008.4844,295.0781 L1008.4844,296.1719 Q1008.4844,297.4063 1009.375,298.2344 Q1010.2656,299.0469 1011.8594,299.0469 Q1012.7969,299.0469 1013.4531,298.7969 Q1013.8438,298.6406 1014.2656,298.2031 Q1014.5313,297.9375 1014.6719,297.8594 Q1014.8281,297.7813 1015.0313,297.7813 Q1015.3594,297.7813 1015.6094,298.0469 Q1015.875,298.2969 1015.875,298.6406 Q1015.875,298.9844 1015.5313,299.3906 Q1015.0313,299.9688 1014.2344,300.2969 Q1013.1563,300.75 1011.8594,300.75 Q1010.3438,300.75 1009.1406,300.125 Q1008.1563,299.625 1007.4688,298.5625 Q1006.7813,297.4844 1006.7813,296.2031 L1006.7813,295.0469 Q1006.7813,293.7188 1007.3906,292.5781 Q1008.0156,291.4219 1009.1094,290.8125 Q1010.2031,290.1875 1011.4375,290.1875 Q1012.1719,290.1875 1012.8125,290.3594 Q1013.4688,290.5156 1014.0156,290.875 Z " fill="#000000"/><text fill="#000000" font-family="sans-serif" font-size="14" lengthAdjust="spacing" textLength="184" x="1031.75" y="300.7969">GeneralizedNewmarkScheme</text><line style="stroke:#181818;stroke-width:0.5;" x1="965.5" x2="1249.5" y1="311" y2="311"/><line style="stroke:#181818;stroke-width:0.5;" x1="965.5" x2="1249.5" y1="319" y2="319"/><text fill="#000000" font-family="sans-serif" font-size="14" lengthAdjust="spacing" textLength="274" x="970.5" y="338.1074">void UpdateVariablesDerivatives() override;</text></g><!--class NewmarkQuasistaticPwScheme--><g id="elem_NewmarkQuasistaticPwScheme"><rect codeLine="30" fill="#F1F1F1" height="48" id="NewmarkQuasistaticPwScheme" rx="2.5" ry="2.5" style="stroke:#181818;stroke-width:0.5;" width="228" x="907.5" y="406"/><ellipse cx="922.5" cy="422" fill="#ADD1B2" rx="11" ry="11" style="stroke:#181818;stroke-width:1.0;"/><path d="M925.2656,417.875 Q925.4219,417.6563 925.6094,417.5469 Q925.7969,417.4375 926.0156,417.4375 Q926.3906,417.4375 926.625,417.7031 Q926.8594,417.9531 926.8594,418.5625 L926.8594,420.0156 Q926.8594,420.625 926.625,420.8906 Q926.3906,421.1563 926.0156,421.1563 Q925.6719,421.1563 925.4688,420.9531 Q925.2656,420.7656 925.1563,420.25 Q925.1094,419.8906 924.9219,419.7031 Q924.5938,419.3281 923.9844,419.1094 Q923.375,418.8906 922.75,418.8906 Q921.9844,418.8906 921.3438,419.2188 Q920.7188,419.5469 920.2188,420.2969 Q919.7344,421.0469 919.7344,422.0781 L919.7344,423.1719 Q919.7344,424.4063 920.625,425.2344 Q921.5156,426.0469 923.1094,426.0469 Q924.0469,426.0469 924.7031,425.7969 Q925.0938,425.6406 925.5156,425.2031 Q925.7813,424.9375 925.9219,424.8594 Q926.0781,424.7813 926.2813,424.7813 Q926.6094,424.7813 926.8594,425.0469 Q927.125,425.2969 927.125,425.6406 Q927.125,425.9844 926.7813,426.3906 Q926.2813,426.9688 925.4844,427.2969 Q924.4063,427.75 923.1094,427.75 Q921.5938,427.75 920.3906,427.125 Q919.4063,426.625 918.7188,425.5625 Q918.0313,424.4844 918.0313,423.2031 L918.0313,422.0469 Q918.0313,420.7188 918.6406,419.5781 Q919.2656,418.4219 920.3594,417.8125 Q921.4531,417.1875 922.6875,417.1875 Q923.4219,417.1875 924.0625,417.3594 Q924.7188,417.5156 925.2656,417.875 Z " fill="#000000"/><text fill="#000000" font-family="sans-serif" font-size="14" lengthAdjust="spacing" textLength="196" x="936.5" y="427.7969">NewmarkQuasistaticPwScheme</text><line style="stroke:#181818;stroke-width:0.5;" x1="908.5" x2="1134.5" y1="438" y2="438"/><line style="stroke:#181818;stroke-width:0.5;" x1="908.5" x2="1134.5" y1="446" y2="446"/></g><!--class GeneralizedNewmarkTScheme--><g id="elem_GeneralizedNewmarkTScheme"><rect codeLine="31" fill="#F1F1F1" height="48" id="GeneralizedNewmarkTScheme" rx="2.5" ry="2.5" style="stroke:#181818;stroke-width:0.5;" width="225" x="1171" y="406"/><ellipse cx="1186" cy="422" fill="#ADD1B2" rx="11" ry="11" style="stroke:#181818;stroke-width:1.0;"/><path d="M1188.7656,417.875 Q1188.9219,417.6563 1189.1094,417.5469 Q1189.2969,417.4375 1189.5156,417.4375 Q1189.8906,417.4375 1190.125,417.7031 Q1190.3594,417.9531 1190.3594,418.5625 L1190.3594,420.0156 Q1190.3594,420.625 1190.125,420.8906 Q1189.8906,421.1563 1189.5156,421.1563 Q1189.1719,421.1563 1188.9688,420.9531 Q1188.7656,420.7656 1188.6563,420.25 Q1188.6094,419.8906 1188.4219,419.7031 Q1188.0938,419.3281 1187.4844,419.1094 Q1186.875,418.8906 1186.25,418.8906 Q1185.4844,418.8906 1184.8438,419.2188 Q1184.2188,419.5469 1183.7188,420.2969 Q1183.2344,421.0469 1183.2344,422.0781 L1183.2344,423.1719 Q1183.2344,424.4063 1184.125,425.2344 Q1185.0156,426.0469 1186.6094,426.0469 Q1187.5469,426.0469 1188.2031,425.7969 Q1188.5938,425.6406 1189.0156,425.2031 Q1189.2813,424.9375 1189.4219,424.8594 Q1189.5781,424.7813 1189.7813,424.7813 Q1190.1094,424.7813 1190.3594,425.0469 Q1190.625,425.2969 1190.625,425.6406 Q1190.625,425.9844 1190.2813,426.3906 Q1189.7813,426.9688 1188.9844,427.2969 Q1187.9063,427.75 1186.6094,427.75 Q1185.0938,427.75 1183.8906,427.125 Q1182.9063,426.625 1182.2188,425.5625 Q1181.5313,424.4844 1181.5313,423.2031 L1181.5313,422.0469 Q1181.5313,420.7188 1182.1406,419.5781 Q1182.7656,418.4219 1183.8594,417.8125 Q1184.9531,417.1875 1186.1875,417.1875 Q1186.9219,417.1875 1187.5625,417.3594 Q1188.2188,417.5156 1188.7656,417.875 Z " fill="#000000"/><text fill="#000000" font-family="sans-serif" font-size="14" lengthAdjust="spacing" textLength="193" x="1200" y="427.7969">GeneralizedNewmarkTScheme</text><line style="stroke:#181818;stroke-width:0.5;" x1="1172" x2="1395" y1="438" y2="438"/><line style="stroke:#181818;stroke-width:0.5;" x1="1172" x2="1395" y1="446" y2="446"/></g><!--class NewmarkQuasistaticUPwScheme--><g id="elem_NewmarkQuasistaticUPwScheme"><rect codeLine="32" fill="#F1F1F1" height="48" id="NewmarkQuasistaticUPwScheme" rx="2.5" ry="2.5" style="stroke:#181818;stroke-width:0.5;" width="237" x="1431" y="406"/><ellipse cx="1446" cy="422" fill="#ADD1B2" rx="11" ry="11" style="stroke:#181818;stroke-width:1.0;"/><path d="M1448.7656,417.875 Q1448.9219,417.6563 1449.1094,417.5469 Q1449.2969,417.4375 1449.5156,417.4375 Q1449.8906,417.4375 1450.125,417.7031 Q1450.3594,417.9531 1450.3594,418.5625 L1450.3594,420.0156 Q1450.3594,420.625 1450.125,420.8906 Q1449.8906,421.1563 1449.5156,421.1563 Q1449.1719,421.1563 1448.9688,420.9531 Q1448.7656,420.7656 1448.6563,420.25 Q1448.6094,419.8906 1448.4219,419.7031 Q1448.0938,419.3281 1447.4844,419.1094 Q1446.875,418.8906 1446.25,418.8906 Q1445.4844,418.8906 1444.8438,419.2188 Q1444.2188,419.5469 1443.7188,420.2969 Q1443.2344,421.0469 1443.2344,422.0781 L1443.2344,423.1719 Q1443.2344,424.4063 1444.125,425.2344 Q1445.0156,426.0469 1446.6094,426.0469 Q1447.5469,426.0469 1448.2031,425.7969 Q1448.5938,425.6406 1449.0156,425.2031 Q1449.2813,424.9375 1449.4219,424.8594 Q1449.5781,424.7813 1449.7813,424.7813 Q1450.1094,424.7813 1450.3594,425.0469 Q1450.625,425.2969 1450.625,425.6406 Q1450.625,425.9844 1450.2813,426.3906 Q1449.7813,426.9688 1448.9844,427.2969 Q1447.9063,427.75 1446.6094,427.75 Q1445.0938,427.75 1443.8906,427.125 Q1442.9063,426.625 1442.2188,425.5625 Q1441.5313,424.4844 1441.5313,423.2031 L1441.5313,422.0469 Q1441.5313,420.7188 1442.1406,419.5781 Q1442.7656,418.4219 1443.8594,417.8125 Q1444.9531,417.1875 1446.1875,417.1875 Q1446.9219,417.1875 1447.5625,417.3594 Q1448.2188,417.5156 1448.7656,417.875 Z " fill="#000000"/><text fill="#000000" font-family="sans-serif" font-size="14" lengthAdjust="spacing" textLength="205" x="1460" y="427.7969">NewmarkQuasistaticUPwScheme</text><line style="stroke:#181818;stroke-width:0.5;" x1="1432" x2="1667" y1="438" y2="438"/><line style="stroke:#181818;stroke-width:0.5;" x1="1432" x2="1667" y1="446" y2="446"/></g><!--class NewmarkDynamicUPwScheme--><g id="elem_NewmarkDynamicUPwScheme"><rect codeLine="33" fill="#F1F1F1" height="48" id="NewmarkDynamicUPwScheme" rx="2.5" ry="2.5" style="stroke:#181818;stroke-width:0.5;" width="221" x="1293" y="514"/><ellipse cx="1308" cy="530" fill="#ADD1B2" rx="11" ry="11" style="stroke:#181818;stroke-width:1.0;"/><path d="M1310.7656,525.875 Q1310.9219,525.6563 1311.1094,525.5469 Q1311.2969,525.4375 1311.5156,525.4375 Q1311.8906,525.4375 1312.125,525.7031 Q1312.3594,525.9531 1312.3594,526.5625 L1312.3594,528.0156 Q1312.3594,528.625 1312.125,528.8906 Q1311.8906,529.1563 1311.5156,529.1563 Q1311.1719,529.1563 1310.9688,528.9531 Q1310.7656,528.7656 1310.6563,528.25 Q1310.6094,527.8906 1310.4219,527.7031 Q1310.0938,527.3281 1309.4844,527.1094 Q1308.875,526.8906 1308.25,526.8906 Q1307.4844,526.8906 1306.8438,527.2188 Q1306.2188,527.5469 1305.7188,528.2969 Q1305.2344,529.0469 1305.2344,530.0781 L1305.2344,531.1719 Q1305.2344,532.4063 1306.125,533.2344 Q1307.0156,534.0469 1308.6094,534.0469 Q1309.5469,534.0469 1310.2031,533.7969 Q1310.5938,533.6406 1311.0156,533.2031 Q1311.2813,532.9375 1311.4219,532.8594 Q1311.5781,532.7813 1311.7813,532.7813 Q1312.1094,532.7813 1312.3594,533.0469 Q1312.625,533.2969 1312.625,533.6406 Q1312.625,533.9844 1312.2813,534.3906 Q1311.7813,534.9688 1310.9844,535.2969 Q1309.9063,535.75 1308.6094,535.75 Q1307.0938,535.75 1305.8906,535.125 Q1304.9063,534.625 1304.2188,533.5625 Q1303.5313,532.4844 1303.5313,531.2031 L1303.5313,530.0469 Q1303.5313,528.7188 1304.1406,527.5781 Q1304.7656,526.4219 1305.8594,525.8125 Q1306.9531,525.1875 1308.1875,525.1875 Q1308.9219,525.1875 1309.5625,525.3594 Q1310.2188,525.5156 1310.7656,525.875 Z " fill="#000000"/><text fill="#000000" font-family="sans-serif" font-size="14" lengthAdjust="spacing" textLength="189" x="1322" y="535.7969">NewmarkDynamicUPwScheme</text><line style="stroke:#181818;stroke-width:0.5;" x1="1294" x2="1513" y1="546" y2="546"/><line style="stroke:#181818;stroke-width:0.5;" x1="1294" x2="1513" y1="554" y2="554"/></g><!--class NewmarkQuasistaticDampedUPwScheme--><g id="elem_NewmarkQuasistaticDampedUPwScheme"><rect codeLine="34" fill="#F1F1F1" height="48" id="NewmarkQuasistaticDampedUPwScheme" rx="2.5" ry="2.5" style="stroke:#181818;stroke-width:0.5;" width="290" x="1549.5" y="514"/><ellipse cx="1564.5" cy="530" fill="#ADD1B2" rx="11" ry="11" style="stroke:#181818;stroke-width:1.0;"/><path d="M1567.2656,525.875 Q1567.4219,525.6563 1567.6094,525.5469 Q1567.7969,525.4375 1568.0156,525.4375 Q1568.3906,525.4375 1568.625,525.7031 Q1568.8594,525.9531 1568.8594,526.5625 L1568.8594,528.0156 Q1568.8594,528.625 1568.625,528.8906 Q1568.3906,529.1563 1568.0156,529.1563 Q1567.6719,529.1563 1567.4688,528.9531 Q1567.2656,528.7656 1567.1563,528.25 Q1567.1094,527.8906 1566.9219,527.7031 Q1566.5938,527.3281 1565.9844,527.1094 Q1565.375,526.8906 1564.75,526.8906 Q1563.9844,526.8906 1563.3438,527.2188 Q1562.7188,527.5469 1562.2188,528.2969 Q1561.7344,529.0469 1561.7344,530.0781 L1561.7344,531.1719 Q1561.7344,532.4063 1562.625,533.2344 Q1563.5156,534.0469 1565.1094,534.0469 Q1566.0469,534.0469 1566.7031,533.7969 Q1567.0938,533.6406 1567.5156,533.2031 Q1567.7813,532.9375 1567.9219,532.8594 Q1568.0781,532.7813 1568.2813,532.7813 Q1568.6094,532.7813 1568.8594,533.0469 Q1569.125,533.2969 1569.125,533.6406 Q1569.125,533.9844 1568.7813,534.3906 Q1568.2813,534.9688 1567.4844,535.2969 Q1566.4063,535.75 1565.1094,535.75 Q1563.5938,535.75 1562.3906,535.125 Q1561.4063,534.625 1560.7188,533.5625 Q1560.0313,532.4844 1560.0313,531.2031 L1560.0313,530.0469 Q1560.0313,528.7188 1560.6406,527.5781 Q1561.2656,526.4219 1562.3594,525.8125 Q1563.4531,525.1875 1564.6875,525.1875 Q1565.4219,525.1875 1566.0625,525.3594 Q1566.7188,525.5156 1567.2656,525.875 Z " fill="#000000"/><text fill="#000000" font-family="sans-serif" font-size="14" lengthAdjust="spacing" textLength="258" x="1578.5" y="535.7969">NewmarkQuasistaticDampedUPwScheme</text><line style="stroke:#181818;stroke-width:0.5;" x1="1550.5" x2="1838.5" y1="546" y2="546"/><line style="stroke:#181818;stroke-width:0.5;" x1="1550.5" x2="1838.5" y1="554" y2="554"/></g><!--reverse link Scheme to GeoMechanicsTimeIntegrationScheme--><g id="link_Scheme_GeoMechanicsTimeIntegrationScheme"><path codeLine="11" d="M818.5,73.04 C818.5,89.5 818.5,94.3 818.5,114.96 " fill="none" id="Scheme-backto-GeoMechanicsTimeIntegrationScheme" style="stroke:#181818;stroke-width:1.0;"/><polygon fill="none" points="818.5,55.04,812.5,73.04,824.5,73.04,818.5,55.04" style="stroke:#181818;stroke-width:1.0;"/></g><!--reverse link GeoMechanicsTimeIntegrationScheme to BackwardEulerScheme--><g id="link_GeoMechanicsTimeIntegrationScheme_BackwardEulerScheme"><path codeLine="21" d="M747.7914,231.4199 C725.7314,251.2099 714.56,261.22 694.99,278.77 " fill="none" id="GeoMechanicsTimeIntegrationScheme-backto-BackwardEulerScheme" style="stroke:#181818;stroke-width:1.0;"/><polygon fill="none" points="761.19,219.4,743.7848,226.9537,751.798,235.8861,761.19,219.4" style="stroke:#181818;stroke-width:1.0;"/></g><!--reverse link BackwardEulerScheme to BackwardEulerQuasistaticPwScheme--><g id="link_BackwardEulerScheme_BackwardEulerQuasistaticPwScheme"><path codeLine="22" d="M497.7395,349.2788 C411.4795,368.4688 321.16,388.57 243.14,405.94 " fill="none" id="BackwardEulerScheme-backto-BackwardEulerQuasistaticPwScheme" style="stroke:#181818;stroke-width:1.0;"/><polygon fill="none" points="515.31,345.37,496.4366,343.422,499.0425,355.1357,515.31,345.37" style="stroke:#181818;stroke-width:1.0;"/></g><!--reverse link BackwardEulerScheme to BackwardEulerQuasistaticUPwScheme--><g id="link_BackwardEulerScheme_BackwardEulerQuasistaticUPwScheme"><path codeLine="23" d="M582.191,354.6814 C546.851,373.7614 518.92,388.83 487.17,405.97 " fill="none" id="BackwardEulerScheme-backto-BackwardEulerQuasistaticUPwScheme" style="stroke:#181818;stroke-width:1.0;"/><polygon fill="none" points="598.03,346.13,579.3406,349.4018,585.0415,359.9611,598.03,346.13" style="stroke:#181818;stroke-width:1.0;"/></g><!--reverse link BackwardEulerScheme to BackwardEulerQuasistaticTScheme--><g id="link_BackwardEulerScheme_BackwardEulerQuasistaticTScheme"><path codeLine="24" d="M693.6636,360.7247 C707.7736,379.6647 714.42,388.61 727.13,405.67 " fill="none" id="BackwardEulerScheme-backto-BackwardEulerQuasistaticTScheme" style="stroke:#181818;stroke-width:1.0;"/><polygon fill="none" points="682.91,346.29,688.852,364.3092,698.4752,357.1401,682.91,346.29" style="stroke:#181818;stroke-width:1.0;"/></g><!--reverse link GeoMechanicsTimeIntegrationScheme to GeneralizedNewmarkScheme--><g id="link_GeoMechanicsTimeIntegrationScheme_GeneralizedNewmarkScheme"><path codeLine="36" d="M937.7322,227.2047 C977.7722,247.0847 1006.32,261.26 1041.83,278.89 " fill="none" id="GeoMechanicsTimeIntegrationScheme-backto-GeneralizedNewmarkScheme" style="stroke:#181818;stroke-width:1.0;"/><polygon fill="none" points="921.61,219.2,935.0639,232.5788,940.4004,221.8307,921.61,219.2" style="stroke:#181818;stroke-width:1.0;"/></g><!--reverse link GeneralizedNewmarkScheme to NewmarkQuasistaticPwScheme--><g id="link_GeneralizedNewmarkScheme_NewmarkQuasistaticPwScheme"><path codeLine="37" d="M1072.3364,360.7247 C1058.2264,379.6647 1051.58,388.61 1038.87,405.67 " fill="none" id="GeneralizedNewmarkScheme-backto-NewmarkQuasistaticPwScheme" style="stroke:#181818;stroke-width:1.0;"/><polygon fill="none" points="1083.09,346.29,1067.5248,357.1401,1077.148,364.3092,1083.09,346.29" style="stroke:#181818;stroke-width:1.0;"/></g><!--reverse link GeneralizedNewmarkScheme to GeneralizedNewmarkTScheme--><g id="link_GeneralizedNewmarkScheme_GeneralizedNewmarkTScheme"><path codeLine="38" d="M1172.5092,356.1652 C1201.4792,375.1752 1222.2,388.77 1248.22,405.85 " fill="none" id="GeneralizedNewmarkScheme-backto-GeneralizedNewmarkTScheme" style="stroke:#181818;stroke-width:1.0;"/><polygon fill="none" points="1157.46,346.29,1169.2175,361.1817,1175.801,351.1488,1157.46,346.29" style="stroke:#181818;stroke-width:1.0;"/></g><!--reverse link GeneralizedNewmarkScheme to NewmarkQuasistaticUPwScheme--><g id="link_GeneralizedNewmarkScheme_NewmarkQuasistaticUPwScheme"><path codeLine="39" d="M1249.5053,350.6106 C1322.5253,369.6906 1395.59,388.78 1461.25,405.94 " fill="none" id="GeneralizedNewmarkScheme-backto-NewmarkQuasistaticUPwScheme" style="stroke:#181818;stroke-width:1.0;"/><polygon fill="none" points="1232.09,346.06,1247.9884,356.4157,1251.0221,344.8055,1232.09,346.06" style="stroke:#181818;stroke-width:1.0;"/></g><!--reverse link NewmarkQuasistaticUPwScheme to NewmarkDynamicUPwScheme--><g id="link_NewmarkQuasistaticUPwScheme_NewmarkDynamicUPwScheme"><path codeLine="40" d="M1503.2535,464.5743 C1478.8435,482.2943 1459.82,496.11 1435.37,513.86 " fill="none" id="NewmarkQuasistaticUPwScheme-backto-NewmarkDynamicUPwScheme" style="stroke:#181818;stroke-width:1.0;"/><polygon fill="none" points="1517.82,454,1499.7287,459.7188,1506.7782,469.4298,1517.82,454" style="stroke:#181818;stroke-width:1.0;"/></g><!--reverse link NewmarkQuasistaticUPwScheme to NewmarkQuasistaticDampedUPwScheme--><g id="link_NewmarkQuasistaticUPwScheme_NewmarkQuasistaticDampedUPwScheme"><path codeLine="41" d="M1595.4913,464.6227 C1619.7313,482.3427 1638.56,496.11 1662.85,513.86 " fill="none" id="NewmarkQuasistaticUPwScheme-backto-NewmarkQuasistaticDampedUPwScheme" style="stroke:#181818;stroke-width:1.0;"/><polygon fill="none" points="1580.96,454,1591.9504,469.4665,1599.0322,459.7789,1580.96,454" style="stroke:#181818;stroke-width:1.0;"/></g><!--SRC=[fL7BKi8m5DttAx9J5nNNW2uSb77XQoZiBybLCYHDvoOju-lVBMqL2aqfsbrp7dVEEISBvnBRx_KI1R5BjJhdHlUu0cj38U6LG0S1pAqZu8uLxsp25wWnA7_6QEwHBo2Mt4PIurtiC5SvQUAAzn6m_0kPTQBVpv0xGyDRITOzaa2QS510Co09SuLNxCM3s463pGIvYKN1dXKl6n_hWtAZmYcJv59GB3DIi6aYmE4lPOGaipn3XlRqZ5soYq7m5PHnsF0p33kahkgv1hvS0OcRLAqJRHLo-Ax9a4WAN1zlS7jEmKhhSZf_MjKsyT6c7NdHJuQ3CSisca8sl3MGcp8ShPp-NHhLrnfZZ0HAlgDum9K6Mlvxiih7FzR-pQY6xnlipbWnHcynQ2-wfH-1Jb1iU5rdzhRZ0qfPImFjGdypnnxSP6t1QkAzChiAMth-1W00]--></g></svg>