<?xml version="1.0" encoding="us-ascii" standalone="no"?>
<svg xmlns="http://www.w3.org/2000/svg" xmlns:xlink="http://www.w3.org/1999/xlink" contentStyleType="text/css"
     height="515px" preserveAspectRatio="none" style="width:2488px;height:515px;background:#FFFFFF;" version="1.1"
     viewBox="0 0 2488 515" width="2488px" zoomAndPan="magnify">
    <defs/>
    <g><!--class Scheme-->
        <g id="elem_Scheme">
            <rect codeLine="3" fill="#F1F1F1" height="48" id="Scheme" rx="2.5" ry="2.5"
                  style="stroke:#181818;stroke-width:0.5;" width="83" x="866" y="7"/>
            <ellipse cx="881" cy="23" fill="#A9DCDF" rx="11" ry="11" style="stroke:#181818;stroke-width:1.0;"/>
            <path d="M883.1875,24.7656 L879.0469,24.7656 L878.625,25.7969 L879.0469,25.7969 Q879.6563,25.7969 879.9219,26.0313 Q880.1875,26.2656 880.1875,26.6563 Q880.1875,27.0313 879.9219,27.2656 Q879.6563,27.5 879.0469,27.5 L876.75,27.5 Q876.1406,27.5 875.8906,27.2656 Q875.625,27.0313 875.625,26.6406 Q875.625,26.2656 875.9063,26.0313 Q876.1719,25.7813 876.7969,25.7969 L879.4688,19.1406 L878.3594,19.1406 Q877.75,19.1406 877.4844,18.9063 Q877.2188,18.6719 877.2188,18.2813 Q877.2188,17.9063 877.4844,17.6719 Q877.75,17.4375 878.3594,17.4375 L882.0313,17.4375 L885.4219,25.7969 Q886.0156,25.7969 886.2031,25.9375 Q886.5938,26.2031 886.5938,26.6563 Q886.5938,27.0313 886.3281,27.2656 Q886.0781,27.5 885.4688,27.5 L883.1719,27.5 Q882.5625,27.5 882.2969,27.2656 Q882.0313,27.0313 882.0313,26.6406 Q882.0313,26.2656 882.2969,26.0313 Q882.5625,25.7969 883.1719,25.7969 L883.5938,25.7969 L883.1875,24.7656 Z M882.4688,23.0625 L881.1094,19.6875 L879.7344,23.0625 L882.4688,23.0625 Z "
                  fill="#000000"/>
            <text fill="#000000" font-family="sans-serif" font-size="14" font-style="italic" lengthAdjust="spacing"
                  textLength="51" x="895" y="28.7969">Scheme
            </text>
            <line style="stroke:#181818;stroke-width:0.5;" x1="867" x2="948" y1="39" y2="39"/>
            <line style="stroke:#181818;stroke-width:0.5;" x1="867" x2="948" y1="47" y2="47"/>
        </g><!--class GeoMechanicsTimeIntegrationScheme-->
        <g id="elem_GeoMechanicsTimeIntegrationScheme">
            <rect codeLine="4" fill="#F1F1F1" height="122.4844" id="GeoMechanicsTimeIntegrationScheme" rx="2.5" ry="2.5"
                  style="stroke:#181818;stroke-width:0.5;" width="477" x="669" y="115"/>
            <ellipse cx="781.75" cy="131" fill="#ADD1B2" rx="11" ry="11" style="stroke:#181818;stroke-width:1.0;"/>
            <path d="M784.5156,126.875 Q784.6719,126.6563 784.8594,126.5469 Q785.0469,126.4375 785.2656,126.4375 Q785.6406,126.4375 785.875,126.7031 Q786.1094,126.9531 786.1094,127.5625 L786.1094,129.0156 Q786.1094,129.625 785.875,129.8906 Q785.6406,130.1563 785.2656,130.1563 Q784.9219,130.1563 784.7188,129.9531 Q784.5156,129.7656 784.4063,129.25 Q784.3594,128.8906 784.1719,128.7031 Q783.8438,128.3281 783.2344,128.1094 Q782.625,127.8906 782,127.8906 Q781.2344,127.8906 780.5938,128.2188 Q779.9688,128.5469 779.4688,129.2969 Q778.9844,130.0469 778.9844,131.0781 L778.9844,132.1719 Q778.9844,133.4063 779.875,134.2344 Q780.7656,135.0469 782.3594,135.0469 Q783.2969,135.0469 783.9531,134.7969 Q784.3438,134.6406 784.7656,134.2031 Q785.0313,133.9375 785.1719,133.8594 Q785.3281,133.7813 785.5313,133.7813 Q785.8594,133.7813 786.1094,134.0469 Q786.375,134.2969 786.375,134.6406 Q786.375,134.9844 786.0313,135.3906 Q785.5313,135.9688 784.7344,136.2969 Q783.6563,136.75 782.3594,136.75 Q780.8438,136.75 779.6406,136.125 Q778.6563,135.625 777.9688,134.5625 Q777.2813,133.4844 777.2813,132.2031 L777.2813,131.0469 Q777.2813,129.7188 777.8906,128.5781 Q778.5156,127.4219 779.6094,126.8125 Q780.7031,126.1875 781.9375,126.1875 Q782.6719,126.1875 783.3125,126.3594 Q783.9688,126.5156 784.5156,126.875 Z "
                  fill="#000000"/>
            <text fill="#000000" font-family="sans-serif" font-size="14" lengthAdjust="spacing" textLength="243"
                  x="802.25" y="136.7969">GeoMechanicsTimeIntegrationScheme
            </text>
            <line style="stroke:#181818;stroke-width:0.5;" x1="670" x2="1145" y1="147" y2="147"/>
            <rect fill="none" height="6" style="stroke:#C82930;stroke-width:1.0;" width="6" x="677" y="158.8105"/>
            <text fill="#000000" font-family="sans-serif" font-size="14" lengthAdjust="spacing" textLength="406" x="689"
                  y="166.1074">std::vector&lt;FirstOrderScalarVariable&gt; firstOrderScalarVariables;
            </text>
            <rect fill="none" height="6" style="stroke:#C82930;stroke-width:1.0;" width="6" x="677" y="177.4316"/>
            <text fill="#000000" font-family="sans-serif" font-size="14" lengthAdjust="spacing" textLength="451" x="689"
                  y="184.7285">std::vector&lt;SecondOrderVectorVariable&gt; secondOrderVectorVariables;
            </text>
            <line style="stroke:#181818;stroke-width:0.5;" x1="670" x2="1145" y1="192.2422" y2="192.2422"/>
            <text fill="#000000" font-family="sans-serif" font-size="14" lengthAdjust="spacing" textLength="284" x="675"
                  y="211.3496">virtual void UpdateVariablesDerivatives() = 0;
            </text>
            <text fill="#000000" font-family="sans-serif" font-size="14" lengthAdjust="spacing" textLength="186" x="675"
                  y="229.9707">virtual void SetTimeFactors();
            </text>
        </g><!--class BackwardEulerScheme-->
        <g id="elem_BackwardEulerScheme">
            <rect codeLine="14" fill="#F1F1F1" height="85.2422" id="BackwardEulerScheme" rx="2.5" ry="2.5"
                  style="stroke:#181818;stroke-width:0.5;" width="286" x="451.5" y="297"/>
            <ellipse cx="517.75" cy="313" fill="#ADD1B2" rx="11" ry="11" style="stroke:#181818;stroke-width:1.0;"/>
            <path d="M520.5156,308.875 Q520.6719,308.6563 520.8594,308.5469 Q521.0469,308.4375 521.2656,308.4375 Q521.6406,308.4375 521.875,308.7031 Q522.1094,308.9531 522.1094,309.5625 L522.1094,311.0156 Q522.1094,311.625 521.875,311.8906 Q521.6406,312.1563 521.2656,312.1563 Q520.9219,312.1563 520.7188,311.9531 Q520.5156,311.7656 520.4063,311.25 Q520.3594,310.8906 520.1719,310.7031 Q519.8438,310.3281 519.2344,310.1094 Q518.625,309.8906 518,309.8906 Q517.2344,309.8906 516.5938,310.2188 Q515.9688,310.5469 515.4688,311.2969 Q514.9844,312.0469 514.9844,313.0781 L514.9844,314.1719 Q514.9844,315.4063 515.875,316.2344 Q516.7656,317.0469 518.3594,317.0469 Q519.2969,317.0469 519.9531,316.7969 Q520.3438,316.6406 520.7656,316.2031 Q521.0313,315.9375 521.1719,315.8594 Q521.3281,315.7813 521.5313,315.7813 Q521.8594,315.7813 522.1094,316.0469 Q522.375,316.2969 522.375,316.6406 Q522.375,316.9844 522.0313,317.3906 Q521.5313,317.9688 520.7344,318.2969 Q519.6563,318.75 518.3594,318.75 Q516.8438,318.75 515.6406,318.125 Q514.6563,317.625 513.9688,316.5625 Q513.2813,315.4844 513.2813,314.2031 L513.2813,313.0469 Q513.2813,311.7188 513.8906,310.5781 Q514.5156,309.4219 515.6094,308.8125 Q516.7031,308.1875 517.9375,308.1875 Q518.6719,308.1875 519.3125,308.3594 Q519.9688,308.5156 520.5156,308.875 Z "
                  fill="#000000"/>
            <text fill="#000000" font-family="sans-serif" font-size="14" lengthAdjust="spacing" textLength="145"
                  x="538.25" y="318.7969">BackwardEulerScheme
            </text>
            <line style="stroke:#181818;stroke-width:0.5;" x1="452.5" x2="736.5" y1="329" y2="329"/>
            <line style="stroke:#181818;stroke-width:0.5;" x1="452.5" x2="736.5" y1="337" y2="337"/>
            <text fill="#000000" font-family="sans-serif" font-size="14" lengthAdjust="spacing" textLength="274"
                  x="457.5" y="356.1074">void UpdateVariablesDerivatives() override;
            </text>
            <text fill="#000000" font-family="sans-serif" font-size="14" lengthAdjust="spacing" textLength="200"
                  x="457.5" y="374.7285">void SetTimeFactors() override;
            </text>
        </g><!--class BackwardEulerQuasistaticPwScheme-->
        <g id="elem_BackwardEulerQuasistaticPwScheme">
            <rect codeLine="19" fill="#F1F1F1" height="48" id="BackwardEulerQuasistaticPwScheme" rx="2.5" ry="2.5"
                  style="stroke:#181818;stroke-width:0.5;" width="265" x="7" y="451.5"/>
            <ellipse cx="22" cy="467.5" fill="#ADD1B2" rx="11" ry="11" style="stroke:#181818;stroke-width:1.0;"/>
            <path d="M24.7656,463.375 Q24.9219,463.1563 25.1094,463.0469 Q25.2969,462.9375 25.5156,462.9375 Q25.8906,462.9375 26.125,463.2031 Q26.3594,463.4531 26.3594,464.0625 L26.3594,465.5156 Q26.3594,466.125 26.125,466.3906 Q25.8906,466.6563 25.5156,466.6563 Q25.1719,466.6563 24.9688,466.4531 Q24.7656,466.2656 24.6563,465.75 Q24.6094,465.3906 24.4219,465.2031 Q24.0938,464.8281 23.4844,464.6094 Q22.875,464.3906 22.25,464.3906 Q21.4844,464.3906 20.8438,464.7188 Q20.2188,465.0469 19.7188,465.7969 Q19.2344,466.5469 19.2344,467.5781 L19.2344,468.6719 Q19.2344,469.9063 20.125,470.7344 Q21.0156,471.5469 22.6094,471.5469 Q23.5469,471.5469 24.2031,471.2969 Q24.5938,471.1406 25.0156,470.7031 Q25.2813,470.4375 25.4219,470.3594 Q25.5781,470.2813 25.7813,470.2813 Q26.1094,470.2813 26.3594,470.5469 Q26.625,470.7969 26.625,471.1406 Q26.625,471.4844 26.2813,471.8906 Q25.7813,472.4688 24.9844,472.7969 Q23.9063,473.25 22.6094,473.25 Q21.0938,473.25 19.8906,472.625 Q18.9063,472.125 18.2188,471.0625 Q17.5313,469.9844 17.5313,468.7031 L17.5313,467.5469 Q17.5313,466.2188 18.1406,465.0781 Q18.7656,463.9219 19.8594,463.3125 Q20.9531,462.6875 22.1875,462.6875 Q22.9219,462.6875 23.5625,462.8594 Q24.2188,463.0156 24.7656,463.375 Z "
                  fill="#000000"/>
            <text fill="#000000" font-family="sans-serif" font-size="14" lengthAdjust="spacing" textLength="233" x="36"
                  y="473.2969">BackwardEulerQuasistaticPwScheme
            </text>
            <line style="stroke:#181818;stroke-width:0.5;" x1="8" x2="271" y1="483.5" y2="483.5"/>
            <line style="stroke:#181818;stroke-width:0.5;" x1="8" x2="271" y1="491.5" y2="491.5"/>
        </g><!--class BackwardEulerQuasistaticUPwScheme-->
        <g id="elem_BackwardEulerQuasistaticUPwScheme">
            <rect codeLine="20" fill="#F1F1F1" height="48" id="BackwardEulerQuasistaticUPwScheme" rx="2.5" ry="2.5"
                  style="stroke:#181818;stroke-width:0.5;" width="274" x="307.5" y="451.5"/>
            <ellipse cx="322.5" cy="467.5" fill="#ADD1B2" rx="11" ry="11" style="stroke:#181818;stroke-width:1.0;"/>
            <path d="M325.2656,463.375 Q325.4219,463.1563 325.6094,463.0469 Q325.7969,462.9375 326.0156,462.9375 Q326.3906,462.9375 326.625,463.2031 Q326.8594,463.4531 326.8594,464.0625 L326.8594,465.5156 Q326.8594,466.125 326.625,466.3906 Q326.3906,466.6563 326.0156,466.6563 Q325.6719,466.6563 325.4688,466.4531 Q325.2656,466.2656 325.1563,465.75 Q325.1094,465.3906 324.9219,465.2031 Q324.5938,464.8281 323.9844,464.6094 Q323.375,464.3906 322.75,464.3906 Q321.9844,464.3906 321.3438,464.7188 Q320.7188,465.0469 320.2188,465.7969 Q319.7344,466.5469 319.7344,467.5781 L319.7344,468.6719 Q319.7344,469.9063 320.625,470.7344 Q321.5156,471.5469 323.1094,471.5469 Q324.0469,471.5469 324.7031,471.2969 Q325.0938,471.1406 325.5156,470.7031 Q325.7813,470.4375 325.9219,470.3594 Q326.0781,470.2813 326.2813,470.2813 Q326.6094,470.2813 326.8594,470.5469 Q327.125,470.7969 327.125,471.1406 Q327.125,471.4844 326.7813,471.8906 Q326.2813,472.4688 325.4844,472.7969 Q324.4063,473.25 323.1094,473.25 Q321.5938,473.25 320.3906,472.625 Q319.4063,472.125 318.7188,471.0625 Q318.0313,469.9844 318.0313,468.7031 L318.0313,467.5469 Q318.0313,466.2188 318.6406,465.0781 Q319.2656,463.9219 320.3594,463.3125 Q321.4531,462.6875 322.6875,462.6875 Q323.4219,462.6875 324.0625,462.8594 Q324.7188,463.0156 325.2656,463.375 Z "
                  fill="#000000"/>
            <text fill="#000000" font-family="sans-serif" font-size="14" lengthAdjust="spacing" textLength="242"
                  x="336.5" y="473.2969">BackwardEulerQuasistaticUPwScheme
            </text>
            <line style="stroke:#181818;stroke-width:0.5;" x1="308.5" x2="580.5" y1="483.5" y2="483.5"/>
            <line style="stroke:#181818;stroke-width:0.5;" x1="308.5" x2="580.5" y1="491.5" y2="491.5"/>
        </g><!--class BackwardEulerQuasistaticTScheme-->
        <g id="elem_BackwardEulerQuasistaticTScheme">
            <rect codeLine="21" fill="#F1F1F1" height="48" id="BackwardEulerQuasistaticTScheme" rx="2.5" ry="2.5"
                  style="stroke:#181818;stroke-width:0.5;" width="256" x="616.5" y="451.5"/>
            <ellipse cx="631.5" cy="467.5" fill="#ADD1B2" rx="11" ry="11" style="stroke:#181818;stroke-width:1.0;"/>
            <path d="M634.2656,463.375 Q634.4219,463.1563 634.6094,463.0469 Q634.7969,462.9375 635.0156,462.9375 Q635.3906,462.9375 635.625,463.2031 Q635.8594,463.4531 635.8594,464.0625 L635.8594,465.5156 Q635.8594,466.125 635.625,466.3906 Q635.3906,466.6563 635.0156,466.6563 Q634.6719,466.6563 634.4688,466.4531 Q634.2656,466.2656 634.1563,465.75 Q634.1094,465.3906 633.9219,465.2031 Q633.5938,464.8281 632.9844,464.6094 Q632.375,464.3906 631.75,464.3906 Q630.9844,464.3906 630.3438,464.7188 Q629.7188,465.0469 629.2188,465.7969 Q628.7344,466.5469 628.7344,467.5781 L628.7344,468.6719 Q628.7344,469.9063 629.625,470.7344 Q630.5156,471.5469 632.1094,471.5469 Q633.0469,471.5469 633.7031,471.2969 Q634.0938,471.1406 634.5156,470.7031 Q634.7813,470.4375 634.9219,470.3594 Q635.0781,470.2813 635.2813,470.2813 Q635.6094,470.2813 635.8594,470.5469 Q636.125,470.7969 636.125,471.1406 Q636.125,471.4844 635.7813,471.8906 Q635.2813,472.4688 634.4844,472.7969 Q633.4063,473.25 632.1094,473.25 Q630.5938,473.25 629.3906,472.625 Q628.4063,472.125 627.7188,471.0625 Q627.0313,469.9844 627.0313,468.7031 L627.0313,467.5469 Q627.0313,466.2188 627.6406,465.0781 Q628.2656,463.9219 629.3594,463.3125 Q630.4531,462.6875 631.6875,462.6875 Q632.4219,462.6875 633.0625,462.8594 Q633.7188,463.0156 634.2656,463.375 Z "
                  fill="#000000"/>
            <text fill="#000000" font-family="sans-serif" font-size="14" lengthAdjust="spacing" textLength="224"
                  x="645.5" y="473.2969">BackwardEulerQuasistaticTScheme
            </text>
            <line style="stroke:#181818;stroke-width:0.5;" x1="617.5" x2="871.5" y1="483.5" y2="483.5"/>
            <line style="stroke:#181818;stroke-width:0.5;" x1="617.5" x2="871.5" y1="491.5" y2="491.5"/>
        </g><!--class GeneralizedNewmarkScheme-->
        <g id="elem_GeneralizedNewmarkScheme">
            <rect codeLine="28" fill="#F1F1F1" height="66.6211" id="GeneralizedNewmarkScheme" rx="2.5" ry="2.5"
                  style="stroke:#181818;stroke-width:0.5;" width="216" x="1423.5" y="306"/>
            <ellipse cx="1438.5" cy="322" fill="#ADD1B2" rx="11" ry="11" style="stroke:#181818;stroke-width:1.0;"/>
            <path d="M1441.2656,317.875 Q1441.4219,317.6563 1441.6094,317.5469 Q1441.7969,317.4375 1442.0156,317.4375 Q1442.3906,317.4375 1442.625,317.7031 Q1442.8594,317.9531 1442.8594,318.5625 L1442.8594,320.0156 Q1442.8594,320.625 1442.625,320.8906 Q1442.3906,321.1563 1442.0156,321.1563 Q1441.6719,321.1563 1441.4688,320.9531 Q1441.2656,320.7656 1441.1563,320.25 Q1441.1094,319.8906 1440.9219,319.7031 Q1440.5938,319.3281 1439.9844,319.1094 Q1439.375,318.8906 1438.75,318.8906 Q1437.9844,318.8906 1437.3438,319.2188 Q1436.7188,319.5469 1436.2188,320.2969 Q1435.7344,321.0469 1435.7344,322.0781 L1435.7344,323.1719 Q1435.7344,324.4063 1436.625,325.2344 Q1437.5156,326.0469 1439.1094,326.0469 Q1440.0469,326.0469 1440.7031,325.7969 Q1441.0938,325.6406 1441.5156,325.2031 Q1441.7813,324.9375 1441.9219,324.8594 Q1442.0781,324.7813 1442.2813,324.7813 Q1442.6094,324.7813 1442.8594,325.0469 Q1443.125,325.2969 1443.125,325.6406 Q1443.125,325.9844 1442.7813,326.3906 Q1442.2813,326.9688 1441.4844,327.2969 Q1440.4063,327.75 1439.1094,327.75 Q1437.5938,327.75 1436.3906,327.125 Q1435.4063,326.625 1434.7188,325.5625 Q1434.0313,324.4844 1434.0313,323.2031 L1434.0313,322.0469 Q1434.0313,320.7188 1434.6406,319.5781 Q1435.2656,318.4219 1436.3594,317.8125 Q1437.4531,317.1875 1438.6875,317.1875 Q1439.4219,317.1875 1440.0625,317.3594 Q1440.7188,317.5156 1441.2656,317.875 Z "
                  fill="#000000"/>
            <text fill="#000000" font-family="sans-serif" font-size="14" lengthAdjust="spacing" textLength="184"
                  x="1452.5" y="327.7969">GeneralizedNewmarkScheme
            </text>
            <line style="stroke:#181818;stroke-width:0.5;" x1="1424.5" x2="1638.5" y1="338" y2="338"/>
            <line style="stroke:#181818;stroke-width:0.5;" x1="1424.5" x2="1638.5" y1="346" y2="346"/>
            <text fill="#000000" font-family="sans-serif" font-size="14" lengthAdjust="spacing" textLength="200"
                  x="1429.5" y="365.1074">void SetTimeFactors() override;
            </text>
        </g><!--class NewmarkQuasistaticPwScheme-->
        <g id="elem_NewmarkQuasistaticPwScheme">
            <rect codeLine="32" fill="#F1F1F1" height="66.6211" id="NewmarkQuasistaticPwScheme" rx="2.5" ry="2.5"
                  style="stroke:#181818;stroke-width:0.5;" width="286" x="907.5" y="442"/>
            <ellipse cx="948.6" cy="458" fill="#ADD1B2" rx="11" ry="11" style="stroke:#181818;stroke-width:1.0;"/>
            <path d="M951.3656,453.875 Q951.5219,453.6563 951.7094,453.5469 Q951.8969,453.4375 952.1156,453.4375 Q952.4906,453.4375 952.725,453.7031 Q952.9594,453.9531 952.9594,454.5625 L952.9594,456.0156 Q952.9594,456.625 952.725,456.8906 Q952.4906,457.1563 952.1156,457.1563 Q951.7719,457.1563 951.5688,456.9531 Q951.3656,456.7656 951.2563,456.25 Q951.2094,455.8906 951.0219,455.7031 Q950.6938,455.3281 950.0844,455.1094 Q949.475,454.8906 948.85,454.8906 Q948.0844,454.8906 947.4438,455.2188 Q946.8188,455.5469 946.3188,456.2969 Q945.8344,457.0469 945.8344,458.0781 L945.8344,459.1719 Q945.8344,460.4063 946.725,461.2344 Q947.6156,462.0469 949.2094,462.0469 Q950.1469,462.0469 950.8031,461.7969 Q951.1938,461.6406 951.6156,461.2031 Q951.8813,460.9375 952.0219,460.8594 Q952.1781,460.7813 952.3813,460.7813 Q952.7094,460.7813 952.9594,461.0469 Q953.225,461.2969 953.225,461.6406 Q953.225,461.9844 952.8813,462.3906 Q952.3813,462.9688 951.5844,463.2969 Q950.5063,463.75 949.2094,463.75 Q947.6938,463.75 946.4906,463.125 Q945.5063,462.625 944.8188,461.5625 Q944.1313,460.4844 944.1313,459.2031 L944.1313,458.0469 Q944.1313,456.7188 944.7406,455.5781 Q945.3656,454.4219 946.4594,453.8125 Q947.5531,453.1875 948.7875,453.1875 Q949.5219,453.1875 950.1625,453.3594 Q950.8188,453.5156 951.3656,453.875 Z "
                  fill="#000000"/>
            <text fill="#000000" font-family="sans-serif" font-size="14" lengthAdjust="spacing" textLength="196"
                  x="968.4" y="463.7969">NewmarkQuasistaticPwScheme
            </text>
            <line style="stroke:#181818;stroke-width:0.5;" x1="908.5" x2="1192.5" y1="474" y2="474"/>
            <line style="stroke:#181818;stroke-width:0.5;" x1="908.5" x2="1192.5" y1="482" y2="482"/>
            <text fill="#000000" font-family="sans-serif" font-size="14" lengthAdjust="spacing" textLength="274"
                  x="913.5" y="501.1074">void UpdateVariablesDerivatives() override;
            </text>
        </g><!--class GeneralizedNewmarkTScheme-->
        <g id="elem_GeneralizedNewmarkTScheme">
            <rect codeLine="36" fill="#F1F1F1" height="66.6211" id="GeneralizedNewmarkTScheme" rx="2.5" ry="2.5"
                  style="stroke:#181818;stroke-width:0.5;" width="286" x="1228.5" y="442"/>
            <ellipse cx="1270.95" cy="458" fill="#ADD1B2" rx="11" ry="11" style="stroke:#181818;stroke-width:1.0;"/>
            <path d="M1273.7156,453.875 Q1273.8719,453.6563 1274.0594,453.5469 Q1274.2469,453.4375 1274.4656,453.4375 Q1274.8406,453.4375 1275.075,453.7031 Q1275.3094,453.9531 1275.3094,454.5625 L1275.3094,456.0156 Q1275.3094,456.625 1275.075,456.8906 Q1274.8406,457.1563 1274.4656,457.1563 Q1274.1219,457.1563 1273.9188,456.9531 Q1273.7156,456.7656 1273.6063,456.25 Q1273.5594,455.8906 1273.3719,455.7031 Q1273.0438,455.3281 1272.4344,455.1094 Q1271.825,454.8906 1271.2,454.8906 Q1270.4344,454.8906 1269.7938,455.2188 Q1269.1688,455.5469 1268.6688,456.2969 Q1268.1844,457.0469 1268.1844,458.0781 L1268.1844,459.1719 Q1268.1844,460.4063 1269.075,461.2344 Q1269.9656,462.0469 1271.5594,462.0469 Q1272.4969,462.0469 1273.1531,461.7969 Q1273.5438,461.6406 1273.9656,461.2031 Q1274.2313,460.9375 1274.3719,460.8594 Q1274.5281,460.7813 1274.7313,460.7813 Q1275.0594,460.7813 1275.3094,461.0469 Q1275.575,461.2969 1275.575,461.6406 Q1275.575,461.9844 1275.2313,462.3906 Q1274.7313,462.9688 1273.9344,463.2969 Q1272.8563,463.75 1271.5594,463.75 Q1270.0438,463.75 1268.8406,463.125 Q1267.8563,462.625 1267.1688,461.5625 Q1266.4813,460.4844 1266.4813,459.2031 L1266.4813,458.0469 Q1266.4813,456.7188 1267.0906,455.5781 Q1267.7156,454.4219 1268.8094,453.8125 Q1269.9031,453.1875 1271.1375,453.1875 Q1271.8719,453.1875 1272.5125,453.3594 Q1273.1688,453.5156 1273.7156,453.875 Z "
                  fill="#000000"/>
            <text fill="#000000" font-family="sans-serif" font-size="14" lengthAdjust="spacing" textLength="193"
                  x="1291.05" y="463.7969">GeneralizedNewmarkTScheme
            </text>
            <line style="stroke:#181818;stroke-width:0.5;" x1="1229.5" x2="1513.5" y1="474" y2="474"/>
            <line style="stroke:#181818;stroke-width:0.5;" x1="1229.5" x2="1513.5" y1="482" y2="482"/>
            <text fill="#000000" font-family="sans-serif" font-size="14" lengthAdjust="spacing" textLength="274"
                  x="1234.5" y="501.1074">void UpdateVariablesDerivatives() override;
            </text>
        </g><!--class NewmarkDynamicUPwScheme-->
        <g id="elem_NewmarkDynamicUPwScheme">
            <rect codeLine="40" fill="#F1F1F1" height="66.6211" id="NewmarkDynamicUPwScheme" rx="2.5" ry="2.5"
                  style="stroke:#181818;stroke-width:0.5;" width="286" x="1549.5" y="442"/>
            <ellipse cx="1593.75" cy="458" fill="#ADD1B2" rx="11" ry="11" style="stroke:#181818;stroke-width:1.0;"/>
            <path d="M1596.5156,453.875 Q1596.6719,453.6563 1596.8594,453.5469 Q1597.0469,453.4375 1597.2656,453.4375 Q1597.6406,453.4375 1597.875,453.7031 Q1598.1094,453.9531 1598.1094,454.5625 L1598.1094,456.0156 Q1598.1094,456.625 1597.875,456.8906 Q1597.6406,457.1563 1597.2656,457.1563 Q1596.9219,457.1563 1596.7188,456.9531 Q1596.5156,456.7656 1596.4063,456.25 Q1596.3594,455.8906 1596.1719,455.7031 Q1595.8438,455.3281 1595.2344,455.1094 Q1594.625,454.8906 1594,454.8906 Q1593.2344,454.8906 1592.5938,455.2188 Q1591.9688,455.5469 1591.4688,456.2969 Q1590.9844,457.0469 1590.9844,458.0781 L1590.9844,459.1719 Q1590.9844,460.4063 1591.875,461.2344 Q1592.7656,462.0469 1594.3594,462.0469 Q1595.2969,462.0469 1595.9531,461.7969 Q1596.3438,461.6406 1596.7656,461.2031 Q1597.0313,460.9375 1597.1719,460.8594 Q1597.3281,460.7813 1597.5313,460.7813 Q1597.8594,460.7813 1598.1094,461.0469 Q1598.375,461.2969 1598.375,461.6406 Q1598.375,461.9844 1598.0313,462.3906 Q1597.5313,462.9688 1596.7344,463.2969 Q1595.6563,463.75 1594.3594,463.75 Q1592.8438,463.75 1591.6406,463.125 Q1590.6563,462.625 1589.9688,461.5625 Q1589.2813,460.4844 1589.2813,459.2031 L1589.2813,458.0469 Q1589.2813,456.7188 1589.8906,455.5781 Q1590.5156,454.4219 1591.6094,453.8125 Q1592.7031,453.1875 1593.9375,453.1875 Q1594.6719,453.1875 1595.3125,453.3594 Q1595.9688,453.5156 1596.5156,453.875 Z "
                  fill="#000000"/>
            <text fill="#000000" font-family="sans-serif" font-size="14" lengthAdjust="spacing" textLength="189"
                  x="1614.25" y="463.7969">NewmarkDynamicUPwScheme
            </text>
            <line style="stroke:#181818;stroke-width:0.5;" x1="1550.5" x2="1834.5" y1="474" y2="474"/>
            <line style="stroke:#181818;stroke-width:0.5;" x1="1550.5" x2="1834.5" y1="482" y2="482"/>
            <text fill="#000000" font-family="sans-serif" font-size="14" lengthAdjust="spacing" textLength="274"
                  x="1555.5" y="501.1074">void UpdateVariablesDerivatives() override;
            </text>
        </g><!--class NewmarkQuasistaticDampedUPwScheme-->
        <g id="elem_NewmarkQuasistaticDampedUPwScheme">
            <rect codeLine="44" fill="#F1F1F1" height="66.6211" id="NewmarkQuasistaticDampedUPwScheme" rx="2.5" ry="2.5"
                  style="stroke:#181818;stroke-width:0.5;" width="290" x="1870.5" y="442"/>
            <ellipse cx="1885.5" cy="458" fill="#ADD1B2" rx="11" ry="11" style="stroke:#181818;stroke-width:1.0;"/>
            <path d="M1888.2656,453.875 Q1888.4219,453.6563 1888.6094,453.5469 Q1888.7969,453.4375 1889.0156,453.4375 Q1889.3906,453.4375 1889.625,453.7031 Q1889.8594,453.9531 1889.8594,454.5625 L1889.8594,456.0156 Q1889.8594,456.625 1889.625,456.8906 Q1889.3906,457.1563 1889.0156,457.1563 Q1888.6719,457.1563 1888.4688,456.9531 Q1888.2656,456.7656 1888.1563,456.25 Q1888.1094,455.8906 1887.9219,455.7031 Q1887.5938,455.3281 1886.9844,455.1094 Q1886.375,454.8906 1885.75,454.8906 Q1884.9844,454.8906 1884.3438,455.2188 Q1883.7188,455.5469 1883.2188,456.2969 Q1882.7344,457.0469 1882.7344,458.0781 L1882.7344,459.1719 Q1882.7344,460.4063 1883.625,461.2344 Q1884.5156,462.0469 1886.1094,462.0469 Q1887.0469,462.0469 1887.7031,461.7969 Q1888.0938,461.6406 1888.5156,461.2031 Q1888.7813,460.9375 1888.9219,460.8594 Q1889.0781,460.7813 1889.2813,460.7813 Q1889.6094,460.7813 1889.8594,461.0469 Q1890.125,461.2969 1890.125,461.6406 Q1890.125,461.9844 1889.7813,462.3906 Q1889.2813,462.9688 1888.4844,463.2969 Q1887.4063,463.75 1886.1094,463.75 Q1884.5938,463.75 1883.3906,463.125 Q1882.4063,462.625 1881.7188,461.5625 Q1881.0313,460.4844 1881.0313,459.2031 L1881.0313,458.0469 Q1881.0313,456.7188 1881.6406,455.5781 Q1882.2656,454.4219 1883.3594,453.8125 Q1884.4531,453.1875 1885.6875,453.1875 Q1886.4219,453.1875 1887.0625,453.3594 Q1887.7188,453.5156 1888.2656,453.875 Z "
                  fill="#000000"/>
            <text fill="#000000" font-family="sans-serif" font-size="14" lengthAdjust="spacing" textLength="258"
                  x="1899.5" y="463.7969">NewmarkQuasistaticDampedUPwScheme
            </text>
            <line style="stroke:#181818;stroke-width:0.5;" x1="1871.5" x2="2159.5" y1="474" y2="474"/>
            <line style="stroke:#181818;stroke-width:0.5;" x1="1871.5" x2="2159.5" y1="482" y2="482"/>
            <text fill="#000000" font-family="sans-serif" font-size="14" lengthAdjust="spacing" textLength="274"
                  x="1876.5" y="501.1074">void UpdateVariablesDerivatives() override;
            </text>
        </g><!--class NewmarkQuasistaticUPwScheme-->
        <g id="elem_NewmarkQuasistaticUPwScheme">
            <rect codeLine="48" fill="#F1F1F1" height="66.6211" id="NewmarkQuasistaticUPwScheme" rx="2.5" ry="2.5"
                  style="stroke:#181818;stroke-width:0.5;" width="286" x="2195.5" y="442"/>
            <ellipse cx="2232.55" cy="458" fill="#ADD1B2" rx="11" ry="11" style="stroke:#181818;stroke-width:1.0;"/>
            <path d="M2235.3156,453.875 Q2235.4719,453.6563 2235.6594,453.5469 Q2235.8469,453.4375 2236.0656,453.4375 Q2236.4406,453.4375 2236.675,453.7031 Q2236.9094,453.9531 2236.9094,454.5625 L2236.9094,456.0156 Q2236.9094,456.625 2236.675,456.8906 Q2236.4406,457.1563 2236.0656,457.1563 Q2235.7219,457.1563 2235.5188,456.9531 Q2235.3156,456.7656 2235.2063,456.25 Q2235.1594,455.8906 2234.9719,455.7031 Q2234.6438,455.3281 2234.0344,455.1094 Q2233.425,454.8906 2232.8,454.8906 Q2232.0344,454.8906 2231.3938,455.2188 Q2230.7688,455.5469 2230.2688,456.2969 Q2229.7844,457.0469 2229.7844,458.0781 L2229.7844,459.1719 Q2229.7844,460.4063 2230.675,461.2344 Q2231.5656,462.0469 2233.1594,462.0469 Q2234.0969,462.0469 2234.7531,461.7969 Q2235.1438,461.6406 2235.5656,461.2031 Q2235.8313,460.9375 2235.9719,460.8594 Q2236.1281,460.7813 2236.3313,460.7813 Q2236.6594,460.7813 2236.9094,461.0469 Q2237.175,461.2969 2237.175,461.6406 Q2237.175,461.9844 2236.8313,462.3906 Q2236.3313,462.9688 2235.5344,463.2969 Q2234.4563,463.75 2233.1594,463.75 Q2231.6438,463.75 2230.4406,463.125 Q2229.4563,462.625 2228.7688,461.5625 Q2228.0813,460.4844 2228.0813,459.2031 L2228.0813,458.0469 Q2228.0813,456.7188 2228.6906,455.5781 Q2229.3156,454.4219 2230.4094,453.8125 Q2231.5031,453.1875 2232.7375,453.1875 Q2233.4719,453.1875 2234.1125,453.3594 Q2234.7688,453.5156 2235.3156,453.875 Z "
                  fill="#000000"/>
            <text fill="#000000" font-family="sans-serif" font-size="14" lengthAdjust="spacing" textLength="205"
                  x="2251.45" y="463.7969">NewmarkQuasistaticUPwScheme
            </text>
            <line style="stroke:#181818;stroke-width:0.5;" x1="2196.5" x2="2480.5" y1="474" y2="474"/>
            <line style="stroke:#181818;stroke-width:0.5;" x1="2196.5" x2="2480.5" y1="482" y2="482"/>
            <text fill="#000000" font-family="sans-serif" font-size="14" lengthAdjust="spacing" textLength="274"
                  x="2201.5" y="501.1074">void UpdateVariablesDerivatives() override;
            </text>
        </g><!--reverse link Scheme to GeoMechanicsTimeIntegrationScheme-->
        <g id="link_Scheme_GeoMechanicsTimeIntegrationScheme">
            <path codeLine="12" d="M907.5,73.29 C907.5,89.52 907.5,93.94 907.5,115 " fill="none"
                  id="Scheme-backto-GeoMechanicsTimeIntegrationScheme" style="stroke:#181818;stroke-width:1.0;"/>
            <polygon fill="none" points="907.5,55.29,901.5,73.29,913.5,73.29,907.5,55.29"
                     style="stroke:#181818;stroke-width:1.0;"/>
        </g><!--reverse link GeoMechanicsTimeIntegrationScheme to BackwardEulerScheme-->
        <g id="link_GeoMechanicsTimeIntegrationScheme_BackwardEulerScheme">
            <path codeLine="23" d="M774.9536,245.3931 C736.3636,265.3031 710.31,278.75 675.04,296.94 " fill="none"
                  id="GeoMechanicsTimeIntegrationScheme-backto-BackwardEulerScheme"
                  style="stroke:#181818;stroke-width:1.0;"/>
            <polygon fill="none" points="790.95,237.14,772.2025,240.061,777.7046,250.7253,790.95,237.14"
                     style="stroke:#181818;stroke-width:1.0;"/>
        </g><!--reverse link BackwardEulerScheme to BackwardEulerQuasistaticPwScheme-->
        <g id="link_BackwardEulerScheme_BackwardEulerQuasistaticPwScheme">
            <path codeLine="24" d="M436.0731,387.1547 C358.4431,410.0147 282.34,432.43 217.72,451.46 " fill="none"
                  id="BackwardEulerScheme-backto-BackwardEulerQuasistaticPwScheme"
                  style="stroke:#181818;stroke-width:1.0;"/>
            <polygon fill="none" points="453.34,382.07,434.3782,381.399,437.768,392.9103,453.34,382.07"
                     style="stroke:#181818;stroke-width:1.0;"/>
        </g><!--reverse link BackwardEulerScheme to BackwardEulerQuasistaticUPwScheme-->
        <g id="link_BackwardEulerScheme_BackwardEulerQuasistaticUPwScheme">
            <path codeLine="25" d="M534.4378,394.1535 C508.9778,416.9035 491.84,432.21 470.57,451.21 " fill="none"
                  id="BackwardEulerScheme-backto-BackwardEulerQuasistaticUPwScheme"
                  style="stroke:#181818;stroke-width:1.0;"/>
            <polygon fill="none" points="547.86,382.16,530.44,389.6795,538.4356,398.6276,547.86,382.16"
                     style="stroke:#181818;stroke-width:1.0;"/>
        </g><!--reverse link BackwardEulerScheme to BackwardEulerQuasistaticTScheme-->
        <g id="link_BackwardEulerScheme_BackwardEulerQuasistaticTScheme">
            <path codeLine="26" d="M654.5622,394.1535 C680.0222,416.9035 697.16,432.21 718.43,451.21 " fill="none"
                  id="BackwardEulerScheme-backto-BackwardEulerQuasistaticTScheme"
                  style="stroke:#181818;stroke-width:1.0;"/>
            <polygon fill="none" points="641.14,382.16,650.5644,398.6276,658.56,389.6795,641.14,382.16"
                     style="stroke:#181818;stroke-width:1.0;"/>
        </g><!--reverse link GeoMechanicsTimeIntegrationScheme to GeneralizedNewmarkScheme-->
        <g id="link_GeoMechanicsTimeIntegrationScheme_GeneralizedNewmarkScheme">
            <path codeLine="53" d="M1156.8357,241.5305 C1254.0757,266.7005 1345.03,290.24 1423.15,310.46 " fill="none"
                  id="GeoMechanicsTimeIntegrationScheme-backto-GeneralizedNewmarkScheme"
                  style="stroke:#181818;stroke-width:1.0;"/>
            <polygon fill="none" points="1139.41,237.02,1155.3322,247.3391,1158.3392,235.722,1139.41,237.02"
                     style="stroke:#181818;stroke-width:1.0;"/>
        </g><!--reverse link GeneralizedNewmarkScheme to NewmarkQuasistaticPwScheme-->
        <g id="link_GeneralizedNewmarkScheme_NewmarkQuasistaticPwScheme">
            <path codeLine="54" d="M1405.9101,375.49 C1329.7301,396.71 1245.19,420.26 1167.2,441.99 " fill="none"
                  id="GeneralizedNewmarkScheme-backto-NewmarkQuasistaticPwScheme"
                  style="stroke:#181818;stroke-width:1.0;"/>
            <polygon fill="none" points="1423.25,370.66,1404.3001,369.7101,1407.5201,381.27,1423.25,370.66"
                     style="stroke:#181818;stroke-width:1.0;"/>
        </g><!--reverse link GeneralizedNewmarkScheme to GeneralizedNewmarkTScheme-->
        <g id="link_GeneralizedNewmarkScheme_GeneralizedNewmarkTScheme">
            <path codeLine="55" d="M1478.5589,384.8355 C1453.6689,405.6755 1435.38,421 1410.51,441.83 " fill="none"
                  id="GeneralizedNewmarkScheme-backto-GeneralizedNewmarkTScheme"
                  style="stroke:#181818;stroke-width:1.0;"/>
            <polygon fill="none" points="1492.36,373.28,1474.707,380.2351,1482.4107,389.4358,1492.36,373.28"
                     style="stroke:#181818;stroke-width:1.0;"/>
        </g><!--reverse link GeneralizedNewmarkScheme to NewmarkDynamicUPwScheme-->
        <g id="link_GeneralizedNewmarkScheme_NewmarkDynamicUPwScheme">
            <path codeLine="56" d="M1584.7252,384.7946 C1609.7652,405.6346 1628.23,421 1653.24,441.83 " fill="none"
                  id="GeneralizedNewmarkScheme-backto-NewmarkDynamicUPwScheme"
                  style="stroke:#181818;stroke-width:1.0;"/>
            <polygon fill="none" points="1570.89,373.28,1580.887,389.4064,1588.5634,380.1829,1570.89,373.28"
                     style="stroke:#181818;stroke-width:1.0;"/>
        </g><!--reverse link GeneralizedNewmarkScheme to NewmarkQuasistaticDampedUPwScheme-->
        <g id="link_GeneralizedNewmarkScheme_NewmarkQuasistaticDampedUPwScheme">
            <path codeLine="57" d="M1656.8674,375.213 C1733.6174,396.463 1819.29,420.18 1898.08,441.99 " fill="none"
                  id="GeneralizedNewmarkScheme-backto-NewmarkQuasistaticDampedUPwScheme"
                  style="stroke:#181818;stroke-width:1.0;"/>
            <polygon fill="none" points="1639.52,370.41,1655.2664,380.9955,1658.4684,369.4306,1639.52,370.41"
                     style="stroke:#181818;stroke-width:1.0;"/>
        </g><!--reverse link GeneralizedNewmarkScheme to NewmarkQuasistaticUPwScheme-->
        <g id="link_GeneralizedNewmarkScheme_NewmarkQuasistaticUPwScheme">
            <path codeLine="58"
                  d="M1657.4521,358.544 C1786.1321,377.284 1989.52,408 2178.5,442 C2183.94,442.98 2189.48,444 2195.07,445.04 "
                  fill="none" id="GeneralizedNewmarkScheme-backto-NewmarkQuasistaticUPwScheme"
                  style="stroke:#181818;stroke-width:1.0;"/>
            <polygon fill="none" points="1639.64,355.95,1656.5874,364.4814,1658.3168,352.6067,1639.64,355.95"
                     style="stroke:#181818;stroke-width:1.0;"/>
        </g><!--SRC=[jL9DSu8m5BppAt9hUw3sBBQ7ZjNfeLy3UdychpLZ0inBmEc7_xq8jAA2Gfro8zdTlDrzPtDhOzFlzM85eKsqkkIHxd45nhX2mXk1TXoO6Kl0BSlFcS_dgD4fViOOFI2VGoYv2QJ6-z1Ynh8o2alSfyEopsN6Ydu_HMuZ6ema6Vj40idde82cG19c2c_OQyEDyMfaVEHHA7BqD3_Pw9YcgqmeLqebsGGKIoCfs2GMOF4NCaIIQUOXHND-mQxPbRTFyT6k_OvWBPx1F6Vb58xPuCjrMmHJ9dWBVB444dU9MfkkP7Pyj2X58YdGs-1tvwfWLdKllYHWfB6P97zURbNR19kqn0K_Fez6KIHM5qJDMGsupaDdvkJlr62xqJ66IA3a1uf7N6gWnNwjBMegkNNckk_7gd6su6JDKcZu7eAkvdYoOiNw47ICud-qJrDjkzwDMz5qKT0ERC5XOdFJhHxSQxFhcBkDTULlcDy0]-->
    </g>
</svg>