<?xml version="1.0" encoding="us-ascii" standalone="no"?><svg xmlns="http://www.w3.org/2000/svg" xmlns:xlink="http://www.w3.org/1999/xlink" contentStyleType="text/css" height="571px" preserveAspectRatio="none" style="width:2515px;height:571px;background:#FFFFFF;" version="1.1" viewBox="0 0 2515 571" width="2515px" zoomAndPan="magnify"><defs/><g><!--class Scheme--><g id="elem_Scheme"><rect codeLine="3" fill="#F1F1F1" height="48" id="Scheme" rx="2.5" ry="2.5" style="stroke:#181818;stroke-width:0.5;" width="83" x="866" y="7"/><ellipse cx="881" cy="23" fill="#A9DCDF" rx="11" ry="11" style="stroke:#181818;stroke-width:1.0;"/><path d="M883.1875,24.7656 L879.0469,24.7656 L878.625,25.7969 L879.0469,25.7969 Q879.6563,25.7969 879.9219,26.0313 Q880.1875,26.2656 880.1875,26.6563 Q880.1875,27.0313 879.9219,27.2656 Q879.6563,27.5 879.0469,27.5 L876.75,27.5 Q876.1406,27.5 875.8906,27.2656 Q875.625,27.0313 875.625,26.6406 Q875.625,26.2656 875.9063,26.0313 Q876.1719,25.7813 876.7969,25.7969 L879.4688,19.1406 L878.3594,19.1406 Q877.75,19.1406 877.4844,18.9063 Q877.2188,18.6719 877.2188,18.2813 Q877.2188,17.9063 877.4844,17.6719 Q877.75,17.4375 878.3594,17.4375 L882.0313,17.4375 L885.4219,25.7969 Q886.0156,25.7969 886.2031,25.9375 Q886.5938,26.2031 886.5938,26.6563 Q886.5938,27.0313 886.3281,27.2656 Q886.0781,27.5 885.4688,27.5 L883.1719,27.5 Q882.5625,27.5 882.2969,27.2656 Q882.0313,27.0313 882.0313,26.6406 Q882.0313,26.2656 882.2969,26.0313 Q882.5625,25.7969 883.1719,25.7969 L883.5938,25.7969 L883.1875,24.7656 Z M882.4688,23.0625 L881.1094,19.6875 L879.7344,23.0625 L882.4688,23.0625 Z " fill="#000000"/><text fill="#000000" font-family="sans-serif" font-size="14" font-style="italic" lengthAdjust="spacing" textLength="51" x="895" y="28.7969">Scheme</text><line style="stroke:#181818;stroke-width:0.5;" x1="867" x2="948" y1="39" y2="39"/><line style="stroke:#181818;stroke-width:0.5;" x1="867" x2="948" y1="47" y2="47"/></g><!--class GeoMechanicsTimeIntegrationScheme--><g id="elem_GeoMechanicsTimeIntegrationScheme"><rect codeLine="4" fill="#F1F1F1" height="122.4844" id="GeoMechanicsTimeIntegrationScheme" rx="2.5" ry="2.5" style="stroke:#181818;stroke-width:0.5;" width="477" x="669" y="115"/><ellipse cx="781.75" cy="131" fill="#ADD1B2" rx="11" ry="11" style="stroke:#181818;stroke-width:1.0;"/><path d="M784.5156,126.875 Q784.6719,126.6563 784.8594,126.5469 Q785.0469,126.4375 785.2656,126.4375 Q785.6406,126.4375 785.875,126.7031 Q786.1094,126.9531 786.1094,127.5625 L786.1094,129.0156 Q786.1094,129.625 785.875,129.8906 Q785.6406,130.1563 785.2656,130.1563 Q784.9219,130.1563 784.7188,129.9531 Q784.5156,129.7656 784.4063,129.25 Q784.3594,128.8906 784.1719,128.7031 Q783.8438,128.3281 783.2344,128.1094 Q782.625,127.8906 782,127.8906 Q781.2344,127.8906 780.5938,128.2188 Q779.9688,128.5469 779.4688,129.2969 Q778.9844,130.0469 778.9844,131.0781 L778.9844,132.1719 Q778.9844,133.4063 779.875,134.2344 Q780.7656,135.0469 782.3594,135.0469 Q783.2969,135.0469 783.9531,134.7969 Q784.3438,134.6406 784.7656,134.2031 Q785.0313,133.9375 785.1719,133.8594 Q785.3281,133.7813 785.5313,133.7813 Q785.8594,133.7813 786.1094,134.0469 Q786.375,134.2969 786.375,134.6406 Q786.375,134.9844 786.0313,135.3906 Q785.5313,135.9688 784.7344,136.2969 Q783.6563,136.75 782.3594,136.75 Q780.8438,136.75 779.6406,136.125 Q778.6563,135.625 777.9688,134.5625 Q777.2813,133.4844 777.2813,132.2031 L777.2813,131.0469 Q777.2813,129.7188 777.8906,128.5781 Q778.5156,127.4219 779.6094,126.8125 Q780.7031,126.1875 781.9375,126.1875 Q782.6719,126.1875 783.3125,126.3594 Q783.9688,126.5156 784.5156,126.875 Z " fill="#000000"/><text fill="#000000" font-family="sans-serif" font-size="14" lengthAdjust="spacing" textLength="243" x="802.25" y="136.7969">GeoMechanicsTimeIntegrationScheme</text><line style="stroke:#181818;stroke-width:0.5;" x1="670" x2="1145" y1="147" y2="147"/><rect fill="none" height="6" style="stroke:#C82930;stroke-width:1.0;" width="6" x="677" y="158.8105"/><text fill="#000000" font-family="sans-serif" font-size="14" lengthAdjust="spacing" textLength="406" x="689" y="166.1074">std::vector&lt;FirstOrderScalarVariable&gt; firstOrderScalarVariables;</text><rect fill="none" height="6" style="stroke:#C82930;stroke-width:1.0;" width="6" x="677" y="177.4316"/><text fill="#000000" font-family="sans-serif" font-size="14" lengthAdjust="spacing" textLength="451" x="689" y="184.7285">std::vector&lt;SecondOrderVectorVariable&gt; secondOrderVectorVariables;</text><line style="stroke:#181818;stroke-width:0.5;" x1="670" x2="1145" y1="192.2422" y2="192.2422"/><text fill="#000000" font-family="sans-serif" font-size="14" lengthAdjust="spacing" textLength="284" x="675" y="211.3496">virtual void UpdateVariablesDerivatives() = 0;</text><text fill="#000000" font-family="sans-serif" font-size="14" lengthAdjust="spacing" textLength="186" x="675" y="229.9707">virtual void SetTimeFactors();</text></g><!--class BackwardEulerScheme--><g id="elem_BackwardEulerScheme"><rect codeLine="14" fill="#F1F1F1" height="85.2422" id="BackwardEulerScheme" rx="2.5" ry="2.5" style="stroke:#181818;stroke-width:0.5;" width="286" x="451.5" y="297"/><ellipse cx="517.75" cy="313" fill="#ADD1B2" rx="11" ry="11" style="stroke:#181818;stroke-width:1.0;"/><path d="M520.5156,308.875 Q520.6719,308.6563 520.8594,308.5469 Q521.0469,308.4375 521.2656,308.4375 Q521.6406,308.4375 521.875,308.7031 Q522.1094,308.9531 522.1094,309.5625 L522.1094,311.0156 Q522.1094,311.625 521.875,311.8906 Q521.6406,312.1563 521.2656,312.1563 Q520.9219,312.1563 520.7188,311.9531 Q520.5156,311.7656 520.4063,311.25 Q520.3594,310.8906 520.1719,310.7031 Q519.8438,310.3281 519.2344,310.1094 Q518.625,309.8906 518,309.8906 Q517.2344,309.8906 516.5938,310.2188 Q515.9688,310.5469 515.4688,311.2969 Q514.9844,312.0469 514.9844,313.0781 L514.9844,314.1719 Q514.9844,315.4063 515.875,316.2344 Q516.7656,317.0469 518.3594,317.0469 Q519.2969,317.0469 519.9531,316.7969 Q520.3438,316.6406 520.7656,316.2031 Q521.0313,315.9375 521.1719,315.8594 Q521.3281,315.7813 521.5313,315.7813 Q521.8594,315.7813 522.1094,316.0469 Q522.375,316.2969 522.375,316.6406 Q522.375,316.9844 522.0313,317.3906 Q521.5313,317.9688 520.7344,318.2969 Q519.6563,318.75 518.3594,318.75 Q516.8438,318.75 515.6406,318.125 Q514.6563,317.625 513.9688,316.5625 Q513.2813,315.4844 513.2813,314.2031 L513.2813,313.0469 Q513.2813,311.7188 513.8906,310.5781 Q514.5156,309.4219 515.6094,308.8125 Q516.7031,308.1875 517.9375,308.1875 Q518.6719,308.1875 519.3125,308.3594 Q519.9688,308.5156 520.5156,308.875 Z " fill="#000000"/><text fill="#000000" font-family="sans-serif" font-size="14" lengthAdjust="spacing" textLength="145" x="538.25" y="318.7969">BackwardEulerScheme</text><line style="stroke:#181818;stroke-width:0.5;" x1="452.5" x2="736.5" y1="329" y2="329"/><line style="stroke:#181818;stroke-width:0.5;" x1="452.5" x2="736.5" y1="337" y2="337"/><text fill="#000000" font-family="sans-serif" font-size="14" lengthAdjust="spacing" textLength="274" x="457.5" y="356.1074">void UpdateVariablesDerivatives() override;</text><text fill="#000000" font-family="sans-serif" font-size="14" lengthAdjust="spacing" textLength="200" x="457.5" y="374.7285">void SetTimeFactors() override;</text></g><!--class BackwardEulerQuasistaticPwScheme--><g id="elem_BackwardEulerQuasistaticPwScheme"><rect codeLine="19" fill="#F1F1F1" height="48" id="BackwardEulerQuasistaticPwScheme" rx="2.5" ry="2.5" style="stroke:#181818;stroke-width:0.5;" width="265" x="7" y="479"/><ellipse cx="22" cy="495" fill="#ADD1B2" rx="11" ry="11" style="stroke:#181818;stroke-width:1.0;"/><path d="M24.7656,490.875 Q24.9219,490.6563 25.1094,490.5469 Q25.2969,490.4375 25.5156,490.4375 Q25.8906,490.4375 26.125,490.7031 Q26.3594,490.9531 26.3594,491.5625 L26.3594,493.0156 Q26.3594,493.625 26.125,493.8906 Q25.8906,494.1563 25.5156,494.1563 Q25.1719,494.1563 24.9688,493.9531 Q24.7656,493.7656 24.6563,493.25 Q24.6094,492.8906 24.4219,492.7031 Q24.0938,492.3281 23.4844,492.1094 Q22.875,491.8906 22.25,491.8906 Q21.4844,491.8906 20.8438,492.2188 Q20.2188,492.5469 19.7188,493.2969 Q19.2344,494.0469 19.2344,495.0781 L19.2344,496.1719 Q19.2344,497.4063 20.125,498.2344 Q21.0156,499.0469 22.6094,499.0469 Q23.5469,499.0469 24.2031,498.7969 Q24.5938,498.6406 25.0156,498.2031 Q25.2813,497.9375 25.4219,497.8594 Q25.5781,497.7813 25.7813,497.7813 Q26.1094,497.7813 26.3594,498.0469 Q26.625,498.2969 26.625,498.6406 Q26.625,498.9844 26.2813,499.3906 Q25.7813,499.9688 24.9844,500.2969 Q23.9063,500.75 22.6094,500.75 Q21.0938,500.75 19.8906,500.125 Q18.9063,499.625 18.2188,498.5625 Q17.5313,497.4844 17.5313,496.2031 L17.5313,495.0469 Q17.5313,493.7188 18.1406,492.5781 Q18.7656,491.4219 19.8594,490.8125 Q20.9531,490.1875 22.1875,490.1875 Q22.9219,490.1875 23.5625,490.3594 Q24.2188,490.5156 24.7656,490.875 Z " fill="#000000"/><text fill="#000000" font-family="sans-serif" font-size="14" lengthAdjust="spacing" textLength="233" x="36" y="500.7969">BackwardEulerQuasistaticPwScheme</text><line style="stroke:#181818;stroke-width:0.5;" x1="8" x2="271" y1="511" y2="511"/><line style="stroke:#181818;stroke-width:0.5;" x1="8" x2="271" y1="519" y2="519"/></g><!--class BackwardEulerQuasistaticUPwScheme--><g id="elem_BackwardEulerQuasistaticUPwScheme"><rect codeLine="20" fill="#F1F1F1" height="48" id="BackwardEulerQuasistaticUPwScheme" rx="2.5" ry="2.5" style="stroke:#181818;stroke-width:0.5;" width="274" x="307.5" y="479"/><ellipse cx="322.5" cy="495" fill="#ADD1B2" rx="11" ry="11" style="stroke:#181818;stroke-width:1.0;"/><path d="M325.2656,490.875 Q325.4219,490.6563 325.6094,490.5469 Q325.7969,490.4375 326.0156,490.4375 Q326.3906,490.4375 326.625,490.7031 Q326.8594,490.9531 326.8594,491.5625 L326.8594,493.0156 Q326.8594,493.625 326.625,493.8906 Q326.3906,494.1563 326.0156,494.1563 Q325.6719,494.1563 325.4688,493.9531 Q325.2656,493.7656 325.1563,493.25 Q325.1094,492.8906 324.9219,492.7031 Q324.5938,492.3281 323.9844,492.1094 Q323.375,491.8906 322.75,491.8906 Q321.9844,491.8906 321.3438,492.2188 Q320.7188,492.5469 320.2188,493.2969 Q319.7344,494.0469 319.7344,495.0781 L319.7344,496.1719 Q319.7344,497.4063 320.625,498.2344 Q321.5156,499.0469 323.1094,499.0469 Q324.0469,499.0469 324.7031,498.7969 Q325.0938,498.6406 325.5156,498.2031 Q325.7813,497.9375 325.9219,497.8594 Q326.0781,497.7813 326.2813,497.7813 Q326.6094,497.7813 326.8594,498.0469 Q327.125,498.2969 327.125,498.6406 Q327.125,498.9844 326.7813,499.3906 Q326.2813,499.9688 325.4844,500.2969 Q324.4063,500.75 323.1094,500.75 Q321.5938,500.75 320.3906,500.125 Q319.4063,499.625 318.7188,498.5625 Q318.0313,497.4844 318.0313,496.2031 L318.0313,495.0469 Q318.0313,493.7188 318.6406,492.5781 Q319.2656,491.4219 320.3594,490.8125 Q321.4531,490.1875 322.6875,490.1875 Q323.4219,490.1875 324.0625,490.3594 Q324.7188,490.5156 325.2656,490.875 Z " fill="#000000"/><text fill="#000000" font-family="sans-serif" font-size="14" lengthAdjust="spacing" textLength="242" x="336.5" y="500.7969">BackwardEulerQuasistaticUPwScheme</text><line style="stroke:#181818;stroke-width:0.5;" x1="308.5" x2="580.5" y1="511" y2="511"/><line style="stroke:#181818;stroke-width:0.5;" x1="308.5" x2="580.5" y1="519" y2="519"/></g><!--class BackwardEulerQuasistaticTScheme--><g id="elem_BackwardEulerQuasistaticTScheme"><rect codeLine="21" fill="#F1F1F1" height="48" id="BackwardEulerQuasistaticTScheme" rx="2.5" ry="2.5" style="stroke:#181818;stroke-width:0.5;" width="256" x="616.5" y="479"/><ellipse cx="631.5" cy="495" fill="#ADD1B2" rx="11" ry="11" style="stroke:#181818;stroke-width:1.0;"/><path d="M634.2656,490.875 Q634.4219,490.6563 634.6094,490.5469 Q634.7969,490.4375 635.0156,490.4375 Q635.3906,490.4375 635.625,490.7031 Q635.8594,490.9531 635.8594,491.5625 L635.8594,493.0156 Q635.8594,493.625 635.625,493.8906 Q635.3906,494.1563 635.0156,494.1563 Q634.6719,494.1563 634.4688,493.9531 Q634.2656,493.7656 634.1563,493.25 Q634.1094,492.8906 633.9219,492.7031 Q633.5938,492.3281 632.9844,492.1094 Q632.375,491.8906 631.75,491.8906 Q630.9844,491.8906 630.3438,492.2188 Q629.7188,492.5469 629.2188,493.2969 Q628.7344,494.0469 628.7344,495.0781 L628.7344,496.1719 Q628.7344,497.4063 629.625,498.2344 Q630.5156,499.0469 632.1094,499.0469 Q633.0469,499.0469 633.7031,498.7969 Q634.0938,498.6406 634.5156,498.2031 Q634.7813,497.9375 634.9219,497.8594 Q635.0781,497.7813 635.2813,497.7813 Q635.6094,497.7813 635.8594,498.0469 Q636.125,498.2969 636.125,498.6406 Q636.125,498.9844 635.7813,499.3906 Q635.2813,499.9688 634.4844,500.2969 Q633.4063,500.75 632.1094,500.75 Q630.5938,500.75 629.3906,500.125 Q628.4063,499.625 627.7188,498.5625 Q627.0313,497.4844 627.0313,496.2031 L627.0313,495.0469 Q627.0313,493.7188 627.6406,492.5781 Q628.2656,491.4219 629.3594,490.8125 Q630.4531,490.1875 631.6875,490.1875 Q632.4219,490.1875 633.0625,490.3594 Q633.7188,490.5156 634.2656,490.875 Z " fill="#000000"/><text fill="#000000" font-family="sans-serif" font-size="14" lengthAdjust="spacing" textLength="224" x="645.5" y="500.7969">BackwardEulerQuasistaticTScheme</text><line style="stroke:#181818;stroke-width:0.5;" x1="617.5" x2="871.5" y1="511" y2="511"/><line style="stroke:#181818;stroke-width:0.5;" x1="617.5" x2="871.5" y1="519" y2="519"/></g><!--class GeneralizedNewmarkScheme--><g id="elem_GeneralizedNewmarkScheme"><rect codeLine="28" fill="#F1F1F1" height="66.6211" id="GeneralizedNewmarkScheme" rx="2.5" ry="2.5" style="stroke:#181818;stroke-width:0.5;" width="216" x="1427.5" y="306"/><ellipse cx="1442.5" cy="322" fill="#ADD1B2" rx="11" ry="11" style="stroke:#181818;stroke-width:1.0;"/><path d="M1445.2656,317.875 Q1445.4219,317.6563 1445.6094,317.5469 Q1445.7969,317.4375 1446.0156,317.4375 Q1446.3906,317.4375 1446.625,317.7031 Q1446.8594,317.9531 1446.8594,318.5625 L1446.8594,320.0156 Q1446.8594,320.625 1446.625,320.8906 Q1446.3906,321.1563 1446.0156,321.1563 Q1445.6719,321.1563 1445.4688,320.9531 Q1445.2656,320.7656 1445.1563,320.25 Q1445.1094,319.8906 1444.9219,319.7031 Q1444.5938,319.3281 1443.9844,319.1094 Q1443.375,318.8906 1442.75,318.8906 Q1441.9844,318.8906 1441.3438,319.2188 Q1440.7188,319.5469 1440.2188,320.2969 Q1439.7344,321.0469 1439.7344,322.0781 L1439.7344,323.1719 Q1439.7344,324.4063 1440.625,325.2344 Q1441.5156,326.0469 1443.1094,326.0469 Q1444.0469,326.0469 1444.7031,325.7969 Q1445.0938,325.6406 1445.5156,325.2031 Q1445.7813,324.9375 1445.9219,324.8594 Q1446.0781,324.7813 1446.2813,324.7813 Q1446.6094,324.7813 1446.8594,325.0469 Q1447.125,325.2969 1447.125,325.6406 Q1447.125,325.9844 1446.7813,326.3906 Q1446.2813,326.9688 1445.4844,327.2969 Q1444.4063,327.75 1443.1094,327.75 Q1441.5938,327.75 1440.3906,327.125 Q1439.4063,326.625 1438.7188,325.5625 Q1438.0313,324.4844 1438.0313,323.2031 L1438.0313,322.0469 Q1438.0313,320.7188 1438.6406,319.5781 Q1439.2656,318.4219 1440.3594,317.8125 Q1441.4531,317.1875 1442.6875,317.1875 Q1443.4219,317.1875 1444.0625,317.3594 Q1444.7188,317.5156 1445.2656,317.875 Z " fill="#000000"/><text fill="#000000" font-family="sans-serif" font-size="14" lengthAdjust="spacing" textLength="184" x="1456.5" y="327.7969">GeneralizedNewmarkScheme</text><line style="stroke:#181818;stroke-width:0.5;" x1="1428.5" x2="1642.5" y1="338" y2="338"/><line style="stroke:#181818;stroke-width:0.5;" x1="1428.5" x2="1642.5" y1="346" y2="346"/><text fill="#000000" font-family="sans-serif" font-size="14" lengthAdjust="spacing" textLength="200" x="1433.5" y="365.1074">void SetTimeFactors() override;</text></g><!--class NewmarkQuasistaticPwScheme--><g id="elem_NewmarkQuasistaticPwScheme"><rect codeLine="32" fill="#F1F1F1" height="66.6211" id="NewmarkQuasistaticPwScheme" rx="2.5" ry="2.5" style="stroke:#181818;stroke-width:0.5;" width="286" x="907.5" y="469.5"/><ellipse cx="948.6" cy="485.5" fill="#ADD1B2" rx="11" ry="11" style="stroke:#181818;stroke-width:1.0;"/><path d="M951.3656,481.375 Q951.5219,481.1563 951.7094,481.0469 Q951.8969,480.9375 952.1156,480.9375 Q952.4906,480.9375 952.725,481.2031 Q952.9594,481.4531 952.9594,482.0625 L952.9594,483.5156 Q952.9594,484.125 952.725,484.3906 Q952.4906,484.6563 952.1156,484.6563 Q951.7719,484.6563 951.5688,484.4531 Q951.3656,484.2656 951.2563,483.75 Q951.2094,483.3906 951.0219,483.2031 Q950.6938,482.8281 950.0844,482.6094 Q949.475,482.3906 948.85,482.3906 Q948.0844,482.3906 947.4438,482.7188 Q946.8188,483.0469 946.3188,483.7969 Q945.8344,484.5469 945.8344,485.5781 L945.8344,486.6719 Q945.8344,487.9063 946.725,488.7344 Q947.6156,489.5469 949.2094,489.5469 Q950.1469,489.5469 950.8031,489.2969 Q951.1938,489.1406 951.6156,488.7031 Q951.8813,488.4375 952.0219,488.3594 Q952.1781,488.2813 952.3813,488.2813 Q952.7094,488.2813 952.9594,488.5469 Q953.225,488.7969 953.225,489.1406 Q953.225,489.4844 952.8813,489.8906 Q952.3813,490.4688 951.5844,490.7969 Q950.5063,491.25 949.2094,491.25 Q947.6938,491.25 946.4906,490.625 Q945.5063,490.125 944.8188,489.0625 Q944.1313,487.9844 944.1313,486.7031 L944.1313,485.5469 Q944.1313,484.2188 944.7406,483.0781 Q945.3656,481.9219 946.4594,481.3125 Q947.5531,480.6875 948.7875,480.6875 Q949.5219,480.6875 950.1625,480.8594 Q950.8188,481.0156 951.3656,481.375 Z " fill="#000000"/><text fill="#000000" font-family="sans-serif" font-size="14" lengthAdjust="spacing" textLength="196" x="968.4" y="491.2969">NewmarkQuasistaticPwScheme</text><line style="stroke:#181818;stroke-width:0.5;" x1="908.5" x2="1192.5" y1="501.5" y2="501.5"/><line style="stroke:#181818;stroke-width:0.5;" x1="908.5" x2="1192.5" y1="509.5" y2="509.5"/><text fill="#000000" font-family="sans-serif" font-size="14" lengthAdjust="spacing" textLength="274" x="913.5" y="528.6074">void UpdateVariablesDerivatives() override;</text></g><!--class GeneralizedNewmarkTScheme--><g id="elem_GeneralizedNewmarkTScheme"><rect codeLine="36" fill="#F1F1F1" height="66.6211" id="GeneralizedNewmarkTScheme" rx="2.5" ry="2.5" style="stroke:#181818;stroke-width:0.5;" width="286" x="1228.5" y="469.5"/><ellipse cx="1270.95" cy="485.5" fill="#ADD1B2" rx="11" ry="11" style="stroke:#181818;stroke-width:1.0;"/><path d="M1273.7156,481.375 Q1273.8719,481.1563 1274.0594,481.0469 Q1274.2469,480.9375 1274.4656,480.9375 Q1274.8406,480.9375 1275.075,481.2031 Q1275.3094,481.4531 1275.3094,482.0625 L1275.3094,483.5156 Q1275.3094,484.125 1275.075,484.3906 Q1274.8406,484.6563 1274.4656,484.6563 Q1274.1219,484.6563 1273.9188,484.4531 Q1273.7156,484.2656 1273.6063,483.75 Q1273.5594,483.3906 1273.3719,483.2031 Q1273.0438,482.8281 1272.4344,482.6094 Q1271.825,482.3906 1271.2,482.3906 Q1270.4344,482.3906 1269.7938,482.7188 Q1269.1688,483.0469 1268.6688,483.7969 Q1268.1844,484.5469 1268.1844,485.5781 L1268.1844,486.6719 Q1268.1844,487.9063 1269.075,488.7344 Q1269.9656,489.5469 1271.5594,489.5469 Q1272.4969,489.5469 1273.1531,489.2969 Q1273.5438,489.1406 1273.9656,488.7031 Q1274.2313,488.4375 1274.3719,488.3594 Q1274.5281,488.2813 1274.7313,488.2813 Q1275.0594,488.2813 1275.3094,488.5469 Q1275.575,488.7969 1275.575,489.1406 Q1275.575,489.4844 1275.2313,489.8906 Q1274.7313,490.4688 1273.9344,490.7969 Q1272.8563,491.25 1271.5594,491.25 Q1270.0438,491.25 1268.8406,490.625 Q1267.8563,490.125 1267.1688,489.0625 Q1266.4813,487.9844 1266.4813,486.7031 L1266.4813,485.5469 Q1266.4813,484.2188 1267.0906,483.0781 Q1267.7156,481.9219 1268.8094,481.3125 Q1269.9031,480.6875 1271.1375,480.6875 Q1271.8719,480.6875 1272.5125,480.8594 Q1273.1688,481.0156 1273.7156,481.375 Z " fill="#000000"/><text fill="#000000" font-family="sans-serif" font-size="14" lengthAdjust="spacing" textLength="193" x="1291.05" y="491.2969">GeneralizedNewmarkTScheme</text><line style="stroke:#181818;stroke-width:0.5;" x1="1229.5" x2="1513.5" y1="501.5" y2="501.5"/><line style="stroke:#181818;stroke-width:0.5;" x1="1229.5" x2="1513.5" y1="509.5" y2="509.5"/><text fill="#000000" font-family="sans-serif" font-size="14" lengthAdjust="spacing" textLength="274" x="1234.5" y="528.6074">void UpdateVariablesDerivatives() override;</text></g><!--class NewmarkDynamicUPwScheme--><g id="elem_NewmarkDynamicUPwScheme"><rect codeLine="40" fill="#F1F1F1" height="122.4844" id="NewmarkDynamicUPwScheme" rx="2.5" ry="2.5" style="stroke:#181818;stroke-width:0.5;" width="301" x="1550" y="442"/><ellipse cx="1601.75" cy="458" fill="#ADD1B2" rx="11" ry="11" style="stroke:#181818;stroke-width:1.0;"/><path d="M1604.5156,453.875 Q1604.6719,453.6563 1604.8594,453.5469 Q1605.0469,453.4375 1605.2656,453.4375 Q1605.6406,453.4375 1605.875,453.7031 Q1606.1094,453.9531 1606.1094,454.5625 L1606.1094,456.0156 Q1606.1094,456.625 1605.875,456.8906 Q1605.6406,457.1563 1605.2656,457.1563 Q1604.9219,457.1563 1604.7188,456.9531 Q1604.5156,456.7656 1604.4063,456.25 Q1604.3594,455.8906 1604.1719,455.7031 Q1603.8438,455.3281 1603.2344,455.1094 Q1602.625,454.8906 1602,454.8906 Q1601.2344,454.8906 1600.5938,455.2188 Q1599.9688,455.5469 1599.4688,456.2969 Q1598.9844,457.0469 1598.9844,458.0781 L1598.9844,459.1719 Q1598.9844,460.4063 1599.875,461.2344 Q1600.7656,462.0469 1602.3594,462.0469 Q1603.2969,462.0469 1603.9531,461.7969 Q1604.3438,461.6406 1604.7656,461.2031 Q1605.0313,460.9375 1605.1719,460.8594 Q1605.3281,460.7813 1605.5313,460.7813 Q1605.8594,460.7813 1606.1094,461.0469 Q1606.375,461.2969 1606.375,461.6406 Q1606.375,461.9844 1606.0313,462.3906 Q1605.5313,462.9688 1604.7344,463.2969 Q1603.6563,463.75 1602.3594,463.75 Q1600.8438,463.75 1599.6406,463.125 Q1598.6563,462.625 1597.9688,461.5625 Q1597.2813,460.4844 1597.2813,459.2031 L1597.2813,458.0469 Q1597.2813,456.7188 1597.8906,455.5781 Q1598.5156,454.4219 1599.6094,453.8125 Q1600.7031,453.1875 1601.9375,453.1875 Q1602.6719,453.1875 1603.3125,453.3594 Q1603.9688,453.5156 1604.5156,453.875 Z " fill="#000000"/><text fill="#000000" font-family="sans-serif" font-size="14" lengthAdjust="spacing" textLength="189" x="1622.25" y="463.7969">NewmarkDynamicUPwScheme</text><line style="stroke:#181818;stroke-width:0.5;" x1="1551" x2="1850" y1="474" y2="474"/><line style="stroke:#181818;stroke-width:0.5;" x1="1551" x2="1850" y1="482" y2="482"/><text fill="#000000" font-family="sans-serif" font-size="14" lengthAdjust="spacing" textLength="274" x="1556" y="501.1074">void UpdateVariablesDerivatives() override;</text><text fill="#000000" font-family="sans-serif" font-size="14" lengthAdjust="spacing" textLength="289" x="1556" y="519.7285">void CalculateSystemContributions() override;</text><text fill="#000000" font-family="sans-serif" font-size="14" lengthAdjust="spacing" textLength="262" x="1556" y="538.3496">void CalculateLHSContribution() override;</text><text fill="#000000" font-family="sans-serif" font-size="14" lengthAdjust="spacing" textLength="264" x="1556" y="556.9707">void CalculateRHSContribution() override;</text></g><!--class NewmarkQuasistaticDampedUPwScheme--><g id="elem_NewmarkQuasistaticDampedUPwScheme"><rect codeLine="47" fill="#F1F1F1" height="122.4844" id="NewmarkQuasistaticDampedUPwScheme" rx="2.5" ry="2.5" style="stroke:#181818;stroke-width:0.5;" width="301" x="1886" y="442"/><ellipse cx="1905.95" cy="458" fill="#ADD1B2" rx="11" ry="11" style="stroke:#181818;stroke-width:1.0;"/><path d="M1908.7156,453.875 Q1908.8719,453.6563 1909.0594,453.5469 Q1909.2469,453.4375 1909.4656,453.4375 Q1909.8406,453.4375 1910.075,453.7031 Q1910.3094,453.9531 1910.3094,454.5625 L1910.3094,456.0156 Q1910.3094,456.625 1910.075,456.8906 Q1909.8406,457.1563 1909.4656,457.1563 Q1909.1219,457.1563 1908.9188,456.9531 Q1908.7156,456.7656 1908.6063,456.25 Q1908.5594,455.8906 1908.3719,455.7031 Q1908.0438,455.3281 1907.4344,455.1094 Q1906.825,454.8906 1906.2,454.8906 Q1905.4344,454.8906 1904.7938,455.2188 Q1904.1688,455.5469 1903.6688,456.2969 Q1903.1844,457.0469 1903.1844,458.0781 L1903.1844,459.1719 Q1903.1844,460.4063 1904.075,461.2344 Q1904.9656,462.0469 1906.5594,462.0469 Q1907.4969,462.0469 1908.1531,461.7969 Q1908.5438,461.6406 1908.9656,461.2031 Q1909.2313,460.9375 1909.3719,460.8594 Q1909.5281,460.7813 1909.7313,460.7813 Q1910.0594,460.7813 1910.3094,461.0469 Q1910.575,461.2969 1910.575,461.6406 Q1910.575,461.9844 1910.2313,462.3906 Q1909.7313,462.9688 1908.9344,463.2969 Q1907.8563,463.75 1906.5594,463.75 Q1905.0438,463.75 1903.8406,463.125 Q1902.8563,462.625 1902.1688,461.5625 Q1901.4813,460.4844 1901.4813,459.2031 L1901.4813,458.0469 Q1901.4813,456.7188 1902.0906,455.5781 Q1902.7156,454.4219 1903.8094,453.8125 Q1904.9031,453.1875 1906.1375,453.1875 Q1906.8719,453.1875 1907.5125,453.3594 Q1908.1688,453.5156 1908.7156,453.875 Z " fill="#000000"/><text fill="#000000" font-family="sans-serif" font-size="14" lengthAdjust="spacing" textLength="258" x="1921.05" y="463.7969">NewmarkQuasistaticDampedUPwScheme</text><line style="stroke:#181818;stroke-width:0.5;" x1="1887" x2="2186" y1="474" y2="474"/><line style="stroke:#181818;stroke-width:0.5;" x1="1887" x2="2186" y1="482" y2="482"/><text fill="#000000" font-family="sans-serif" font-size="14" lengthAdjust="spacing" textLength="274" x="1892" y="501.1074">void UpdateVariablesDerivatives() override;</text><text fill="#000000" font-family="sans-serif" font-size="14" lengthAdjust="spacing" textLength="289" x="1892" y="519.7285">void CalculateSystemContributions() override;</text><text fill="#000000" font-family="sans-serif" font-size="14" lengthAdjust="spacing" textLength="262" x="1892" y="538.3496">void CalculateLHSContribution() override;</text><text fill="#000000" font-family="sans-serif" font-size="14" lengthAdjust="spacing" textLength="264" x="1892" y="556.9707">void CalculateRHSContribution() override;</text></g><!--class NewmarkQuasistaticUPwScheme--><g id="elem_NewmarkQuasistaticUPwScheme"><rect codeLine="54" fill="#F1F1F1" height="66.6211" id="NewmarkQuasistaticUPwScheme" rx="2.5" ry="2.5" style="stroke:#181818;stroke-width:0.5;" width="286" x="2222.5" y="469.5"/><ellipse cx="2259.55" cy="485.5" fill="#ADD1B2" rx="11" ry="11" style="stroke:#181818;stroke-width:1.0;"/><path d="M2262.3156,481.375 Q2262.4719,481.1563 2262.6594,481.0469 Q2262.8469,480.9375 2263.0656,480.9375 Q2263.4406,480.9375 2263.675,481.2031 Q2263.9094,481.4531 2263.9094,482.0625 L2263.9094,483.5156 Q2263.9094,484.125 2263.675,484.3906 Q2263.4406,484.6563 2263.0656,484.6563 Q2262.7219,484.6563 2262.5188,484.4531 Q2262.3156,484.2656 2262.2063,483.75 Q2262.1594,483.3906 2261.9719,483.2031 Q2261.6438,482.8281 2261.0344,482.6094 Q2260.425,482.3906 2259.8,482.3906 Q2259.0344,482.3906 2258.3938,482.7188 Q2257.7688,483.0469 2257.2688,483.7969 Q2256.7844,484.5469 2256.7844,485.5781 L2256.7844,486.6719 Q2256.7844,487.9063 2257.675,488.7344 Q2258.5656,489.5469 2260.1594,489.5469 Q2261.0969,489.5469 2261.7531,489.2969 Q2262.1438,489.1406 2262.5656,488.7031 Q2262.8313,488.4375 2262.9719,488.3594 Q2263.1281,488.2813 2263.3313,488.2813 Q2263.6594,488.2813 2263.9094,488.5469 Q2264.175,488.7969 2264.175,489.1406 Q2264.175,489.4844 2263.8313,489.8906 Q2263.3313,490.4688 2262.5344,490.7969 Q2261.4563,491.25 2260.1594,491.25 Q2258.6438,491.25 2257.4406,490.625 Q2256.4563,490.125 2255.7688,489.0625 Q2255.0813,487.9844 2255.0813,486.7031 L2255.0813,485.5469 Q2255.0813,484.2188 2255.6906,483.0781 Q2256.3156,481.9219 2257.4094,481.3125 Q2258.5031,480.6875 2259.7375,480.6875 Q2260.4719,480.6875 2261.1125,480.8594 Q2261.7688,481.0156 2262.3156,481.375 Z " fill="#000000"/><text fill="#000000" font-family="sans-serif" font-size="14" lengthAdjust="spacing" textLength="205" x="2278.45" y="491.2969">NewmarkQuasistaticUPwScheme</text><line style="stroke:#181818;stroke-width:0.5;" x1="2223.5" x2="2507.5" y1="501.5" y2="501.5"/><line style="stroke:#181818;stroke-width:0.5;" x1="2223.5" x2="2507.5" y1="509.5" y2="509.5"/><text fill="#000000" font-family="sans-serif" font-size="14" lengthAdjust="spacing" textLength="274" x="2228.5" y="528.6074">void UpdateVariablesDerivatives() override;</text></g><!--reverse link Scheme to GeoMechanicsTimeIntegrationScheme--><g id="link_Scheme_GeoMechanicsTimeIntegrationScheme"><path codeLine="12" d="M907.5,73.29 C907.5,89.52 907.5,93.94 907.5,115 " fill="none" id="Scheme-backto-GeoMechanicsTimeIntegrationScheme" style="stroke:#181818;stroke-width:1.0;"/><polygon fill="none" points="907.5,55.29,901.5,73.29,913.5,73.29,907.5,55.29" style="stroke:#181818;stroke-width:1.0;"/></g><!--reverse link GeoMechanicsTimeIntegrationScheme to BackwardEulerScheme--><g id="link_GeoMechanicsTimeIntegrationScheme_BackwardEulerScheme"><path codeLine="23" d="M774.9536,245.3931 C736.3636,265.3031 710.31,278.75 675.04,296.94 " fill="none" id="GeoMechanicsTimeIntegrationScheme-backto-BackwardEulerScheme" style="stroke:#181818;stroke-width:1.0;"/><polygon fill="none" points="790.95,237.14,772.2025,240.061,777.7046,250.7253,790.95,237.14" style="stroke:#181818;stroke-width:1.0;"/></g><!--reverse link BackwardEulerScheme to BackwardEulerQuasistaticPwScheme--><g id="link_BackwardEulerScheme_BackwardEulerQuasistaticPwScheme"><path codeLine="24" d="M446.9427,387.6283 C392.7027,405.3783 346.36,421.19 289.5,442 C257.89,453.57 222.96,467.48 194.76,478.99 " fill="none" id="BackwardEulerScheme-backto-BackwardEulerQuasistaticPwScheme" style="stroke:#181818;stroke-width:1.0;"/><polygon fill="none" points="464.05,382.03,445.0766,381.9259,448.8088,393.3308,464.05,382.03" style="stroke:#181818;stroke-width:1.0;"/></g><!--reverse link BackwardEulerScheme to BackwardEulerQuasistaticUPwScheme--><g id="link_BackwardEulerScheme_BackwardEulerQuasistaticUPwScheme"><path codeLine="25" d="M543.6219,395.2803 C515.1519,425.9403 489.7,453.33 466.28,478.55 " fill="none" id="BackwardEulerScheme-backto-BackwardEulerQuasistaticUPwScheme" style="stroke:#181818;stroke-width:1.0;"/><polygon fill="none" points="555.87,382.09,539.2251,391.1976,548.0186,399.363,555.87,382.09" style="stroke:#181818;stroke-width:1.0;"/></g><!--reverse link BackwardEulerScheme to BackwardEulerQuasistaticTScheme--><g id="link_BackwardEulerScheme_BackwardEulerQuasistaticTScheme"><path codeLine="26" d="M645.3781,395.2803 C673.8481,425.9403 699.3,453.33 722.72,478.55 " fill="none" id="BackwardEulerScheme-backto-BackwardEulerQuasistaticTScheme" style="stroke:#181818;stroke-width:1.0;"/><polygon fill="none" points="633.13,382.09,640.9814,399.363,649.7749,391.1976,633.13,382.09" style="stroke:#181818;stroke-width:1.0;"/></g><!--reverse link GeoMechanicsTimeIntegrationScheme to GeneralizedNewmarkScheme--><g id="link_GeoMechanicsTimeIntegrationScheme_GeneralizedNewmarkScheme"><path codeLine="59" d="M1158.3326,241.5037 C1256.5426,266.7637 1348.61,290.44 1427.3,310.67 " fill="none" id="GeoMechanicsTimeIntegrationScheme-backto-GeneralizedNewmarkScheme" style="stroke:#181818;stroke-width:1.0;"/><polygon fill="none" points="1140.9,237.02,1156.838,247.3146,1159.8272,235.6929,1140.9,237.02" style="stroke:#181818;stroke-width:1.0;"/></g><!--reverse link GeneralizedNewmarkScheme to NewmarkQuasistaticPwScheme--><g id="link_GeneralizedNewmarkScheme_NewmarkQuasistaticPwScheme"><path codeLine="60" d="M1410.1858,377.8275 C1346.7258,397.0875 1282.34,417.33 1210.5,442 C1185.81,450.48 1159.19,460.22 1134.88,469.35 " fill="none" id="GeneralizedNewmarkScheme-backto-NewmarkQuasistaticPwScheme" style="stroke:#181818;stroke-width:1.0;"/><polygon fill="none" points="1427.41,372.6,1408.4433,372.0861,1411.9283,383.5689,1427.41,372.6" style="stroke:#181818;stroke-width:1.0;"/></g><!--reverse link GeneralizedNewmarkScheme to GeneralizedNewmarkTScheme--><g id="link_GeneralizedNewmarkScheme_GeneralizedNewmarkTScheme"><path codeLine="61" d="M1489.4855,385.8106 C1461.0355,413.8306 1433.08,441.36 1404.64,469.37 " fill="none" id="GeneralizedNewmarkScheme-backto-GeneralizedNewmarkTScheme" style="stroke:#181818;stroke-width:1.0;"/><polygon fill="none" points="1502.31,373.18,1485.2753,381.5358,1493.6957,390.0855,1502.31,373.18" style="stroke:#181818;stroke-width:1.0;"/></g><!--reverse link GeneralizedNewmarkScheme to NewmarkDynamicUPwScheme--><g id="link_GeneralizedNewmarkScheme_NewmarkDynamicUPwScheme"><path codeLine="62" d="M1581.7513,385.7732 C1601.9013,405.5032 1615.34,418.65 1639.13,441.93 " fill="none" id="GeneralizedNewmarkScheme-backto-NewmarkDynamicUPwScheme" style="stroke:#181818;stroke-width:1.0;"/><polygon fill="none" points="1568.89,373.18,1577.5535,390.0603,1585.949,381.4861,1568.89,373.18" style="stroke:#181818;stroke-width:1.0;"/></g><!--reverse link GeneralizedNewmarkScheme to NewmarkQuasistaticDampedUPwScheme--><g id="link_GeneralizedNewmarkScheme_NewmarkQuasistaticDampedUPwScheme"><path codeLine="63" d="M1660.7645,377.1467 C1726.1245,396.5667 1793.76,417.28 1868.5,442 C1874.23,443.9 1880.07,445.85 1885.96,447.85 " fill="none" id="GeneralizedNewmarkScheme-backto-NewmarkQuasistaticDampedUPwScheme" style="stroke:#181818;stroke-width:1.0;"/><polygon fill="none" points="1643.51,372.02,1659.0556,382.8982,1662.4734,371.3952,1643.51,372.02" style="stroke:#181818;stroke-width:1.0;"/></g><!--reverse link GeneralizedNewmarkScheme to NewmarkQuasistaticUPwScheme--><g id="link_GeneralizedNewmarkScheme_NewmarkQuasistaticUPwScheme"><path codeLine="64" d="M1661.6715,351.7824 C1795.1215,365.0624 2010.19,391.63 2204.5,442 C2232.22,449.19 2261.79,459.42 2287.93,469.41 " fill="none" id="GeneralizedNewmarkScheme-backto-NewmarkQuasistaticUPwScheme" style="stroke:#181818;stroke-width:1.0;"/><polygon fill="none" points="1643.76,350,1661.0774,357.7529,1662.2657,345.8119,1643.76,350" style="stroke:#181818;stroke-width:1.0;"/></g><!--SRC=[vLDDKy8m4BttL-Ic7YgUANeG19tnkvJxagoI8MawILe6bVzkWIfV3IrojBScxxtiUxjxCh8sCSr68n4GsrIASwfaWmemncSStZL8puEXiHge9Ojp4j8HIlIMFprK3qX747Dg-bpYNMmnPrckuWBtwP7yyucnhDdCa5gbMrskZNtI37L8GO0UWEOm57X5tXmt9YYH2P6gc2tGWyN9IiUuhdAXXLB6jKr1a4nnHgA4WSLVI0Srpt8F6PhJCt99Be9TIeXsxhSBS_4S5dWpR-cOjBvylqOmHOBNGCSJqEmc5NFJQvbLbwOor9ep35RuxRhMCBEo5rzICDpON98-JpPQwu95DN7z7v-LKImJAmkYvAm4NERXO6RqTsf_iwCzZ563u1_87d4YGOztsrgZJGMtpDpXyp5prjO_MhCGwanZaEiv7Z75RH0q5Jabd1gBigrYg_amdOzC5UF-Dbo7Lw1Vzw3TZUY0J93z1wVHKJDNT_MT6-EwMDBsRCX-ediBQZsuC-c7bhazFuVoLynl]--></g></svg>