21HTranslator GiD - IGES                                                S      1
1H,,1H;,3HGiD,                                                          G      1
118HD:/Program Files/GiD/GiD 14.1.8d/problemtypes/DEMClusters/DEMClusterG      2
s.gid/reference files/example_geom.gid/exemple.igs,3HGiD,7H14.1.8d,32,  G      3
38,6,308,15,,1.,2,2HMM,10,10.,13H200331.122101,1.00000000E-08,          G      4
2.42770812,,                                                            G      5
65HCIMNE - International Center for Numerical Methods in Engineering,11,G      6
0,;                                                                     G      7
     314       1       0       0       0       0       0       000000200D      1
     314       0       1       1       0                   COLOR       1D      2
     406       2       0       0       1       0       0       000000300D      3
     406       0      -1       1       3                LEVELDEF       1D      4
     502       3       0       0       0       0       0       000010000D      5
     502       0       0       4       1                VERTLIST       0D      6
     110       7       0       0       1       0       0       000010000D      7
     110       0       0       1       0                  STLINE       1D      8
     110       8       0       0       1       0       0       000010000D      9
     110       0       0       1       0                  STLINE       2D     10
     110       9       0       0       1       0       0       000010000D     11
     110       0       0       1       0                  STLINE       3D     12
     110      10       0       0       1       0       0       000010000D     13
     110       0       0       1       0                  STLINE       4D     14
     110      11       0       0       1       0       0       000010000D     15
     110       0       0       1       0                  STLINE       5D     16
     110      12       0       0       1       0       0       000010000D     17
     110       0       0       1       0                  STLINE       6D     18
     110      13       0       0       1       0       0       000010000D     19
     110       0       0       1       0                  STLINE       7D     20
     110      14       0       0       1       0       0       000010000D     21
     110       0       0       1       0                  STLINE       8D     22
     110      15       0       0       1       0       0       000010000D     23
     110       0       0       2       0                  STLINE       9D     24
     110      17       0       0       1       0       0       000010000D     25
     110       0       0       1       0                  STLINE      10D     26
     110      18       0       0       1       0       0       000010000D     27
     110       0       0       2       0                  STLINE      11D     28
     110      20       0       0       1       0       0       000010000D     29
     110       0       0       1       0                  STLINE      12D     30
     504      21       0       0       0       0       0       000010001D     31
     504       0       0       3       1                EDGELIST       0D     32
     128      24       0       0       1       0       0       000010000D     33
     128       0       0       4       0                NURBSURF       1D     34
     128      28       0       0       1       0       0       000010000D     35
     128       0       0       4       0                NURBSURF       2D     36
     128      32       0       0       1       0       0       000010000D     37
     128       0       0       4       0                NURBSURF       3D     38
     128      36       0       0       1       0       0       000010000D     39
     128       0       0       4       0                NURBSURF       4D     40
     128      40       0       0       1       0       0       000010000D     41
     128       0       0       4       0                NURBSURF       5D     42
     128      44       0       0       1       0       0       000010000D     43
     128       0       0       4       0                NURBSURF       6D     44
     508      48       0       0       0       0       0       000010000D     45
     508       0       0       1       1                    LOOP       1D     46
     508      49       0       0       0       0       0       000010000D     47
     508       0       0       1       1                    LOOP       2D     48
     508      50       0       0       0       0       0       000010000D     49
     508       0       0       1       1                    LOOP       3D     50
     508      51       0       0       0       0       0       000010000D     51
     508       0       0       1       1                    LOOP       4D     52
     508      52       0       0       0       0       0       000010000D     53
     508       0       0       1       1                    LOOP       5D     54
     508      53       0       0       0       0       0       000010000D     55
     508       0       0       1       1                    LOOP       6D     56
     510      54       0       0       1       0       0       000010000D     57
     510       0       0       1       1                    FACE       1D     58
     510      55       0       0       1       0       0       000010000D     59
     510       0       0       1       1                    FACE       2D     60
     510      56       0       0       1       0       0       000010000D     61
     510       0       0       1       1                    FACE       3D     62
     510      57       0       0       1       0       0       000010000D     63
     510       0       0       1       1                    FACE       4D     64
     510      58       0       0       1       0       0       000010000D     65
     510       0       0       1       1                    FACE       5D     66
     510      59       0       0       1       0       0       000010000D     67
     510       0       0       1       1                    FACE       6D     68
     514      60       0       0       1       0       0       000010000D     69
     514       0       0       1       1                   SHELL       1D     70
     186      61       0       0       1       0       0       000000000D     71
     186       0       0       1       0                   SOLID       1D     72
314,60.,60.,60.,16HRGB(153,153,153);                                   1P      1
406,2,1,6HLayer0;                                                      3P      2
502,8,-0.0827616,-1.34132,2.34494652,2.26218492,-1.34132,0.,           5P      3
-0.0827616,-1.34132,-2.34494652,-2.42770812,-1.34132,0.,               5P      4
-0.0827616,0.46127844,2.34494652,2.26218492,0.46127844,0.,             5P      5
-0.0827616,0.46127844,-2.34494652,-2.42770812,0.46127844,0.;           5P      6
110,-0.0827616,-1.34132,2.34494652,2.26218492,-1.34132,0.;             7P      7
110,2.26218492,-1.34132,0.,-0.0827616,-1.34132,-2.34494652;            9P      8
110,-0.0827616,-1.34132,-2.34494652,-2.42770812,-1.34132,0.;          11P      9
110,-2.42770812,-1.34132,0.,-0.0827616,-1.34132,2.34494652;           13P     10
110,-0.0827616,0.46127844,2.34494652,2.26218492,0.46127844,0.;        15P     11
110,2.26218492,0.46127844,0.,-0.0827616,0.46127844,-2.34494652;       17P     12
110,-0.0827616,0.46127844,-2.34494652,-2.42770812,0.46127844,0.;      19P     13
110,-2.42770812,0.46127844,0.,-0.0827616,0.46127844,2.34494652;       21P     14
110,-0.0827616,-1.34132,2.34494652,-0.0827616,0.46127844,             23P     15
2.34494652;                                                           23P     16
110,2.26218492,-1.34132,0.,2.26218492,0.46127844,0.;                  25P     17
110,-0.0827616,-1.34132,-2.34494652,-0.0827616,0.46127844,            27P     18
-2.34494652;                                                          27P     19
110,-2.42770812,-1.34132,0.,-2.42770812,0.46127844,0.;                29P     20
504,12,7,5,1,5,2,9,5,2,5,3,11,5,3,5,4,13,5,4,5,1,15,5,5,5,6,17,       31P     21
5,6,5,7,19,5,7,5,8,21,5,8,5,5,23,5,1,5,5,25,5,2,5,6,27,5,3,5,7,       31P     22
29,5,4,5,8;                                                           31P     23
128,1,1,1,1,0,0,1,0,0,0.,0.,1.,1.,0.,0.,1.,1.,1.,1.,1.,1.,            33P     24
2.49667958,-1.34132,-2.57944118,-2.66220278,-1.34132,                 33P     25
-2.57944118,2.49667958,-1.34132,2.57944118,-2.66220278,-1.34132,      33P     26
2.57944118,0.,1.,0.,1.;                                               33P     27
128,1,1,1,1,0,0,1,0,0,0.,0.,1.,1.,0.,0.,1.,1.,1.,1.,1.,1.,            35P     28
-0.0827616,-1.34132,2.34494652,2.26218492,-1.34132,0.,                35P     29
-0.0827616,0.46127844,2.34494652,2.26218492,0.46127844,0.,0.,1.,      35P     30
0.,1.;                                                                35P     31
128,1,1,1,1,0,0,1,0,0,0.,0.,1.,1.,0.,0.,1.,1.,1.,1.,1.,1.,            37P     32
2.26218492,-1.34132,0.,-0.0827616,-1.34132,-2.34494652,               37P     33
2.26218492,0.46127844,0.,-0.0827616,0.46127844,-2.34494652,0.,        37P     34
1.,0.,1.;                                                             37P     35
128,1,1,1,1,0,0,1,0,0,0.,0.,1.,1.,0.,0.,1.,1.,1.,1.,1.,1.,            39P     36
-0.0827616,-1.34132,-2.34494652,-2.42770812,-1.34132,0.,              39P     37
-0.0827616,0.46127844,-2.34494652,-2.42770812,0.46127844,0.,0.,       39P     38
1.,0.,1.;                                                             39P     39
128,1,1,1,1,0,0,1,0,0,0.,0.,1.,1.,0.,0.,1.,1.,1.,1.,1.,1.,            41P     40
-2.42770812,-1.34132,0.,-0.0827616,-1.34132,2.34494652,               41P     41
-2.42770812,0.46127844,0.,-0.0827616,0.46127844,2.34494652,0.,        41P     42
1.,0.,1.;                                                             41P     43
128,1,1,1,1,0,0,1,0,0,0.,0.,1.,1.,0.,0.,1.,1.,1.,1.,1.,1.,            43P     44
2.49667958,0.46127844,-2.57944118,-2.66220278,0.46127844,             43P     45
-2.57944118,2.49667958,0.46127844,2.57944118,-2.66220278,             43P     46
0.46127844,2.57944118,0.,1.,0.,1.;                                    43P     47
508,4,0,31,1,1,0,0,31,2,1,0,0,31,3,1,0,0,31,4,1,0;                    45P     48
508,4,0,31,1,1,0,0,31,10,1,0,0,31,5,0,0,0,31,9,0,0;                   47P     49
508,4,0,31,2,1,0,0,31,11,1,0,0,31,6,0,0,0,31,10,0,0;                  49P     50
508,4,0,31,3,1,0,0,31,12,1,0,0,31,7,0,0,0,31,11,0,0;                  51P     51
508,4,0,31,4,1,0,0,31,9,1,0,0,31,8,0,0,0,31,12,0,0;                   53P     52
508,4,0,31,5,1,0,0,31,6,1,0,0,31,7,1,0,0,31,8,1,0;                    55P     53
510,33,1,1,45;                                                        57P     54
510,35,1,1,47;                                                        59P     55
510,37,1,1,49;                                                        61P     56
510,39,1,1,51;                                                        63P     57
510,41,1,1,53;                                                        65P     58
510,43,1,1,55;                                                        67P     59
514,6,57,1,59,0,61,0,63,0,65,0,67,0;                                  69P     60
186,69,1,0;                                                           71P     61
S      1G      7D     72P     61                                        T      1
