<svg xmlns="http://www.w3.org/2000/svg" xmlns:xlink="http://www.w3.org/1999/xlink" contentStyleType="text/css" height="602px" preserveAspectRatio="none" style="width:3489px;height:602px;background:#FFFFFF;" version="1.1" viewBox="0 0 3489 602" width="3489px" zoomAndPan="magnify"><defs/><g><!--class Element--><g id="elem_Element"><rect codeLine="3" fill="#F1F1F1" height="48" id="Element" rx="2.5" ry="2.5" style="stroke:#181818;stroke-width:0.5;" width="83.3584" x="2194.5" y="7"/><ellipse cx="2209.5" cy="23" fill="#ADD1B2" rx="11" ry="11" style="stroke:#181818;stroke-width:1.0;"/><path d="M2212.2656,18.875 Q2212.4219,18.6563 2212.6094,18.5469 Q2212.7969,18.4375 2213.0156,18.4375 Q2213.3906,18.4375 2213.625,18.7031 Q2213.8594,18.9531 2213.8594,19.5625 L2213.8594,21.0156 Q2213.8594,21.625 2213.625,21.8906 Q2213.3906,22.1563 2213.0156,22.1563 Q2212.6719,22.1563 2212.4688,21.9531 Q2212.2656,21.7656 2212.1563,21.25 Q2212.1094,20.8906 2211.9219,20.7031 Q2211.5938,20.3281 2210.9844,20.1094 Q2210.375,19.8906 2209.75,19.8906 Q2208.9844,19.8906 2208.3438,20.2188 Q2207.7188,20.5469 2207.2188,21.2969 Q2206.7344,22.0469 2206.7344,23.0781 L2206.7344,24.1719 Q2206.7344,25.4063 2207.625,26.2344 Q2208.5156,27.0469 2210.1094,27.0469 Q2211.0469,27.0469 2211.7031,26.7969 Q2212.0938,26.6406 2212.5156,26.2031 Q2212.7813,25.9375 2212.9219,25.8594 Q2213.0781,25.7813 2213.2813,25.7813 Q2213.6094,25.7813 2213.8594,26.0469 Q2214.125,26.2969 2214.125,26.6406 Q2214.125,26.9844 2213.7813,27.3906 Q2213.2813,27.9688 2212.4844,28.2969 Q2211.4063,28.75 2210.1094,28.75 Q2208.5938,28.75 2207.3906,28.125 Q2206.4063,27.625 2205.7188,26.5625 Q2205.0313,25.4844 2205.0313,24.2031 L2205.0313,23.0469 Q2205.0313,21.7188 2205.6406,20.5781 Q2206.2656,19.4219 2207.3594,18.8125 Q2208.4531,18.1875 2209.6875,18.1875 Q2210.4219,18.1875 2211.0625,18.3594 Q2211.7188,18.5156 2212.2656,18.875 Z " fill="#000000"/><text fill="#000000" font-family="sans-serif" font-size="14" lengthAdjust="spacing" textLength="51.3584" x="2223.5" y="28.7969">Element</text><line style="stroke:#181818;stroke-width:0.5;" x1="2195.5" x2="2276.8584" y1="39" y2="39"/><line style="stroke:#181818;stroke-width:0.5;" x1="2195.5" x2="2276.8584" y1="47" y2="47"/></g><!--class UPwBaseElement--><g id="elem_UPwBaseElement"><rect codeLine="6" fill="#F1F1F1" height="48" id="UPwBaseElement" rx="2.5" ry="2.5" style="stroke:#181818;stroke-width:0.5;" width="144.8271" x="1384.5" y="115"/><ellipse cx="1399.5" cy="131" fill="#ADD1B2" rx="11" ry="11" style="stroke:#181818;stroke-width:1.0;"/><path d="M1402.2656,126.875 Q1402.4219,126.6563 1402.6094,126.5469 Q1402.7969,126.4375 1403.0156,126.4375 Q1403.3906,126.4375 1403.625,126.7031 Q1403.8594,126.9531 1403.8594,127.5625 L1403.8594,129.0156 Q1403.8594,129.625 1403.625,129.8906 Q1403.3906,130.1563 1403.0156,130.1563 Q1402.6719,130.1563 1402.4688,129.9531 Q1402.2656,129.7656 1402.1563,129.25 Q1402.1094,128.8906 1401.9219,128.7031 Q1401.5938,128.3281 1400.9844,128.1094 Q1400.375,127.8906 1399.75,127.8906 Q1398.9844,127.8906 1398.3438,128.2188 Q1397.7188,128.5469 1397.2188,129.2969 Q1396.7344,130.0469 1396.7344,131.0781 L1396.7344,132.1719 Q1396.7344,133.4063 1397.625,134.2344 Q1398.5156,135.0469 1400.1094,135.0469 Q1401.0469,135.0469 1401.7031,134.7969 Q1402.0938,134.6406 1402.5156,134.2031 Q1402.7813,133.9375 1402.9219,133.8594 Q1403.0781,133.7813 1403.2813,133.7813 Q1403.6094,133.7813 1403.8594,134.0469 Q1404.125,134.2969 1404.125,134.6406 Q1404.125,134.9844 1403.7813,135.3906 Q1403.2813,135.9688 1402.4844,136.2969 Q1401.4063,136.75 1400.1094,136.75 Q1398.5938,136.75 1397.3906,136.125 Q1396.4063,135.625 1395.7188,134.5625 Q1395.0313,133.4844 1395.0313,132.2031 L1395.0313,131.0469 Q1395.0313,129.7188 1395.6406,128.5781 Q1396.2656,127.4219 1397.3594,126.8125 Q1398.4531,126.1875 1399.6875,126.1875 Q1400.4219,126.1875 1401.0625,126.3594 Q1401.7188,126.5156 1402.2656,126.875 Z " fill="#000000"/><text fill="#000000" font-family="sans-serif" font-size="14" lengthAdjust="spacing" textLength="112.8271" x="1413.5" y="136.7969">UPwBaseElement</text><line style="stroke:#181818;stroke-width:0.5;" x1="1385.5" x2="1528.3271" y1="147" y2="147"/><line style="stroke:#181818;stroke-width:0.5;" x1="1385.5" x2="1528.3271" y1="155" y2="155"/></g><!--class UPwSmallStrainElement--><g id="elem_UPwSmallStrainElement"><rect codeLine="8" fill="#F1F1F1" height="48" id="UPwSmallStrainElement" rx="2.5" ry="2.5" style="stroke:#181818;stroke-width:0.5;" width="184.4961" x="637" y="223"/><ellipse cx="652" cy="239" fill="#ADD1B2" rx="11" ry="11" style="stroke:#181818;stroke-width:1.0;"/><path d="M654.7656,234.875 Q654.9219,234.6563 655.1094,234.5469 Q655.2969,234.4375 655.5156,234.4375 Q655.8906,234.4375 656.125,234.7031 Q656.3594,234.9531 656.3594,235.5625 L656.3594,237.0156 Q656.3594,237.625 656.125,237.8906 Q655.8906,238.1563 655.5156,238.1563 Q655.1719,238.1563 654.9688,237.9531 Q654.7656,237.7656 654.6563,237.25 Q654.6094,236.8906 654.4219,236.7031 Q654.0938,236.3281 653.4844,236.1094 Q652.875,235.8906 652.25,235.8906 Q651.4844,235.8906 650.8438,236.2188 Q650.2188,236.5469 649.7188,237.2969 Q649.2344,238.0469 649.2344,239.0781 L649.2344,240.1719 Q649.2344,241.4063 650.125,242.2344 Q651.0156,243.0469 652.6094,243.0469 Q653.5469,243.0469 654.2031,242.7969 Q654.5938,242.6406 655.0156,242.2031 Q655.2813,241.9375 655.4219,241.8594 Q655.5781,241.7813 655.7813,241.7813 Q656.1094,241.7813 656.3594,242.0469 Q656.625,242.2969 656.625,242.6406 Q656.625,242.9844 656.2813,243.3906 Q655.7813,243.9688 654.9844,244.2969 Q653.9063,244.75 652.6094,244.75 Q651.0938,244.75 649.8906,244.125 Q648.9063,243.625 648.2188,242.5625 Q647.5313,241.4844 647.5313,240.2031 L647.5313,239.0469 Q647.5313,237.7188 648.1406,236.5781 Q648.7656,235.4219 649.8594,234.8125 Q650.9531,234.1875 652.1875,234.1875 Q652.9219,234.1875 653.5625,234.3594 Q654.2188,234.5156 654.7656,234.875 Z " fill="#000000"/><text fill="#000000" font-family="sans-serif" font-size="14" lengthAdjust="spacing" textLength="152.4961" x="666" y="244.7969">UPwSmallStrainElement</text><line style="stroke:#181818;stroke-width:0.5;" x1="638" x2="820.4961" y1="255" y2="255"/><line style="stroke:#181818;stroke-width:0.5;" x1="638" x2="820.4961" y1="263" y2="263"/></g><!--class DrainedUPwSmallStrainElement--><g id="elem_DrainedUPwSmallStrainElement"><rect codeLine="9" fill="#F1F1F1" height="48" id="DrainedUPwSmallStrainElement" rx="2.5" ry="2.5" style="stroke:#181818;stroke-width:0.5;" width="233.5234" x="7" y="331"/><ellipse cx="22" cy="347" fill="#ADD1B2" rx="11" ry="11" style="stroke:#181818;stroke-width:1.0;"/><path d="M24.7656,342.875 Q24.9219,342.6563 25.1094,342.5469 Q25.2969,342.4375 25.5156,342.4375 Q25.8906,342.4375 26.125,342.7031 Q26.3594,342.9531 26.3594,343.5625 L26.3594,345.0156 Q26.3594,345.625 26.125,345.8906 Q25.8906,346.1563 25.5156,346.1563 Q25.1719,346.1563 24.9688,345.9531 Q24.7656,345.7656 24.6563,345.25 Q24.6094,344.8906 24.4219,344.7031 Q24.0938,344.3281 23.4844,344.1094 Q22.875,343.8906 22.25,343.8906 Q21.4844,343.8906 20.8438,344.2188 Q20.2188,344.5469 19.7188,345.2969 Q19.2344,346.0469 19.2344,347.0781 L19.2344,348.1719 Q19.2344,349.4063 20.125,350.2344 Q21.0156,351.0469 22.6094,351.0469 Q23.5469,351.0469 24.2031,350.7969 Q24.5938,350.6406 25.0156,350.2031 Q25.2813,349.9375 25.4219,349.8594 Q25.5781,349.7813 25.7813,349.7813 Q26.1094,349.7813 26.3594,350.0469 Q26.625,350.2969 26.625,350.6406 Q26.625,350.9844 26.2813,351.3906 Q25.7813,351.9688 24.9844,352.2969 Q23.9063,352.75 22.6094,352.75 Q21.0938,352.75 19.8906,352.125 Q18.9063,351.625 18.2188,350.5625 Q17.5313,349.4844 17.5313,348.2031 L17.5313,347.0469 Q17.5313,345.7188 18.1406,344.5781 Q18.7656,343.4219 19.8594,342.8125 Q20.9531,342.1875 22.1875,342.1875 Q22.9219,342.1875 23.5625,342.3594 Q24.2188,342.5156 24.7656,342.875 Z " fill="#000000"/><text fill="#000000" font-family="sans-serif" font-size="14" lengthAdjust="spacing" textLength="201.5234" x="36" y="352.7969">DrainedUPwSmallStrainElement</text><line style="stroke:#181818;stroke-width:0.5;" x1="8" x2="239.5234" y1="363" y2="363"/><line style="stroke:#181818;stroke-width:0.5;" x1="8" x2="239.5234" y1="371" y2="371"/></g><!--class TransientPwElement--><g id="elem_TransientPwElement"><rect codeLine="10" fill="#F1F1F1" height="48" id="TransientPwElement" rx="2.5" ry="2.5" style="stroke:#181818;stroke-width:0.5;" width="161.165" x="276.5" y="331"/><ellipse cx="291.5" cy="347" fill="#ADD1B2" rx="11" ry="11" style="stroke:#181818;stroke-width:1.0;"/><path d="M294.2656,342.875 Q294.4219,342.6563 294.6094,342.5469 Q294.7969,342.4375 295.0156,342.4375 Q295.3906,342.4375 295.625,342.7031 Q295.8594,342.9531 295.8594,343.5625 L295.8594,345.0156 Q295.8594,345.625 295.625,345.8906 Q295.3906,346.1563 295.0156,346.1563 Q294.6719,346.1563 294.4688,345.9531 Q294.2656,345.7656 294.1563,345.25 Q294.1094,344.8906 293.9219,344.7031 Q293.5938,344.3281 292.9844,344.1094 Q292.375,343.8906 291.75,343.8906 Q290.9844,343.8906 290.3438,344.2188 Q289.7188,344.5469 289.2188,345.2969 Q288.7344,346.0469 288.7344,347.0781 L288.7344,348.1719 Q288.7344,349.4063 289.625,350.2344 Q290.5156,351.0469 292.1094,351.0469 Q293.0469,351.0469 293.7031,350.7969 Q294.0938,350.6406 294.5156,350.2031 Q294.7813,349.9375 294.9219,349.8594 Q295.0781,349.7813 295.2813,349.7813 Q295.6094,349.7813 295.8594,350.0469 Q296.125,350.2969 296.125,350.6406 Q296.125,350.9844 295.7813,351.3906 Q295.2813,351.9688 294.4844,352.2969 Q293.4063,352.75 292.1094,352.75 Q290.5938,352.75 289.3906,352.125 Q288.4063,351.625 287.7188,350.5625 Q287.0313,349.4844 287.0313,348.2031 L287.0313,347.0469 Q287.0313,345.7188 287.6406,344.5781 Q288.2656,343.4219 289.3594,342.8125 Q290.4531,342.1875 291.6875,342.1875 Q292.4219,342.1875 293.0625,342.3594 Q293.7188,342.5156 294.2656,342.875 Z " fill="#000000"/><text fill="#000000" font-family="sans-serif" font-size="14" lengthAdjust="spacing" textLength="129.165" x="305.5" y="352.7969">TransientPwElement</text><line style="stroke:#181818;stroke-width:0.5;" x1="277.5" x2="436.665" y1="363" y2="363"/><line style="stroke:#181818;stroke-width:0.5;" x1="277.5" x2="436.665" y1="371" y2="371"/></g><!--class SteadyStatePwElement--><g id="elem_SteadyStatePwElement"><rect codeLine="11" fill="#F1F1F1" height="48" id="SteadyStatePwElement" rx="2.5" ry="2.5" style="stroke:#181818;stroke-width:0.5;" width="179.082" x="267.5" y="439"/><ellipse cx="282.5" cy="455" fill="#ADD1B2" rx="11" ry="11" style="stroke:#181818;stroke-width:1.0;"/><path d="M285.2656,450.875 Q285.4219,450.6563 285.6094,450.5469 Q285.7969,450.4375 286.0156,450.4375 Q286.3906,450.4375 286.625,450.7031 Q286.8594,450.9531 286.8594,451.5625 L286.8594,453.0156 Q286.8594,453.625 286.625,453.8906 Q286.3906,454.1563 286.0156,454.1563 Q285.6719,454.1563 285.4688,453.9531 Q285.2656,453.7656 285.1563,453.25 Q285.1094,452.8906 284.9219,452.7031 Q284.5938,452.3281 283.9844,452.1094 Q283.375,451.8906 282.75,451.8906 Q281.9844,451.8906 281.3438,452.2188 Q280.7188,452.5469 280.2188,453.2969 Q279.7344,454.0469 279.7344,455.0781 L279.7344,456.1719 Q279.7344,457.4063 280.625,458.2344 Q281.5156,459.0469 283.1094,459.0469 Q284.0469,459.0469 284.7031,458.7969 Q285.0938,458.6406 285.5156,458.2031 Q285.7813,457.9375 285.9219,457.8594 Q286.0781,457.7813 286.2813,457.7813 Q286.6094,457.7813 286.8594,458.0469 Q287.125,458.2969 287.125,458.6406 Q287.125,458.9844 286.7813,459.3906 Q286.2813,459.9688 285.4844,460.2969 Q284.4063,460.75 283.1094,460.75 Q281.5938,460.75 280.3906,460.125 Q279.4063,459.625 278.7188,458.5625 Q278.0313,457.4844 278.0313,456.2031 L278.0313,455.0469 Q278.0313,453.7188 278.6406,452.5781 Q279.2656,451.4219 280.3594,450.8125 Q281.4531,450.1875 282.6875,450.1875 Q283.4219,450.1875 284.0625,450.3594 Q284.7188,450.5156 285.2656,450.875 Z " fill="#000000"/><text fill="#000000" font-family="sans-serif" font-size="14" lengthAdjust="spacing" textLength="147.082" x="296.5" y="460.7969">SteadyStatePwElement</text><line style="stroke:#181818;stroke-width:0.5;" x1="268.5" x2="445.582" y1="471" y2="471"/><line style="stroke:#181818;stroke-width:0.5;" x1="268.5" x2="445.582" y1="479" y2="479"/></g><!--class UndrainedUPwSmallStrainElement--><g id="elem_UndrainedUPwSmallStrainElement"><rect codeLine="12" fill="#F1F1F1" height="48" id="UndrainedUPwSmallStrainElement" rx="2.5" ry="2.5" style="stroke:#181818;stroke-width:0.5;" width="249.0957" x="472.5" y="331"/><ellipse cx="487.5" cy="347" fill="#ADD1B2" rx="11" ry="11" style="stroke:#181818;stroke-width:1.0;"/><path d="M490.2656,342.875 Q490.4219,342.6563 490.6094,342.5469 Q490.7969,342.4375 491.0156,342.4375 Q491.3906,342.4375 491.625,342.7031 Q491.8594,342.9531 491.8594,343.5625 L491.8594,345.0156 Q491.8594,345.625 491.625,345.8906 Q491.3906,346.1563 491.0156,346.1563 Q490.6719,346.1563 490.4688,345.9531 Q490.2656,345.7656 490.1563,345.25 Q490.1094,344.8906 489.9219,344.7031 Q489.5938,344.3281 488.9844,344.1094 Q488.375,343.8906 487.75,343.8906 Q486.9844,343.8906 486.3438,344.2188 Q485.7188,344.5469 485.2188,345.2969 Q484.7344,346.0469 484.7344,347.0781 L484.7344,348.1719 Q484.7344,349.4063 485.625,350.2344 Q486.5156,351.0469 488.1094,351.0469 Q489.0469,351.0469 489.7031,350.7969 Q490.0938,350.6406 490.5156,350.2031 Q490.7813,349.9375 490.9219,349.8594 Q491.0781,349.7813 491.2813,349.7813 Q491.6094,349.7813 491.8594,350.0469 Q492.125,350.2969 492.125,350.6406 Q492.125,350.9844 491.7813,351.3906 Q491.2813,351.9688 490.4844,352.2969 Q489.4063,352.75 488.1094,352.75 Q486.5938,352.75 485.3906,352.125 Q484.4063,351.625 483.7188,350.5625 Q483.0313,349.4844 483.0313,348.2031 L483.0313,347.0469 Q483.0313,345.7188 483.6406,344.5781 Q484.2656,343.4219 485.3594,342.8125 Q486.4531,342.1875 487.6875,342.1875 Q488.4219,342.1875 489.0625,342.3594 Q489.7188,342.5156 490.2656,342.875 Z " fill="#000000"/><text fill="#000000" font-family="sans-serif" font-size="14" lengthAdjust="spacing" textLength="217.0957" x="501.5" y="352.7969">UndrainedUPwSmallStrainElement</text><line style="stroke:#181818;stroke-width:0.5;" x1="473.5" x2="720.5957" y1="363" y2="363"/><line style="stroke:#181818;stroke-width:0.5;" x1="473.5" x2="720.5957" y1="371" y2="371"/></g><!--class UPwSmallStrainFICElement--><g id="elem_UPwSmallStrainFICElement"><rect codeLine="13" fill="#F1F1F1" height="48" id="UPwSmallStrainFICElement" rx="2.5" ry="2.5" style="stroke:#181818;stroke-width:0.5;" width="207.0479" x="756.5" y="331"/><ellipse cx="771.5" cy="347" fill="#ADD1B2" rx="11" ry="11" style="stroke:#181818;stroke-width:1.0;"/><path d="M774.2656,342.875 Q774.4219,342.6563 774.6094,342.5469 Q774.7969,342.4375 775.0156,342.4375 Q775.3906,342.4375 775.625,342.7031 Q775.8594,342.9531 775.8594,343.5625 L775.8594,345.0156 Q775.8594,345.625 775.625,345.8906 Q775.3906,346.1563 775.0156,346.1563 Q774.6719,346.1563 774.4688,345.9531 Q774.2656,345.7656 774.1563,345.25 Q774.1094,344.8906 773.9219,344.7031 Q773.5938,344.3281 772.9844,344.1094 Q772.375,343.8906 771.75,343.8906 Q770.9844,343.8906 770.3438,344.2188 Q769.7188,344.5469 769.2188,345.2969 Q768.7344,346.0469 768.7344,347.0781 L768.7344,348.1719 Q768.7344,349.4063 769.625,350.2344 Q770.5156,351.0469 772.1094,351.0469 Q773.0469,351.0469 773.7031,350.7969 Q774.0938,350.6406 774.5156,350.2031 Q774.7813,349.9375 774.9219,349.8594 Q775.0781,349.7813 775.2813,349.7813 Q775.6094,349.7813 775.8594,350.0469 Q776.125,350.2969 776.125,350.6406 Q776.125,350.9844 775.7813,351.3906 Q775.2813,351.9688 774.4844,352.2969 Q773.4063,352.75 772.1094,352.75 Q770.5938,352.75 769.3906,352.125 Q768.4063,351.625 767.7188,350.5625 Q767.0313,349.4844 767.0313,348.2031 L767.0313,347.0469 Q767.0313,345.7188 767.6406,344.5781 Q768.2656,343.4219 769.3594,342.8125 Q770.4531,342.1875 771.6875,342.1875 Q772.4219,342.1875 773.0625,342.3594 Q773.7188,342.5156 774.2656,342.875 Z " fill="#000000"/><text fill="#000000" font-family="sans-serif" font-size="14" lengthAdjust="spacing" textLength="175.0479" x="785.5" y="352.7969">UPwSmallStrainFICElement</text><line style="stroke:#181818;stroke-width:0.5;" x1="757.5" x2="962.5479" y1="363" y2="363"/><line style="stroke:#181818;stroke-width:0.5;" x1="757.5" x2="962.5479" y1="371" y2="371"/></g><!--class UPwUpdatedLagrangianFICElement--><g id="elem_UPwUpdatedLagrangianFICElement"><rect codeLine="14" fill="#F1F1F1" height="48" id="UPwUpdatedLagrangianFICElement" rx="2.5" ry="2.5" style="stroke:#181818;stroke-width:0.5;" width="258.4609" x="731" y="439"/><ellipse cx="746" cy="455" fill="#ADD1B2" rx="11" ry="11" style="stroke:#181818;stroke-width:1.0;"/><path d="M748.7656,450.875 Q748.9219,450.6563 749.1094,450.5469 Q749.2969,450.4375 749.5156,450.4375 Q749.8906,450.4375 750.125,450.7031 Q750.3594,450.9531 750.3594,451.5625 L750.3594,453.0156 Q750.3594,453.625 750.125,453.8906 Q749.8906,454.1563 749.5156,454.1563 Q749.1719,454.1563 748.9688,453.9531 Q748.7656,453.7656 748.6563,453.25 Q748.6094,452.8906 748.4219,452.7031 Q748.0938,452.3281 747.4844,452.1094 Q746.875,451.8906 746.25,451.8906 Q745.4844,451.8906 744.8438,452.2188 Q744.2188,452.5469 743.7188,453.2969 Q743.2344,454.0469 743.2344,455.0781 L743.2344,456.1719 Q743.2344,457.4063 744.125,458.2344 Q745.0156,459.0469 746.6094,459.0469 Q747.5469,459.0469 748.2031,458.7969 Q748.5938,458.6406 749.0156,458.2031 Q749.2813,457.9375 749.4219,457.8594 Q749.5781,457.7813 749.7813,457.7813 Q750.1094,457.7813 750.3594,458.0469 Q750.625,458.2969 750.625,458.6406 Q750.625,458.9844 750.2813,459.3906 Q749.7813,459.9688 748.9844,460.2969 Q747.9063,460.75 746.6094,460.75 Q745.0938,460.75 743.8906,460.125 Q742.9063,459.625 742.2188,458.5625 Q741.5313,457.4844 741.5313,456.2031 L741.5313,455.0469 Q741.5313,453.7188 742.1406,452.5781 Q742.7656,451.4219 743.8594,450.8125 Q744.9531,450.1875 746.1875,450.1875 Q746.9219,450.1875 747.5625,450.3594 Q748.2188,450.5156 748.7656,450.875 Z " fill="#000000"/><text fill="#000000" font-family="sans-serif" font-size="14" lengthAdjust="spacing" textLength="226.4609" x="760" y="460.7969">UPwUpdatedLagrangianFICElement</text><line style="stroke:#181818;stroke-width:0.5;" x1="732" x2="988.4609" y1="471" y2="471"/><line style="stroke:#181818;stroke-width:0.5;" x1="732" x2="988.4609" y1="479" y2="479"/></g><!--class UPwUpdatedLagrangianElement--><g id="elem_UPwUpdatedLagrangianElement"><rect codeLine="15" fill="#F1F1F1" height="48" id="UPwUpdatedLagrangianElement" rx="2.5" ry="2.5" style="stroke:#181818;stroke-width:0.5;" width="235.9092" x="999" y="331"/><ellipse cx="1014" cy="347" fill="#ADD1B2" rx="11" ry="11" style="stroke:#181818;stroke-width:1.0;"/><path d="M1016.7656,342.875 Q1016.9219,342.6563 1017.1094,342.5469 Q1017.2969,342.4375 1017.5156,342.4375 Q1017.8906,342.4375 1018.125,342.7031 Q1018.3594,342.9531 1018.3594,343.5625 L1018.3594,345.0156 Q1018.3594,345.625 1018.125,345.8906 Q1017.8906,346.1563 1017.5156,346.1563 Q1017.1719,346.1563 1016.9688,345.9531 Q1016.7656,345.7656 1016.6563,345.25 Q1016.6094,344.8906 1016.4219,344.7031 Q1016.0938,344.3281 1015.4844,344.1094 Q1014.875,343.8906 1014.25,343.8906 Q1013.4844,343.8906 1012.8438,344.2188 Q1012.2188,344.5469 1011.7188,345.2969 Q1011.2344,346.0469 1011.2344,347.0781 L1011.2344,348.1719 Q1011.2344,349.4063 1012.125,350.2344 Q1013.0156,351.0469 1014.6094,351.0469 Q1015.5469,351.0469 1016.2031,350.7969 Q1016.5938,350.6406 1017.0156,350.2031 Q1017.2813,349.9375 1017.4219,349.8594 Q1017.5781,349.7813 1017.7813,349.7813 Q1018.1094,349.7813 1018.3594,350.0469 Q1018.625,350.2969 1018.625,350.6406 Q1018.625,350.9844 1018.2813,351.3906 Q1017.7813,351.9688 1016.9844,352.2969 Q1015.9063,352.75 1014.6094,352.75 Q1013.0938,352.75 1011.8906,352.125 Q1010.9063,351.625 1010.2188,350.5625 Q1009.5313,349.4844 1009.5313,348.2031 L1009.5313,347.0469 Q1009.5313,345.7188 1010.1406,344.5781 Q1010.7656,343.4219 1011.8594,342.8125 Q1012.9531,342.1875 1014.1875,342.1875 Q1014.9219,342.1875 1015.5625,342.3594 Q1016.2188,342.5156 1016.7656,342.875 Z " fill="#000000"/><text fill="#000000" font-family="sans-serif" font-size="14" lengthAdjust="spacing" textLength="203.9092" x="1028" y="352.7969">UPwUpdatedLagrangianElement</text><line style="stroke:#181818;stroke-width:0.5;" x1="1000" x2="1233.9092" y1="363" y2="363"/><line style="stroke:#181818;stroke-width:0.5;" x1="1000" x2="1233.9092" y1="371" y2="371"/></g><!--class UPwSmallStrainInterfaceElement--><g id="elem_UPwSmallStrainInterfaceElement"><rect codeLine="17" fill="#F1F1F1" height="48" id="UPwSmallStrainInterfaceElement" rx="2.5" ry="2.5" style="stroke:#181818;stroke-width:0.5;" width="238.9717" x="1337.5" y="223"/><ellipse cx="1352.5" cy="239" fill="#ADD1B2" rx="11" ry="11" style="stroke:#181818;stroke-width:1.0;"/><path d="M1355.2656,234.875 Q1355.4219,234.6563 1355.6094,234.5469 Q1355.7969,234.4375 1356.0156,234.4375 Q1356.3906,234.4375 1356.625,234.7031 Q1356.8594,234.9531 1356.8594,235.5625 L1356.8594,237.0156 Q1356.8594,237.625 1356.625,237.8906 Q1356.3906,238.1563 1356.0156,238.1563 Q1355.6719,238.1563 1355.4688,237.9531 Q1355.2656,237.7656 1355.1563,237.25 Q1355.1094,236.8906 1354.9219,236.7031 Q1354.5938,236.3281 1353.9844,236.1094 Q1353.375,235.8906 1352.75,235.8906 Q1351.9844,235.8906 1351.3438,236.2188 Q1350.7188,236.5469 1350.2188,237.2969 Q1349.7344,238.0469 1349.7344,239.0781 L1349.7344,240.1719 Q1349.7344,241.4063 1350.625,242.2344 Q1351.5156,243.0469 1353.1094,243.0469 Q1354.0469,243.0469 1354.7031,242.7969 Q1355.0938,242.6406 1355.5156,242.2031 Q1355.7813,241.9375 1355.9219,241.8594 Q1356.0781,241.7813 1356.2813,241.7813 Q1356.6094,241.7813 1356.8594,242.0469 Q1357.125,242.2969 1357.125,242.6406 Q1357.125,242.9844 1356.7813,243.3906 Q1356.2813,243.9688 1355.4844,244.2969 Q1354.4063,244.75 1353.1094,244.75 Q1351.5938,244.75 1350.3906,244.125 Q1349.4063,243.625 1348.7188,242.5625 Q1348.0313,241.4844 1348.0313,240.2031 L1348.0313,239.0469 Q1348.0313,237.7188 1348.6406,236.5781 Q1349.2656,235.4219 1350.3594,234.8125 Q1351.4531,234.1875 1352.6875,234.1875 Q1353.4219,234.1875 1354.0625,234.3594 Q1354.7188,234.5156 1355.2656,234.875 Z " fill="#000000"/><text fill="#000000" font-family="sans-serif" font-size="14" lengthAdjust="spacing" textLength="206.9717" x="1366.5" y="244.7969">UPwSmallStrainInterfaceElement</text><line style="stroke:#181818;stroke-width:0.5;" x1="1338.5" x2="1575.4717" y1="255" y2="255"/><line style="stroke:#181818;stroke-width:0.5;" x1="1338.5" x2="1575.4717" y1="263" y2="263"/></g><!--class TransientPwInterfaceElement--><g id="elem_TransientPwInterfaceElement"><rect codeLine="18" fill="#F1F1F1" height="48" id="TransientPwInterfaceElement" rx="2.5" ry="2.5" style="stroke:#181818;stroke-width:0.5;" width="215.6406" x="1270" y="331"/><ellipse cx="1285" cy="347" fill="#ADD1B2" rx="11" ry="11" style="stroke:#181818;stroke-width:1.0;"/><path d="M1287.7656,342.875 Q1287.9219,342.6563 1288.1094,342.5469 Q1288.2969,342.4375 1288.5156,342.4375 Q1288.8906,342.4375 1289.125,342.7031 Q1289.3594,342.9531 1289.3594,343.5625 L1289.3594,345.0156 Q1289.3594,345.625 1289.125,345.8906 Q1288.8906,346.1563 1288.5156,346.1563 Q1288.1719,346.1563 1287.9688,345.9531 Q1287.7656,345.7656 1287.6563,345.25 Q1287.6094,344.8906 1287.4219,344.7031 Q1287.0938,344.3281 1286.4844,344.1094 Q1285.875,343.8906 1285.25,343.8906 Q1284.4844,343.8906 1283.8438,344.2188 Q1283.2188,344.5469 1282.7188,345.2969 Q1282.2344,346.0469 1282.2344,347.0781 L1282.2344,348.1719 Q1282.2344,349.4063 1283.125,350.2344 Q1284.0156,351.0469 1285.6094,351.0469 Q1286.5469,351.0469 1287.2031,350.7969 Q1287.5938,350.6406 1288.0156,350.2031 Q1288.2813,349.9375 1288.4219,349.8594 Q1288.5781,349.7813 1288.7813,349.7813 Q1289.1094,349.7813 1289.3594,350.0469 Q1289.625,350.2969 1289.625,350.6406 Q1289.625,350.9844 1289.2813,351.3906 Q1288.7813,351.9688 1287.9844,352.2969 Q1286.9063,352.75 1285.6094,352.75 Q1284.0938,352.75 1282.8906,352.125 Q1281.9063,351.625 1281.2188,350.5625 Q1280.5313,349.4844 1280.5313,348.2031 L1280.5313,347.0469 Q1280.5313,345.7188 1281.1406,344.5781 Q1281.7656,343.4219 1282.8594,342.8125 Q1283.9531,342.1875 1285.1875,342.1875 Q1285.9219,342.1875 1286.5625,342.3594 Q1287.2188,342.5156 1287.7656,342.875 Z " fill="#000000"/><text fill="#000000" font-family="sans-serif" font-size="14" lengthAdjust="spacing" textLength="183.6406" x="1299" y="352.7969">TransientPwInterfaceElement</text><line style="stroke:#181818;stroke-width:0.5;" x1="1271" x2="1484.6406" y1="363" y2="363"/><line style="stroke:#181818;stroke-width:0.5;" x1="1271" x2="1484.6406" y1="371" y2="371"/></g><!--class SteadyStatePwInterfaceElement--><g id="elem_SteadyStatePwInterfaceElement"><rect codeLine="19" fill="#F1F1F1" height="48" id="SteadyStatePwInterfaceElement" rx="2.5" ry="2.5" style="stroke:#181818;stroke-width:0.5;" width="233.5576" x="1261" y="439"/><ellipse cx="1276" cy="455" fill="#ADD1B2" rx="11" ry="11" style="stroke:#181818;stroke-width:1.0;"/><path d="M1278.7656,450.875 Q1278.9219,450.6563 1279.1094,450.5469 Q1279.2969,450.4375 1279.5156,450.4375 Q1279.8906,450.4375 1280.125,450.7031 Q1280.3594,450.9531 1280.3594,451.5625 L1280.3594,453.0156 Q1280.3594,453.625 1280.125,453.8906 Q1279.8906,454.1563 1279.5156,454.1563 Q1279.1719,454.1563 1278.9688,453.9531 Q1278.7656,453.7656 1278.6563,453.25 Q1278.6094,452.8906 1278.4219,452.7031 Q1278.0938,452.3281 1277.4844,452.1094 Q1276.875,451.8906 1276.25,451.8906 Q1275.4844,451.8906 1274.8438,452.2188 Q1274.2188,452.5469 1273.7188,453.2969 Q1273.2344,454.0469 1273.2344,455.0781 L1273.2344,456.1719 Q1273.2344,457.4063 1274.125,458.2344 Q1275.0156,459.0469 1276.6094,459.0469 Q1277.5469,459.0469 1278.2031,458.7969 Q1278.5938,458.6406 1279.0156,458.2031 Q1279.2813,457.9375 1279.4219,457.8594 Q1279.5781,457.7813 1279.7813,457.7813 Q1280.1094,457.7813 1280.3594,458.0469 Q1280.625,458.2969 1280.625,458.6406 Q1280.625,458.9844 1280.2813,459.3906 Q1279.7813,459.9688 1278.9844,460.2969 Q1277.9063,460.75 1276.6094,460.75 Q1275.0938,460.75 1273.8906,460.125 Q1272.9063,459.625 1272.2188,458.5625 Q1271.5313,457.4844 1271.5313,456.2031 L1271.5313,455.0469 Q1271.5313,453.7188 1272.1406,452.5781 Q1272.7656,451.4219 1273.8594,450.8125 Q1274.9531,450.1875 1276.1875,450.1875 Q1276.9219,450.1875 1277.5625,450.3594 Q1278.2188,450.5156 1278.7656,450.875 Z " fill="#000000"/><text fill="#000000" font-family="sans-serif" font-size="14" lengthAdjust="spacing" textLength="201.5576" x="1290" y="460.7969">SteadyStatePwInterfaceElement</text><line style="stroke:#181818;stroke-width:0.5;" x1="1262" x2="1493.5576" y1="471" y2="471"/><line style="stroke:#181818;stroke-width:0.5;" x1="1262" x2="1493.5576" y1="479" y2="479"/></g><!--class SteadyStatePwPipingElement--><g id="elem_SteadyStatePwPipingElement"><rect codeLine="20" fill="#F1F1F1" height="48" id="SteadyStatePwPipingElement" rx="2.5" ry="2.5" style="stroke:#181818;stroke-width:0.5;" width="217.999" x="1269" y="547"/><ellipse cx="1284" cy="563" fill="#ADD1B2" rx="11" ry="11" style="stroke:#181818;stroke-width:1.0;"/><path d="M1286.7656,558.875 Q1286.9219,558.6563 1287.1094,558.5469 Q1287.2969,558.4375 1287.5156,558.4375 Q1287.8906,558.4375 1288.125,558.7031 Q1288.3594,558.9531 1288.3594,559.5625 L1288.3594,561.0156 Q1288.3594,561.625 1288.125,561.8906 Q1287.8906,562.1563 1287.5156,562.1563 Q1287.1719,562.1563 1286.9688,561.9531 Q1286.7656,561.7656 1286.6563,561.25 Q1286.6094,560.8906 1286.4219,560.7031 Q1286.0938,560.3281 1285.4844,560.1094 Q1284.875,559.8906 1284.25,559.8906 Q1283.4844,559.8906 1282.8438,560.2188 Q1282.2188,560.5469 1281.7188,561.2969 Q1281.2344,562.0469 1281.2344,563.0781 L1281.2344,564.1719 Q1281.2344,565.4063 1282.125,566.2344 Q1283.0156,567.0469 1284.6094,567.0469 Q1285.5469,567.0469 1286.2031,566.7969 Q1286.5938,566.6406 1287.0156,566.2031 Q1287.2813,565.9375 1287.4219,565.8594 Q1287.5781,565.7813 1287.7813,565.7813 Q1288.1094,565.7813 1288.3594,566.0469 Q1288.625,566.2969 1288.625,566.6406 Q1288.625,566.9844 1288.2813,567.3906 Q1287.7813,567.9688 1286.9844,568.2969 Q1285.9063,568.75 1284.6094,568.75 Q1283.0938,568.75 1281.8906,568.125 Q1280.9063,567.625 1280.2188,566.5625 Q1279.5313,565.4844 1279.5313,564.2031 L1279.5313,563.0469 Q1279.5313,561.7188 1280.1406,560.5781 Q1280.7656,559.4219 1281.8594,558.8125 Q1282.9531,558.1875 1284.1875,558.1875 Q1284.9219,558.1875 1285.5625,558.3594 Q1286.2188,558.5156 1286.7656,558.875 Z " fill="#000000"/><text fill="#000000" font-family="sans-serif" font-size="14" lengthAdjust="spacing" textLength="185.999" x="1298" y="568.7969">SteadyStatePwPipingElement</text><line style="stroke:#181818;stroke-width:0.5;" x1="1270" x2="1485.999" y1="579" y2="579"/><line style="stroke:#181818;stroke-width:0.5;" x1="1270" x2="1485.999" y1="587" y2="587"/></g><!--class UPwSmallStrainLinkInterfaceElement--><g id="elem_UPwSmallStrainLinkInterfaceElement"><rect codeLine="21" fill="#F1F1F1" height="48" id="UPwSmallStrainLinkInterfaceElement" rx="2.5" ry="2.5" style="stroke:#181818;stroke-width:0.5;" width="264.6543" x="1521.5" y="331"/><ellipse cx="1536.5" cy="347" fill="#ADD1B2" rx="11" ry="11" style="stroke:#181818;stroke-width:1.0;"/><path d="M1539.2656,342.875 Q1539.4219,342.6563 1539.6094,342.5469 Q1539.7969,342.4375 1540.0156,342.4375 Q1540.3906,342.4375 1540.625,342.7031 Q1540.8594,342.9531 1540.8594,343.5625 L1540.8594,345.0156 Q1540.8594,345.625 1540.625,345.8906 Q1540.3906,346.1563 1540.0156,346.1563 Q1539.6719,346.1563 1539.4688,345.9531 Q1539.2656,345.7656 1539.1563,345.25 Q1539.1094,344.8906 1538.9219,344.7031 Q1538.5938,344.3281 1537.9844,344.1094 Q1537.375,343.8906 1536.75,343.8906 Q1535.9844,343.8906 1535.3438,344.2188 Q1534.7188,344.5469 1534.2188,345.2969 Q1533.7344,346.0469 1533.7344,347.0781 L1533.7344,348.1719 Q1533.7344,349.4063 1534.625,350.2344 Q1535.5156,351.0469 1537.1094,351.0469 Q1538.0469,351.0469 1538.7031,350.7969 Q1539.0938,350.6406 1539.5156,350.2031 Q1539.7813,349.9375 1539.9219,349.8594 Q1540.0781,349.7813 1540.2813,349.7813 Q1540.6094,349.7813 1540.8594,350.0469 Q1541.125,350.2969 1541.125,350.6406 Q1541.125,350.9844 1540.7813,351.3906 Q1540.2813,351.9688 1539.4844,352.2969 Q1538.4063,352.75 1537.1094,352.75 Q1535.5938,352.75 1534.3906,352.125 Q1533.4063,351.625 1532.7188,350.5625 Q1532.0313,349.4844 1532.0313,348.2031 L1532.0313,347.0469 Q1532.0313,345.7188 1532.6406,344.5781 Q1533.2656,343.4219 1534.3594,342.8125 Q1535.4531,342.1875 1536.6875,342.1875 Q1537.4219,342.1875 1538.0625,342.3594 Q1538.7188,342.5156 1539.2656,342.875 Z " fill="#000000"/><text fill="#000000" font-family="sans-serif" font-size="14" lengthAdjust="spacing" textLength="232.6543" x="1550.5" y="352.7969">UPwSmallStrainLinkInterfaceElement</text><line style="stroke:#181818;stroke-width:0.5;" x1="1522.5" x2="1785.1543" y1="363" y2="363"/><line style="stroke:#181818;stroke-width:0.5;" x1="1522.5" x2="1785.1543" y1="371" y2="371"/></g><!--class SmallStrainUPwDiffOrderElement--><g id="elem_SmallStrainUPwDiffOrderElement"><rect codeLine="37" fill="#F1F1F1" height="48" id="SmallStrainUPwDiffOrderElement" rx="2.5" ry="2.5" style="stroke:#181818;stroke-width:0.5;" width="241.2822" x="1690.5" y="223"/><ellipse cx="1705.5" cy="239" fill="#ADD1B2" rx="11" ry="11" style="stroke:#181818;stroke-width:1.0;"/><path d="M1708.2656,234.875 Q1708.4219,234.6563 1708.6094,234.5469 Q1708.7969,234.4375 1709.0156,234.4375 Q1709.3906,234.4375 1709.625,234.7031 Q1709.8594,234.9531 1709.8594,235.5625 L1709.8594,237.0156 Q1709.8594,237.625 1709.625,237.8906 Q1709.3906,238.1563 1709.0156,238.1563 Q1708.6719,238.1563 1708.4688,237.9531 Q1708.2656,237.7656 1708.1563,237.25 Q1708.1094,236.8906 1707.9219,236.7031 Q1707.5938,236.3281 1706.9844,236.1094 Q1706.375,235.8906 1705.75,235.8906 Q1704.9844,235.8906 1704.3438,236.2188 Q1703.7188,236.5469 1703.2188,237.2969 Q1702.7344,238.0469 1702.7344,239.0781 L1702.7344,240.1719 Q1702.7344,241.4063 1703.625,242.2344 Q1704.5156,243.0469 1706.1094,243.0469 Q1707.0469,243.0469 1707.7031,242.7969 Q1708.0938,242.6406 1708.5156,242.2031 Q1708.7813,241.9375 1708.9219,241.8594 Q1709.0781,241.7813 1709.2813,241.7813 Q1709.6094,241.7813 1709.8594,242.0469 Q1710.125,242.2969 1710.125,242.6406 Q1710.125,242.9844 1709.7813,243.3906 Q1709.2813,243.9688 1708.4844,244.2969 Q1707.4063,244.75 1706.1094,244.75 Q1704.5938,244.75 1703.3906,244.125 Q1702.4063,243.625 1701.7188,242.5625 Q1701.0313,241.4844 1701.0313,240.2031 L1701.0313,239.0469 Q1701.0313,237.7188 1701.6406,236.5781 Q1702.2656,235.4219 1703.3594,234.8125 Q1704.4531,234.1875 1705.6875,234.1875 Q1706.4219,234.1875 1707.0625,234.3594 Q1707.7188,234.5156 1708.2656,234.875 Z " fill="#000000"/><text fill="#000000" font-family="sans-serif" font-size="14" lengthAdjust="spacing" textLength="209.2822" x="1719.5" y="244.7969">SmallStrainUPwDiffOrderElement</text><line style="stroke:#181818;stroke-width:0.5;" x1="1691.5" x2="1930.7822" y1="255" y2="255"/><line style="stroke:#181818;stroke-width:0.5;" x1="1691.5" x2="1930.7822" y1="263" y2="263"/></g><!--class UpdatedLagrangianUPwDiffOrderElement--><g id="elem_UpdatedLagrangianUPwDiffOrderElement"><rect codeLine="38" fill="#F1F1F1" height="48" id="UpdatedLagrangianUPwDiffOrderElement" rx="2.5" ry="2.5" style="stroke:#181818;stroke-width:0.5;" width="292.6953" x="1821.5" y="331"/><ellipse cx="1836.5" cy="347" fill="#ADD1B2" rx="11" ry="11" style="stroke:#181818;stroke-width:1.0;"/><path d="M1839.2656,342.875 Q1839.4219,342.6563 1839.6094,342.5469 Q1839.7969,342.4375 1840.0156,342.4375 Q1840.3906,342.4375 1840.625,342.7031 Q1840.8594,342.9531 1840.8594,343.5625 L1840.8594,345.0156 Q1840.8594,345.625 1840.625,345.8906 Q1840.3906,346.1563 1840.0156,346.1563 Q1839.6719,346.1563 1839.4688,345.9531 Q1839.2656,345.7656 1839.1563,345.25 Q1839.1094,344.8906 1838.9219,344.7031 Q1838.5938,344.3281 1837.9844,344.1094 Q1837.375,343.8906 1836.75,343.8906 Q1835.9844,343.8906 1835.3438,344.2188 Q1834.7188,344.5469 1834.2188,345.2969 Q1833.7344,346.0469 1833.7344,347.0781 L1833.7344,348.1719 Q1833.7344,349.4063 1834.625,350.2344 Q1835.5156,351.0469 1837.1094,351.0469 Q1838.0469,351.0469 1838.7031,350.7969 Q1839.0938,350.6406 1839.5156,350.2031 Q1839.7813,349.9375 1839.9219,349.8594 Q1840.0781,349.7813 1840.2813,349.7813 Q1840.6094,349.7813 1840.8594,350.0469 Q1841.125,350.2969 1841.125,350.6406 Q1841.125,350.9844 1840.7813,351.3906 Q1840.2813,351.9688 1839.4844,352.2969 Q1838.4063,352.75 1837.1094,352.75 Q1835.5938,352.75 1834.3906,352.125 Q1833.4063,351.625 1832.7188,350.5625 Q1832.0313,349.4844 1832.0313,348.2031 L1832.0313,347.0469 Q1832.0313,345.7188 1832.6406,344.5781 Q1833.2656,343.4219 1834.3594,342.8125 Q1835.4531,342.1875 1836.6875,342.1875 Q1837.4219,342.1875 1838.0625,342.3594 Q1838.7188,342.5156 1839.2656,342.875 Z " fill="#000000"/><text fill="#000000" font-family="sans-serif" font-size="14" lengthAdjust="spacing" textLength="260.6953" x="1850.5" y="352.7969">UpdatedLagrangianUPwDiffOrderElement</text><line style="stroke:#181818;stroke-width:0.5;" x1="1822.5" x2="2113.1953" y1="363" y2="363"/><line style="stroke:#181818;stroke-width:0.5;" x1="1822.5" x2="2113.1953" y1="371" y2="371"/></g><!--class LineInterfaceElement--><g id="elem_LineInterfaceElement"><rect codeLine="49" fill="#F1F1F1" height="48" id="LineInterfaceElement" rx="2.5" ry="2.5" style="stroke:#181818;stroke-width:0.5;" width="164.3027" x="1565" y="115"/><ellipse cx="1580" cy="131" fill="#ADD1B2" rx="11" ry="11" style="stroke:#181818;stroke-width:1.0;"/><path d="M1582.7656,126.875 Q1582.9219,126.6563 1583.1094,126.5469 Q1583.2969,126.4375 1583.5156,126.4375 Q1583.8906,126.4375 1584.125,126.7031 Q1584.3594,126.9531 1584.3594,127.5625 L1584.3594,129.0156 Q1584.3594,129.625 1584.125,129.8906 Q1583.8906,130.1563 1583.5156,130.1563 Q1583.1719,130.1563 1582.9688,129.9531 Q1582.7656,129.7656 1582.6563,129.25 Q1582.6094,128.8906 1582.4219,128.7031 Q1582.0938,128.3281 1581.4844,128.1094 Q1580.875,127.8906 1580.25,127.8906 Q1579.4844,127.8906 1578.8438,128.2188 Q1578.2188,128.5469 1577.7188,129.2969 Q1577.2344,130.0469 1577.2344,131.0781 L1577.2344,132.1719 Q1577.2344,133.4063 1578.125,134.2344 Q1579.0156,135.0469 1580.6094,135.0469 Q1581.5469,135.0469 1582.2031,134.7969 Q1582.5938,134.6406 1583.0156,134.2031 Q1583.2813,133.9375 1583.4219,133.8594 Q1583.5781,133.7813 1583.7813,133.7813 Q1584.1094,133.7813 1584.3594,134.0469 Q1584.625,134.2969 1584.625,134.6406 Q1584.625,134.9844 1584.2813,135.3906 Q1583.7813,135.9688 1582.9844,136.2969 Q1581.9063,136.75 1580.6094,136.75 Q1579.0938,136.75 1577.8906,136.125 Q1576.9063,135.625 1576.2188,134.5625 Q1575.5313,133.4844 1575.5313,132.2031 L1575.5313,131.0469 Q1575.5313,129.7188 1576.1406,128.5781 Q1576.7656,127.4219 1577.8594,126.8125 Q1578.9531,126.1875 1580.1875,126.1875 Q1580.9219,126.1875 1581.5625,126.3594 Q1582.2188,126.5156 1582.7656,126.875 Z " fill="#000000"/><text fill="#000000" font-family="sans-serif" font-size="14" lengthAdjust="spacing" textLength="132.3027" x="1594" y="136.7969">LineInterfaceElement</text><line style="stroke:#181818;stroke-width:0.5;" x1="1566" x2="1728.3027" y1="147" y2="147"/><line style="stroke:#181818;stroke-width:0.5;" x1="1566" x2="1728.3027" y1="155" y2="155"/></g><!--class TransientPwLineElement--><g id="elem_TransientPwLineElement"><rect codeLine="53" fill="#F1F1F1" height="48" id="TransientPwLineElement" rx="2.5" ry="2.5" style="stroke:#181818;stroke-width:0.5;" width="187.6338" x="1764" y="115"/><ellipse cx="1779" cy="131" fill="#ADD1B2" rx="11" ry="11" style="stroke:#181818;stroke-width:1.0;"/><path d="M1781.7656,126.875 Q1781.9219,126.6563 1782.1094,126.5469 Q1782.2969,126.4375 1782.5156,126.4375 Q1782.8906,126.4375 1783.125,126.7031 Q1783.3594,126.9531 1783.3594,127.5625 L1783.3594,129.0156 Q1783.3594,129.625 1783.125,129.8906 Q1782.8906,130.1563 1782.5156,130.1563 Q1782.1719,130.1563 1781.9688,129.9531 Q1781.7656,129.7656 1781.6563,129.25 Q1781.6094,128.8906 1781.4219,128.7031 Q1781.0938,128.3281 1780.4844,128.1094 Q1779.875,127.8906 1779.25,127.8906 Q1778.4844,127.8906 1777.8438,128.2188 Q1777.2188,128.5469 1776.7188,129.2969 Q1776.2344,130.0469 1776.2344,131.0781 L1776.2344,132.1719 Q1776.2344,133.4063 1777.125,134.2344 Q1778.0156,135.0469 1779.6094,135.0469 Q1780.5469,135.0469 1781.2031,134.7969 Q1781.5938,134.6406 1782.0156,134.2031 Q1782.2813,133.9375 1782.4219,133.8594 Q1782.5781,133.7813 1782.7813,133.7813 Q1783.1094,133.7813 1783.3594,134.0469 Q1783.625,134.2969 1783.625,134.6406 Q1783.625,134.9844 1783.2813,135.3906 Q1782.7813,135.9688 1781.9844,136.2969 Q1780.9063,136.75 1779.6094,136.75 Q1778.0938,136.75 1776.8906,136.125 Q1775.9063,135.625 1775.2188,134.5625 Q1774.5313,133.4844 1774.5313,132.2031 L1774.5313,131.0469 Q1774.5313,129.7188 1775.1406,128.5781 Q1775.7656,127.4219 1776.8594,126.8125 Q1777.9531,126.1875 1779.1875,126.1875 Q1779.9219,126.1875 1780.5625,126.3594 Q1781.2188,126.5156 1781.7656,126.875 Z " fill="#000000"/><text fill="#000000" font-family="sans-serif" font-size="14" lengthAdjust="spacing" textLength="155.6338" x="1793" y="136.7969">TransientPwLineElement</text><line style="stroke:#181818;stroke-width:0.5;" x1="1765" x2="1950.6338" y1="147" y2="147"/><line style="stroke:#181818;stroke-width:0.5;" x1="1765" x2="1950.6338" y1="155" y2="155"/></g><!--class GeoSteadyStatePwPipingElement--><g id="elem_GeoSteadyStatePwPipingElement"><rect codeLine="54" fill="#F1F1F1" height="48" id="GeoSteadyStatePwPipingElement" rx="2.5" ry="2.5" style="stroke:#181818;stroke-width:0.5;" width="244.4609" x="1987" y="115"/><ellipse cx="2002" cy="131" fill="#ADD1B2" rx="11" ry="11" style="stroke:#181818;stroke-width:1.0;"/><path d="M2004.7656,126.875 Q2004.9219,126.6563 2005.1094,126.5469 Q2005.2969,126.4375 2005.5156,126.4375 Q2005.8906,126.4375 2006.125,126.7031 Q2006.3594,126.9531 2006.3594,127.5625 L2006.3594,129.0156 Q2006.3594,129.625 2006.125,129.8906 Q2005.8906,130.1563 2005.5156,130.1563 Q2005.1719,130.1563 2004.9688,129.9531 Q2004.7656,129.7656 2004.6563,129.25 Q2004.6094,128.8906 2004.4219,128.7031 Q2004.0938,128.3281 2003.4844,128.1094 Q2002.875,127.8906 2002.25,127.8906 Q2001.4844,127.8906 2000.8438,128.2188 Q2000.2188,128.5469 1999.7188,129.2969 Q1999.2344,130.0469 1999.2344,131.0781 L1999.2344,132.1719 Q1999.2344,133.4063 2000.125,134.2344 Q2001.0156,135.0469 2002.6094,135.0469 Q2003.5469,135.0469 2004.2031,134.7969 Q2004.5938,134.6406 2005.0156,134.2031 Q2005.2813,133.9375 2005.4219,133.8594 Q2005.5781,133.7813 2005.7813,133.7813 Q2006.1094,133.7813 2006.3594,134.0469 Q2006.625,134.2969 2006.625,134.6406 Q2006.625,134.9844 2006.2813,135.3906 Q2005.7813,135.9688 2004.9844,136.2969 Q2003.9063,136.75 2002.6094,136.75 Q2001.0938,136.75 1999.8906,136.125 Q1998.9063,135.625 1998.2188,134.5625 Q1997.5313,133.4844 1997.5313,132.2031 L1997.5313,131.0469 Q1997.5313,129.7188 1998.1406,128.5781 Q1998.7656,127.4219 1999.8594,126.8125 Q2000.9531,126.1875 2002.1875,126.1875 Q2002.9219,126.1875 2003.5625,126.3594 Q2004.2188,126.5156 2004.7656,126.875 Z " fill="#000000"/><text fill="#000000" font-family="sans-serif" font-size="14" lengthAdjust="spacing" textLength="212.4609" x="2016" y="136.7969">GeoSteadyStatePwPipingElement</text><line style="stroke:#181818;stroke-width:0.5;" x1="1988" x2="2230.4609" y1="147" y2="147"/><line style="stroke:#181818;stroke-width:0.5;" x1="1988" x2="2230.4609" y1="155" y2="155"/></g><!--class TransientThermalElement--><g id="elem_TransientThermalElement"><rect codeLine="60" fill="#F1F1F1" height="48" id="TransientThermalElement" rx="2.5" ry="2.5" style="stroke:#181818;stroke-width:0.5;" width="193.0615" x="2266.5" y="115"/><ellipse cx="2281.5" cy="131" fill="#ADD1B2" rx="11" ry="11" style="stroke:#181818;stroke-width:1.0;"/><path d="M2284.2656,126.875 Q2284.4219,126.6563 2284.6094,126.5469 Q2284.7969,126.4375 2285.0156,126.4375 Q2285.3906,126.4375 2285.625,126.7031 Q2285.8594,126.9531 2285.8594,127.5625 L2285.8594,129.0156 Q2285.8594,129.625 2285.625,129.8906 Q2285.3906,130.1563 2285.0156,130.1563 Q2284.6719,130.1563 2284.4688,129.9531 Q2284.2656,129.7656 2284.1563,129.25 Q2284.1094,128.8906 2283.9219,128.7031 Q2283.5938,128.3281 2282.9844,128.1094 Q2282.375,127.8906 2281.75,127.8906 Q2280.9844,127.8906 2280.3438,128.2188 Q2279.7188,128.5469 2279.2188,129.2969 Q2278.7344,130.0469 2278.7344,131.0781 L2278.7344,132.1719 Q2278.7344,133.4063 2279.625,134.2344 Q2280.5156,135.0469 2282.1094,135.0469 Q2283.0469,135.0469 2283.7031,134.7969 Q2284.0938,134.6406 2284.5156,134.2031 Q2284.7813,133.9375 2284.9219,133.8594 Q2285.0781,133.7813 2285.2813,133.7813 Q2285.6094,133.7813 2285.8594,134.0469 Q2286.125,134.2969 2286.125,134.6406 Q2286.125,134.9844 2285.7813,135.3906 Q2285.2813,135.9688 2284.4844,136.2969 Q2283.4063,136.75 2282.1094,136.75 Q2280.5938,136.75 2279.3906,136.125 Q2278.4063,135.625 2277.7188,134.5625 Q2277.0313,133.4844 2277.0313,132.2031 L2277.0313,131.0469 Q2277.0313,129.7188 2277.6406,128.5781 Q2278.2656,127.4219 2279.3594,126.8125 Q2280.4531,126.1875 2281.6875,126.1875 Q2282.4219,126.1875 2283.0625,126.3594 Q2283.7188,126.5156 2284.2656,126.875 Z " fill="#000000"/><text fill="#000000" font-family="sans-serif" font-size="14" lengthAdjust="spacing" textLength="161.0615" x="2295.5" y="136.7969">TransientThermalElement</text><line style="stroke:#181818;stroke-width:0.5;" x1="2267.5" x2="2458.5615" y1="147" y2="147"/><line style="stroke:#181818;stroke-width:0.5;" x1="2267.5" x2="2458.5615" y1="155" y2="155"/></g><!--class CrBeamElement2D2N_Structural--><g id="elem_CrBeamElement2D2N_Structural"><rect codeLine="65" fill="#F1F1F1" height="48" id="CrBeamElement2D2N_Structural" rx="2.5" ry="2.5" style="stroke:#181818;stroke-width:0.5;" width="238.1924" x="2495" y="115"/><ellipse cx="2510" cy="131" fill="#ADD1B2" rx="11" ry="11" style="stroke:#181818;stroke-width:1.0;"/><path d="M2512.7656,126.875 Q2512.9219,126.6563 2513.1094,126.5469 Q2513.2969,126.4375 2513.5156,126.4375 Q2513.8906,126.4375 2514.125,126.7031 Q2514.3594,126.9531 2514.3594,127.5625 L2514.3594,129.0156 Q2514.3594,129.625 2514.125,129.8906 Q2513.8906,130.1563 2513.5156,130.1563 Q2513.1719,130.1563 2512.9688,129.9531 Q2512.7656,129.7656 2512.6563,129.25 Q2512.6094,128.8906 2512.4219,128.7031 Q2512.0938,128.3281 2511.4844,128.1094 Q2510.875,127.8906 2510.25,127.8906 Q2509.4844,127.8906 2508.8438,128.2188 Q2508.2188,128.5469 2507.7188,129.2969 Q2507.2344,130.0469 2507.2344,131.0781 L2507.2344,132.1719 Q2507.2344,133.4063 2508.125,134.2344 Q2509.0156,135.0469 2510.6094,135.0469 Q2511.5469,135.0469 2512.2031,134.7969 Q2512.5938,134.6406 2513.0156,134.2031 Q2513.2813,133.9375 2513.4219,133.8594 Q2513.5781,133.7813 2513.7813,133.7813 Q2514.1094,133.7813 2514.3594,134.0469 Q2514.625,134.2969 2514.625,134.6406 Q2514.625,134.9844 2514.2813,135.3906 Q2513.7813,135.9688 2512.9844,136.2969 Q2511.9063,136.75 2510.6094,136.75 Q2509.0938,136.75 2507.8906,136.125 Q2506.9063,135.625 2506.2188,134.5625 Q2505.5313,133.4844 2505.5313,132.2031 L2505.5313,131.0469 Q2505.5313,129.7188 2506.1406,128.5781 Q2506.7656,127.4219 2507.8594,126.8125 Q2508.9531,126.1875 2510.1875,126.1875 Q2510.9219,126.1875 2511.5625,126.3594 Q2512.2188,126.5156 2512.7656,126.875 Z " fill="#000000"/><text fill="#000000" font-family="sans-serif" font-size="14" lengthAdjust="spacing" textLength="206.1924" x="2524" y="136.7969">CrBeamElement2D2N_Structural</text><line style="stroke:#181818;stroke-width:0.5;" x1="2496" x2="2732.1924" y1="147" y2="147"/><line style="stroke:#181818;stroke-width:0.5;" x1="2496" x2="2732.1924" y1="155" y2="155"/></g><!--class GeoCrBeamElement2D2N--><g id="elem_GeoCrBeamElement2D2N"><rect codeLine="66" fill="#F1F1F1" height="48" id="GeoCrBeamElement2D2N" rx="2.5" ry="2.5" style="stroke:#181818;stroke-width:0.5;" width="196.958" x="2243.5" y="223"/><ellipse cx="2258.5" cy="239" fill="#ADD1B2" rx="11" ry="11" style="stroke:#181818;stroke-width:1.0;"/><path d="M2261.2656,234.875 Q2261.4219,234.6563 2261.6094,234.5469 Q2261.7969,234.4375 2262.0156,234.4375 Q2262.3906,234.4375 2262.625,234.7031 Q2262.8594,234.9531 2262.8594,235.5625 L2262.8594,237.0156 Q2262.8594,237.625 2262.625,237.8906 Q2262.3906,238.1563 2262.0156,238.1563 Q2261.6719,238.1563 2261.4688,237.9531 Q2261.2656,237.7656 2261.1563,237.25 Q2261.1094,236.8906 2260.9219,236.7031 Q2260.5938,236.3281 2259.9844,236.1094 Q2259.375,235.8906 2258.75,235.8906 Q2257.9844,235.8906 2257.3438,236.2188 Q2256.7188,236.5469 2256.2188,237.2969 Q2255.7344,238.0469 2255.7344,239.0781 L2255.7344,240.1719 Q2255.7344,241.4063 2256.625,242.2344 Q2257.5156,243.0469 2259.1094,243.0469 Q2260.0469,243.0469 2260.7031,242.7969 Q2261.0938,242.6406 2261.5156,242.2031 Q2261.7813,241.9375 2261.9219,241.8594 Q2262.0781,241.7813 2262.2813,241.7813 Q2262.6094,241.7813 2262.8594,242.0469 Q2263.125,242.2969 2263.125,242.6406 Q2263.125,242.9844 2262.7813,243.3906 Q2262.2813,243.9688 2261.4844,244.2969 Q2260.4063,244.75 2259.1094,244.75 Q2257.5938,244.75 2256.3906,244.125 Q2255.4063,243.625 2254.7188,242.5625 Q2254.0313,241.4844 2254.0313,240.2031 L2254.0313,239.0469 Q2254.0313,237.7188 2254.6406,236.5781 Q2255.2656,235.4219 2256.3594,234.8125 Q2257.4531,234.1875 2258.6875,234.1875 Q2259.4219,234.1875 2260.0625,234.3594 Q2260.7188,234.5156 2261.2656,234.875 Z " fill="#000000"/><text fill="#000000" font-family="sans-serif" font-size="14" lengthAdjust="spacing" textLength="164.958" x="2272.5" y="244.7969">GeoCrBeamElement2D2N</text><line style="stroke:#181818;stroke-width:0.5;" x1="2244.5" x2="2439.458" y1="255" y2="255"/><line style="stroke:#181818;stroke-width:0.5;" x1="2244.5" x2="2439.458" y1="263" y2="263"/></g><!--class CrBeamElementLinear2D2N_Structural--><g id="elem_CrBeamElementLinear2D2N_Structural"><rect codeLine="67" fill="#F1F1F1" height="48" id="CrBeamElementLinear2D2N_Structural" rx="2.5" ry="2.5" style="stroke:#181818;stroke-width:0.5;" width="277.1094" x="2475.5" y="223"/><ellipse cx="2490.5" cy="239" fill="#ADD1B2" rx="11" ry="11" style="stroke:#181818;stroke-width:1.0;"/><path d="M2493.2656,234.875 Q2493.4219,234.6563 2493.6094,234.5469 Q2493.7969,234.4375 2494.0156,234.4375 Q2494.3906,234.4375 2494.625,234.7031 Q2494.8594,234.9531 2494.8594,235.5625 L2494.8594,237.0156 Q2494.8594,237.625 2494.625,237.8906 Q2494.3906,238.1563 2494.0156,238.1563 Q2493.6719,238.1563 2493.4688,237.9531 Q2493.2656,237.7656 2493.1563,237.25 Q2493.1094,236.8906 2492.9219,236.7031 Q2492.5938,236.3281 2491.9844,236.1094 Q2491.375,235.8906 2490.75,235.8906 Q2489.9844,235.8906 2489.3438,236.2188 Q2488.7188,236.5469 2488.2188,237.2969 Q2487.7344,238.0469 2487.7344,239.0781 L2487.7344,240.1719 Q2487.7344,241.4063 2488.625,242.2344 Q2489.5156,243.0469 2491.1094,243.0469 Q2492.0469,243.0469 2492.7031,242.7969 Q2493.0938,242.6406 2493.5156,242.2031 Q2493.7813,241.9375 2493.9219,241.8594 Q2494.0781,241.7813 2494.2813,241.7813 Q2494.6094,241.7813 2494.8594,242.0469 Q2495.125,242.2969 2495.125,242.6406 Q2495.125,242.9844 2494.7813,243.3906 Q2494.2813,243.9688 2493.4844,244.2969 Q2492.4063,244.75 2491.1094,244.75 Q2489.5938,244.75 2488.3906,244.125 Q2487.4063,243.625 2486.7188,242.5625 Q2486.0313,241.4844 2486.0313,240.2031 L2486.0313,239.0469 Q2486.0313,237.7188 2486.6406,236.5781 Q2487.2656,235.4219 2488.3594,234.8125 Q2489.4531,234.1875 2490.6875,234.1875 Q2491.4219,234.1875 2492.0625,234.3594 Q2492.7188,234.5156 2493.2656,234.875 Z " fill="#000000"/><text fill="#000000" font-family="sans-serif" font-size="14" lengthAdjust="spacing" textLength="245.1094" x="2504.5" y="244.7969">CrBeamElementLinear2D2N_Structural</text><line style="stroke:#181818;stroke-width:0.5;" x1="2476.5" x2="2751.6094" y1="255" y2="255"/><line style="stroke:#181818;stroke-width:0.5;" x1="2476.5" x2="2751.6094" y1="263" y2="263"/></g><!--class GeoCrBeamElementLinear2D2N--><g id="elem_GeoCrBeamElementLinear2D2N"><rect codeLine="68" fill="#F1F1F1" height="48" id="GeoCrBeamElementLinear2D2N" rx="2.5" ry="2.5" style="stroke:#181818;stroke-width:0.5;" width="235.875" x="2496" y="331"/><ellipse cx="2511" cy="347" fill="#ADD1B2" rx="11" ry="11" style="stroke:#181818;stroke-width:1.0;"/><path d="M2513.7656,342.875 Q2513.9219,342.6563 2514.1094,342.5469 Q2514.2969,342.4375 2514.5156,342.4375 Q2514.8906,342.4375 2515.125,342.7031 Q2515.3594,342.9531 2515.3594,343.5625 L2515.3594,345.0156 Q2515.3594,345.625 2515.125,345.8906 Q2514.8906,346.1563 2514.5156,346.1563 Q2514.1719,346.1563 2513.9688,345.9531 Q2513.7656,345.7656 2513.6563,345.25 Q2513.6094,344.8906 2513.4219,344.7031 Q2513.0938,344.3281 2512.4844,344.1094 Q2511.875,343.8906 2511.25,343.8906 Q2510.4844,343.8906 2509.8438,344.2188 Q2509.2188,344.5469 2508.7188,345.2969 Q2508.2344,346.0469 2508.2344,347.0781 L2508.2344,348.1719 Q2508.2344,349.4063 2509.125,350.2344 Q2510.0156,351.0469 2511.6094,351.0469 Q2512.5469,351.0469 2513.2031,350.7969 Q2513.5938,350.6406 2514.0156,350.2031 Q2514.2813,349.9375 2514.4219,349.8594 Q2514.5781,349.7813 2514.7813,349.7813 Q2515.1094,349.7813 2515.3594,350.0469 Q2515.625,350.2969 2515.625,350.6406 Q2515.625,350.9844 2515.2813,351.3906 Q2514.7813,351.9688 2513.9844,352.2969 Q2512.9063,352.75 2511.6094,352.75 Q2510.0938,352.75 2508.8906,352.125 Q2507.9063,351.625 2507.2188,350.5625 Q2506.5313,349.4844 2506.5313,348.2031 L2506.5313,347.0469 Q2506.5313,345.7188 2507.1406,344.5781 Q2507.7656,343.4219 2508.8594,342.8125 Q2509.9531,342.1875 2511.1875,342.1875 Q2511.9219,342.1875 2512.5625,342.3594 Q2513.2188,342.5156 2513.7656,342.875 Z " fill="#000000"/><text fill="#000000" font-family="sans-serif" font-size="14" lengthAdjust="spacing" textLength="203.875" x="2525" y="352.7969">GeoCrBeamElementLinear2D2N</text><line style="stroke:#181818;stroke-width:0.5;" x1="2497" x2="2730.875" y1="363" y2="363"/><line style="stroke:#181818;stroke-width:0.5;" x1="2497" x2="2730.875" y1="371" y2="371"/></g><!--class CrBeamElement3D2N_Structural--><g id="elem_CrBeamElement3D2N_Structural"><rect codeLine="75" fill="#F1F1F1" height="48" id="CrBeamElement3D2N_Structural" rx="2.5" ry="2.5" style="stroke:#181818;stroke-width:0.5;" width="238.1924" x="2768" y="115"/><ellipse cx="2783" cy="131" fill="#ADD1B2" rx="11" ry="11" style="stroke:#181818;stroke-width:1.0;"/><path d="M2785.7656,126.875 Q2785.9219,126.6563 2786.1094,126.5469 Q2786.2969,126.4375 2786.5156,126.4375 Q2786.8906,126.4375 2787.125,126.7031 Q2787.3594,126.9531 2787.3594,127.5625 L2787.3594,129.0156 Q2787.3594,129.625 2787.125,129.8906 Q2786.8906,130.1563 2786.5156,130.1563 Q2786.1719,130.1563 2785.9688,129.9531 Q2785.7656,129.7656 2785.6563,129.25 Q2785.6094,128.8906 2785.4219,128.7031 Q2785.0938,128.3281 2784.4844,128.1094 Q2783.875,127.8906 2783.25,127.8906 Q2782.4844,127.8906 2781.8438,128.2188 Q2781.2188,128.5469 2780.7188,129.2969 Q2780.2344,130.0469 2780.2344,131.0781 L2780.2344,132.1719 Q2780.2344,133.4063 2781.125,134.2344 Q2782.0156,135.0469 2783.6094,135.0469 Q2784.5469,135.0469 2785.2031,134.7969 Q2785.5938,134.6406 2786.0156,134.2031 Q2786.2813,133.9375 2786.4219,133.8594 Q2786.5781,133.7813 2786.7813,133.7813 Q2787.1094,133.7813 2787.3594,134.0469 Q2787.625,134.2969 2787.625,134.6406 Q2787.625,134.9844 2787.2813,135.3906 Q2786.7813,135.9688 2785.9844,136.2969 Q2784.9063,136.75 2783.6094,136.75 Q2782.0938,136.75 2780.8906,136.125 Q2779.9063,135.625 2779.2188,134.5625 Q2778.5313,133.4844 2778.5313,132.2031 L2778.5313,131.0469 Q2778.5313,129.7188 2779.1406,128.5781 Q2779.7656,127.4219 2780.8594,126.8125 Q2781.9531,126.1875 2783.1875,126.1875 Q2783.9219,126.1875 2784.5625,126.3594 Q2785.2188,126.5156 2785.7656,126.875 Z " fill="#000000"/><text fill="#000000" font-family="sans-serif" font-size="14" lengthAdjust="spacing" textLength="206.1924" x="2797" y="136.7969">CrBeamElement3D2N_Structural</text><line style="stroke:#181818;stroke-width:0.5;" x1="2769" x2="3005.1924" y1="147" y2="147"/><line style="stroke:#181818;stroke-width:0.5;" x1="2769" x2="3005.1924" y1="155" y2="155"/></g><!--class GeoCrBeamElement3D2N--><g id="elem_GeoCrBeamElement3D2N"><rect codeLine="76" fill="#F1F1F1" height="48" id="GeoCrBeamElement3D2N" rx="2.5" ry="2.5" style="stroke:#181818;stroke-width:0.5;" width="196.958" x="2787.5" y="223"/><ellipse cx="2802.5" cy="239" fill="#ADD1B2" rx="11" ry="11" style="stroke:#181818;stroke-width:1.0;"/><path d="M2805.2656,234.875 Q2805.4219,234.6563 2805.6094,234.5469 Q2805.7969,234.4375 2806.0156,234.4375 Q2806.3906,234.4375 2806.625,234.7031 Q2806.8594,234.9531 2806.8594,235.5625 L2806.8594,237.0156 Q2806.8594,237.625 2806.625,237.8906 Q2806.3906,238.1563 2806.0156,238.1563 Q2805.6719,238.1563 2805.4688,237.9531 Q2805.2656,237.7656 2805.1563,237.25 Q2805.1094,236.8906 2804.9219,236.7031 Q2804.5938,236.3281 2803.9844,236.1094 Q2803.375,235.8906 2802.75,235.8906 Q2801.9844,235.8906 2801.3438,236.2188 Q2800.7188,236.5469 2800.2188,237.2969 Q2799.7344,238.0469 2799.7344,239.0781 L2799.7344,240.1719 Q2799.7344,241.4063 2800.625,242.2344 Q2801.5156,243.0469 2803.1094,243.0469 Q2804.0469,243.0469 2804.7031,242.7969 Q2805.0938,242.6406 2805.5156,242.2031 Q2805.7813,241.9375 2805.9219,241.8594 Q2806.0781,241.7813 2806.2813,241.7813 Q2806.6094,241.7813 2806.8594,242.0469 Q2807.125,242.2969 2807.125,242.6406 Q2807.125,242.9844 2806.7813,243.3906 Q2806.2813,243.9688 2805.4844,244.2969 Q2804.4063,244.75 2803.1094,244.75 Q2801.5938,244.75 2800.3906,244.125 Q2799.4063,243.625 2798.7188,242.5625 Q2798.0313,241.4844 2798.0313,240.2031 L2798.0313,239.0469 Q2798.0313,237.7188 2798.6406,236.5781 Q2799.2656,235.4219 2800.3594,234.8125 Q2801.4531,234.1875 2802.6875,234.1875 Q2803.4219,234.1875 2804.0625,234.3594 Q2804.7188,234.5156 2805.2656,234.875 Z " fill="#000000"/><text fill="#000000" font-family="sans-serif" font-size="14" lengthAdjust="spacing" textLength="164.958" x="2816.5" y="244.7969">GeoCrBeamElement3D2N</text><line style="stroke:#181818;stroke-width:0.5;" x1="2788.5" x2="2983.458" y1="255" y2="255"/><line style="stroke:#181818;stroke-width:0.5;" x1="2788.5" x2="2983.458" y1="263" y2="263"/></g><!--class GeoCrBeamElementLinear3D2N--><g id="elem_GeoCrBeamElementLinear3D2N"><rect codeLine="77" fill="#F1F1F1" height="48" id="GeoCrBeamElementLinear3D2N" rx="2.5" ry="2.5" style="stroke:#181818;stroke-width:0.5;" width="235.875" x="3020" y="223"/><ellipse cx="3035" cy="239" fill="#ADD1B2" rx="11" ry="11" style="stroke:#181818;stroke-width:1.0;"/><path d="M3037.7656,234.875 Q3037.9219,234.6563 3038.1094,234.5469 Q3038.2969,234.4375 3038.5156,234.4375 Q3038.8906,234.4375 3039.125,234.7031 Q3039.3594,234.9531 3039.3594,235.5625 L3039.3594,237.0156 Q3039.3594,237.625 3039.125,237.8906 Q3038.8906,238.1563 3038.5156,238.1563 Q3038.1719,238.1563 3037.9688,237.9531 Q3037.7656,237.7656 3037.6563,237.25 Q3037.6094,236.8906 3037.4219,236.7031 Q3037.0938,236.3281 3036.4844,236.1094 Q3035.875,235.8906 3035.25,235.8906 Q3034.4844,235.8906 3033.8438,236.2188 Q3033.2188,236.5469 3032.7188,237.2969 Q3032.2344,238.0469 3032.2344,239.0781 L3032.2344,240.1719 Q3032.2344,241.4063 3033.125,242.2344 Q3034.0156,243.0469 3035.6094,243.0469 Q3036.5469,243.0469 3037.2031,242.7969 Q3037.5938,242.6406 3038.0156,242.2031 Q3038.2813,241.9375 3038.4219,241.8594 Q3038.5781,241.7813 3038.7813,241.7813 Q3039.1094,241.7813 3039.3594,242.0469 Q3039.625,242.2969 3039.625,242.6406 Q3039.625,242.9844 3039.2813,243.3906 Q3038.7813,243.9688 3037.9844,244.2969 Q3036.9063,244.75 3035.6094,244.75 Q3034.0938,244.75 3032.8906,244.125 Q3031.9063,243.625 3031.2188,242.5625 Q3030.5313,241.4844 3030.5313,240.2031 L3030.5313,239.0469 Q3030.5313,237.7188 3031.1406,236.5781 Q3031.7656,235.4219 3032.8594,234.8125 Q3033.9531,234.1875 3035.1875,234.1875 Q3035.9219,234.1875 3036.5625,234.3594 Q3037.2188,234.5156 3037.7656,234.875 Z " fill="#000000"/><text fill="#000000" font-family="sans-serif" font-size="14" lengthAdjust="spacing" textLength="203.875" x="3049" y="244.7969">GeoCrBeamElementLinear3D2N</text><line style="stroke:#181818;stroke-width:0.5;" x1="3021" x2="3254.875" y1="255" y2="255"/><line style="stroke:#181818;stroke-width:0.5;" x1="3021" x2="3254.875" y1="263" y2="263"/></g><!--class GeoStructuralBaseElement--><g id="elem_GeoStructuralBaseElement"><rect codeLine="83" fill="#F1F1F1" height="48" id="GeoStructuralBaseElement" rx="2.5" ry="2.5" style="stroke:#181818;stroke-width:0.5;" width="201.6406" x="3163" y="115"/><ellipse cx="3178" cy="131" fill="#ADD1B2" rx="11" ry="11" style="stroke:#181818;stroke-width:1.0;"/><path d="M3180.7656,126.875 Q3180.9219,126.6563 3181.1094,126.5469 Q3181.2969,126.4375 3181.5156,126.4375 Q3181.8906,126.4375 3182.125,126.7031 Q3182.3594,126.9531 3182.3594,127.5625 L3182.3594,129.0156 Q3182.3594,129.625 3182.125,129.8906 Q3181.8906,130.1563 3181.5156,130.1563 Q3181.1719,130.1563 3180.9688,129.9531 Q3180.7656,129.7656 3180.6563,129.25 Q3180.6094,128.8906 3180.4219,128.7031 Q3180.0938,128.3281 3179.4844,128.1094 Q3178.875,127.8906 3178.25,127.8906 Q3177.4844,127.8906 3176.8438,128.2188 Q3176.2188,128.5469 3175.7188,129.2969 Q3175.2344,130.0469 3175.2344,131.0781 L3175.2344,132.1719 Q3175.2344,133.4063 3176.125,134.2344 Q3177.0156,135.0469 3178.6094,135.0469 Q3179.5469,135.0469 3180.2031,134.7969 Q3180.5938,134.6406 3181.0156,134.2031 Q3181.2813,133.9375 3181.4219,133.8594 Q3181.5781,133.7813 3181.7813,133.7813 Q3182.1094,133.7813 3182.3594,134.0469 Q3182.625,134.2969 3182.625,134.6406 Q3182.625,134.9844 3182.2813,135.3906 Q3181.7813,135.9688 3180.9844,136.2969 Q3179.9063,136.75 3178.6094,136.75 Q3177.0938,136.75 3175.8906,136.125 Q3174.9063,135.625 3174.2188,134.5625 Q3173.5313,133.4844 3173.5313,132.2031 L3173.5313,131.0469 Q3173.5313,129.7188 3174.1406,128.5781 Q3174.7656,127.4219 3175.8594,126.8125 Q3176.9531,126.1875 3178.1875,126.1875 Q3178.9219,126.1875 3179.5625,126.3594 Q3180.2188,126.5156 3180.7656,126.875 Z " fill="#000000"/><text fill="#000000" font-family="sans-serif" font-size="14" lengthAdjust="spacing" textLength="169.6406" x="3192" y="136.7969">GeoStructuralBaseElement</text><line style="stroke:#181818;stroke-width:0.5;" x1="3164" x2="3363.6406" y1="147" y2="147"/><line style="stroke:#181818;stroke-width:0.5;" x1="3164" x2="3363.6406" y1="155" y2="155"/></g><!--class GeoCurvedBeamElement--><g id="elem_GeoCurvedBeamElement"><rect codeLine="84" fill="#F1F1F1" height="48" id="GeoCurvedBeamElement" rx="2.5" ry="2.5" style="stroke:#181818;stroke-width:0.5;" width="191.5234" x="3291" y="223"/><ellipse cx="3306" cy="239" fill="#ADD1B2" rx="11" ry="11" style="stroke:#181818;stroke-width:1.0;"/><path d="M3308.7656,234.875 Q3308.9219,234.6563 3309.1094,234.5469 Q3309.2969,234.4375 3309.5156,234.4375 Q3309.8906,234.4375 3310.125,234.7031 Q3310.3594,234.9531 3310.3594,235.5625 L3310.3594,237.0156 Q3310.3594,237.625 3310.125,237.8906 Q3309.8906,238.1563 3309.5156,238.1563 Q3309.1719,238.1563 3308.9688,237.9531 Q3308.7656,237.7656 3308.6563,237.25 Q3308.6094,236.8906 3308.4219,236.7031 Q3308.0938,236.3281 3307.4844,236.1094 Q3306.875,235.8906 3306.25,235.8906 Q3305.4844,235.8906 3304.8438,236.2188 Q3304.2188,236.5469 3303.7188,237.2969 Q3303.2344,238.0469 3303.2344,239.0781 L3303.2344,240.1719 Q3303.2344,241.4063 3304.125,242.2344 Q3305.0156,243.0469 3306.6094,243.0469 Q3307.5469,243.0469 3308.2031,242.7969 Q3308.5938,242.6406 3309.0156,242.2031 Q3309.2813,241.9375 3309.4219,241.8594 Q3309.5781,241.7813 3309.7813,241.7813 Q3310.1094,241.7813 3310.3594,242.0469 Q3310.625,242.2969 3310.625,242.6406 Q3310.625,242.9844 3310.2813,243.3906 Q3309.7813,243.9688 3308.9844,244.2969 Q3307.9063,244.75 3306.6094,244.75 Q3305.0938,244.75 3303.8906,244.125 Q3302.9063,243.625 3302.2188,242.5625 Q3301.5313,241.4844 3301.5313,240.2031 L3301.5313,239.0469 Q3301.5313,237.7188 3302.1406,236.5781 Q3302.7656,235.4219 3303.8594,234.8125 Q3304.9531,234.1875 3306.1875,234.1875 Q3306.9219,234.1875 3307.5625,234.3594 Q3308.2188,234.5156 3308.7656,234.875 Z " fill="#000000"/><text fill="#000000" font-family="sans-serif" font-size="14" lengthAdjust="spacing" textLength="159.5234" x="3320" y="244.7969">GeoCurvedBeamElement</text><line style="stroke:#181818;stroke-width:0.5;" x1="3292" x2="3481.5234" y1="255" y2="255"/><line style="stroke:#181818;stroke-width:0.5;" x1="3292" x2="3481.5234" y1="263" y2="263"/></g><!--reverse link Element to UPwBaseElement--><g id="link_Element_UPwBaseElement"><path codeLine="23" d="M2176.2153,36.5404 C2068.3253,45.0204 1790.07,69.5 1547,115 C1541.29,116.07 1535.41,117.29 1529.52,118.6 " fill="none" id="Element-backto-UPwBaseElement" style="stroke:#181818;stroke-width:1.0;"/><polygon fill="none" points="2194.16,35.13,2175.7452,30.5589,2176.6855,42.522,2194.16,35.13" style="stroke:#181818;stroke-width:1.0;"/></g><!--reverse link UPwBaseElement to UPwSmallStrainElement--><g id="link_UPwBaseElement_UPwSmallStrainElement"><path codeLine="24" d="M1366.3878,153.1931 C1233.0578,172.6031 967.74,211.24 821.19,232.58 " fill="none" id="UPwBaseElement-backto-UPwSmallStrainElement" style="stroke:#181818;stroke-width:1.0;"/><polygon fill="none" points="1384.2,150.6,1365.5234,147.2557,1367.2521,159.1305,1384.2,150.6" style="stroke:#181818;stroke-width:1.0;"/></g><!--reverse link UPwSmallStrainElement to DrainedUPwSmallStrainElement--><g id="link_UPwSmallStrainElement_DrainedUPwSmallStrainElement"><path codeLine="26" d="M619.05,267.2658 C513.04,285.8358 356.55,313.26 241.05,333.49 " fill="none" id="UPwSmallStrainElement-backto-DrainedUPwSmallStrainElement" style="stroke:#181818;stroke-width:1.0;"/><polygon fill="none" points="636.78,264.16,618.0147,261.3558,620.0852,273.1758,636.78,264.16" style="stroke:#181818;stroke-width:1.0;"/></g><!--reverse link UPwSmallStrainElement to TransientPwElement--><g id="link_UPwSmallStrainElement_TransientPwElement"><path codeLine="27" d="M630.969,275.9325 C568.569,293.7125 499.92,313.28 437.56,331.04 " fill="none" id="UPwSmallStrainElement-backto-TransientPwElement" style="stroke:#181818;stroke-width:1.0;"/><polygon fill="none" points="648.28,271,629.3248,270.1622,632.6132,281.7028,648.28,271" style="stroke:#181818;stroke-width:1.0;"/></g><!--reverse link TransientPwElement to SteadyStatePwElement--><g id="link_TransientPwElement_SteadyStatePwElement"><path codeLine="28" d="M357,397 C357,414.66 357,420.94 357,438.68 " fill="none" id="TransientPwElement-backto-SteadyStatePwElement" style="stroke:#181818;stroke-width:1.0;"/><polygon fill="none" points="357,379,351,397,363,397,357,379" style="stroke:#181818;stroke-width:1.0;"/></g><!--reverse link UPwSmallStrainElement to UndrainedUPwSmallStrainElement--><g id="link_UPwSmallStrainElement_UndrainedUPwSmallStrainElement"><path codeLine="29" d="M686.3256,282.271 C664.3356,299.931 648.13,312.94 626.04,330.68 " fill="none" id="UPwSmallStrainElement-backto-UndrainedUPwSmallStrainElement" style="stroke:#181818;stroke-width:1.0;"/><polygon fill="none" points="700.36,271,682.5686,277.5928,690.0825,286.9491,700.36,271" style="stroke:#181818;stroke-width:1.0;"/></g><!--reverse link UPwSmallStrainElement to UPwSmallStrainFICElement--><g id="link_UPwSmallStrainElement_UPwSmallStrainFICElement"><path codeLine="30" d="M771.4216,282.3241 C793.2416,299.9841 809.26,312.94 831.18,330.68 " fill="none" id="UPwSmallStrainElement-backto-UPwSmallStrainFICElement" style="stroke:#181818;stroke-width:1.0;"/><polygon fill="none" points="757.43,271,767.6469,286.988,775.1963,277.6602,757.43,271" style="stroke:#181818;stroke-width:1.0;"/></g><!--reverse link UPwSmallStrainFICElement to UPwUpdatedLagrangianFICElement--><g id="link_UPwSmallStrainFICElement_UPwUpdatedLagrangianFICElement"><path codeLine="31" d="M860,397 C860,414.66 860,420.94 860,438.68 " fill="none" id="UPwSmallStrainFICElement-backto-UPwUpdatedLagrangianFICElement" style="stroke:#181818;stroke-width:1.0;"/><polygon fill="none" points="860,379,854,397,866,397,860,379" style="stroke:#181818;stroke-width:1.0;"/></g><!--reverse link UPwSmallStrainElement to UPwUpdatedLagrangianElement--><g id="link_UPwSmallStrainElement_UPwUpdatedLagrangianElement"><path codeLine="32" d="M830.5537,275.7438 C895.5237,293.4938 967.63,313.19 1032.64,330.95 " fill="none" id="UPwSmallStrainElement-backto-UPwUpdatedLagrangianElement" style="stroke:#181818;stroke-width:1.0;"/><polygon fill="none" points="813.19,271,828.9724,281.5317,832.1349,269.9559,813.19,271" style="stroke:#181818;stroke-width:1.0;"/></g><!--reverse link UPwBaseElement to SmallStrainUPwDiffOrderElement--><g id="link_UPwBaseElement_SmallStrainUPwDiffOrderElement"><path codeLine="40" d="M1547.1635,166.9935 C1606.6735,184.8135 1673.27,204.76 1733.89,222.91 " fill="none" id="UPwBaseElement-backto-SmallStrainUPwDiffOrderElement" style="stroke:#181818;stroke-width:1.0;"/><polygon fill="none" points="1529.92,161.83,1545.4423,172.7413,1548.8847,161.2457,1529.92,161.83" style="stroke:#181818;stroke-width:1.0;"/></g><!--reverse link SmallStrainUPwDiffOrderElement to UpdatedLagrangianUPwDiffOrderElement--><g id="link_SmallStrainUPwDiffOrderElement_UpdatedLagrangianUPwDiffOrderElement"><path codeLine="41" d="M1859.9872,281.0736 C1886.2272,298.7936 1907.43,313.11 1933.73,330.86 " fill="none" id="SmallStrainUPwDiffOrderElement-backto-UpdatedLagrangianUPwDiffOrderElement" style="stroke:#181818;stroke-width:1.0;"/><polygon fill="none" points="1845.07,271,1856.6293,286.046,1863.345,276.1012,1845.07,271" style="stroke:#181818;stroke-width:1.0;"/></g><!--reverse link UPwBaseElement to UPwSmallStrainInterfaceElement--><g id="link_UPwBaseElement_UPwSmallStrainInterfaceElement"><path codeLine="43" d="M1457,181 C1457,198.66 1457,204.94 1457,222.68 " fill="none" id="UPwBaseElement-backto-UPwSmallStrainInterfaceElement" style="stroke:#181818;stroke-width:1.0;"/><polygon fill="none" points="1457,163,1451,181,1463,181,1457,163" style="stroke:#181818;stroke-width:1.0;"/></g><!--reverse link UPwSmallStrainInterfaceElement to TransientPwInterfaceElement--><g id="link_UPwSmallStrainInterfaceElement_TransientPwInterfaceElement"><path codeLine="44" d="M1429.1045,285.4333 C1415.9445,303.0933 1408.6,312.94 1395.38,330.68 " fill="none" id="UPwSmallStrainInterfaceElement-backto-TransientPwInterfaceElement" style="stroke:#181818;stroke-width:1.0;"/><polygon fill="none" points="1439.86,271,1424.2934,281.8481,1433.9156,289.0184,1439.86,271" style="stroke:#181818;stroke-width:1.0;"/></g><!--reverse link TransientPwInterfaceElement to SteadyStatePwInterfaceElement--><g id="link_TransientPwInterfaceElement_SteadyStatePwInterfaceElement"><path codeLine="45" d="M1378,397 C1378,414.66 1378,420.94 1378,438.68 " fill="none" id="TransientPwInterfaceElement-backto-SteadyStatePwInterfaceElement" style="stroke:#181818;stroke-width:1.0;"/><polygon fill="none" points="1378,379,1372,397,1384,397,1378,379" style="stroke:#181818;stroke-width:1.0;"/></g><!--reverse link SteadyStatePwInterfaceElement to SteadyStatePwPipingElement--><g id="link_SteadyStatePwInterfaceElement_SteadyStatePwPipingElement"><path codeLine="46" d="M1378,505 C1378,522.66 1378,528.94 1378,546.68 " fill="none" id="SteadyStatePwInterfaceElement-backto-SteadyStatePwPipingElement" style="stroke:#181818;stroke-width:1.0;"/><polygon fill="none" points="1378,487,1372,505,1384,505,1378,487" style="stroke:#181818;stroke-width:1.0;"/></g><!--reverse link UPwSmallStrainInterfaceElement to UPwSmallStrainLinkInterfaceElement--><g id="link_UPwSmallStrainInterfaceElement_UPwSmallStrainLinkInterfaceElement"><path codeLine="47" d="M1515.6008,279.5295 C1548.5308,297.2495 1578,313.11 1611,330.86 " fill="none" id="UPwSmallStrainInterfaceElement-backto-UPwSmallStrainLinkInterfaceElement" style="stroke:#181818;stroke-width:1.0;"/><polygon fill="none" points="1499.75,271,1512.7576,284.8131,1518.444,274.2459,1499.75,271" style="stroke:#181818;stroke-width:1.0;"/></g><!--reverse link Element to LineInterfaceElement--><g id="link_Element_LineInterfaceElement"><path codeLine="50" d="M2176.4214,40.8848 C2091.6314,53.6748 1911.17,81.86 1746,115 C1740.46,116.11 1734.76,117.3 1729.03,118.54 " fill="none" id="Element-backto-LineInterfaceElement" style="stroke:#181818;stroke-width:1.0;"/><polygon fill="none" points="2194.22,38.2,2175.5264,34.9519,2177.3163,46.8177,2194.22,38.2" style="stroke:#181818;stroke-width:1.0;"/></g><!--reverse link Element to TransientPwLineElement--><g id="link_Element_TransientPwLineElement"><path codeLine="56" d="M2177.1383,48.5093 C2116.1483,65.6093 2018.45,93 1940.04,114.99 " fill="none" id="Element-backto-TransientPwLineElement" style="stroke:#181818;stroke-width:1.0;"/><polygon fill="none" points="2194.47,43.65,2175.5185,42.7321,2178.7581,54.2866,2194.47,43.65" style="stroke:#181818;stroke-width:1.0;"/></g><!--reverse link Element to GeoSteadyStatePwPipingElement--><g id="link_Element_GeoSteadyStatePwPipingElement"><path codeLine="57" d="M2194.6233,66.5368 C2173.4733,84.1968 2158.19,96.94 2136.94,114.68 " fill="none" id="Element-backto-GeoSteadyStatePwPipingElement" style="stroke:#181818;stroke-width:1.0;"/><polygon fill="none" points="2208.44,55,2190.7777,61.9312,2198.4689,71.1424,2208.44,55" style="stroke:#181818;stroke-width:1.0;"/></g><!--reverse link Element to TransientThermalElement--><g id="link_Element_TransientThermalElement"><path codeLine="61" d="M2277.3767,66.5368 C2298.5267,84.1968 2313.81,96.94 2335.06,114.68 " fill="none" id="Element-backto-TransientThermalElement" style="stroke:#181818;stroke-width:1.0;"/><polygon fill="none" points="2263.56,55,2273.5311,71.1424,2281.2223,61.9312,2263.56,55" style="stroke:#181818;stroke-width:1.0;"/></g><!--reverse link Element to CrBeamElement2D2N_Structural--><g id="link_Element_CrBeamElement2D2N_Structural"><path codeLine="70" d="M2294.8617,48.5093 C2355.8517,65.6093 2453.55,93 2531.96,114.99 " fill="none" id="Element-backto-CrBeamElement2D2N_Structural" style="stroke:#181818;stroke-width:1.0;"/><polygon fill="none" points="2277.53,43.65,2293.2419,54.2866,2296.4815,42.7321,2277.53,43.65" style="stroke:#181818;stroke-width:1.0;"/></g><!--reverse link CrBeamElement2D2N_Structural to GeoCrBeamElement2D2N--><g id="link_CrBeamElement2D2N_Structural_GeoCrBeamElement2D2N"><path codeLine="71" d="M2538.2086,169.536 C2492.7386,187.256 2446.93,205.11 2401.37,222.86 " fill="none" id="CrBeamElement2D2N_Structural-backto-GeoCrBeamElement2D2N" style="stroke:#181818;stroke-width:1.0;"/><polygon fill="none" points="2554.98,163,2536.0299,163.9455,2540.3872,175.1264,2554.98,163" style="stroke:#181818;stroke-width:1.0;"/></g><!--reverse link CrBeamElement2D2N_Structural to CrBeamElementLinear2D2N_Structural--><g id="link_CrBeamElement2D2N_Structural_CrBeamElementLinear2D2N_Structural"><path codeLine="72" d="M2614,181 C2614,198.66 2614,204.94 2614,222.68 " fill="none" id="CrBeamElement2D2N_Structural-backto-CrBeamElementLinear2D2N_Structural" style="stroke:#181818;stroke-width:1.0;"/><polygon fill="none" points="2614,163,2608,181,2620,181,2614,163" style="stroke:#181818;stroke-width:1.0;"/></g><!--reverse link CrBeamElementLinear2D2N_Structural to GeoCrBeamElementLinear2D2N--><g id="link_CrBeamElementLinear2D2N_Structural_GeoCrBeamElementLinear2D2N"><path codeLine="73" d="M2614,289 C2614,306.66 2614,312.94 2614,330.68 " fill="none" id="CrBeamElementLinear2D2N_Structural-backto-GeoCrBeamElementLinear2D2N" style="stroke:#181818;stroke-width:1.0;"/><polygon fill="none" points="2614,271,2608,289,2620,289,2614,271" style="stroke:#181818;stroke-width:1.0;"/></g><!--reverse link Element to CrBeamElement3D2N_Structural--><g id="link_Element_CrBeamElement3D2N_Structural"><path codeLine="79" d="M2295.4352,41.4759 C2382.9352,55.4359 2574.52,86.1 2750,115 C2755.83,115.96 2761.8,116.95 2767.83,117.95 " fill="none" id="Element-backto-CrBeamElement3D2N_Structural" style="stroke:#181818;stroke-width:1.0;"/><polygon fill="none" points="2277.66,38.64,2294.4899,47.401,2296.3805,35.5508,2277.66,38.64" style="stroke:#181818;stroke-width:1.0;"/></g><!--reverse link CrBeamElement3D2N_Structural to GeoCrBeamElement3D2N--><g id="link_CrBeamElement3D2N_Structural_GeoCrBeamElement3D2N"><path codeLine="80" d="M2886.6169,180.9993 C2886.4569,198.6593 2886.39,204.94 2886.22,222.68 " fill="none" id="CrBeamElement3D2N_Structural-backto-GeoCrBeamElement3D2N" style="stroke:#181818;stroke-width:1.0;"/><polygon fill="none" points="2886.78,163,2880.6172,180.9449,2892.6167,181.0536,2886.78,163" style="stroke:#181818;stroke-width:1.0;"/></g><!--reverse link CrBeamElement3D2N_Structural to GeoCrBeamElementLinear3D2N--><g id="link_CrBeamElement3D2N_Structural_GeoCrBeamElementLinear3D2N"><path codeLine="81" d="M2958.042,170.0027 C3000.002,187.7227 3041.17,205.11 3083.21,222.86 " fill="none" id="CrBeamElement3D2N_Structural-backto-GeoCrBeamElementLinear3D2N" style="stroke:#181818;stroke-width:1.0;"/><polygon fill="none" points="2941.46,163,2955.7078,175.53,2960.3762,164.4754,2941.46,163" style="stroke:#181818;stroke-width:1.0;"/></g><!--reverse link Element to GeoStructuralBaseElement--><g id="link_Element_GeoStructuralBaseElement"><path codeLine="86" d="M2295.4751,38.1357 C2445.3551,53.5857 2942.79,104.88 3162.96,127.58 " fill="none" id="Element-backto-GeoStructuralBaseElement" style="stroke:#181818;stroke-width:1.0;"/><polygon fill="none" points="2277.57,36.29,2294.8599,44.1041,2296.0904,32.1673,2277.57,36.29" style="stroke:#181818;stroke-width:1.0;"/></g><!--reverse link GeoStructuralBaseElement to GeoCurvedBeamElement--><g id="link_GeoStructuralBaseElement_GeoCurvedBeamElement"><path codeLine="87" d="M3304.3246,174.7515 C3324.8146,192.4115 3339.36,204.94 3359.94,222.68 " fill="none" id="GeoStructuralBaseElement-backto-GeoCurvedBeamElement" style="stroke:#181818;stroke-width:1.0;"/><polygon fill="none" points="3290.69,163,3300.4075,179.2963,3308.2418,170.2066,3290.69,163" style="stroke:#181818;stroke-width:1.0;"/></g><!--SRC=[dLNBQiCm4BphAtBpAGr4jz9JahO4GcjmJ8z5H4eYQYj6bXiA_VZwRSkILwBa4cbcnpkhaHrSbShonzKgIuXGHPeyd6xfwfIGF5zIJYwIf0ZLoyLpmb8c549177wqUt5utv2SzL2_6wKaII8b2HSTs62xQejHY7AKHEIyN8Tt7OWK8_GdKaInAHGBwXRMiPVzre3ZZ9RYz50P5nTE_4YW_RrGJ9x9YSsQd65eRdqu8S-uk42M3rny6Kge_RDu-bqkfoUgBtkAPSJ8kjrKW8SEr5cIO6urL6is06b7OA3AkHJD0NqPb2xuWVEH2whVZf_FYtT9cUnoCKYLrHLSevDiJ4LjL6i27F8mt9hwzyCTrmk6ZLmPzG1cIPfH3g8M0VtI-ZJlSwMR0ounPc2QbfM1Wl3UlUrpytLLrUX1UcKtm1EQ6_rOIECuz8BWU6Mo7C6qjtRRgZb7gkzFEShYf0hPIsxbXf6qvQntwxTFWr8sQR1irPLB8lqq1kvaQc0_4DWFrEpLNURXmqsnTp1sQXaQzXeN7aPkryUEIMB83VRnWOr9Od_xU6I_pdnNDFu23_uA-SteI0HPRerDOGuOMZEK_m00]--></g></svg>