<svg xmlns="http://www.w3.org/2000/svg" xmlns:xlink="http://www.w3.org/1999/xlink" contentStyleType="text/css" height="541.8px" preserveAspectRatio="none" style="width:2231px;height:541px;background:#FFFFFF;" version="1.1" viewBox="0 0 2231 541" width="2231.1px" zoomAndPan="magnify"><defs/><g><!--class Element--><g id="elem_Element"><rect codeLine="3" fill="#F1F1F1" height="43.2" id="Element" rx="2.25" ry="2.25" style="stroke:#181818;stroke-width:0.45;" width="75.0226" x="1514.25" y="6.3"/><ellipse cx="1527.75" cy="20.7" fill="#ADD1B2" rx="9.9" ry="9.9" style="stroke:#181818;stroke-width:0.9;"/><path d="M1530.2391,16.9875 Q1530.3797,16.7906 1530.5484,16.6922 Q1530.7172,16.5938 1530.9141,16.5938 Q1531.2516,16.5938 1531.4625,16.8328 Q1531.6734,17.0578 1531.6734,17.6063 L1531.6734,18.9141 Q1531.6734,19.4625 1531.4625,19.7016 Q1531.2516,19.9406 1530.9141,19.9406 Q1530.6047,19.9406 1530.4219,19.7578 Q1530.2391,19.5891 1530.1406,19.125 Q1530.0984,18.8016 1529.9297,18.6328 Q1529.6344,18.2953 1529.0859,18.0984 Q1528.5375,17.9016 1527.975,17.9016 Q1527.2859,17.9016 1526.7094,18.1969 Q1526.1469,18.4922 1525.6969,19.1672 Q1525.2609,19.8422 1525.2609,20.7703 L1525.2609,21.7547 Q1525.2609,22.8656 1526.0625,23.6109 Q1526.8641,24.3422 1528.2984,24.3422 Q1529.1422,24.3422 1529.7328,24.1172 Q1530.0844,23.9766 1530.4641,23.5828 Q1530.7031,23.3438 1530.8297,23.2734 Q1530.9703,23.2031 1531.1531,23.2031 Q1531.4484,23.2031 1531.6734,23.4422 Q1531.9125,23.6672 1531.9125,23.9766 Q1531.9125,24.2859 1531.6031,24.6516 Q1531.1531,25.1719 1530.4359,25.4672 Q1529.4656,25.875 1528.2984,25.875 Q1526.9344,25.875 1525.8516,25.3125 Q1524.9656,24.8625 1524.3469,23.9063 Q1523.7281,22.9359 1523.7281,21.7828 L1523.7281,20.7422 Q1523.7281,19.5469 1524.2766,18.5203 Q1524.8391,17.4797 1525.8234,16.9313 Q1526.8078,16.3688 1527.9188,16.3688 Q1528.5797,16.3688 1529.1563,16.5234 Q1529.7469,16.6641 1530.2391,16.9875 Z " fill="#000000"/><text fill="#000000" font-family="sans-serif" font-size="12.6" lengthAdjust="spacing" textLength="46.2226" x="1540.35" y="25.9172">Element</text><line style="stroke:#181818;stroke-width:0.45;" x1="1515.15" x2="1588.3726" y1="35.1" y2="35.1"/><line style="stroke:#181818;stroke-width:0.45;" x1="1515.15" x2="1588.3726" y1="42.3" y2="42.3"/></g><!--class UPwBaseElement--><g id="elem_UPwBaseElement"><rect codeLine="6" fill="#F1F1F1" height="43.2" id="UPwBaseElement" rx="2.25" ry="2.25" style="stroke:#181818;stroke-width:0.45;" width="130.3444" x="1069.65" y="103.5"/><ellipse cx="1083.15" cy="117.9" fill="#ADD1B2" rx="9.9" ry="9.9" style="stroke:#181818;stroke-width:0.9;"/><path d="M1085.6391,114.1875 Q1085.7797,113.9906 1085.9484,113.8922 Q1086.1172,113.7938 1086.3141,113.7938 Q1086.6516,113.7938 1086.8625,114.0328 Q1087.0734,114.2578 1087.0734,114.8063 L1087.0734,116.1141 Q1087.0734,116.6625 1086.8625,116.9016 Q1086.6516,117.1406 1086.3141,117.1406 Q1086.0047,117.1406 1085.8219,116.9578 Q1085.6391,116.7891 1085.5406,116.325 Q1085.4984,116.0016 1085.3297,115.8328 Q1085.0344,115.4953 1084.4859,115.2984 Q1083.9375,115.1016 1083.375,115.1016 Q1082.6859,115.1016 1082.1094,115.3969 Q1081.5469,115.6922 1081.0969,116.3672 Q1080.6609,117.0422 1080.6609,117.9703 L1080.6609,118.9547 Q1080.6609,120.0656 1081.4625,120.8109 Q1082.2641,121.5422 1083.6984,121.5422 Q1084.5422,121.5422 1085.1328,121.3172 Q1085.4844,121.1766 1085.8641,120.7828 Q1086.1031,120.5438 1086.2297,120.4734 Q1086.3703,120.4031 1086.5531,120.4031 Q1086.8484,120.4031 1087.0734,120.6422 Q1087.3125,120.8672 1087.3125,121.1766 Q1087.3125,121.4859 1087.0031,121.8516 Q1086.5531,122.3719 1085.8359,122.6672 Q1084.8656,123.075 1083.6984,123.075 Q1082.3344,123.075 1081.2516,122.5125 Q1080.3656,122.0625 1079.7469,121.1063 Q1079.1281,120.1359 1079.1281,118.9828 L1079.1281,117.9422 Q1079.1281,116.7469 1079.6766,115.7203 Q1080.2391,114.6797 1081.2234,114.1313 Q1082.2078,113.5688 1083.3188,113.5688 Q1083.9797,113.5688 1084.5563,113.7234 Q1085.1469,113.8641 1085.6391,114.1875 Z " fill="#000000"/><text fill="#000000" font-family="sans-serif" font-size="12.6" lengthAdjust="spacing" textLength="101.5444" x="1095.75" y="123.1172">UPwBaseElement</text><line style="stroke:#181818;stroke-width:0.45;" x1="1070.55" x2="1199.0944" y1="132.3" y2="132.3"/><line style="stroke:#181818;stroke-width:0.45;" x1="1070.55" x2="1199.0944" y1="139.5" y2="139.5"/></g><!--class UPwSmallStrainElement--><g id="elem_UPwSmallStrainElement"><rect codeLine="8" fill="#F1F1F1" height="43.2" id="UPwSmallStrainElement" rx="2.25" ry="2.25" style="stroke:#181818;stroke-width:0.45;" width="166.0465" x="514.8" y="200.7"/><ellipse cx="528.3" cy="215.1" fill="#ADD1B2" rx="9.9" ry="9.9" style="stroke:#181818;stroke-width:0.9;"/><path d="M530.7891,211.3875 Q530.9297,211.1906 531.0984,211.0922 Q531.2672,210.9938 531.4641,210.9938 Q531.8016,210.9938 532.0125,211.2328 Q532.2234,211.4578 532.2234,212.0063 L532.2234,213.3141 Q532.2234,213.8625 532.0125,214.1016 Q531.8016,214.3406 531.4641,214.3406 Q531.1547,214.3406 530.9719,214.1578 Q530.7891,213.9891 530.6906,213.525 Q530.6484,213.2016 530.4797,213.0328 Q530.1844,212.6953 529.6359,212.4984 Q529.0875,212.3016 528.525,212.3016 Q527.8359,212.3016 527.2594,212.5969 Q526.6969,212.8922 526.2469,213.5672 Q525.8109,214.2422 525.8109,215.1703 L525.8109,216.1547 Q525.8109,217.2656 526.6125,218.0109 Q527.4141,218.7422 528.8484,218.7422 Q529.6922,218.7422 530.2828,218.5172 Q530.6344,218.3766 531.0141,217.9828 Q531.2531,217.7438 531.3797,217.6734 Q531.5203,217.6031 531.7031,217.6031 Q531.9984,217.6031 532.2234,217.8422 Q532.4625,218.0672 532.4625,218.3766 Q532.4625,218.6859 532.1531,219.0516 Q531.7031,219.5719 530.9859,219.8672 Q530.0156,220.275 528.8484,220.275 Q527.4844,220.275 526.4016,219.7125 Q525.5156,219.2625 524.8969,218.3063 Q524.2781,217.3359 524.2781,216.1828 L524.2781,215.1422 Q524.2781,213.9469 524.8266,212.9203 Q525.3891,211.8797 526.3734,211.3313 Q527.3578,210.7688 528.4688,210.7688 Q529.1297,210.7688 529.7063,210.9234 Q530.2969,211.0641 530.7891,211.3875 Z " fill="#000000"/><text fill="#000000" font-family="sans-serif" font-size="12.6" lengthAdjust="spacing" textLength="137.2465" x="540.9" y="220.3172">UPwSmallStrainElement</text><line style="stroke:#181818;stroke-width:0.45;" x1="515.7" x2="679.9465" y1="229.5" y2="229.5"/><line style="stroke:#181818;stroke-width:0.45;" x1="515.7" x2="679.9465" y1="236.7" y2="236.7"/></g><!--class DrainedUPwSmallStrainElement--><g id="elem_DrainedUPwSmallStrainElement"><rect codeLine="9" fill="#F1F1F1" height="43.2" id="DrainedUPwSmallStrainElement" rx="2.25" ry="2.25" style="stroke:#181818;stroke-width:0.45;" width="210.1711" x="6.3" y="297.9"/><ellipse cx="19.8" cy="312.3" fill="#ADD1B2" rx="9.9" ry="9.9" style="stroke:#181818;stroke-width:0.9;"/><path d="M22.2891,308.5875 Q22.4297,308.3906 22.5984,308.2922 Q22.7672,308.1938 22.9641,308.1938 Q23.3016,308.1938 23.5125,308.4328 Q23.7234,308.6578 23.7234,309.2063 L23.7234,310.5141 Q23.7234,311.0625 23.5125,311.3016 Q23.3016,311.5406 22.9641,311.5406 Q22.6547,311.5406 22.4719,311.3578 Q22.2891,311.1891 22.1906,310.725 Q22.1484,310.4016 21.9797,310.2328 Q21.6844,309.8953 21.1359,309.6984 Q20.5875,309.5016 20.025,309.5016 Q19.3359,309.5016 18.7594,309.7969 Q18.1969,310.0922 17.7469,310.7672 Q17.3109,311.4422 17.3109,312.3703 L17.3109,313.3547 Q17.3109,314.4656 18.1125,315.2109 Q18.9141,315.9422 20.3484,315.9422 Q21.1922,315.9422 21.7828,315.7172 Q22.1344,315.5766 22.5141,315.1828 Q22.7531,314.9438 22.8797,314.8734 Q23.0203,314.8031 23.2031,314.8031 Q23.4984,314.8031 23.7234,315.0422 Q23.9625,315.2672 23.9625,315.5766 Q23.9625,315.8859 23.6531,316.2516 Q23.2031,316.7719 22.4859,317.0672 Q21.5156,317.475 20.3484,317.475 Q18.9844,317.475 17.9016,316.9125 Q17.0156,316.4625 16.3969,315.5063 Q15.7781,314.5359 15.7781,313.3828 L15.7781,312.3422 Q15.7781,311.1469 16.3266,310.1203 Q16.8891,309.0797 17.8734,308.5313 Q18.8578,307.9688 19.9688,307.9688 Q20.6297,307.9688 21.2063,308.1234 Q21.7969,308.2641 22.2891,308.5875 Z " fill="#000000"/><text fill="#000000" font-family="sans-serif" font-size="12.6" lengthAdjust="spacing" textLength="181.3711" x="32.4" y="317.5172">DrainedUPwSmallStrainElement</text><line style="stroke:#181818;stroke-width:0.45;" x1="7.2" x2="215.5711" y1="326.7" y2="326.7"/><line style="stroke:#181818;stroke-width:0.45;" x1="7.2" x2="215.5711" y1="333.9" y2="333.9"/></g><!--class UndrainedUPwSmallStrainElement--><g id="elem_UndrainedUPwSmallStrainElement"><rect codeLine="10" fill="#F1F1F1" height="43.2" id="UndrainedUPwSmallStrainElement" rx="2.25" ry="2.25" style="stroke:#181818;stroke-width:0.45;" width="224.1861" x="248.85" y="297.9"/><ellipse cx="262.35" cy="312.3" fill="#ADD1B2" rx="9.9" ry="9.9" style="stroke:#181818;stroke-width:0.9;"/><path d="M264.8391,308.5875 Q264.9797,308.3906 265.1484,308.2922 Q265.3172,308.1938 265.5141,308.1938 Q265.8516,308.1938 266.0625,308.4328 Q266.2734,308.6578 266.2734,309.2063 L266.2734,310.5141 Q266.2734,311.0625 266.0625,311.3016 Q265.8516,311.5406 265.5141,311.5406 Q265.2047,311.5406 265.0219,311.3578 Q264.8391,311.1891 264.7406,310.725 Q264.6984,310.4016 264.5297,310.2328 Q264.2344,309.8953 263.6859,309.6984 Q263.1375,309.5016 262.575,309.5016 Q261.8859,309.5016 261.3094,309.7969 Q260.7469,310.0922 260.2969,310.7672 Q259.8609,311.4422 259.8609,312.3703 L259.8609,313.3547 Q259.8609,314.4656 260.6625,315.2109 Q261.4641,315.9422 262.8984,315.9422 Q263.7422,315.9422 264.3328,315.7172 Q264.6844,315.5766 265.0641,315.1828 Q265.3031,314.9438 265.4297,314.8734 Q265.5703,314.8031 265.7531,314.8031 Q266.0484,314.8031 266.2734,315.0422 Q266.5125,315.2672 266.5125,315.5766 Q266.5125,315.8859 266.2031,316.2516 Q265.7531,316.7719 265.0359,317.0672 Q264.0656,317.475 262.8984,317.475 Q261.5344,317.475 260.4516,316.9125 Q259.5656,316.4625 258.9469,315.5063 Q258.3281,314.5359 258.3281,313.3828 L258.3281,312.3422 Q258.3281,311.1469 258.8766,310.1203 Q259.4391,309.0797 260.4234,308.5313 Q261.4078,307.9688 262.5188,307.9688 Q263.1797,307.9688 263.7563,308.1234 Q264.3469,308.2641 264.8391,308.5875 Z " fill="#000000"/><text fill="#000000" font-family="sans-serif" font-size="12.6" lengthAdjust="spacing" textLength="195.3861" x="274.95" y="317.5172">UndrainedUPwSmallStrainElement</text><line style="stroke:#181818;stroke-width:0.45;" x1="249.75" x2="472.1361" y1="326.7" y2="326.7"/><line style="stroke:#181818;stroke-width:0.45;" x1="249.75" x2="472.1361" y1="333.9" y2="333.9"/></g><!--class UPwSmallStrainFICElement--><g id="elem_UPwSmallStrainFICElement"><rect codeLine="11" fill="#F1F1F1" height="43.2" id="UPwSmallStrainFICElement" rx="2.25" ry="2.25" style="stroke:#181818;stroke-width:0.45;" width="186.3431" x="504.45" y="297.9"/><ellipse cx="517.95" cy="312.3" fill="#ADD1B2" rx="9.9" ry="9.9" style="stroke:#181818;stroke-width:0.9;"/><path d="M520.4391,308.5875 Q520.5797,308.3906 520.7484,308.2922 Q520.9172,308.1938 521.1141,308.1938 Q521.4516,308.1938 521.6625,308.4328 Q521.8734,308.6578 521.8734,309.2063 L521.8734,310.5141 Q521.8734,311.0625 521.6625,311.3016 Q521.4516,311.5406 521.1141,311.5406 Q520.8047,311.5406 520.6219,311.3578 Q520.4391,311.1891 520.3406,310.725 Q520.2984,310.4016 520.1297,310.2328 Q519.8344,309.8953 519.2859,309.6984 Q518.7375,309.5016 518.175,309.5016 Q517.4859,309.5016 516.9094,309.7969 Q516.3469,310.0922 515.8969,310.7672 Q515.4609,311.4422 515.4609,312.3703 L515.4609,313.3547 Q515.4609,314.4656 516.2625,315.2109 Q517.0641,315.9422 518.4984,315.9422 Q519.3422,315.9422 519.9328,315.7172 Q520.2844,315.5766 520.6641,315.1828 Q520.9031,314.9438 521.0297,314.8734 Q521.1703,314.8031 521.3531,314.8031 Q521.6484,314.8031 521.8734,315.0422 Q522.1125,315.2672 522.1125,315.5766 Q522.1125,315.8859 521.8031,316.2516 Q521.3531,316.7719 520.6359,317.0672 Q519.6656,317.475 518.4984,317.475 Q517.1344,317.475 516.0516,316.9125 Q515.1656,316.4625 514.5469,315.5063 Q513.9281,314.5359 513.9281,313.3828 L513.9281,312.3422 Q513.9281,311.1469 514.4766,310.1203 Q515.0391,309.0797 516.0234,308.5313 Q517.0078,307.9688 518.1188,307.9688 Q518.7797,307.9688 519.3563,308.1234 Q519.9469,308.2641 520.4391,308.5875 Z " fill="#000000"/><text fill="#000000" font-family="sans-serif" font-size="12.6" lengthAdjust="spacing" textLength="157.5431" x="530.55" y="317.5172">UPwSmallStrainFICElement</text><line style="stroke:#181818;stroke-width:0.45;" x1="505.35" x2="689.8931" y1="326.7" y2="326.7"/><line style="stroke:#181818;stroke-width:0.45;" x1="505.35" x2="689.8931" y1="333.9" y2="333.9"/></g><!--class UPwUpdatedLagrangianFICElement--><g id="elem_UPwUpdatedLagrangianFICElement"><rect codeLine="12" fill="#F1F1F1" height="43.2" id="UPwUpdatedLagrangianFICElement" rx="2.25" ry="2.25" style="stroke:#181818;stroke-width:0.45;" width="232.6148" x="481.5" y="395.1"/><ellipse cx="495" cy="409.5" fill="#ADD1B2" rx="9.9" ry="9.9" style="stroke:#181818;stroke-width:0.9;"/><path d="M497.4891,405.7875 Q497.6297,405.5906 497.7984,405.4922 Q497.9672,405.3938 498.1641,405.3938 Q498.5016,405.3938 498.7125,405.6328 Q498.9234,405.8578 498.9234,406.4063 L498.9234,407.7141 Q498.9234,408.2625 498.7125,408.5016 Q498.5016,408.7406 498.1641,408.7406 Q497.8547,408.7406 497.6719,408.5578 Q497.4891,408.3891 497.3906,407.925 Q497.3484,407.6016 497.1797,407.4328 Q496.8844,407.0953 496.3359,406.8984 Q495.7875,406.7016 495.225,406.7016 Q494.5359,406.7016 493.9594,406.9969 Q493.3969,407.2922 492.9469,407.9672 Q492.5109,408.6422 492.5109,409.5703 L492.5109,410.5547 Q492.5109,411.6656 493.3125,412.4109 Q494.1141,413.1422 495.5484,413.1422 Q496.3922,413.1422 496.9828,412.9172 Q497.3344,412.7766 497.7141,412.3828 Q497.9531,412.1438 498.0797,412.0734 Q498.2203,412.0031 498.4031,412.0031 Q498.6984,412.0031 498.9234,412.2422 Q499.1625,412.4672 499.1625,412.7766 Q499.1625,413.0859 498.8531,413.4516 Q498.4031,413.9719 497.6859,414.2672 Q496.7156,414.675 495.5484,414.675 Q494.1844,414.675 493.1016,414.1125 Q492.2156,413.6625 491.5969,412.7063 Q490.9781,411.7359 490.9781,410.5828 L490.9781,409.5422 Q490.9781,408.3469 491.5266,407.3203 Q492.0891,406.2797 493.0734,405.7313 Q494.0578,405.1688 495.1688,405.1688 Q495.8297,405.1688 496.4063,405.3234 Q496.9969,405.4641 497.4891,405.7875 Z " fill="#000000"/><text fill="#000000" font-family="sans-serif" font-size="12.6" lengthAdjust="spacing" textLength="203.8148" x="507.6" y="414.7172">UPwUpdatedLagrangianFICElement</text><line style="stroke:#181818;stroke-width:0.45;" x1="482.4" x2="713.2148" y1="423.9" y2="423.9"/><line style="stroke:#181818;stroke-width:0.45;" x1="482.4" x2="713.2148" y1="431.1" y2="431.1"/></g><!--class UPwUpdatedLagrangianElement--><g id="elem_UPwUpdatedLagrangianElement"><rect codeLine="13" fill="#F1F1F1" height="43.2" id="UPwUpdatedLagrangianElement" rx="2.25" ry="2.25" style="stroke:#181818;stroke-width:0.45;" width="212.3183" x="722.7" y="297.9"/><ellipse cx="736.2" cy="312.3" fill="#ADD1B2" rx="9.9" ry="9.9" style="stroke:#181818;stroke-width:0.9;"/><path d="M738.6891,308.5875 Q738.8297,308.3906 738.9984,308.2922 Q739.1672,308.1938 739.3641,308.1938 Q739.7016,308.1938 739.9125,308.4328 Q740.1234,308.6578 740.1234,309.2063 L740.1234,310.5141 Q740.1234,311.0625 739.9125,311.3016 Q739.7016,311.5406 739.3641,311.5406 Q739.0547,311.5406 738.8719,311.3578 Q738.6891,311.1891 738.5906,310.725 Q738.5484,310.4016 738.3797,310.2328 Q738.0844,309.8953 737.5359,309.6984 Q736.9875,309.5016 736.425,309.5016 Q735.7359,309.5016 735.1594,309.7969 Q734.5969,310.0922 734.1469,310.7672 Q733.7109,311.4422 733.7109,312.3703 L733.7109,313.3547 Q733.7109,314.4656 734.5125,315.2109 Q735.3141,315.9422 736.7484,315.9422 Q737.5922,315.9422 738.1828,315.7172 Q738.5344,315.5766 738.9141,315.1828 Q739.1531,314.9438 739.2797,314.8734 Q739.4203,314.8031 739.6031,314.8031 Q739.8984,314.8031 740.1234,315.0422 Q740.3625,315.2672 740.3625,315.5766 Q740.3625,315.8859 740.0531,316.2516 Q739.6031,316.7719 738.8859,317.0672 Q737.9156,317.475 736.7484,317.475 Q735.3844,317.475 734.3016,316.9125 Q733.4156,316.4625 732.7969,315.5063 Q732.1781,314.5359 732.1781,313.3828 L732.1781,312.3422 Q732.1781,311.1469 732.7266,310.1203 Q733.2891,309.0797 734.2734,308.5313 Q735.2578,307.9688 736.3688,307.9688 Q737.0297,307.9688 737.6063,308.1234 Q738.1969,308.2641 738.6891,308.5875 Z " fill="#000000"/><text fill="#000000" font-family="sans-serif" font-size="12.6" lengthAdjust="spacing" textLength="183.5183" x="748.8" y="317.5172">UPwUpdatedLagrangianElement</text><line style="stroke:#181818;stroke-width:0.45;" x1="723.6" x2="934.1183" y1="326.7" y2="326.7"/><line style="stroke:#181818;stroke-width:0.45;" x1="723.6" x2="934.1183" y1="333.9" y2="333.9"/></g><!--class UPwSmallStrainInterfaceElement--><g id="elem_UPwSmallStrainInterfaceElement"><rect codeLine="15" fill="#F1F1F1" height="43.2" id="UPwSmallStrainInterfaceElement" rx="2.25" ry="2.25" style="stroke:#181818;stroke-width:0.45;" width="215.0745" x="1027.35" y="200.7"/><ellipse cx="1040.85" cy="215.1" fill="#ADD1B2" rx="9.9" ry="9.9" style="stroke:#181818;stroke-width:0.9;"/><path d="M1043.3391,211.3875 Q1043.4797,211.1906 1043.6484,211.0922 Q1043.8172,210.9938 1044.0141,210.9938 Q1044.3516,210.9938 1044.5625,211.2328 Q1044.7734,211.4578 1044.7734,212.0063 L1044.7734,213.3141 Q1044.7734,213.8625 1044.5625,214.1016 Q1044.3516,214.3406 1044.0141,214.3406 Q1043.7047,214.3406 1043.5219,214.1578 Q1043.3391,213.9891 1043.2406,213.525 Q1043.1984,213.2016 1043.0297,213.0328 Q1042.7344,212.6953 1042.1859,212.4984 Q1041.6375,212.3016 1041.075,212.3016 Q1040.3859,212.3016 1039.8094,212.5969 Q1039.2469,212.8922 1038.7969,213.5672 Q1038.3609,214.2422 1038.3609,215.1703 L1038.3609,216.1547 Q1038.3609,217.2656 1039.1625,218.0109 Q1039.9641,218.7422 1041.3984,218.7422 Q1042.2422,218.7422 1042.8328,218.5172 Q1043.1844,218.3766 1043.5641,217.9828 Q1043.8031,217.7438 1043.9297,217.6734 Q1044.0703,217.6031 1044.2531,217.6031 Q1044.5484,217.6031 1044.7734,217.8422 Q1045.0125,218.0672 1045.0125,218.3766 Q1045.0125,218.6859 1044.7031,219.0516 Q1044.2531,219.5719 1043.5359,219.8672 Q1042.5656,220.275 1041.3984,220.275 Q1040.0344,220.275 1038.9516,219.7125 Q1038.0656,219.2625 1037.4469,218.3063 Q1036.8281,217.3359 1036.8281,216.1828 L1036.8281,215.1422 Q1036.8281,213.9469 1037.3766,212.9203 Q1037.9391,211.8797 1038.9234,211.3313 Q1039.9078,210.7688 1041.0188,210.7688 Q1041.6797,210.7688 1042.2563,210.9234 Q1042.8469,211.0641 1043.3391,211.3875 Z " fill="#000000"/><text fill="#000000" font-family="sans-serif" font-size="12.6" lengthAdjust="spacing" textLength="186.2745" x="1053.45" y="220.3172">UPwSmallStrainInterfaceElement</text><line style="stroke:#181818;stroke-width:0.45;" x1="1028.25" x2="1241.5245" y1="229.5" y2="229.5"/><line style="stroke:#181818;stroke-width:0.45;" x1="1028.25" x2="1241.5245" y1="236.7" y2="236.7"/></g><!--class TransientPwInterfaceElement--><g id="elem_TransientPwInterfaceElement"><rect codeLine="16" fill="#F1F1F1" height="43.2" id="TransientPwInterfaceElement" rx="2.25" ry="2.25" style="stroke:#181818;stroke-width:0.45;" width="194.0766" x="966.6" y="297.9"/><ellipse cx="980.1" cy="312.3" fill="#ADD1B2" rx="9.9" ry="9.9" style="stroke:#181818;stroke-width:0.9;"/><path d="M982.5891,308.5875 Q982.7297,308.3906 982.8984,308.2922 Q983.0672,308.1938 983.2641,308.1938 Q983.6016,308.1938 983.8125,308.4328 Q984.0234,308.6578 984.0234,309.2063 L984.0234,310.5141 Q984.0234,311.0625 983.8125,311.3016 Q983.6016,311.5406 983.2641,311.5406 Q982.9547,311.5406 982.7719,311.3578 Q982.5891,311.1891 982.4906,310.725 Q982.4484,310.4016 982.2797,310.2328 Q981.9844,309.8953 981.4359,309.6984 Q980.8875,309.5016 980.325,309.5016 Q979.6359,309.5016 979.0594,309.7969 Q978.4969,310.0922 978.0469,310.7672 Q977.6109,311.4422 977.6109,312.3703 L977.6109,313.3547 Q977.6109,314.4656 978.4125,315.2109 Q979.2141,315.9422 980.6484,315.9422 Q981.4922,315.9422 982.0828,315.7172 Q982.4344,315.5766 982.8141,315.1828 Q983.0531,314.9438 983.1797,314.8734 Q983.3203,314.8031 983.5031,314.8031 Q983.7984,314.8031 984.0234,315.0422 Q984.2625,315.2672 984.2625,315.5766 Q984.2625,315.8859 983.9531,316.2516 Q983.5031,316.7719 982.7859,317.0672 Q981.8156,317.475 980.6484,317.475 Q979.2844,317.475 978.2016,316.9125 Q977.3156,316.4625 976.6969,315.5063 Q976.0781,314.5359 976.0781,313.3828 L976.0781,312.3422 Q976.0781,311.1469 976.6266,310.1203 Q977.1891,309.0797 978.1734,308.5313 Q979.1578,307.9688 980.2688,307.9688 Q980.9297,307.9688 981.5063,308.1234 Q982.0969,308.2641 982.5891,308.5875 Z " fill="#000000"/><text fill="#000000" font-family="sans-serif" font-size="12.6" lengthAdjust="spacing" textLength="165.2766" x="992.7" y="317.5172">TransientPwInterfaceElement</text><line style="stroke:#181818;stroke-width:0.45;" x1="967.5" x2="1159.7766" y1="326.7" y2="326.7"/><line style="stroke:#181818;stroke-width:0.45;" x1="967.5" x2="1159.7766" y1="333.9" y2="333.9"/></g><!--class SteadyStatePwInterfaceElement--><g id="elem_SteadyStatePwInterfaceElement"><rect codeLine="17" fill="#F1F1F1" height="43.2" id="SteadyStatePwInterfaceElement" rx="2.25" ry="2.25" style="stroke:#181818;stroke-width:0.45;" width="210.2019" x="958.5" y="395.1"/><ellipse cx="972" cy="409.5" fill="#ADD1B2" rx="9.9" ry="9.9" style="stroke:#181818;stroke-width:0.9;"/><path d="M974.4891,405.7875 Q974.6297,405.5906 974.7984,405.4922 Q974.9672,405.3938 975.1641,405.3938 Q975.5016,405.3938 975.7125,405.6328 Q975.9234,405.8578 975.9234,406.4063 L975.9234,407.7141 Q975.9234,408.2625 975.7125,408.5016 Q975.5016,408.7406 975.1641,408.7406 Q974.8547,408.7406 974.6719,408.5578 Q974.4891,408.3891 974.3906,407.925 Q974.3484,407.6016 974.1797,407.4328 Q973.8844,407.0953 973.3359,406.8984 Q972.7875,406.7016 972.225,406.7016 Q971.5359,406.7016 970.9594,406.9969 Q970.3969,407.2922 969.9469,407.9672 Q969.5109,408.6422 969.5109,409.5703 L969.5109,410.5547 Q969.5109,411.6656 970.3125,412.4109 Q971.1141,413.1422 972.5484,413.1422 Q973.3922,413.1422 973.9828,412.9172 Q974.3344,412.7766 974.7141,412.3828 Q974.9531,412.1438 975.0797,412.0734 Q975.2203,412.0031 975.4031,412.0031 Q975.6984,412.0031 975.9234,412.2422 Q976.1625,412.4672 976.1625,412.7766 Q976.1625,413.0859 975.8531,413.4516 Q975.4031,413.9719 974.6859,414.2672 Q973.7156,414.675 972.5484,414.675 Q971.1844,414.675 970.1016,414.1125 Q969.2156,413.6625 968.5969,412.7063 Q967.9781,411.7359 967.9781,410.5828 L967.9781,409.5422 Q967.9781,408.3469 968.5266,407.3203 Q969.0891,406.2797 970.0734,405.7313 Q971.0578,405.1688 972.1688,405.1688 Q972.8297,405.1688 973.4063,405.3234 Q973.9969,405.4641 974.4891,405.7875 Z " fill="#000000"/><text fill="#000000" font-family="sans-serif" font-size="12.6" lengthAdjust="spacing" textLength="181.4019" x="984.6" y="414.7172">SteadyStatePwInterfaceElement</text><line style="stroke:#181818;stroke-width:0.45;" x1="959.4" x2="1167.8019" y1="423.9" y2="423.9"/><line style="stroke:#181818;stroke-width:0.45;" x1="959.4" x2="1167.8019" y1="431.1" y2="431.1"/></g><!--class SteadyStatePwPipingElement--><g id="elem_SteadyStatePwPipingElement"><rect codeLine="18" fill="#F1F1F1" height="43.2" id="SteadyStatePwPipingElement" rx="2.25" ry="2.25" style="stroke:#181818;stroke-width:0.45;" width="196.1991" x="965.7" y="492.3"/><ellipse cx="979.2" cy="506.7" fill="#ADD1B2" rx="9.9" ry="9.9" style="stroke:#181818;stroke-width:0.9;"/><path d="M981.6891,502.9875 Q981.8297,502.7906 981.9984,502.6922 Q982.1672,502.5938 982.3641,502.5938 Q982.7016,502.5938 982.9125,502.8328 Q983.1234,503.0578 983.1234,503.6063 L983.1234,504.9141 Q983.1234,505.4625 982.9125,505.7016 Q982.7016,505.9406 982.3641,505.9406 Q982.0547,505.9406 981.8719,505.7578 Q981.6891,505.5891 981.5906,505.125 Q981.5484,504.8016 981.3797,504.6328 Q981.0844,504.2953 980.5359,504.0984 Q979.9875,503.9016 979.425,503.9016 Q978.7359,503.9016 978.1594,504.1969 Q977.5969,504.4922 977.1469,505.1672 Q976.7109,505.8422 976.7109,506.7703 L976.7109,507.7547 Q976.7109,508.8656 977.5125,509.6109 Q978.3141,510.3422 979.7484,510.3422 Q980.5922,510.3422 981.1828,510.1172 Q981.5344,509.9766 981.9141,509.5828 Q982.1531,509.3438 982.2797,509.2734 Q982.4203,509.2031 982.6031,509.2031 Q982.8984,509.2031 983.1234,509.4422 Q983.3625,509.6672 983.3625,509.9766 Q983.3625,510.2859 983.0531,510.6516 Q982.6031,511.1719 981.8859,511.4672 Q980.9156,511.875 979.7484,511.875 Q978.3844,511.875 977.3016,511.3125 Q976.4156,510.8625 975.7969,509.9063 Q975.1781,508.9359 975.1781,507.7828 L975.1781,506.7422 Q975.1781,505.5469 975.7266,504.5203 Q976.2891,503.4797 977.2734,502.9313 Q978.2578,502.3688 979.3688,502.3688 Q980.0297,502.3688 980.6063,502.5234 Q981.1969,502.6641 981.6891,502.9875 Z " fill="#000000"/><text fill="#000000" font-family="sans-serif" font-size="12.6" lengthAdjust="spacing" textLength="167.3991" x="991.8" y="511.9172">SteadyStatePwPipingElement</text><line style="stroke:#181818;stroke-width:0.45;" x1="966.6" x2="1160.9991" y1="521.1" y2="521.1"/><line style="stroke:#181818;stroke-width:0.45;" x1="966.6" x2="1160.9991" y1="528.3" y2="528.3"/></g><!--class UPwSmallStrainLinkInterfaceElement--><g id="elem_UPwSmallStrainLinkInterfaceElement"><rect codeLine="19" fill="#F1F1F1" height="43.2" id="UPwSmallStrainLinkInterfaceElement" rx="2.25" ry="2.25" style="stroke:#181818;stroke-width:0.45;" width="238.1889" x="1192.95" y="297.9"/><ellipse cx="1206.45" cy="312.3" fill="#ADD1B2" rx="9.9" ry="9.9" style="stroke:#181818;stroke-width:0.9;"/><path d="M1208.9391,308.5875 Q1209.0797,308.3906 1209.2484,308.2922 Q1209.4172,308.1938 1209.6141,308.1938 Q1209.9516,308.1938 1210.1625,308.4328 Q1210.3734,308.6578 1210.3734,309.2063 L1210.3734,310.5141 Q1210.3734,311.0625 1210.1625,311.3016 Q1209.9516,311.5406 1209.6141,311.5406 Q1209.3047,311.5406 1209.1219,311.3578 Q1208.9391,311.1891 1208.8406,310.725 Q1208.7984,310.4016 1208.6297,310.2328 Q1208.3344,309.8953 1207.7859,309.6984 Q1207.2375,309.5016 1206.675,309.5016 Q1205.9859,309.5016 1205.4094,309.7969 Q1204.8469,310.0922 1204.3969,310.7672 Q1203.9609,311.4422 1203.9609,312.3703 L1203.9609,313.3547 Q1203.9609,314.4656 1204.7625,315.2109 Q1205.5641,315.9422 1206.9984,315.9422 Q1207.8422,315.9422 1208.4328,315.7172 Q1208.7844,315.5766 1209.1641,315.1828 Q1209.4031,314.9438 1209.5297,314.8734 Q1209.6703,314.8031 1209.8531,314.8031 Q1210.1484,314.8031 1210.3734,315.0422 Q1210.6125,315.2672 1210.6125,315.5766 Q1210.6125,315.8859 1210.3031,316.2516 Q1209.8531,316.7719 1209.1359,317.0672 Q1208.1656,317.475 1206.9984,317.475 Q1205.6344,317.475 1204.5516,316.9125 Q1203.6656,316.4625 1203.0469,315.5063 Q1202.4281,314.5359 1202.4281,313.3828 L1202.4281,312.3422 Q1202.4281,311.1469 1202.9766,310.1203 Q1203.5391,309.0797 1204.5234,308.5313 Q1205.5078,307.9688 1206.6188,307.9688 Q1207.2797,307.9688 1207.8563,308.1234 Q1208.4469,308.2641 1208.9391,308.5875 Z " fill="#000000"/><text fill="#000000" font-family="sans-serif" font-size="12.6" lengthAdjust="spacing" textLength="209.3889" x="1219.05" y="317.5172">UPwSmallStrainLinkInterfaceElement</text><line style="stroke:#181818;stroke-width:0.45;" x1="1193.85" x2="1430.2389" y1="326.7" y2="326.7"/><line style="stroke:#181818;stroke-width:0.45;" x1="1193.85" x2="1430.2389" y1="333.9" y2="333.9"/></g><!--class SmallStrainUPwDiffOrderElement--><g id="elem_SmallStrainUPwDiffOrderElement"><rect codeLine="33" fill="#F1F1F1" height="43.2" id="SmallStrainUPwDiffOrderElement" rx="2.25" ry="2.25" style="stroke:#181818;stroke-width:0.45;" width="217.154" x="1345.05" y="200.7"/><ellipse cx="1358.55" cy="215.1" fill="#ADD1B2" rx="9.9" ry="9.9" style="stroke:#181818;stroke-width:0.9;"/><path d="M1361.0391,211.3875 Q1361.1797,211.1906 1361.3484,211.0922 Q1361.5172,210.9938 1361.7141,210.9938 Q1362.0516,210.9938 1362.2625,211.2328 Q1362.4734,211.4578 1362.4734,212.0063 L1362.4734,213.3141 Q1362.4734,213.8625 1362.2625,214.1016 Q1362.0516,214.3406 1361.7141,214.3406 Q1361.4047,214.3406 1361.2219,214.1578 Q1361.0391,213.9891 1360.9406,213.525 Q1360.8984,213.2016 1360.7297,213.0328 Q1360.4344,212.6953 1359.8859,212.4984 Q1359.3375,212.3016 1358.775,212.3016 Q1358.0859,212.3016 1357.5094,212.5969 Q1356.9469,212.8922 1356.4969,213.5672 Q1356.0609,214.2422 1356.0609,215.1703 L1356.0609,216.1547 Q1356.0609,217.2656 1356.8625,218.0109 Q1357.6641,218.7422 1359.0984,218.7422 Q1359.9422,218.7422 1360.5328,218.5172 Q1360.8844,218.3766 1361.2641,217.9828 Q1361.5031,217.7438 1361.6297,217.6734 Q1361.7703,217.6031 1361.9531,217.6031 Q1362.2484,217.6031 1362.4734,217.8422 Q1362.7125,218.0672 1362.7125,218.3766 Q1362.7125,218.6859 1362.4031,219.0516 Q1361.9531,219.5719 1361.2359,219.8672 Q1360.2656,220.275 1359.0984,220.275 Q1357.7344,220.275 1356.6516,219.7125 Q1355.7656,219.2625 1355.1469,218.3063 Q1354.5281,217.3359 1354.5281,216.1828 L1354.5281,215.1422 Q1354.5281,213.9469 1355.0766,212.9203 Q1355.6391,211.8797 1356.6234,211.3313 Q1357.6078,210.7688 1358.7188,210.7688 Q1359.3797,210.7688 1359.9563,210.9234 Q1360.5469,211.0641 1361.0391,211.3875 Z " fill="#000000"/><text fill="#000000" font-family="sans-serif" font-size="12.6" lengthAdjust="spacing" textLength="188.354" x="1371.15" y="220.3172">SmallStrainUPwDiffOrderElement</text><line style="stroke:#181818;stroke-width:0.45;" x1="1345.95" x2="1561.304" y1="229.5" y2="229.5"/><line style="stroke:#181818;stroke-width:0.45;" x1="1345.95" x2="1561.304" y1="236.7" y2="236.7"/></g><!--class UpdatedLagrangianUPwDiffOrderElement--><g id="elem_UpdatedLagrangianUPwDiffOrderElement"><rect codeLine="34" fill="#F1F1F1" height="43.2" id="UpdatedLagrangianUPwDiffOrderElement" rx="2.25" ry="2.25" style="stroke:#181818;stroke-width:0.45;" width="263.4258" x="1462.95" y="297.9"/><ellipse cx="1476.45" cy="312.3" fill="#ADD1B2" rx="9.9" ry="9.9" style="stroke:#181818;stroke-width:0.9;"/><path d="M1478.9391,308.5875 Q1479.0797,308.3906 1479.2484,308.2922 Q1479.4172,308.1938 1479.6141,308.1938 Q1479.9516,308.1938 1480.1625,308.4328 Q1480.3734,308.6578 1480.3734,309.2063 L1480.3734,310.5141 Q1480.3734,311.0625 1480.1625,311.3016 Q1479.9516,311.5406 1479.6141,311.5406 Q1479.3047,311.5406 1479.1219,311.3578 Q1478.9391,311.1891 1478.8406,310.725 Q1478.7984,310.4016 1478.6297,310.2328 Q1478.3344,309.8953 1477.7859,309.6984 Q1477.2375,309.5016 1476.675,309.5016 Q1475.9859,309.5016 1475.4094,309.7969 Q1474.8469,310.0922 1474.3969,310.7672 Q1473.9609,311.4422 1473.9609,312.3703 L1473.9609,313.3547 Q1473.9609,314.4656 1474.7625,315.2109 Q1475.5641,315.9422 1476.9984,315.9422 Q1477.8422,315.9422 1478.4328,315.7172 Q1478.7844,315.5766 1479.1641,315.1828 Q1479.4031,314.9438 1479.5297,314.8734 Q1479.6703,314.8031 1479.8531,314.8031 Q1480.1484,314.8031 1480.3734,315.0422 Q1480.6125,315.2672 1480.6125,315.5766 Q1480.6125,315.8859 1480.3031,316.2516 Q1479.8531,316.7719 1479.1359,317.0672 Q1478.1656,317.475 1476.9984,317.475 Q1475.6344,317.475 1474.5516,316.9125 Q1473.6656,316.4625 1473.0469,315.5063 Q1472.4281,314.5359 1472.4281,313.3828 L1472.4281,312.3422 Q1472.4281,311.1469 1472.9766,310.1203 Q1473.5391,309.0797 1474.5234,308.5313 Q1475.5078,307.9688 1476.6188,307.9688 Q1477.2797,307.9688 1477.8563,308.1234 Q1478.4469,308.2641 1478.9391,308.5875 Z " fill="#000000"/><text fill="#000000" font-family="sans-serif" font-size="12.6" lengthAdjust="spacing" textLength="234.6258" x="1489.05" y="317.5172">UpdatedLagrangianUPwDiffOrderElement</text><line style="stroke:#181818;stroke-width:0.45;" x1="1463.85" x2="1725.4758" y1="326.7" y2="326.7"/><line style="stroke:#181818;stroke-width:0.45;" x1="1463.85" x2="1725.4758" y1="333.9" y2="333.9"/></g><!--class LineInterfaceElement--><g id="elem_LineInterfaceElement"><rect codeLine="45" fill="#F1F1F1" height="43.2" id="LineInterfaceElement" rx="2.25" ry="2.25" style="stroke:#181818;stroke-width:0.45;" width="147.8725" x="1232.1" y="103.5"/><ellipse cx="1245.6" cy="117.9" fill="#ADD1B2" rx="9.9" ry="9.9" style="stroke:#181818;stroke-width:0.9;"/><path d="M1248.0891,114.1875 Q1248.2297,113.9906 1248.3984,113.8922 Q1248.5672,113.7938 1248.7641,113.7938 Q1249.1016,113.7938 1249.3125,114.0328 Q1249.5234,114.2578 1249.5234,114.8063 L1249.5234,116.1141 Q1249.5234,116.6625 1249.3125,116.9016 Q1249.1016,117.1406 1248.7641,117.1406 Q1248.4547,117.1406 1248.2719,116.9578 Q1248.0891,116.7891 1247.9906,116.325 Q1247.9484,116.0016 1247.7797,115.8328 Q1247.4844,115.4953 1246.9359,115.2984 Q1246.3875,115.1016 1245.825,115.1016 Q1245.1359,115.1016 1244.5594,115.3969 Q1243.9969,115.6922 1243.5469,116.3672 Q1243.1109,117.0422 1243.1109,117.9703 L1243.1109,118.9547 Q1243.1109,120.0656 1243.9125,120.8109 Q1244.7141,121.5422 1246.1484,121.5422 Q1246.9922,121.5422 1247.5828,121.3172 Q1247.9344,121.1766 1248.3141,120.7828 Q1248.5531,120.5438 1248.6797,120.4734 Q1248.8203,120.4031 1249.0031,120.4031 Q1249.2984,120.4031 1249.5234,120.6422 Q1249.7625,120.8672 1249.7625,121.1766 Q1249.7625,121.4859 1249.4531,121.8516 Q1249.0031,122.3719 1248.2859,122.6672 Q1247.3156,123.075 1246.1484,123.075 Q1244.7844,123.075 1243.7016,122.5125 Q1242.8156,122.0625 1242.1969,121.1063 Q1241.5781,120.1359 1241.5781,118.9828 L1241.5781,117.9422 Q1241.5781,116.7469 1242.1266,115.7203 Q1242.6891,114.6797 1243.6734,114.1313 Q1244.6578,113.5688 1245.7688,113.5688 Q1246.4297,113.5688 1247.0063,113.7234 Q1247.5969,113.8641 1248.0891,114.1875 Z " fill="#000000"/><text fill="#000000" font-family="sans-serif" font-size="12.6" lengthAdjust="spacing" textLength="119.0725" x="1258.2" y="123.1172">LineInterfaceElement</text><line style="stroke:#181818;stroke-width:0.45;" x1="1233" x2="1379.0725" y1="132.3" y2="132.3"/><line style="stroke:#181818;stroke-width:0.45;" x1="1233" x2="1379.0725" y1="139.5" y2="139.5"/></g><!--class PwElement--><g id="elem_PwElement"><rect codeLine="49" fill="#F1F1F1" height="43.2" id="PwElement" rx="2.25" ry="2.25" style="stroke:#181818;stroke-width:0.45;" width="92.526" x="1411.65" y="103.5"/><ellipse cx="1425.15" cy="117.9" fill="#ADD1B2" rx="9.9" ry="9.9" style="stroke:#181818;stroke-width:0.9;"/><path d="M1427.6391,114.1875 Q1427.7797,113.9906 1427.9484,113.8922 Q1428.1172,113.7938 1428.3141,113.7938 Q1428.6516,113.7938 1428.8625,114.0328 Q1429.0734,114.2578 1429.0734,114.8063 L1429.0734,116.1141 Q1429.0734,116.6625 1428.8625,116.9016 Q1428.6516,117.1406 1428.3141,117.1406 Q1428.0047,117.1406 1427.8219,116.9578 Q1427.6391,116.7891 1427.5406,116.325 Q1427.4984,116.0016 1427.3297,115.8328 Q1427.0344,115.4953 1426.4859,115.2984 Q1425.9375,115.1016 1425.375,115.1016 Q1424.6859,115.1016 1424.1094,115.3969 Q1423.5469,115.6922 1423.0969,116.3672 Q1422.6609,117.0422 1422.6609,117.9703 L1422.6609,118.9547 Q1422.6609,120.0656 1423.4625,120.8109 Q1424.2641,121.5422 1425.6984,121.5422 Q1426.5422,121.5422 1427.1328,121.3172 Q1427.4844,121.1766 1427.8641,120.7828 Q1428.1031,120.5438 1428.2297,120.4734 Q1428.3703,120.4031 1428.5531,120.4031 Q1428.8484,120.4031 1429.0734,120.6422 Q1429.3125,120.8672 1429.3125,121.1766 Q1429.3125,121.4859 1429.0031,121.8516 Q1428.5531,122.3719 1427.8359,122.6672 Q1426.8656,123.075 1425.6984,123.075 Q1424.3344,123.075 1423.2516,122.5125 Q1422.3656,122.0625 1421.7469,121.1063 Q1421.1281,120.1359 1421.1281,118.9828 L1421.1281,117.9422 Q1421.1281,116.7469 1421.6766,115.7203 Q1422.2391,114.6797 1423.2234,114.1313 Q1424.2078,113.5688 1425.3188,113.5688 Q1425.9797,113.5688 1426.5563,113.7234 Q1427.1469,113.8641 1427.6391,114.1875 Z " fill="#000000"/><text fill="#000000" font-family="sans-serif" font-size="12.6" lengthAdjust="spacing" textLength="63.726" x="1437.75" y="123.1172">PwElement</text><line style="stroke:#181818;stroke-width:0.45;" x1="1412.55" x2="1503.276" y1="132.3" y2="132.3"/><line style="stroke:#181818;stroke-width:0.45;" x1="1412.55" x2="1503.276" y1="139.5" y2="139.5"/></g><!--class GeoSteadyStatePwPipingElement--><g id="elem_GeoSteadyStatePwPipingElement"><rect codeLine="50" fill="#F1F1F1" height="43.2" id="GeoSteadyStatePwPipingElement" rx="2.25" ry="2.25" style="stroke:#181818;stroke-width:0.45;" width="220.0148" x="1536.3" y="103.5"/><ellipse cx="1549.8" cy="117.9" fill="#ADD1B2" rx="9.9" ry="9.9" style="stroke:#181818;stroke-width:0.9;"/><path d="M1552.2891,114.1875 Q1552.4297,113.9906 1552.5984,113.8922 Q1552.7672,113.7938 1552.9641,113.7938 Q1553.3016,113.7938 1553.5125,114.0328 Q1553.7234,114.2578 1553.7234,114.8063 L1553.7234,116.1141 Q1553.7234,116.6625 1553.5125,116.9016 Q1553.3016,117.1406 1552.9641,117.1406 Q1552.6547,117.1406 1552.4719,116.9578 Q1552.2891,116.7891 1552.1906,116.325 Q1552.1484,116.0016 1551.9797,115.8328 Q1551.6844,115.4953 1551.1359,115.2984 Q1550.5875,115.1016 1550.025,115.1016 Q1549.3359,115.1016 1548.7594,115.3969 Q1548.1969,115.6922 1547.7469,116.3672 Q1547.3109,117.0422 1547.3109,117.9703 L1547.3109,118.9547 Q1547.3109,120.0656 1548.1125,120.8109 Q1548.9141,121.5422 1550.3484,121.5422 Q1551.1922,121.5422 1551.7828,121.3172 Q1552.1344,121.1766 1552.5141,120.7828 Q1552.7531,120.5438 1552.8797,120.4734 Q1553.0203,120.4031 1553.2031,120.4031 Q1553.4984,120.4031 1553.7234,120.6422 Q1553.9625,120.8672 1553.9625,121.1766 Q1553.9625,121.4859 1553.6531,121.8516 Q1553.2031,122.3719 1552.4859,122.6672 Q1551.5156,123.075 1550.3484,123.075 Q1548.9844,123.075 1547.9016,122.5125 Q1547.0156,122.0625 1546.3969,121.1063 Q1545.7781,120.1359 1545.7781,118.9828 L1545.7781,117.9422 Q1545.7781,116.7469 1546.3266,115.7203 Q1546.8891,114.6797 1547.8734,114.1313 Q1548.8578,113.5688 1549.9688,113.5688 Q1550.6297,113.5688 1551.2063,113.7234 Q1551.7969,113.8641 1552.2891,114.1875 Z " fill="#000000"/><text fill="#000000" font-family="sans-serif" font-size="12.6" lengthAdjust="spacing" textLength="191.2148" x="1562.4" y="123.1172">GeoSteadyStatePwPipingElement</text><line style="stroke:#181818;stroke-width:0.45;" x1="1537.2" x2="1755.4148" y1="132.3" y2="132.3"/><line style="stroke:#181818;stroke-width:0.45;" x1="1537.2" x2="1755.4148" y1="139.5" y2="139.5"/></g><!--class TransientThermalElement--><g id="elem_TransientThermalElement"><rect codeLine="56" fill="#F1F1F1" height="43.2" id="TransientThermalElement" rx="2.25" ry="2.25" style="stroke:#181818;stroke-width:0.45;" width="173.7554" x="1787.85" y="103.5"/><ellipse cx="1801.35" cy="117.9" fill="#ADD1B2" rx="9.9" ry="9.9" style="stroke:#181818;stroke-width:0.9;"/><path d="M1803.8391,114.1875 Q1803.9797,113.9906 1804.1484,113.8922 Q1804.3172,113.7938 1804.5141,113.7938 Q1804.8516,113.7938 1805.0625,114.0328 Q1805.2734,114.2578 1805.2734,114.8063 L1805.2734,116.1141 Q1805.2734,116.6625 1805.0625,116.9016 Q1804.8516,117.1406 1804.5141,117.1406 Q1804.2047,117.1406 1804.0219,116.9578 Q1803.8391,116.7891 1803.7406,116.325 Q1803.6984,116.0016 1803.5297,115.8328 Q1803.2344,115.4953 1802.6859,115.2984 Q1802.1375,115.1016 1801.575,115.1016 Q1800.8859,115.1016 1800.3094,115.3969 Q1799.7469,115.6922 1799.2969,116.3672 Q1798.8609,117.0422 1798.8609,117.9703 L1798.8609,118.9547 Q1798.8609,120.0656 1799.6625,120.8109 Q1800.4641,121.5422 1801.8984,121.5422 Q1802.7422,121.5422 1803.3328,121.3172 Q1803.6844,121.1766 1804.0641,120.7828 Q1804.3031,120.5438 1804.4297,120.4734 Q1804.5703,120.4031 1804.7531,120.4031 Q1805.0484,120.4031 1805.2734,120.6422 Q1805.5125,120.8672 1805.5125,121.1766 Q1805.5125,121.4859 1805.2031,121.8516 Q1804.7531,122.3719 1804.0359,122.6672 Q1803.0656,123.075 1801.8984,123.075 Q1800.5344,123.075 1799.4516,122.5125 Q1798.5656,122.0625 1797.9469,121.1063 Q1797.3281,120.1359 1797.3281,118.9828 L1797.3281,117.9422 Q1797.3281,116.7469 1797.8766,115.7203 Q1798.4391,114.6797 1799.4234,114.1313 Q1800.4078,113.5688 1801.5188,113.5688 Q1802.1797,113.5688 1802.7563,113.7234 Q1803.3469,113.8641 1803.8391,114.1875 Z " fill="#000000"/><text fill="#000000" font-family="sans-serif" font-size="12.6" lengthAdjust="spacing" textLength="144.9554" x="1813.95" y="123.1172">TransientThermalElement</text><line style="stroke:#181818;stroke-width:0.45;" x1="1788.75" x2="1960.7054" y1="132.3" y2="132.3"/><line style="stroke:#181818;stroke-width:0.45;" x1="1788.75" x2="1960.7054" y1="139.5" y2="139.5"/></g><!--class CrBeamElement2D2N_Structural--><g id="elem_CrBeamElement2D2N_Structural"><rect codeLine="61" fill="#F1F1F1" height="43.2" id="CrBeamElement2D2N_Structural" rx="2.25" ry="2.25" style="stroke:#181818;stroke-width:0.45;" width="214.3731" x="1993.5" y="103.5"/><ellipse cx="2007" cy="117.9" fill="#ADD1B2" rx="9.9" ry="9.9" style="stroke:#181818;stroke-width:0.9;"/><path d="M2009.4891,114.1875 Q2009.6297,113.9906 2009.7984,113.8922 Q2009.9672,113.7938 2010.1641,113.7938 Q2010.5016,113.7938 2010.7125,114.0328 Q2010.9234,114.2578 2010.9234,114.8063 L2010.9234,116.1141 Q2010.9234,116.6625 2010.7125,116.9016 Q2010.5016,117.1406 2010.1641,117.1406 Q2009.8547,117.1406 2009.6719,116.9578 Q2009.4891,116.7891 2009.3906,116.325 Q2009.3484,116.0016 2009.1797,115.8328 Q2008.8844,115.4953 2008.3359,115.2984 Q2007.7875,115.1016 2007.225,115.1016 Q2006.5359,115.1016 2005.9594,115.3969 Q2005.3969,115.6922 2004.9469,116.3672 Q2004.5109,117.0422 2004.5109,117.9703 L2004.5109,118.9547 Q2004.5109,120.0656 2005.3125,120.8109 Q2006.1141,121.5422 2007.5484,121.5422 Q2008.3922,121.5422 2008.9828,121.3172 Q2009.3344,121.1766 2009.7141,120.7828 Q2009.9531,120.5438 2010.0797,120.4734 Q2010.2203,120.4031 2010.4031,120.4031 Q2010.6984,120.4031 2010.9234,120.6422 Q2011.1625,120.8672 2011.1625,121.1766 Q2011.1625,121.4859 2010.8531,121.8516 Q2010.4031,122.3719 2009.6859,122.6672 Q2008.7156,123.075 2007.5484,123.075 Q2006.1844,123.075 2005.1016,122.5125 Q2004.2156,122.0625 2003.5969,121.1063 Q2002.9781,120.1359 2002.9781,118.9828 L2002.9781,117.9422 Q2002.9781,116.7469 2003.5266,115.7203 Q2004.0891,114.6797 2005.0734,114.1313 Q2006.0578,113.5688 2007.1688,113.5688 Q2007.8297,113.5688 2008.4063,113.7234 Q2008.9969,113.8641 2009.4891,114.1875 Z " fill="#000000"/><text fill="#000000" font-family="sans-serif" font-size="12.6" lengthAdjust="spacing" textLength="185.5731" x="2019.6" y="123.1172">CrBeamElement2D2N_Structural</text><line style="stroke:#181818;stroke-width:0.45;" x1="1994.4" x2="2206.9731" y1="132.3" y2="132.3"/><line style="stroke:#181818;stroke-width:0.45;" x1="1994.4" x2="2206.9731" y1="139.5" y2="139.5"/></g><!--class CrBeamElementLinear2D2N_Structural--><g id="elem_CrBeamElementLinear2D2N_Structural"><rect codeLine="62" fill="#F1F1F1" height="43.2" id="CrBeamElementLinear2D2N_Structural" rx="2.25" ry="2.25" style="stroke:#181818;stroke-width:0.45;" width="249.3984" x="1975.95" y="200.7"/><ellipse cx="1989.45" cy="215.1" fill="#ADD1B2" rx="9.9" ry="9.9" style="stroke:#181818;stroke-width:0.9;"/><path d="M1991.9391,211.3875 Q1992.0797,211.1906 1992.2484,211.0922 Q1992.4172,210.9938 1992.6141,210.9938 Q1992.9516,210.9938 1993.1625,211.2328 Q1993.3734,211.4578 1993.3734,212.0063 L1993.3734,213.3141 Q1993.3734,213.8625 1993.1625,214.1016 Q1992.9516,214.3406 1992.6141,214.3406 Q1992.3047,214.3406 1992.1219,214.1578 Q1991.9391,213.9891 1991.8406,213.525 Q1991.7984,213.2016 1991.6297,213.0328 Q1991.3344,212.6953 1990.7859,212.4984 Q1990.2375,212.3016 1989.675,212.3016 Q1988.9859,212.3016 1988.4094,212.5969 Q1987.8469,212.8922 1987.3969,213.5672 Q1986.9609,214.2422 1986.9609,215.1703 L1986.9609,216.1547 Q1986.9609,217.2656 1987.7625,218.0109 Q1988.5641,218.7422 1989.9984,218.7422 Q1990.8422,218.7422 1991.4328,218.5172 Q1991.7844,218.3766 1992.1641,217.9828 Q1992.4031,217.7438 1992.5297,217.6734 Q1992.6703,217.6031 1992.8531,217.6031 Q1993.1484,217.6031 1993.3734,217.8422 Q1993.6125,218.0672 1993.6125,218.3766 Q1993.6125,218.6859 1993.3031,219.0516 Q1992.8531,219.5719 1992.1359,219.8672 Q1991.1656,220.275 1989.9984,220.275 Q1988.6344,220.275 1987.5516,219.7125 Q1986.6656,219.2625 1986.0469,218.3063 Q1985.4281,217.3359 1985.4281,216.1828 L1985.4281,215.1422 Q1985.4281,213.9469 1985.9766,212.9203 Q1986.5391,211.8797 1987.5234,211.3313 Q1988.5078,210.7688 1989.6188,210.7688 Q1990.2797,210.7688 1990.8563,210.9234 Q1991.4469,211.0641 1991.9391,211.3875 Z " fill="#000000"/><text fill="#000000" font-family="sans-serif" font-size="12.6" lengthAdjust="spacing" textLength="220.5984" x="2002.05" y="220.3172">CrBeamElementLinear2D2N_Structural</text><line style="stroke:#181818;stroke-width:0.45;" x1="1976.85" x2="2224.4484" y1="229.5" y2="229.5"/><line style="stroke:#181818;stroke-width:0.45;" x1="1976.85" x2="2224.4484" y1="236.7" y2="236.7"/></g><!--class GeoCrBeamElementLinear2D2N--><g id="elem_GeoCrBeamElementLinear2D2N"><rect codeLine="63" fill="#F1F1F1" height="43.2" id="GeoCrBeamElementLinear2D2N" rx="2.25" ry="2.25" style="stroke:#181818;stroke-width:0.45;" width="212.2875" x="1994.4" y="297.9"/><ellipse cx="2007.9" cy="312.3" fill="#ADD1B2" rx="9.9" ry="9.9" style="stroke:#181818;stroke-width:0.9;"/><path d="M2010.3891,308.5875 Q2010.5297,308.3906 2010.6984,308.2922 Q2010.8672,308.1938 2011.0641,308.1938 Q2011.4016,308.1938 2011.6125,308.4328 Q2011.8234,308.6578 2011.8234,309.2063 L2011.8234,310.5141 Q2011.8234,311.0625 2011.6125,311.3016 Q2011.4016,311.5406 2011.0641,311.5406 Q2010.7547,311.5406 2010.5719,311.3578 Q2010.3891,311.1891 2010.2906,310.725 Q2010.2484,310.4016 2010.0797,310.2328 Q2009.7844,309.8953 2009.2359,309.6984 Q2008.6875,309.5016 2008.125,309.5016 Q2007.4359,309.5016 2006.8594,309.7969 Q2006.2969,310.0922 2005.8469,310.7672 Q2005.4109,311.4422 2005.4109,312.3703 L2005.4109,313.3547 Q2005.4109,314.4656 2006.2125,315.2109 Q2007.0141,315.9422 2008.4484,315.9422 Q2009.2922,315.9422 2009.8828,315.7172 Q2010.2344,315.5766 2010.6141,315.1828 Q2010.8531,314.9438 2010.9797,314.8734 Q2011.1203,314.8031 2011.3031,314.8031 Q2011.5984,314.8031 2011.8234,315.0422 Q2012.0625,315.2672 2012.0625,315.5766 Q2012.0625,315.8859 2011.7531,316.2516 Q2011.3031,316.7719 2010.5859,317.0672 Q2009.6156,317.475 2008.4484,317.475 Q2007.0844,317.475 2006.0016,316.9125 Q2005.1156,316.4625 2004.4969,315.5063 Q2003.8781,314.5359 2003.8781,313.3828 L2003.8781,312.3422 Q2003.8781,311.1469 2004.4266,310.1203 Q2004.9891,309.0797 2005.9734,308.5313 Q2006.9578,307.9688 2008.0688,307.9688 Q2008.7297,307.9688 2009.3063,308.1234 Q2009.8969,308.2641 2010.3891,308.5875 Z " fill="#000000"/><text fill="#000000" font-family="sans-serif" font-size="12.6" lengthAdjust="spacing" textLength="183.4875" x="2020.5" y="317.5172">GeoCrBeamElementLinear2D2N</text><line style="stroke:#181818;stroke-width:0.45;" x1="1995.3" x2="2205.7875" y1="326.7" y2="326.7"/><line style="stroke:#181818;stroke-width:0.45;" x1="1995.3" x2="2205.7875" y1="333.9" y2="333.9"/></g><!--reverse link Element to UPwBaseElement--><g id="link_Element_UPwBaseElement"><path codeLine="21" d="M1498.1632,40.1434 C1435.9912,53.4004 1323.765,77.724 1215.9,103.5 C1210.815,104.715 1205.559,105.993 1200.285,107.307 " fill="none" id="Element-backto-UPwBaseElement" style="stroke:#181818;stroke-width:0.9;"/><polygon fill="none" points="1514.007,36.765,1497.0371,34.8621,1499.2893,45.4247,1514.007,36.765" style="stroke:#181818;stroke-width:0.9;"/></g><!--reverse link UPwBaseElement to UPwSmallStrainElement--><g id="link_UPwBaseElement_UPwSmallStrainElement"><path codeLine="22" d="M1053.6007,140.4342 C955.8607,157.7952 787.59,187.668 680.508,206.676 " fill="none" id="UPwBaseElement-backto-UPwSmallStrainElement" style="stroke:#181818;stroke-width:0.9;"/><polygon fill="none" points="1069.551,137.601,1052.6563,135.1174,1054.5451,145.7509,1069.551,137.601" style="stroke:#181818;stroke-width:0.9;"/></g><!--reverse link UPwSmallStrainElement to DrainedUPwSmallStrainElement--><g id="link_UPwSmallStrainElement_DrainedUPwSmallStrainElement"><path codeLine="24" d="M498.7055,242.6111 C416.5625,258.7391 306.396,280.359 217.17,297.873 " fill="none" id="UPwSmallStrainElement-backto-DrainedUPwSmallStrainElement" style="stroke:#181818;stroke-width:0.9;"/><polygon fill="none" points="514.602,239.49,497.6651,237.3123,499.7459,247.91,514.602,239.49" style="stroke:#181818;stroke-width:0.9;"/></g><!--reverse link UPwSmallStrainElement to UndrainedUPwSmallStrainElement--><g id="link_UPwSmallStrainElement_UndrainedUPwSmallStrainElement"><path codeLine="25" d="M531.2118,249.9566 C491.6478,265.9046 452.214,281.799 412.569,297.774 " fill="none" id="UPwSmallStrainElement-backto-UndrainedUPwSmallStrainElement" style="stroke:#181818;stroke-width:0.9;"/><polygon fill="none" points="546.237,243.9,529.1929,244.9482,533.2306,254.965,546.237,243.9" style="stroke:#181818;stroke-width:0.9;"/></g><!--reverse link UPwSmallStrainElement to UPwSmallStrainFICElement--><g id="link_UPwSmallStrainElement_UPwSmallStrainFICElement"><path codeLine="26" d="M597.6,260.1 C597.6,275.994 597.6,281.646 597.6,297.612 " fill="none" id="UPwSmallStrainElement-backto-UPwSmallStrainFICElement" style="stroke:#181818;stroke-width:0.9;"/><polygon fill="none" points="597.6,243.9,592.2,260.1,603,260.1,597.6,243.9" style="stroke:#181818;stroke-width:0.9;"/></g><!--reverse link UPwSmallStrainFICElement to UPwUpdatedLagrangianFICElement--><g id="link_UPwSmallStrainFICElement_UPwUpdatedLagrangianFICElement"><path codeLine="27" d="M597.6,357.3 C597.6,373.194 597.6,378.846 597.6,394.812 " fill="none" id="UPwSmallStrainFICElement-backto-UPwUpdatedLagrangianFICElement" style="stroke:#181818;stroke-width:0.9;"/><polygon fill="none" points="597.6,341.1,592.2,357.3,603,357.3,597.6,341.1" style="stroke:#181818;stroke-width:0.9;"/></g><!--reverse link UPwSmallStrainElement to UPwUpdatedLagrangianElement--><g id="link_UPwSmallStrainElement_UPwUpdatedLagrangianElement"><path codeLine="28" d="M662.769,250.0773 C701.433,266.0253 739.674,281.799 778.41,297.774 " fill="none" id="UPwSmallStrainElement-backto-UPwUpdatedLagrangianElement" style="stroke:#181818;stroke-width:0.9;"/><polygon fill="none" points="647.793,243.9,660.7099,255.0693,664.8281,245.0853,647.793,243.9" style="stroke:#181818;stroke-width:0.9;"/></g><!--reverse link UPwBaseElement to SmallStrainUPwDiffOrderElement--><g id="link_UPwBaseElement_SmallStrainUPwDiffOrderElement"><path codeLine="36" d="M1216.0472,150.2941 C1269.6062,166.3321 1329.543,184.284 1384.101,200.619 " fill="none" id="UPwBaseElement-backto-SmallStrainUPwDiffOrderElement" style="stroke:#181818;stroke-width:0.9;"/><polygon fill="none" points="1200.528,145.647,1214.4981,155.4672,1217.5962,145.1211,1200.528,145.647" style="stroke:#181818;stroke-width:0.9;"/></g><!--reverse link SmallStrainUPwDiffOrderElement to UpdatedLagrangianUPwDiffOrderElement--><g id="link_SmallStrainUPwDiffOrderElement_UpdatedLagrangianUPwDiffOrderElement"><path codeLine="37" d="M1497.5885,252.9663 C1521.2045,268.9143 1540.287,281.799 1563.957,297.774 " fill="none" id="SmallStrainUPwDiffOrderElement-backto-UpdatedLagrangianUPwDiffOrderElement" style="stroke:#181818;stroke-width:0.9;"/><polygon fill="none" points="1484.163,243.9,1494.5664,257.4414,1500.6105,248.4911,1484.163,243.9" style="stroke:#181818;stroke-width:0.9;"/></g><!--reverse link UPwBaseElement to UPwSmallStrainInterfaceElement--><g id="link_UPwBaseElement_UPwSmallStrainInterfaceElement"><path codeLine="39" d="M1134.9,162.9 C1134.9,178.794 1134.9,184.446 1134.9,200.412 " fill="none" id="UPwBaseElement-backto-UPwSmallStrainInterfaceElement" style="stroke:#181818;stroke-width:0.9;"/><polygon fill="none" points="1134.9,146.7,1129.5,162.9,1140.3,162.9,1134.9,146.7" style="stroke:#181818;stroke-width:0.9;"/></g><!--reverse link UPwSmallStrainInterfaceElement to TransientPwInterfaceElement--><g id="link_UPwSmallStrainInterfaceElement_TransientPwInterfaceElement"><path codeLine="40" d="M1109.7941,256.8899 C1097.9501,272.7839 1091.34,281.646 1079.442,297.612 " fill="none" id="UPwSmallStrainInterfaceElement-backto-TransientPwInterfaceElement" style="stroke:#181818;stroke-width:0.9;"/><polygon fill="none" points="1119.474,243.9,1105.4641,253.6633,1114.124,260.1166,1119.474,243.9" style="stroke:#181818;stroke-width:0.9;"/></g><!--reverse link TransientPwInterfaceElement to SteadyStatePwInterfaceElement--><g id="link_TransientPwInterfaceElement_SteadyStatePwInterfaceElement"><path codeLine="41" d="M1063.8,357.3 C1063.8,373.194 1063.8,378.846 1063.8,394.812 " fill="none" id="TransientPwInterfaceElement-backto-SteadyStatePwInterfaceElement" style="stroke:#181818;stroke-width:0.9;"/><polygon fill="none" points="1063.8,341.1,1058.4,357.3,1069.2,357.3,1063.8,341.1" style="stroke:#181818;stroke-width:0.9;"/></g><!--reverse link SteadyStatePwInterfaceElement to SteadyStatePwPipingElement--><g id="link_SteadyStatePwInterfaceElement_SteadyStatePwPipingElement"><path codeLine="42" d="M1063.8,454.5 C1063.8,470.394 1063.8,476.046 1063.8,492.012 " fill="none" id="SteadyStatePwInterfaceElement-backto-SteadyStatePwPipingElement" style="stroke:#181818;stroke-width:0.9;"/><polygon fill="none" points="1063.8,438.3,1058.4,454.5,1069.2,454.5,1063.8,438.3" style="stroke:#181818;stroke-width:0.9;"/></g><!--reverse link UPwSmallStrainInterfaceElement to UPwSmallStrainLinkInterfaceElement--><g id="link_UPwSmallStrainInterfaceElement_UPwSmallStrainLinkInterfaceElement"><path codeLine="43" d="M1187.6407,251.5765 C1217.2777,267.5245 1243.8,281.799 1273.5,297.774 " fill="none" id="UPwSmallStrainInterfaceElement-backto-UPwSmallStrainLinkInterfaceElement" style="stroke:#181818;stroke-width:0.9;"/><polygon fill="none" points="1173.375,243.9,1185.0819,256.3318,1190.1996,246.8213,1173.375,243.9" style="stroke:#181818;stroke-width:0.9;"/></g><!--reverse link Element to LineInterfaceElement--><g id="link_Element_LineInterfaceElement"><path codeLine="46" d="M1498.9148,49.2536 C1457.6408,65.2826 1406.142,85.275 1359.423,103.419 " fill="none" id="Element-backto-LineInterfaceElement" style="stroke:#181818;stroke-width:0.9;"/><polygon fill="none" points="1514.016,43.389,1496.9599,44.2199,1500.8697,54.2874,1514.016,43.389" style="stroke:#181818;stroke-width:0.9;"/></g><!--reverse link Element to PwElement--><g id="link_Element_PwElement"><path codeLine="52" d="M1519.9437,61.0659 C1504.3557,76.9599 1494.252,87.246 1478.592,103.212 " fill="none" id="Element-backto-PwElement" style="stroke:#181818;stroke-width:0.9;"/><polygon fill="none" points="1531.287,49.5,1516.0884,57.2848,1523.7991,64.847,1531.287,49.5" style="stroke:#181818;stroke-width:0.9;"/></g><!--reverse link Element to GeoSteadyStatePwPipingElement--><g id="link_Element_GeoSteadyStatePwPipingElement"><path codeLine="53" d="M1583.5016,61.0104 C1599.2426,76.9044 1609.497,87.246 1625.31,103.212 " fill="none" id="Element-backto-GeoSteadyStatePwPipingElement" style="stroke:#181818;stroke-width:0.9;"/><polygon fill="none" points="1572.102,49.5,1579.6648,64.8103,1587.3384,57.2105,1572.102,49.5" style="stroke:#181818;stroke-width:0.9;"/></g><!--reverse link Element to TransientThermalElement--><g id="link_Element_TransientThermalElement"><path codeLine="57" d="M1604.5138,44.4217 C1657.0918,59.9467 1738.314,83.925 1804.536,103.482 " fill="none" id="Element-backto-TransientThermalElement" style="stroke:#181818;stroke-width:0.9;"/><polygon fill="none" points="1588.977,39.834,1602.9846,49.6006,1606.0431,39.2427,1588.977,39.834" style="stroke:#181818;stroke-width:0.9;"/></g><!--reverse link Element to CrBeamElement2D2N_Structural--><g id="link_Element_CrBeamElement2D2N_Structural"><path codeLine="65" d="M1605.298,38.1333 C1687.477,52.4073 1869.255,83.997 1993.338,105.561 " fill="none" id="Element-backto-CrBeamElement2D2N_Structural" style="stroke:#181818;stroke-width:0.9;"/><polygon fill="none" points="1589.337,35.361,1604.3739,43.4537,1606.2221,32.813,1589.337,35.361" style="stroke:#181818;stroke-width:0.9;"/></g><!--reverse link CrBeamElement2D2N_Structural to CrBeamElementLinear2D2N_Structural--><g id="link_CrBeamElement2D2N_Structural_CrBeamElementLinear2D2N_Structural"><path codeLine="66" d="M2100.6,162.9 C2100.6,178.794 2100.6,184.446 2100.6,200.412 " fill="none" id="CrBeamElement2D2N_Structural-backto-CrBeamElementLinear2D2N_Structural" style="stroke:#181818;stroke-width:0.9;"/><polygon fill="none" points="2100.6,146.7,2095.2,162.9,2106,162.9,2100.6,146.7" style="stroke:#181818;stroke-width:0.9;"/></g><!--reverse link CrBeamElementLinear2D2N_Structural to GeoCrBeamElementLinear2D2N--><g id="link_CrBeamElementLinear2D2N_Structural_GeoCrBeamElementLinear2D2N"><path codeLine="67" d="M2100.6,260.1 C2100.6,275.994 2100.6,281.646 2100.6,297.612 " fill="none" id="CrBeamElementLinear2D2N_Structural-backto-GeoCrBeamElementLinear2D2N" style="stroke:#181818;stroke-width:0.9;"/><polygon fill="none" points="2100.6,243.9,2095.2,260.1,2106,260.1,2100.6,243.9" style="stroke:#181818;stroke-width:0.9;"/></g><!--SRC=[dLJ1QiCm3BtxAthBAIlqE7Pgkur2sG9fs768M6tD4ZSuBc6mZv_Jk2bERIMKN6AzfoVBpt9qrBggd-VpgW2fpsNnb9_AULv0NSTSm451oTXbENiji4If6OkovCl6igHPGeqzr4VJ4eeYrGg4l88Tjcv3o2bA9la4aeEzRLPtS5PnqCYtRHFo860QYMnb8pMgFUJewknCRYtCEca2Z5GZyDzKcrhJE8ceX3nGBM-5_BbJOlPdzl8NnqDtt6LFyHmnyuQx3D908c_4LIepP7K8wDEeAq0N3D-BgFtMOh-VVIgEwchUJSfaj_057HWu5FLHlJQDoDEmRUhXuYCpGCET13KX16QR9uU7H3q2xcHDsVoKkUiCDXZUOOwMby6YfBa-hxMLIXhtxhpZYMZ3BNBBTS8Z4b6qEw8oZGvVDHlsQeP8boan1tREzLdraYkrH2WjPx5UV7pJbFQqGFc9ffi0Tt0QP54AzAJxDpHEwGq8RVaV]--></g></svg>