<svg xmlns="http://www.w3.org/2000/svg" xmlns:xlink="http://www.w3.org/1999/xlink" contentStyleType="text/css" data-diagram-type="CLASS" height="494px" preserveAspectRatio="none" style="width:2649px;height:494px;background:#FFFFFF;" version="1.1" viewBox="0 0 2649 494" width="2649px" zoomAndPan="magnify"><defs/><g><!--class Element--><g class="entity" data-entity="Element" data-source-line="3" data-uid="ent0002" id="entity_Element"><rect fill="#F1F1F1" height="48" rx="2.5" ry="2.5" style="stroke:#181818;stroke-width:0.5;" width="83.3584" x="1852.5" y="7"/><ellipse cx="1867.5" cy="23" fill="#ADD1B2" rx="11" ry="11" style="stroke:#181818;stroke-width:1;"/><path d="M1870.2656,18.875 Q1870.4219,18.6563 1870.6094,18.5469 Q1870.7969,18.4375 1871.0156,18.4375 Q1871.3906,18.4375 1871.625,18.7031 Q1871.8594,18.9531 1871.8594,19.5625 L1871.8594,21.0156 Q1871.8594,21.625 1871.625,21.8906 Q1871.3906,22.1563 1871.0156,22.1563 Q1870.6719,22.1563 1870.4688,21.9531 Q1870.2656,21.7656 1870.1563,21.25 Q1870.1094,20.8906 1869.9219,20.7031 Q1869.5938,20.3281 1868.9844,20.1094 Q1868.375,19.8906 1867.75,19.8906 Q1866.9844,19.8906 1866.3438,20.2188 Q1865.7188,20.5469 1865.2188,21.2969 Q1864.7344,22.0469 1864.7344,23.0781 L1864.7344,24.1719 Q1864.7344,25.4063 1865.625,26.2344 Q1866.5156,27.0469 1868.1094,27.0469 Q1869.0469,27.0469 1869.7031,26.7969 Q1870.0938,26.6406 1870.5156,26.2031 Q1870.7813,25.9375 1870.9219,25.8594 Q1871.0781,25.7813 1871.2813,25.7813 Q1871.6094,25.7813 1871.8594,26.0469 Q1872.125,26.2969 1872.125,26.6406 Q1872.125,26.9844 1871.7813,27.3906 Q1871.2813,27.9688 1870.4844,28.2969 Q1869.4063,28.75 1868.1094,28.75 Q1866.5938,28.75 1865.3906,28.125 Q1864.4063,27.625 1863.7188,26.5625 Q1863.0313,25.4844 1863.0313,24.2031 L1863.0313,23.0469 Q1863.0313,21.7188 1863.6406,20.5781 Q1864.2656,19.4219 1865.3594,18.8125 Q1866.4531,18.1875 1867.6875,18.1875 Q1868.4219,18.1875 1869.0625,18.3594 Q1869.7188,18.5156 1870.2656,18.875 Z " fill="#000000"/><text fill="#000000" font-family="sans-serif" font-size="14" lengthAdjust="spacing" textLength="51.3584" x="1881.5" y="28.7969">Element</text><line style="stroke:#181818;stroke-width:0.5;" x1="1853.5" x2="1934.8584" y1="39" y2="39"/><line style="stroke:#181818;stroke-width:0.5;" x1="1853.5" x2="1934.8584" y1="47" y2="47"/></g><!--class UPwBaseElement--><g class="entity" data-entity="UPwBaseElement" data-source-line="6" data-uid="ent0003" id="entity_UPwBaseElement"><rect fill="#F1F1F1" height="48" rx="2.5" ry="2.5" style="stroke:#181818;stroke-width:0.5;" width="144.8271" x="1384.5" y="115"/><ellipse cx="1399.5" cy="131" fill="#ADD1B2" rx="11" ry="11" style="stroke:#181818;stroke-width:1;"/><path d="M1402.2656,126.875 Q1402.4219,126.6563 1402.6094,126.5469 Q1402.7969,126.4375 1403.0156,126.4375 Q1403.3906,126.4375 1403.625,126.7031 Q1403.8594,126.9531 1403.8594,127.5625 L1403.8594,129.0156 Q1403.8594,129.625 1403.625,129.8906 Q1403.3906,130.1563 1403.0156,130.1563 Q1402.6719,130.1563 1402.4688,129.9531 Q1402.2656,129.7656 1402.1563,129.25 Q1402.1094,128.8906 1401.9219,128.7031 Q1401.5938,128.3281 1400.9844,128.1094 Q1400.375,127.8906 1399.75,127.8906 Q1398.9844,127.8906 1398.3438,128.2188 Q1397.7188,128.5469 1397.2188,129.2969 Q1396.7344,130.0469 1396.7344,131.0781 L1396.7344,132.1719 Q1396.7344,133.4063 1397.625,134.2344 Q1398.5156,135.0469 1400.1094,135.0469 Q1401.0469,135.0469 1401.7031,134.7969 Q1402.0938,134.6406 1402.5156,134.2031 Q1402.7813,133.9375 1402.9219,133.8594 Q1403.0781,133.7813 1403.2813,133.7813 Q1403.6094,133.7813 1403.8594,134.0469 Q1404.125,134.2969 1404.125,134.6406 Q1404.125,134.9844 1403.7813,135.3906 Q1403.2813,135.9688 1402.4844,136.2969 Q1401.4063,136.75 1400.1094,136.75 Q1398.5938,136.75 1397.3906,136.125 Q1396.4063,135.625 1395.7188,134.5625 Q1395.0313,133.4844 1395.0313,132.2031 L1395.0313,131.0469 Q1395.0313,129.7188 1395.6406,128.5781 Q1396.2656,127.4219 1397.3594,126.8125 Q1398.4531,126.1875 1399.6875,126.1875 Q1400.4219,126.1875 1401.0625,126.3594 Q1401.7188,126.5156 1402.2656,126.875 Z " fill="#000000"/><text fill="#000000" font-family="sans-serif" font-size="14" lengthAdjust="spacing" textLength="112.8271" x="1413.5" y="136.7969">UPwBaseElement</text><line style="stroke:#181818;stroke-width:0.5;" x1="1385.5" x2="1528.3271" y1="147" y2="147"/><line style="stroke:#181818;stroke-width:0.5;" x1="1385.5" x2="1528.3271" y1="155" y2="155"/></g><!--class UPwSmallStrainElement--><g class="entity" data-entity="UPwSmallStrainElement" data-source-line="8" data-uid="ent0004" id="entity_UPwSmallStrainElement"><rect fill="#F1F1F1" height="48" rx="2.5" ry="2.5" style="stroke:#181818;stroke-width:0.5;" width="184.4961" x="637" y="223"/><ellipse cx="652" cy="239" fill="#ADD1B2" rx="11" ry="11" style="stroke:#181818;stroke-width:1;"/><path d="M654.7656,234.875 Q654.9219,234.6563 655.1094,234.5469 Q655.2969,234.4375 655.5156,234.4375 Q655.8906,234.4375 656.125,234.7031 Q656.3594,234.9531 656.3594,235.5625 L656.3594,237.0156 Q656.3594,237.625 656.125,237.8906 Q655.8906,238.1563 655.5156,238.1563 Q655.1719,238.1563 654.9688,237.9531 Q654.7656,237.7656 654.6563,237.25 Q654.6094,236.8906 654.4219,236.7031 Q654.0938,236.3281 653.4844,236.1094 Q652.875,235.8906 652.25,235.8906 Q651.4844,235.8906 650.8438,236.2188 Q650.2188,236.5469 649.7188,237.2969 Q649.2344,238.0469 649.2344,239.0781 L649.2344,240.1719 Q649.2344,241.4063 650.125,242.2344 Q651.0156,243.0469 652.6094,243.0469 Q653.5469,243.0469 654.2031,242.7969 Q654.5938,242.6406 655.0156,242.2031 Q655.2813,241.9375 655.4219,241.8594 Q655.5781,241.7813 655.7813,241.7813 Q656.1094,241.7813 656.3594,242.0469 Q656.625,242.2969 656.625,242.6406 Q656.625,242.9844 656.2813,243.3906 Q655.7813,243.9688 654.9844,244.2969 Q653.9063,244.75 652.6094,244.75 Q651.0938,244.75 649.8906,244.125 Q648.9063,243.625 648.2188,242.5625 Q647.5313,241.4844 647.5313,240.2031 L647.5313,239.0469 Q647.5313,237.7188 648.1406,236.5781 Q648.7656,235.4219 649.8594,234.8125 Q650.9531,234.1875 652.1875,234.1875 Q652.9219,234.1875 653.5625,234.3594 Q654.2188,234.5156 654.7656,234.875 Z " fill="#000000"/><text fill="#000000" font-family="sans-serif" font-size="14" lengthAdjust="spacing" textLength="152.4961" x="666" y="244.7969">UPwSmallStrainElement</text><line style="stroke:#181818;stroke-width:0.5;" x1="638" x2="820.4961" y1="255" y2="255"/><line style="stroke:#181818;stroke-width:0.5;" x1="638" x2="820.4961" y1="263" y2="263"/></g><!--class DrainedUPwSmallStrainElement--><g class="entity" data-entity="DrainedUPwSmallStrainElement" data-source-line="9" data-uid="ent0005" id="entity_DrainedUPwSmallStrainElement"><rect fill="#F1F1F1" height="48" rx="2.5" ry="2.5" style="stroke:#181818;stroke-width:0.5;" width="233.5234" x="7" y="331"/><ellipse cx="22" cy="347" fill="#ADD1B2" rx="11" ry="11" style="stroke:#181818;stroke-width:1;"/><path d="M24.7656,342.875 Q24.9219,342.6563 25.1094,342.5469 Q25.2969,342.4375 25.5156,342.4375 Q25.8906,342.4375 26.125,342.7031 Q26.3594,342.9531 26.3594,343.5625 L26.3594,345.0156 Q26.3594,345.625 26.125,345.8906 Q25.8906,346.1563 25.5156,346.1563 Q25.1719,346.1563 24.9688,345.9531 Q24.7656,345.7656 24.6563,345.25 Q24.6094,344.8906 24.4219,344.7031 Q24.0938,344.3281 23.4844,344.1094 Q22.875,343.8906 22.25,343.8906 Q21.4844,343.8906 20.8438,344.2188 Q20.2188,344.5469 19.7188,345.2969 Q19.2344,346.0469 19.2344,347.0781 L19.2344,348.1719 Q19.2344,349.4063 20.125,350.2344 Q21.0156,351.0469 22.6094,351.0469 Q23.5469,351.0469 24.2031,350.7969 Q24.5938,350.6406 25.0156,350.2031 Q25.2813,349.9375 25.4219,349.8594 Q25.5781,349.7813 25.7813,349.7813 Q26.1094,349.7813 26.3594,350.0469 Q26.625,350.2969 26.625,350.6406 Q26.625,350.9844 26.2813,351.3906 Q25.7813,351.9688 24.9844,352.2969 Q23.9063,352.75 22.6094,352.75 Q21.0938,352.75 19.8906,352.125 Q18.9063,351.625 18.2188,350.5625 Q17.5313,349.4844 17.5313,348.2031 L17.5313,347.0469 Q17.5313,345.7188 18.1406,344.5781 Q18.7656,343.4219 19.8594,342.8125 Q20.9531,342.1875 22.1875,342.1875 Q22.9219,342.1875 23.5625,342.3594 Q24.2188,342.5156 24.7656,342.875 Z " fill="#000000"/><text fill="#000000" font-family="sans-serif" font-size="14" lengthAdjust="spacing" textLength="201.5234" x="36" y="352.7969">DrainedUPwSmallStrainElement</text><line style="stroke:#181818;stroke-width:0.5;" x1="8" x2="239.5234" y1="363" y2="363"/><line style="stroke:#181818;stroke-width:0.5;" x1="8" x2="239.5234" y1="371" y2="371"/></g><!--class TransientPwElement--><g class="entity" data-entity="TransientPwElement" data-source-line="10" data-uid="ent0006" id="entity_TransientPwElement"><rect fill="#F1F1F1" height="48" rx="2.5" ry="2.5" style="stroke:#181818;stroke-width:0.5;" width="161.165" x="276.5" y="331"/><ellipse cx="291.5" cy="347" fill="#ADD1B2" rx="11" ry="11" style="stroke:#181818;stroke-width:1;"/><path d="M294.2656,342.875 Q294.4219,342.6563 294.6094,342.5469 Q294.7969,342.4375 295.0156,342.4375 Q295.3906,342.4375 295.625,342.7031 Q295.8594,342.9531 295.8594,343.5625 L295.8594,345.0156 Q295.8594,345.625 295.625,345.8906 Q295.3906,346.1563 295.0156,346.1563 Q294.6719,346.1563 294.4688,345.9531 Q294.2656,345.7656 294.1563,345.25 Q294.1094,344.8906 293.9219,344.7031 Q293.5938,344.3281 292.9844,344.1094 Q292.375,343.8906 291.75,343.8906 Q290.9844,343.8906 290.3438,344.2188 Q289.7188,344.5469 289.2188,345.2969 Q288.7344,346.0469 288.7344,347.0781 L288.7344,348.1719 Q288.7344,349.4063 289.625,350.2344 Q290.5156,351.0469 292.1094,351.0469 Q293.0469,351.0469 293.7031,350.7969 Q294.0938,350.6406 294.5156,350.2031 Q294.7813,349.9375 294.9219,349.8594 Q295.0781,349.7813 295.2813,349.7813 Q295.6094,349.7813 295.8594,350.0469 Q296.125,350.2969 296.125,350.6406 Q296.125,350.9844 295.7813,351.3906 Q295.2813,351.9688 294.4844,352.2969 Q293.4063,352.75 292.1094,352.75 Q290.5938,352.75 289.3906,352.125 Q288.4063,351.625 287.7188,350.5625 Q287.0313,349.4844 287.0313,348.2031 L287.0313,347.0469 Q287.0313,345.7188 287.6406,344.5781 Q288.2656,343.4219 289.3594,342.8125 Q290.4531,342.1875 291.6875,342.1875 Q292.4219,342.1875 293.0625,342.3594 Q293.7188,342.5156 294.2656,342.875 Z " fill="#000000"/><text fill="#000000" font-family="sans-serif" font-size="14" lengthAdjust="spacing" textLength="129.165" x="305.5" y="352.7969">TransientPwElement</text><line style="stroke:#181818;stroke-width:0.5;" x1="277.5" x2="436.665" y1="363" y2="363"/><line style="stroke:#181818;stroke-width:0.5;" x1="277.5" x2="436.665" y1="371" y2="371"/></g><!--class SteadyStatePwElement--><g class="entity" data-entity="SteadyStatePwElement" data-source-line="11" data-uid="ent0007" id="entity_SteadyStatePwElement"><rect fill="#F1F1F1" height="48" rx="2.5" ry="2.5" style="stroke:#181818;stroke-width:0.5;" width="179.082" x="267.5" y="439"/><ellipse cx="282.5" cy="455" fill="#ADD1B2" rx="11" ry="11" style="stroke:#181818;stroke-width:1;"/><path d="M285.2656,450.875 Q285.4219,450.6563 285.6094,450.5469 Q285.7969,450.4375 286.0156,450.4375 Q286.3906,450.4375 286.625,450.7031 Q286.8594,450.9531 286.8594,451.5625 L286.8594,453.0156 Q286.8594,453.625 286.625,453.8906 Q286.3906,454.1563 286.0156,454.1563 Q285.6719,454.1563 285.4688,453.9531 Q285.2656,453.7656 285.1563,453.25 Q285.1094,452.8906 284.9219,452.7031 Q284.5938,452.3281 283.9844,452.1094 Q283.375,451.8906 282.75,451.8906 Q281.9844,451.8906 281.3438,452.2188 Q280.7188,452.5469 280.2188,453.2969 Q279.7344,454.0469 279.7344,455.0781 L279.7344,456.1719 Q279.7344,457.4063 280.625,458.2344 Q281.5156,459.0469 283.1094,459.0469 Q284.0469,459.0469 284.7031,458.7969 Q285.0938,458.6406 285.5156,458.2031 Q285.7813,457.9375 285.9219,457.8594 Q286.0781,457.7813 286.2813,457.7813 Q286.6094,457.7813 286.8594,458.0469 Q287.125,458.2969 287.125,458.6406 Q287.125,458.9844 286.7813,459.3906 Q286.2813,459.9688 285.4844,460.2969 Q284.4063,460.75 283.1094,460.75 Q281.5938,460.75 280.3906,460.125 Q279.4063,459.625 278.7188,458.5625 Q278.0313,457.4844 278.0313,456.2031 L278.0313,455.0469 Q278.0313,453.7188 278.6406,452.5781 Q279.2656,451.4219 280.3594,450.8125 Q281.4531,450.1875 282.6875,450.1875 Q283.4219,450.1875 284.0625,450.3594 Q284.7188,450.5156 285.2656,450.875 Z " fill="#000000"/><text fill="#000000" font-family="sans-serif" font-size="14" lengthAdjust="spacing" textLength="147.082" x="296.5" y="460.7969">SteadyStatePwElement</text><line style="stroke:#181818;stroke-width:0.5;" x1="268.5" x2="445.582" y1="471" y2="471"/><line style="stroke:#181818;stroke-width:0.5;" x1="268.5" x2="445.582" y1="479" y2="479"/></g><!--class UndrainedUPwSmallStrainElement--><g class="entity" data-entity="UndrainedUPwSmallStrainElement" data-source-line="12" data-uid="ent0008" id="entity_UndrainedUPwSmallStrainElement"><rect fill="#F1F1F1" height="48" rx="2.5" ry="2.5" style="stroke:#181818;stroke-width:0.5;" width="249.0957" x="472.5" y="331"/><ellipse cx="487.5" cy="347" fill="#ADD1B2" rx="11" ry="11" style="stroke:#181818;stroke-width:1;"/><path d="M490.2656,342.875 Q490.4219,342.6563 490.6094,342.5469 Q490.7969,342.4375 491.0156,342.4375 Q491.3906,342.4375 491.625,342.7031 Q491.8594,342.9531 491.8594,343.5625 L491.8594,345.0156 Q491.8594,345.625 491.625,345.8906 Q491.3906,346.1563 491.0156,346.1563 Q490.6719,346.1563 490.4688,345.9531 Q490.2656,345.7656 490.1563,345.25 Q490.1094,344.8906 489.9219,344.7031 Q489.5938,344.3281 488.9844,344.1094 Q488.375,343.8906 487.75,343.8906 Q486.9844,343.8906 486.3438,344.2188 Q485.7188,344.5469 485.2188,345.2969 Q484.7344,346.0469 484.7344,347.0781 L484.7344,348.1719 Q484.7344,349.4063 485.625,350.2344 Q486.5156,351.0469 488.1094,351.0469 Q489.0469,351.0469 489.7031,350.7969 Q490.0938,350.6406 490.5156,350.2031 Q490.7813,349.9375 490.9219,349.8594 Q491.0781,349.7813 491.2813,349.7813 Q491.6094,349.7813 491.8594,350.0469 Q492.125,350.2969 492.125,350.6406 Q492.125,350.9844 491.7813,351.3906 Q491.2813,351.9688 490.4844,352.2969 Q489.4063,352.75 488.1094,352.75 Q486.5938,352.75 485.3906,352.125 Q484.4063,351.625 483.7188,350.5625 Q483.0313,349.4844 483.0313,348.2031 L483.0313,347.0469 Q483.0313,345.7188 483.6406,344.5781 Q484.2656,343.4219 485.3594,342.8125 Q486.4531,342.1875 487.6875,342.1875 Q488.4219,342.1875 489.0625,342.3594 Q489.7188,342.5156 490.2656,342.875 Z " fill="#000000"/><text fill="#000000" font-family="sans-serif" font-size="14" lengthAdjust="spacing" textLength="217.0957" x="501.5" y="352.7969">UndrainedUPwSmallStrainElement</text><line style="stroke:#181818;stroke-width:0.5;" x1="473.5" x2="720.5957" y1="363" y2="363"/><line style="stroke:#181818;stroke-width:0.5;" x1="473.5" x2="720.5957" y1="371" y2="371"/></g><!--class UPwSmallStrainFICElement--><g class="entity" data-entity="UPwSmallStrainFICElement" data-source-line="13" data-uid="ent0009" id="entity_UPwSmallStrainFICElement"><rect fill="#F1F1F1" height="48" rx="2.5" ry="2.5" style="stroke:#181818;stroke-width:0.5;" width="207.0479" x="756.5" y="331"/><ellipse cx="771.5" cy="347" fill="#ADD1B2" rx="11" ry="11" style="stroke:#181818;stroke-width:1;"/><path d="M774.2656,342.875 Q774.4219,342.6563 774.6094,342.5469 Q774.7969,342.4375 775.0156,342.4375 Q775.3906,342.4375 775.625,342.7031 Q775.8594,342.9531 775.8594,343.5625 L775.8594,345.0156 Q775.8594,345.625 775.625,345.8906 Q775.3906,346.1563 775.0156,346.1563 Q774.6719,346.1563 774.4688,345.9531 Q774.2656,345.7656 774.1563,345.25 Q774.1094,344.8906 773.9219,344.7031 Q773.5938,344.3281 772.9844,344.1094 Q772.375,343.8906 771.75,343.8906 Q770.9844,343.8906 770.3438,344.2188 Q769.7188,344.5469 769.2188,345.2969 Q768.7344,346.0469 768.7344,347.0781 L768.7344,348.1719 Q768.7344,349.4063 769.625,350.2344 Q770.5156,351.0469 772.1094,351.0469 Q773.0469,351.0469 773.7031,350.7969 Q774.0938,350.6406 774.5156,350.2031 Q774.7813,349.9375 774.9219,349.8594 Q775.0781,349.7813 775.2813,349.7813 Q775.6094,349.7813 775.8594,350.0469 Q776.125,350.2969 776.125,350.6406 Q776.125,350.9844 775.7813,351.3906 Q775.2813,351.9688 774.4844,352.2969 Q773.4063,352.75 772.1094,352.75 Q770.5938,352.75 769.3906,352.125 Q768.4063,351.625 767.7188,350.5625 Q767.0313,349.4844 767.0313,348.2031 L767.0313,347.0469 Q767.0313,345.7188 767.6406,344.5781 Q768.2656,343.4219 769.3594,342.8125 Q770.4531,342.1875 771.6875,342.1875 Q772.4219,342.1875 773.0625,342.3594 Q773.7188,342.5156 774.2656,342.875 Z " fill="#000000"/><text fill="#000000" font-family="sans-serif" font-size="14" lengthAdjust="spacing" textLength="175.0479" x="785.5" y="352.7969">UPwSmallStrainFICElement</text><line style="stroke:#181818;stroke-width:0.5;" x1="757.5" x2="962.5479" y1="363" y2="363"/><line style="stroke:#181818;stroke-width:0.5;" x1="757.5" x2="962.5479" y1="371" y2="371"/></g><!--class UPwUpdatedLagrangianFICElement--><g class="entity" data-entity="UPwUpdatedLagrangianFICElement" data-source-line="14" data-uid="ent0010" id="entity_UPwUpdatedLagrangianFICElement"><rect fill="#F1F1F1" height="48" rx="2.5" ry="2.5" style="stroke:#181818;stroke-width:0.5;" width="258.4609" x="731" y="439"/><ellipse cx="746" cy="455" fill="#ADD1B2" rx="11" ry="11" style="stroke:#181818;stroke-width:1;"/><path d="M748.7656,450.875 Q748.9219,450.6563 749.1094,450.5469 Q749.2969,450.4375 749.5156,450.4375 Q749.8906,450.4375 750.125,450.7031 Q750.3594,450.9531 750.3594,451.5625 L750.3594,453.0156 Q750.3594,453.625 750.125,453.8906 Q749.8906,454.1563 749.5156,454.1563 Q749.1719,454.1563 748.9688,453.9531 Q748.7656,453.7656 748.6563,453.25 Q748.6094,452.8906 748.4219,452.7031 Q748.0938,452.3281 747.4844,452.1094 Q746.875,451.8906 746.25,451.8906 Q745.4844,451.8906 744.8438,452.2188 Q744.2188,452.5469 743.7188,453.2969 Q743.2344,454.0469 743.2344,455.0781 L743.2344,456.1719 Q743.2344,457.4063 744.125,458.2344 Q745.0156,459.0469 746.6094,459.0469 Q747.5469,459.0469 748.2031,458.7969 Q748.5938,458.6406 749.0156,458.2031 Q749.2813,457.9375 749.4219,457.8594 Q749.5781,457.7813 749.7813,457.7813 Q750.1094,457.7813 750.3594,458.0469 Q750.625,458.2969 750.625,458.6406 Q750.625,458.9844 750.2813,459.3906 Q749.7813,459.9688 748.9844,460.2969 Q747.9063,460.75 746.6094,460.75 Q745.0938,460.75 743.8906,460.125 Q742.9063,459.625 742.2188,458.5625 Q741.5313,457.4844 741.5313,456.2031 L741.5313,455.0469 Q741.5313,453.7188 742.1406,452.5781 Q742.7656,451.4219 743.8594,450.8125 Q744.9531,450.1875 746.1875,450.1875 Q746.9219,450.1875 747.5625,450.3594 Q748.2188,450.5156 748.7656,450.875 Z " fill="#000000"/><text fill="#000000" font-family="sans-serif" font-size="14" lengthAdjust="spacing" textLength="226.4609" x="760" y="460.7969">UPwUpdatedLagrangianFICElement</text><line style="stroke:#181818;stroke-width:0.5;" x1="732" x2="988.4609" y1="471" y2="471"/><line style="stroke:#181818;stroke-width:0.5;" x1="732" x2="988.4609" y1="479" y2="479"/></g><!--class UPwUpdatedLagrangianElement--><g class="entity" data-entity="UPwUpdatedLagrangianElement" data-source-line="15" data-uid="ent0011" id="entity_UPwUpdatedLagrangianElement"><rect fill="#F1F1F1" height="48" rx="2.5" ry="2.5" style="stroke:#181818;stroke-width:0.5;" width="235.9092" x="999" y="331"/><ellipse cx="1014" cy="347" fill="#ADD1B2" rx="11" ry="11" style="stroke:#181818;stroke-width:1;"/><path d="M1016.7656,342.875 Q1016.9219,342.6563 1017.1094,342.5469 Q1017.2969,342.4375 1017.5156,342.4375 Q1017.8906,342.4375 1018.125,342.7031 Q1018.3594,342.9531 1018.3594,343.5625 L1018.3594,345.0156 Q1018.3594,345.625 1018.125,345.8906 Q1017.8906,346.1563 1017.5156,346.1563 Q1017.1719,346.1563 1016.9688,345.9531 Q1016.7656,345.7656 1016.6563,345.25 Q1016.6094,344.8906 1016.4219,344.7031 Q1016.0938,344.3281 1015.4844,344.1094 Q1014.875,343.8906 1014.25,343.8906 Q1013.4844,343.8906 1012.8438,344.2188 Q1012.2188,344.5469 1011.7188,345.2969 Q1011.2344,346.0469 1011.2344,347.0781 L1011.2344,348.1719 Q1011.2344,349.4063 1012.125,350.2344 Q1013.0156,351.0469 1014.6094,351.0469 Q1015.5469,351.0469 1016.2031,350.7969 Q1016.5938,350.6406 1017.0156,350.2031 Q1017.2813,349.9375 1017.4219,349.8594 Q1017.5781,349.7813 1017.7813,349.7813 Q1018.1094,349.7813 1018.3594,350.0469 Q1018.625,350.2969 1018.625,350.6406 Q1018.625,350.9844 1018.2813,351.3906 Q1017.7813,351.9688 1016.9844,352.2969 Q1015.9063,352.75 1014.6094,352.75 Q1013.0938,352.75 1011.8906,352.125 Q1010.9063,351.625 1010.2188,350.5625 Q1009.5313,349.4844 1009.5313,348.2031 L1009.5313,347.0469 Q1009.5313,345.7188 1010.1406,344.5781 Q1010.7656,343.4219 1011.8594,342.8125 Q1012.9531,342.1875 1014.1875,342.1875 Q1014.9219,342.1875 1015.5625,342.3594 Q1016.2188,342.5156 1016.7656,342.875 Z " fill="#000000"/><text fill="#000000" font-family="sans-serif" font-size="14" lengthAdjust="spacing" textLength="203.9092" x="1028" y="352.7969">UPwUpdatedLagrangianElement</text><line style="stroke:#181818;stroke-width:0.5;" x1="1000" x2="1233.9092" y1="363" y2="363"/><line style="stroke:#181818;stroke-width:0.5;" x1="1000" x2="1233.9092" y1="371" y2="371"/></g><!--class UPwSmallStrainInterfaceElement--><g class="entity" data-entity="UPwSmallStrainInterfaceElement" data-source-line="17" data-uid="ent0012" id="entity_UPwSmallStrainInterfaceElement"><rect fill="#F1F1F1" height="48" rx="2.5" ry="2.5" style="stroke:#181818;stroke-width:0.5;" width="238.9717" x="1337.5" y="223"/><ellipse cx="1352.5" cy="239" fill="#ADD1B2" rx="11" ry="11" style="stroke:#181818;stroke-width:1;"/><path d="M1355.2656,234.875 Q1355.4219,234.6563 1355.6094,234.5469 Q1355.7969,234.4375 1356.0156,234.4375 Q1356.3906,234.4375 1356.625,234.7031 Q1356.8594,234.9531 1356.8594,235.5625 L1356.8594,237.0156 Q1356.8594,237.625 1356.625,237.8906 Q1356.3906,238.1563 1356.0156,238.1563 Q1355.6719,238.1563 1355.4688,237.9531 Q1355.2656,237.7656 1355.1563,237.25 Q1355.1094,236.8906 1354.9219,236.7031 Q1354.5938,236.3281 1353.9844,236.1094 Q1353.375,235.8906 1352.75,235.8906 Q1351.9844,235.8906 1351.3438,236.2188 Q1350.7188,236.5469 1350.2188,237.2969 Q1349.7344,238.0469 1349.7344,239.0781 L1349.7344,240.1719 Q1349.7344,241.4063 1350.625,242.2344 Q1351.5156,243.0469 1353.1094,243.0469 Q1354.0469,243.0469 1354.7031,242.7969 Q1355.0938,242.6406 1355.5156,242.2031 Q1355.7813,241.9375 1355.9219,241.8594 Q1356.0781,241.7813 1356.2813,241.7813 Q1356.6094,241.7813 1356.8594,242.0469 Q1357.125,242.2969 1357.125,242.6406 Q1357.125,242.9844 1356.7813,243.3906 Q1356.2813,243.9688 1355.4844,244.2969 Q1354.4063,244.75 1353.1094,244.75 Q1351.5938,244.75 1350.3906,244.125 Q1349.4063,243.625 1348.7188,242.5625 Q1348.0313,241.4844 1348.0313,240.2031 L1348.0313,239.0469 Q1348.0313,237.7188 1348.6406,236.5781 Q1349.2656,235.4219 1350.3594,234.8125 Q1351.4531,234.1875 1352.6875,234.1875 Q1353.4219,234.1875 1354.0625,234.3594 Q1354.7188,234.5156 1355.2656,234.875 Z " fill="#000000"/><text fill="#000000" font-family="sans-serif" font-size="14" lengthAdjust="spacing" textLength="206.9717" x="1366.5" y="244.7969">UPwSmallStrainInterfaceElement</text><line style="stroke:#181818;stroke-width:0.5;" x1="1338.5" x2="1575.4717" y1="255" y2="255"/><line style="stroke:#181818;stroke-width:0.5;" x1="1338.5" x2="1575.4717" y1="263" y2="263"/></g><!--class TransientPwInterfaceElement--><g class="entity" data-entity="TransientPwInterfaceElement" data-source-line="18" data-uid="ent0013" id="entity_TransientPwInterfaceElement"><rect fill="#F1F1F1" height="48" rx="2.5" ry="2.5" style="stroke:#181818;stroke-width:0.5;" width="215.6406" x="1270" y="331"/><ellipse cx="1285" cy="347" fill="#ADD1B2" rx="11" ry="11" style="stroke:#181818;stroke-width:1;"/><path d="M1287.7656,342.875 Q1287.9219,342.6563 1288.1094,342.5469 Q1288.2969,342.4375 1288.5156,342.4375 Q1288.8906,342.4375 1289.125,342.7031 Q1289.3594,342.9531 1289.3594,343.5625 L1289.3594,345.0156 Q1289.3594,345.625 1289.125,345.8906 Q1288.8906,346.1563 1288.5156,346.1563 Q1288.1719,346.1563 1287.9688,345.9531 Q1287.7656,345.7656 1287.6563,345.25 Q1287.6094,344.8906 1287.4219,344.7031 Q1287.0938,344.3281 1286.4844,344.1094 Q1285.875,343.8906 1285.25,343.8906 Q1284.4844,343.8906 1283.8438,344.2188 Q1283.2188,344.5469 1282.7188,345.2969 Q1282.2344,346.0469 1282.2344,347.0781 L1282.2344,348.1719 Q1282.2344,349.4063 1283.125,350.2344 Q1284.0156,351.0469 1285.6094,351.0469 Q1286.5469,351.0469 1287.2031,350.7969 Q1287.5938,350.6406 1288.0156,350.2031 Q1288.2813,349.9375 1288.4219,349.8594 Q1288.5781,349.7813 1288.7813,349.7813 Q1289.1094,349.7813 1289.3594,350.0469 Q1289.625,350.2969 1289.625,350.6406 Q1289.625,350.9844 1289.2813,351.3906 Q1288.7813,351.9688 1287.9844,352.2969 Q1286.9063,352.75 1285.6094,352.75 Q1284.0938,352.75 1282.8906,352.125 Q1281.9063,351.625 1281.2188,350.5625 Q1280.5313,349.4844 1280.5313,348.2031 L1280.5313,347.0469 Q1280.5313,345.7188 1281.1406,344.5781 Q1281.7656,343.4219 1282.8594,342.8125 Q1283.9531,342.1875 1285.1875,342.1875 Q1285.9219,342.1875 1286.5625,342.3594 Q1287.2188,342.5156 1287.7656,342.875 Z " fill="#000000"/><text fill="#000000" font-family="sans-serif" font-size="14" lengthAdjust="spacing" textLength="183.6406" x="1299" y="352.7969">TransientPwInterfaceElement</text><line style="stroke:#181818;stroke-width:0.5;" x1="1271" x2="1484.6406" y1="363" y2="363"/><line style="stroke:#181818;stroke-width:0.5;" x1="1271" x2="1484.6406" y1="371" y2="371"/></g><!--class SteadyStatePwInterfaceElement--><g class="entity" data-entity="SteadyStatePwInterfaceElement" data-source-line="19" data-uid="ent0014" id="entity_SteadyStatePwInterfaceElement"><rect fill="#F1F1F1" height="48" rx="2.5" ry="2.5" style="stroke:#181818;stroke-width:0.5;" width="233.5576" x="1261" y="439"/><ellipse cx="1276" cy="455" fill="#ADD1B2" rx="11" ry="11" style="stroke:#181818;stroke-width:1;"/><path d="M1278.7656,450.875 Q1278.9219,450.6563 1279.1094,450.5469 Q1279.2969,450.4375 1279.5156,450.4375 Q1279.8906,450.4375 1280.125,450.7031 Q1280.3594,450.9531 1280.3594,451.5625 L1280.3594,453.0156 Q1280.3594,453.625 1280.125,453.8906 Q1279.8906,454.1563 1279.5156,454.1563 Q1279.1719,454.1563 1278.9688,453.9531 Q1278.7656,453.7656 1278.6563,453.25 Q1278.6094,452.8906 1278.4219,452.7031 Q1278.0938,452.3281 1277.4844,452.1094 Q1276.875,451.8906 1276.25,451.8906 Q1275.4844,451.8906 1274.8438,452.2188 Q1274.2188,452.5469 1273.7188,453.2969 Q1273.2344,454.0469 1273.2344,455.0781 L1273.2344,456.1719 Q1273.2344,457.4063 1274.125,458.2344 Q1275.0156,459.0469 1276.6094,459.0469 Q1277.5469,459.0469 1278.2031,458.7969 Q1278.5938,458.6406 1279.0156,458.2031 Q1279.2813,457.9375 1279.4219,457.8594 Q1279.5781,457.7813 1279.7813,457.7813 Q1280.1094,457.7813 1280.3594,458.0469 Q1280.625,458.2969 1280.625,458.6406 Q1280.625,458.9844 1280.2813,459.3906 Q1279.7813,459.9688 1278.9844,460.2969 Q1277.9063,460.75 1276.6094,460.75 Q1275.0938,460.75 1273.8906,460.125 Q1272.9063,459.625 1272.2188,458.5625 Q1271.5313,457.4844 1271.5313,456.2031 L1271.5313,455.0469 Q1271.5313,453.7188 1272.1406,452.5781 Q1272.7656,451.4219 1273.8594,450.8125 Q1274.9531,450.1875 1276.1875,450.1875 Q1276.9219,450.1875 1277.5625,450.3594 Q1278.2188,450.5156 1278.7656,450.875 Z " fill="#000000"/><text fill="#000000" font-family="sans-serif" font-size="14" lengthAdjust="spacing" textLength="201.5576" x="1290" y="460.7969">SteadyStatePwInterfaceElement</text><line style="stroke:#181818;stroke-width:0.5;" x1="1262" x2="1493.5576" y1="471" y2="471"/><line style="stroke:#181818;stroke-width:0.5;" x1="1262" x2="1493.5576" y1="479" y2="479"/></g><!--class UPwSmallStrainLinkInterfaceElement--><g class="entity" data-entity="UPwSmallStrainLinkInterfaceElement" data-source-line="20" data-uid="ent0015" id="entity_UPwSmallStrainLinkInterfaceElement"><rect fill="#F1F1F1" height="48" rx="2.5" ry="2.5" style="stroke:#181818;stroke-width:0.5;" width="264.6543" x="1521.5" y="331"/><ellipse cx="1536.5" cy="347" fill="#ADD1B2" rx="11" ry="11" style="stroke:#181818;stroke-width:1;"/><path d="M1539.2656,342.875 Q1539.4219,342.6563 1539.6094,342.5469 Q1539.7969,342.4375 1540.0156,342.4375 Q1540.3906,342.4375 1540.625,342.7031 Q1540.8594,342.9531 1540.8594,343.5625 L1540.8594,345.0156 Q1540.8594,345.625 1540.625,345.8906 Q1540.3906,346.1563 1540.0156,346.1563 Q1539.6719,346.1563 1539.4688,345.9531 Q1539.2656,345.7656 1539.1563,345.25 Q1539.1094,344.8906 1538.9219,344.7031 Q1538.5938,344.3281 1537.9844,344.1094 Q1537.375,343.8906 1536.75,343.8906 Q1535.9844,343.8906 1535.3438,344.2188 Q1534.7188,344.5469 1534.2188,345.2969 Q1533.7344,346.0469 1533.7344,347.0781 L1533.7344,348.1719 Q1533.7344,349.4063 1534.625,350.2344 Q1535.5156,351.0469 1537.1094,351.0469 Q1538.0469,351.0469 1538.7031,350.7969 Q1539.0938,350.6406 1539.5156,350.2031 Q1539.7813,349.9375 1539.9219,349.8594 Q1540.0781,349.7813 1540.2813,349.7813 Q1540.6094,349.7813 1540.8594,350.0469 Q1541.125,350.2969 1541.125,350.6406 Q1541.125,350.9844 1540.7813,351.3906 Q1540.2813,351.9688 1539.4844,352.2969 Q1538.4063,352.75 1537.1094,352.75 Q1535.5938,352.75 1534.3906,352.125 Q1533.4063,351.625 1532.7188,350.5625 Q1532.0313,349.4844 1532.0313,348.2031 L1532.0313,347.0469 Q1532.0313,345.7188 1532.6406,344.5781 Q1533.2656,343.4219 1534.3594,342.8125 Q1535.4531,342.1875 1536.6875,342.1875 Q1537.4219,342.1875 1538.0625,342.3594 Q1538.7188,342.5156 1539.2656,342.875 Z " fill="#000000"/><text fill="#000000" font-family="sans-serif" font-size="14" lengthAdjust="spacing" textLength="232.6543" x="1550.5" y="352.7969">UPwSmallStrainLinkInterfaceElement</text><line style="stroke:#181818;stroke-width:0.5;" x1="1522.5" x2="1785.1543" y1="363" y2="363"/><line style="stroke:#181818;stroke-width:0.5;" x1="1522.5" x2="1785.1543" y1="371" y2="371"/></g><!--class SmallStrainUPwDiffOrderElement--><g class="entity" data-entity="SmallStrainUPwDiffOrderElement" data-source-line="36" data-uid="ent0025" id="entity_SmallStrainUPwDiffOrderElement"><rect fill="#F1F1F1" height="48" rx="2.5" ry="2.5" style="stroke:#181818;stroke-width:0.5;" width="241.2822" x="1690.5" y="223"/><ellipse cx="1705.5" cy="239" fill="#ADD1B2" rx="11" ry="11" style="stroke:#181818;stroke-width:1;"/><path d="M1708.2656,234.875 Q1708.4219,234.6563 1708.6094,234.5469 Q1708.7969,234.4375 1709.0156,234.4375 Q1709.3906,234.4375 1709.625,234.7031 Q1709.8594,234.9531 1709.8594,235.5625 L1709.8594,237.0156 Q1709.8594,237.625 1709.625,237.8906 Q1709.3906,238.1563 1709.0156,238.1563 Q1708.6719,238.1563 1708.4688,237.9531 Q1708.2656,237.7656 1708.1563,237.25 Q1708.1094,236.8906 1707.9219,236.7031 Q1707.5938,236.3281 1706.9844,236.1094 Q1706.375,235.8906 1705.75,235.8906 Q1704.9844,235.8906 1704.3438,236.2188 Q1703.7188,236.5469 1703.2188,237.2969 Q1702.7344,238.0469 1702.7344,239.0781 L1702.7344,240.1719 Q1702.7344,241.4063 1703.625,242.2344 Q1704.5156,243.0469 1706.1094,243.0469 Q1707.0469,243.0469 1707.7031,242.7969 Q1708.0938,242.6406 1708.5156,242.2031 Q1708.7813,241.9375 1708.9219,241.8594 Q1709.0781,241.7813 1709.2813,241.7813 Q1709.6094,241.7813 1709.8594,242.0469 Q1710.125,242.2969 1710.125,242.6406 Q1710.125,242.9844 1709.7813,243.3906 Q1709.2813,243.9688 1708.4844,244.2969 Q1707.4063,244.75 1706.1094,244.75 Q1704.5938,244.75 1703.3906,244.125 Q1702.4063,243.625 1701.7188,242.5625 Q1701.0313,241.4844 1701.0313,240.2031 L1701.0313,239.0469 Q1701.0313,237.7188 1701.6406,236.5781 Q1702.2656,235.4219 1703.3594,234.8125 Q1704.4531,234.1875 1705.6875,234.1875 Q1706.4219,234.1875 1707.0625,234.3594 Q1707.7188,234.5156 1708.2656,234.875 Z " fill="#000000"/><text fill="#000000" font-family="sans-serif" font-size="14" lengthAdjust="spacing" textLength="209.2822" x="1719.5" y="244.7969">SmallStrainUPwDiffOrderElement</text><line style="stroke:#181818;stroke-width:0.5;" x1="1691.5" x2="1930.7822" y1="255" y2="255"/><line style="stroke:#181818;stroke-width:0.5;" x1="1691.5" x2="1930.7822" y1="263" y2="263"/></g><!--class UpdatedLagrangianUPwDiffOrderElement--><g class="entity" data-entity="UpdatedLagrangianUPwDiffOrderElement" data-source-line="37" data-uid="ent0026" id="entity_UpdatedLagrangianUPwDiffOrderElement"><rect fill="#F1F1F1" height="48" rx="2.5" ry="2.5" style="stroke:#181818;stroke-width:0.5;" width="292.6953" x="1821.5" y="331"/><ellipse cx="1836.5" cy="347" fill="#ADD1B2" rx="11" ry="11" style="stroke:#181818;stroke-width:1;"/><path d="M1839.2656,342.875 Q1839.4219,342.6563 1839.6094,342.5469 Q1839.7969,342.4375 1840.0156,342.4375 Q1840.3906,342.4375 1840.625,342.7031 Q1840.8594,342.9531 1840.8594,343.5625 L1840.8594,345.0156 Q1840.8594,345.625 1840.625,345.8906 Q1840.3906,346.1563 1840.0156,346.1563 Q1839.6719,346.1563 1839.4688,345.9531 Q1839.2656,345.7656 1839.1563,345.25 Q1839.1094,344.8906 1838.9219,344.7031 Q1838.5938,344.3281 1837.9844,344.1094 Q1837.375,343.8906 1836.75,343.8906 Q1835.9844,343.8906 1835.3438,344.2188 Q1834.7188,344.5469 1834.2188,345.2969 Q1833.7344,346.0469 1833.7344,347.0781 L1833.7344,348.1719 Q1833.7344,349.4063 1834.625,350.2344 Q1835.5156,351.0469 1837.1094,351.0469 Q1838.0469,351.0469 1838.7031,350.7969 Q1839.0938,350.6406 1839.5156,350.2031 Q1839.7813,349.9375 1839.9219,349.8594 Q1840.0781,349.7813 1840.2813,349.7813 Q1840.6094,349.7813 1840.8594,350.0469 Q1841.125,350.2969 1841.125,350.6406 Q1841.125,350.9844 1840.7813,351.3906 Q1840.2813,351.9688 1839.4844,352.2969 Q1838.4063,352.75 1837.1094,352.75 Q1835.5938,352.75 1834.3906,352.125 Q1833.4063,351.625 1832.7188,350.5625 Q1832.0313,349.4844 1832.0313,348.2031 L1832.0313,347.0469 Q1832.0313,345.7188 1832.6406,344.5781 Q1833.2656,343.4219 1834.3594,342.8125 Q1835.4531,342.1875 1836.6875,342.1875 Q1837.4219,342.1875 1838.0625,342.3594 Q1838.7188,342.5156 1839.2656,342.875 Z " fill="#000000"/><text fill="#000000" font-family="sans-serif" font-size="14" lengthAdjust="spacing" textLength="260.6953" x="1850.5" y="352.7969">UpdatedLagrangianUPwDiffOrderElement</text><line style="stroke:#181818;stroke-width:0.5;" x1="1822.5" x2="2113.1953" y1="363" y2="363"/><line style="stroke:#181818;stroke-width:0.5;" x1="1822.5" x2="2113.1953" y1="371" y2="371"/></g><!--class InterfaceElement--><g class="entity" data-entity="InterfaceElement" data-source-line="47" data-uid="ent0033" id="entity_InterfaceElement"><rect fill="#F1F1F1" height="48" rx="2.5" ry="2.5" style="stroke:#181818;stroke-width:0.5;" width="137.834" x="1565" y="115"/><ellipse cx="1580" cy="131" fill="#ADD1B2" rx="11" ry="11" style="stroke:#181818;stroke-width:1;"/><path d="M1582.7656,126.875 Q1582.9219,126.6563 1583.1094,126.5469 Q1583.2969,126.4375 1583.5156,126.4375 Q1583.8906,126.4375 1584.125,126.7031 Q1584.3594,126.9531 1584.3594,127.5625 L1584.3594,129.0156 Q1584.3594,129.625 1584.125,129.8906 Q1583.8906,130.1563 1583.5156,130.1563 Q1583.1719,130.1563 1582.9688,129.9531 Q1582.7656,129.7656 1582.6563,129.25 Q1582.6094,128.8906 1582.4219,128.7031 Q1582.0938,128.3281 1581.4844,128.1094 Q1580.875,127.8906 1580.25,127.8906 Q1579.4844,127.8906 1578.8438,128.2188 Q1578.2188,128.5469 1577.7188,129.2969 Q1577.2344,130.0469 1577.2344,131.0781 L1577.2344,132.1719 Q1577.2344,133.4063 1578.125,134.2344 Q1579.0156,135.0469 1580.6094,135.0469 Q1581.5469,135.0469 1582.2031,134.7969 Q1582.5938,134.6406 1583.0156,134.2031 Q1583.2813,133.9375 1583.4219,133.8594 Q1583.5781,133.7813 1583.7813,133.7813 Q1584.1094,133.7813 1584.3594,134.0469 Q1584.625,134.2969 1584.625,134.6406 Q1584.625,134.9844 1584.2813,135.3906 Q1583.7813,135.9688 1582.9844,136.2969 Q1581.9063,136.75 1580.6094,136.75 Q1579.0938,136.75 1577.8906,136.125 Q1576.9063,135.625 1576.2188,134.5625 Q1575.5313,133.4844 1575.5313,132.2031 L1575.5313,131.0469 Q1575.5313,129.7188 1576.1406,128.5781 Q1576.7656,127.4219 1577.8594,126.8125 Q1578.9531,126.1875 1580.1875,126.1875 Q1580.9219,126.1875 1581.5625,126.3594 Q1582.2188,126.5156 1582.7656,126.875 Z " fill="#000000"/><text fill="#000000" font-family="sans-serif" font-size="14" lengthAdjust="spacing" textLength="105.834" x="1594" y="136.7969">InterfaceElement</text><line style="stroke:#181818;stroke-width:0.5;" x1="1566" x2="1701.834" y1="147" y2="147"/><line style="stroke:#181818;stroke-width:0.5;" x1="1566" x2="1701.834" y1="155" y2="155"/></g><!--class PwElement--><g class="entity" data-entity="PwElement" data-source-line="51" data-uid="ent0035" id="entity_PwElement"><rect fill="#F1F1F1" height="48" rx="2.5" ry="2.5" style="stroke:#181818;stroke-width:0.5;" width="102.8066" x="1738.5" y="115"/><ellipse cx="1753.5" cy="131" fill="#ADD1B2" rx="11" ry="11" style="stroke:#181818;stroke-width:1;"/><path d="M1756.2656,126.875 Q1756.4219,126.6563 1756.6094,126.5469 Q1756.7969,126.4375 1757.0156,126.4375 Q1757.3906,126.4375 1757.625,126.7031 Q1757.8594,126.9531 1757.8594,127.5625 L1757.8594,129.0156 Q1757.8594,129.625 1757.625,129.8906 Q1757.3906,130.1563 1757.0156,130.1563 Q1756.6719,130.1563 1756.4688,129.9531 Q1756.2656,129.7656 1756.1563,129.25 Q1756.1094,128.8906 1755.9219,128.7031 Q1755.5938,128.3281 1754.9844,128.1094 Q1754.375,127.8906 1753.75,127.8906 Q1752.9844,127.8906 1752.3438,128.2188 Q1751.7188,128.5469 1751.2188,129.2969 Q1750.7344,130.0469 1750.7344,131.0781 L1750.7344,132.1719 Q1750.7344,133.4063 1751.625,134.2344 Q1752.5156,135.0469 1754.1094,135.0469 Q1755.0469,135.0469 1755.7031,134.7969 Q1756.0938,134.6406 1756.5156,134.2031 Q1756.7813,133.9375 1756.9219,133.8594 Q1757.0781,133.7813 1757.2813,133.7813 Q1757.6094,133.7813 1757.8594,134.0469 Q1758.125,134.2969 1758.125,134.6406 Q1758.125,134.9844 1757.7813,135.3906 Q1757.2813,135.9688 1756.4844,136.2969 Q1755.4063,136.75 1754.1094,136.75 Q1752.5938,136.75 1751.3906,136.125 Q1750.4063,135.625 1749.7188,134.5625 Q1749.0313,133.4844 1749.0313,132.2031 L1749.0313,131.0469 Q1749.0313,129.7188 1749.6406,128.5781 Q1750.2656,127.4219 1751.3594,126.8125 Q1752.4531,126.1875 1753.6875,126.1875 Q1754.4219,126.1875 1755.0625,126.3594 Q1755.7188,126.5156 1756.2656,126.875 Z " fill="#000000"/><text fill="#000000" font-family="sans-serif" font-size="14" lengthAdjust="spacing" textLength="70.8066" x="1767.5" y="136.7969">PwElement</text><line style="stroke:#181818;stroke-width:0.5;" x1="1739.5" x2="1840.3066" y1="147" y2="147"/><line style="stroke:#181818;stroke-width:0.5;" x1="1739.5" x2="1840.3066" y1="155" y2="155"/></g><!--class GeoSteadyStatePwPipingElement--><g class="entity" data-entity="GeoSteadyStatePwPipingElement" data-source-line="52" data-uid="ent0036" id="entity_GeoSteadyStatePwPipingElement"><rect fill="#F1F1F1" height="48" rx="2.5" ry="2.5" style="stroke:#181818;stroke-width:0.5;" width="244.4609" x="1877" y="115"/><ellipse cx="1892" cy="131" fill="#ADD1B2" rx="11" ry="11" style="stroke:#181818;stroke-width:1;"/><path d="M1894.7656,126.875 Q1894.9219,126.6563 1895.1094,126.5469 Q1895.2969,126.4375 1895.5156,126.4375 Q1895.8906,126.4375 1896.125,126.7031 Q1896.3594,126.9531 1896.3594,127.5625 L1896.3594,129.0156 Q1896.3594,129.625 1896.125,129.8906 Q1895.8906,130.1563 1895.5156,130.1563 Q1895.1719,130.1563 1894.9688,129.9531 Q1894.7656,129.7656 1894.6563,129.25 Q1894.6094,128.8906 1894.4219,128.7031 Q1894.0938,128.3281 1893.4844,128.1094 Q1892.875,127.8906 1892.25,127.8906 Q1891.4844,127.8906 1890.8438,128.2188 Q1890.2188,128.5469 1889.7188,129.2969 Q1889.2344,130.0469 1889.2344,131.0781 L1889.2344,132.1719 Q1889.2344,133.4063 1890.125,134.2344 Q1891.0156,135.0469 1892.6094,135.0469 Q1893.5469,135.0469 1894.2031,134.7969 Q1894.5938,134.6406 1895.0156,134.2031 Q1895.2813,133.9375 1895.4219,133.8594 Q1895.5781,133.7813 1895.7813,133.7813 Q1896.1094,133.7813 1896.3594,134.0469 Q1896.625,134.2969 1896.625,134.6406 Q1896.625,134.9844 1896.2813,135.3906 Q1895.7813,135.9688 1894.9844,136.2969 Q1893.9063,136.75 1892.6094,136.75 Q1891.0938,136.75 1889.8906,136.125 Q1888.9063,135.625 1888.2188,134.5625 Q1887.5313,133.4844 1887.5313,132.2031 L1887.5313,131.0469 Q1887.5313,129.7188 1888.1406,128.5781 Q1888.7656,127.4219 1889.8594,126.8125 Q1890.9531,126.1875 1892.1875,126.1875 Q1892.9219,126.1875 1893.5625,126.3594 Q1894.2188,126.5156 1894.7656,126.875 Z " fill="#000000"/><text fill="#000000" font-family="sans-serif" font-size="14" lengthAdjust="spacing" textLength="212.4609" x="1906" y="136.7969">GeoSteadyStatePwPipingElement</text><line style="stroke:#181818;stroke-width:0.5;" x1="1878" x2="2120.4609" y1="147" y2="147"/><line style="stroke:#181818;stroke-width:0.5;" x1="1878" x2="2120.4609" y1="155" y2="155"/></g><!--class TransientThermalElement--><g class="entity" data-entity="TransientThermalElement" data-source-line="58" data-uid="ent0039" id="entity_TransientThermalElement"><rect fill="#F1F1F1" height="48" rx="2.5" ry="2.5" style="stroke:#181818;stroke-width:0.5;" width="193.0615" x="2156.5" y="115"/><ellipse cx="2171.5" cy="131" fill="#ADD1B2" rx="11" ry="11" style="stroke:#181818;stroke-width:1;"/><path d="M2174.2656,126.875 Q2174.4219,126.6563 2174.6094,126.5469 Q2174.7969,126.4375 2175.0156,126.4375 Q2175.3906,126.4375 2175.625,126.7031 Q2175.8594,126.9531 2175.8594,127.5625 L2175.8594,129.0156 Q2175.8594,129.625 2175.625,129.8906 Q2175.3906,130.1563 2175.0156,130.1563 Q2174.6719,130.1563 2174.4688,129.9531 Q2174.2656,129.7656 2174.1563,129.25 Q2174.1094,128.8906 2173.9219,128.7031 Q2173.5938,128.3281 2172.9844,128.1094 Q2172.375,127.8906 2171.75,127.8906 Q2170.9844,127.8906 2170.3438,128.2188 Q2169.7188,128.5469 2169.2188,129.2969 Q2168.7344,130.0469 2168.7344,131.0781 L2168.7344,132.1719 Q2168.7344,133.4063 2169.625,134.2344 Q2170.5156,135.0469 2172.1094,135.0469 Q2173.0469,135.0469 2173.7031,134.7969 Q2174.0938,134.6406 2174.5156,134.2031 Q2174.7813,133.9375 2174.9219,133.8594 Q2175.0781,133.7813 2175.2813,133.7813 Q2175.6094,133.7813 2175.8594,134.0469 Q2176.125,134.2969 2176.125,134.6406 Q2176.125,134.9844 2175.7813,135.3906 Q2175.2813,135.9688 2174.4844,136.2969 Q2173.4063,136.75 2172.1094,136.75 Q2170.5938,136.75 2169.3906,136.125 Q2168.4063,135.625 2167.7188,134.5625 Q2167.0313,133.4844 2167.0313,132.2031 L2167.0313,131.0469 Q2167.0313,129.7188 2167.6406,128.5781 Q2168.2656,127.4219 2169.3594,126.8125 Q2170.4531,126.1875 2171.6875,126.1875 Q2172.4219,126.1875 2173.0625,126.3594 Q2173.7188,126.5156 2174.2656,126.875 Z " fill="#000000"/><text fill="#000000" font-family="sans-serif" font-size="14" lengthAdjust="spacing" textLength="161.0615" x="2185.5" y="136.7969">TransientThermalElement</text><line style="stroke:#181818;stroke-width:0.5;" x1="2157.5" x2="2348.5615" y1="147" y2="147"/><line style="stroke:#181818;stroke-width:0.5;" x1="2157.5" x2="2348.5615" y1="155" y2="155"/></g><!--class CrBeamElement2D2N_Structural--><g class="entity" data-entity="CrBeamElement2D2N_Structural" data-source-line="63" data-uid="ent0041" id="entity_CrBeamElement2D2N_Structural"><rect fill="#F1F1F1" height="48" rx="2.5" ry="2.5" style="stroke:#181818;stroke-width:0.5;" width="238.1924" x="2385" y="115"/><ellipse cx="2400" cy="131" fill="#ADD1B2" rx="11" ry="11" style="stroke:#181818;stroke-width:1;"/><path d="M2402.7656,126.875 Q2402.9219,126.6563 2403.1094,126.5469 Q2403.2969,126.4375 2403.5156,126.4375 Q2403.8906,126.4375 2404.125,126.7031 Q2404.3594,126.9531 2404.3594,127.5625 L2404.3594,129.0156 Q2404.3594,129.625 2404.125,129.8906 Q2403.8906,130.1563 2403.5156,130.1563 Q2403.1719,130.1563 2402.9688,129.9531 Q2402.7656,129.7656 2402.6563,129.25 Q2402.6094,128.8906 2402.4219,128.7031 Q2402.0938,128.3281 2401.4844,128.1094 Q2400.875,127.8906 2400.25,127.8906 Q2399.4844,127.8906 2398.8438,128.2188 Q2398.2188,128.5469 2397.7188,129.2969 Q2397.2344,130.0469 2397.2344,131.0781 L2397.2344,132.1719 Q2397.2344,133.4063 2398.125,134.2344 Q2399.0156,135.0469 2400.6094,135.0469 Q2401.5469,135.0469 2402.2031,134.7969 Q2402.5938,134.6406 2403.0156,134.2031 Q2403.2813,133.9375 2403.4219,133.8594 Q2403.5781,133.7813 2403.7813,133.7813 Q2404.1094,133.7813 2404.3594,134.0469 Q2404.625,134.2969 2404.625,134.6406 Q2404.625,134.9844 2404.2813,135.3906 Q2403.7813,135.9688 2402.9844,136.2969 Q2401.9063,136.75 2400.6094,136.75 Q2399.0938,136.75 2397.8906,136.125 Q2396.9063,135.625 2396.2188,134.5625 Q2395.5313,133.4844 2395.5313,132.2031 L2395.5313,131.0469 Q2395.5313,129.7188 2396.1406,128.5781 Q2396.7656,127.4219 2397.8594,126.8125 Q2398.9531,126.1875 2400.1875,126.1875 Q2400.9219,126.1875 2401.5625,126.3594 Q2402.2188,126.5156 2402.7656,126.875 Z " fill="#000000"/><text fill="#000000" font-family="sans-serif" font-size="14" lengthAdjust="spacing" textLength="206.1924" x="2414" y="136.7969">CrBeamElement2D2N_Structural</text><line style="stroke:#181818;stroke-width:0.5;" x1="2386" x2="2622.1924" y1="147" y2="147"/><line style="stroke:#181818;stroke-width:0.5;" x1="2386" x2="2622.1924" y1="155" y2="155"/></g><!--class CrBeamElementLinear2D2N_Structural--><g class="entity" data-entity="CrBeamElementLinear2D2N_Structural" data-source-line="64" data-uid="ent0042" id="entity_CrBeamElementLinear2D2N_Structural"><rect fill="#F1F1F1" height="48" rx="2.5" ry="2.5" style="stroke:#181818;stroke-width:0.5;" width="277.1094" x="2365.5" y="223"/><ellipse cx="2380.5" cy="239" fill="#ADD1B2" rx="11" ry="11" style="stroke:#181818;stroke-width:1;"/><path d="M2383.2656,234.875 Q2383.4219,234.6563 2383.6094,234.5469 Q2383.7969,234.4375 2384.0156,234.4375 Q2384.3906,234.4375 2384.625,234.7031 Q2384.8594,234.9531 2384.8594,235.5625 L2384.8594,237.0156 Q2384.8594,237.625 2384.625,237.8906 Q2384.3906,238.1563 2384.0156,238.1563 Q2383.6719,238.1563 2383.4688,237.9531 Q2383.2656,237.7656 2383.1563,237.25 Q2383.1094,236.8906 2382.9219,236.7031 Q2382.5938,236.3281 2381.9844,236.1094 Q2381.375,235.8906 2380.75,235.8906 Q2379.9844,235.8906 2379.3438,236.2188 Q2378.7188,236.5469 2378.2188,237.2969 Q2377.7344,238.0469 2377.7344,239.0781 L2377.7344,240.1719 Q2377.7344,241.4063 2378.625,242.2344 Q2379.5156,243.0469 2381.1094,243.0469 Q2382.0469,243.0469 2382.7031,242.7969 Q2383.0938,242.6406 2383.5156,242.2031 Q2383.7813,241.9375 2383.9219,241.8594 Q2384.0781,241.7813 2384.2813,241.7813 Q2384.6094,241.7813 2384.8594,242.0469 Q2385.125,242.2969 2385.125,242.6406 Q2385.125,242.9844 2384.7813,243.3906 Q2384.2813,243.9688 2383.4844,244.2969 Q2382.4063,244.75 2381.1094,244.75 Q2379.5938,244.75 2378.3906,244.125 Q2377.4063,243.625 2376.7188,242.5625 Q2376.0313,241.4844 2376.0313,240.2031 L2376.0313,239.0469 Q2376.0313,237.7188 2376.6406,236.5781 Q2377.2656,235.4219 2378.3594,234.8125 Q2379.4531,234.1875 2380.6875,234.1875 Q2381.4219,234.1875 2382.0625,234.3594 Q2382.7188,234.5156 2383.2656,234.875 Z " fill="#000000"/><text fill="#000000" font-family="sans-serif" font-size="14" lengthAdjust="spacing" textLength="245.1094" x="2394.5" y="244.7969">CrBeamElementLinear2D2N_Structural</text><line style="stroke:#181818;stroke-width:0.5;" x1="2366.5" x2="2641.6094" y1="255" y2="255"/><line style="stroke:#181818;stroke-width:0.5;" x1="2366.5" x2="2641.6094" y1="263" y2="263"/></g><!--class GeoCrBeamElementLinear2D2N--><g class="entity" data-entity="GeoCrBeamElementLinear2D2N" data-source-line="65" data-uid="ent0043" id="entity_GeoCrBeamElementLinear2D2N"><rect fill="#F1F1F1" height="48" rx="2.5" ry="2.5" style="stroke:#181818;stroke-width:0.5;" width="235.875" x="2386" y="331"/><ellipse cx="2401" cy="347" fill="#ADD1B2" rx="11" ry="11" style="stroke:#181818;stroke-width:1;"/><path d="M2403.7656,342.875 Q2403.9219,342.6563 2404.1094,342.5469 Q2404.2969,342.4375 2404.5156,342.4375 Q2404.8906,342.4375 2405.125,342.7031 Q2405.3594,342.9531 2405.3594,343.5625 L2405.3594,345.0156 Q2405.3594,345.625 2405.125,345.8906 Q2404.8906,346.1563 2404.5156,346.1563 Q2404.1719,346.1563 2403.9688,345.9531 Q2403.7656,345.7656 2403.6563,345.25 Q2403.6094,344.8906 2403.4219,344.7031 Q2403.0938,344.3281 2402.4844,344.1094 Q2401.875,343.8906 2401.25,343.8906 Q2400.4844,343.8906 2399.8438,344.2188 Q2399.2188,344.5469 2398.7188,345.2969 Q2398.2344,346.0469 2398.2344,347.0781 L2398.2344,348.1719 Q2398.2344,349.4063 2399.125,350.2344 Q2400.0156,351.0469 2401.6094,351.0469 Q2402.5469,351.0469 2403.2031,350.7969 Q2403.5938,350.6406 2404.0156,350.2031 Q2404.2813,349.9375 2404.4219,349.8594 Q2404.5781,349.7813 2404.7813,349.7813 Q2405.1094,349.7813 2405.3594,350.0469 Q2405.625,350.2969 2405.625,350.6406 Q2405.625,350.9844 2405.2813,351.3906 Q2404.7813,351.9688 2403.9844,352.2969 Q2402.9063,352.75 2401.6094,352.75 Q2400.0938,352.75 2398.8906,352.125 Q2397.9063,351.625 2397.2188,350.5625 Q2396.5313,349.4844 2396.5313,348.2031 L2396.5313,347.0469 Q2396.5313,345.7188 2397.1406,344.5781 Q2397.7656,343.4219 2398.8594,342.8125 Q2399.9531,342.1875 2401.1875,342.1875 Q2401.9219,342.1875 2402.5625,342.3594 Q2403.2188,342.5156 2403.7656,342.875 Z " fill="#000000"/><text fill="#000000" font-family="sans-serif" font-size="14" lengthAdjust="spacing" textLength="203.875" x="2415" y="352.7969">GeoCrBeamElementLinear2D2N</text><line style="stroke:#181818;stroke-width:0.5;" x1="2387" x2="2620.875" y1="363" y2="363"/><line style="stroke:#181818;stroke-width:0.5;" x1="2387" x2="2620.875" y1="371" y2="371"/></g><!--reverse link Element to UPwBaseElement--><g class="link" data-entity-1="Element" data-entity-2="UPwBaseElement" data-source-line="22" data-uid="lnk16" id="link_Element_UPwBaseElement"><path codeLine="22" d="M1834.7657,45.871 C1769.5457,61.171 1657.04,87.78 1547,115 C1541.36,116.39 1535.53,117.85 1529.67,119.33" fill="none" id="Element-backto-UPwBaseElement" style="stroke:#181818;stroke-width:1;"/><polygon fill="none" points="1852.29,41.76,1833.3954,40.0296,1836.1361,51.7124,1852.29,41.76" style="stroke:#181818;stroke-width:1;"/></g><!--reverse link UPwBaseElement to UPwSmallStrainElement--><g class="link" data-entity-1="UPwBaseElement" data-entity-2="UPwSmallStrainElement" data-source-line="23" data-uid="lnk17" id="link_UPwBaseElement_UPwSmallStrainElement"><path codeLine="23" d="M1366.3878,153.1931 C1233.0578,172.6031 967.74,211.24 821.19,232.58" fill="none" id="UPwBaseElement-backto-UPwSmallStrainElement" style="stroke:#181818;stroke-width:1;"/><polygon fill="none" points="1384.2,150.6,1365.5234,147.2557,1367.2521,159.1305,1384.2,150.6" style="stroke:#181818;stroke-width:1;"/></g><!--reverse link UPwSmallStrainElement to DrainedUPwSmallStrainElement--><g class="link" data-entity-1="UPwSmallStrainElement" data-entity-2="DrainedUPwSmallStrainElement" data-source-line="25" data-uid="lnk18" id="link_UPwSmallStrainElement_DrainedUPwSmallStrainElement"><path codeLine="25" d="M619.05,267.2658 C513.04,285.8358 356.55,313.26 241.05,333.49" fill="none" id="UPwSmallStrainElement-backto-DrainedUPwSmallStrainElement" style="stroke:#181818;stroke-width:1;"/><polygon fill="none" points="636.78,264.16,618.0147,261.3558,620.0852,273.1758,636.78,264.16" style="stroke:#181818;stroke-width:1;"/></g><!--reverse link UPwSmallStrainElement to TransientPwElement--><g class="link" data-entity-1="UPwSmallStrainElement" data-entity-2="TransientPwElement" data-source-line="26" data-uid="lnk19" id="link_UPwSmallStrainElement_TransientPwElement"><path codeLine="26" d="M630.969,275.9325 C568.569,293.7125 499.92,313.28 437.56,331.04" fill="none" id="UPwSmallStrainElement-backto-TransientPwElement" style="stroke:#181818;stroke-width:1;"/><polygon fill="none" points="648.28,271,629.3248,270.1622,632.6132,281.7028,648.28,271" style="stroke:#181818;stroke-width:1;"/></g><!--reverse link TransientPwElement to SteadyStatePwElement--><g class="link" data-entity-1="TransientPwElement" data-entity-2="SteadyStatePwElement" data-source-line="27" data-uid="lnk20" id="link_TransientPwElement_SteadyStatePwElement"><path codeLine="27" d="M357,397 C357,414.66 357,420.94 357,438.68" fill="none" id="TransientPwElement-backto-SteadyStatePwElement" style="stroke:#181818;stroke-width:1;"/><polygon fill="none" points="357,379,351,397,363,397,357,379" style="stroke:#181818;stroke-width:1;"/></g><!--reverse link UPwSmallStrainElement to UndrainedUPwSmallStrainElement--><g class="link" data-entity-1="UPwSmallStrainElement" data-entity-2="UndrainedUPwSmallStrainElement" data-source-line="28" data-uid="lnk21" id="link_UPwSmallStrainElement_UndrainedUPwSmallStrainElement"><path codeLine="28" d="M686.3256,282.271 C664.3356,299.931 648.13,312.94 626.04,330.68" fill="none" id="UPwSmallStrainElement-backto-UndrainedUPwSmallStrainElement" style="stroke:#181818;stroke-width:1;"/><polygon fill="none" points="700.36,271,682.5686,277.5928,690.0825,286.9491,700.36,271" style="stroke:#181818;stroke-width:1;"/></g><!--reverse link UPwSmallStrainElement to UPwSmallStrainFICElement--><g class="link" data-entity-1="UPwSmallStrainElement" data-entity-2="UPwSmallStrainFICElement" data-source-line="29" data-uid="lnk22" id="link_UPwSmallStrainElement_UPwSmallStrainFICElement"><path codeLine="29" d="M771.4216,282.3241 C793.2416,299.9841 809.26,312.94 831.18,330.68" fill="none" id="UPwSmallStrainElement-backto-UPwSmallStrainFICElement" style="stroke:#181818;stroke-width:1;"/><polygon fill="none" points="757.43,271,767.6469,286.988,775.1963,277.6602,757.43,271" style="stroke:#181818;stroke-width:1;"/></g><!--reverse link UPwSmallStrainFICElement to UPwUpdatedLagrangianFICElement--><g class="link" data-entity-1="UPwSmallStrainFICElement" data-entity-2="UPwUpdatedLagrangianFICElement" data-source-line="30" data-uid="lnk23" id="link_UPwSmallStrainFICElement_UPwUpdatedLagrangianFICElement"><path codeLine="30" d="M860,397 C860,414.66 860,420.94 860,438.68" fill="none" id="UPwSmallStrainFICElement-backto-UPwUpdatedLagrangianFICElement" style="stroke:#181818;stroke-width:1;"/><polygon fill="none" points="860,379,854,397,866,397,860,379" style="stroke:#181818;stroke-width:1;"/></g><!--reverse link UPwSmallStrainElement to UPwUpdatedLagrangianElement--><g class="link" data-entity-1="UPwSmallStrainElement" data-entity-2="UPwUpdatedLagrangianElement" data-source-line="31" data-uid="lnk24" id="link_UPwSmallStrainElement_UPwUpdatedLagrangianElement"><path codeLine="31" d="M830.5537,275.7438 C895.5237,293.4938 967.63,313.19 1032.64,330.95" fill="none" id="UPwSmallStrainElement-backto-UPwUpdatedLagrangianElement" style="stroke:#181818;stroke-width:1;"/><polygon fill="none" points="813.19,271,828.9724,281.5317,832.1349,269.9559,813.19,271" style="stroke:#181818;stroke-width:1;"/></g><!--reverse link UPwBaseElement to SmallStrainUPwDiffOrderElement--><g class="link" data-entity-1="UPwBaseElement" data-entity-2="SmallStrainUPwDiffOrderElement" data-source-line="39" data-uid="lnk27" id="link_UPwBaseElement_SmallStrainUPwDiffOrderElement"><path codeLine="39" d="M1547.1635,166.9935 C1606.6735,184.8135 1673.27,204.76 1733.89,222.91" fill="none" id="UPwBaseElement-backto-SmallStrainUPwDiffOrderElement" style="stroke:#181818;stroke-width:1;"/><polygon fill="none" points="1529.92,161.83,1545.4423,172.7413,1548.8847,161.2457,1529.92,161.83" style="stroke:#181818;stroke-width:1;"/></g><!--reverse link SmallStrainUPwDiffOrderElement to UpdatedLagrangianUPwDiffOrderElement--><g class="link" data-entity-1="SmallStrainUPwDiffOrderElement" data-entity-2="UpdatedLagrangianUPwDiffOrderElement" data-source-line="40" data-uid="lnk28" id="link_SmallStrainUPwDiffOrderElement_UpdatedLagrangianUPwDiffOrderElement"><path codeLine="40" d="M1859.9872,281.0736 C1886.2272,298.7936 1907.43,313.11 1933.73,330.86" fill="none" id="SmallStrainUPwDiffOrderElement-backto-UpdatedLagrangianUPwDiffOrderElement" style="stroke:#181818;stroke-width:1;"/><polygon fill="none" points="1845.07,271,1856.6293,286.046,1863.345,276.1012,1845.07,271" style="stroke:#181818;stroke-width:1;"/></g><!--reverse link UPwBaseElement to UPwSmallStrainInterfaceElement--><g class="link" data-entity-1="UPwBaseElement" data-entity-2="UPwSmallStrainInterfaceElement" data-source-line="42" data-uid="lnk29" id="link_UPwBaseElement_UPwSmallStrainInterfaceElement"><path codeLine="42" d="M1457,181 C1457,198.66 1457,204.94 1457,222.68" fill="none" id="UPwBaseElement-backto-UPwSmallStrainInterfaceElement" style="stroke:#181818;stroke-width:1;"/><polygon fill="none" points="1457,163,1451,181,1463,181,1457,163" style="stroke:#181818;stroke-width:1;"/></g><!--reverse link UPwSmallStrainInterfaceElement to TransientPwInterfaceElement--><g class="link" data-entity-1="UPwSmallStrainInterfaceElement" data-entity-2="TransientPwInterfaceElement" data-source-line="43" data-uid="lnk30" id="link_UPwSmallStrainInterfaceElement_TransientPwInterfaceElement"><path codeLine="43" d="M1429.1045,285.4333 C1415.9445,303.0933 1408.6,312.94 1395.38,330.68" fill="none" id="UPwSmallStrainInterfaceElement-backto-TransientPwInterfaceElement" style="stroke:#181818;stroke-width:1;"/><polygon fill="none" points="1439.86,271,1424.2934,281.8481,1433.9156,289.0184,1439.86,271" style="stroke:#181818;stroke-width:1;"/></g><!--reverse link TransientPwInterfaceElement to SteadyStatePwInterfaceElement--><g class="link" data-entity-1="TransientPwInterfaceElement" data-entity-2="SteadyStatePwInterfaceElement" data-source-line="44" data-uid="lnk31" id="link_TransientPwInterfaceElement_SteadyStatePwInterfaceElement"><path codeLine="44" d="M1378,397 C1378,414.66 1378,420.94 1378,438.68" fill="none" id="TransientPwInterfaceElement-backto-SteadyStatePwInterfaceElement" style="stroke:#181818;stroke-width:1;"/><polygon fill="none" points="1378,379,1372,397,1384,397,1378,379" style="stroke:#181818;stroke-width:1;"/></g><!--reverse link UPwSmallStrainInterfaceElement to UPwSmallStrainLinkInterfaceElement--><g class="link" data-entity-1="UPwSmallStrainInterfaceElement" data-entity-2="UPwSmallStrainLinkInterfaceElement" data-source-line="45" data-uid="lnk32" id="link_UPwSmallStrainInterfaceElement_UPwSmallStrainLinkInterfaceElement"><path codeLine="45" d="M1515.6008,279.5295 C1548.5308,297.2495 1578,313.11 1611,330.86" fill="none" id="UPwSmallStrainInterfaceElement-backto-UPwSmallStrainLinkInterfaceElement" style="stroke:#181818;stroke-width:1;"/><polygon fill="none" points="1499.75,271,1512.7576,284.8131,1518.444,274.2459,1499.75,271" style="stroke:#181818;stroke-width:1;"/></g><!--reverse link Element to InterfaceElement--><g class="link" data-entity-1="Element" data-entity-2="InterfaceElement" data-source-line="48" data-uid="lnk34" id="link_Element_InterfaceElement"><path codeLine="48" d="M1835.5616,55.8245 C1791.7716,73.6745 1739.38,95.04 1690.7,114.88" fill="none" id="Element-backto-InterfaceElement" style="stroke:#181818;stroke-width:1;"/><polygon fill="none" points="1852.23,49.03,1833.2968,50.2684,1837.8264,61.3806,1852.23,49.03" style="stroke:#181818;stroke-width:1;"/></g><!--reverse link Element to PwElement--><g class="link" data-entity-1="Element" data-entity-2="PwElement" data-source-line="54" data-uid="lnk37" id="link_Element_PwElement"><path codeLine="54" d="M1858.8264,67.851 C1841.5064,85.511 1830.28,96.94 1812.88,114.68" fill="none" id="Element-backto-PwElement" style="stroke:#181818;stroke-width:1;"/><polygon fill="none" points="1871.43,55,1854.5427,63.6498,1863.1101,72.0522,1871.43,55" style="stroke:#181818;stroke-width:1;"/></g><!--reverse link Element to GeoSteadyStatePwPipingElement--><g class="link" data-entity-1="Element" data-entity-2="GeoSteadyStatePwPipingElement" data-source-line="55" data-uid="lnk38" id="link_Element_GeoSteadyStatePwPipingElement"><path codeLine="55" d="M1929.4462,67.7893 C1946.9362,85.4493 1958.33,96.94 1975.9,114.68" fill="none" id="Element-backto-GeoSteadyStatePwPipingElement" style="stroke:#181818;stroke-width:1;"/><polygon fill="none" points="1916.78,55,1925.1831,72.0114,1933.7093,63.5673,1916.78,55" style="stroke:#181818;stroke-width:1;"/></g><!--reverse link Element to TransientThermalElement--><g class="link" data-entity-1="Element" data-entity-2="TransientThermalElement" data-source-line="59" data-uid="lnk40" id="link_Element_TransientThermalElement"><path codeLine="59" d="M1952.7932,49.3574 C2011.2132,66.6074 2101.46,93.25 2175.04,114.98" fill="none" id="Element-backto-TransientThermalElement" style="stroke:#181818;stroke-width:1;"/><polygon fill="none" points="1935.53,44.26,1951.094,55.1118,1954.4923,43.603,1935.53,44.26" style="stroke:#181818;stroke-width:1;"/></g><!--reverse link Element to CrBeamElement2D2N_Structural--><g class="link" data-entity-1="Element" data-entity-2="CrBeamElement2D2N_Structural" data-source-line="67" data-uid="lnk44" id="link_Element_CrBeamElement2D2N_Structural"><path codeLine="67" d="M1953.6645,42.3704 C2044.9745,58.2304 2246.95,93.33 2384.82,117.29" fill="none" id="Element-backto-CrBeamElement2D2N_Structural" style="stroke:#181818;stroke-width:1;"/><polygon fill="none" points="1935.93,39.29,1952.6377,48.2819,1954.6913,36.4589,1935.93,39.29" style="stroke:#181818;stroke-width:1;"/></g><!--reverse link CrBeamElement2D2N_Structural to CrBeamElementLinear2D2N_Structural--><g class="link" data-entity-1="CrBeamElement2D2N_Structural" data-entity-2="CrBeamElementLinear2D2N_Structural" data-source-line="68" data-uid="lnk45" id="link_CrBeamElement2D2N_Structural_CrBeamElementLinear2D2N_Structural"><path codeLine="68" d="M2504,181 C2504,198.66 2504,204.94 2504,222.68" fill="none" id="CrBeamElement2D2N_Structural-backto-CrBeamElementLinear2D2N_Structural" style="stroke:#181818;stroke-width:1;"/><polygon fill="none" points="2504,163,2498,181,2510,181,2504,163" style="stroke:#181818;stroke-width:1;"/></g><!--reverse link CrBeamElementLinear2D2N_Structural to GeoCrBeamElementLinear2D2N--><g class="link" data-entity-1="CrBeamElementLinear2D2N_Structural" data-entity-2="GeoCrBeamElementLinear2D2N" data-source-line="69" data-uid="lnk46" id="link_CrBeamElementLinear2D2N_Structural_GeoCrBeamElementLinear2D2N"><path codeLine="69" d="M2504,289 C2504,306.66 2504,312.94 2504,330.68" fill="none" id="CrBeamElementLinear2D2N_Structural-backto-GeoCrBeamElementLinear2D2N" style="stroke:#181818;stroke-width:1;"/><polygon fill="none" points="2504,271,2498,289,2510,289,2504,271" style="stroke:#181818;stroke-width:1;"/></g><!--SRC=[dLHDQyCm3BtdL-IMKrVeSUpKTXk5iWNIiECGiTgQ9MvmNC9WFtvEawRuIoabbrZlwScodfqSbQgRv_cyBa6eSrK-5QTgNfJGD3F6uI2XYgBBCdujiKAXeYZ9qwyXbgVj4XeSeJ6QLL2McPB0nHNiiNKNGaPHTX94m_KwRKqWKmZiDrEWq8PomQQ5JUnjitBWl6PQd6sxniM1mtqailsDK2ZtK62moG33w3R0CKjjkVXnYD7m4x_ypMRsmCpbIF6SOEGDzndaJ8aypw3TK4_rZfwGdl03bHaoIGWOqoZpq0N3ZagwRytt-_XJCfHNQzoaT7O7Nr3B6xQeZ-frm8Gy3GzDFLnyulRGiECh9v_0F4vxgFmzbx8VaHCtTDoi96slpt0pIDWFuJkUZ0vINdDny3y6jrmZF26H9BiZIjsW_P8DOQzcY7JnjpweSw7ESfHSoIL2DN0MwyN7DqtHPumW_KJTJO1hdGPPb08zwVuDJLF60OIs_0y0]--></g></svg>