<svg xmlns="http://www.w3.org/2000/svg" xmlns:xlink="http://www.w3.org/1999/xlink" contentStyleType="text/css" data-diagram-type="CLASS" height="494px" preserveAspectRatio="none" style="width:2131px;height:494px;background:#FFFFFF;" version="1.1" viewBox="0 0 2131 494" width="2131px" zoomAndPan="magnify"><defs/><g><!--class Element--><g class="entity" data-entity="Element" data-source-line="3" data-uid="ent0002" id="entity_Element"><rect fill="#F1F1F1" height="48" rx="2.5" ry="2.5" style="stroke:#181818;stroke-width:0.5;" width="83.3584" x="1334" y="7"/><ellipse cx="1349" cy="23" fill="#ADD1B2" rx="11" ry="11" style="stroke:#181818;stroke-width:1;"/><path d="M1351.7656,18.875 Q1351.9219,18.6563 1352.1094,18.5469 Q1352.2969,18.4375 1352.5156,18.4375 Q1352.8906,18.4375 1353.125,18.7031 Q1353.3594,18.9531 1353.3594,19.5625 L1353.3594,21.0156 Q1353.3594,21.625 1353.125,21.8906 Q1352.8906,22.1563 1352.5156,22.1563 Q1352.1719,22.1563 1351.9688,21.9531 Q1351.7656,21.7656 1351.6563,21.25 Q1351.6094,20.8906 1351.4219,20.7031 Q1351.0938,20.3281 1350.4844,20.1094 Q1349.875,19.8906 1349.25,19.8906 Q1348.4844,19.8906 1347.8438,20.2188 Q1347.2188,20.5469 1346.7188,21.2969 Q1346.2344,22.0469 1346.2344,23.0781 L1346.2344,24.1719 Q1346.2344,25.4063 1347.125,26.2344 Q1348.0156,27.0469 1349.6094,27.0469 Q1350.5469,27.0469 1351.2031,26.7969 Q1351.5938,26.6406 1352.0156,26.2031 Q1352.2813,25.9375 1352.4219,25.8594 Q1352.5781,25.7813 1352.7813,25.7813 Q1353.1094,25.7813 1353.3594,26.0469 Q1353.625,26.2969 1353.625,26.6406 Q1353.625,26.9844 1353.2813,27.3906 Q1352.7813,27.9688 1351.9844,28.2969 Q1350.9063,28.75 1349.6094,28.75 Q1348.0938,28.75 1346.8906,28.125 Q1345.9063,27.625 1345.2188,26.5625 Q1344.5313,25.4844 1344.5313,24.2031 L1344.5313,23.0469 Q1344.5313,21.7188 1345.1406,20.5781 Q1345.7656,19.4219 1346.8594,18.8125 Q1347.9531,18.1875 1349.1875,18.1875 Q1349.9219,18.1875 1350.5625,18.3594 Q1351.2188,18.5156 1351.7656,18.875 Z " fill="#000000"/><text fill="#000000" font-family="sans-serif" font-size="14" lengthAdjust="spacing" textLength="51.3584" x="1363" y="28.7969">Element</text><line style="stroke:#181818;stroke-width:0.5;" x1="1335" x2="1416.3584" y1="39" y2="39"/><line style="stroke:#181818;stroke-width:0.5;" x1="1335" x2="1416.3584" y1="47" y2="47"/></g><!--class UPwBaseElement--><g class="entity" data-entity="UPwBaseElement" data-source-line="6" data-uid="ent0003" id="entity_UPwBaseElement"><rect fill="#F1F1F1" height="48" rx="2.5" ry="2.5" style="stroke:#181818;stroke-width:0.5;" width="144.8271" x="866" y="115"/><ellipse cx="881" cy="131" fill="#ADD1B2" rx="11" ry="11" style="stroke:#181818;stroke-width:1;"/><path d="M883.7656,126.875 Q883.9219,126.6563 884.1094,126.5469 Q884.2969,126.4375 884.5156,126.4375 Q884.8906,126.4375 885.125,126.7031 Q885.3594,126.9531 885.3594,127.5625 L885.3594,129.0156 Q885.3594,129.625 885.125,129.8906 Q884.8906,130.1563 884.5156,130.1563 Q884.1719,130.1563 883.9688,129.9531 Q883.7656,129.7656 883.6563,129.25 Q883.6094,128.8906 883.4219,128.7031 Q883.0938,128.3281 882.4844,128.1094 Q881.875,127.8906 881.25,127.8906 Q880.4844,127.8906 879.8438,128.2188 Q879.2188,128.5469 878.7188,129.2969 Q878.2344,130.0469 878.2344,131.0781 L878.2344,132.1719 Q878.2344,133.4063 879.125,134.2344 Q880.0156,135.0469 881.6094,135.0469 Q882.5469,135.0469 883.2031,134.7969 Q883.5938,134.6406 884.0156,134.2031 Q884.2813,133.9375 884.4219,133.8594 Q884.5781,133.7813 884.7813,133.7813 Q885.1094,133.7813 885.3594,134.0469 Q885.625,134.2969 885.625,134.6406 Q885.625,134.9844 885.2813,135.3906 Q884.7813,135.9688 883.9844,136.2969 Q882.9063,136.75 881.6094,136.75 Q880.0938,136.75 878.8906,136.125 Q877.9063,135.625 877.2188,134.5625 Q876.5313,133.4844 876.5313,132.2031 L876.5313,131.0469 Q876.5313,129.7188 877.1406,128.5781 Q877.7656,127.4219 878.8594,126.8125 Q879.9531,126.1875 881.1875,126.1875 Q881.9219,126.1875 882.5625,126.3594 Q883.2188,126.5156 883.7656,126.875 Z " fill="#000000"/><text fill="#000000" font-family="sans-serif" font-size="14" lengthAdjust="spacing" textLength="112.8271" x="895" y="136.7969">UPwBaseElement</text><line style="stroke:#181818;stroke-width:0.5;" x1="867" x2="1009.8271" y1="147" y2="147"/><line style="stroke:#181818;stroke-width:0.5;" x1="867" x2="1009.8271" y1="155" y2="155"/></g><!--class UPwSmallStrainElement--><g class="entity" data-entity="UPwSmallStrainElement" data-source-line="8" data-uid="ent0004" id="entity_UPwSmallStrainElement"><rect fill="#F1F1F1" height="48" rx="2.5" ry="2.5" style="stroke:#181818;stroke-width:0.5;" width="184.4961" x="378.5" y="223"/><ellipse cx="393.5" cy="239" fill="#ADD1B2" rx="11" ry="11" style="stroke:#181818;stroke-width:1;"/><path d="M396.2656,234.875 Q396.4219,234.6563 396.6094,234.5469 Q396.7969,234.4375 397.0156,234.4375 Q397.3906,234.4375 397.625,234.7031 Q397.8594,234.9531 397.8594,235.5625 L397.8594,237.0156 Q397.8594,237.625 397.625,237.8906 Q397.3906,238.1563 397.0156,238.1563 Q396.6719,238.1563 396.4688,237.9531 Q396.2656,237.7656 396.1563,237.25 Q396.1094,236.8906 395.9219,236.7031 Q395.5938,236.3281 394.9844,236.1094 Q394.375,235.8906 393.75,235.8906 Q392.9844,235.8906 392.3438,236.2188 Q391.7188,236.5469 391.2188,237.2969 Q390.7344,238.0469 390.7344,239.0781 L390.7344,240.1719 Q390.7344,241.4063 391.625,242.2344 Q392.5156,243.0469 394.1094,243.0469 Q395.0469,243.0469 395.7031,242.7969 Q396.0938,242.6406 396.5156,242.2031 Q396.7813,241.9375 396.9219,241.8594 Q397.0781,241.7813 397.2813,241.7813 Q397.6094,241.7813 397.8594,242.0469 Q398.125,242.2969 398.125,242.6406 Q398.125,242.9844 397.7813,243.3906 Q397.2813,243.9688 396.4844,244.2969 Q395.4063,244.75 394.1094,244.75 Q392.5938,244.75 391.3906,244.125 Q390.4063,243.625 389.7188,242.5625 Q389.0313,241.4844 389.0313,240.2031 L389.0313,239.0469 Q389.0313,237.7188 389.6406,236.5781 Q390.2656,235.4219 391.3594,234.8125 Q392.4531,234.1875 393.6875,234.1875 Q394.4219,234.1875 395.0625,234.3594 Q395.7188,234.5156 396.2656,234.875 Z " fill="#000000"/><text fill="#000000" font-family="sans-serif" font-size="14" lengthAdjust="spacing" textLength="152.4961" x="407.5" y="244.7969">UPwSmallStrainElement</text><line style="stroke:#181818;stroke-width:0.5;" x1="379.5" x2="561.9961" y1="255" y2="255"/><line style="stroke:#181818;stroke-width:0.5;" x1="379.5" x2="561.9961" y1="263" y2="263"/></g><!--class TransientPwElement--><g class="entity" data-entity="TransientPwElement" data-source-line="9" data-uid="ent0005" id="entity_TransientPwElement"><rect fill="#F1F1F1" height="48" rx="2.5" ry="2.5" style="stroke:#181818;stroke-width:0.5;" width="161.165" x="33" y="331"/><ellipse cx="48" cy="347" fill="#ADD1B2" rx="11" ry="11" style="stroke:#181818;stroke-width:1;"/><path d="M50.7656,342.875 Q50.9219,342.6563 51.1094,342.5469 Q51.2969,342.4375 51.5156,342.4375 Q51.8906,342.4375 52.125,342.7031 Q52.3594,342.9531 52.3594,343.5625 L52.3594,345.0156 Q52.3594,345.625 52.125,345.8906 Q51.8906,346.1563 51.5156,346.1563 Q51.1719,346.1563 50.9688,345.9531 Q50.7656,345.7656 50.6563,345.25 Q50.6094,344.8906 50.4219,344.7031 Q50.0938,344.3281 49.4844,344.1094 Q48.875,343.8906 48.25,343.8906 Q47.4844,343.8906 46.8438,344.2188 Q46.2188,344.5469 45.7188,345.2969 Q45.2344,346.0469 45.2344,347.0781 L45.2344,348.1719 Q45.2344,349.4063 46.125,350.2344 Q47.0156,351.0469 48.6094,351.0469 Q49.5469,351.0469 50.2031,350.7969 Q50.5938,350.6406 51.0156,350.2031 Q51.2813,349.9375 51.4219,349.8594 Q51.5781,349.7813 51.7813,349.7813 Q52.1094,349.7813 52.3594,350.0469 Q52.625,350.2969 52.625,350.6406 Q52.625,350.9844 52.2813,351.3906 Q51.7813,351.9688 50.9844,352.2969 Q49.9063,352.75 48.6094,352.75 Q47.0938,352.75 45.8906,352.125 Q44.9063,351.625 44.2188,350.5625 Q43.5313,349.4844 43.5313,348.2031 L43.5313,347.0469 Q43.5313,345.7188 44.1406,344.5781 Q44.7656,343.4219 45.8594,342.8125 Q46.9531,342.1875 48.1875,342.1875 Q48.9219,342.1875 49.5625,342.3594 Q50.2188,342.5156 50.7656,342.875 Z " fill="#000000"/><text fill="#000000" font-family="sans-serif" font-size="14" lengthAdjust="spacing" textLength="129.165" x="62" y="352.7969">TransientPwElement</text><line style="stroke:#181818;stroke-width:0.5;" x1="34" x2="193.165" y1="363" y2="363"/><line style="stroke:#181818;stroke-width:0.5;" x1="34" x2="193.165" y1="371" y2="371"/></g><!--class SteadyStatePwElement--><g class="entity" data-entity="SteadyStatePwElement" data-source-line="10" data-uid="ent0006" id="entity_SteadyStatePwElement"><rect fill="#F1F1F1" height="48" rx="2.5" ry="2.5" style="stroke:#181818;stroke-width:0.5;" width="179.082" x="7" y="439"/><ellipse cx="22" cy="455" fill="#ADD1B2" rx="11" ry="11" style="stroke:#181818;stroke-width:1;"/><path d="M24.7656,450.875 Q24.9219,450.6563 25.1094,450.5469 Q25.2969,450.4375 25.5156,450.4375 Q25.8906,450.4375 26.125,450.7031 Q26.3594,450.9531 26.3594,451.5625 L26.3594,453.0156 Q26.3594,453.625 26.125,453.8906 Q25.8906,454.1563 25.5156,454.1563 Q25.1719,454.1563 24.9688,453.9531 Q24.7656,453.7656 24.6563,453.25 Q24.6094,452.8906 24.4219,452.7031 Q24.0938,452.3281 23.4844,452.1094 Q22.875,451.8906 22.25,451.8906 Q21.4844,451.8906 20.8438,452.2188 Q20.2188,452.5469 19.7188,453.2969 Q19.2344,454.0469 19.2344,455.0781 L19.2344,456.1719 Q19.2344,457.4063 20.125,458.2344 Q21.0156,459.0469 22.6094,459.0469 Q23.5469,459.0469 24.2031,458.7969 Q24.5938,458.6406 25.0156,458.2031 Q25.2813,457.9375 25.4219,457.8594 Q25.5781,457.7813 25.7813,457.7813 Q26.1094,457.7813 26.3594,458.0469 Q26.625,458.2969 26.625,458.6406 Q26.625,458.9844 26.2813,459.3906 Q25.7813,459.9688 24.9844,460.2969 Q23.9063,460.75 22.6094,460.75 Q21.0938,460.75 19.8906,460.125 Q18.9063,459.625 18.2188,458.5625 Q17.5313,457.4844 17.5313,456.2031 L17.5313,455.0469 Q17.5313,453.7188 18.1406,452.5781 Q18.7656,451.4219 19.8594,450.8125 Q20.9531,450.1875 22.1875,450.1875 Q22.9219,450.1875 23.5625,450.3594 Q24.2188,450.5156 24.7656,450.875 Z " fill="#000000"/><text fill="#000000" font-family="sans-serif" font-size="14" lengthAdjust="spacing" textLength="147.082" x="36" y="460.7969">SteadyStatePwElement</text><line style="stroke:#181818;stroke-width:0.5;" x1="8" x2="185.082" y1="471" y2="471"/><line style="stroke:#181818;stroke-width:0.5;" x1="8" x2="185.082" y1="479" y2="479"/></g><!--class UPwSmallStrainFICElement--><g class="entity" data-entity="UPwSmallStrainFICElement" data-source-line="11" data-uid="ent0007" id="entity_UPwSmallStrainFICElement"><rect fill="#F1F1F1" height="48" rx="2.5" ry="2.5" style="stroke:#181818;stroke-width:0.5;" width="207.0479" x="238" y="331"/><ellipse cx="253" cy="347" fill="#ADD1B2" rx="11" ry="11" style="stroke:#181818;stroke-width:1;"/><path d="M255.7656,342.875 Q255.9219,342.6563 256.1094,342.5469 Q256.2969,342.4375 256.5156,342.4375 Q256.8906,342.4375 257.125,342.7031 Q257.3594,342.9531 257.3594,343.5625 L257.3594,345.0156 Q257.3594,345.625 257.125,345.8906 Q256.8906,346.1563 256.5156,346.1563 Q256.1719,346.1563 255.9688,345.9531 Q255.7656,345.7656 255.6563,345.25 Q255.6094,344.8906 255.4219,344.7031 Q255.0938,344.3281 254.4844,344.1094 Q253.875,343.8906 253.25,343.8906 Q252.4844,343.8906 251.8438,344.2188 Q251.2188,344.5469 250.7188,345.2969 Q250.2344,346.0469 250.2344,347.0781 L250.2344,348.1719 Q250.2344,349.4063 251.125,350.2344 Q252.0156,351.0469 253.6094,351.0469 Q254.5469,351.0469 255.2031,350.7969 Q255.5938,350.6406 256.0156,350.2031 Q256.2813,349.9375 256.4219,349.8594 Q256.5781,349.7813 256.7813,349.7813 Q257.1094,349.7813 257.3594,350.0469 Q257.625,350.2969 257.625,350.6406 Q257.625,350.9844 257.2813,351.3906 Q256.7813,351.9688 255.9844,352.2969 Q254.9063,352.75 253.6094,352.75 Q252.0938,352.75 250.8906,352.125 Q249.9063,351.625 249.2188,350.5625 Q248.5313,349.4844 248.5313,348.2031 L248.5313,347.0469 Q248.5313,345.7188 249.1406,344.5781 Q249.7656,343.4219 250.8594,342.8125 Q251.9531,342.1875 253.1875,342.1875 Q253.9219,342.1875 254.5625,342.3594 Q255.2188,342.5156 255.7656,342.875 Z " fill="#000000"/><text fill="#000000" font-family="sans-serif" font-size="14" lengthAdjust="spacing" textLength="175.0479" x="267" y="352.7969">UPwSmallStrainFICElement</text><line style="stroke:#181818;stroke-width:0.5;" x1="239" x2="444.0479" y1="363" y2="363"/><line style="stroke:#181818;stroke-width:0.5;" x1="239" x2="444.0479" y1="371" y2="371"/></g><!--class UPwUpdatedLagrangianFICElement--><g class="entity" data-entity="UPwUpdatedLagrangianFICElement" data-source-line="12" data-uid="ent0008" id="entity_UPwUpdatedLagrangianFICElement"><rect fill="#F1F1F1" height="48" rx="2.5" ry="2.5" style="stroke:#181818;stroke-width:0.5;" width="258.4609" x="221.5" y="439"/><ellipse cx="236.5" cy="455" fill="#ADD1B2" rx="11" ry="11" style="stroke:#181818;stroke-width:1;"/><path d="M239.2656,450.875 Q239.4219,450.6563 239.6094,450.5469 Q239.7969,450.4375 240.0156,450.4375 Q240.3906,450.4375 240.625,450.7031 Q240.8594,450.9531 240.8594,451.5625 L240.8594,453.0156 Q240.8594,453.625 240.625,453.8906 Q240.3906,454.1563 240.0156,454.1563 Q239.6719,454.1563 239.4688,453.9531 Q239.2656,453.7656 239.1563,453.25 Q239.1094,452.8906 238.9219,452.7031 Q238.5938,452.3281 237.9844,452.1094 Q237.375,451.8906 236.75,451.8906 Q235.9844,451.8906 235.3438,452.2188 Q234.7188,452.5469 234.2188,453.2969 Q233.7344,454.0469 233.7344,455.0781 L233.7344,456.1719 Q233.7344,457.4063 234.625,458.2344 Q235.5156,459.0469 237.1094,459.0469 Q238.0469,459.0469 238.7031,458.7969 Q239.0938,458.6406 239.5156,458.2031 Q239.7813,457.9375 239.9219,457.8594 Q240.0781,457.7813 240.2813,457.7813 Q240.6094,457.7813 240.8594,458.0469 Q241.125,458.2969 241.125,458.6406 Q241.125,458.9844 240.7813,459.3906 Q240.2813,459.9688 239.4844,460.2969 Q238.4063,460.75 237.1094,460.75 Q235.5938,460.75 234.3906,460.125 Q233.4063,459.625 232.7188,458.5625 Q232.0313,457.4844 232.0313,456.2031 L232.0313,455.0469 Q232.0313,453.7188 232.6406,452.5781 Q233.2656,451.4219 234.3594,450.8125 Q235.4531,450.1875 236.6875,450.1875 Q237.4219,450.1875 238.0625,450.3594 Q238.7188,450.5156 239.2656,450.875 Z " fill="#000000"/><text fill="#000000" font-family="sans-serif" font-size="14" lengthAdjust="spacing" textLength="226.4609" x="250.5" y="460.7969">UPwUpdatedLagrangianFICElement</text><line style="stroke:#181818;stroke-width:0.5;" x1="222.5" x2="478.9609" y1="471" y2="471"/><line style="stroke:#181818;stroke-width:0.5;" x1="222.5" x2="478.9609" y1="479" y2="479"/></g><!--class UPwUpdatedLagrangianElement--><g class="entity" data-entity="UPwUpdatedLagrangianElement" data-source-line="13" data-uid="ent0009" id="entity_UPwUpdatedLagrangianElement"><rect fill="#F1F1F1" height="48" rx="2.5" ry="2.5" style="stroke:#181818;stroke-width:0.5;" width="235.9092" x="480.5" y="331"/><ellipse cx="495.5" cy="347" fill="#ADD1B2" rx="11" ry="11" style="stroke:#181818;stroke-width:1;"/><path d="M498.2656,342.875 Q498.4219,342.6563 498.6094,342.5469 Q498.7969,342.4375 499.0156,342.4375 Q499.3906,342.4375 499.625,342.7031 Q499.8594,342.9531 499.8594,343.5625 L499.8594,345.0156 Q499.8594,345.625 499.625,345.8906 Q499.3906,346.1563 499.0156,346.1563 Q498.6719,346.1563 498.4688,345.9531 Q498.2656,345.7656 498.1563,345.25 Q498.1094,344.8906 497.9219,344.7031 Q497.5938,344.3281 496.9844,344.1094 Q496.375,343.8906 495.75,343.8906 Q494.9844,343.8906 494.3438,344.2188 Q493.7188,344.5469 493.2188,345.2969 Q492.7344,346.0469 492.7344,347.0781 L492.7344,348.1719 Q492.7344,349.4063 493.625,350.2344 Q494.5156,351.0469 496.1094,351.0469 Q497.0469,351.0469 497.7031,350.7969 Q498.0938,350.6406 498.5156,350.2031 Q498.7813,349.9375 498.9219,349.8594 Q499.0781,349.7813 499.2813,349.7813 Q499.6094,349.7813 499.8594,350.0469 Q500.125,350.2969 500.125,350.6406 Q500.125,350.9844 499.7813,351.3906 Q499.2813,351.9688 498.4844,352.2969 Q497.4063,352.75 496.1094,352.75 Q494.5938,352.75 493.3906,352.125 Q492.4063,351.625 491.7188,350.5625 Q491.0313,349.4844 491.0313,348.2031 L491.0313,347.0469 Q491.0313,345.7188 491.6406,344.5781 Q492.2656,343.4219 493.3594,342.8125 Q494.4531,342.1875 495.6875,342.1875 Q496.4219,342.1875 497.0625,342.3594 Q497.7188,342.5156 498.2656,342.875 Z " fill="#000000"/><text fill="#000000" font-family="sans-serif" font-size="14" lengthAdjust="spacing" textLength="203.9092" x="509.5" y="352.7969">UPwUpdatedLagrangianElement</text><line style="stroke:#181818;stroke-width:0.5;" x1="481.5" x2="715.4092" y1="363" y2="363"/><line style="stroke:#181818;stroke-width:0.5;" x1="481.5" x2="715.4092" y1="371" y2="371"/></g><!--class UPwSmallStrainInterfaceElement--><g class="entity" data-entity="UPwSmallStrainInterfaceElement" data-source-line="15" data-uid="ent0010" id="entity_UPwSmallStrainInterfaceElement"><rect fill="#F1F1F1" height="48" rx="2.5" ry="2.5" style="stroke:#181818;stroke-width:0.5;" width="238.9717" x="819" y="223"/><ellipse cx="834" cy="239" fill="#ADD1B2" rx="11" ry="11" style="stroke:#181818;stroke-width:1;"/><path d="M836.7656,234.875 Q836.9219,234.6563 837.1094,234.5469 Q837.2969,234.4375 837.5156,234.4375 Q837.8906,234.4375 838.125,234.7031 Q838.3594,234.9531 838.3594,235.5625 L838.3594,237.0156 Q838.3594,237.625 838.125,237.8906 Q837.8906,238.1563 837.5156,238.1563 Q837.1719,238.1563 836.9688,237.9531 Q836.7656,237.7656 836.6563,237.25 Q836.6094,236.8906 836.4219,236.7031 Q836.0938,236.3281 835.4844,236.1094 Q834.875,235.8906 834.25,235.8906 Q833.4844,235.8906 832.8438,236.2188 Q832.2188,236.5469 831.7188,237.2969 Q831.2344,238.0469 831.2344,239.0781 L831.2344,240.1719 Q831.2344,241.4063 832.125,242.2344 Q833.0156,243.0469 834.6094,243.0469 Q835.5469,243.0469 836.2031,242.7969 Q836.5938,242.6406 837.0156,242.2031 Q837.2813,241.9375 837.4219,241.8594 Q837.5781,241.7813 837.7813,241.7813 Q838.1094,241.7813 838.3594,242.0469 Q838.625,242.2969 838.625,242.6406 Q838.625,242.9844 838.2813,243.3906 Q837.7813,243.9688 836.9844,244.2969 Q835.9063,244.75 834.6094,244.75 Q833.0938,244.75 831.8906,244.125 Q830.9063,243.625 830.2188,242.5625 Q829.5313,241.4844 829.5313,240.2031 L829.5313,239.0469 Q829.5313,237.7188 830.1406,236.5781 Q830.7656,235.4219 831.8594,234.8125 Q832.9531,234.1875 834.1875,234.1875 Q834.9219,234.1875 835.5625,234.3594 Q836.2188,234.5156 836.7656,234.875 Z " fill="#000000"/><text fill="#000000" font-family="sans-serif" font-size="14" lengthAdjust="spacing" textLength="206.9717" x="848" y="244.7969">UPwSmallStrainInterfaceElement</text><line style="stroke:#181818;stroke-width:0.5;" x1="820" x2="1056.9717" y1="255" y2="255"/><line style="stroke:#181818;stroke-width:0.5;" x1="820" x2="1056.9717" y1="263" y2="263"/></g><!--class TransientPwInterfaceElement--><g class="entity" data-entity="TransientPwInterfaceElement" data-source-line="16" data-uid="ent0011" id="entity_TransientPwInterfaceElement"><rect fill="#F1F1F1" height="48" rx="2.5" ry="2.5" style="stroke:#181818;stroke-width:0.5;" width="215.6406" x="751.5" y="331"/><ellipse cx="766.5" cy="347" fill="#ADD1B2" rx="11" ry="11" style="stroke:#181818;stroke-width:1;"/><path d="M769.2656,342.875 Q769.4219,342.6563 769.6094,342.5469 Q769.7969,342.4375 770.0156,342.4375 Q770.3906,342.4375 770.625,342.7031 Q770.8594,342.9531 770.8594,343.5625 L770.8594,345.0156 Q770.8594,345.625 770.625,345.8906 Q770.3906,346.1563 770.0156,346.1563 Q769.6719,346.1563 769.4688,345.9531 Q769.2656,345.7656 769.1563,345.25 Q769.1094,344.8906 768.9219,344.7031 Q768.5938,344.3281 767.9844,344.1094 Q767.375,343.8906 766.75,343.8906 Q765.9844,343.8906 765.3438,344.2188 Q764.7188,344.5469 764.2188,345.2969 Q763.7344,346.0469 763.7344,347.0781 L763.7344,348.1719 Q763.7344,349.4063 764.625,350.2344 Q765.5156,351.0469 767.1094,351.0469 Q768.0469,351.0469 768.7031,350.7969 Q769.0938,350.6406 769.5156,350.2031 Q769.7813,349.9375 769.9219,349.8594 Q770.0781,349.7813 770.2813,349.7813 Q770.6094,349.7813 770.8594,350.0469 Q771.125,350.2969 771.125,350.6406 Q771.125,350.9844 770.7813,351.3906 Q770.2813,351.9688 769.4844,352.2969 Q768.4063,352.75 767.1094,352.75 Q765.5938,352.75 764.3906,352.125 Q763.4063,351.625 762.7188,350.5625 Q762.0313,349.4844 762.0313,348.2031 L762.0313,347.0469 Q762.0313,345.7188 762.6406,344.5781 Q763.2656,343.4219 764.3594,342.8125 Q765.4531,342.1875 766.6875,342.1875 Q767.4219,342.1875 768.0625,342.3594 Q768.7188,342.5156 769.2656,342.875 Z " fill="#000000"/><text fill="#000000" font-family="sans-serif" font-size="14" lengthAdjust="spacing" textLength="183.6406" x="780.5" y="352.7969">TransientPwInterfaceElement</text><line style="stroke:#181818;stroke-width:0.5;" x1="752.5" x2="966.1406" y1="363" y2="363"/><line style="stroke:#181818;stroke-width:0.5;" x1="752.5" x2="966.1406" y1="371" y2="371"/></g><!--class SteadyStatePwInterfaceElement--><g class="entity" data-entity="SteadyStatePwInterfaceElement" data-source-line="17" data-uid="ent0012" id="entity_SteadyStatePwInterfaceElement"><rect fill="#F1F1F1" height="48" rx="2.5" ry="2.5" style="stroke:#181818;stroke-width:0.5;" width="233.5576" x="742.5" y="439"/><ellipse cx="757.5" cy="455" fill="#ADD1B2" rx="11" ry="11" style="stroke:#181818;stroke-width:1;"/><path d="M760.2656,450.875 Q760.4219,450.6563 760.6094,450.5469 Q760.7969,450.4375 761.0156,450.4375 Q761.3906,450.4375 761.625,450.7031 Q761.8594,450.9531 761.8594,451.5625 L761.8594,453.0156 Q761.8594,453.625 761.625,453.8906 Q761.3906,454.1563 761.0156,454.1563 Q760.6719,454.1563 760.4688,453.9531 Q760.2656,453.7656 760.1563,453.25 Q760.1094,452.8906 759.9219,452.7031 Q759.5938,452.3281 758.9844,452.1094 Q758.375,451.8906 757.75,451.8906 Q756.9844,451.8906 756.3438,452.2188 Q755.7188,452.5469 755.2188,453.2969 Q754.7344,454.0469 754.7344,455.0781 L754.7344,456.1719 Q754.7344,457.4063 755.625,458.2344 Q756.5156,459.0469 758.1094,459.0469 Q759.0469,459.0469 759.7031,458.7969 Q760.0938,458.6406 760.5156,458.2031 Q760.7813,457.9375 760.9219,457.8594 Q761.0781,457.7813 761.2813,457.7813 Q761.6094,457.7813 761.8594,458.0469 Q762.125,458.2969 762.125,458.6406 Q762.125,458.9844 761.7813,459.3906 Q761.2813,459.9688 760.4844,460.2969 Q759.4063,460.75 758.1094,460.75 Q756.5938,460.75 755.3906,460.125 Q754.4063,459.625 753.7188,458.5625 Q753.0313,457.4844 753.0313,456.2031 L753.0313,455.0469 Q753.0313,453.7188 753.6406,452.5781 Q754.2656,451.4219 755.3594,450.8125 Q756.4531,450.1875 757.6875,450.1875 Q758.4219,450.1875 759.0625,450.3594 Q759.7188,450.5156 760.2656,450.875 Z " fill="#000000"/><text fill="#000000" font-family="sans-serif" font-size="14" lengthAdjust="spacing" textLength="201.5576" x="771.5" y="460.7969">SteadyStatePwInterfaceElement</text><line style="stroke:#181818;stroke-width:0.5;" x1="743.5" x2="975.0576" y1="471" y2="471"/><line style="stroke:#181818;stroke-width:0.5;" x1="743.5" x2="975.0576" y1="479" y2="479"/></g><!--class UPwSmallStrainLinkInterfaceElement--><g class="entity" data-entity="UPwSmallStrainLinkInterfaceElement" data-source-line="18" data-uid="ent0013" id="entity_UPwSmallStrainLinkInterfaceElement"><rect fill="#F1F1F1" height="48" rx="2.5" ry="2.5" style="stroke:#181818;stroke-width:0.5;" width="264.6543" x="1003" y="331"/><ellipse cx="1018" cy="347" fill="#ADD1B2" rx="11" ry="11" style="stroke:#181818;stroke-width:1;"/><path d="M1020.7656,342.875 Q1020.9219,342.6563 1021.1094,342.5469 Q1021.2969,342.4375 1021.5156,342.4375 Q1021.8906,342.4375 1022.125,342.7031 Q1022.3594,342.9531 1022.3594,343.5625 L1022.3594,345.0156 Q1022.3594,345.625 1022.125,345.8906 Q1021.8906,346.1563 1021.5156,346.1563 Q1021.1719,346.1563 1020.9688,345.9531 Q1020.7656,345.7656 1020.6563,345.25 Q1020.6094,344.8906 1020.4219,344.7031 Q1020.0938,344.3281 1019.4844,344.1094 Q1018.875,343.8906 1018.25,343.8906 Q1017.4844,343.8906 1016.8438,344.2188 Q1016.2188,344.5469 1015.7188,345.2969 Q1015.2344,346.0469 1015.2344,347.0781 L1015.2344,348.1719 Q1015.2344,349.4063 1016.125,350.2344 Q1017.0156,351.0469 1018.6094,351.0469 Q1019.5469,351.0469 1020.2031,350.7969 Q1020.5938,350.6406 1021.0156,350.2031 Q1021.2813,349.9375 1021.4219,349.8594 Q1021.5781,349.7813 1021.7813,349.7813 Q1022.1094,349.7813 1022.3594,350.0469 Q1022.625,350.2969 1022.625,350.6406 Q1022.625,350.9844 1022.2813,351.3906 Q1021.7813,351.9688 1020.9844,352.2969 Q1019.9063,352.75 1018.6094,352.75 Q1017.0938,352.75 1015.8906,352.125 Q1014.9063,351.625 1014.2188,350.5625 Q1013.5313,349.4844 1013.5313,348.2031 L1013.5313,347.0469 Q1013.5313,345.7188 1014.1406,344.5781 Q1014.7656,343.4219 1015.8594,342.8125 Q1016.9531,342.1875 1018.1875,342.1875 Q1018.9219,342.1875 1019.5625,342.3594 Q1020.2188,342.5156 1020.7656,342.875 Z " fill="#000000"/><text fill="#000000" font-family="sans-serif" font-size="14" lengthAdjust="spacing" textLength="232.6543" x="1032" y="352.7969">UPwSmallStrainLinkInterfaceElement</text><line style="stroke:#181818;stroke-width:0.5;" x1="1004" x2="1266.6543" y1="363" y2="363"/><line style="stroke:#181818;stroke-width:0.5;" x1="1004" x2="1266.6543" y1="371" y2="371"/></g><!--class SmallStrainUPwDiffOrderElement--><g class="entity" data-entity="SmallStrainUPwDiffOrderElement" data-source-line="32" data-uid="ent0021" id="entity_SmallStrainUPwDiffOrderElement"><rect fill="#F1F1F1" height="48" rx="2.5" ry="2.5" style="stroke:#181818;stroke-width:0.5;" width="241.2822" x="1172" y="223"/><ellipse cx="1187" cy="239" fill="#ADD1B2" rx="11" ry="11" style="stroke:#181818;stroke-width:1;"/><path d="M1189.7656,234.875 Q1189.9219,234.6563 1190.1094,234.5469 Q1190.2969,234.4375 1190.5156,234.4375 Q1190.8906,234.4375 1191.125,234.7031 Q1191.3594,234.9531 1191.3594,235.5625 L1191.3594,237.0156 Q1191.3594,237.625 1191.125,237.8906 Q1190.8906,238.1563 1190.5156,238.1563 Q1190.1719,238.1563 1189.9688,237.9531 Q1189.7656,237.7656 1189.6563,237.25 Q1189.6094,236.8906 1189.4219,236.7031 Q1189.0938,236.3281 1188.4844,236.1094 Q1187.875,235.8906 1187.25,235.8906 Q1186.4844,235.8906 1185.8438,236.2188 Q1185.2188,236.5469 1184.7188,237.2969 Q1184.2344,238.0469 1184.2344,239.0781 L1184.2344,240.1719 Q1184.2344,241.4063 1185.125,242.2344 Q1186.0156,243.0469 1187.6094,243.0469 Q1188.5469,243.0469 1189.2031,242.7969 Q1189.5938,242.6406 1190.0156,242.2031 Q1190.2813,241.9375 1190.4219,241.8594 Q1190.5781,241.7813 1190.7813,241.7813 Q1191.1094,241.7813 1191.3594,242.0469 Q1191.625,242.2969 1191.625,242.6406 Q1191.625,242.9844 1191.2813,243.3906 Q1190.7813,243.9688 1189.9844,244.2969 Q1188.9063,244.75 1187.6094,244.75 Q1186.0938,244.75 1184.8906,244.125 Q1183.9063,243.625 1183.2188,242.5625 Q1182.5313,241.4844 1182.5313,240.2031 L1182.5313,239.0469 Q1182.5313,237.7188 1183.1406,236.5781 Q1183.7656,235.4219 1184.8594,234.8125 Q1185.9531,234.1875 1187.1875,234.1875 Q1187.9219,234.1875 1188.5625,234.3594 Q1189.2188,234.5156 1189.7656,234.875 Z " fill="#000000"/><text fill="#000000" font-family="sans-serif" font-size="14" lengthAdjust="spacing" textLength="209.2822" x="1201" y="244.7969">SmallStrainUPwDiffOrderElement</text><line style="stroke:#181818;stroke-width:0.5;" x1="1173" x2="1412.2822" y1="255" y2="255"/><line style="stroke:#181818;stroke-width:0.5;" x1="1173" x2="1412.2822" y1="263" y2="263"/></g><!--class UpdatedLagrangianUPwDiffOrderElement--><g class="entity" data-entity="UpdatedLagrangianUPwDiffOrderElement" data-source-line="33" data-uid="ent0022" id="entity_UpdatedLagrangianUPwDiffOrderElement"><rect fill="#F1F1F1" height="48" rx="2.5" ry="2.5" style="stroke:#181818;stroke-width:0.5;" width="292.6953" x="1303" y="331"/><ellipse cx="1318" cy="347" fill="#ADD1B2" rx="11" ry="11" style="stroke:#181818;stroke-width:1;"/><path d="M1320.7656,342.875 Q1320.9219,342.6563 1321.1094,342.5469 Q1321.2969,342.4375 1321.5156,342.4375 Q1321.8906,342.4375 1322.125,342.7031 Q1322.3594,342.9531 1322.3594,343.5625 L1322.3594,345.0156 Q1322.3594,345.625 1322.125,345.8906 Q1321.8906,346.1563 1321.5156,346.1563 Q1321.1719,346.1563 1320.9688,345.9531 Q1320.7656,345.7656 1320.6563,345.25 Q1320.6094,344.8906 1320.4219,344.7031 Q1320.0938,344.3281 1319.4844,344.1094 Q1318.875,343.8906 1318.25,343.8906 Q1317.4844,343.8906 1316.8438,344.2188 Q1316.2188,344.5469 1315.7188,345.2969 Q1315.2344,346.0469 1315.2344,347.0781 L1315.2344,348.1719 Q1315.2344,349.4063 1316.125,350.2344 Q1317.0156,351.0469 1318.6094,351.0469 Q1319.5469,351.0469 1320.2031,350.7969 Q1320.5938,350.6406 1321.0156,350.2031 Q1321.2813,349.9375 1321.4219,349.8594 Q1321.5781,349.7813 1321.7813,349.7813 Q1322.1094,349.7813 1322.3594,350.0469 Q1322.625,350.2969 1322.625,350.6406 Q1322.625,350.9844 1322.2813,351.3906 Q1321.7813,351.9688 1320.9844,352.2969 Q1319.9063,352.75 1318.6094,352.75 Q1317.0938,352.75 1315.8906,352.125 Q1314.9063,351.625 1314.2188,350.5625 Q1313.5313,349.4844 1313.5313,348.2031 L1313.5313,347.0469 Q1313.5313,345.7188 1314.1406,344.5781 Q1314.7656,343.4219 1315.8594,342.8125 Q1316.9531,342.1875 1318.1875,342.1875 Q1318.9219,342.1875 1319.5625,342.3594 Q1320.2188,342.5156 1320.7656,342.875 Z " fill="#000000"/><text fill="#000000" font-family="sans-serif" font-size="14" lengthAdjust="spacing" textLength="260.6953" x="1332" y="352.7969">UpdatedLagrangianUPwDiffOrderElement</text><line style="stroke:#181818;stroke-width:0.5;" x1="1304" x2="1594.6953" y1="363" y2="363"/><line style="stroke:#181818;stroke-width:0.5;" x1="1304" x2="1594.6953" y1="371" y2="371"/></g><!--class InterfaceElement--><g class="entity" data-entity="InterfaceElement" data-source-line="43" data-uid="ent0029" id="entity_InterfaceElement"><rect fill="#F1F1F1" height="48" rx="2.5" ry="2.5" style="stroke:#181818;stroke-width:0.5;" width="137.834" x="1046.5" y="115"/><ellipse cx="1061.5" cy="131" fill="#ADD1B2" rx="11" ry="11" style="stroke:#181818;stroke-width:1;"/><path d="M1064.2656,126.875 Q1064.4219,126.6563 1064.6094,126.5469 Q1064.7969,126.4375 1065.0156,126.4375 Q1065.3906,126.4375 1065.625,126.7031 Q1065.8594,126.9531 1065.8594,127.5625 L1065.8594,129.0156 Q1065.8594,129.625 1065.625,129.8906 Q1065.3906,130.1563 1065.0156,130.1563 Q1064.6719,130.1563 1064.4688,129.9531 Q1064.2656,129.7656 1064.1563,129.25 Q1064.1094,128.8906 1063.9219,128.7031 Q1063.5938,128.3281 1062.9844,128.1094 Q1062.375,127.8906 1061.75,127.8906 Q1060.9844,127.8906 1060.3438,128.2188 Q1059.7188,128.5469 1059.2188,129.2969 Q1058.7344,130.0469 1058.7344,131.0781 L1058.7344,132.1719 Q1058.7344,133.4063 1059.625,134.2344 Q1060.5156,135.0469 1062.1094,135.0469 Q1063.0469,135.0469 1063.7031,134.7969 Q1064.0938,134.6406 1064.5156,134.2031 Q1064.7813,133.9375 1064.9219,133.8594 Q1065.0781,133.7813 1065.2813,133.7813 Q1065.6094,133.7813 1065.8594,134.0469 Q1066.125,134.2969 1066.125,134.6406 Q1066.125,134.9844 1065.7813,135.3906 Q1065.2813,135.9688 1064.4844,136.2969 Q1063.4063,136.75 1062.1094,136.75 Q1060.5938,136.75 1059.3906,136.125 Q1058.4063,135.625 1057.7188,134.5625 Q1057.0313,133.4844 1057.0313,132.2031 L1057.0313,131.0469 Q1057.0313,129.7188 1057.6406,128.5781 Q1058.2656,127.4219 1059.3594,126.8125 Q1060.4531,126.1875 1061.6875,126.1875 Q1062.4219,126.1875 1063.0625,126.3594 Q1063.7188,126.5156 1064.2656,126.875 Z " fill="#000000"/><text fill="#000000" font-family="sans-serif" font-size="14" lengthAdjust="spacing" textLength="105.834" x="1075.5" y="136.7969">InterfaceElement</text><line style="stroke:#181818;stroke-width:0.5;" x1="1047.5" x2="1183.334" y1="147" y2="147"/><line style="stroke:#181818;stroke-width:0.5;" x1="1047.5" x2="1183.334" y1="155" y2="155"/></g><!--class PwElement--><g class="entity" data-entity="PwElement" data-source-line="47" data-uid="ent0031" id="entity_PwElement"><rect fill="#F1F1F1" height="48" rx="2.5" ry="2.5" style="stroke:#181818;stroke-width:0.5;" width="102.8066" x="1220" y="115"/><ellipse cx="1235" cy="131" fill="#ADD1B2" rx="11" ry="11" style="stroke:#181818;stroke-width:1;"/><path d="M1237.7656,126.875 Q1237.9219,126.6563 1238.1094,126.5469 Q1238.2969,126.4375 1238.5156,126.4375 Q1238.8906,126.4375 1239.125,126.7031 Q1239.3594,126.9531 1239.3594,127.5625 L1239.3594,129.0156 Q1239.3594,129.625 1239.125,129.8906 Q1238.8906,130.1563 1238.5156,130.1563 Q1238.1719,130.1563 1237.9688,129.9531 Q1237.7656,129.7656 1237.6563,129.25 Q1237.6094,128.8906 1237.4219,128.7031 Q1237.0938,128.3281 1236.4844,128.1094 Q1235.875,127.8906 1235.25,127.8906 Q1234.4844,127.8906 1233.8438,128.2188 Q1233.2188,128.5469 1232.7188,129.2969 Q1232.2344,130.0469 1232.2344,131.0781 L1232.2344,132.1719 Q1232.2344,133.4063 1233.125,134.2344 Q1234.0156,135.0469 1235.6094,135.0469 Q1236.5469,135.0469 1237.2031,134.7969 Q1237.5938,134.6406 1238.0156,134.2031 Q1238.2813,133.9375 1238.4219,133.8594 Q1238.5781,133.7813 1238.7813,133.7813 Q1239.1094,133.7813 1239.3594,134.0469 Q1239.625,134.2969 1239.625,134.6406 Q1239.625,134.9844 1239.2813,135.3906 Q1238.7813,135.9688 1237.9844,136.2969 Q1236.9063,136.75 1235.6094,136.75 Q1234.0938,136.75 1232.8906,136.125 Q1231.9063,135.625 1231.2188,134.5625 Q1230.5313,133.4844 1230.5313,132.2031 L1230.5313,131.0469 Q1230.5313,129.7188 1231.1406,128.5781 Q1231.7656,127.4219 1232.8594,126.8125 Q1233.9531,126.1875 1235.1875,126.1875 Q1235.9219,126.1875 1236.5625,126.3594 Q1237.2188,126.5156 1237.7656,126.875 Z " fill="#000000"/><text fill="#000000" font-family="sans-serif" font-size="14" lengthAdjust="spacing" textLength="70.8066" x="1249" y="136.7969">PwElement</text><line style="stroke:#181818;stroke-width:0.5;" x1="1221" x2="1321.8066" y1="147" y2="147"/><line style="stroke:#181818;stroke-width:0.5;" x1="1221" x2="1321.8066" y1="155" y2="155"/></g><!--class GeoSteadyStatePwPipingElement--><g class="entity" data-entity="GeoSteadyStatePwPipingElement" data-source-line="48" data-uid="ent0032" id="entity_GeoSteadyStatePwPipingElement"><rect fill="#F1F1F1" height="48" rx="2.5" ry="2.5" style="stroke:#181818;stroke-width:0.5;" width="244.4609" x="1358.5" y="115"/><ellipse cx="1373.5" cy="131" fill="#ADD1B2" rx="11" ry="11" style="stroke:#181818;stroke-width:1;"/><path d="M1376.2656,126.875 Q1376.4219,126.6563 1376.6094,126.5469 Q1376.7969,126.4375 1377.0156,126.4375 Q1377.3906,126.4375 1377.625,126.7031 Q1377.8594,126.9531 1377.8594,127.5625 L1377.8594,129.0156 Q1377.8594,129.625 1377.625,129.8906 Q1377.3906,130.1563 1377.0156,130.1563 Q1376.6719,130.1563 1376.4688,129.9531 Q1376.2656,129.7656 1376.1563,129.25 Q1376.1094,128.8906 1375.9219,128.7031 Q1375.5938,128.3281 1374.9844,128.1094 Q1374.375,127.8906 1373.75,127.8906 Q1372.9844,127.8906 1372.3438,128.2188 Q1371.7188,128.5469 1371.2188,129.2969 Q1370.7344,130.0469 1370.7344,131.0781 L1370.7344,132.1719 Q1370.7344,133.4063 1371.625,134.2344 Q1372.5156,135.0469 1374.1094,135.0469 Q1375.0469,135.0469 1375.7031,134.7969 Q1376.0938,134.6406 1376.5156,134.2031 Q1376.7813,133.9375 1376.9219,133.8594 Q1377.0781,133.7813 1377.2813,133.7813 Q1377.6094,133.7813 1377.8594,134.0469 Q1378.125,134.2969 1378.125,134.6406 Q1378.125,134.9844 1377.7813,135.3906 Q1377.2813,135.9688 1376.4844,136.2969 Q1375.4063,136.75 1374.1094,136.75 Q1372.5938,136.75 1371.3906,136.125 Q1370.4063,135.625 1369.7188,134.5625 Q1369.0313,133.4844 1369.0313,132.2031 L1369.0313,131.0469 Q1369.0313,129.7188 1369.6406,128.5781 Q1370.2656,127.4219 1371.3594,126.8125 Q1372.4531,126.1875 1373.6875,126.1875 Q1374.4219,126.1875 1375.0625,126.3594 Q1375.7188,126.5156 1376.2656,126.875 Z " fill="#000000"/><text fill="#000000" font-family="sans-serif" font-size="14" lengthAdjust="spacing" textLength="212.4609" x="1387.5" y="136.7969">GeoSteadyStatePwPipingElement</text><line style="stroke:#181818;stroke-width:0.5;" x1="1359.5" x2="1601.9609" y1="147" y2="147"/><line style="stroke:#181818;stroke-width:0.5;" x1="1359.5" x2="1601.9609" y1="155" y2="155"/></g><!--class TransientThermalElement--><g class="entity" data-entity="TransientThermalElement" data-source-line="54" data-uid="ent0035" id="entity_TransientThermalElement"><rect fill="#F1F1F1" height="48" rx="2.5" ry="2.5" style="stroke:#181818;stroke-width:0.5;" width="193.0615" x="1638" y="115"/><ellipse cx="1653" cy="131" fill="#ADD1B2" rx="11" ry="11" style="stroke:#181818;stroke-width:1;"/><path d="M1655.7656,126.875 Q1655.9219,126.6563 1656.1094,126.5469 Q1656.2969,126.4375 1656.5156,126.4375 Q1656.8906,126.4375 1657.125,126.7031 Q1657.3594,126.9531 1657.3594,127.5625 L1657.3594,129.0156 Q1657.3594,129.625 1657.125,129.8906 Q1656.8906,130.1563 1656.5156,130.1563 Q1656.1719,130.1563 1655.9688,129.9531 Q1655.7656,129.7656 1655.6563,129.25 Q1655.6094,128.8906 1655.4219,128.7031 Q1655.0938,128.3281 1654.4844,128.1094 Q1653.875,127.8906 1653.25,127.8906 Q1652.4844,127.8906 1651.8438,128.2188 Q1651.2188,128.5469 1650.7188,129.2969 Q1650.2344,130.0469 1650.2344,131.0781 L1650.2344,132.1719 Q1650.2344,133.4063 1651.125,134.2344 Q1652.0156,135.0469 1653.6094,135.0469 Q1654.5469,135.0469 1655.2031,134.7969 Q1655.5938,134.6406 1656.0156,134.2031 Q1656.2813,133.9375 1656.4219,133.8594 Q1656.5781,133.7813 1656.7813,133.7813 Q1657.1094,133.7813 1657.3594,134.0469 Q1657.625,134.2969 1657.625,134.6406 Q1657.625,134.9844 1657.2813,135.3906 Q1656.7813,135.9688 1655.9844,136.2969 Q1654.9063,136.75 1653.6094,136.75 Q1652.0938,136.75 1650.8906,136.125 Q1649.9063,135.625 1649.2188,134.5625 Q1648.5313,133.4844 1648.5313,132.2031 L1648.5313,131.0469 Q1648.5313,129.7188 1649.1406,128.5781 Q1649.7656,127.4219 1650.8594,126.8125 Q1651.9531,126.1875 1653.1875,126.1875 Q1653.9219,126.1875 1654.5625,126.3594 Q1655.2188,126.5156 1655.7656,126.875 Z " fill="#000000"/><text fill="#000000" font-family="sans-serif" font-size="14" lengthAdjust="spacing" textLength="161.0615" x="1667" y="136.7969">TransientThermalElement</text><line style="stroke:#181818;stroke-width:0.5;" x1="1639" x2="1830.0615" y1="147" y2="147"/><line style="stroke:#181818;stroke-width:0.5;" x1="1639" x2="1830.0615" y1="155" y2="155"/></g><!--class CrBeamElement2D2N_Structural--><g class="entity" data-entity="CrBeamElement2D2N_Structural" data-source-line="59" data-uid="ent0037" id="entity_CrBeamElement2D2N_Structural"><rect fill="#F1F1F1" height="48" rx="2.5" ry="2.5" style="stroke:#181818;stroke-width:0.5;" width="238.1924" x="1866.5" y="115"/><ellipse cx="1881.5" cy="131" fill="#ADD1B2" rx="11" ry="11" style="stroke:#181818;stroke-width:1;"/><path d="M1884.2656,126.875 Q1884.4219,126.6563 1884.6094,126.5469 Q1884.7969,126.4375 1885.0156,126.4375 Q1885.3906,126.4375 1885.625,126.7031 Q1885.8594,126.9531 1885.8594,127.5625 L1885.8594,129.0156 Q1885.8594,129.625 1885.625,129.8906 Q1885.3906,130.1563 1885.0156,130.1563 Q1884.6719,130.1563 1884.4688,129.9531 Q1884.2656,129.7656 1884.1563,129.25 Q1884.1094,128.8906 1883.9219,128.7031 Q1883.5938,128.3281 1882.9844,128.1094 Q1882.375,127.8906 1881.75,127.8906 Q1880.9844,127.8906 1880.3438,128.2188 Q1879.7188,128.5469 1879.2188,129.2969 Q1878.7344,130.0469 1878.7344,131.0781 L1878.7344,132.1719 Q1878.7344,133.4063 1879.625,134.2344 Q1880.5156,135.0469 1882.1094,135.0469 Q1883.0469,135.0469 1883.7031,134.7969 Q1884.0938,134.6406 1884.5156,134.2031 Q1884.7813,133.9375 1884.9219,133.8594 Q1885.0781,133.7813 1885.2813,133.7813 Q1885.6094,133.7813 1885.8594,134.0469 Q1886.125,134.2969 1886.125,134.6406 Q1886.125,134.9844 1885.7813,135.3906 Q1885.2813,135.9688 1884.4844,136.2969 Q1883.4063,136.75 1882.1094,136.75 Q1880.5938,136.75 1879.3906,136.125 Q1878.4063,135.625 1877.7188,134.5625 Q1877.0313,133.4844 1877.0313,132.2031 L1877.0313,131.0469 Q1877.0313,129.7188 1877.6406,128.5781 Q1878.2656,127.4219 1879.3594,126.8125 Q1880.4531,126.1875 1881.6875,126.1875 Q1882.4219,126.1875 1883.0625,126.3594 Q1883.7188,126.5156 1884.2656,126.875 Z " fill="#000000"/><text fill="#000000" font-family="sans-serif" font-size="14" lengthAdjust="spacing" textLength="206.1924" x="1895.5" y="136.7969">CrBeamElement2D2N_Structural</text><line style="stroke:#181818;stroke-width:0.5;" x1="1867.5" x2="2103.6924" y1="147" y2="147"/><line style="stroke:#181818;stroke-width:0.5;" x1="1867.5" x2="2103.6924" y1="155" y2="155"/></g><!--class CrBeamElementLinear2D2N_Structural--><g class="entity" data-entity="CrBeamElementLinear2D2N_Structural" data-source-line="60" data-uid="ent0038" id="entity_CrBeamElementLinear2D2N_Structural"><rect fill="#F1F1F1" height="48" rx="2.5" ry="2.5" style="stroke:#181818;stroke-width:0.5;" width="277.1094" x="1847" y="223"/><ellipse cx="1862" cy="239" fill="#ADD1B2" rx="11" ry="11" style="stroke:#181818;stroke-width:1;"/><path d="M1864.7656,234.875 Q1864.9219,234.6563 1865.1094,234.5469 Q1865.2969,234.4375 1865.5156,234.4375 Q1865.8906,234.4375 1866.125,234.7031 Q1866.3594,234.9531 1866.3594,235.5625 L1866.3594,237.0156 Q1866.3594,237.625 1866.125,237.8906 Q1865.8906,238.1563 1865.5156,238.1563 Q1865.1719,238.1563 1864.9688,237.9531 Q1864.7656,237.7656 1864.6563,237.25 Q1864.6094,236.8906 1864.4219,236.7031 Q1864.0938,236.3281 1863.4844,236.1094 Q1862.875,235.8906 1862.25,235.8906 Q1861.4844,235.8906 1860.8438,236.2188 Q1860.2188,236.5469 1859.7188,237.2969 Q1859.2344,238.0469 1859.2344,239.0781 L1859.2344,240.1719 Q1859.2344,241.4063 1860.125,242.2344 Q1861.0156,243.0469 1862.6094,243.0469 Q1863.5469,243.0469 1864.2031,242.7969 Q1864.5938,242.6406 1865.0156,242.2031 Q1865.2813,241.9375 1865.4219,241.8594 Q1865.5781,241.7813 1865.7813,241.7813 Q1866.1094,241.7813 1866.3594,242.0469 Q1866.625,242.2969 1866.625,242.6406 Q1866.625,242.9844 1866.2813,243.3906 Q1865.7813,243.9688 1864.9844,244.2969 Q1863.9063,244.75 1862.6094,244.75 Q1861.0938,244.75 1859.8906,244.125 Q1858.9063,243.625 1858.2188,242.5625 Q1857.5313,241.4844 1857.5313,240.2031 L1857.5313,239.0469 Q1857.5313,237.7188 1858.1406,236.5781 Q1858.7656,235.4219 1859.8594,234.8125 Q1860.9531,234.1875 1862.1875,234.1875 Q1862.9219,234.1875 1863.5625,234.3594 Q1864.2188,234.5156 1864.7656,234.875 Z " fill="#000000"/><text fill="#000000" font-family="sans-serif" font-size="14" lengthAdjust="spacing" textLength="245.1094" x="1876" y="244.7969">CrBeamElementLinear2D2N_Structural</text><line style="stroke:#181818;stroke-width:0.5;" x1="1848" x2="2123.1094" y1="255" y2="255"/><line style="stroke:#181818;stroke-width:0.5;" x1="1848" x2="2123.1094" y1="263" y2="263"/></g><!--class GeoCrBeamElementLinear2D2N--><g class="entity" data-entity="GeoCrBeamElementLinear2D2N" data-source-line="61" data-uid="ent0039" id="entity_GeoCrBeamElementLinear2D2N"><rect fill="#F1F1F1" height="48" rx="2.5" ry="2.5" style="stroke:#181818;stroke-width:0.5;" width="235.875" x="1867.5" y="331"/><ellipse cx="1882.5" cy="347" fill="#ADD1B2" rx="11" ry="11" style="stroke:#181818;stroke-width:1;"/><path d="M1885.2656,342.875 Q1885.4219,342.6563 1885.6094,342.5469 Q1885.7969,342.4375 1886.0156,342.4375 Q1886.3906,342.4375 1886.625,342.7031 Q1886.8594,342.9531 1886.8594,343.5625 L1886.8594,345.0156 Q1886.8594,345.625 1886.625,345.8906 Q1886.3906,346.1563 1886.0156,346.1563 Q1885.6719,346.1563 1885.4688,345.9531 Q1885.2656,345.7656 1885.1563,345.25 Q1885.1094,344.8906 1884.9219,344.7031 Q1884.5938,344.3281 1883.9844,344.1094 Q1883.375,343.8906 1882.75,343.8906 Q1881.9844,343.8906 1881.3438,344.2188 Q1880.7188,344.5469 1880.2188,345.2969 Q1879.7344,346.0469 1879.7344,347.0781 L1879.7344,348.1719 Q1879.7344,349.4063 1880.625,350.2344 Q1881.5156,351.0469 1883.1094,351.0469 Q1884.0469,351.0469 1884.7031,350.7969 Q1885.0938,350.6406 1885.5156,350.2031 Q1885.7813,349.9375 1885.9219,349.8594 Q1886.0781,349.7813 1886.2813,349.7813 Q1886.6094,349.7813 1886.8594,350.0469 Q1887.125,350.2969 1887.125,350.6406 Q1887.125,350.9844 1886.7813,351.3906 Q1886.2813,351.9688 1885.4844,352.2969 Q1884.4063,352.75 1883.1094,352.75 Q1881.5938,352.75 1880.3906,352.125 Q1879.4063,351.625 1878.7188,350.5625 Q1878.0313,349.4844 1878.0313,348.2031 L1878.0313,347.0469 Q1878.0313,345.7188 1878.6406,344.5781 Q1879.2656,343.4219 1880.3594,342.8125 Q1881.4531,342.1875 1882.6875,342.1875 Q1883.4219,342.1875 1884.0625,342.3594 Q1884.7188,342.5156 1885.2656,342.875 Z " fill="#000000"/><text fill="#000000" font-family="sans-serif" font-size="14" lengthAdjust="spacing" textLength="203.875" x="1896.5" y="352.7969">GeoCrBeamElementLinear2D2N</text><line style="stroke:#181818;stroke-width:0.5;" x1="1868.5" x2="2102.375" y1="363" y2="363"/><line style="stroke:#181818;stroke-width:0.5;" x1="1868.5" x2="2102.375" y1="371" y2="371"/></g><!--reverse link Element to UPwBaseElement--><g class="link" data-entity-1="Element" data-entity-2="UPwBaseElement" data-source-line="20" data-uid="lnk14" id="link_Element_UPwBaseElement"><path codeLine="20" d="M1316.2657,45.871 C1251.0457,61.171 1138.54,87.78 1028.5,115 C1022.86,116.39 1017.03,117.85 1011.17,119.33" fill="none" id="Element-backto-UPwBaseElement" style="stroke:#181818;stroke-width:1;"/><polygon fill="none" points="1333.79,41.76,1314.8954,40.0296,1317.6361,51.7124,1333.79,41.76" style="stroke:#181818;stroke-width:1;"/></g><!--reverse link UPwBaseElement to UPwSmallStrainElement--><g class="link" data-entity-1="UPwBaseElement" data-entity-2="UPwSmallStrainElement" data-source-line="21" data-uid="lnk15" id="link_UPwBaseElement_UPwSmallStrainElement"><path codeLine="21" d="M848.3345,160.4255 C766.6845,178.9155 651.49,205.01 562.61,225.14" fill="none" id="UPwBaseElement-backto-UPwSmallStrainElement" style="stroke:#181818;stroke-width:1;"/><polygon fill="none" points="865.89,156.45,847.0093,154.5737,849.6597,166.2773,865.89,156.45" style="stroke:#181818;stroke-width:1;"/></g><!--reverse link UPwSmallStrainElement to TransientPwElement--><g class="link" data-entity-1="UPwSmallStrainElement" data-entity-2="TransientPwElement" data-source-line="23" data-uid="lnk16" id="link_UPwSmallStrainElement_TransientPwElement"><path codeLine="23" d="M375.7846,276.1235 C316.0046,293.8735 250.94,313.19 191.12,330.95" fill="none" id="UPwSmallStrainElement-backto-TransientPwElement" style="stroke:#181818;stroke-width:1;"/><polygon fill="none" points="393.04,271,374.0767,270.3717,377.4924,281.8753,393.04,271" style="stroke:#181818;stroke-width:1;"/></g><!--reverse link TransientPwElement to SteadyStatePwElement--><g class="link" data-entity-1="TransientPwElement" data-entity-2="SteadyStatePwElement" data-source-line="24" data-uid="lnk17" id="link_TransientPwElement_SteadyStatePwElement"><path codeLine="24" d="M106.9619,396.7732 C104.1319,414.4332 103.08,420.94 100.24,438.68" fill="none" id="TransientPwElement-backto-SteadyStatePwElement" style="stroke:#181818;stroke-width:1;"/><polygon fill="none" points="109.81,379,101.0374,395.8239,112.8863,397.7226,109.81,379" style="stroke:#181818;stroke-width:1;"/></g><!--reverse link UPwSmallStrainElement to UPwSmallStrainFICElement--><g class="link" data-entity-1="UPwSmallStrainElement" data-entity-2="UPwSmallStrainFICElement" data-source-line="25" data-uid="lnk18" id="link_UPwSmallStrainElement_UPwSmallStrainFICElement"><path codeLine="25" d="M428.6033,282.4282 C407.1133,300.0882 391.47,312.94 369.88,330.68" fill="none" id="UPwSmallStrainElement-backto-UPwSmallStrainFICElement" style="stroke:#181818;stroke-width:1;"/><polygon fill="none" points="442.51,271,424.7939,277.7926,432.4127,287.0638,442.51,271" style="stroke:#181818;stroke-width:1;"/></g><!--reverse link UPwSmallStrainFICElement to UPwUpdatedLagrangianFICElement--><g class="link" data-entity-1="UPwSmallStrainFICElement" data-entity-2="UPwUpdatedLagrangianFICElement" data-source-line="26" data-uid="lnk19" id="link_UPwSmallStrainFICElement_UPwUpdatedLagrangianFICElement"><path codeLine="26" d="M344.9734,396.9354 C346.4734,414.5954 347.01,420.94 348.52,438.68" fill="none" id="UPwSmallStrainFICElement-backto-UPwUpdatedLagrangianFICElement" style="stroke:#181818;stroke-width:1;"/><polygon fill="none" points="343.45,379,338.9949,397.4432,350.9519,396.4276,343.45,379" style="stroke:#181818;stroke-width:1;"/></g><!--reverse link UPwSmallStrainElement to UPwUpdatedLagrangianElement--><g class="link" data-entity-1="UPwSmallStrainElement" data-entity-2="UPwUpdatedLagrangianElement" data-source-line="27" data-uid="lnk20" id="link_UPwSmallStrainElement_UPwUpdatedLagrangianElement"><path codeLine="27" d="M512.1347,282.4791 C533.4647,300.1391 548.92,312.94 570.34,330.68" fill="none" id="UPwSmallStrainElement-backto-UPwUpdatedLagrangianElement" style="stroke:#181818;stroke-width:1;"/><polygon fill="none" points="498.27,271,508.3083,287.1007,515.9611,277.8576,498.27,271" style="stroke:#181818;stroke-width:1;"/></g><!--reverse link UPwBaseElement to SmallStrainUPwDiffOrderElement--><g class="link" data-entity-1="UPwBaseElement" data-entity-2="SmallStrainUPwDiffOrderElement" data-source-line="35" data-uid="lnk23" id="link_UPwBaseElement_SmallStrainUPwDiffOrderElement"><path codeLine="35" d="M1028.6635,166.9935 C1088.1735,184.8135 1154.77,204.76 1215.39,222.91" fill="none" id="UPwBaseElement-backto-SmallStrainUPwDiffOrderElement" style="stroke:#181818;stroke-width:1;"/><polygon fill="none" points="1011.42,161.83,1026.9423,172.7413,1030.3847,161.2457,1011.42,161.83" style="stroke:#181818;stroke-width:1;"/></g><!--reverse link SmallStrainUPwDiffOrderElement to UpdatedLagrangianUPwDiffOrderElement--><g class="link" data-entity-1="SmallStrainUPwDiffOrderElement" data-entity-2="UpdatedLagrangianUPwDiffOrderElement" data-source-line="36" data-uid="lnk24" id="link_SmallStrainUPwDiffOrderElement_UpdatedLagrangianUPwDiffOrderElement"><path codeLine="36" d="M1341.4872,281.0736 C1367.7272,298.7936 1388.93,313.11 1415.23,330.86" fill="none" id="SmallStrainUPwDiffOrderElement-backto-UpdatedLagrangianUPwDiffOrderElement" style="stroke:#181818;stroke-width:1;"/><polygon fill="none" points="1326.57,271,1338.1293,286.046,1344.845,276.1012,1326.57,271" style="stroke:#181818;stroke-width:1;"/></g><!--reverse link UPwBaseElement to UPwSmallStrainInterfaceElement--><g class="link" data-entity-1="UPwBaseElement" data-entity-2="UPwSmallStrainInterfaceElement" data-source-line="38" data-uid="lnk25" id="link_UPwBaseElement_UPwSmallStrainInterfaceElement"><path codeLine="38" d="M938.5,181 C938.5,198.66 938.5,204.94 938.5,222.68" fill="none" id="UPwBaseElement-backto-UPwSmallStrainInterfaceElement" style="stroke:#181818;stroke-width:1;"/><polygon fill="none" points="938.5,163,932.5,181,944.5,181,938.5,163" style="stroke:#181818;stroke-width:1;"/></g><!--reverse link UPwSmallStrainInterfaceElement to TransientPwInterfaceElement--><g class="link" data-entity-1="UPwSmallStrainInterfaceElement" data-entity-2="TransientPwInterfaceElement" data-source-line="39" data-uid="lnk26" id="link_UPwSmallStrainInterfaceElement_TransientPwInterfaceElement"><path codeLine="39" d="M910.6045,285.4333 C897.4445,303.0933 890.1,312.94 876.88,330.68" fill="none" id="UPwSmallStrainInterfaceElement-backto-TransientPwInterfaceElement" style="stroke:#181818;stroke-width:1;"/><polygon fill="none" points="921.36,271,905.7934,281.8481,915.4156,289.0184,921.36,271" style="stroke:#181818;stroke-width:1;"/></g><!--reverse link TransientPwInterfaceElement to SteadyStatePwInterfaceElement--><g class="link" data-entity-1="TransientPwInterfaceElement" data-entity-2="SteadyStatePwInterfaceElement" data-source-line="40" data-uid="lnk27" id="link_TransientPwInterfaceElement_SteadyStatePwInterfaceElement"><path codeLine="40" d="M859.5,397 C859.5,414.66 859.5,420.94 859.5,438.68" fill="none" id="TransientPwInterfaceElement-backto-SteadyStatePwInterfaceElement" style="stroke:#181818;stroke-width:1;"/><polygon fill="none" points="859.5,379,853.5,397,865.5,397,859.5,379" style="stroke:#181818;stroke-width:1;"/></g><!--reverse link UPwSmallStrainInterfaceElement to UPwSmallStrainLinkInterfaceElement--><g class="link" data-entity-1="UPwSmallStrainInterfaceElement" data-entity-2="UPwSmallStrainLinkInterfaceElement" data-source-line="41" data-uid="lnk28" id="link_UPwSmallStrainInterfaceElement_UPwSmallStrainLinkInterfaceElement"><path codeLine="41" d="M997.1008,279.5295 C1030.0308,297.2495 1059.5,313.11 1092.5,330.86" fill="none" id="UPwSmallStrainInterfaceElement-backto-UPwSmallStrainLinkInterfaceElement" style="stroke:#181818;stroke-width:1;"/><polygon fill="none" points="981.25,271,994.2576,284.8131,999.944,274.2459,981.25,271" style="stroke:#181818;stroke-width:1;"/></g><!--reverse link Element to InterfaceElement--><g class="link" data-entity-1="Element" data-entity-2="InterfaceElement" data-source-line="44" data-uid="lnk30" id="link_Element_InterfaceElement"><path codeLine="44" d="M1317.0616,55.8245 C1273.2716,73.6745 1220.88,95.04 1172.2,114.88" fill="none" id="Element-backto-InterfaceElement" style="stroke:#181818;stroke-width:1;"/><polygon fill="none" points="1333.73,49.03,1314.7968,50.2684,1319.3264,61.3806,1333.73,49.03" style="stroke:#181818;stroke-width:1;"/></g><!--reverse link Element to PwElement--><g class="link" data-entity-1="Element" data-entity-2="PwElement" data-source-line="50" data-uid="lnk33" id="link_Element_PwElement"><path codeLine="50" d="M1340.3264,67.851 C1323.0064,85.511 1311.78,96.94 1294.38,114.68" fill="none" id="Element-backto-PwElement" style="stroke:#181818;stroke-width:1;"/><polygon fill="none" points="1352.93,55,1336.0427,63.6498,1344.6101,72.0522,1352.93,55" style="stroke:#181818;stroke-width:1;"/></g><!--reverse link Element to GeoSteadyStatePwPipingElement--><g class="link" data-entity-1="Element" data-entity-2="GeoSteadyStatePwPipingElement" data-source-line="51" data-uid="lnk34" id="link_Element_GeoSteadyStatePwPipingElement"><path codeLine="51" d="M1410.9462,67.7893 C1428.4362,85.4493 1439.83,96.94 1457.4,114.68" fill="none" id="Element-backto-GeoSteadyStatePwPipingElement" style="stroke:#181818;stroke-width:1;"/><polygon fill="none" points="1398.28,55,1406.6831,72.0114,1415.2093,63.5673,1398.28,55" style="stroke:#181818;stroke-width:1;"/></g><!--reverse link Element to TransientThermalElement--><g class="link" data-entity-1="Element" data-entity-2="TransientThermalElement" data-source-line="55" data-uid="lnk36" id="link_Element_TransientThermalElement"><path codeLine="55" d="M1434.2932,49.3574 C1492.7132,66.6074 1582.96,93.25 1656.54,114.98" fill="none" id="Element-backto-TransientThermalElement" style="stroke:#181818;stroke-width:1;"/><polygon fill="none" points="1417.03,44.26,1432.594,55.1118,1435.9923,43.603,1417.03,44.26" style="stroke:#181818;stroke-width:1;"/></g><!--reverse link Element to CrBeamElement2D2N_Structural--><g class="link" data-entity-1="Element" data-entity-2="CrBeamElement2D2N_Structural" data-source-line="63" data-uid="lnk40" id="link_Element_CrBeamElement2D2N_Structural"><path codeLine="63" d="M1435.1645,42.3704 C1526.4745,58.2304 1728.45,93.33 1866.32,117.29" fill="none" id="Element-backto-CrBeamElement2D2N_Structural" style="stroke:#181818;stroke-width:1;"/><polygon fill="none" points="1417.43,39.29,1434.1377,48.2819,1436.1913,36.4589,1417.43,39.29" style="stroke:#181818;stroke-width:1;"/></g><!--reverse link CrBeamElement2D2N_Structural to CrBeamElementLinear2D2N_Structural--><g class="link" data-entity-1="CrBeamElement2D2N_Structural" data-entity-2="CrBeamElementLinear2D2N_Structural" data-source-line="64" data-uid="lnk41" id="link_CrBeamElement2D2N_Structural_CrBeamElementLinear2D2N_Structural"><path codeLine="64" d="M1985.5,181 C1985.5,198.66 1985.5,204.94 1985.5,222.68" fill="none" id="CrBeamElement2D2N_Structural-backto-CrBeamElementLinear2D2N_Structural" style="stroke:#181818;stroke-width:1;"/><polygon fill="none" points="1985.5,163,1979.5,181,1991.5,181,1985.5,163" style="stroke:#181818;stroke-width:1;"/></g><!--reverse link CrBeamElementLinear2D2N_Structural to GeoCrBeamElementLinear2D2N--><g class="link" data-entity-1="CrBeamElementLinear2D2N_Structural" data-entity-2="GeoCrBeamElementLinear2D2N" data-source-line="65" data-uid="lnk42" id="link_CrBeamElementLinear2D2N_Structural_GeoCrBeamElementLinear2D2N"><path codeLine="65" d="M1985.5,289 C1985.5,306.66 1985.5,312.94 1985.5,330.68" fill="none" id="CrBeamElementLinear2D2N_Structural-backto-GeoCrBeamElementLinear2D2N" style="stroke:#181818;stroke-width:1;"/><polygon fill="none" points="1985.5,271,1979.5,289,1991.5,289,1985.5,271" style="stroke:#181818;stroke-width:1;"/></g><!--SRC=[dLHTQuCm57tFh_3D9oVqSUofxJOAPHEix75SDBPXcagCo60_Vb6Z9P-MqfVcddFF_JWnuONpfdsEuwO2ohkwUiglTPnNqBPHGU3Ce4PeF0Ql5QunvGY5MV8bOrdIRw752xH4qnggAkKC29t12Jine2qHvwHNWPHZA7vJ3XphaAhtTjWPSDOK8gyu3WtJCu7xIDws3vHZLaAEdVqx6CeW3evQwaZeZq54ya_myXT5-gBLuqAnR1rPmrE6nGipD56jxdYadPQvW2NDPwM_eDlVSFZjILa6dwp0R3Rg9YMo1tX4DQTqKHlLwiUAl1-MGprSVEKk-s7ZTXZv7inoNnugVyydCbban1KTCojC-lanQwM4_kAyuwioGK8QGi_sJ_EMguHN9CBmTC5C3AY_Ap9irNIHnlij5jNbl6EBv8vjCTIIizblFhxz5B5Z3CnE5DCukDesl4Lze2NTtj0wPJ70rV8_]--></g></svg>