<svg xmlns="http://www.w3.org/2000/svg" xmlns:xlink="http://www.w3.org/1999/xlink" contentStyleType="text/css" data-diagram-type="CLASS" height="494px" preserveAspectRatio="none" style="width:1514px;height:494px;background:#FFFFFF;" version="1.1" viewBox="0 0 1514 494" width="1514px" zoomAndPan="magnify"><defs/><g><!--class Element--><g class="entity" data-entity="Element" data-source-line="3" data-uid="ent0002" id="entity_Element"><rect fill="#F1F1F1" height="48" rx="2.5" ry="2.5" style="stroke:#181818;stroke-width:0.5;" width="83.3584" x="906" y="7"/><ellipse cx="921" cy="23" fill="#ADD1B2" rx="11" ry="11" style="stroke:#181818;stroke-width:1;"/><path d="M923.7656,18.875 Q923.9219,18.6563 924.1094,18.5469 Q924.2969,18.4375 924.5156,18.4375 Q924.8906,18.4375 925.125,18.7031 Q925.3594,18.9531 925.3594,19.5625 L925.3594,21.0156 Q925.3594,21.625 925.125,21.8906 Q924.8906,22.1563 924.5156,22.1563 Q924.1719,22.1563 923.9688,21.9531 Q923.7656,21.7656 923.6563,21.25 Q923.6094,20.8906 923.4219,20.7031 Q923.0938,20.3281 922.4844,20.1094 Q921.875,19.8906 921.25,19.8906 Q920.4844,19.8906 919.8438,20.2188 Q919.2188,20.5469 918.7188,21.2969 Q918.2344,22.0469 918.2344,23.0781 L918.2344,24.1719 Q918.2344,25.4063 919.125,26.2344 Q920.0156,27.0469 921.6094,27.0469 Q922.5469,27.0469 923.2031,26.7969 Q923.5938,26.6406 924.0156,26.2031 Q924.2813,25.9375 924.4219,25.8594 Q924.5781,25.7813 924.7813,25.7813 Q925.1094,25.7813 925.3594,26.0469 Q925.625,26.2969 925.625,26.6406 Q925.625,26.9844 925.2813,27.3906 Q924.7813,27.9688 923.9844,28.2969 Q922.9063,28.75 921.6094,28.75 Q920.0938,28.75 918.8906,28.125 Q917.9063,27.625 917.2188,26.5625 Q916.5313,25.4844 916.5313,24.2031 L916.5313,23.0469 Q916.5313,21.7188 917.1406,20.5781 Q917.7656,19.4219 918.8594,18.8125 Q919.9531,18.1875 921.1875,18.1875 Q921.9219,18.1875 922.5625,18.3594 Q923.2188,18.5156 923.7656,18.875 Z " fill="#000000"/><text fill="#000000" font-family="sans-serif" font-size="14" lengthAdjust="spacing" textLength="51.3584" x="935" y="28.7969">Element</text><line style="stroke:#181818;stroke-width:0.5;" x1="907" x2="988.3584" y1="39" y2="39"/><line style="stroke:#181818;stroke-width:0.5;" x1="907" x2="988.3584" y1="47" y2="47"/></g><!--class UPwBaseElement--><g class="entity" data-entity="UPwBaseElement" data-source-line="6" data-uid="ent0003" id="entity_UPwBaseElement"><rect fill="#F1F1F1" height="48" rx="2.5" ry="2.5" style="stroke:#181818;stroke-width:0.5;" width="144.8271" x="542" y="115"/><ellipse cx="557" cy="131" fill="#ADD1B2" rx="11" ry="11" style="stroke:#181818;stroke-width:1;"/><path d="M559.7656,126.875 Q559.9219,126.6563 560.1094,126.5469 Q560.2969,126.4375 560.5156,126.4375 Q560.8906,126.4375 561.125,126.7031 Q561.3594,126.9531 561.3594,127.5625 L561.3594,129.0156 Q561.3594,129.625 561.125,129.8906 Q560.8906,130.1563 560.5156,130.1563 Q560.1719,130.1563 559.9688,129.9531 Q559.7656,129.7656 559.6563,129.25 Q559.6094,128.8906 559.4219,128.7031 Q559.0938,128.3281 558.4844,128.1094 Q557.875,127.8906 557.25,127.8906 Q556.4844,127.8906 555.8438,128.2188 Q555.2188,128.5469 554.7188,129.2969 Q554.2344,130.0469 554.2344,131.0781 L554.2344,132.1719 Q554.2344,133.4063 555.125,134.2344 Q556.0156,135.0469 557.6094,135.0469 Q558.5469,135.0469 559.2031,134.7969 Q559.5938,134.6406 560.0156,134.2031 Q560.2813,133.9375 560.4219,133.8594 Q560.5781,133.7813 560.7813,133.7813 Q561.1094,133.7813 561.3594,134.0469 Q561.625,134.2969 561.625,134.6406 Q561.625,134.9844 561.2813,135.3906 Q560.7813,135.9688 559.9844,136.2969 Q558.9063,136.75 557.6094,136.75 Q556.0938,136.75 554.8906,136.125 Q553.9063,135.625 553.2188,134.5625 Q552.5313,133.4844 552.5313,132.2031 L552.5313,131.0469 Q552.5313,129.7188 553.1406,128.5781 Q553.7656,127.4219 554.8594,126.8125 Q555.9531,126.1875 557.1875,126.1875 Q557.9219,126.1875 558.5625,126.3594 Q559.2188,126.5156 559.7656,126.875 Z " fill="#000000"/><text fill="#000000" font-family="sans-serif" font-size="14" lengthAdjust="spacing" textLength="112.8271" x="571" y="136.7969">UPwBaseElement</text><line style="stroke:#181818;stroke-width:0.5;" x1="543" x2="685.8271" y1="147" y2="147"/><line style="stroke:#181818;stroke-width:0.5;" x1="543" x2="685.8271" y1="155" y2="155"/></g><!--class UPwSmallStrainElement--><g class="entity" data-entity="UPwSmallStrainElement" data-source-line="8" data-uid="ent0004" id="entity_UPwSmallStrainElement"><rect fill="#F1F1F1" height="48" rx="2.5" ry="2.5" style="stroke:#181818;stroke-width:0.5;" width="184.4961" x="266.5" y="223"/><ellipse cx="281.5" cy="239" fill="#ADD1B2" rx="11" ry="11" style="stroke:#181818;stroke-width:1;"/><path d="M284.2656,234.875 Q284.4219,234.6563 284.6094,234.5469 Q284.7969,234.4375 285.0156,234.4375 Q285.3906,234.4375 285.625,234.7031 Q285.8594,234.9531 285.8594,235.5625 L285.8594,237.0156 Q285.8594,237.625 285.625,237.8906 Q285.3906,238.1563 285.0156,238.1563 Q284.6719,238.1563 284.4688,237.9531 Q284.2656,237.7656 284.1563,237.25 Q284.1094,236.8906 283.9219,236.7031 Q283.5938,236.3281 282.9844,236.1094 Q282.375,235.8906 281.75,235.8906 Q280.9844,235.8906 280.3438,236.2188 Q279.7188,236.5469 279.2188,237.2969 Q278.7344,238.0469 278.7344,239.0781 L278.7344,240.1719 Q278.7344,241.4063 279.625,242.2344 Q280.5156,243.0469 282.1094,243.0469 Q283.0469,243.0469 283.7031,242.7969 Q284.0938,242.6406 284.5156,242.2031 Q284.7813,241.9375 284.9219,241.8594 Q285.0781,241.7813 285.2813,241.7813 Q285.6094,241.7813 285.8594,242.0469 Q286.125,242.2969 286.125,242.6406 Q286.125,242.9844 285.7813,243.3906 Q285.2813,243.9688 284.4844,244.2969 Q283.4063,244.75 282.1094,244.75 Q280.5938,244.75 279.3906,244.125 Q278.4063,243.625 277.7188,242.5625 Q277.0313,241.4844 277.0313,240.2031 L277.0313,239.0469 Q277.0313,237.7188 277.6406,236.5781 Q278.2656,235.4219 279.3594,234.8125 Q280.4531,234.1875 281.6875,234.1875 Q282.4219,234.1875 283.0625,234.3594 Q283.7188,234.5156 284.2656,234.875 Z " fill="#000000"/><text fill="#000000" font-family="sans-serif" font-size="14" lengthAdjust="spacing" textLength="152.4961" x="295.5" y="244.7969">UPwSmallStrainElement</text><line style="stroke:#181818;stroke-width:0.5;" x1="267.5" x2="449.9961" y1="255" y2="255"/><line style="stroke:#181818;stroke-width:0.5;" x1="267.5" x2="449.9961" y1="263" y2="263"/></g><!--class TransientPwElement--><g class="entity" data-entity="TransientPwElement" data-source-line="9" data-uid="ent0005" id="entity_TransientPwElement"><rect fill="#F1F1F1" height="48" rx="2.5" ry="2.5" style="stroke:#181818;stroke-width:0.5;" width="161.165" x="33" y="331"/><ellipse cx="48" cy="347" fill="#ADD1B2" rx="11" ry="11" style="stroke:#181818;stroke-width:1;"/><path d="M50.7656,342.875 Q50.9219,342.6563 51.1094,342.5469 Q51.2969,342.4375 51.5156,342.4375 Q51.8906,342.4375 52.125,342.7031 Q52.3594,342.9531 52.3594,343.5625 L52.3594,345.0156 Q52.3594,345.625 52.125,345.8906 Q51.8906,346.1563 51.5156,346.1563 Q51.1719,346.1563 50.9688,345.9531 Q50.7656,345.7656 50.6563,345.25 Q50.6094,344.8906 50.4219,344.7031 Q50.0938,344.3281 49.4844,344.1094 Q48.875,343.8906 48.25,343.8906 Q47.4844,343.8906 46.8438,344.2188 Q46.2188,344.5469 45.7188,345.2969 Q45.2344,346.0469 45.2344,347.0781 L45.2344,348.1719 Q45.2344,349.4063 46.125,350.2344 Q47.0156,351.0469 48.6094,351.0469 Q49.5469,351.0469 50.2031,350.7969 Q50.5938,350.6406 51.0156,350.2031 Q51.2813,349.9375 51.4219,349.8594 Q51.5781,349.7813 51.7813,349.7813 Q52.1094,349.7813 52.3594,350.0469 Q52.625,350.2969 52.625,350.6406 Q52.625,350.9844 52.2813,351.3906 Q51.7813,351.9688 50.9844,352.2969 Q49.9063,352.75 48.6094,352.75 Q47.0938,352.75 45.8906,352.125 Q44.9063,351.625 44.2188,350.5625 Q43.5313,349.4844 43.5313,348.2031 L43.5313,347.0469 Q43.5313,345.7188 44.1406,344.5781 Q44.7656,343.4219 45.8594,342.8125 Q46.9531,342.1875 48.1875,342.1875 Q48.9219,342.1875 49.5625,342.3594 Q50.2188,342.5156 50.7656,342.875 Z " fill="#000000"/><text fill="#000000" font-family="sans-serif" font-size="14" lengthAdjust="spacing" textLength="129.165" x="62" y="352.7969">TransientPwElement</text><line style="stroke:#181818;stroke-width:0.5;" x1="34" x2="193.165" y1="363" y2="363"/><line style="stroke:#181818;stroke-width:0.5;" x1="34" x2="193.165" y1="371" y2="371"/></g><!--class SteadyStatePwElement--><g class="entity" data-entity="SteadyStatePwElement" data-source-line="10" data-uid="ent0006" id="entity_SteadyStatePwElement"><rect fill="#F1F1F1" height="48" rx="2.5" ry="2.5" style="stroke:#181818;stroke-width:0.5;" width="179.082" x="7" y="439"/><ellipse cx="22" cy="455" fill="#ADD1B2" rx="11" ry="11" style="stroke:#181818;stroke-width:1;"/><path d="M24.7656,450.875 Q24.9219,450.6563 25.1094,450.5469 Q25.2969,450.4375 25.5156,450.4375 Q25.8906,450.4375 26.125,450.7031 Q26.3594,450.9531 26.3594,451.5625 L26.3594,453.0156 Q26.3594,453.625 26.125,453.8906 Q25.8906,454.1563 25.5156,454.1563 Q25.1719,454.1563 24.9688,453.9531 Q24.7656,453.7656 24.6563,453.25 Q24.6094,452.8906 24.4219,452.7031 Q24.0938,452.3281 23.4844,452.1094 Q22.875,451.8906 22.25,451.8906 Q21.4844,451.8906 20.8438,452.2188 Q20.2188,452.5469 19.7188,453.2969 Q19.2344,454.0469 19.2344,455.0781 L19.2344,456.1719 Q19.2344,457.4063 20.125,458.2344 Q21.0156,459.0469 22.6094,459.0469 Q23.5469,459.0469 24.2031,458.7969 Q24.5938,458.6406 25.0156,458.2031 Q25.2813,457.9375 25.4219,457.8594 Q25.5781,457.7813 25.7813,457.7813 Q26.1094,457.7813 26.3594,458.0469 Q26.625,458.2969 26.625,458.6406 Q26.625,458.9844 26.2813,459.3906 Q25.7813,459.9688 24.9844,460.2969 Q23.9063,460.75 22.6094,460.75 Q21.0938,460.75 19.8906,460.125 Q18.9063,459.625 18.2188,458.5625 Q17.5313,457.4844 17.5313,456.2031 L17.5313,455.0469 Q17.5313,453.7188 18.1406,452.5781 Q18.7656,451.4219 19.8594,450.8125 Q20.9531,450.1875 22.1875,450.1875 Q22.9219,450.1875 23.5625,450.3594 Q24.2188,450.5156 24.7656,450.875 Z " fill="#000000"/><text fill="#000000" font-family="sans-serif" font-size="14" lengthAdjust="spacing" textLength="147.082" x="36" y="460.7969">SteadyStatePwElement</text><line style="stroke:#181818;stroke-width:0.5;" x1="8" x2="185.082" y1="471" y2="471"/><line style="stroke:#181818;stroke-width:0.5;" x1="8" x2="185.082" y1="479" y2="479"/></g><!--class UPwSmallStrainFICElement--><g class="entity" data-entity="UPwSmallStrainFICElement" data-source-line="11" data-uid="ent0007" id="entity_UPwSmallStrainFICElement"><rect fill="#F1F1F1" height="48" rx="2.5" ry="2.5" style="stroke:#181818;stroke-width:0.5;" width="207.0479" x="238" y="331"/><ellipse cx="253" cy="347" fill="#ADD1B2" rx="11" ry="11" style="stroke:#181818;stroke-width:1;"/><path d="M255.7656,342.875 Q255.9219,342.6563 256.1094,342.5469 Q256.2969,342.4375 256.5156,342.4375 Q256.8906,342.4375 257.125,342.7031 Q257.3594,342.9531 257.3594,343.5625 L257.3594,345.0156 Q257.3594,345.625 257.125,345.8906 Q256.8906,346.1563 256.5156,346.1563 Q256.1719,346.1563 255.9688,345.9531 Q255.7656,345.7656 255.6563,345.25 Q255.6094,344.8906 255.4219,344.7031 Q255.0938,344.3281 254.4844,344.1094 Q253.875,343.8906 253.25,343.8906 Q252.4844,343.8906 251.8438,344.2188 Q251.2188,344.5469 250.7188,345.2969 Q250.2344,346.0469 250.2344,347.0781 L250.2344,348.1719 Q250.2344,349.4063 251.125,350.2344 Q252.0156,351.0469 253.6094,351.0469 Q254.5469,351.0469 255.2031,350.7969 Q255.5938,350.6406 256.0156,350.2031 Q256.2813,349.9375 256.4219,349.8594 Q256.5781,349.7813 256.7813,349.7813 Q257.1094,349.7813 257.3594,350.0469 Q257.625,350.2969 257.625,350.6406 Q257.625,350.9844 257.2813,351.3906 Q256.7813,351.9688 255.9844,352.2969 Q254.9063,352.75 253.6094,352.75 Q252.0938,352.75 250.8906,352.125 Q249.9063,351.625 249.2188,350.5625 Q248.5313,349.4844 248.5313,348.2031 L248.5313,347.0469 Q248.5313,345.7188 249.1406,344.5781 Q249.7656,343.4219 250.8594,342.8125 Q251.9531,342.1875 253.1875,342.1875 Q253.9219,342.1875 254.5625,342.3594 Q255.2188,342.5156 255.7656,342.875 Z " fill="#000000"/><text fill="#000000" font-family="sans-serif" font-size="14" lengthAdjust="spacing" textLength="175.0479" x="267" y="352.7969">UPwSmallStrainFICElement</text><line style="stroke:#181818;stroke-width:0.5;" x1="239" x2="444.0479" y1="363" y2="363"/><line style="stroke:#181818;stroke-width:0.5;" x1="239" x2="444.0479" y1="371" y2="371"/></g><!--class UPwUpdatedLagrangianFICElement--><g class="entity" data-entity="UPwUpdatedLagrangianFICElement" data-source-line="12" data-uid="ent0008" id="entity_UPwUpdatedLagrangianFICElement"><rect fill="#F1F1F1" height="48" rx="2.5" ry="2.5" style="stroke:#181818;stroke-width:0.5;" width="258.4609" x="221.5" y="439"/><ellipse cx="236.5" cy="455" fill="#ADD1B2" rx="11" ry="11" style="stroke:#181818;stroke-width:1;"/><path d="M239.2656,450.875 Q239.4219,450.6563 239.6094,450.5469 Q239.7969,450.4375 240.0156,450.4375 Q240.3906,450.4375 240.625,450.7031 Q240.8594,450.9531 240.8594,451.5625 L240.8594,453.0156 Q240.8594,453.625 240.625,453.8906 Q240.3906,454.1563 240.0156,454.1563 Q239.6719,454.1563 239.4688,453.9531 Q239.2656,453.7656 239.1563,453.25 Q239.1094,452.8906 238.9219,452.7031 Q238.5938,452.3281 237.9844,452.1094 Q237.375,451.8906 236.75,451.8906 Q235.9844,451.8906 235.3438,452.2188 Q234.7188,452.5469 234.2188,453.2969 Q233.7344,454.0469 233.7344,455.0781 L233.7344,456.1719 Q233.7344,457.4063 234.625,458.2344 Q235.5156,459.0469 237.1094,459.0469 Q238.0469,459.0469 238.7031,458.7969 Q239.0938,458.6406 239.5156,458.2031 Q239.7813,457.9375 239.9219,457.8594 Q240.0781,457.7813 240.2813,457.7813 Q240.6094,457.7813 240.8594,458.0469 Q241.125,458.2969 241.125,458.6406 Q241.125,458.9844 240.7813,459.3906 Q240.2813,459.9688 239.4844,460.2969 Q238.4063,460.75 237.1094,460.75 Q235.5938,460.75 234.3906,460.125 Q233.4063,459.625 232.7188,458.5625 Q232.0313,457.4844 232.0313,456.2031 L232.0313,455.0469 Q232.0313,453.7188 232.6406,452.5781 Q233.2656,451.4219 234.3594,450.8125 Q235.4531,450.1875 236.6875,450.1875 Q237.4219,450.1875 238.0625,450.3594 Q238.7188,450.5156 239.2656,450.875 Z " fill="#000000"/><text fill="#000000" font-family="sans-serif" font-size="14" lengthAdjust="spacing" textLength="226.4609" x="250.5" y="460.7969">UPwUpdatedLagrangianFICElement</text><line style="stroke:#181818;stroke-width:0.5;" x1="222.5" x2="478.9609" y1="471" y2="471"/><line style="stroke:#181818;stroke-width:0.5;" x1="222.5" x2="478.9609" y1="479" y2="479"/></g><!--class UPwUpdatedLagrangianElement--><g class="entity" data-entity="UPwUpdatedLagrangianElement" data-source-line="13" data-uid="ent0009" id="entity_UPwUpdatedLagrangianElement"><rect fill="#F1F1F1" height="48" rx="2.5" ry="2.5" style="stroke:#181818;stroke-width:0.5;" width="235.9092" x="480.5" y="331"/><ellipse cx="495.5" cy="347" fill="#ADD1B2" rx="11" ry="11" style="stroke:#181818;stroke-width:1;"/><path d="M498.2656,342.875 Q498.4219,342.6563 498.6094,342.5469 Q498.7969,342.4375 499.0156,342.4375 Q499.3906,342.4375 499.625,342.7031 Q499.8594,342.9531 499.8594,343.5625 L499.8594,345.0156 Q499.8594,345.625 499.625,345.8906 Q499.3906,346.1563 499.0156,346.1563 Q498.6719,346.1563 498.4688,345.9531 Q498.2656,345.7656 498.1563,345.25 Q498.1094,344.8906 497.9219,344.7031 Q497.5938,344.3281 496.9844,344.1094 Q496.375,343.8906 495.75,343.8906 Q494.9844,343.8906 494.3438,344.2188 Q493.7188,344.5469 493.2188,345.2969 Q492.7344,346.0469 492.7344,347.0781 L492.7344,348.1719 Q492.7344,349.4063 493.625,350.2344 Q494.5156,351.0469 496.1094,351.0469 Q497.0469,351.0469 497.7031,350.7969 Q498.0938,350.6406 498.5156,350.2031 Q498.7813,349.9375 498.9219,349.8594 Q499.0781,349.7813 499.2813,349.7813 Q499.6094,349.7813 499.8594,350.0469 Q500.125,350.2969 500.125,350.6406 Q500.125,350.9844 499.7813,351.3906 Q499.2813,351.9688 498.4844,352.2969 Q497.4063,352.75 496.1094,352.75 Q494.5938,352.75 493.3906,352.125 Q492.4063,351.625 491.7188,350.5625 Q491.0313,349.4844 491.0313,348.2031 L491.0313,347.0469 Q491.0313,345.7188 491.6406,344.5781 Q492.2656,343.4219 493.3594,342.8125 Q494.4531,342.1875 495.6875,342.1875 Q496.4219,342.1875 497.0625,342.3594 Q497.7188,342.5156 498.2656,342.875 Z " fill="#000000"/><text fill="#000000" font-family="sans-serif" font-size="14" lengthAdjust="spacing" textLength="203.9092" x="509.5" y="352.7969">UPwUpdatedLagrangianElement</text><line style="stroke:#181818;stroke-width:0.5;" x1="481.5" x2="715.4092" y1="363" y2="363"/><line style="stroke:#181818;stroke-width:0.5;" x1="481.5" x2="715.4092" y1="371" y2="371"/></g><!--class UPwSmallStrainInterfaceElement--><g class="entity" data-entity="UPwSmallStrainInterfaceElement" data-source-line="15" data-uid="ent0010" id="entity_UPwSmallStrainInterfaceElement"><rect fill="#F1F1F1" height="48" rx="2.5" ry="2.5" style="stroke:#181818;stroke-width:0.5;" width="238.9717" x="495" y="223"/><ellipse cx="510" cy="239" fill="#ADD1B2" rx="11" ry="11" style="stroke:#181818;stroke-width:1;"/><path d="M512.7656,234.875 Q512.9219,234.6563 513.1094,234.5469 Q513.2969,234.4375 513.5156,234.4375 Q513.8906,234.4375 514.125,234.7031 Q514.3594,234.9531 514.3594,235.5625 L514.3594,237.0156 Q514.3594,237.625 514.125,237.8906 Q513.8906,238.1563 513.5156,238.1563 Q513.1719,238.1563 512.9688,237.9531 Q512.7656,237.7656 512.6563,237.25 Q512.6094,236.8906 512.4219,236.7031 Q512.0938,236.3281 511.4844,236.1094 Q510.875,235.8906 510.25,235.8906 Q509.4844,235.8906 508.8438,236.2188 Q508.2188,236.5469 507.7188,237.2969 Q507.2344,238.0469 507.2344,239.0781 L507.2344,240.1719 Q507.2344,241.4063 508.125,242.2344 Q509.0156,243.0469 510.6094,243.0469 Q511.5469,243.0469 512.2031,242.7969 Q512.5938,242.6406 513.0156,242.2031 Q513.2813,241.9375 513.4219,241.8594 Q513.5781,241.7813 513.7813,241.7813 Q514.1094,241.7813 514.3594,242.0469 Q514.625,242.2969 514.625,242.6406 Q514.625,242.9844 514.2813,243.3906 Q513.7813,243.9688 512.9844,244.2969 Q511.9063,244.75 510.6094,244.75 Q509.0938,244.75 507.8906,244.125 Q506.9063,243.625 506.2188,242.5625 Q505.5313,241.4844 505.5313,240.2031 L505.5313,239.0469 Q505.5313,237.7188 506.1406,236.5781 Q506.7656,235.4219 507.8594,234.8125 Q508.9531,234.1875 510.1875,234.1875 Q510.9219,234.1875 511.5625,234.3594 Q512.2188,234.5156 512.7656,234.875 Z " fill="#000000"/><text fill="#000000" font-family="sans-serif" font-size="14" lengthAdjust="spacing" textLength="206.9717" x="524" y="244.7969">UPwSmallStrainInterfaceElement</text><line style="stroke:#181818;stroke-width:0.5;" x1="496" x2="732.9717" y1="255" y2="255"/><line style="stroke:#181818;stroke-width:0.5;" x1="496" x2="732.9717" y1="263" y2="263"/></g><!--class SmallStrainUPwDiffOrderElement--><g class="entity" data-entity="SmallStrainUPwDiffOrderElement" data-source-line="29" data-uid="ent0018" id="entity_SmallStrainUPwDiffOrderElement"><rect fill="#F1F1F1" height="48" rx="2.5" ry="2.5" style="stroke:#181818;stroke-width:0.5;" width="241.2822" x="773" y="223"/><ellipse cx="788" cy="239" fill="#ADD1B2" rx="11" ry="11" style="stroke:#181818;stroke-width:1;"/><path d="M790.7656,234.875 Q790.9219,234.6563 791.1094,234.5469 Q791.2969,234.4375 791.5156,234.4375 Q791.8906,234.4375 792.125,234.7031 Q792.3594,234.9531 792.3594,235.5625 L792.3594,237.0156 Q792.3594,237.625 792.125,237.8906 Q791.8906,238.1563 791.5156,238.1563 Q791.1719,238.1563 790.9688,237.9531 Q790.7656,237.7656 790.6563,237.25 Q790.6094,236.8906 790.4219,236.7031 Q790.0938,236.3281 789.4844,236.1094 Q788.875,235.8906 788.25,235.8906 Q787.4844,235.8906 786.8438,236.2188 Q786.2188,236.5469 785.7188,237.2969 Q785.2344,238.0469 785.2344,239.0781 L785.2344,240.1719 Q785.2344,241.4063 786.125,242.2344 Q787.0156,243.0469 788.6094,243.0469 Q789.5469,243.0469 790.2031,242.7969 Q790.5938,242.6406 791.0156,242.2031 Q791.2813,241.9375 791.4219,241.8594 Q791.5781,241.7813 791.7813,241.7813 Q792.1094,241.7813 792.3594,242.0469 Q792.625,242.2969 792.625,242.6406 Q792.625,242.9844 792.2813,243.3906 Q791.7813,243.9688 790.9844,244.2969 Q789.9063,244.75 788.6094,244.75 Q787.0938,244.75 785.8906,244.125 Q784.9063,243.625 784.2188,242.5625 Q783.5313,241.4844 783.5313,240.2031 L783.5313,239.0469 Q783.5313,237.7188 784.1406,236.5781 Q784.7656,235.4219 785.8594,234.8125 Q786.9531,234.1875 788.1875,234.1875 Q788.9219,234.1875 789.5625,234.3594 Q790.2188,234.5156 790.7656,234.875 Z " fill="#000000"/><text fill="#000000" font-family="sans-serif" font-size="14" lengthAdjust="spacing" textLength="209.2822" x="802" y="244.7969">SmallStrainUPwDiffOrderElement</text><line style="stroke:#181818;stroke-width:0.5;" x1="774" x2="1013.2822" y1="255" y2="255"/><line style="stroke:#181818;stroke-width:0.5;" x1="774" x2="1013.2822" y1="263" y2="263"/></g><!--class UpdatedLagrangianUPwDiffOrderElement--><g class="entity" data-entity="UpdatedLagrangianUPwDiffOrderElement" data-source-line="30" data-uid="ent0019" id="entity_UpdatedLagrangianUPwDiffOrderElement"><rect fill="#F1F1F1" height="48" rx="2.5" ry="2.5" style="stroke:#181818;stroke-width:0.5;" width="292.6953" x="752" y="331"/><ellipse cx="767" cy="347" fill="#ADD1B2" rx="11" ry="11" style="stroke:#181818;stroke-width:1;"/><path d="M769.7656,342.875 Q769.9219,342.6563 770.1094,342.5469 Q770.2969,342.4375 770.5156,342.4375 Q770.8906,342.4375 771.125,342.7031 Q771.3594,342.9531 771.3594,343.5625 L771.3594,345.0156 Q771.3594,345.625 771.125,345.8906 Q770.8906,346.1563 770.5156,346.1563 Q770.1719,346.1563 769.9688,345.9531 Q769.7656,345.7656 769.6563,345.25 Q769.6094,344.8906 769.4219,344.7031 Q769.0938,344.3281 768.4844,344.1094 Q767.875,343.8906 767.25,343.8906 Q766.4844,343.8906 765.8438,344.2188 Q765.2188,344.5469 764.7188,345.2969 Q764.2344,346.0469 764.2344,347.0781 L764.2344,348.1719 Q764.2344,349.4063 765.125,350.2344 Q766.0156,351.0469 767.6094,351.0469 Q768.5469,351.0469 769.2031,350.7969 Q769.5938,350.6406 770.0156,350.2031 Q770.2813,349.9375 770.4219,349.8594 Q770.5781,349.7813 770.7813,349.7813 Q771.1094,349.7813 771.3594,350.0469 Q771.625,350.2969 771.625,350.6406 Q771.625,350.9844 771.2813,351.3906 Q770.7813,351.9688 769.9844,352.2969 Q768.9063,352.75 767.6094,352.75 Q766.0938,352.75 764.8906,352.125 Q763.9063,351.625 763.2188,350.5625 Q762.5313,349.4844 762.5313,348.2031 L762.5313,347.0469 Q762.5313,345.7188 763.1406,344.5781 Q763.7656,343.4219 764.8594,342.8125 Q765.9531,342.1875 767.1875,342.1875 Q767.9219,342.1875 768.5625,342.3594 Q769.2188,342.5156 769.7656,342.875 Z " fill="#000000"/><text fill="#000000" font-family="sans-serif" font-size="14" lengthAdjust="spacing" textLength="260.6953" x="781" y="352.7969">UpdatedLagrangianUPwDiffOrderElement</text><line style="stroke:#181818;stroke-width:0.5;" x1="753" x2="1043.6953" y1="363" y2="363"/><line style="stroke:#181818;stroke-width:0.5;" x1="753" x2="1043.6953" y1="371" y2="371"/></g><!--class InterfaceElement--><g class="entity" data-entity="InterfaceElement" data-source-line="37" data-uid="ent0023" id="entity_InterfaceElement"><rect fill="#F1F1F1" height="48" rx="2.5" ry="2.5" style="stroke:#181818;stroke-width:0.5;" width="137.834" x="722.5" y="115"/><ellipse cx="737.5" cy="131" fill="#ADD1B2" rx="11" ry="11" style="stroke:#181818;stroke-width:1;"/><path d="M740.2656,126.875 Q740.4219,126.6563 740.6094,126.5469 Q740.7969,126.4375 741.0156,126.4375 Q741.3906,126.4375 741.625,126.7031 Q741.8594,126.9531 741.8594,127.5625 L741.8594,129.0156 Q741.8594,129.625 741.625,129.8906 Q741.3906,130.1563 741.0156,130.1563 Q740.6719,130.1563 740.4688,129.9531 Q740.2656,129.7656 740.1563,129.25 Q740.1094,128.8906 739.9219,128.7031 Q739.5938,128.3281 738.9844,128.1094 Q738.375,127.8906 737.75,127.8906 Q736.9844,127.8906 736.3438,128.2188 Q735.7188,128.5469 735.2188,129.2969 Q734.7344,130.0469 734.7344,131.0781 L734.7344,132.1719 Q734.7344,133.4063 735.625,134.2344 Q736.5156,135.0469 738.1094,135.0469 Q739.0469,135.0469 739.7031,134.7969 Q740.0938,134.6406 740.5156,134.2031 Q740.7813,133.9375 740.9219,133.8594 Q741.0781,133.7813 741.2813,133.7813 Q741.6094,133.7813 741.8594,134.0469 Q742.125,134.2969 742.125,134.6406 Q742.125,134.9844 741.7813,135.3906 Q741.2813,135.9688 740.4844,136.2969 Q739.4063,136.75 738.1094,136.75 Q736.5938,136.75 735.3906,136.125 Q734.4063,135.625 733.7188,134.5625 Q733.0313,133.4844 733.0313,132.2031 L733.0313,131.0469 Q733.0313,129.7188 733.6406,128.5781 Q734.2656,127.4219 735.3594,126.8125 Q736.4531,126.1875 737.6875,126.1875 Q738.4219,126.1875 739.0625,126.3594 Q739.7188,126.5156 740.2656,126.875 Z " fill="#000000"/><text fill="#000000" font-family="sans-serif" font-size="14" lengthAdjust="spacing" textLength="105.834" x="751.5" y="136.7969">InterfaceElement</text><line style="stroke:#181818;stroke-width:0.5;" x1="723.5" x2="859.334" y1="147" y2="147"/><line style="stroke:#181818;stroke-width:0.5;" x1="723.5" x2="859.334" y1="155" y2="155"/></g><!--class PwElement--><g class="entity" data-entity="PwElement" data-source-line="41" data-uid="ent0025" id="entity_PwElement"><rect fill="#F1F1F1" height="48" rx="2.5" ry="2.5" style="stroke:#181818;stroke-width:0.5;" width="102.8066" x="896" y="115"/><ellipse cx="911" cy="131" fill="#ADD1B2" rx="11" ry="11" style="stroke:#181818;stroke-width:1;"/><path d="M913.7656,126.875 Q913.9219,126.6563 914.1094,126.5469 Q914.2969,126.4375 914.5156,126.4375 Q914.8906,126.4375 915.125,126.7031 Q915.3594,126.9531 915.3594,127.5625 L915.3594,129.0156 Q915.3594,129.625 915.125,129.8906 Q914.8906,130.1563 914.5156,130.1563 Q914.1719,130.1563 913.9688,129.9531 Q913.7656,129.7656 913.6563,129.25 Q913.6094,128.8906 913.4219,128.7031 Q913.0938,128.3281 912.4844,128.1094 Q911.875,127.8906 911.25,127.8906 Q910.4844,127.8906 909.8438,128.2188 Q909.2188,128.5469 908.7188,129.2969 Q908.2344,130.0469 908.2344,131.0781 L908.2344,132.1719 Q908.2344,133.4063 909.125,134.2344 Q910.0156,135.0469 911.6094,135.0469 Q912.5469,135.0469 913.2031,134.7969 Q913.5938,134.6406 914.0156,134.2031 Q914.2813,133.9375 914.4219,133.8594 Q914.5781,133.7813 914.7813,133.7813 Q915.1094,133.7813 915.3594,134.0469 Q915.625,134.2969 915.625,134.6406 Q915.625,134.9844 915.2813,135.3906 Q914.7813,135.9688 913.9844,136.2969 Q912.9063,136.75 911.6094,136.75 Q910.0938,136.75 908.8906,136.125 Q907.9063,135.625 907.2188,134.5625 Q906.5313,133.4844 906.5313,132.2031 L906.5313,131.0469 Q906.5313,129.7188 907.1406,128.5781 Q907.7656,127.4219 908.8594,126.8125 Q909.9531,126.1875 911.1875,126.1875 Q911.9219,126.1875 912.5625,126.3594 Q913.2188,126.5156 913.7656,126.875 Z " fill="#000000"/><text fill="#000000" font-family="sans-serif" font-size="14" lengthAdjust="spacing" textLength="70.8066" x="925" y="136.7969">PwElement</text><line style="stroke:#181818;stroke-width:0.5;" x1="897" x2="997.8066" y1="147" y2="147"/><line style="stroke:#181818;stroke-width:0.5;" x1="897" x2="997.8066" y1="155" y2="155"/></g><!--class GeoSteadyStatePwPipingElement--><g class="entity" data-entity="GeoSteadyStatePwPipingElement" data-source-line="42" data-uid="ent0026" id="entity_GeoSteadyStatePwPipingElement"><rect fill="#F1F1F1" height="48" rx="2.5" ry="2.5" style="stroke:#181818;stroke-width:0.5;" width="244.4609" x="1034.5" y="115"/><ellipse cx="1049.5" cy="131" fill="#ADD1B2" rx="11" ry="11" style="stroke:#181818;stroke-width:1;"/><path d="M1052.2656,126.875 Q1052.4219,126.6563 1052.6094,126.5469 Q1052.7969,126.4375 1053.0156,126.4375 Q1053.3906,126.4375 1053.625,126.7031 Q1053.8594,126.9531 1053.8594,127.5625 L1053.8594,129.0156 Q1053.8594,129.625 1053.625,129.8906 Q1053.3906,130.1563 1053.0156,130.1563 Q1052.6719,130.1563 1052.4688,129.9531 Q1052.2656,129.7656 1052.1563,129.25 Q1052.1094,128.8906 1051.9219,128.7031 Q1051.5938,128.3281 1050.9844,128.1094 Q1050.375,127.8906 1049.75,127.8906 Q1048.9844,127.8906 1048.3438,128.2188 Q1047.7188,128.5469 1047.2188,129.2969 Q1046.7344,130.0469 1046.7344,131.0781 L1046.7344,132.1719 Q1046.7344,133.4063 1047.625,134.2344 Q1048.5156,135.0469 1050.1094,135.0469 Q1051.0469,135.0469 1051.7031,134.7969 Q1052.0938,134.6406 1052.5156,134.2031 Q1052.7813,133.9375 1052.9219,133.8594 Q1053.0781,133.7813 1053.2813,133.7813 Q1053.6094,133.7813 1053.8594,134.0469 Q1054.125,134.2969 1054.125,134.6406 Q1054.125,134.9844 1053.7813,135.3906 Q1053.2813,135.9688 1052.4844,136.2969 Q1051.4063,136.75 1050.1094,136.75 Q1048.5938,136.75 1047.3906,136.125 Q1046.4063,135.625 1045.7188,134.5625 Q1045.0313,133.4844 1045.0313,132.2031 L1045.0313,131.0469 Q1045.0313,129.7188 1045.6406,128.5781 Q1046.2656,127.4219 1047.3594,126.8125 Q1048.4531,126.1875 1049.6875,126.1875 Q1050.4219,126.1875 1051.0625,126.3594 Q1051.7188,126.5156 1052.2656,126.875 Z " fill="#000000"/><text fill="#000000" font-family="sans-serif" font-size="14" lengthAdjust="spacing" textLength="212.4609" x="1063.5" y="136.7969">GeoSteadyStatePwPipingElement</text><line style="stroke:#181818;stroke-width:0.5;" x1="1035.5" x2="1277.9609" y1="147" y2="147"/><line style="stroke:#181818;stroke-width:0.5;" x1="1035.5" x2="1277.9609" y1="155" y2="155"/></g><!--class TransientThermalElement--><g class="entity" data-entity="TransientThermalElement" data-source-line="48" data-uid="ent0029" id="entity_TransientThermalElement"><rect fill="#F1F1F1" height="48" rx="2.5" ry="2.5" style="stroke:#181818;stroke-width:0.5;" width="193.0615" x="1314" y="115"/><ellipse cx="1329" cy="131" fill="#ADD1B2" rx="11" ry="11" style="stroke:#181818;stroke-width:1;"/><path d="M1331.7656,126.875 Q1331.9219,126.6563 1332.1094,126.5469 Q1332.2969,126.4375 1332.5156,126.4375 Q1332.8906,126.4375 1333.125,126.7031 Q1333.3594,126.9531 1333.3594,127.5625 L1333.3594,129.0156 Q1333.3594,129.625 1333.125,129.8906 Q1332.8906,130.1563 1332.5156,130.1563 Q1332.1719,130.1563 1331.9688,129.9531 Q1331.7656,129.7656 1331.6563,129.25 Q1331.6094,128.8906 1331.4219,128.7031 Q1331.0938,128.3281 1330.4844,128.1094 Q1329.875,127.8906 1329.25,127.8906 Q1328.4844,127.8906 1327.8438,128.2188 Q1327.2188,128.5469 1326.7188,129.2969 Q1326.2344,130.0469 1326.2344,131.0781 L1326.2344,132.1719 Q1326.2344,133.4063 1327.125,134.2344 Q1328.0156,135.0469 1329.6094,135.0469 Q1330.5469,135.0469 1331.2031,134.7969 Q1331.5938,134.6406 1332.0156,134.2031 Q1332.2813,133.9375 1332.4219,133.8594 Q1332.5781,133.7813 1332.7813,133.7813 Q1333.1094,133.7813 1333.3594,134.0469 Q1333.625,134.2969 1333.625,134.6406 Q1333.625,134.9844 1333.2813,135.3906 Q1332.7813,135.9688 1331.9844,136.2969 Q1330.9063,136.75 1329.6094,136.75 Q1328.0938,136.75 1326.8906,136.125 Q1325.9063,135.625 1325.2188,134.5625 Q1324.5313,133.4844 1324.5313,132.2031 L1324.5313,131.0469 Q1324.5313,129.7188 1325.1406,128.5781 Q1325.7656,127.4219 1326.8594,126.8125 Q1327.9531,126.1875 1329.1875,126.1875 Q1329.9219,126.1875 1330.5625,126.3594 Q1331.2188,126.5156 1331.7656,126.875 Z " fill="#000000"/><text fill="#000000" font-family="sans-serif" font-size="14" lengthAdjust="spacing" textLength="161.0615" x="1343" y="136.7969">TransientThermalElement</text><line style="stroke:#181818;stroke-width:0.5;" x1="1315" x2="1506.0615" y1="147" y2="147"/><line style="stroke:#181818;stroke-width:0.5;" x1="1315" x2="1506.0615" y1="155" y2="155"/></g><!--reverse link Element to UPwBaseElement--><g class="link" data-entity-1="Element" data-entity-2="UPwBaseElement" data-source-line="17" data-uid="lnk11" id="link_Element_UPwBaseElement"><path codeLine="17" d="M888.8482,50.6704 C834.0982,68.1004 754.02,93.59 687,114.92" fill="none" id="Element-backto-UPwBaseElement" style="stroke:#181818;stroke-width:1;"/><polygon fill="none" points="906,45.21,887.0281,44.9531,890.6683,56.3876,906,45.21" style="stroke:#181818;stroke-width:1;"/></g><!--reverse link UPwBaseElement to UPwSmallStrainElement--><g class="link" data-entity-1="UPwBaseElement" data-entity-2="UPwSmallStrainElement" data-source-line="18" data-uid="lnk12" id="link_UPwBaseElement_UPwSmallStrainElement"><path codeLine="18" d="M542.3196,169.8869 C499.5296,187.6069 457.26,205.11 414.38,222.86" fill="none" id="UPwBaseElement-backto-UPwSmallStrainElement" style="stroke:#181818;stroke-width:1;"/><polygon fill="none" points="558.95,163,540.024,164.3434,544.6152,175.4304,558.95,163" style="stroke:#181818;stroke-width:1;"/></g><!--reverse link UPwSmallStrainElement to TransientPwElement--><g class="link" data-entity-1="UPwSmallStrainElement" data-entity-2="TransientPwElement" data-source-line="20" data-uid="lnk13" id="link_UPwSmallStrainElement_TransientPwElement"><path codeLine="20" d="M288.8197,278.147 C247.8597,295.867 208.01,313.11 166.98,330.86" fill="none" id="UPwSmallStrainElement-backto-TransientPwElement" style="stroke:#181818;stroke-width:1;"/><polygon fill="none" points="305.34,271,286.4374,272.6402,291.202,283.6537,305.34,271" style="stroke:#181818;stroke-width:1;"/></g><!--reverse link TransientPwElement to SteadyStatePwElement--><g class="link" data-entity-1="TransientPwElement" data-entity-2="SteadyStatePwElement" data-source-line="21" data-uid="lnk14" id="link_TransientPwElement_SteadyStatePwElement"><path codeLine="21" d="M106.9619,396.7732 C104.1319,414.4332 103.08,420.94 100.24,438.68" fill="none" id="TransientPwElement-backto-SteadyStatePwElement" style="stroke:#181818;stroke-width:1;"/><polygon fill="none" points="109.81,379,101.0374,395.8239,112.8863,397.7226,109.81,379" style="stroke:#181818;stroke-width:1;"/></g><!--reverse link UPwSmallStrainElement to UPwSmallStrainFICElement--><g class="link" data-entity-1="UPwSmallStrainElement" data-entity-2="UPwSmallStrainFICElement" data-source-line="22" data-uid="lnk15" id="link_UPwSmallStrainElement_UPwSmallStrainFICElement"><path codeLine="22" d="M351.9619,288.7732 C349.1319,306.4332 348.08,312.94 345.24,330.68" fill="none" id="UPwSmallStrainElement-backto-UPwSmallStrainFICElement" style="stroke:#181818;stroke-width:1;"/><polygon fill="none" points="354.81,271,346.0374,287.8239,357.8863,289.7226,354.81,271" style="stroke:#181818;stroke-width:1;"/></g><!--reverse link UPwSmallStrainFICElement to UPwUpdatedLagrangianFICElement--><g class="link" data-entity-1="UPwSmallStrainFICElement" data-entity-2="UPwUpdatedLagrangianFICElement" data-source-line="23" data-uid="lnk16" id="link_UPwSmallStrainFICElement_UPwUpdatedLagrangianFICElement"><path codeLine="23" d="M344.9734,396.9354 C346.4734,414.5954 347.01,420.94 348.52,438.68" fill="none" id="UPwSmallStrainFICElement-backto-UPwUpdatedLagrangianFICElement" style="stroke:#181818;stroke-width:1;"/><polygon fill="none" points="343.45,379,338.9949,397.4432,350.9519,396.4276,343.45,379" style="stroke:#181818;stroke-width:1;"/></g><!--reverse link UPwSmallStrainElement to UPwUpdatedLagrangianElement--><g class="link" data-entity-1="UPwSmallStrainElement" data-entity-2="UPwUpdatedLagrangianElement" data-source-line="24" data-uid="lnk17" id="link_UPwSmallStrainElement_UPwUpdatedLagrangianElement"><path codeLine="24" d="M427.0448,278.2739 C467.1548,295.9939 505.92,313.11 546.11,330.86" fill="none" id="UPwSmallStrainElement-backto-UPwUpdatedLagrangianElement" style="stroke:#181818;stroke-width:1;"/><polygon fill="none" points="410.58,271,424.6202,283.7622,429.4695,272.7856,410.58,271" style="stroke:#181818;stroke-width:1;"/></g><!--reverse link UPwBaseElement to SmallStrainUPwDiffOrderElement--><g class="link" data-entity-1="UPwBaseElement" data-entity-2="SmallStrainUPwDiffOrderElement" data-source-line="32" data-uid="lnk20" id="link_UPwBaseElement_SmallStrainUPwDiffOrderElement"><path codeLine="32" d="M691.8665,169.3929 C738.5065,187.1129 785.87,205.11 832.6,222.86" fill="none" id="UPwBaseElement-backto-SmallStrainUPwDiffOrderElement" style="stroke:#181818;stroke-width:1;"/><polygon fill="none" points="675.04,163,689.7355,175.0017,693.9975,163.7841,675.04,163" style="stroke:#181818;stroke-width:1;"/></g><!--reverse link SmallStrainUPwDiffOrderElement to UpdatedLagrangianUPwDiffOrderElement--><g class="link" data-entity-1="SmallStrainUPwDiffOrderElement" data-entity-2="UpdatedLagrangianUPwDiffOrderElement" data-source-line="33" data-uid="lnk21" id="link_SmallStrainUPwDiffOrderElement_UpdatedLagrangianUPwDiffOrderElement"><path codeLine="33" d="M895.4352,288.9797 C896.2752,306.6397 896.56,312.94 897.4,330.68" fill="none" id="SmallStrainUPwDiffOrderElement-backto-UpdatedLagrangianUPwDiffOrderElement" style="stroke:#181818;stroke-width:1;"/><polygon fill="none" points="894.58,271,889.442,289.2647,901.4284,288.6946,894.58,271" style="stroke:#181818;stroke-width:1;"/></g><!--reverse link UPwBaseElement to UPwSmallStrainInterfaceElement--><g class="link" data-entity-1="UPwBaseElement" data-entity-2="UPwSmallStrainInterfaceElement" data-source-line="35" data-uid="lnk22" id="link_UPwBaseElement_UPwSmallStrainInterfaceElement"><path codeLine="35" d="M614.5,181 C614.5,198.66 614.5,204.94 614.5,222.68" fill="none" id="UPwBaseElement-backto-UPwSmallStrainInterfaceElement" style="stroke:#181818;stroke-width:1;"/><polygon fill="none" points="614.5,163,608.5,181,620.5,181,614.5,163" style="stroke:#181818;stroke-width:1;"/></g><!--reverse link Element to InterfaceElement--><g class="link" data-entity-1="Element" data-entity-2="InterfaceElement" data-source-line="38" data-uid="lnk24" id="link_Element_InterfaceElement"><path codeLine="38" d="M898.7615,65.116 C872.6815,82.836 851.68,97.11 825.55,114.86" fill="none" id="Element-backto-InterfaceElement" style="stroke:#181818;stroke-width:1;"/><polygon fill="none" points="913.65,55,895.3895,60.1531,902.1335,70.0788,913.65,55" style="stroke:#181818;stroke-width:1;"/></g><!--reverse link Element to PwElement--><g class="link" data-entity-1="Element" data-entity-2="PwElement" data-source-line="44" data-uid="lnk27" id="link_Element_PwElement"><path codeLine="44" d="M947.5,73 C947.5,90.66 947.5,96.94 947.5,114.68" fill="none" id="Element-backto-PwElement" style="stroke:#181818;stroke-width:1;"/><polygon fill="none" points="947.5,55,941.5,73,953.5,73,947.5,55" style="stroke:#181818;stroke-width:1;"/></g><!--reverse link Element to GeoSteadyStatePwPipingElement--><g class="link" data-entity-1="Element" data-entity-2="GeoSteadyStatePwPipingElement" data-source-line="45" data-uid="lnk28" id="link_Element_GeoSteadyStatePwPipingElement"><path codeLine="45" d="M1005.0939,61.2108 C1040.3339,79.0808 1074.74,96.53 1111.05,114.95" fill="none" id="Element-backto-GeoSteadyStatePwPipingElement" style="stroke:#181818;stroke-width:1;"/><polygon fill="none" points="989.04,53.07,1002.3803,66.5621,1007.8075,55.8595,989.04,53.07" style="stroke:#181818;stroke-width:1;"/></g><!--reverse link Element to TransientThermalElement--><g class="link" data-entity-1="Element" data-entity-2="TransientThermalElement" data-source-line="49" data-uid="lnk30" id="link_Element_TransientThermalElement"><path codeLine="49" d="M1006.9459,45.6077 C1079.7459,62.2777 1213.77,92.96 1313.81,115.86" fill="none" id="Element-backto-TransientThermalElement" style="stroke:#181818;stroke-width:1;"/><polygon fill="none" points="989.4,41.59,1005.6066,51.4563,1008.2851,39.7591,989.4,41.59" style="stroke:#181818;stroke-width:1;"/></g><!--SRC=[dLDDRuGW4BtpAxnnijwRdlgPJPgKn3KzJmHT4c0Dq9Wc_V7L5JKWOjDuSTwRzs266NonjZFtHT49KFPBYhlwAejQW34vvT1ga0ZTmkn5CCcKHGXNvDDX5UaVmR25Mj1IWX2brS3LJ4xSMOCoV8X9xnEbPK2_ImkMXPJlztfwsj1LHmSTVHylh5eEVqjANlkaBDCDr6jnxYTx-Cdpi78_N58YRK1HU594chE5fjHeknBMkptS8nPPghVf0_SRZiVlcJTDzg4fq_C8h5Q3UgHlRF2GeMaiDVeU1_PfsXNrxyEFXcigReDx7biL9lsybyPPXClpngxUh13USTN6XthLUl211SRd2zD3SU6AEpZgkPVq2m00]--></g></svg>