<svg xmlns="http://www.w3.org/2000/svg" xmlns:xlink="http://www.w3.org/1999/xlink" contentStyleType="text/css" height="494px" preserveAspectRatio="none" style="width:1645px;height:494px;background:#FFFFFF;" version="1.1" viewBox="0 0 1645 494" width="1645px" zoomAndPan="magnify"><defs/><g><!--class Element--><g id="elem_Element"><rect codeLine="3" fill="#F1F1F1" height="48" id="Element" rx="2.5" ry="2.5" style="stroke:#181818;stroke-width:0.5;" width="83.3584" x="848" y="7"/><ellipse cx="863" cy="23" fill="#ADD1B2" rx="11" ry="11" style="stroke:#181818;stroke-width:1.0;"/><path d="M865.7656,18.875 Q865.9219,18.6563 866.1094,18.5469 Q866.2969,18.4375 866.5156,18.4375 Q866.8906,18.4375 867.125,18.7031 Q867.3594,18.9531 867.3594,19.5625 L867.3594,21.0156 Q867.3594,21.625 867.125,21.8906 Q866.8906,22.1563 866.5156,22.1563 Q866.1719,22.1563 865.9688,21.9531 Q865.7656,21.7656 865.6563,21.25 Q865.6094,20.8906 865.4219,20.7031 Q865.0938,20.3281 864.4844,20.1094 Q863.875,19.8906 863.25,19.8906 Q862.4844,19.8906 861.8438,20.2188 Q861.2188,20.5469 860.7188,21.2969 Q860.2344,22.0469 860.2344,23.0781 L860.2344,24.1719 Q860.2344,25.4063 861.125,26.2344 Q862.0156,27.0469 863.6094,27.0469 Q864.5469,27.0469 865.2031,26.7969 Q865.5938,26.6406 866.0156,26.2031 Q866.2813,25.9375 866.4219,25.8594 Q866.5781,25.7813 866.7813,25.7813 Q867.1094,25.7813 867.3594,26.0469 Q867.625,26.2969 867.625,26.6406 Q867.625,26.9844 867.2813,27.3906 Q866.7813,27.9688 865.9844,28.2969 Q864.9063,28.75 863.6094,28.75 Q862.0938,28.75 860.8906,28.125 Q859.9063,27.625 859.2188,26.5625 Q858.5313,25.4844 858.5313,24.2031 L858.5313,23.0469 Q858.5313,21.7188 859.1406,20.5781 Q859.7656,19.4219 860.8594,18.8125 Q861.9531,18.1875 863.1875,18.1875 Q863.9219,18.1875 864.5625,18.3594 Q865.2188,18.5156 865.7656,18.875 Z " fill="#000000"/><text fill="#000000" font-family="sans-serif" font-size="14" lengthAdjust="spacing" textLength="51.3584" x="877" y="28.7969">Element</text><line style="stroke:#181818;stroke-width:0.5;" x1="849" x2="930.3584" y1="39" y2="39"/><line style="stroke:#181818;stroke-width:0.5;" x1="849" x2="930.3584" y1="47" y2="47"/></g><!--class UPwBaseElement--><g id="elem_UPwBaseElement"><rect codeLine="6" fill="#F1F1F1" height="48" id="UPwBaseElement" rx="2.5" ry="2.5" style="stroke:#181818;stroke-width:0.5;" width="144.8271" x="380" y="115"/><ellipse cx="395" cy="131" fill="#ADD1B2" rx="11" ry="11" style="stroke:#181818;stroke-width:1.0;"/><path d="M397.7656,126.875 Q397.9219,126.6563 398.1094,126.5469 Q398.2969,126.4375 398.5156,126.4375 Q398.8906,126.4375 399.125,126.7031 Q399.3594,126.9531 399.3594,127.5625 L399.3594,129.0156 Q399.3594,129.625 399.125,129.8906 Q398.8906,130.1563 398.5156,130.1563 Q398.1719,130.1563 397.9688,129.9531 Q397.7656,129.7656 397.6563,129.25 Q397.6094,128.8906 397.4219,128.7031 Q397.0938,128.3281 396.4844,128.1094 Q395.875,127.8906 395.25,127.8906 Q394.4844,127.8906 393.8438,128.2188 Q393.2188,128.5469 392.7188,129.2969 Q392.2344,130.0469 392.2344,131.0781 L392.2344,132.1719 Q392.2344,133.4063 393.125,134.2344 Q394.0156,135.0469 395.6094,135.0469 Q396.5469,135.0469 397.2031,134.7969 Q397.5938,134.6406 398.0156,134.2031 Q398.2813,133.9375 398.4219,133.8594 Q398.5781,133.7813 398.7813,133.7813 Q399.1094,133.7813 399.3594,134.0469 Q399.625,134.2969 399.625,134.6406 Q399.625,134.9844 399.2813,135.3906 Q398.7813,135.9688 397.9844,136.2969 Q396.9063,136.75 395.6094,136.75 Q394.0938,136.75 392.8906,136.125 Q391.9063,135.625 391.2188,134.5625 Q390.5313,133.4844 390.5313,132.2031 L390.5313,131.0469 Q390.5313,129.7188 391.1406,128.5781 Q391.7656,127.4219 392.8594,126.8125 Q393.9531,126.1875 395.1875,126.1875 Q395.9219,126.1875 396.5625,126.3594 Q397.2188,126.5156 397.7656,126.875 Z " fill="#000000"/><text fill="#000000" font-family="sans-serif" font-size="14" lengthAdjust="spacing" textLength="112.8271" x="409" y="136.7969">UPwBaseElement</text><line style="stroke:#181818;stroke-width:0.5;" x1="381" x2="523.8271" y1="147" y2="147"/><line style="stroke:#181818;stroke-width:0.5;" x1="381" x2="523.8271" y1="155" y2="155"/></g><!--class UPwSmallStrainElement--><g id="elem_UPwSmallStrainElement"><rect codeLine="8" fill="#F1F1F1" height="48" id="UPwSmallStrainElement" rx="2.5" ry="2.5" style="stroke:#181818;stroke-width:0.5;" width="184.4961" x="113.5" y="223"/><ellipse cx="128.5" cy="239" fill="#ADD1B2" rx="11" ry="11" style="stroke:#181818;stroke-width:1.0;"/><path d="M131.2656,234.875 Q131.4219,234.6563 131.6094,234.5469 Q131.7969,234.4375 132.0156,234.4375 Q132.3906,234.4375 132.625,234.7031 Q132.8594,234.9531 132.8594,235.5625 L132.8594,237.0156 Q132.8594,237.625 132.625,237.8906 Q132.3906,238.1563 132.0156,238.1563 Q131.6719,238.1563 131.4688,237.9531 Q131.2656,237.7656 131.1563,237.25 Q131.1094,236.8906 130.9219,236.7031 Q130.5938,236.3281 129.9844,236.1094 Q129.375,235.8906 128.75,235.8906 Q127.9844,235.8906 127.3438,236.2188 Q126.7188,236.5469 126.2188,237.2969 Q125.7344,238.0469 125.7344,239.0781 L125.7344,240.1719 Q125.7344,241.4063 126.625,242.2344 Q127.5156,243.0469 129.1094,243.0469 Q130.0469,243.0469 130.7031,242.7969 Q131.0938,242.6406 131.5156,242.2031 Q131.7813,241.9375 131.9219,241.8594 Q132.0781,241.7813 132.2813,241.7813 Q132.6094,241.7813 132.8594,242.0469 Q133.125,242.2969 133.125,242.6406 Q133.125,242.9844 132.7813,243.3906 Q132.2813,243.9688 131.4844,244.2969 Q130.4063,244.75 129.1094,244.75 Q127.5938,244.75 126.3906,244.125 Q125.4063,243.625 124.7188,242.5625 Q124.0313,241.4844 124.0313,240.2031 L124.0313,239.0469 Q124.0313,237.7188 124.6406,236.5781 Q125.2656,235.4219 126.3594,234.8125 Q127.4531,234.1875 128.6875,234.1875 Q129.4219,234.1875 130.0625,234.3594 Q130.7188,234.5156 131.2656,234.875 Z " fill="#000000"/><text fill="#000000" font-family="sans-serif" font-size="14" lengthAdjust="spacing" textLength="152.4961" x="142.5" y="244.7969">UPwSmallStrainElement</text><line style="stroke:#181818;stroke-width:0.5;" x1="114.5" x2="296.9961" y1="255" y2="255"/><line style="stroke:#181818;stroke-width:0.5;" x1="114.5" x2="296.9961" y1="263" y2="263"/></g><!--class TransientPwElement--><g id="elem_TransientPwElement"><rect codeLine="9" fill="#F1F1F1" height="48" id="TransientPwElement" rx="2.5" ry="2.5" style="stroke:#181818;stroke-width:0.5;" width="161.165" x="16" y="331"/><ellipse cx="31" cy="347" fill="#ADD1B2" rx="11" ry="11" style="stroke:#181818;stroke-width:1.0;"/><path d="M33.7656,342.875 Q33.9219,342.6563 34.1094,342.5469 Q34.2969,342.4375 34.5156,342.4375 Q34.8906,342.4375 35.125,342.7031 Q35.3594,342.9531 35.3594,343.5625 L35.3594,345.0156 Q35.3594,345.625 35.125,345.8906 Q34.8906,346.1563 34.5156,346.1563 Q34.1719,346.1563 33.9688,345.9531 Q33.7656,345.7656 33.6563,345.25 Q33.6094,344.8906 33.4219,344.7031 Q33.0938,344.3281 32.4844,344.1094 Q31.875,343.8906 31.25,343.8906 Q30.4844,343.8906 29.8438,344.2188 Q29.2188,344.5469 28.7188,345.2969 Q28.2344,346.0469 28.2344,347.0781 L28.2344,348.1719 Q28.2344,349.4063 29.125,350.2344 Q30.0156,351.0469 31.6094,351.0469 Q32.5469,351.0469 33.2031,350.7969 Q33.5938,350.6406 34.0156,350.2031 Q34.2813,349.9375 34.4219,349.8594 Q34.5781,349.7813 34.7813,349.7813 Q35.1094,349.7813 35.3594,350.0469 Q35.625,350.2969 35.625,350.6406 Q35.625,350.9844 35.2813,351.3906 Q34.7813,351.9688 33.9844,352.2969 Q32.9063,352.75 31.6094,352.75 Q30.0938,352.75 28.8906,352.125 Q27.9063,351.625 27.2188,350.5625 Q26.5313,349.4844 26.5313,348.2031 L26.5313,347.0469 Q26.5313,345.7188 27.1406,344.5781 Q27.7656,343.4219 28.8594,342.8125 Q29.9531,342.1875 31.1875,342.1875 Q31.9219,342.1875 32.5625,342.3594 Q33.2188,342.5156 33.7656,342.875 Z " fill="#000000"/><text fill="#000000" font-family="sans-serif" font-size="14" lengthAdjust="spacing" textLength="129.165" x="45" y="352.7969">TransientPwElement</text><line style="stroke:#181818;stroke-width:0.5;" x1="17" x2="176.165" y1="363" y2="363"/><line style="stroke:#181818;stroke-width:0.5;" x1="17" x2="176.165" y1="371" y2="371"/></g><!--class SteadyStatePwElement--><g id="elem_SteadyStatePwElement"><rect codeLine="10" fill="#F1F1F1" height="48" id="SteadyStatePwElement" rx="2.5" ry="2.5" style="stroke:#181818;stroke-width:0.5;" width="179.082" x="7" y="439"/><ellipse cx="22" cy="455" fill="#ADD1B2" rx="11" ry="11" style="stroke:#181818;stroke-width:1.0;"/><path d="M24.7656,450.875 Q24.9219,450.6563 25.1094,450.5469 Q25.2969,450.4375 25.5156,450.4375 Q25.8906,450.4375 26.125,450.7031 Q26.3594,450.9531 26.3594,451.5625 L26.3594,453.0156 Q26.3594,453.625 26.125,453.8906 Q25.8906,454.1563 25.5156,454.1563 Q25.1719,454.1563 24.9688,453.9531 Q24.7656,453.7656 24.6563,453.25 Q24.6094,452.8906 24.4219,452.7031 Q24.0938,452.3281 23.4844,452.1094 Q22.875,451.8906 22.25,451.8906 Q21.4844,451.8906 20.8438,452.2188 Q20.2188,452.5469 19.7188,453.2969 Q19.2344,454.0469 19.2344,455.0781 L19.2344,456.1719 Q19.2344,457.4063 20.125,458.2344 Q21.0156,459.0469 22.6094,459.0469 Q23.5469,459.0469 24.2031,458.7969 Q24.5938,458.6406 25.0156,458.2031 Q25.2813,457.9375 25.4219,457.8594 Q25.5781,457.7813 25.7813,457.7813 Q26.1094,457.7813 26.3594,458.0469 Q26.625,458.2969 26.625,458.6406 Q26.625,458.9844 26.2813,459.3906 Q25.7813,459.9688 24.9844,460.2969 Q23.9063,460.75 22.6094,460.75 Q21.0938,460.75 19.8906,460.125 Q18.9063,459.625 18.2188,458.5625 Q17.5313,457.4844 17.5313,456.2031 L17.5313,455.0469 Q17.5313,453.7188 18.1406,452.5781 Q18.7656,451.4219 19.8594,450.8125 Q20.9531,450.1875 22.1875,450.1875 Q22.9219,450.1875 23.5625,450.3594 Q24.2188,450.5156 24.7656,450.875 Z " fill="#000000"/><text fill="#000000" font-family="sans-serif" font-size="14" lengthAdjust="spacing" textLength="147.082" x="36" y="460.7969">SteadyStatePwElement</text><line style="stroke:#181818;stroke-width:0.5;" x1="8" x2="185.082" y1="471" y2="471"/><line style="stroke:#181818;stroke-width:0.5;" x1="8" x2="185.082" y1="479" y2="479"/></g><!--class UPwSmallStrainFICElement--><g id="elem_UPwSmallStrainFICElement"><rect codeLine="11" fill="#F1F1F1" height="48" id="UPwSmallStrainFICElement" rx="2.5" ry="2.5" style="stroke:#181818;stroke-width:0.5;" width="207.0479" x="212" y="331"/><ellipse cx="227" cy="347" fill="#ADD1B2" rx="11" ry="11" style="stroke:#181818;stroke-width:1.0;"/><path d="M229.7656,342.875 Q229.9219,342.6563 230.1094,342.5469 Q230.2969,342.4375 230.5156,342.4375 Q230.8906,342.4375 231.125,342.7031 Q231.3594,342.9531 231.3594,343.5625 L231.3594,345.0156 Q231.3594,345.625 231.125,345.8906 Q230.8906,346.1563 230.5156,346.1563 Q230.1719,346.1563 229.9688,345.9531 Q229.7656,345.7656 229.6563,345.25 Q229.6094,344.8906 229.4219,344.7031 Q229.0938,344.3281 228.4844,344.1094 Q227.875,343.8906 227.25,343.8906 Q226.4844,343.8906 225.8438,344.2188 Q225.2188,344.5469 224.7188,345.2969 Q224.2344,346.0469 224.2344,347.0781 L224.2344,348.1719 Q224.2344,349.4063 225.125,350.2344 Q226.0156,351.0469 227.6094,351.0469 Q228.5469,351.0469 229.2031,350.7969 Q229.5938,350.6406 230.0156,350.2031 Q230.2813,349.9375 230.4219,349.8594 Q230.5781,349.7813 230.7813,349.7813 Q231.1094,349.7813 231.3594,350.0469 Q231.625,350.2969 231.625,350.6406 Q231.625,350.9844 231.2813,351.3906 Q230.7813,351.9688 229.9844,352.2969 Q228.9063,352.75 227.6094,352.75 Q226.0938,352.75 224.8906,352.125 Q223.9063,351.625 223.2188,350.5625 Q222.5313,349.4844 222.5313,348.2031 L222.5313,347.0469 Q222.5313,345.7188 223.1406,344.5781 Q223.7656,343.4219 224.8594,342.8125 Q225.9531,342.1875 227.1875,342.1875 Q227.9219,342.1875 228.5625,342.3594 Q229.2188,342.5156 229.7656,342.875 Z " fill="#000000"/><text fill="#000000" font-family="sans-serif" font-size="14" lengthAdjust="spacing" textLength="175.0479" x="241" y="352.7969">UPwSmallStrainFICElement</text><line style="stroke:#181818;stroke-width:0.5;" x1="213" x2="418.0479" y1="363" y2="363"/><line style="stroke:#181818;stroke-width:0.5;" x1="213" x2="418.0479" y1="371" y2="371"/></g><!--class UPwSmallStrainInterfaceElement--><g id="elem_UPwSmallStrainInterfaceElement"><rect codeLine="13" fill="#F1F1F1" height="48" id="UPwSmallStrainInterfaceElement" rx="2.5" ry="2.5" style="stroke:#181818;stroke-width:0.5;" width="238.9717" x="333" y="223"/><ellipse cx="348" cy="239" fill="#ADD1B2" rx="11" ry="11" style="stroke:#181818;stroke-width:1.0;"/><path d="M350.7656,234.875 Q350.9219,234.6563 351.1094,234.5469 Q351.2969,234.4375 351.5156,234.4375 Q351.8906,234.4375 352.125,234.7031 Q352.3594,234.9531 352.3594,235.5625 L352.3594,237.0156 Q352.3594,237.625 352.125,237.8906 Q351.8906,238.1563 351.5156,238.1563 Q351.1719,238.1563 350.9688,237.9531 Q350.7656,237.7656 350.6563,237.25 Q350.6094,236.8906 350.4219,236.7031 Q350.0938,236.3281 349.4844,236.1094 Q348.875,235.8906 348.25,235.8906 Q347.4844,235.8906 346.8438,236.2188 Q346.2188,236.5469 345.7188,237.2969 Q345.2344,238.0469 345.2344,239.0781 L345.2344,240.1719 Q345.2344,241.4063 346.125,242.2344 Q347.0156,243.0469 348.6094,243.0469 Q349.5469,243.0469 350.2031,242.7969 Q350.5938,242.6406 351.0156,242.2031 Q351.2813,241.9375 351.4219,241.8594 Q351.5781,241.7813 351.7813,241.7813 Q352.1094,241.7813 352.3594,242.0469 Q352.625,242.2969 352.625,242.6406 Q352.625,242.9844 352.2813,243.3906 Q351.7813,243.9688 350.9844,244.2969 Q349.9063,244.75 348.6094,244.75 Q347.0938,244.75 345.8906,244.125 Q344.9063,243.625 344.2188,242.5625 Q343.5313,241.4844 343.5313,240.2031 L343.5313,239.0469 Q343.5313,237.7188 344.1406,236.5781 Q344.7656,235.4219 345.8594,234.8125 Q346.9531,234.1875 348.1875,234.1875 Q348.9219,234.1875 349.5625,234.3594 Q350.2188,234.5156 350.7656,234.875 Z " fill="#000000"/><text fill="#000000" font-family="sans-serif" font-size="14" lengthAdjust="spacing" textLength="206.9717" x="362" y="244.7969">UPwSmallStrainInterfaceElement</text><line style="stroke:#181818;stroke-width:0.5;" x1="334" x2="570.9717" y1="255" y2="255"/><line style="stroke:#181818;stroke-width:0.5;" x1="334" x2="570.9717" y1="263" y2="263"/></g><!--class SmallStrainUPwDiffOrderElement--><g id="elem_SmallStrainUPwDiffOrderElement"><rect codeLine="25" fill="#F1F1F1" height="48" id="SmallStrainUPwDiffOrderElement" rx="2.5" ry="2.5" style="stroke:#181818;stroke-width:0.5;" width="241.2822" x="607" y="223"/><ellipse cx="622" cy="239" fill="#ADD1B2" rx="11" ry="11" style="stroke:#181818;stroke-width:1.0;"/><path d="M624.7656,234.875 Q624.9219,234.6563 625.1094,234.5469 Q625.2969,234.4375 625.5156,234.4375 Q625.8906,234.4375 626.125,234.7031 Q626.3594,234.9531 626.3594,235.5625 L626.3594,237.0156 Q626.3594,237.625 626.125,237.8906 Q625.8906,238.1563 625.5156,238.1563 Q625.1719,238.1563 624.9688,237.9531 Q624.7656,237.7656 624.6563,237.25 Q624.6094,236.8906 624.4219,236.7031 Q624.0938,236.3281 623.4844,236.1094 Q622.875,235.8906 622.25,235.8906 Q621.4844,235.8906 620.8438,236.2188 Q620.2188,236.5469 619.7188,237.2969 Q619.2344,238.0469 619.2344,239.0781 L619.2344,240.1719 Q619.2344,241.4063 620.125,242.2344 Q621.0156,243.0469 622.6094,243.0469 Q623.5469,243.0469 624.2031,242.7969 Q624.5938,242.6406 625.0156,242.2031 Q625.2813,241.9375 625.4219,241.8594 Q625.5781,241.7813 625.7813,241.7813 Q626.1094,241.7813 626.3594,242.0469 Q626.625,242.2969 626.625,242.6406 Q626.625,242.9844 626.2813,243.3906 Q625.7813,243.9688 624.9844,244.2969 Q623.9063,244.75 622.6094,244.75 Q621.0938,244.75 619.8906,244.125 Q618.9063,243.625 618.2188,242.5625 Q617.5313,241.4844 617.5313,240.2031 L617.5313,239.0469 Q617.5313,237.7188 618.1406,236.5781 Q618.7656,235.4219 619.8594,234.8125 Q620.9531,234.1875 622.1875,234.1875 Q622.9219,234.1875 623.5625,234.3594 Q624.2188,234.5156 624.7656,234.875 Z " fill="#000000"/><text fill="#000000" font-family="sans-serif" font-size="14" lengthAdjust="spacing" textLength="209.2822" x="636" y="244.7969">SmallStrainUPwDiffOrderElement</text><line style="stroke:#181818;stroke-width:0.5;" x1="608" x2="847.2822" y1="255" y2="255"/><line style="stroke:#181818;stroke-width:0.5;" x1="608" x2="847.2822" y1="263" y2="263"/></g><!--class InterfaceElement--><g id="elem_InterfaceElement"><rect codeLine="31" fill="#F1F1F1" height="48" id="InterfaceElement" rx="2.5" ry="2.5" style="stroke:#181818;stroke-width:0.5;" width="137.834" x="560.5" y="115"/><ellipse cx="575.5" cy="131" fill="#ADD1B2" rx="11" ry="11" style="stroke:#181818;stroke-width:1.0;"/><path d="M578.2656,126.875 Q578.4219,126.6563 578.6094,126.5469 Q578.7969,126.4375 579.0156,126.4375 Q579.3906,126.4375 579.625,126.7031 Q579.8594,126.9531 579.8594,127.5625 L579.8594,129.0156 Q579.8594,129.625 579.625,129.8906 Q579.3906,130.1563 579.0156,130.1563 Q578.6719,130.1563 578.4688,129.9531 Q578.2656,129.7656 578.1563,129.25 Q578.1094,128.8906 577.9219,128.7031 Q577.5938,128.3281 576.9844,128.1094 Q576.375,127.8906 575.75,127.8906 Q574.9844,127.8906 574.3438,128.2188 Q573.7188,128.5469 573.2188,129.2969 Q572.7344,130.0469 572.7344,131.0781 L572.7344,132.1719 Q572.7344,133.4063 573.625,134.2344 Q574.5156,135.0469 576.1094,135.0469 Q577.0469,135.0469 577.7031,134.7969 Q578.0938,134.6406 578.5156,134.2031 Q578.7813,133.9375 578.9219,133.8594 Q579.0781,133.7813 579.2813,133.7813 Q579.6094,133.7813 579.8594,134.0469 Q580.125,134.2969 580.125,134.6406 Q580.125,134.9844 579.7813,135.3906 Q579.2813,135.9688 578.4844,136.2969 Q577.4063,136.75 576.1094,136.75 Q574.5938,136.75 573.3906,136.125 Q572.4063,135.625 571.7188,134.5625 Q571.0313,133.4844 571.0313,132.2031 L571.0313,131.0469 Q571.0313,129.7188 571.6406,128.5781 Q572.2656,127.4219 573.3594,126.8125 Q574.4531,126.1875 575.6875,126.1875 Q576.4219,126.1875 577.0625,126.3594 Q577.7188,126.5156 578.2656,126.875 Z " fill="#000000"/><text fill="#000000" font-family="sans-serif" font-size="14" lengthAdjust="spacing" textLength="105.834" x="589.5" y="136.7969">InterfaceElement</text><line style="stroke:#181818;stroke-width:0.5;" x1="561.5" x2="697.334" y1="147" y2="147"/><line style="stroke:#181818;stroke-width:0.5;" x1="561.5" x2="697.334" y1="155" y2="155"/></g><!--class PwElement--><g id="elem_PwElement"><rect codeLine="35" fill="#F1F1F1" height="48" id="PwElement" rx="2.5" ry="2.5" style="stroke:#181818;stroke-width:0.5;" width="102.8066" x="734" y="115"/><ellipse cx="749" cy="131" fill="#ADD1B2" rx="11" ry="11" style="stroke:#181818;stroke-width:1.0;"/><path d="M751.7656,126.875 Q751.9219,126.6563 752.1094,126.5469 Q752.2969,126.4375 752.5156,126.4375 Q752.8906,126.4375 753.125,126.7031 Q753.3594,126.9531 753.3594,127.5625 L753.3594,129.0156 Q753.3594,129.625 753.125,129.8906 Q752.8906,130.1563 752.5156,130.1563 Q752.1719,130.1563 751.9688,129.9531 Q751.7656,129.7656 751.6563,129.25 Q751.6094,128.8906 751.4219,128.7031 Q751.0938,128.3281 750.4844,128.1094 Q749.875,127.8906 749.25,127.8906 Q748.4844,127.8906 747.8438,128.2188 Q747.2188,128.5469 746.7188,129.2969 Q746.2344,130.0469 746.2344,131.0781 L746.2344,132.1719 Q746.2344,133.4063 747.125,134.2344 Q748.0156,135.0469 749.6094,135.0469 Q750.5469,135.0469 751.2031,134.7969 Q751.5938,134.6406 752.0156,134.2031 Q752.2813,133.9375 752.4219,133.8594 Q752.5781,133.7813 752.7813,133.7813 Q753.1094,133.7813 753.3594,134.0469 Q753.625,134.2969 753.625,134.6406 Q753.625,134.9844 753.2813,135.3906 Q752.7813,135.9688 751.9844,136.2969 Q750.9063,136.75 749.6094,136.75 Q748.0938,136.75 746.8906,136.125 Q745.9063,135.625 745.2188,134.5625 Q744.5313,133.4844 744.5313,132.2031 L744.5313,131.0469 Q744.5313,129.7188 745.1406,128.5781 Q745.7656,127.4219 746.8594,126.8125 Q747.9531,126.1875 749.1875,126.1875 Q749.9219,126.1875 750.5625,126.3594 Q751.2188,126.5156 751.7656,126.875 Z " fill="#000000"/><text fill="#000000" font-family="sans-serif" font-size="14" lengthAdjust="spacing" textLength="70.8066" x="763" y="136.7969">PwElement</text><line style="stroke:#181818;stroke-width:0.5;" x1="735" x2="835.8066" y1="147" y2="147"/><line style="stroke:#181818;stroke-width:0.5;" x1="735" x2="835.8066" y1="155" y2="155"/></g><!--class GeoSteadyStatePwPipingElement--><g id="elem_GeoSteadyStatePwPipingElement"><rect codeLine="36" fill="#F1F1F1" height="48" id="GeoSteadyStatePwPipingElement" rx="2.5" ry="2.5" style="stroke:#181818;stroke-width:0.5;" width="244.4609" x="872.5" y="115"/><ellipse cx="887.5" cy="131" fill="#ADD1B2" rx="11" ry="11" style="stroke:#181818;stroke-width:1.0;"/><path d="M890.2656,126.875 Q890.4219,126.6563 890.6094,126.5469 Q890.7969,126.4375 891.0156,126.4375 Q891.3906,126.4375 891.625,126.7031 Q891.8594,126.9531 891.8594,127.5625 L891.8594,129.0156 Q891.8594,129.625 891.625,129.8906 Q891.3906,130.1563 891.0156,130.1563 Q890.6719,130.1563 890.4688,129.9531 Q890.2656,129.7656 890.1563,129.25 Q890.1094,128.8906 889.9219,128.7031 Q889.5938,128.3281 888.9844,128.1094 Q888.375,127.8906 887.75,127.8906 Q886.9844,127.8906 886.3438,128.2188 Q885.7188,128.5469 885.2188,129.2969 Q884.7344,130.0469 884.7344,131.0781 L884.7344,132.1719 Q884.7344,133.4063 885.625,134.2344 Q886.5156,135.0469 888.1094,135.0469 Q889.0469,135.0469 889.7031,134.7969 Q890.0938,134.6406 890.5156,134.2031 Q890.7813,133.9375 890.9219,133.8594 Q891.0781,133.7813 891.2813,133.7813 Q891.6094,133.7813 891.8594,134.0469 Q892.125,134.2969 892.125,134.6406 Q892.125,134.9844 891.7813,135.3906 Q891.2813,135.9688 890.4844,136.2969 Q889.4063,136.75 888.1094,136.75 Q886.5938,136.75 885.3906,136.125 Q884.4063,135.625 883.7188,134.5625 Q883.0313,133.4844 883.0313,132.2031 L883.0313,131.0469 Q883.0313,129.7188 883.6406,128.5781 Q884.2656,127.4219 885.3594,126.8125 Q886.4531,126.1875 887.6875,126.1875 Q888.4219,126.1875 889.0625,126.3594 Q889.7188,126.5156 890.2656,126.875 Z " fill="#000000"/><text fill="#000000" font-family="sans-serif" font-size="14" lengthAdjust="spacing" textLength="212.4609" x="901.5" y="136.7969">GeoSteadyStatePwPipingElement</text><line style="stroke:#181818;stroke-width:0.5;" x1="873.5" x2="1115.9609" y1="147" y2="147"/><line style="stroke:#181818;stroke-width:0.5;" x1="873.5" x2="1115.9609" y1="155" y2="155"/></g><!--class TransientThermalElement--><g id="elem_TransientThermalElement"><rect codeLine="42" fill="#F1F1F1" height="48" id="TransientThermalElement" rx="2.5" ry="2.5" style="stroke:#181818;stroke-width:0.5;" width="193.0615" x="1152" y="115"/><ellipse cx="1167" cy="131" fill="#ADD1B2" rx="11" ry="11" style="stroke:#181818;stroke-width:1.0;"/><path d="M1169.7656,126.875 Q1169.9219,126.6563 1170.1094,126.5469 Q1170.2969,126.4375 1170.5156,126.4375 Q1170.8906,126.4375 1171.125,126.7031 Q1171.3594,126.9531 1171.3594,127.5625 L1171.3594,129.0156 Q1171.3594,129.625 1171.125,129.8906 Q1170.8906,130.1563 1170.5156,130.1563 Q1170.1719,130.1563 1169.9688,129.9531 Q1169.7656,129.7656 1169.6563,129.25 Q1169.6094,128.8906 1169.4219,128.7031 Q1169.0938,128.3281 1168.4844,128.1094 Q1167.875,127.8906 1167.25,127.8906 Q1166.4844,127.8906 1165.8438,128.2188 Q1165.2188,128.5469 1164.7188,129.2969 Q1164.2344,130.0469 1164.2344,131.0781 L1164.2344,132.1719 Q1164.2344,133.4063 1165.125,134.2344 Q1166.0156,135.0469 1167.6094,135.0469 Q1168.5469,135.0469 1169.2031,134.7969 Q1169.5938,134.6406 1170.0156,134.2031 Q1170.2813,133.9375 1170.4219,133.8594 Q1170.5781,133.7813 1170.7813,133.7813 Q1171.1094,133.7813 1171.3594,134.0469 Q1171.625,134.2969 1171.625,134.6406 Q1171.625,134.9844 1171.2813,135.3906 Q1170.7813,135.9688 1169.9844,136.2969 Q1168.9063,136.75 1167.6094,136.75 Q1166.0938,136.75 1164.8906,136.125 Q1163.9063,135.625 1163.2188,134.5625 Q1162.5313,133.4844 1162.5313,132.2031 L1162.5313,131.0469 Q1162.5313,129.7188 1163.1406,128.5781 Q1163.7656,127.4219 1164.8594,126.8125 Q1165.9531,126.1875 1167.1875,126.1875 Q1167.9219,126.1875 1168.5625,126.3594 Q1169.2188,126.5156 1169.7656,126.875 Z " fill="#000000"/><text fill="#000000" font-family="sans-serif" font-size="14" lengthAdjust="spacing" textLength="161.0615" x="1181" y="136.7969">TransientThermalElement</text><line style="stroke:#181818;stroke-width:0.5;" x1="1153" x2="1344.0615" y1="147" y2="147"/><line style="stroke:#181818;stroke-width:0.5;" x1="1153" x2="1344.0615" y1="155" y2="155"/></g><!--class CrBeamElement2D2N_Structural--><g id="elem_CrBeamElement2D2N_Structural"><rect codeLine="47" fill="#F1F1F1" height="48" id="CrBeamElement2D2N_Structural" rx="2.5" ry="2.5" style="stroke:#181818;stroke-width:0.5;" width="238.1924" x="1380.5" y="115"/><ellipse cx="1395.5" cy="131" fill="#ADD1B2" rx="11" ry="11" style="stroke:#181818;stroke-width:1.0;"/><path d="M1398.2656,126.875 Q1398.4219,126.6563 1398.6094,126.5469 Q1398.7969,126.4375 1399.0156,126.4375 Q1399.3906,126.4375 1399.625,126.7031 Q1399.8594,126.9531 1399.8594,127.5625 L1399.8594,129.0156 Q1399.8594,129.625 1399.625,129.8906 Q1399.3906,130.1563 1399.0156,130.1563 Q1398.6719,130.1563 1398.4688,129.9531 Q1398.2656,129.7656 1398.1563,129.25 Q1398.1094,128.8906 1397.9219,128.7031 Q1397.5938,128.3281 1396.9844,128.1094 Q1396.375,127.8906 1395.75,127.8906 Q1394.9844,127.8906 1394.3438,128.2188 Q1393.7188,128.5469 1393.2188,129.2969 Q1392.7344,130.0469 1392.7344,131.0781 L1392.7344,132.1719 Q1392.7344,133.4063 1393.625,134.2344 Q1394.5156,135.0469 1396.1094,135.0469 Q1397.0469,135.0469 1397.7031,134.7969 Q1398.0938,134.6406 1398.5156,134.2031 Q1398.7813,133.9375 1398.9219,133.8594 Q1399.0781,133.7813 1399.2813,133.7813 Q1399.6094,133.7813 1399.8594,134.0469 Q1400.125,134.2969 1400.125,134.6406 Q1400.125,134.9844 1399.7813,135.3906 Q1399.2813,135.9688 1398.4844,136.2969 Q1397.4063,136.75 1396.1094,136.75 Q1394.5938,136.75 1393.3906,136.125 Q1392.4063,135.625 1391.7188,134.5625 Q1391.0313,133.4844 1391.0313,132.2031 L1391.0313,131.0469 Q1391.0313,129.7188 1391.6406,128.5781 Q1392.2656,127.4219 1393.3594,126.8125 Q1394.4531,126.1875 1395.6875,126.1875 Q1396.4219,126.1875 1397.0625,126.3594 Q1397.7188,126.5156 1398.2656,126.875 Z " fill="#000000"/><text fill="#000000" font-family="sans-serif" font-size="14" lengthAdjust="spacing" textLength="206.1924" x="1409.5" y="136.7969">CrBeamElement2D2N_Structural</text><line style="stroke:#181818;stroke-width:0.5;" x1="1381.5" x2="1617.6924" y1="147" y2="147"/><line style="stroke:#181818;stroke-width:0.5;" x1="1381.5" x2="1617.6924" y1="155" y2="155"/></g><!--class CrBeamElementLinear2D2N_Structural--><g id="elem_CrBeamElementLinear2D2N_Structural"><rect codeLine="48" fill="#F1F1F1" height="48" id="CrBeamElementLinear2D2N_Structural" rx="2.5" ry="2.5" style="stroke:#181818;stroke-width:0.5;" width="277.1094" x="1361" y="223"/><ellipse cx="1376" cy="239" fill="#ADD1B2" rx="11" ry="11" style="stroke:#181818;stroke-width:1.0;"/><path d="M1378.7656,234.875 Q1378.9219,234.6563 1379.1094,234.5469 Q1379.2969,234.4375 1379.5156,234.4375 Q1379.8906,234.4375 1380.125,234.7031 Q1380.3594,234.9531 1380.3594,235.5625 L1380.3594,237.0156 Q1380.3594,237.625 1380.125,237.8906 Q1379.8906,238.1563 1379.5156,238.1563 Q1379.1719,238.1563 1378.9688,237.9531 Q1378.7656,237.7656 1378.6563,237.25 Q1378.6094,236.8906 1378.4219,236.7031 Q1378.0938,236.3281 1377.4844,236.1094 Q1376.875,235.8906 1376.25,235.8906 Q1375.4844,235.8906 1374.8438,236.2188 Q1374.2188,236.5469 1373.7188,237.2969 Q1373.2344,238.0469 1373.2344,239.0781 L1373.2344,240.1719 Q1373.2344,241.4063 1374.125,242.2344 Q1375.0156,243.0469 1376.6094,243.0469 Q1377.5469,243.0469 1378.2031,242.7969 Q1378.5938,242.6406 1379.0156,242.2031 Q1379.2813,241.9375 1379.4219,241.8594 Q1379.5781,241.7813 1379.7813,241.7813 Q1380.1094,241.7813 1380.3594,242.0469 Q1380.625,242.2969 1380.625,242.6406 Q1380.625,242.9844 1380.2813,243.3906 Q1379.7813,243.9688 1378.9844,244.2969 Q1377.9063,244.75 1376.6094,244.75 Q1375.0938,244.75 1373.8906,244.125 Q1372.9063,243.625 1372.2188,242.5625 Q1371.5313,241.4844 1371.5313,240.2031 L1371.5313,239.0469 Q1371.5313,237.7188 1372.1406,236.5781 Q1372.7656,235.4219 1373.8594,234.8125 Q1374.9531,234.1875 1376.1875,234.1875 Q1376.9219,234.1875 1377.5625,234.3594 Q1378.2188,234.5156 1378.7656,234.875 Z " fill="#000000"/><text fill="#000000" font-family="sans-serif" font-size="14" lengthAdjust="spacing" textLength="245.1094" x="1390" y="244.7969">CrBeamElementLinear2D2N_Structural</text><line style="stroke:#181818;stroke-width:0.5;" x1="1362" x2="1637.1094" y1="255" y2="255"/><line style="stroke:#181818;stroke-width:0.5;" x1="1362" x2="1637.1094" y1="263" y2="263"/></g><!--class GeoCrBeamElementLinear2D2N--><g id="elem_GeoCrBeamElementLinear2D2N"><rect codeLine="49" fill="#F1F1F1" height="48" id="GeoCrBeamElementLinear2D2N" rx="2.5" ry="2.5" style="stroke:#181818;stroke-width:0.5;" width="235.875" x="1381.5" y="331"/><ellipse cx="1396.5" cy="347" fill="#ADD1B2" rx="11" ry="11" style="stroke:#181818;stroke-width:1.0;"/><path d="M1399.2656,342.875 Q1399.4219,342.6563 1399.6094,342.5469 Q1399.7969,342.4375 1400.0156,342.4375 Q1400.3906,342.4375 1400.625,342.7031 Q1400.8594,342.9531 1400.8594,343.5625 L1400.8594,345.0156 Q1400.8594,345.625 1400.625,345.8906 Q1400.3906,346.1563 1400.0156,346.1563 Q1399.6719,346.1563 1399.4688,345.9531 Q1399.2656,345.7656 1399.1563,345.25 Q1399.1094,344.8906 1398.9219,344.7031 Q1398.5938,344.3281 1397.9844,344.1094 Q1397.375,343.8906 1396.75,343.8906 Q1395.9844,343.8906 1395.3438,344.2188 Q1394.7188,344.5469 1394.2188,345.2969 Q1393.7344,346.0469 1393.7344,347.0781 L1393.7344,348.1719 Q1393.7344,349.4063 1394.625,350.2344 Q1395.5156,351.0469 1397.1094,351.0469 Q1398.0469,351.0469 1398.7031,350.7969 Q1399.0938,350.6406 1399.5156,350.2031 Q1399.7813,349.9375 1399.9219,349.8594 Q1400.0781,349.7813 1400.2813,349.7813 Q1400.6094,349.7813 1400.8594,350.0469 Q1401.125,350.2969 1401.125,350.6406 Q1401.125,350.9844 1400.7813,351.3906 Q1400.2813,351.9688 1399.4844,352.2969 Q1398.4063,352.75 1397.1094,352.75 Q1395.5938,352.75 1394.3906,352.125 Q1393.4063,351.625 1392.7188,350.5625 Q1392.0313,349.4844 1392.0313,348.2031 L1392.0313,347.0469 Q1392.0313,345.7188 1392.6406,344.5781 Q1393.2656,343.4219 1394.3594,342.8125 Q1395.4531,342.1875 1396.6875,342.1875 Q1397.4219,342.1875 1398.0625,342.3594 Q1398.7188,342.5156 1399.2656,342.875 Z " fill="#000000"/><text fill="#000000" font-family="sans-serif" font-size="14" lengthAdjust="spacing" textLength="203.875" x="1410.5" y="352.7969">GeoCrBeamElementLinear2D2N</text><line style="stroke:#181818;stroke-width:0.5;" x1="1382.5" x2="1616.375" y1="363" y2="363"/><line style="stroke:#181818;stroke-width:0.5;" x1="1382.5" x2="1616.375" y1="371" y2="371"/></g><!--reverse link Element to UPwBaseElement--><g id="link_Element_UPwBaseElement"><path codeLine="15" d="M830.2657,45.871 C765.0457,61.171 652.54,87.78 542.5,115 C536.86,116.39 531.03,117.85 525.17,119.33 " fill="none" id="Element-backto-UPwBaseElement" style="stroke:#181818;stroke-width:1.0;"/><polygon fill="none" points="847.79,41.76,828.8954,40.0296,831.6361,51.7124,847.79,41.76" style="stroke:#181818;stroke-width:1.0;"/></g><!--reverse link UPwBaseElement to UPwSmallStrainElement--><g id="link_UPwBaseElement_UPwSmallStrainElement"><path codeLine="16" d="M382.3595,170.1002 C341.0795,187.8202 300.79,205.11 259.42,222.86 " fill="none" id="UPwBaseElement-backto-UPwSmallStrainElement" style="stroke:#181818;stroke-width:1.0;"/><polygon fill="none" points="398.9,163,379.9928,164.5867,384.7263,175.6137,398.9,163" style="stroke:#181818;stroke-width:1.0;"/></g><!--reverse link UPwSmallStrainElement to TransientPwElement--><g id="link_UPwSmallStrainElement_TransientPwElement"><path codeLine="18" d="M168.9457,283.549 C150.7857,301.209 138.72,312.94 120.48,330.68 " fill="none" id="UPwSmallStrainElement-backto-TransientPwElement" style="stroke:#181818;stroke-width:1.0;"/><polygon fill="none" points="181.85,271,164.7627,279.2476,173.1287,287.8505,181.85,271" style="stroke:#181818;stroke-width:1.0;"/></g><!--reverse link TransientPwElement to SteadyStatePwElement--><g id="link_TransientPwElement_SteadyStatePwElement"><path codeLine="19" d="M96.5,397 C96.5,414.66 96.5,420.94 96.5,438.68 " fill="none" id="TransientPwElement-backto-SteadyStatePwElement" style="stroke:#181818;stroke-width:1.0;"/><polygon fill="none" points="96.5,379,90.5,397,102.5,397,96.5,379" style="stroke:#181818;stroke-width:1.0;"/></g><!--reverse link UPwSmallStrainElement to UPwSmallStrainFICElement--><g id="link_UPwSmallStrainElement_UPwSmallStrainFICElement"><path codeLine="20" d="M242.3292,283.4923 C260.6492,301.1523 272.89,312.94 291.3,330.68 " fill="none" id="UPwSmallStrainElement-backto-UPwSmallStrainFICElement" style="stroke:#181818;stroke-width:1.0;"/><polygon fill="none" points="229.37,271,238.1651,287.8121,246.4933,279.1726,229.37,271" style="stroke:#181818;stroke-width:1.0;"/></g><!--reverse link UPwBaseElement to SmallStrainUPwDiffOrderElement--><g id="link_UPwBaseElement_SmallStrainUPwDiffOrderElement"><path codeLine="27" d="M528.9654,169.4741 C574.9354,187.1941 621.41,205.11 667.47,222.86 " fill="none" id="UPwBaseElement-backto-SmallStrainUPwDiffOrderElement" style="stroke:#181818;stroke-width:1.0;"/><polygon fill="none" points="512.17,163,526.8074,175.0726,531.1234,163.8756,512.17,163" style="stroke:#181818;stroke-width:1.0;"/></g><!--reverse link UPwBaseElement to UPwSmallStrainInterfaceElement--><g id="link_UPwBaseElement_UPwSmallStrainInterfaceElement"><path codeLine="29" d="M452.5,181 C452.5,198.66 452.5,204.94 452.5,222.68 " fill="none" id="UPwBaseElement-backto-UPwSmallStrainInterfaceElement" style="stroke:#181818;stroke-width:1.0;"/><polygon fill="none" points="452.5,163,446.5,181,458.5,181,452.5,163" style="stroke:#181818;stroke-width:1.0;"/></g><!--reverse link Element to InterfaceElement--><g id="link_Element_InterfaceElement"><path codeLine="32" d="M831.0616,55.8245 C787.2716,73.6745 734.88,95.04 686.2,114.88 " fill="none" id="Element-backto-InterfaceElement" style="stroke:#181818;stroke-width:1.0;"/><polygon fill="none" points="847.73,49.03,828.7968,50.2684,833.3264,61.3806,847.73,49.03" style="stroke:#181818;stroke-width:1.0;"/></g><!--reverse link Element to PwElement--><g id="link_Element_PwElement"><path codeLine="38" d="M854.3264,67.851 C837.0064,85.511 825.78,96.94 808.38,114.68 " fill="none" id="Element-backto-PwElement" style="stroke:#181818;stroke-width:1.0;"/><polygon fill="none" points="866.93,55,850.0427,63.6498,858.6101,72.0522,866.93,55" style="stroke:#181818;stroke-width:1.0;"/></g><!--reverse link Element to GeoSteadyStatePwPipingElement--><g id="link_Element_GeoSteadyStatePwPipingElement"><path codeLine="39" d="M924.9462,67.7893 C942.4362,85.4493 953.83,96.94 971.4,114.68 " fill="none" id="Element-backto-GeoSteadyStatePwPipingElement" style="stroke:#181818;stroke-width:1.0;"/><polygon fill="none" points="912.28,55,920.6831,72.0114,929.2093,63.5673,912.28,55" style="stroke:#181818;stroke-width:1.0;"/></g><!--reverse link Element to TransientThermalElement--><g id="link_Element_TransientThermalElement"><path codeLine="43" d="M948.2932,49.3574 C1006.7132,66.6074 1096.96,93.25 1170.54,114.98 " fill="none" id="Element-backto-TransientThermalElement" style="stroke:#181818;stroke-width:1.0;"/><polygon fill="none" points="931.03,44.26,946.594,55.1118,949.9923,43.603,931.03,44.26" style="stroke:#181818;stroke-width:1.0;"/></g><!--reverse link Element to CrBeamElement2D2N_Structural--><g id="link_Element_CrBeamElement2D2N_Structural"><path codeLine="51" d="M949.1645,42.3704 C1040.4745,58.2304 1242.45,93.33 1380.32,117.29 " fill="none" id="Element-backto-CrBeamElement2D2N_Structural" style="stroke:#181818;stroke-width:1.0;"/><polygon fill="none" points="931.43,39.29,948.1377,48.2819,950.1913,36.4589,931.43,39.29" style="stroke:#181818;stroke-width:1.0;"/></g><!--reverse link CrBeamElement2D2N_Structural to CrBeamElementLinear2D2N_Structural--><g id="link_CrBeamElement2D2N_Structural_CrBeamElementLinear2D2N_Structural"><path codeLine="52" d="M1499.5,181 C1499.5,198.66 1499.5,204.94 1499.5,222.68 " fill="none" id="CrBeamElement2D2N_Structural-backto-CrBeamElementLinear2D2N_Structural" style="stroke:#181818;stroke-width:1.0;"/><polygon fill="none" points="1499.5,163,1493.5,181,1505.5,181,1499.5,163" style="stroke:#181818;stroke-width:1.0;"/></g><!--reverse link CrBeamElementLinear2D2N_Structural to GeoCrBeamElementLinear2D2N--><g id="link_CrBeamElementLinear2D2N_Structural_GeoCrBeamElementLinear2D2N"><path codeLine="53" d="M1499.5,289 C1499.5,306.66 1499.5,312.94 1499.5,330.68 " fill="none" id="CrBeamElementLinear2D2N_Structural-backto-GeoCrBeamElementLinear2D2N" style="stroke:#181818;stroke-width:1.0;"/><polygon fill="none" points="1499.5,271,1493.5,289,1505.5,289,1499.5,271" style="stroke:#181818;stroke-width:1.0;"/></g><!--SRC=[dLBBQiCm4BpxAtpJoJNaM79AqfP0QGLEwB4izZeHI8gHP4oW7r_5pygMRIY-M3EpevrTaQinXNwEuuA3DANWJ-bDn2a7hQECmKM128Bw6Bvm52XD490p_MgnCwrseB6dUZGHm7bY533PaGrtKY0risTQkKHY4B9xOi3Wc7BzNe_xnVkEqg3A8HswQd_2xKyKZLjsZxt4qt_WXPiAJwefr4YzEHUivyEJntTWUHv-gWnLDyT1R4iVTCt-JJ49_9-QjQ4ttKnmnsDQHMZLFJJTMenVmnlUd1bILZ1vyIzxg7NW5Gj2JbTKDjpupRQmrtDEL6_93gbCJQbwoxtQ8OXMipbiFhwN9UzC8YY_qAQPqOwciNZf4kafzpUqBkaNCDVoBm00]--></g></svg>