<svg xmlns="http://www.w3.org/2000/svg" xmlns:xlink="http://www.w3.org/1999/xlink" contentStyleType="text/css" height="494px" preserveAspectRatio="none" style="width:2136px;height:494px;background:#FFFFFF;" version="1.1" viewBox="0 0 2136 494" width="2136px" zoomAndPan="magnify"><defs/><g><!--class Element--><g id="elem_Element"><rect codeLine="3" fill="#F1F1F1" height="48" id="Element" rx="2.5" ry="2.5" style="stroke:#181818;stroke-width:0.5;" width="83.3584" x="1318" y="7"/><ellipse cx="1333" cy="23" fill="#ADD1B2" rx="11" ry="11" style="stroke:#181818;stroke-width:1.0;"/><path d="M1335.7656,18.875 Q1335.9219,18.6563 1336.1094,18.5469 Q1336.2969,18.4375 1336.5156,18.4375 Q1336.8906,18.4375 1337.125,18.7031 Q1337.3594,18.9531 1337.3594,19.5625 L1337.3594,21.0156 Q1337.3594,21.625 1337.125,21.8906 Q1336.8906,22.1563 1336.5156,22.1563 Q1336.1719,22.1563 1335.9688,21.9531 Q1335.7656,21.7656 1335.6563,21.25 Q1335.6094,20.8906 1335.4219,20.7031 Q1335.0938,20.3281 1334.4844,20.1094 Q1333.875,19.8906 1333.25,19.8906 Q1332.4844,19.8906 1331.8438,20.2188 Q1331.2188,20.5469 1330.7188,21.2969 Q1330.2344,22.0469 1330.2344,23.0781 L1330.2344,24.1719 Q1330.2344,25.4063 1331.125,26.2344 Q1332.0156,27.0469 1333.6094,27.0469 Q1334.5469,27.0469 1335.2031,26.7969 Q1335.5938,26.6406 1336.0156,26.2031 Q1336.2813,25.9375 1336.4219,25.8594 Q1336.5781,25.7813 1336.7813,25.7813 Q1337.1094,25.7813 1337.3594,26.0469 Q1337.625,26.2969 1337.625,26.6406 Q1337.625,26.9844 1337.2813,27.3906 Q1336.7813,27.9688 1335.9844,28.2969 Q1334.9063,28.75 1333.6094,28.75 Q1332.0938,28.75 1330.8906,28.125 Q1329.9063,27.625 1329.2188,26.5625 Q1328.5313,25.4844 1328.5313,24.2031 L1328.5313,23.0469 Q1328.5313,21.7188 1329.1406,20.5781 Q1329.7656,19.4219 1330.8594,18.8125 Q1331.9531,18.1875 1333.1875,18.1875 Q1333.9219,18.1875 1334.5625,18.3594 Q1335.2188,18.5156 1335.7656,18.875 Z " fill="#000000"/><text fill="#000000" font-family="sans-serif" font-size="14" lengthAdjust="spacing" textLength="51.3584" x="1347" y="28.7969">Element</text><line style="stroke:#181818;stroke-width:0.5;" x1="1319" x2="1400.3584" y1="39" y2="39"/><line style="stroke:#181818;stroke-width:0.5;" x1="1319" x2="1400.3584" y1="47" y2="47"/></g><!--class UPwBaseElement--><g id="elem_UPwBaseElement"><rect codeLine="6" fill="#F1F1F1" height="48" id="UPwBaseElement" rx="2.5" ry="2.5" style="stroke:#181818;stroke-width:0.5;" width="144.8271" x="787" y="115"/><ellipse cx="802" cy="131" fill="#ADD1B2" rx="11" ry="11" style="stroke:#181818;stroke-width:1.0;"/><path d="M804.7656,126.875 Q804.9219,126.6563 805.1094,126.5469 Q805.2969,126.4375 805.5156,126.4375 Q805.8906,126.4375 806.125,126.7031 Q806.3594,126.9531 806.3594,127.5625 L806.3594,129.0156 Q806.3594,129.625 806.125,129.8906 Q805.8906,130.1563 805.5156,130.1563 Q805.1719,130.1563 804.9688,129.9531 Q804.7656,129.7656 804.6563,129.25 Q804.6094,128.8906 804.4219,128.7031 Q804.0938,128.3281 803.4844,128.1094 Q802.875,127.8906 802.25,127.8906 Q801.4844,127.8906 800.8438,128.2188 Q800.2188,128.5469 799.7188,129.2969 Q799.2344,130.0469 799.2344,131.0781 L799.2344,132.1719 Q799.2344,133.4063 800.125,134.2344 Q801.0156,135.0469 802.6094,135.0469 Q803.5469,135.0469 804.2031,134.7969 Q804.5938,134.6406 805.0156,134.2031 Q805.2813,133.9375 805.4219,133.8594 Q805.5781,133.7813 805.7813,133.7813 Q806.1094,133.7813 806.3594,134.0469 Q806.625,134.2969 806.625,134.6406 Q806.625,134.9844 806.2813,135.3906 Q805.7813,135.9688 804.9844,136.2969 Q803.9063,136.75 802.6094,136.75 Q801.0938,136.75 799.8906,136.125 Q798.9063,135.625 798.2188,134.5625 Q797.5313,133.4844 797.5313,132.2031 L797.5313,131.0469 Q797.5313,129.7188 798.1406,128.5781 Q798.7656,127.4219 799.8594,126.8125 Q800.9531,126.1875 802.1875,126.1875 Q802.9219,126.1875 803.5625,126.3594 Q804.2188,126.5156 804.7656,126.875 Z " fill="#000000"/><text fill="#000000" font-family="sans-serif" font-size="14" lengthAdjust="spacing" textLength="112.8271" x="816" y="136.7969">UPwBaseElement</text><line style="stroke:#181818;stroke-width:0.5;" x1="788" x2="930.8271" y1="147" y2="147"/><line style="stroke:#181818;stroke-width:0.5;" x1="788" x2="930.8271" y1="155" y2="155"/></g><!--class UPwSmallStrainElement--><g id="elem_UPwSmallStrainElement"><rect codeLine="8" fill="#F1F1F1" height="48" id="UPwSmallStrainElement" rx="2.5" ry="2.5" style="stroke:#181818;stroke-width:0.5;" width="184.4961" x="378.5" y="223"/><ellipse cx="393.5" cy="239" fill="#ADD1B2" rx="11" ry="11" style="stroke:#181818;stroke-width:1.0;"/><path d="M396.2656,234.875 Q396.4219,234.6563 396.6094,234.5469 Q396.7969,234.4375 397.0156,234.4375 Q397.3906,234.4375 397.625,234.7031 Q397.8594,234.9531 397.8594,235.5625 L397.8594,237.0156 Q397.8594,237.625 397.625,237.8906 Q397.3906,238.1563 397.0156,238.1563 Q396.6719,238.1563 396.4688,237.9531 Q396.2656,237.7656 396.1563,237.25 Q396.1094,236.8906 395.9219,236.7031 Q395.5938,236.3281 394.9844,236.1094 Q394.375,235.8906 393.75,235.8906 Q392.9844,235.8906 392.3438,236.2188 Q391.7188,236.5469 391.2188,237.2969 Q390.7344,238.0469 390.7344,239.0781 L390.7344,240.1719 Q390.7344,241.4063 391.625,242.2344 Q392.5156,243.0469 394.1094,243.0469 Q395.0469,243.0469 395.7031,242.7969 Q396.0938,242.6406 396.5156,242.2031 Q396.7813,241.9375 396.9219,241.8594 Q397.0781,241.7813 397.2813,241.7813 Q397.6094,241.7813 397.8594,242.0469 Q398.125,242.2969 398.125,242.6406 Q398.125,242.9844 397.7813,243.3906 Q397.2813,243.9688 396.4844,244.2969 Q395.4063,244.75 394.1094,244.75 Q392.5938,244.75 391.3906,244.125 Q390.4063,243.625 389.7188,242.5625 Q389.0313,241.4844 389.0313,240.2031 L389.0313,239.0469 Q389.0313,237.7188 389.6406,236.5781 Q390.2656,235.4219 391.3594,234.8125 Q392.4531,234.1875 393.6875,234.1875 Q394.4219,234.1875 395.0625,234.3594 Q395.7188,234.5156 396.2656,234.875 Z " fill="#000000"/><text fill="#000000" font-family="sans-serif" font-size="14" lengthAdjust="spacing" textLength="152.4961" x="407.5" y="244.7969">UPwSmallStrainElement</text><line style="stroke:#181818;stroke-width:0.5;" x1="379.5" x2="561.9961" y1="255" y2="255"/><line style="stroke:#181818;stroke-width:0.5;" x1="379.5" x2="561.9961" y1="263" y2="263"/></g><!--class TransientPwElement--><g id="elem_TransientPwElement"><rect codeLine="9" fill="#F1F1F1" height="48" id="TransientPwElement" rx="2.5" ry="2.5" style="stroke:#181818;stroke-width:0.5;" width="161.165" x="33" y="331"/><ellipse cx="48" cy="347" fill="#ADD1B2" rx="11" ry="11" style="stroke:#181818;stroke-width:1.0;"/><path d="M50.7656,342.875 Q50.9219,342.6563 51.1094,342.5469 Q51.2969,342.4375 51.5156,342.4375 Q51.8906,342.4375 52.125,342.7031 Q52.3594,342.9531 52.3594,343.5625 L52.3594,345.0156 Q52.3594,345.625 52.125,345.8906 Q51.8906,346.1563 51.5156,346.1563 Q51.1719,346.1563 50.9688,345.9531 Q50.7656,345.7656 50.6563,345.25 Q50.6094,344.8906 50.4219,344.7031 Q50.0938,344.3281 49.4844,344.1094 Q48.875,343.8906 48.25,343.8906 Q47.4844,343.8906 46.8438,344.2188 Q46.2188,344.5469 45.7188,345.2969 Q45.2344,346.0469 45.2344,347.0781 L45.2344,348.1719 Q45.2344,349.4063 46.125,350.2344 Q47.0156,351.0469 48.6094,351.0469 Q49.5469,351.0469 50.2031,350.7969 Q50.5938,350.6406 51.0156,350.2031 Q51.2813,349.9375 51.4219,349.8594 Q51.5781,349.7813 51.7813,349.7813 Q52.1094,349.7813 52.3594,350.0469 Q52.625,350.2969 52.625,350.6406 Q52.625,350.9844 52.2813,351.3906 Q51.7813,351.9688 50.9844,352.2969 Q49.9063,352.75 48.6094,352.75 Q47.0938,352.75 45.8906,352.125 Q44.9063,351.625 44.2188,350.5625 Q43.5313,349.4844 43.5313,348.2031 L43.5313,347.0469 Q43.5313,345.7188 44.1406,344.5781 Q44.7656,343.4219 45.8594,342.8125 Q46.9531,342.1875 48.1875,342.1875 Q48.9219,342.1875 49.5625,342.3594 Q50.2188,342.5156 50.7656,342.875 Z " fill="#000000"/><text fill="#000000" font-family="sans-serif" font-size="14" lengthAdjust="spacing" textLength="129.165" x="62" y="352.7969">TransientPwElement</text><line style="stroke:#181818;stroke-width:0.5;" x1="34" x2="193.165" y1="363" y2="363"/><line style="stroke:#181818;stroke-width:0.5;" x1="34" x2="193.165" y1="371" y2="371"/></g><!--class SteadyStatePwElement--><g id="elem_SteadyStatePwElement"><rect codeLine="10" fill="#F1F1F1" height="48" id="SteadyStatePwElement" rx="2.5" ry="2.5" style="stroke:#181818;stroke-width:0.5;" width="179.082" x="7" y="439"/><ellipse cx="22" cy="455" fill="#ADD1B2" rx="11" ry="11" style="stroke:#181818;stroke-width:1.0;"/><path d="M24.7656,450.875 Q24.9219,450.6563 25.1094,450.5469 Q25.2969,450.4375 25.5156,450.4375 Q25.8906,450.4375 26.125,450.7031 Q26.3594,450.9531 26.3594,451.5625 L26.3594,453.0156 Q26.3594,453.625 26.125,453.8906 Q25.8906,454.1563 25.5156,454.1563 Q25.1719,454.1563 24.9688,453.9531 Q24.7656,453.7656 24.6563,453.25 Q24.6094,452.8906 24.4219,452.7031 Q24.0938,452.3281 23.4844,452.1094 Q22.875,451.8906 22.25,451.8906 Q21.4844,451.8906 20.8438,452.2188 Q20.2188,452.5469 19.7188,453.2969 Q19.2344,454.0469 19.2344,455.0781 L19.2344,456.1719 Q19.2344,457.4063 20.125,458.2344 Q21.0156,459.0469 22.6094,459.0469 Q23.5469,459.0469 24.2031,458.7969 Q24.5938,458.6406 25.0156,458.2031 Q25.2813,457.9375 25.4219,457.8594 Q25.5781,457.7813 25.7813,457.7813 Q26.1094,457.7813 26.3594,458.0469 Q26.625,458.2969 26.625,458.6406 Q26.625,458.9844 26.2813,459.3906 Q25.7813,459.9688 24.9844,460.2969 Q23.9063,460.75 22.6094,460.75 Q21.0938,460.75 19.8906,460.125 Q18.9063,459.625 18.2188,458.5625 Q17.5313,457.4844 17.5313,456.2031 L17.5313,455.0469 Q17.5313,453.7188 18.1406,452.5781 Q18.7656,451.4219 19.8594,450.8125 Q20.9531,450.1875 22.1875,450.1875 Q22.9219,450.1875 23.5625,450.3594 Q24.2188,450.5156 24.7656,450.875 Z " fill="#000000"/><text fill="#000000" font-family="sans-serif" font-size="14" lengthAdjust="spacing" textLength="147.082" x="36" y="460.7969">SteadyStatePwElement</text><line style="stroke:#181818;stroke-width:0.5;" x1="8" x2="185.082" y1="471" y2="471"/><line style="stroke:#181818;stroke-width:0.5;" x1="8" x2="185.082" y1="479" y2="479"/></g><!--class UPwSmallStrainFICElement--><g id="elem_UPwSmallStrainFICElement"><rect codeLine="11" fill="#F1F1F1" height="48" id="UPwSmallStrainFICElement" rx="2.5" ry="2.5" style="stroke:#181818;stroke-width:0.5;" width="207.0479" x="238" y="331"/><ellipse cx="253" cy="347" fill="#ADD1B2" rx="11" ry="11" style="stroke:#181818;stroke-width:1.0;"/><path d="M255.7656,342.875 Q255.9219,342.6563 256.1094,342.5469 Q256.2969,342.4375 256.5156,342.4375 Q256.8906,342.4375 257.125,342.7031 Q257.3594,342.9531 257.3594,343.5625 L257.3594,345.0156 Q257.3594,345.625 257.125,345.8906 Q256.8906,346.1563 256.5156,346.1563 Q256.1719,346.1563 255.9688,345.9531 Q255.7656,345.7656 255.6563,345.25 Q255.6094,344.8906 255.4219,344.7031 Q255.0938,344.3281 254.4844,344.1094 Q253.875,343.8906 253.25,343.8906 Q252.4844,343.8906 251.8438,344.2188 Q251.2188,344.5469 250.7188,345.2969 Q250.2344,346.0469 250.2344,347.0781 L250.2344,348.1719 Q250.2344,349.4063 251.125,350.2344 Q252.0156,351.0469 253.6094,351.0469 Q254.5469,351.0469 255.2031,350.7969 Q255.5938,350.6406 256.0156,350.2031 Q256.2813,349.9375 256.4219,349.8594 Q256.5781,349.7813 256.7813,349.7813 Q257.1094,349.7813 257.3594,350.0469 Q257.625,350.2969 257.625,350.6406 Q257.625,350.9844 257.2813,351.3906 Q256.7813,351.9688 255.9844,352.2969 Q254.9063,352.75 253.6094,352.75 Q252.0938,352.75 250.8906,352.125 Q249.9063,351.625 249.2188,350.5625 Q248.5313,349.4844 248.5313,348.2031 L248.5313,347.0469 Q248.5313,345.7188 249.1406,344.5781 Q249.7656,343.4219 250.8594,342.8125 Q251.9531,342.1875 253.1875,342.1875 Q253.9219,342.1875 254.5625,342.3594 Q255.2188,342.5156 255.7656,342.875 Z " fill="#000000"/><text fill="#000000" font-family="sans-serif" font-size="14" lengthAdjust="spacing" textLength="175.0479" x="267" y="352.7969">UPwSmallStrainFICElement</text><line style="stroke:#181818;stroke-width:0.5;" x1="239" x2="444.0479" y1="363" y2="363"/><line style="stroke:#181818;stroke-width:0.5;" x1="239" x2="444.0479" y1="371" y2="371"/></g><!--class UPwUpdatedLagrangianFICElement--><g id="elem_UPwUpdatedLagrangianFICElement"><rect codeLine="12" fill="#F1F1F1" height="48" id="UPwUpdatedLagrangianFICElement" rx="2.5" ry="2.5" style="stroke:#181818;stroke-width:0.5;" width="258.4609" x="221.5" y="439"/><ellipse cx="236.5" cy="455" fill="#ADD1B2" rx="11" ry="11" style="stroke:#181818;stroke-width:1.0;"/><path d="M239.2656,450.875 Q239.4219,450.6563 239.6094,450.5469 Q239.7969,450.4375 240.0156,450.4375 Q240.3906,450.4375 240.625,450.7031 Q240.8594,450.9531 240.8594,451.5625 L240.8594,453.0156 Q240.8594,453.625 240.625,453.8906 Q240.3906,454.1563 240.0156,454.1563 Q239.6719,454.1563 239.4688,453.9531 Q239.2656,453.7656 239.1563,453.25 Q239.1094,452.8906 238.9219,452.7031 Q238.5938,452.3281 237.9844,452.1094 Q237.375,451.8906 236.75,451.8906 Q235.9844,451.8906 235.3438,452.2188 Q234.7188,452.5469 234.2188,453.2969 Q233.7344,454.0469 233.7344,455.0781 L233.7344,456.1719 Q233.7344,457.4063 234.625,458.2344 Q235.5156,459.0469 237.1094,459.0469 Q238.0469,459.0469 238.7031,458.7969 Q239.0938,458.6406 239.5156,458.2031 Q239.7813,457.9375 239.9219,457.8594 Q240.0781,457.7813 240.2813,457.7813 Q240.6094,457.7813 240.8594,458.0469 Q241.125,458.2969 241.125,458.6406 Q241.125,458.9844 240.7813,459.3906 Q240.2813,459.9688 239.4844,460.2969 Q238.4063,460.75 237.1094,460.75 Q235.5938,460.75 234.3906,460.125 Q233.4063,459.625 232.7188,458.5625 Q232.0313,457.4844 232.0313,456.2031 L232.0313,455.0469 Q232.0313,453.7188 232.6406,452.5781 Q233.2656,451.4219 234.3594,450.8125 Q235.4531,450.1875 236.6875,450.1875 Q237.4219,450.1875 238.0625,450.3594 Q238.7188,450.5156 239.2656,450.875 Z " fill="#000000"/><text fill="#000000" font-family="sans-serif" font-size="14" lengthAdjust="spacing" textLength="226.4609" x="250.5" y="460.7969">UPwUpdatedLagrangianFICElement</text><line style="stroke:#181818;stroke-width:0.5;" x1="222.5" x2="478.9609" y1="471" y2="471"/><line style="stroke:#181818;stroke-width:0.5;" x1="222.5" x2="478.9609" y1="479" y2="479"/></g><!--class UPwUpdatedLagrangianElement--><g id="elem_UPwUpdatedLagrangianElement"><rect codeLine="13" fill="#F1F1F1" height="48" id="UPwUpdatedLagrangianElement" rx="2.5" ry="2.5" style="stroke:#181818;stroke-width:0.5;" width="235.9092" x="480.5" y="331"/><ellipse cx="495.5" cy="347" fill="#ADD1B2" rx="11" ry="11" style="stroke:#181818;stroke-width:1.0;"/><path d="M498.2656,342.875 Q498.4219,342.6563 498.6094,342.5469 Q498.7969,342.4375 499.0156,342.4375 Q499.3906,342.4375 499.625,342.7031 Q499.8594,342.9531 499.8594,343.5625 L499.8594,345.0156 Q499.8594,345.625 499.625,345.8906 Q499.3906,346.1563 499.0156,346.1563 Q498.6719,346.1563 498.4688,345.9531 Q498.2656,345.7656 498.1563,345.25 Q498.1094,344.8906 497.9219,344.7031 Q497.5938,344.3281 496.9844,344.1094 Q496.375,343.8906 495.75,343.8906 Q494.9844,343.8906 494.3438,344.2188 Q493.7188,344.5469 493.2188,345.2969 Q492.7344,346.0469 492.7344,347.0781 L492.7344,348.1719 Q492.7344,349.4063 493.625,350.2344 Q494.5156,351.0469 496.1094,351.0469 Q497.0469,351.0469 497.7031,350.7969 Q498.0938,350.6406 498.5156,350.2031 Q498.7813,349.9375 498.9219,349.8594 Q499.0781,349.7813 499.2813,349.7813 Q499.6094,349.7813 499.8594,350.0469 Q500.125,350.2969 500.125,350.6406 Q500.125,350.9844 499.7813,351.3906 Q499.2813,351.9688 498.4844,352.2969 Q497.4063,352.75 496.1094,352.75 Q494.5938,352.75 493.3906,352.125 Q492.4063,351.625 491.7188,350.5625 Q491.0313,349.4844 491.0313,348.2031 L491.0313,347.0469 Q491.0313,345.7188 491.6406,344.5781 Q492.2656,343.4219 493.3594,342.8125 Q494.4531,342.1875 495.6875,342.1875 Q496.4219,342.1875 497.0625,342.3594 Q497.7188,342.5156 498.2656,342.875 Z " fill="#000000"/><text fill="#000000" font-family="sans-serif" font-size="14" lengthAdjust="spacing" textLength="203.9092" x="509.5" y="352.7969">UPwUpdatedLagrangianElement</text><line style="stroke:#181818;stroke-width:0.5;" x1="481.5" x2="715.4092" y1="363" y2="363"/><line style="stroke:#181818;stroke-width:0.5;" x1="481.5" x2="715.4092" y1="371" y2="371"/></g><!--class UPwSmallStrainInterfaceElement--><g id="elem_UPwSmallStrainInterfaceElement"><rect codeLine="15" fill="#F1F1F1" height="48" id="UPwSmallStrainInterfaceElement" rx="2.5" ry="2.5" style="stroke:#181818;stroke-width:0.5;" width="238.9717" x="740" y="223"/><ellipse cx="755" cy="239" fill="#ADD1B2" rx="11" ry="11" style="stroke:#181818;stroke-width:1.0;"/><path d="M757.7656,234.875 Q757.9219,234.6563 758.1094,234.5469 Q758.2969,234.4375 758.5156,234.4375 Q758.8906,234.4375 759.125,234.7031 Q759.3594,234.9531 759.3594,235.5625 L759.3594,237.0156 Q759.3594,237.625 759.125,237.8906 Q758.8906,238.1563 758.5156,238.1563 Q758.1719,238.1563 757.9688,237.9531 Q757.7656,237.7656 757.6563,237.25 Q757.6094,236.8906 757.4219,236.7031 Q757.0938,236.3281 756.4844,236.1094 Q755.875,235.8906 755.25,235.8906 Q754.4844,235.8906 753.8438,236.2188 Q753.2188,236.5469 752.7188,237.2969 Q752.2344,238.0469 752.2344,239.0781 L752.2344,240.1719 Q752.2344,241.4063 753.125,242.2344 Q754.0156,243.0469 755.6094,243.0469 Q756.5469,243.0469 757.2031,242.7969 Q757.5938,242.6406 758.0156,242.2031 Q758.2813,241.9375 758.4219,241.8594 Q758.5781,241.7813 758.7813,241.7813 Q759.1094,241.7813 759.3594,242.0469 Q759.625,242.2969 759.625,242.6406 Q759.625,242.9844 759.2813,243.3906 Q758.7813,243.9688 757.9844,244.2969 Q756.9063,244.75 755.6094,244.75 Q754.0938,244.75 752.8906,244.125 Q751.9063,243.625 751.2188,242.5625 Q750.5313,241.4844 750.5313,240.2031 L750.5313,239.0469 Q750.5313,237.7188 751.1406,236.5781 Q751.7656,235.4219 752.8594,234.8125 Q753.9531,234.1875 755.1875,234.1875 Q755.9219,234.1875 756.5625,234.3594 Q757.2188,234.5156 757.7656,234.875 Z " fill="#000000"/><text fill="#000000" font-family="sans-serif" font-size="14" lengthAdjust="spacing" textLength="206.9717" x="769" y="244.7969">UPwSmallStrainInterfaceElement</text><line style="stroke:#181818;stroke-width:0.5;" x1="741" x2="977.9717" y1="255" y2="255"/><line style="stroke:#181818;stroke-width:0.5;" x1="741" x2="977.9717" y1="263" y2="263"/></g><!--class TransientPwInterfaceElement--><g id="elem_TransientPwInterfaceElement"><rect codeLine="16" fill="#F1F1F1" height="48" id="TransientPwInterfaceElement" rx="2.5" ry="2.5" style="stroke:#181818;stroke-width:0.5;" width="215.6406" x="751.5" y="331"/><ellipse cx="766.5" cy="347" fill="#ADD1B2" rx="11" ry="11" style="stroke:#181818;stroke-width:1.0;"/><path d="M769.2656,342.875 Q769.4219,342.6563 769.6094,342.5469 Q769.7969,342.4375 770.0156,342.4375 Q770.3906,342.4375 770.625,342.7031 Q770.8594,342.9531 770.8594,343.5625 L770.8594,345.0156 Q770.8594,345.625 770.625,345.8906 Q770.3906,346.1563 770.0156,346.1563 Q769.6719,346.1563 769.4688,345.9531 Q769.2656,345.7656 769.1563,345.25 Q769.1094,344.8906 768.9219,344.7031 Q768.5938,344.3281 767.9844,344.1094 Q767.375,343.8906 766.75,343.8906 Q765.9844,343.8906 765.3438,344.2188 Q764.7188,344.5469 764.2188,345.2969 Q763.7344,346.0469 763.7344,347.0781 L763.7344,348.1719 Q763.7344,349.4063 764.625,350.2344 Q765.5156,351.0469 767.1094,351.0469 Q768.0469,351.0469 768.7031,350.7969 Q769.0938,350.6406 769.5156,350.2031 Q769.7813,349.9375 769.9219,349.8594 Q770.0781,349.7813 770.2813,349.7813 Q770.6094,349.7813 770.8594,350.0469 Q771.125,350.2969 771.125,350.6406 Q771.125,350.9844 770.7813,351.3906 Q770.2813,351.9688 769.4844,352.2969 Q768.4063,352.75 767.1094,352.75 Q765.5938,352.75 764.3906,352.125 Q763.4063,351.625 762.7188,350.5625 Q762.0313,349.4844 762.0313,348.2031 L762.0313,347.0469 Q762.0313,345.7188 762.6406,344.5781 Q763.2656,343.4219 764.3594,342.8125 Q765.4531,342.1875 766.6875,342.1875 Q767.4219,342.1875 768.0625,342.3594 Q768.7188,342.5156 769.2656,342.875 Z " fill="#000000"/><text fill="#000000" font-family="sans-serif" font-size="14" lengthAdjust="spacing" textLength="183.6406" x="780.5" y="352.7969">TransientPwInterfaceElement</text><line style="stroke:#181818;stroke-width:0.5;" x1="752.5" x2="966.1406" y1="363" y2="363"/><line style="stroke:#181818;stroke-width:0.5;" x1="752.5" x2="966.1406" y1="371" y2="371"/></g><!--class SteadyStatePwInterfaceElement--><g id="elem_SteadyStatePwInterfaceElement"><rect codeLine="17" fill="#F1F1F1" height="48" id="SteadyStatePwInterfaceElement" rx="2.5" ry="2.5" style="stroke:#181818;stroke-width:0.5;" width="233.5576" x="742.5" y="439"/><ellipse cx="757.5" cy="455" fill="#ADD1B2" rx="11" ry="11" style="stroke:#181818;stroke-width:1.0;"/><path d="M760.2656,450.875 Q760.4219,450.6563 760.6094,450.5469 Q760.7969,450.4375 761.0156,450.4375 Q761.3906,450.4375 761.625,450.7031 Q761.8594,450.9531 761.8594,451.5625 L761.8594,453.0156 Q761.8594,453.625 761.625,453.8906 Q761.3906,454.1563 761.0156,454.1563 Q760.6719,454.1563 760.4688,453.9531 Q760.2656,453.7656 760.1563,453.25 Q760.1094,452.8906 759.9219,452.7031 Q759.5938,452.3281 758.9844,452.1094 Q758.375,451.8906 757.75,451.8906 Q756.9844,451.8906 756.3438,452.2188 Q755.7188,452.5469 755.2188,453.2969 Q754.7344,454.0469 754.7344,455.0781 L754.7344,456.1719 Q754.7344,457.4063 755.625,458.2344 Q756.5156,459.0469 758.1094,459.0469 Q759.0469,459.0469 759.7031,458.7969 Q760.0938,458.6406 760.5156,458.2031 Q760.7813,457.9375 760.9219,457.8594 Q761.0781,457.7813 761.2813,457.7813 Q761.6094,457.7813 761.8594,458.0469 Q762.125,458.2969 762.125,458.6406 Q762.125,458.9844 761.7813,459.3906 Q761.2813,459.9688 760.4844,460.2969 Q759.4063,460.75 758.1094,460.75 Q756.5938,460.75 755.3906,460.125 Q754.4063,459.625 753.7188,458.5625 Q753.0313,457.4844 753.0313,456.2031 L753.0313,455.0469 Q753.0313,453.7188 753.6406,452.5781 Q754.2656,451.4219 755.3594,450.8125 Q756.4531,450.1875 757.6875,450.1875 Q758.4219,450.1875 759.0625,450.3594 Q759.7188,450.5156 760.2656,450.875 Z " fill="#000000"/><text fill="#000000" font-family="sans-serif" font-size="14" lengthAdjust="spacing" textLength="201.5576" x="771.5" y="460.7969">SteadyStatePwInterfaceElement</text><line style="stroke:#181818;stroke-width:0.5;" x1="743.5" x2="975.0576" y1="471" y2="471"/><line style="stroke:#181818;stroke-width:0.5;" x1="743.5" x2="975.0576" y1="479" y2="479"/></g><!--class SmallStrainUPwDiffOrderElement--><g id="elem_SmallStrainUPwDiffOrderElement"><rect codeLine="31" fill="#F1F1F1" height="48" id="SmallStrainUPwDiffOrderElement" rx="2.5" ry="2.5" style="stroke:#181818;stroke-width:0.5;" width="241.2822" x="1022" y="223"/><ellipse cx="1037" cy="239" fill="#ADD1B2" rx="11" ry="11" style="stroke:#181818;stroke-width:1.0;"/><path d="M1039.7656,234.875 Q1039.9219,234.6563 1040.1094,234.5469 Q1040.2969,234.4375 1040.5156,234.4375 Q1040.8906,234.4375 1041.125,234.7031 Q1041.3594,234.9531 1041.3594,235.5625 L1041.3594,237.0156 Q1041.3594,237.625 1041.125,237.8906 Q1040.8906,238.1563 1040.5156,238.1563 Q1040.1719,238.1563 1039.9688,237.9531 Q1039.7656,237.7656 1039.6563,237.25 Q1039.6094,236.8906 1039.4219,236.7031 Q1039.0938,236.3281 1038.4844,236.1094 Q1037.875,235.8906 1037.25,235.8906 Q1036.4844,235.8906 1035.8438,236.2188 Q1035.2188,236.5469 1034.7188,237.2969 Q1034.2344,238.0469 1034.2344,239.0781 L1034.2344,240.1719 Q1034.2344,241.4063 1035.125,242.2344 Q1036.0156,243.0469 1037.6094,243.0469 Q1038.5469,243.0469 1039.2031,242.7969 Q1039.5938,242.6406 1040.0156,242.2031 Q1040.2813,241.9375 1040.4219,241.8594 Q1040.5781,241.7813 1040.7813,241.7813 Q1041.1094,241.7813 1041.3594,242.0469 Q1041.625,242.2969 1041.625,242.6406 Q1041.625,242.9844 1041.2813,243.3906 Q1040.7813,243.9688 1039.9844,244.2969 Q1038.9063,244.75 1037.6094,244.75 Q1036.0938,244.75 1034.8906,244.125 Q1033.9063,243.625 1033.2188,242.5625 Q1032.5313,241.4844 1032.5313,240.2031 L1032.5313,239.0469 Q1032.5313,237.7188 1033.1406,236.5781 Q1033.7656,235.4219 1034.8594,234.8125 Q1035.9531,234.1875 1037.1875,234.1875 Q1037.9219,234.1875 1038.5625,234.3594 Q1039.2188,234.5156 1039.7656,234.875 Z " fill="#000000"/><text fill="#000000" font-family="sans-serif" font-size="14" lengthAdjust="spacing" textLength="209.2822" x="1051" y="244.7969">SmallStrainUPwDiffOrderElement</text><line style="stroke:#181818;stroke-width:0.5;" x1="1023" x2="1262.2822" y1="255" y2="255"/><line style="stroke:#181818;stroke-width:0.5;" x1="1023" x2="1262.2822" y1="263" y2="263"/></g><!--class UpdatedLagrangianUPwDiffOrderElement--><g id="elem_UpdatedLagrangianUPwDiffOrderElement"><rect codeLine="32" fill="#F1F1F1" height="48" id="UpdatedLagrangianUPwDiffOrderElement" rx="2.5" ry="2.5" style="stroke:#181818;stroke-width:0.5;" width="292.6953" x="1003" y="331"/><ellipse cx="1018" cy="347" fill="#ADD1B2" rx="11" ry="11" style="stroke:#181818;stroke-width:1.0;"/><path d="M1020.7656,342.875 Q1020.9219,342.6563 1021.1094,342.5469 Q1021.2969,342.4375 1021.5156,342.4375 Q1021.8906,342.4375 1022.125,342.7031 Q1022.3594,342.9531 1022.3594,343.5625 L1022.3594,345.0156 Q1022.3594,345.625 1022.125,345.8906 Q1021.8906,346.1563 1021.5156,346.1563 Q1021.1719,346.1563 1020.9688,345.9531 Q1020.7656,345.7656 1020.6563,345.25 Q1020.6094,344.8906 1020.4219,344.7031 Q1020.0938,344.3281 1019.4844,344.1094 Q1018.875,343.8906 1018.25,343.8906 Q1017.4844,343.8906 1016.8438,344.2188 Q1016.2188,344.5469 1015.7188,345.2969 Q1015.2344,346.0469 1015.2344,347.0781 L1015.2344,348.1719 Q1015.2344,349.4063 1016.125,350.2344 Q1017.0156,351.0469 1018.6094,351.0469 Q1019.5469,351.0469 1020.2031,350.7969 Q1020.5938,350.6406 1021.0156,350.2031 Q1021.2813,349.9375 1021.4219,349.8594 Q1021.5781,349.7813 1021.7813,349.7813 Q1022.1094,349.7813 1022.3594,350.0469 Q1022.625,350.2969 1022.625,350.6406 Q1022.625,350.9844 1022.2813,351.3906 Q1021.7813,351.9688 1020.9844,352.2969 Q1019.9063,352.75 1018.6094,352.75 Q1017.0938,352.75 1015.8906,352.125 Q1014.9063,351.625 1014.2188,350.5625 Q1013.5313,349.4844 1013.5313,348.2031 L1013.5313,347.0469 Q1013.5313,345.7188 1014.1406,344.5781 Q1014.7656,343.4219 1015.8594,342.8125 Q1016.9531,342.1875 1018.1875,342.1875 Q1018.9219,342.1875 1019.5625,342.3594 Q1020.2188,342.5156 1020.7656,342.875 Z " fill="#000000"/><text fill="#000000" font-family="sans-serif" font-size="14" lengthAdjust="spacing" textLength="260.6953" x="1032" y="352.7969">UpdatedLagrangianUPwDiffOrderElement</text><line style="stroke:#181818;stroke-width:0.5;" x1="1004" x2="1294.6953" y1="363" y2="363"/><line style="stroke:#181818;stroke-width:0.5;" x1="1004" x2="1294.6953" y1="371" y2="371"/></g><!--class InterfaceElement--><g id="elem_InterfaceElement"><rect codeLine="41" fill="#F1F1F1" height="48" id="InterfaceElement" rx="2.5" ry="2.5" style="stroke:#181818;stroke-width:0.5;" width="137.834" x="967.5" y="115"/><ellipse cx="982.5" cy="131" fill="#ADD1B2" rx="11" ry="11" style="stroke:#181818;stroke-width:1.0;"/><path d="M985.2656,126.875 Q985.4219,126.6563 985.6094,126.5469 Q985.7969,126.4375 986.0156,126.4375 Q986.3906,126.4375 986.625,126.7031 Q986.8594,126.9531 986.8594,127.5625 L986.8594,129.0156 Q986.8594,129.625 986.625,129.8906 Q986.3906,130.1563 986.0156,130.1563 Q985.6719,130.1563 985.4688,129.9531 Q985.2656,129.7656 985.1563,129.25 Q985.1094,128.8906 984.9219,128.7031 Q984.5938,128.3281 983.9844,128.1094 Q983.375,127.8906 982.75,127.8906 Q981.9844,127.8906 981.3438,128.2188 Q980.7188,128.5469 980.2188,129.2969 Q979.7344,130.0469 979.7344,131.0781 L979.7344,132.1719 Q979.7344,133.4063 980.625,134.2344 Q981.5156,135.0469 983.1094,135.0469 Q984.0469,135.0469 984.7031,134.7969 Q985.0938,134.6406 985.5156,134.2031 Q985.7813,133.9375 985.9219,133.8594 Q986.0781,133.7813 986.2813,133.7813 Q986.6094,133.7813 986.8594,134.0469 Q987.125,134.2969 987.125,134.6406 Q987.125,134.9844 986.7813,135.3906 Q986.2813,135.9688 985.4844,136.2969 Q984.4063,136.75 983.1094,136.75 Q981.5938,136.75 980.3906,136.125 Q979.4063,135.625 978.7188,134.5625 Q978.0313,133.4844 978.0313,132.2031 L978.0313,131.0469 Q978.0313,129.7188 978.6406,128.5781 Q979.2656,127.4219 980.3594,126.8125 Q981.4531,126.1875 982.6875,126.1875 Q983.4219,126.1875 984.0625,126.3594 Q984.7188,126.5156 985.2656,126.875 Z " fill="#000000"/><text fill="#000000" font-family="sans-serif" font-size="14" lengthAdjust="spacing" textLength="105.834" x="996.5" y="136.7969">InterfaceElement</text><line style="stroke:#181818;stroke-width:0.5;" x1="968.5" x2="1104.334" y1="147" y2="147"/><line style="stroke:#181818;stroke-width:0.5;" x1="968.5" x2="1104.334" y1="155" y2="155"/></g><!--class TransientPwLineElement--><g id="elem_TransientPwLineElement"><rect codeLine="45" fill="#F1F1F1" height="48" id="TransientPwLineElement" rx="2.5" ry="2.5" style="stroke:#181818;stroke-width:0.5;" width="187.6338" x="1140.5" y="115"/><ellipse cx="1155.5" cy="131" fill="#ADD1B2" rx="11" ry="11" style="stroke:#181818;stroke-width:1.0;"/><path d="M1158.2656,126.875 Q1158.4219,126.6563 1158.6094,126.5469 Q1158.7969,126.4375 1159.0156,126.4375 Q1159.3906,126.4375 1159.625,126.7031 Q1159.8594,126.9531 1159.8594,127.5625 L1159.8594,129.0156 Q1159.8594,129.625 1159.625,129.8906 Q1159.3906,130.1563 1159.0156,130.1563 Q1158.6719,130.1563 1158.4688,129.9531 Q1158.2656,129.7656 1158.1563,129.25 Q1158.1094,128.8906 1157.9219,128.7031 Q1157.5938,128.3281 1156.9844,128.1094 Q1156.375,127.8906 1155.75,127.8906 Q1154.9844,127.8906 1154.3438,128.2188 Q1153.7188,128.5469 1153.2188,129.2969 Q1152.7344,130.0469 1152.7344,131.0781 L1152.7344,132.1719 Q1152.7344,133.4063 1153.625,134.2344 Q1154.5156,135.0469 1156.1094,135.0469 Q1157.0469,135.0469 1157.7031,134.7969 Q1158.0938,134.6406 1158.5156,134.2031 Q1158.7813,133.9375 1158.9219,133.8594 Q1159.0781,133.7813 1159.2813,133.7813 Q1159.6094,133.7813 1159.8594,134.0469 Q1160.125,134.2969 1160.125,134.6406 Q1160.125,134.9844 1159.7813,135.3906 Q1159.2813,135.9688 1158.4844,136.2969 Q1157.4063,136.75 1156.1094,136.75 Q1154.5938,136.75 1153.3906,136.125 Q1152.4063,135.625 1151.7188,134.5625 Q1151.0313,133.4844 1151.0313,132.2031 L1151.0313,131.0469 Q1151.0313,129.7188 1151.6406,128.5781 Q1152.2656,127.4219 1153.3594,126.8125 Q1154.4531,126.1875 1155.6875,126.1875 Q1156.4219,126.1875 1157.0625,126.3594 Q1157.7188,126.5156 1158.2656,126.875 Z " fill="#000000"/><text fill="#000000" font-family="sans-serif" font-size="14" lengthAdjust="spacing" textLength="155.6338" x="1169.5" y="136.7969">TransientPwLineElement</text><line style="stroke:#181818;stroke-width:0.5;" x1="1141.5" x2="1327.1338" y1="147" y2="147"/><line style="stroke:#181818;stroke-width:0.5;" x1="1141.5" x2="1327.1338" y1="155" y2="155"/></g><!--class GeoSteadyStatePwPipingElement--><g id="elem_GeoSteadyStatePwPipingElement"><rect codeLine="46" fill="#F1F1F1" height="48" id="GeoSteadyStatePwPipingElement" rx="2.5" ry="2.5" style="stroke:#181818;stroke-width:0.5;" width="244.4609" x="1363.5" y="115"/><ellipse cx="1378.5" cy="131" fill="#ADD1B2" rx="11" ry="11" style="stroke:#181818;stroke-width:1.0;"/><path d="M1381.2656,126.875 Q1381.4219,126.6563 1381.6094,126.5469 Q1381.7969,126.4375 1382.0156,126.4375 Q1382.3906,126.4375 1382.625,126.7031 Q1382.8594,126.9531 1382.8594,127.5625 L1382.8594,129.0156 Q1382.8594,129.625 1382.625,129.8906 Q1382.3906,130.1563 1382.0156,130.1563 Q1381.6719,130.1563 1381.4688,129.9531 Q1381.2656,129.7656 1381.1563,129.25 Q1381.1094,128.8906 1380.9219,128.7031 Q1380.5938,128.3281 1379.9844,128.1094 Q1379.375,127.8906 1378.75,127.8906 Q1377.9844,127.8906 1377.3438,128.2188 Q1376.7188,128.5469 1376.2188,129.2969 Q1375.7344,130.0469 1375.7344,131.0781 L1375.7344,132.1719 Q1375.7344,133.4063 1376.625,134.2344 Q1377.5156,135.0469 1379.1094,135.0469 Q1380.0469,135.0469 1380.7031,134.7969 Q1381.0938,134.6406 1381.5156,134.2031 Q1381.7813,133.9375 1381.9219,133.8594 Q1382.0781,133.7813 1382.2813,133.7813 Q1382.6094,133.7813 1382.8594,134.0469 Q1383.125,134.2969 1383.125,134.6406 Q1383.125,134.9844 1382.7813,135.3906 Q1382.2813,135.9688 1381.4844,136.2969 Q1380.4063,136.75 1379.1094,136.75 Q1377.5938,136.75 1376.3906,136.125 Q1375.4063,135.625 1374.7188,134.5625 Q1374.0313,133.4844 1374.0313,132.2031 L1374.0313,131.0469 Q1374.0313,129.7188 1374.6406,128.5781 Q1375.2656,127.4219 1376.3594,126.8125 Q1377.4531,126.1875 1378.6875,126.1875 Q1379.4219,126.1875 1380.0625,126.3594 Q1380.7188,126.5156 1381.2656,126.875 Z " fill="#000000"/><text fill="#000000" font-family="sans-serif" font-size="14" lengthAdjust="spacing" textLength="212.4609" x="1392.5" y="136.7969">GeoSteadyStatePwPipingElement</text><line style="stroke:#181818;stroke-width:0.5;" x1="1364.5" x2="1606.9609" y1="147" y2="147"/><line style="stroke:#181818;stroke-width:0.5;" x1="1364.5" x2="1606.9609" y1="155" y2="155"/></g><!--class TransientThermalElement--><g id="elem_TransientThermalElement"><rect codeLine="52" fill="#F1F1F1" height="48" id="TransientThermalElement" rx="2.5" ry="2.5" style="stroke:#181818;stroke-width:0.5;" width="193.0615" x="1643" y="115"/><ellipse cx="1658" cy="131" fill="#ADD1B2" rx="11" ry="11" style="stroke:#181818;stroke-width:1.0;"/><path d="M1660.7656,126.875 Q1660.9219,126.6563 1661.1094,126.5469 Q1661.2969,126.4375 1661.5156,126.4375 Q1661.8906,126.4375 1662.125,126.7031 Q1662.3594,126.9531 1662.3594,127.5625 L1662.3594,129.0156 Q1662.3594,129.625 1662.125,129.8906 Q1661.8906,130.1563 1661.5156,130.1563 Q1661.1719,130.1563 1660.9688,129.9531 Q1660.7656,129.7656 1660.6563,129.25 Q1660.6094,128.8906 1660.4219,128.7031 Q1660.0938,128.3281 1659.4844,128.1094 Q1658.875,127.8906 1658.25,127.8906 Q1657.4844,127.8906 1656.8438,128.2188 Q1656.2188,128.5469 1655.7188,129.2969 Q1655.2344,130.0469 1655.2344,131.0781 L1655.2344,132.1719 Q1655.2344,133.4063 1656.125,134.2344 Q1657.0156,135.0469 1658.6094,135.0469 Q1659.5469,135.0469 1660.2031,134.7969 Q1660.5938,134.6406 1661.0156,134.2031 Q1661.2813,133.9375 1661.4219,133.8594 Q1661.5781,133.7813 1661.7813,133.7813 Q1662.1094,133.7813 1662.3594,134.0469 Q1662.625,134.2969 1662.625,134.6406 Q1662.625,134.9844 1662.2813,135.3906 Q1661.7813,135.9688 1660.9844,136.2969 Q1659.9063,136.75 1658.6094,136.75 Q1657.0938,136.75 1655.8906,136.125 Q1654.9063,135.625 1654.2188,134.5625 Q1653.5313,133.4844 1653.5313,132.2031 L1653.5313,131.0469 Q1653.5313,129.7188 1654.1406,128.5781 Q1654.7656,127.4219 1655.8594,126.8125 Q1656.9531,126.1875 1658.1875,126.1875 Q1658.9219,126.1875 1659.5625,126.3594 Q1660.2188,126.5156 1660.7656,126.875 Z " fill="#000000"/><text fill="#000000" font-family="sans-serif" font-size="14" lengthAdjust="spacing" textLength="161.0615" x="1672" y="136.7969">TransientThermalElement</text><line style="stroke:#181818;stroke-width:0.5;" x1="1644" x2="1835.0615" y1="147" y2="147"/><line style="stroke:#181818;stroke-width:0.5;" x1="1644" x2="1835.0615" y1="155" y2="155"/></g><!--class CrBeamElement2D2N_Structural--><g id="elem_CrBeamElement2D2N_Structural"><rect codeLine="57" fill="#F1F1F1" height="48" id="CrBeamElement2D2N_Structural" rx="2.5" ry="2.5" style="stroke:#181818;stroke-width:0.5;" width="238.1924" x="1871.5" y="115"/><ellipse cx="1886.5" cy="131" fill="#ADD1B2" rx="11" ry="11" style="stroke:#181818;stroke-width:1.0;"/><path d="M1889.2656,126.875 Q1889.4219,126.6563 1889.6094,126.5469 Q1889.7969,126.4375 1890.0156,126.4375 Q1890.3906,126.4375 1890.625,126.7031 Q1890.8594,126.9531 1890.8594,127.5625 L1890.8594,129.0156 Q1890.8594,129.625 1890.625,129.8906 Q1890.3906,130.1563 1890.0156,130.1563 Q1889.6719,130.1563 1889.4688,129.9531 Q1889.2656,129.7656 1889.1563,129.25 Q1889.1094,128.8906 1888.9219,128.7031 Q1888.5938,128.3281 1887.9844,128.1094 Q1887.375,127.8906 1886.75,127.8906 Q1885.9844,127.8906 1885.3438,128.2188 Q1884.7188,128.5469 1884.2188,129.2969 Q1883.7344,130.0469 1883.7344,131.0781 L1883.7344,132.1719 Q1883.7344,133.4063 1884.625,134.2344 Q1885.5156,135.0469 1887.1094,135.0469 Q1888.0469,135.0469 1888.7031,134.7969 Q1889.0938,134.6406 1889.5156,134.2031 Q1889.7813,133.9375 1889.9219,133.8594 Q1890.0781,133.7813 1890.2813,133.7813 Q1890.6094,133.7813 1890.8594,134.0469 Q1891.125,134.2969 1891.125,134.6406 Q1891.125,134.9844 1890.7813,135.3906 Q1890.2813,135.9688 1889.4844,136.2969 Q1888.4063,136.75 1887.1094,136.75 Q1885.5938,136.75 1884.3906,136.125 Q1883.4063,135.625 1882.7188,134.5625 Q1882.0313,133.4844 1882.0313,132.2031 L1882.0313,131.0469 Q1882.0313,129.7188 1882.6406,128.5781 Q1883.2656,127.4219 1884.3594,126.8125 Q1885.4531,126.1875 1886.6875,126.1875 Q1887.4219,126.1875 1888.0625,126.3594 Q1888.7188,126.5156 1889.2656,126.875 Z " fill="#000000"/><text fill="#000000" font-family="sans-serif" font-size="14" lengthAdjust="spacing" textLength="206.1924" x="1900.5" y="136.7969">CrBeamElement2D2N_Structural</text><line style="stroke:#181818;stroke-width:0.5;" x1="1872.5" x2="2108.6924" y1="147" y2="147"/><line style="stroke:#181818;stroke-width:0.5;" x1="1872.5" x2="2108.6924" y1="155" y2="155"/></g><!--class CrBeamElementLinear2D2N_Structural--><g id="elem_CrBeamElementLinear2D2N_Structural"><rect codeLine="58" fill="#F1F1F1" height="48" id="CrBeamElementLinear2D2N_Structural" rx="2.5" ry="2.5" style="stroke:#181818;stroke-width:0.5;" width="277.1094" x="1852" y="223"/><ellipse cx="1867" cy="239" fill="#ADD1B2" rx="11" ry="11" style="stroke:#181818;stroke-width:1.0;"/><path d="M1869.7656,234.875 Q1869.9219,234.6563 1870.1094,234.5469 Q1870.2969,234.4375 1870.5156,234.4375 Q1870.8906,234.4375 1871.125,234.7031 Q1871.3594,234.9531 1871.3594,235.5625 L1871.3594,237.0156 Q1871.3594,237.625 1871.125,237.8906 Q1870.8906,238.1563 1870.5156,238.1563 Q1870.1719,238.1563 1869.9688,237.9531 Q1869.7656,237.7656 1869.6563,237.25 Q1869.6094,236.8906 1869.4219,236.7031 Q1869.0938,236.3281 1868.4844,236.1094 Q1867.875,235.8906 1867.25,235.8906 Q1866.4844,235.8906 1865.8438,236.2188 Q1865.2188,236.5469 1864.7188,237.2969 Q1864.2344,238.0469 1864.2344,239.0781 L1864.2344,240.1719 Q1864.2344,241.4063 1865.125,242.2344 Q1866.0156,243.0469 1867.6094,243.0469 Q1868.5469,243.0469 1869.2031,242.7969 Q1869.5938,242.6406 1870.0156,242.2031 Q1870.2813,241.9375 1870.4219,241.8594 Q1870.5781,241.7813 1870.7813,241.7813 Q1871.1094,241.7813 1871.3594,242.0469 Q1871.625,242.2969 1871.625,242.6406 Q1871.625,242.9844 1871.2813,243.3906 Q1870.7813,243.9688 1869.9844,244.2969 Q1868.9063,244.75 1867.6094,244.75 Q1866.0938,244.75 1864.8906,244.125 Q1863.9063,243.625 1863.2188,242.5625 Q1862.5313,241.4844 1862.5313,240.2031 L1862.5313,239.0469 Q1862.5313,237.7188 1863.1406,236.5781 Q1863.7656,235.4219 1864.8594,234.8125 Q1865.9531,234.1875 1867.1875,234.1875 Q1867.9219,234.1875 1868.5625,234.3594 Q1869.2188,234.5156 1869.7656,234.875 Z " fill="#000000"/><text fill="#000000" font-family="sans-serif" font-size="14" lengthAdjust="spacing" textLength="245.1094" x="1881" y="244.7969">CrBeamElementLinear2D2N_Structural</text><line style="stroke:#181818;stroke-width:0.5;" x1="1853" x2="2128.1094" y1="255" y2="255"/><line style="stroke:#181818;stroke-width:0.5;" x1="1853" x2="2128.1094" y1="263" y2="263"/></g><!--class GeoCrBeamElementLinear2D2N--><g id="elem_GeoCrBeamElementLinear2D2N"><rect codeLine="59" fill="#F1F1F1" height="48" id="GeoCrBeamElementLinear2D2N" rx="2.5" ry="2.5" style="stroke:#181818;stroke-width:0.5;" width="235.875" x="1872.5" y="331"/><ellipse cx="1887.5" cy="347" fill="#ADD1B2" rx="11" ry="11" style="stroke:#181818;stroke-width:1.0;"/><path d="M1890.2656,342.875 Q1890.4219,342.6563 1890.6094,342.5469 Q1890.7969,342.4375 1891.0156,342.4375 Q1891.3906,342.4375 1891.625,342.7031 Q1891.8594,342.9531 1891.8594,343.5625 L1891.8594,345.0156 Q1891.8594,345.625 1891.625,345.8906 Q1891.3906,346.1563 1891.0156,346.1563 Q1890.6719,346.1563 1890.4688,345.9531 Q1890.2656,345.7656 1890.1563,345.25 Q1890.1094,344.8906 1889.9219,344.7031 Q1889.5938,344.3281 1888.9844,344.1094 Q1888.375,343.8906 1887.75,343.8906 Q1886.9844,343.8906 1886.3438,344.2188 Q1885.7188,344.5469 1885.2188,345.2969 Q1884.7344,346.0469 1884.7344,347.0781 L1884.7344,348.1719 Q1884.7344,349.4063 1885.625,350.2344 Q1886.5156,351.0469 1888.1094,351.0469 Q1889.0469,351.0469 1889.7031,350.7969 Q1890.0938,350.6406 1890.5156,350.2031 Q1890.7813,349.9375 1890.9219,349.8594 Q1891.0781,349.7813 1891.2813,349.7813 Q1891.6094,349.7813 1891.8594,350.0469 Q1892.125,350.2969 1892.125,350.6406 Q1892.125,350.9844 1891.7813,351.3906 Q1891.2813,351.9688 1890.4844,352.2969 Q1889.4063,352.75 1888.1094,352.75 Q1886.5938,352.75 1885.3906,352.125 Q1884.4063,351.625 1883.7188,350.5625 Q1883.0313,349.4844 1883.0313,348.2031 L1883.0313,347.0469 Q1883.0313,345.7188 1883.6406,344.5781 Q1884.2656,343.4219 1885.3594,342.8125 Q1886.4531,342.1875 1887.6875,342.1875 Q1888.4219,342.1875 1889.0625,342.3594 Q1889.7188,342.5156 1890.2656,342.875 Z " fill="#000000"/><text fill="#000000" font-family="sans-serif" font-size="14" lengthAdjust="spacing" textLength="203.875" x="1901.5" y="352.7969">GeoCrBeamElementLinear2D2N</text><line style="stroke:#181818;stroke-width:0.5;" x1="1873.5" x2="2107.375" y1="363" y2="363"/><line style="stroke:#181818;stroke-width:0.5;" x1="1873.5" x2="2107.375" y1="371" y2="371"/></g><!--reverse link Element to UPwBaseElement--><g id="link_Element_UPwBaseElement"><path codeLine="19" d="M1300.0477,43.0442 C1225.7377,56.9642 1083.48,84.34 949.5,115 C943.84,116.3 937.99,117.68 932.12,119.11 " fill="none" id="Element-backto-UPwBaseElement" style="stroke:#181818;stroke-width:1.0;"/><polygon fill="none" points="1317.74,39.73,1298.943,37.1468,1301.1525,48.9416,1317.74,39.73" style="stroke:#181818;stroke-width:1.0;"/></g><!--reverse link UPwBaseElement to UPwSmallStrainElement--><g id="link_UPwBaseElement_UPwSmallStrainElement"><path codeLine="20" d="M769.4235,164.5432 C703.6735,182.4632 624.22,204.11 555.04,222.96 " fill="none" id="UPwBaseElement-backto-UPwSmallStrainElement" style="stroke:#181818;stroke-width:1.0;"/><polygon fill="none" points="786.79,159.81,767.8457,158.7544,771.0012,170.3321,786.79,159.81" style="stroke:#181818;stroke-width:1.0;"/></g><!--reverse link UPwSmallStrainElement to TransientPwElement--><g id="link_UPwSmallStrainElement_TransientPwElement"><path codeLine="22" d="M375.7846,276.1235 C316.0046,293.8735 250.94,313.19 191.12,330.95 " fill="none" id="UPwSmallStrainElement-backto-TransientPwElement" style="stroke:#181818;stroke-width:1.0;"/><polygon fill="none" points="393.04,271,374.0767,270.3717,377.4924,281.8753,393.04,271" style="stroke:#181818;stroke-width:1.0;"/></g><!--reverse link TransientPwElement to SteadyStatePwElement--><g id="link_TransientPwElement_SteadyStatePwElement"><path codeLine="23" d="M106.9619,396.7732 C104.1319,414.4332 103.08,420.94 100.24,438.68 " fill="none" id="TransientPwElement-backto-SteadyStatePwElement" style="stroke:#181818;stroke-width:1.0;"/><polygon fill="none" points="109.81,379,101.0374,395.8239,112.8863,397.7226,109.81,379" style="stroke:#181818;stroke-width:1.0;"/></g><!--reverse link UPwSmallStrainElement to UPwSmallStrainFICElement--><g id="link_UPwSmallStrainElement_UPwSmallStrainFICElement"><path codeLine="24" d="M428.6033,282.4282 C407.1133,300.0882 391.47,312.94 369.88,330.68 " fill="none" id="UPwSmallStrainElement-backto-UPwSmallStrainFICElement" style="stroke:#181818;stroke-width:1.0;"/><polygon fill="none" points="442.51,271,424.7939,277.7926,432.4127,287.0638,442.51,271" style="stroke:#181818;stroke-width:1.0;"/></g><!--reverse link UPwSmallStrainFICElement to UPwUpdatedLagrangianFICElement--><g id="link_UPwSmallStrainFICElement_UPwUpdatedLagrangianFICElement"><path codeLine="25" d="M344.9734,396.9354 C346.4734,414.5954 347.01,420.94 348.52,438.68 " fill="none" id="UPwSmallStrainFICElement-backto-UPwUpdatedLagrangianFICElement" style="stroke:#181818;stroke-width:1.0;"/><polygon fill="none" points="343.45,379,338.9949,397.4432,350.9519,396.4276,343.45,379" style="stroke:#181818;stroke-width:1.0;"/></g><!--reverse link UPwSmallStrainElement to UPwUpdatedLagrangianElement--><g id="link_UPwSmallStrainElement_UPwUpdatedLagrangianElement"><path codeLine="26" d="M512.1347,282.4791 C533.4647,300.1391 548.92,312.94 570.34,330.68 " fill="none" id="UPwSmallStrainElement-backto-UPwUpdatedLagrangianElement" style="stroke:#181818;stroke-width:1.0;"/><polygon fill="none" points="498.27,271,508.3083,287.1007,515.9611,277.8576,498.27,271" style="stroke:#181818;stroke-width:1.0;"/></g><!--reverse link UPwBaseElement to SmallStrainUPwDiffOrderElement--><g id="link_UPwBaseElement_SmallStrainUPwDiffOrderElement"><path codeLine="34" d="M937.766,169.3148 C985.066,187.0348 1033.33,205.11 1080.73,222.86 " fill="none" id="UPwBaseElement-backto-SmallStrainUPwDiffOrderElement" style="stroke:#181818;stroke-width:1.0;"/><polygon fill="none" points="920.91,163,935.6611,174.9334,939.8709,163.6961,920.91,163" style="stroke:#181818;stroke-width:1.0;"/></g><!--reverse link SmallStrainUPwDiffOrderElement to UpdatedLagrangianUPwDiffOrderElement--><g id="link_SmallStrainUPwDiffOrderElement_UpdatedLagrangianUPwDiffOrderElement"><path codeLine="35" d="M1145.1998,288.9613 C1146.3598,306.6213 1146.79,312.94 1147.96,330.68 " fill="none" id="SmallStrainUPwDiffOrderElement-backto-UpdatedLagrangianUPwDiffOrderElement" style="stroke:#181818;stroke-width:1.0;"/><polygon fill="none" points="1144.02,271,1139.2127,289.3546,1151.1869,288.568,1144.02,271" style="stroke:#181818;stroke-width:1.0;"/></g><!--reverse link UPwBaseElement to UPwSmallStrainInterfaceElement--><g id="link_UPwBaseElement_UPwSmallStrainInterfaceElement"><path codeLine="37" d="M859.5,181 C859.5,198.66 859.5,204.94 859.5,222.68 " fill="none" id="UPwBaseElement-backto-UPwSmallStrainInterfaceElement" style="stroke:#181818;stroke-width:1.0;"/><polygon fill="none" points="859.5,163,853.5,181,865.5,181,859.5,163" style="stroke:#181818;stroke-width:1.0;"/></g><!--reverse link UPwSmallStrainInterfaceElement to TransientPwInterfaceElement--><g id="link_UPwSmallStrainInterfaceElement_TransientPwInterfaceElement"><path codeLine="38" d="M859.5,289 C859.5,306.66 859.5,312.94 859.5,330.68 " fill="none" id="UPwSmallStrainInterfaceElement-backto-TransientPwInterfaceElement" style="stroke:#181818;stroke-width:1.0;"/><polygon fill="none" points="859.5,271,853.5,289,865.5,289,859.5,271" style="stroke:#181818;stroke-width:1.0;"/></g><!--reverse link TransientPwInterfaceElement to SteadyStatePwInterfaceElement--><g id="link_TransientPwInterfaceElement_SteadyStatePwInterfaceElement"><path codeLine="39" d="M859.5,397 C859.5,414.66 859.5,420.94 859.5,438.68 " fill="none" id="TransientPwInterfaceElement-backto-SteadyStatePwInterfaceElement" style="stroke:#181818;stroke-width:1.0;"/><polygon fill="none" points="859.5,379,853.5,397,865.5,397,859.5,379" style="stroke:#181818;stroke-width:1.0;"/></g><!--reverse link Element to InterfaceElement--><g id="link_Element_InterfaceElement"><path codeLine="42" d="M1300.8271,51.2517 C1247.1571,68.8617 1170.11,94.15 1105.59,115.32 " fill="none" id="Element-backto-InterfaceElement" style="stroke:#181818;stroke-width:1.0;"/><polygon fill="none" points="1317.93,45.64,1298.9565,45.5508,1302.6977,56.9527,1317.93,45.64" style="stroke:#181818;stroke-width:1.0;"/></g><!--reverse link Element to TransientPwLineElement--><g id="link_Element_TransientPwLineElement"><path codeLine="48" d="M1318.6503,66.6403 C1297.8203,84.3003 1282.92,96.94 1262,114.68 " fill="none" id="Element-backto-TransientPwLineElement" style="stroke:#181818;stroke-width:1.0;"/><polygon fill="none" points="1332.38,55,1314.7702,62.0637,1322.5304,71.2168,1332.38,55" style="stroke:#181818;stroke-width:1.0;"/></g><!--reverse link Element to GeoSteadyStatePwPipingElement--><g id="link_Element_GeoSteadyStatePwPipingElement"><path codeLine="49" d="M1400.6135,66.5884 C1421.6035,84.2484 1436.69,96.94 1457.78,114.68 " fill="none" id="Element-backto-GeoSteadyStatePwPipingElement" style="stroke:#181818;stroke-width:1.0;"/><polygon fill="none" points="1386.84,55,1396.7507,71.1795,1404.4763,61.9972,1386.84,55" style="stroke:#181818;stroke-width:1.0;"/></g><!--reverse link Element to TransientThermalElement--><g id="link_Element_TransientThermalElement"><path codeLine="53" d="M1418.5882,48.4858 C1479.8982,65.5858 1578.2,93 1657.02,114.99 " fill="none" id="Element-backto-TransientThermalElement" style="stroke:#181818;stroke-width:1.0;"/><polygon fill="none" points="1401.25,43.65,1416.9763,54.2652,1420.2002,42.7064,1401.25,43.65" style="stroke:#181818;stroke-width:1.0;"/></g><!--reverse link Element to CrBeamElement2D2N_Structural--><g id="link_Element_CrBeamElement2D2N_Structural"><path codeLine="61" d="M1419.1413,42.0217 C1513.6213,57.8917 1728.45,93.98 1871.49,118.01 " fill="none" id="Element-backto-CrBeamElement2D2N_Structural" style="stroke:#181818;stroke-width:1.0;"/><polygon fill="none" points="1401.39,39.04,1418.1474,47.9388,1420.1352,36.1046,1401.39,39.04" style="stroke:#181818;stroke-width:1.0;"/></g><!--reverse link CrBeamElement2D2N_Structural to CrBeamElementLinear2D2N_Structural--><g id="link_CrBeamElement2D2N_Structural_CrBeamElementLinear2D2N_Structural"><path codeLine="62" d="M1990.5,181 C1990.5,198.66 1990.5,204.94 1990.5,222.68 " fill="none" id="CrBeamElement2D2N_Structural-backto-CrBeamElementLinear2D2N_Structural" style="stroke:#181818;stroke-width:1.0;"/><polygon fill="none" points="1990.5,163,1984.5,181,1996.5,181,1990.5,163" style="stroke:#181818;stroke-width:1.0;"/></g><!--reverse link CrBeamElementLinear2D2N_Structural to GeoCrBeamElementLinear2D2N--><g id="link_CrBeamElementLinear2D2N_Structural_GeoCrBeamElementLinear2D2N"><path codeLine="63" d="M1990.5,289 C1990.5,306.66 1990.5,312.94 1990.5,330.68 " fill="none" id="CrBeamElementLinear2D2N_Structural-backto-GeoCrBeamElementLinear2D2N" style="stroke:#181818;stroke-width:1.0;"/><polygon fill="none" points="1990.5,271,1984.5,289,1996.5,289,1990.5,271" style="stroke:#181818;stroke-width:1.0;"/></g><!--SRC=[dLJBQiCm4BphAtpJoJNaM7fAqfP0Q0sEwR4ijfm8BCN8CgRGZw-VAdgwb5oYdTdHxkpA-2PbqpucILC3bnsh7uexIueQsZOkALm5C8IcO_HS4qQuH0ZdwSSIozD-3orHa8fc3Eewam8eNy4PkmZWBHtEQQy3cIHGVcKI934XNU_bTB3Wl2c7lF8y5iol5Fv62fPzufA82WhYhT_3q1gnE6Zv4prznx7fdtvK58UPo1cUCnmMsw6PwZGz8EsTX0zGQQ49XI_qZmsFloEjgkXTb4Ii_lzA3TaZFA76EfYYBgfp7XloONXfwj-NRwne6BQsmyeFO8vziNTxzjQAQn9s5axxzUFIsg_iJBdnm5x9NQiZfGtbL_S3ymXfd0qzZ2yt8WPRpTgMi5FJHvfMTXXFLyXEACc3s1DW2sTttBrzXYbZAo3SnA4R3zUm9dXf27IakmlQfgW1-4h-0G00]--></g></svg>