<svg xmlns="http://www.w3.org/2000/svg" xmlns:xlink="http://www.w3.org/1999/xlink" contentStyleType="text/css" height="494px" preserveAspectRatio="none" style="width:2215px;height:494px;background:#FFFFFF;" version="1.1" viewBox="0 0 2215 494" width="2215px" zoomAndPan="magnify"><defs/><g><!--class Element--><g id="elem_Element"><rect codeLine="3" fill="#F1F1F1" height="48" id="Element" rx="2.5" ry="2.5" style="stroke:#181818;stroke-width:0.5;" width="83.3584" x="1397" y="7"/><ellipse cx="1412" cy="23" fill="#ADD1B2" rx="11" ry="11" style="stroke:#181818;stroke-width:1.0;"/><path d="M1414.7656,18.875 Q1414.9219,18.6563 1415.1094,18.5469 Q1415.2969,18.4375 1415.5156,18.4375 Q1415.8906,18.4375 1416.125,18.7031 Q1416.3594,18.9531 1416.3594,19.5625 L1416.3594,21.0156 Q1416.3594,21.625 1416.125,21.8906 Q1415.8906,22.1563 1415.5156,22.1563 Q1415.1719,22.1563 1414.9688,21.9531 Q1414.7656,21.7656 1414.6563,21.25 Q1414.6094,20.8906 1414.4219,20.7031 Q1414.0938,20.3281 1413.4844,20.1094 Q1412.875,19.8906 1412.25,19.8906 Q1411.4844,19.8906 1410.8438,20.2188 Q1410.2188,20.5469 1409.7188,21.2969 Q1409.2344,22.0469 1409.2344,23.0781 L1409.2344,24.1719 Q1409.2344,25.4063 1410.125,26.2344 Q1411.0156,27.0469 1412.6094,27.0469 Q1413.5469,27.0469 1414.2031,26.7969 Q1414.5938,26.6406 1415.0156,26.2031 Q1415.2813,25.9375 1415.4219,25.8594 Q1415.5781,25.7813 1415.7813,25.7813 Q1416.1094,25.7813 1416.3594,26.0469 Q1416.625,26.2969 1416.625,26.6406 Q1416.625,26.9844 1416.2813,27.3906 Q1415.7813,27.9688 1414.9844,28.2969 Q1413.9063,28.75 1412.6094,28.75 Q1411.0938,28.75 1409.8906,28.125 Q1408.9063,27.625 1408.2188,26.5625 Q1407.5313,25.4844 1407.5313,24.2031 L1407.5313,23.0469 Q1407.5313,21.7188 1408.1406,20.5781 Q1408.7656,19.4219 1409.8594,18.8125 Q1410.9531,18.1875 1412.1875,18.1875 Q1412.9219,18.1875 1413.5625,18.3594 Q1414.2188,18.5156 1414.7656,18.875 Z " fill="#000000"/><text fill="#000000" font-family="sans-serif" font-size="14" lengthAdjust="spacing" textLength="51.3584" x="1426" y="28.7969">Element</text><line style="stroke:#181818;stroke-width:0.5;" x1="1398" x2="1479.3584" y1="39" y2="39"/><line style="stroke:#181818;stroke-width:0.5;" x1="1398" x2="1479.3584" y1="47" y2="47"/></g><!--class UPwBaseElement--><g id="elem_UPwBaseElement"><rect codeLine="6" fill="#F1F1F1" height="48" id="UPwBaseElement" rx="2.5" ry="2.5" style="stroke:#181818;stroke-width:0.5;" width="144.8271" x="866" y="115"/><ellipse cx="881" cy="131" fill="#ADD1B2" rx="11" ry="11" style="stroke:#181818;stroke-width:1.0;"/><path d="M883.7656,126.875 Q883.9219,126.6563 884.1094,126.5469 Q884.2969,126.4375 884.5156,126.4375 Q884.8906,126.4375 885.125,126.7031 Q885.3594,126.9531 885.3594,127.5625 L885.3594,129.0156 Q885.3594,129.625 885.125,129.8906 Q884.8906,130.1563 884.5156,130.1563 Q884.1719,130.1563 883.9688,129.9531 Q883.7656,129.7656 883.6563,129.25 Q883.6094,128.8906 883.4219,128.7031 Q883.0938,128.3281 882.4844,128.1094 Q881.875,127.8906 881.25,127.8906 Q880.4844,127.8906 879.8438,128.2188 Q879.2188,128.5469 878.7188,129.2969 Q878.2344,130.0469 878.2344,131.0781 L878.2344,132.1719 Q878.2344,133.4063 879.125,134.2344 Q880.0156,135.0469 881.6094,135.0469 Q882.5469,135.0469 883.2031,134.7969 Q883.5938,134.6406 884.0156,134.2031 Q884.2813,133.9375 884.4219,133.8594 Q884.5781,133.7813 884.7813,133.7813 Q885.1094,133.7813 885.3594,134.0469 Q885.625,134.2969 885.625,134.6406 Q885.625,134.9844 885.2813,135.3906 Q884.7813,135.9688 883.9844,136.2969 Q882.9063,136.75 881.6094,136.75 Q880.0938,136.75 878.8906,136.125 Q877.9063,135.625 877.2188,134.5625 Q876.5313,133.4844 876.5313,132.2031 L876.5313,131.0469 Q876.5313,129.7188 877.1406,128.5781 Q877.7656,127.4219 878.8594,126.8125 Q879.9531,126.1875 881.1875,126.1875 Q881.9219,126.1875 882.5625,126.3594 Q883.2188,126.5156 883.7656,126.875 Z " fill="#000000"/><text fill="#000000" font-family="sans-serif" font-size="14" lengthAdjust="spacing" textLength="112.8271" x="895" y="136.7969">UPwBaseElement</text><line style="stroke:#181818;stroke-width:0.5;" x1="867" x2="1009.8271" y1="147" y2="147"/><line style="stroke:#181818;stroke-width:0.5;" x1="867" x2="1009.8271" y1="155" y2="155"/></g><!--class UPwSmallStrainElement--><g id="elem_UPwSmallStrainElement"><rect codeLine="8" fill="#F1F1F1" height="48" id="UPwSmallStrainElement" rx="2.5" ry="2.5" style="stroke:#181818;stroke-width:0.5;" width="184.4961" x="378.5" y="223"/><ellipse cx="393.5" cy="239" fill="#ADD1B2" rx="11" ry="11" style="stroke:#181818;stroke-width:1.0;"/><path d="M396.2656,234.875 Q396.4219,234.6563 396.6094,234.5469 Q396.7969,234.4375 397.0156,234.4375 Q397.3906,234.4375 397.625,234.7031 Q397.8594,234.9531 397.8594,235.5625 L397.8594,237.0156 Q397.8594,237.625 397.625,237.8906 Q397.3906,238.1563 397.0156,238.1563 Q396.6719,238.1563 396.4688,237.9531 Q396.2656,237.7656 396.1563,237.25 Q396.1094,236.8906 395.9219,236.7031 Q395.5938,236.3281 394.9844,236.1094 Q394.375,235.8906 393.75,235.8906 Q392.9844,235.8906 392.3438,236.2188 Q391.7188,236.5469 391.2188,237.2969 Q390.7344,238.0469 390.7344,239.0781 L390.7344,240.1719 Q390.7344,241.4063 391.625,242.2344 Q392.5156,243.0469 394.1094,243.0469 Q395.0469,243.0469 395.7031,242.7969 Q396.0938,242.6406 396.5156,242.2031 Q396.7813,241.9375 396.9219,241.8594 Q397.0781,241.7813 397.2813,241.7813 Q397.6094,241.7813 397.8594,242.0469 Q398.125,242.2969 398.125,242.6406 Q398.125,242.9844 397.7813,243.3906 Q397.2813,243.9688 396.4844,244.2969 Q395.4063,244.75 394.1094,244.75 Q392.5938,244.75 391.3906,244.125 Q390.4063,243.625 389.7188,242.5625 Q389.0313,241.4844 389.0313,240.2031 L389.0313,239.0469 Q389.0313,237.7188 389.6406,236.5781 Q390.2656,235.4219 391.3594,234.8125 Q392.4531,234.1875 393.6875,234.1875 Q394.4219,234.1875 395.0625,234.3594 Q395.7188,234.5156 396.2656,234.875 Z " fill="#000000"/><text fill="#000000" font-family="sans-serif" font-size="14" lengthAdjust="spacing" textLength="152.4961" x="407.5" y="244.7969">UPwSmallStrainElement</text><line style="stroke:#181818;stroke-width:0.5;" x1="379.5" x2="561.9961" y1="255" y2="255"/><line style="stroke:#181818;stroke-width:0.5;" x1="379.5" x2="561.9961" y1="263" y2="263"/></g><!--class TransientPwElement--><g id="elem_TransientPwElement"><rect codeLine="9" fill="#F1F1F1" height="48" id="TransientPwElement" rx="2.5" ry="2.5" style="stroke:#181818;stroke-width:0.5;" width="161.165" x="33" y="331"/><ellipse cx="48" cy="347" fill="#ADD1B2" rx="11" ry="11" style="stroke:#181818;stroke-width:1.0;"/><path d="M50.7656,342.875 Q50.9219,342.6563 51.1094,342.5469 Q51.2969,342.4375 51.5156,342.4375 Q51.8906,342.4375 52.125,342.7031 Q52.3594,342.9531 52.3594,343.5625 L52.3594,345.0156 Q52.3594,345.625 52.125,345.8906 Q51.8906,346.1563 51.5156,346.1563 Q51.1719,346.1563 50.9688,345.9531 Q50.7656,345.7656 50.6563,345.25 Q50.6094,344.8906 50.4219,344.7031 Q50.0938,344.3281 49.4844,344.1094 Q48.875,343.8906 48.25,343.8906 Q47.4844,343.8906 46.8438,344.2188 Q46.2188,344.5469 45.7188,345.2969 Q45.2344,346.0469 45.2344,347.0781 L45.2344,348.1719 Q45.2344,349.4063 46.125,350.2344 Q47.0156,351.0469 48.6094,351.0469 Q49.5469,351.0469 50.2031,350.7969 Q50.5938,350.6406 51.0156,350.2031 Q51.2813,349.9375 51.4219,349.8594 Q51.5781,349.7813 51.7813,349.7813 Q52.1094,349.7813 52.3594,350.0469 Q52.625,350.2969 52.625,350.6406 Q52.625,350.9844 52.2813,351.3906 Q51.7813,351.9688 50.9844,352.2969 Q49.9063,352.75 48.6094,352.75 Q47.0938,352.75 45.8906,352.125 Q44.9063,351.625 44.2188,350.5625 Q43.5313,349.4844 43.5313,348.2031 L43.5313,347.0469 Q43.5313,345.7188 44.1406,344.5781 Q44.7656,343.4219 45.8594,342.8125 Q46.9531,342.1875 48.1875,342.1875 Q48.9219,342.1875 49.5625,342.3594 Q50.2188,342.5156 50.7656,342.875 Z " fill="#000000"/><text fill="#000000" font-family="sans-serif" font-size="14" lengthAdjust="spacing" textLength="129.165" x="62" y="352.7969">TransientPwElement</text><line style="stroke:#181818;stroke-width:0.5;" x1="34" x2="193.165" y1="363" y2="363"/><line style="stroke:#181818;stroke-width:0.5;" x1="34" x2="193.165" y1="371" y2="371"/></g><!--class SteadyStatePwElement--><g id="elem_SteadyStatePwElement"><rect codeLine="10" fill="#F1F1F1" height="48" id="SteadyStatePwElement" rx="2.5" ry="2.5" style="stroke:#181818;stroke-width:0.5;" width="179.082" x="7" y="439"/><ellipse cx="22" cy="455" fill="#ADD1B2" rx="11" ry="11" style="stroke:#181818;stroke-width:1.0;"/><path d="M24.7656,450.875 Q24.9219,450.6563 25.1094,450.5469 Q25.2969,450.4375 25.5156,450.4375 Q25.8906,450.4375 26.125,450.7031 Q26.3594,450.9531 26.3594,451.5625 L26.3594,453.0156 Q26.3594,453.625 26.125,453.8906 Q25.8906,454.1563 25.5156,454.1563 Q25.1719,454.1563 24.9688,453.9531 Q24.7656,453.7656 24.6563,453.25 Q24.6094,452.8906 24.4219,452.7031 Q24.0938,452.3281 23.4844,452.1094 Q22.875,451.8906 22.25,451.8906 Q21.4844,451.8906 20.8438,452.2188 Q20.2188,452.5469 19.7188,453.2969 Q19.2344,454.0469 19.2344,455.0781 L19.2344,456.1719 Q19.2344,457.4063 20.125,458.2344 Q21.0156,459.0469 22.6094,459.0469 Q23.5469,459.0469 24.2031,458.7969 Q24.5938,458.6406 25.0156,458.2031 Q25.2813,457.9375 25.4219,457.8594 Q25.5781,457.7813 25.7813,457.7813 Q26.1094,457.7813 26.3594,458.0469 Q26.625,458.2969 26.625,458.6406 Q26.625,458.9844 26.2813,459.3906 Q25.7813,459.9688 24.9844,460.2969 Q23.9063,460.75 22.6094,460.75 Q21.0938,460.75 19.8906,460.125 Q18.9063,459.625 18.2188,458.5625 Q17.5313,457.4844 17.5313,456.2031 L17.5313,455.0469 Q17.5313,453.7188 18.1406,452.5781 Q18.7656,451.4219 19.8594,450.8125 Q20.9531,450.1875 22.1875,450.1875 Q22.9219,450.1875 23.5625,450.3594 Q24.2188,450.5156 24.7656,450.875 Z " fill="#000000"/><text fill="#000000" font-family="sans-serif" font-size="14" lengthAdjust="spacing" textLength="147.082" x="36" y="460.7969">SteadyStatePwElement</text><line style="stroke:#181818;stroke-width:0.5;" x1="8" x2="185.082" y1="471" y2="471"/><line style="stroke:#181818;stroke-width:0.5;" x1="8" x2="185.082" y1="479" y2="479"/></g><!--class UPwSmallStrainFICElement--><g id="elem_UPwSmallStrainFICElement"><rect codeLine="11" fill="#F1F1F1" height="48" id="UPwSmallStrainFICElement" rx="2.5" ry="2.5" style="stroke:#181818;stroke-width:0.5;" width="207.0479" x="238" y="331"/><ellipse cx="253" cy="347" fill="#ADD1B2" rx="11" ry="11" style="stroke:#181818;stroke-width:1.0;"/><path d="M255.7656,342.875 Q255.9219,342.6563 256.1094,342.5469 Q256.2969,342.4375 256.5156,342.4375 Q256.8906,342.4375 257.125,342.7031 Q257.3594,342.9531 257.3594,343.5625 L257.3594,345.0156 Q257.3594,345.625 257.125,345.8906 Q256.8906,346.1563 256.5156,346.1563 Q256.1719,346.1563 255.9688,345.9531 Q255.7656,345.7656 255.6563,345.25 Q255.6094,344.8906 255.4219,344.7031 Q255.0938,344.3281 254.4844,344.1094 Q253.875,343.8906 253.25,343.8906 Q252.4844,343.8906 251.8438,344.2188 Q251.2188,344.5469 250.7188,345.2969 Q250.2344,346.0469 250.2344,347.0781 L250.2344,348.1719 Q250.2344,349.4063 251.125,350.2344 Q252.0156,351.0469 253.6094,351.0469 Q254.5469,351.0469 255.2031,350.7969 Q255.5938,350.6406 256.0156,350.2031 Q256.2813,349.9375 256.4219,349.8594 Q256.5781,349.7813 256.7813,349.7813 Q257.1094,349.7813 257.3594,350.0469 Q257.625,350.2969 257.625,350.6406 Q257.625,350.9844 257.2813,351.3906 Q256.7813,351.9688 255.9844,352.2969 Q254.9063,352.75 253.6094,352.75 Q252.0938,352.75 250.8906,352.125 Q249.9063,351.625 249.2188,350.5625 Q248.5313,349.4844 248.5313,348.2031 L248.5313,347.0469 Q248.5313,345.7188 249.1406,344.5781 Q249.7656,343.4219 250.8594,342.8125 Q251.9531,342.1875 253.1875,342.1875 Q253.9219,342.1875 254.5625,342.3594 Q255.2188,342.5156 255.7656,342.875 Z " fill="#000000"/><text fill="#000000" font-family="sans-serif" font-size="14" lengthAdjust="spacing" textLength="175.0479" x="267" y="352.7969">UPwSmallStrainFICElement</text><line style="stroke:#181818;stroke-width:0.5;" x1="239" x2="444.0479" y1="363" y2="363"/><line style="stroke:#181818;stroke-width:0.5;" x1="239" x2="444.0479" y1="371" y2="371"/></g><!--class UPwUpdatedLagrangianFICElement--><g id="elem_UPwUpdatedLagrangianFICElement"><rect codeLine="12" fill="#F1F1F1" height="48" id="UPwUpdatedLagrangianFICElement" rx="2.5" ry="2.5" style="stroke:#181818;stroke-width:0.5;" width="258.4609" x="221.5" y="439"/><ellipse cx="236.5" cy="455" fill="#ADD1B2" rx="11" ry="11" style="stroke:#181818;stroke-width:1.0;"/><path d="M239.2656,450.875 Q239.4219,450.6563 239.6094,450.5469 Q239.7969,450.4375 240.0156,450.4375 Q240.3906,450.4375 240.625,450.7031 Q240.8594,450.9531 240.8594,451.5625 L240.8594,453.0156 Q240.8594,453.625 240.625,453.8906 Q240.3906,454.1563 240.0156,454.1563 Q239.6719,454.1563 239.4688,453.9531 Q239.2656,453.7656 239.1563,453.25 Q239.1094,452.8906 238.9219,452.7031 Q238.5938,452.3281 237.9844,452.1094 Q237.375,451.8906 236.75,451.8906 Q235.9844,451.8906 235.3438,452.2188 Q234.7188,452.5469 234.2188,453.2969 Q233.7344,454.0469 233.7344,455.0781 L233.7344,456.1719 Q233.7344,457.4063 234.625,458.2344 Q235.5156,459.0469 237.1094,459.0469 Q238.0469,459.0469 238.7031,458.7969 Q239.0938,458.6406 239.5156,458.2031 Q239.7813,457.9375 239.9219,457.8594 Q240.0781,457.7813 240.2813,457.7813 Q240.6094,457.7813 240.8594,458.0469 Q241.125,458.2969 241.125,458.6406 Q241.125,458.9844 240.7813,459.3906 Q240.2813,459.9688 239.4844,460.2969 Q238.4063,460.75 237.1094,460.75 Q235.5938,460.75 234.3906,460.125 Q233.4063,459.625 232.7188,458.5625 Q232.0313,457.4844 232.0313,456.2031 L232.0313,455.0469 Q232.0313,453.7188 232.6406,452.5781 Q233.2656,451.4219 234.3594,450.8125 Q235.4531,450.1875 236.6875,450.1875 Q237.4219,450.1875 238.0625,450.3594 Q238.7188,450.5156 239.2656,450.875 Z " fill="#000000"/><text fill="#000000" font-family="sans-serif" font-size="14" lengthAdjust="spacing" textLength="226.4609" x="250.5" y="460.7969">UPwUpdatedLagrangianFICElement</text><line style="stroke:#181818;stroke-width:0.5;" x1="222.5" x2="478.9609" y1="471" y2="471"/><line style="stroke:#181818;stroke-width:0.5;" x1="222.5" x2="478.9609" y1="479" y2="479"/></g><!--class UPwUpdatedLagrangianElement--><g id="elem_UPwUpdatedLagrangianElement"><rect codeLine="13" fill="#F1F1F1" height="48" id="UPwUpdatedLagrangianElement" rx="2.5" ry="2.5" style="stroke:#181818;stroke-width:0.5;" width="235.9092" x="480.5" y="331"/><ellipse cx="495.5" cy="347" fill="#ADD1B2" rx="11" ry="11" style="stroke:#181818;stroke-width:1.0;"/><path d="M498.2656,342.875 Q498.4219,342.6563 498.6094,342.5469 Q498.7969,342.4375 499.0156,342.4375 Q499.3906,342.4375 499.625,342.7031 Q499.8594,342.9531 499.8594,343.5625 L499.8594,345.0156 Q499.8594,345.625 499.625,345.8906 Q499.3906,346.1563 499.0156,346.1563 Q498.6719,346.1563 498.4688,345.9531 Q498.2656,345.7656 498.1563,345.25 Q498.1094,344.8906 497.9219,344.7031 Q497.5938,344.3281 496.9844,344.1094 Q496.375,343.8906 495.75,343.8906 Q494.9844,343.8906 494.3438,344.2188 Q493.7188,344.5469 493.2188,345.2969 Q492.7344,346.0469 492.7344,347.0781 L492.7344,348.1719 Q492.7344,349.4063 493.625,350.2344 Q494.5156,351.0469 496.1094,351.0469 Q497.0469,351.0469 497.7031,350.7969 Q498.0938,350.6406 498.5156,350.2031 Q498.7813,349.9375 498.9219,349.8594 Q499.0781,349.7813 499.2813,349.7813 Q499.6094,349.7813 499.8594,350.0469 Q500.125,350.2969 500.125,350.6406 Q500.125,350.9844 499.7813,351.3906 Q499.2813,351.9688 498.4844,352.2969 Q497.4063,352.75 496.1094,352.75 Q494.5938,352.75 493.3906,352.125 Q492.4063,351.625 491.7188,350.5625 Q491.0313,349.4844 491.0313,348.2031 L491.0313,347.0469 Q491.0313,345.7188 491.6406,344.5781 Q492.2656,343.4219 493.3594,342.8125 Q494.4531,342.1875 495.6875,342.1875 Q496.4219,342.1875 497.0625,342.3594 Q497.7188,342.5156 498.2656,342.875 Z " fill="#000000"/><text fill="#000000" font-family="sans-serif" font-size="14" lengthAdjust="spacing" textLength="203.9092" x="509.5" y="352.7969">UPwUpdatedLagrangianElement</text><line style="stroke:#181818;stroke-width:0.5;" x1="481.5" x2="715.4092" y1="363" y2="363"/><line style="stroke:#181818;stroke-width:0.5;" x1="481.5" x2="715.4092" y1="371" y2="371"/></g><!--class UPwSmallStrainInterfaceElement--><g id="elem_UPwSmallStrainInterfaceElement"><rect codeLine="15" fill="#F1F1F1" height="48" id="UPwSmallStrainInterfaceElement" rx="2.5" ry="2.5" style="stroke:#181818;stroke-width:0.5;" width="238.9717" x="819" y="223"/><ellipse cx="834" cy="239" fill="#ADD1B2" rx="11" ry="11" style="stroke:#181818;stroke-width:1.0;"/><path d="M836.7656,234.875 Q836.9219,234.6563 837.1094,234.5469 Q837.2969,234.4375 837.5156,234.4375 Q837.8906,234.4375 838.125,234.7031 Q838.3594,234.9531 838.3594,235.5625 L838.3594,237.0156 Q838.3594,237.625 838.125,237.8906 Q837.8906,238.1563 837.5156,238.1563 Q837.1719,238.1563 836.9688,237.9531 Q836.7656,237.7656 836.6563,237.25 Q836.6094,236.8906 836.4219,236.7031 Q836.0938,236.3281 835.4844,236.1094 Q834.875,235.8906 834.25,235.8906 Q833.4844,235.8906 832.8438,236.2188 Q832.2188,236.5469 831.7188,237.2969 Q831.2344,238.0469 831.2344,239.0781 L831.2344,240.1719 Q831.2344,241.4063 832.125,242.2344 Q833.0156,243.0469 834.6094,243.0469 Q835.5469,243.0469 836.2031,242.7969 Q836.5938,242.6406 837.0156,242.2031 Q837.2813,241.9375 837.4219,241.8594 Q837.5781,241.7813 837.7813,241.7813 Q838.1094,241.7813 838.3594,242.0469 Q838.625,242.2969 838.625,242.6406 Q838.625,242.9844 838.2813,243.3906 Q837.7813,243.9688 836.9844,244.2969 Q835.9063,244.75 834.6094,244.75 Q833.0938,244.75 831.8906,244.125 Q830.9063,243.625 830.2188,242.5625 Q829.5313,241.4844 829.5313,240.2031 L829.5313,239.0469 Q829.5313,237.7188 830.1406,236.5781 Q830.7656,235.4219 831.8594,234.8125 Q832.9531,234.1875 834.1875,234.1875 Q834.9219,234.1875 835.5625,234.3594 Q836.2188,234.5156 836.7656,234.875 Z " fill="#000000"/><text fill="#000000" font-family="sans-serif" font-size="14" lengthAdjust="spacing" textLength="206.9717" x="848" y="244.7969">UPwSmallStrainInterfaceElement</text><line style="stroke:#181818;stroke-width:0.5;" x1="820" x2="1056.9717" y1="255" y2="255"/><line style="stroke:#181818;stroke-width:0.5;" x1="820" x2="1056.9717" y1="263" y2="263"/></g><!--class TransientPwInterfaceElement--><g id="elem_TransientPwInterfaceElement"><rect codeLine="16" fill="#F1F1F1" height="48" id="TransientPwInterfaceElement" rx="2.5" ry="2.5" style="stroke:#181818;stroke-width:0.5;" width="215.6406" x="751.5" y="331"/><ellipse cx="766.5" cy="347" fill="#ADD1B2" rx="11" ry="11" style="stroke:#181818;stroke-width:1.0;"/><path d="M769.2656,342.875 Q769.4219,342.6563 769.6094,342.5469 Q769.7969,342.4375 770.0156,342.4375 Q770.3906,342.4375 770.625,342.7031 Q770.8594,342.9531 770.8594,343.5625 L770.8594,345.0156 Q770.8594,345.625 770.625,345.8906 Q770.3906,346.1563 770.0156,346.1563 Q769.6719,346.1563 769.4688,345.9531 Q769.2656,345.7656 769.1563,345.25 Q769.1094,344.8906 768.9219,344.7031 Q768.5938,344.3281 767.9844,344.1094 Q767.375,343.8906 766.75,343.8906 Q765.9844,343.8906 765.3438,344.2188 Q764.7188,344.5469 764.2188,345.2969 Q763.7344,346.0469 763.7344,347.0781 L763.7344,348.1719 Q763.7344,349.4063 764.625,350.2344 Q765.5156,351.0469 767.1094,351.0469 Q768.0469,351.0469 768.7031,350.7969 Q769.0938,350.6406 769.5156,350.2031 Q769.7813,349.9375 769.9219,349.8594 Q770.0781,349.7813 770.2813,349.7813 Q770.6094,349.7813 770.8594,350.0469 Q771.125,350.2969 771.125,350.6406 Q771.125,350.9844 770.7813,351.3906 Q770.2813,351.9688 769.4844,352.2969 Q768.4063,352.75 767.1094,352.75 Q765.5938,352.75 764.3906,352.125 Q763.4063,351.625 762.7188,350.5625 Q762.0313,349.4844 762.0313,348.2031 L762.0313,347.0469 Q762.0313,345.7188 762.6406,344.5781 Q763.2656,343.4219 764.3594,342.8125 Q765.4531,342.1875 766.6875,342.1875 Q767.4219,342.1875 768.0625,342.3594 Q768.7188,342.5156 769.2656,342.875 Z " fill="#000000"/><text fill="#000000" font-family="sans-serif" font-size="14" lengthAdjust="spacing" textLength="183.6406" x="780.5" y="352.7969">TransientPwInterfaceElement</text><line style="stroke:#181818;stroke-width:0.5;" x1="752.5" x2="966.1406" y1="363" y2="363"/><line style="stroke:#181818;stroke-width:0.5;" x1="752.5" x2="966.1406" y1="371" y2="371"/></g><!--class SteadyStatePwInterfaceElement--><g id="elem_SteadyStatePwInterfaceElement"><rect codeLine="17" fill="#F1F1F1" height="48" id="SteadyStatePwInterfaceElement" rx="2.5" ry="2.5" style="stroke:#181818;stroke-width:0.5;" width="233.5576" x="742.5" y="439"/><ellipse cx="757.5" cy="455" fill="#ADD1B2" rx="11" ry="11" style="stroke:#181818;stroke-width:1.0;"/><path d="M760.2656,450.875 Q760.4219,450.6563 760.6094,450.5469 Q760.7969,450.4375 761.0156,450.4375 Q761.3906,450.4375 761.625,450.7031 Q761.8594,450.9531 761.8594,451.5625 L761.8594,453.0156 Q761.8594,453.625 761.625,453.8906 Q761.3906,454.1563 761.0156,454.1563 Q760.6719,454.1563 760.4688,453.9531 Q760.2656,453.7656 760.1563,453.25 Q760.1094,452.8906 759.9219,452.7031 Q759.5938,452.3281 758.9844,452.1094 Q758.375,451.8906 757.75,451.8906 Q756.9844,451.8906 756.3438,452.2188 Q755.7188,452.5469 755.2188,453.2969 Q754.7344,454.0469 754.7344,455.0781 L754.7344,456.1719 Q754.7344,457.4063 755.625,458.2344 Q756.5156,459.0469 758.1094,459.0469 Q759.0469,459.0469 759.7031,458.7969 Q760.0938,458.6406 760.5156,458.2031 Q760.7813,457.9375 760.9219,457.8594 Q761.0781,457.7813 761.2813,457.7813 Q761.6094,457.7813 761.8594,458.0469 Q762.125,458.2969 762.125,458.6406 Q762.125,458.9844 761.7813,459.3906 Q761.2813,459.9688 760.4844,460.2969 Q759.4063,460.75 758.1094,460.75 Q756.5938,460.75 755.3906,460.125 Q754.4063,459.625 753.7188,458.5625 Q753.0313,457.4844 753.0313,456.2031 L753.0313,455.0469 Q753.0313,453.7188 753.6406,452.5781 Q754.2656,451.4219 755.3594,450.8125 Q756.4531,450.1875 757.6875,450.1875 Q758.4219,450.1875 759.0625,450.3594 Q759.7188,450.5156 760.2656,450.875 Z " fill="#000000"/><text fill="#000000" font-family="sans-serif" font-size="14" lengthAdjust="spacing" textLength="201.5576" x="771.5" y="460.7969">SteadyStatePwInterfaceElement</text><line style="stroke:#181818;stroke-width:0.5;" x1="743.5" x2="975.0576" y1="471" y2="471"/><line style="stroke:#181818;stroke-width:0.5;" x1="743.5" x2="975.0576" y1="479" y2="479"/></g><!--class UPwSmallStrainLinkInterfaceElement--><g id="elem_UPwSmallStrainLinkInterfaceElement"><rect codeLine="18" fill="#F1F1F1" height="48" id="UPwSmallStrainLinkInterfaceElement" rx="2.5" ry="2.5" style="stroke:#181818;stroke-width:0.5;" width="264.6543" x="1003" y="331"/><ellipse cx="1018" cy="347" fill="#ADD1B2" rx="11" ry="11" style="stroke:#181818;stroke-width:1.0;"/><path d="M1020.7656,342.875 Q1020.9219,342.6563 1021.1094,342.5469 Q1021.2969,342.4375 1021.5156,342.4375 Q1021.8906,342.4375 1022.125,342.7031 Q1022.3594,342.9531 1022.3594,343.5625 L1022.3594,345.0156 Q1022.3594,345.625 1022.125,345.8906 Q1021.8906,346.1563 1021.5156,346.1563 Q1021.1719,346.1563 1020.9688,345.9531 Q1020.7656,345.7656 1020.6563,345.25 Q1020.6094,344.8906 1020.4219,344.7031 Q1020.0938,344.3281 1019.4844,344.1094 Q1018.875,343.8906 1018.25,343.8906 Q1017.4844,343.8906 1016.8438,344.2188 Q1016.2188,344.5469 1015.7188,345.2969 Q1015.2344,346.0469 1015.2344,347.0781 L1015.2344,348.1719 Q1015.2344,349.4063 1016.125,350.2344 Q1017.0156,351.0469 1018.6094,351.0469 Q1019.5469,351.0469 1020.2031,350.7969 Q1020.5938,350.6406 1021.0156,350.2031 Q1021.2813,349.9375 1021.4219,349.8594 Q1021.5781,349.7813 1021.7813,349.7813 Q1022.1094,349.7813 1022.3594,350.0469 Q1022.625,350.2969 1022.625,350.6406 Q1022.625,350.9844 1022.2813,351.3906 Q1021.7813,351.9688 1020.9844,352.2969 Q1019.9063,352.75 1018.6094,352.75 Q1017.0938,352.75 1015.8906,352.125 Q1014.9063,351.625 1014.2188,350.5625 Q1013.5313,349.4844 1013.5313,348.2031 L1013.5313,347.0469 Q1013.5313,345.7188 1014.1406,344.5781 Q1014.7656,343.4219 1015.8594,342.8125 Q1016.9531,342.1875 1018.1875,342.1875 Q1018.9219,342.1875 1019.5625,342.3594 Q1020.2188,342.5156 1020.7656,342.875 Z " fill="#000000"/><text fill="#000000" font-family="sans-serif" font-size="14" lengthAdjust="spacing" textLength="232.6543" x="1032" y="352.7969">UPwSmallStrainLinkInterfaceElement</text><line style="stroke:#181818;stroke-width:0.5;" x1="1004" x2="1266.6543" y1="363" y2="363"/><line style="stroke:#181818;stroke-width:0.5;" x1="1004" x2="1266.6543" y1="371" y2="371"/></g><!--class SmallStrainUPwDiffOrderElement--><g id="elem_SmallStrainUPwDiffOrderElement"><rect codeLine="32" fill="#F1F1F1" height="48" id="SmallStrainUPwDiffOrderElement" rx="2.5" ry="2.5" style="stroke:#181818;stroke-width:0.5;" width="241.2822" x="1172" y="223"/><ellipse cx="1187" cy="239" fill="#ADD1B2" rx="11" ry="11" style="stroke:#181818;stroke-width:1.0;"/><path d="M1189.7656,234.875 Q1189.9219,234.6563 1190.1094,234.5469 Q1190.2969,234.4375 1190.5156,234.4375 Q1190.8906,234.4375 1191.125,234.7031 Q1191.3594,234.9531 1191.3594,235.5625 L1191.3594,237.0156 Q1191.3594,237.625 1191.125,237.8906 Q1190.8906,238.1563 1190.5156,238.1563 Q1190.1719,238.1563 1189.9688,237.9531 Q1189.7656,237.7656 1189.6563,237.25 Q1189.6094,236.8906 1189.4219,236.7031 Q1189.0938,236.3281 1188.4844,236.1094 Q1187.875,235.8906 1187.25,235.8906 Q1186.4844,235.8906 1185.8438,236.2188 Q1185.2188,236.5469 1184.7188,237.2969 Q1184.2344,238.0469 1184.2344,239.0781 L1184.2344,240.1719 Q1184.2344,241.4063 1185.125,242.2344 Q1186.0156,243.0469 1187.6094,243.0469 Q1188.5469,243.0469 1189.2031,242.7969 Q1189.5938,242.6406 1190.0156,242.2031 Q1190.2813,241.9375 1190.4219,241.8594 Q1190.5781,241.7813 1190.7813,241.7813 Q1191.1094,241.7813 1191.3594,242.0469 Q1191.625,242.2969 1191.625,242.6406 Q1191.625,242.9844 1191.2813,243.3906 Q1190.7813,243.9688 1189.9844,244.2969 Q1188.9063,244.75 1187.6094,244.75 Q1186.0938,244.75 1184.8906,244.125 Q1183.9063,243.625 1183.2188,242.5625 Q1182.5313,241.4844 1182.5313,240.2031 L1182.5313,239.0469 Q1182.5313,237.7188 1183.1406,236.5781 Q1183.7656,235.4219 1184.8594,234.8125 Q1185.9531,234.1875 1187.1875,234.1875 Q1187.9219,234.1875 1188.5625,234.3594 Q1189.2188,234.5156 1189.7656,234.875 Z " fill="#000000"/><text fill="#000000" font-family="sans-serif" font-size="14" lengthAdjust="spacing" textLength="209.2822" x="1201" y="244.7969">SmallStrainUPwDiffOrderElement</text><line style="stroke:#181818;stroke-width:0.5;" x1="1173" x2="1412.2822" y1="255" y2="255"/><line style="stroke:#181818;stroke-width:0.5;" x1="1173" x2="1412.2822" y1="263" y2="263"/></g><!--class UpdatedLagrangianUPwDiffOrderElement--><g id="elem_UpdatedLagrangianUPwDiffOrderElement"><rect codeLine="33" fill="#F1F1F1" height="48" id="UpdatedLagrangianUPwDiffOrderElement" rx="2.5" ry="2.5" style="stroke:#181818;stroke-width:0.5;" width="292.6953" x="1303" y="331"/><ellipse cx="1318" cy="347" fill="#ADD1B2" rx="11" ry="11" style="stroke:#181818;stroke-width:1.0;"/><path d="M1320.7656,342.875 Q1320.9219,342.6563 1321.1094,342.5469 Q1321.2969,342.4375 1321.5156,342.4375 Q1321.8906,342.4375 1322.125,342.7031 Q1322.3594,342.9531 1322.3594,343.5625 L1322.3594,345.0156 Q1322.3594,345.625 1322.125,345.8906 Q1321.8906,346.1563 1321.5156,346.1563 Q1321.1719,346.1563 1320.9688,345.9531 Q1320.7656,345.7656 1320.6563,345.25 Q1320.6094,344.8906 1320.4219,344.7031 Q1320.0938,344.3281 1319.4844,344.1094 Q1318.875,343.8906 1318.25,343.8906 Q1317.4844,343.8906 1316.8438,344.2188 Q1316.2188,344.5469 1315.7188,345.2969 Q1315.2344,346.0469 1315.2344,347.0781 L1315.2344,348.1719 Q1315.2344,349.4063 1316.125,350.2344 Q1317.0156,351.0469 1318.6094,351.0469 Q1319.5469,351.0469 1320.2031,350.7969 Q1320.5938,350.6406 1321.0156,350.2031 Q1321.2813,349.9375 1321.4219,349.8594 Q1321.5781,349.7813 1321.7813,349.7813 Q1322.1094,349.7813 1322.3594,350.0469 Q1322.625,350.2969 1322.625,350.6406 Q1322.625,350.9844 1322.2813,351.3906 Q1321.7813,351.9688 1320.9844,352.2969 Q1319.9063,352.75 1318.6094,352.75 Q1317.0938,352.75 1315.8906,352.125 Q1314.9063,351.625 1314.2188,350.5625 Q1313.5313,349.4844 1313.5313,348.2031 L1313.5313,347.0469 Q1313.5313,345.7188 1314.1406,344.5781 Q1314.7656,343.4219 1315.8594,342.8125 Q1316.9531,342.1875 1318.1875,342.1875 Q1318.9219,342.1875 1319.5625,342.3594 Q1320.2188,342.5156 1320.7656,342.875 Z " fill="#000000"/><text fill="#000000" font-family="sans-serif" font-size="14" lengthAdjust="spacing" textLength="260.6953" x="1332" y="352.7969">UpdatedLagrangianUPwDiffOrderElement</text><line style="stroke:#181818;stroke-width:0.5;" x1="1304" x2="1594.6953" y1="363" y2="363"/><line style="stroke:#181818;stroke-width:0.5;" x1="1304" x2="1594.6953" y1="371" y2="371"/></g><!--class InterfaceElement--><g id="elem_InterfaceElement"><rect codeLine="43" fill="#F1F1F1" height="48" id="InterfaceElement" rx="2.5" ry="2.5" style="stroke:#181818;stroke-width:0.5;" width="137.834" x="1046.5" y="115"/><ellipse cx="1061.5" cy="131" fill="#ADD1B2" rx="11" ry="11" style="stroke:#181818;stroke-width:1.0;"/><path d="M1064.2656,126.875 Q1064.4219,126.6563 1064.6094,126.5469 Q1064.7969,126.4375 1065.0156,126.4375 Q1065.3906,126.4375 1065.625,126.7031 Q1065.8594,126.9531 1065.8594,127.5625 L1065.8594,129.0156 Q1065.8594,129.625 1065.625,129.8906 Q1065.3906,130.1563 1065.0156,130.1563 Q1064.6719,130.1563 1064.4688,129.9531 Q1064.2656,129.7656 1064.1563,129.25 Q1064.1094,128.8906 1063.9219,128.7031 Q1063.5938,128.3281 1062.9844,128.1094 Q1062.375,127.8906 1061.75,127.8906 Q1060.9844,127.8906 1060.3438,128.2188 Q1059.7188,128.5469 1059.2188,129.2969 Q1058.7344,130.0469 1058.7344,131.0781 L1058.7344,132.1719 Q1058.7344,133.4063 1059.625,134.2344 Q1060.5156,135.0469 1062.1094,135.0469 Q1063.0469,135.0469 1063.7031,134.7969 Q1064.0938,134.6406 1064.5156,134.2031 Q1064.7813,133.9375 1064.9219,133.8594 Q1065.0781,133.7813 1065.2813,133.7813 Q1065.6094,133.7813 1065.8594,134.0469 Q1066.125,134.2969 1066.125,134.6406 Q1066.125,134.9844 1065.7813,135.3906 Q1065.2813,135.9688 1064.4844,136.2969 Q1063.4063,136.75 1062.1094,136.75 Q1060.5938,136.75 1059.3906,136.125 Q1058.4063,135.625 1057.7188,134.5625 Q1057.0313,133.4844 1057.0313,132.2031 L1057.0313,131.0469 Q1057.0313,129.7188 1057.6406,128.5781 Q1058.2656,127.4219 1059.3594,126.8125 Q1060.4531,126.1875 1061.6875,126.1875 Q1062.4219,126.1875 1063.0625,126.3594 Q1063.7188,126.5156 1064.2656,126.875 Z " fill="#000000"/><text fill="#000000" font-family="sans-serif" font-size="14" lengthAdjust="spacing" textLength="105.834" x="1075.5" y="136.7969">InterfaceElement</text><line style="stroke:#181818;stroke-width:0.5;" x1="1047.5" x2="1183.334" y1="147" y2="147"/><line style="stroke:#181818;stroke-width:0.5;" x1="1047.5" x2="1183.334" y1="155" y2="155"/></g><!--class TransientPwLineElement--><g id="elem_TransientPwLineElement"><rect codeLine="47" fill="#F1F1F1" height="48" id="TransientPwLineElement" rx="2.5" ry="2.5" style="stroke:#181818;stroke-width:0.5;" width="187.6338" x="1219.5" y="115"/><ellipse cx="1234.5" cy="131" fill="#ADD1B2" rx="11" ry="11" style="stroke:#181818;stroke-width:1.0;"/><path d="M1237.2656,126.875 Q1237.4219,126.6563 1237.6094,126.5469 Q1237.7969,126.4375 1238.0156,126.4375 Q1238.3906,126.4375 1238.625,126.7031 Q1238.8594,126.9531 1238.8594,127.5625 L1238.8594,129.0156 Q1238.8594,129.625 1238.625,129.8906 Q1238.3906,130.1563 1238.0156,130.1563 Q1237.6719,130.1563 1237.4688,129.9531 Q1237.2656,129.7656 1237.1563,129.25 Q1237.1094,128.8906 1236.9219,128.7031 Q1236.5938,128.3281 1235.9844,128.1094 Q1235.375,127.8906 1234.75,127.8906 Q1233.9844,127.8906 1233.3438,128.2188 Q1232.7188,128.5469 1232.2188,129.2969 Q1231.7344,130.0469 1231.7344,131.0781 L1231.7344,132.1719 Q1231.7344,133.4063 1232.625,134.2344 Q1233.5156,135.0469 1235.1094,135.0469 Q1236.0469,135.0469 1236.7031,134.7969 Q1237.0938,134.6406 1237.5156,134.2031 Q1237.7813,133.9375 1237.9219,133.8594 Q1238.0781,133.7813 1238.2813,133.7813 Q1238.6094,133.7813 1238.8594,134.0469 Q1239.125,134.2969 1239.125,134.6406 Q1239.125,134.9844 1238.7813,135.3906 Q1238.2813,135.9688 1237.4844,136.2969 Q1236.4063,136.75 1235.1094,136.75 Q1233.5938,136.75 1232.3906,136.125 Q1231.4063,135.625 1230.7188,134.5625 Q1230.0313,133.4844 1230.0313,132.2031 L1230.0313,131.0469 Q1230.0313,129.7188 1230.6406,128.5781 Q1231.2656,127.4219 1232.3594,126.8125 Q1233.4531,126.1875 1234.6875,126.1875 Q1235.4219,126.1875 1236.0625,126.3594 Q1236.7188,126.5156 1237.2656,126.875 Z " fill="#000000"/><text fill="#000000" font-family="sans-serif" font-size="14" lengthAdjust="spacing" textLength="155.6338" x="1248.5" y="136.7969">TransientPwLineElement</text><line style="stroke:#181818;stroke-width:0.5;" x1="1220.5" x2="1406.1338" y1="147" y2="147"/><line style="stroke:#181818;stroke-width:0.5;" x1="1220.5" x2="1406.1338" y1="155" y2="155"/></g><!--class GeoSteadyStatePwPipingElement--><g id="elem_GeoSteadyStatePwPipingElement"><rect codeLine="48" fill="#F1F1F1" height="48" id="GeoSteadyStatePwPipingElement" rx="2.5" ry="2.5" style="stroke:#181818;stroke-width:0.5;" width="244.4609" x="1442.5" y="115"/><ellipse cx="1457.5" cy="131" fill="#ADD1B2" rx="11" ry="11" style="stroke:#181818;stroke-width:1.0;"/><path d="M1460.2656,126.875 Q1460.4219,126.6563 1460.6094,126.5469 Q1460.7969,126.4375 1461.0156,126.4375 Q1461.3906,126.4375 1461.625,126.7031 Q1461.8594,126.9531 1461.8594,127.5625 L1461.8594,129.0156 Q1461.8594,129.625 1461.625,129.8906 Q1461.3906,130.1563 1461.0156,130.1563 Q1460.6719,130.1563 1460.4688,129.9531 Q1460.2656,129.7656 1460.1563,129.25 Q1460.1094,128.8906 1459.9219,128.7031 Q1459.5938,128.3281 1458.9844,128.1094 Q1458.375,127.8906 1457.75,127.8906 Q1456.9844,127.8906 1456.3438,128.2188 Q1455.7188,128.5469 1455.2188,129.2969 Q1454.7344,130.0469 1454.7344,131.0781 L1454.7344,132.1719 Q1454.7344,133.4063 1455.625,134.2344 Q1456.5156,135.0469 1458.1094,135.0469 Q1459.0469,135.0469 1459.7031,134.7969 Q1460.0938,134.6406 1460.5156,134.2031 Q1460.7813,133.9375 1460.9219,133.8594 Q1461.0781,133.7813 1461.2813,133.7813 Q1461.6094,133.7813 1461.8594,134.0469 Q1462.125,134.2969 1462.125,134.6406 Q1462.125,134.9844 1461.7813,135.3906 Q1461.2813,135.9688 1460.4844,136.2969 Q1459.4063,136.75 1458.1094,136.75 Q1456.5938,136.75 1455.3906,136.125 Q1454.4063,135.625 1453.7188,134.5625 Q1453.0313,133.4844 1453.0313,132.2031 L1453.0313,131.0469 Q1453.0313,129.7188 1453.6406,128.5781 Q1454.2656,127.4219 1455.3594,126.8125 Q1456.4531,126.1875 1457.6875,126.1875 Q1458.4219,126.1875 1459.0625,126.3594 Q1459.7188,126.5156 1460.2656,126.875 Z " fill="#000000"/><text fill="#000000" font-family="sans-serif" font-size="14" lengthAdjust="spacing" textLength="212.4609" x="1471.5" y="136.7969">GeoSteadyStatePwPipingElement</text><line style="stroke:#181818;stroke-width:0.5;" x1="1443.5" x2="1685.9609" y1="147" y2="147"/><line style="stroke:#181818;stroke-width:0.5;" x1="1443.5" x2="1685.9609" y1="155" y2="155"/></g><!--class TransientThermalElement--><g id="elem_TransientThermalElement"><rect codeLine="54" fill="#F1F1F1" height="48" id="TransientThermalElement" rx="2.5" ry="2.5" style="stroke:#181818;stroke-width:0.5;" width="193.0615" x="1722" y="115"/><ellipse cx="1737" cy="131" fill="#ADD1B2" rx="11" ry="11" style="stroke:#181818;stroke-width:1.0;"/><path d="M1739.7656,126.875 Q1739.9219,126.6563 1740.1094,126.5469 Q1740.2969,126.4375 1740.5156,126.4375 Q1740.8906,126.4375 1741.125,126.7031 Q1741.3594,126.9531 1741.3594,127.5625 L1741.3594,129.0156 Q1741.3594,129.625 1741.125,129.8906 Q1740.8906,130.1563 1740.5156,130.1563 Q1740.1719,130.1563 1739.9688,129.9531 Q1739.7656,129.7656 1739.6563,129.25 Q1739.6094,128.8906 1739.4219,128.7031 Q1739.0938,128.3281 1738.4844,128.1094 Q1737.875,127.8906 1737.25,127.8906 Q1736.4844,127.8906 1735.8438,128.2188 Q1735.2188,128.5469 1734.7188,129.2969 Q1734.2344,130.0469 1734.2344,131.0781 L1734.2344,132.1719 Q1734.2344,133.4063 1735.125,134.2344 Q1736.0156,135.0469 1737.6094,135.0469 Q1738.5469,135.0469 1739.2031,134.7969 Q1739.5938,134.6406 1740.0156,134.2031 Q1740.2813,133.9375 1740.4219,133.8594 Q1740.5781,133.7813 1740.7813,133.7813 Q1741.1094,133.7813 1741.3594,134.0469 Q1741.625,134.2969 1741.625,134.6406 Q1741.625,134.9844 1741.2813,135.3906 Q1740.7813,135.9688 1739.9844,136.2969 Q1738.9063,136.75 1737.6094,136.75 Q1736.0938,136.75 1734.8906,136.125 Q1733.9063,135.625 1733.2188,134.5625 Q1732.5313,133.4844 1732.5313,132.2031 L1732.5313,131.0469 Q1732.5313,129.7188 1733.1406,128.5781 Q1733.7656,127.4219 1734.8594,126.8125 Q1735.9531,126.1875 1737.1875,126.1875 Q1737.9219,126.1875 1738.5625,126.3594 Q1739.2188,126.5156 1739.7656,126.875 Z " fill="#000000"/><text fill="#000000" font-family="sans-serif" font-size="14" lengthAdjust="spacing" textLength="161.0615" x="1751" y="136.7969">TransientThermalElement</text><line style="stroke:#181818;stroke-width:0.5;" x1="1723" x2="1914.0615" y1="147" y2="147"/><line style="stroke:#181818;stroke-width:0.5;" x1="1723" x2="1914.0615" y1="155" y2="155"/></g><!--class CrBeamElement2D2N_Structural--><g id="elem_CrBeamElement2D2N_Structural"><rect codeLine="59" fill="#F1F1F1" height="48" id="CrBeamElement2D2N_Structural" rx="2.5" ry="2.5" style="stroke:#181818;stroke-width:0.5;" width="238.1924" x="1950.5" y="115"/><ellipse cx="1965.5" cy="131" fill="#ADD1B2" rx="11" ry="11" style="stroke:#181818;stroke-width:1.0;"/><path d="M1968.2656,126.875 Q1968.4219,126.6563 1968.6094,126.5469 Q1968.7969,126.4375 1969.0156,126.4375 Q1969.3906,126.4375 1969.625,126.7031 Q1969.8594,126.9531 1969.8594,127.5625 L1969.8594,129.0156 Q1969.8594,129.625 1969.625,129.8906 Q1969.3906,130.1563 1969.0156,130.1563 Q1968.6719,130.1563 1968.4688,129.9531 Q1968.2656,129.7656 1968.1563,129.25 Q1968.1094,128.8906 1967.9219,128.7031 Q1967.5938,128.3281 1966.9844,128.1094 Q1966.375,127.8906 1965.75,127.8906 Q1964.9844,127.8906 1964.3438,128.2188 Q1963.7188,128.5469 1963.2188,129.2969 Q1962.7344,130.0469 1962.7344,131.0781 L1962.7344,132.1719 Q1962.7344,133.4063 1963.625,134.2344 Q1964.5156,135.0469 1966.1094,135.0469 Q1967.0469,135.0469 1967.7031,134.7969 Q1968.0938,134.6406 1968.5156,134.2031 Q1968.7813,133.9375 1968.9219,133.8594 Q1969.0781,133.7813 1969.2813,133.7813 Q1969.6094,133.7813 1969.8594,134.0469 Q1970.125,134.2969 1970.125,134.6406 Q1970.125,134.9844 1969.7813,135.3906 Q1969.2813,135.9688 1968.4844,136.2969 Q1967.4063,136.75 1966.1094,136.75 Q1964.5938,136.75 1963.3906,136.125 Q1962.4063,135.625 1961.7188,134.5625 Q1961.0313,133.4844 1961.0313,132.2031 L1961.0313,131.0469 Q1961.0313,129.7188 1961.6406,128.5781 Q1962.2656,127.4219 1963.3594,126.8125 Q1964.4531,126.1875 1965.6875,126.1875 Q1966.4219,126.1875 1967.0625,126.3594 Q1967.7188,126.5156 1968.2656,126.875 Z " fill="#000000"/><text fill="#000000" font-family="sans-serif" font-size="14" lengthAdjust="spacing" textLength="206.1924" x="1979.5" y="136.7969">CrBeamElement2D2N_Structural</text><line style="stroke:#181818;stroke-width:0.5;" x1="1951.5" x2="2187.6924" y1="147" y2="147"/><line style="stroke:#181818;stroke-width:0.5;" x1="1951.5" x2="2187.6924" y1="155" y2="155"/></g><!--class CrBeamElementLinear2D2N_Structural--><g id="elem_CrBeamElementLinear2D2N_Structural"><rect codeLine="60" fill="#F1F1F1" height="48" id="CrBeamElementLinear2D2N_Structural" rx="2.5" ry="2.5" style="stroke:#181818;stroke-width:0.5;" width="277.1094" x="1931" y="223"/><ellipse cx="1946" cy="239" fill="#ADD1B2" rx="11" ry="11" style="stroke:#181818;stroke-width:1.0;"/><path d="M1948.7656,234.875 Q1948.9219,234.6563 1949.1094,234.5469 Q1949.2969,234.4375 1949.5156,234.4375 Q1949.8906,234.4375 1950.125,234.7031 Q1950.3594,234.9531 1950.3594,235.5625 L1950.3594,237.0156 Q1950.3594,237.625 1950.125,237.8906 Q1949.8906,238.1563 1949.5156,238.1563 Q1949.1719,238.1563 1948.9688,237.9531 Q1948.7656,237.7656 1948.6563,237.25 Q1948.6094,236.8906 1948.4219,236.7031 Q1948.0938,236.3281 1947.4844,236.1094 Q1946.875,235.8906 1946.25,235.8906 Q1945.4844,235.8906 1944.8438,236.2188 Q1944.2188,236.5469 1943.7188,237.2969 Q1943.2344,238.0469 1943.2344,239.0781 L1943.2344,240.1719 Q1943.2344,241.4063 1944.125,242.2344 Q1945.0156,243.0469 1946.6094,243.0469 Q1947.5469,243.0469 1948.2031,242.7969 Q1948.5938,242.6406 1949.0156,242.2031 Q1949.2813,241.9375 1949.4219,241.8594 Q1949.5781,241.7813 1949.7813,241.7813 Q1950.1094,241.7813 1950.3594,242.0469 Q1950.625,242.2969 1950.625,242.6406 Q1950.625,242.9844 1950.2813,243.3906 Q1949.7813,243.9688 1948.9844,244.2969 Q1947.9063,244.75 1946.6094,244.75 Q1945.0938,244.75 1943.8906,244.125 Q1942.9063,243.625 1942.2188,242.5625 Q1941.5313,241.4844 1941.5313,240.2031 L1941.5313,239.0469 Q1941.5313,237.7188 1942.1406,236.5781 Q1942.7656,235.4219 1943.8594,234.8125 Q1944.9531,234.1875 1946.1875,234.1875 Q1946.9219,234.1875 1947.5625,234.3594 Q1948.2188,234.5156 1948.7656,234.875 Z " fill="#000000"/><text fill="#000000" font-family="sans-serif" font-size="14" lengthAdjust="spacing" textLength="245.1094" x="1960" y="244.7969">CrBeamElementLinear2D2N_Structural</text><line style="stroke:#181818;stroke-width:0.5;" x1="1932" x2="2207.1094" y1="255" y2="255"/><line style="stroke:#181818;stroke-width:0.5;" x1="1932" x2="2207.1094" y1="263" y2="263"/></g><!--class GeoCrBeamElementLinear2D2N--><g id="elem_GeoCrBeamElementLinear2D2N"><rect codeLine="61" fill="#F1F1F1" height="48" id="GeoCrBeamElementLinear2D2N" rx="2.5" ry="2.5" style="stroke:#181818;stroke-width:0.5;" width="235.875" x="1951.5" y="331"/><ellipse cx="1966.5" cy="347" fill="#ADD1B2" rx="11" ry="11" style="stroke:#181818;stroke-width:1.0;"/><path d="M1969.2656,342.875 Q1969.4219,342.6563 1969.6094,342.5469 Q1969.7969,342.4375 1970.0156,342.4375 Q1970.3906,342.4375 1970.625,342.7031 Q1970.8594,342.9531 1970.8594,343.5625 L1970.8594,345.0156 Q1970.8594,345.625 1970.625,345.8906 Q1970.3906,346.1563 1970.0156,346.1563 Q1969.6719,346.1563 1969.4688,345.9531 Q1969.2656,345.7656 1969.1563,345.25 Q1969.1094,344.8906 1968.9219,344.7031 Q1968.5938,344.3281 1967.9844,344.1094 Q1967.375,343.8906 1966.75,343.8906 Q1965.9844,343.8906 1965.3438,344.2188 Q1964.7188,344.5469 1964.2188,345.2969 Q1963.7344,346.0469 1963.7344,347.0781 L1963.7344,348.1719 Q1963.7344,349.4063 1964.625,350.2344 Q1965.5156,351.0469 1967.1094,351.0469 Q1968.0469,351.0469 1968.7031,350.7969 Q1969.0938,350.6406 1969.5156,350.2031 Q1969.7813,349.9375 1969.9219,349.8594 Q1970.0781,349.7813 1970.2813,349.7813 Q1970.6094,349.7813 1970.8594,350.0469 Q1971.125,350.2969 1971.125,350.6406 Q1971.125,350.9844 1970.7813,351.3906 Q1970.2813,351.9688 1969.4844,352.2969 Q1968.4063,352.75 1967.1094,352.75 Q1965.5938,352.75 1964.3906,352.125 Q1963.4063,351.625 1962.7188,350.5625 Q1962.0313,349.4844 1962.0313,348.2031 L1962.0313,347.0469 Q1962.0313,345.7188 1962.6406,344.5781 Q1963.2656,343.4219 1964.3594,342.8125 Q1965.4531,342.1875 1966.6875,342.1875 Q1967.4219,342.1875 1968.0625,342.3594 Q1968.7188,342.5156 1969.2656,342.875 Z " fill="#000000"/><text fill="#000000" font-family="sans-serif" font-size="14" lengthAdjust="spacing" textLength="203.875" x="1980.5" y="352.7969">GeoCrBeamElementLinear2D2N</text><line style="stroke:#181818;stroke-width:0.5;" x1="1952.5" x2="2186.375" y1="363" y2="363"/><line style="stroke:#181818;stroke-width:0.5;" x1="1952.5" x2="2186.375" y1="371" y2="371"/></g><!--reverse link Element to UPwBaseElement--><g id="link_Element_UPwBaseElement"><path codeLine="20" d="M1379.0477,43.0442 C1304.7377,56.9642 1162.48,84.34 1028.5,115 C1022.84,116.3 1016.99,117.68 1011.12,119.11 " fill="none" id="Element-backto-UPwBaseElement" style="stroke:#181818;stroke-width:1.0;"/><polygon fill="none" points="1396.74,39.73,1377.943,37.1468,1380.1525,48.9416,1396.74,39.73" style="stroke:#181818;stroke-width:1.0;"/></g><!--reverse link UPwBaseElement to UPwSmallStrainElement--><g id="link_UPwBaseElement_UPwSmallStrainElement"><path codeLine="21" d="M848.3345,160.4255 C766.6845,178.9155 651.49,205.01 562.61,225.14 " fill="none" id="UPwBaseElement-backto-UPwSmallStrainElement" style="stroke:#181818;stroke-width:1.0;"/><polygon fill="none" points="865.89,156.45,847.0093,154.5737,849.6597,166.2773,865.89,156.45" style="stroke:#181818;stroke-width:1.0;"/></g><!--reverse link UPwSmallStrainElement to TransientPwElement--><g id="link_UPwSmallStrainElement_TransientPwElement"><path codeLine="23" d="M375.7846,276.1235 C316.0046,293.8735 250.94,313.19 191.12,330.95 " fill="none" id="UPwSmallStrainElement-backto-TransientPwElement" style="stroke:#181818;stroke-width:1.0;"/><polygon fill="none" points="393.04,271,374.0767,270.3717,377.4924,281.8753,393.04,271" style="stroke:#181818;stroke-width:1.0;"/></g><!--reverse link TransientPwElement to SteadyStatePwElement--><g id="link_TransientPwElement_SteadyStatePwElement"><path codeLine="24" d="M106.9619,396.7732 C104.1319,414.4332 103.08,420.94 100.24,438.68 " fill="none" id="TransientPwElement-backto-SteadyStatePwElement" style="stroke:#181818;stroke-width:1.0;"/><polygon fill="none" points="109.81,379,101.0374,395.8239,112.8863,397.7226,109.81,379" style="stroke:#181818;stroke-width:1.0;"/></g><!--reverse link UPwSmallStrainElement to UPwSmallStrainFICElement--><g id="link_UPwSmallStrainElement_UPwSmallStrainFICElement"><path codeLine="25" d="M428.6033,282.4282 C407.1133,300.0882 391.47,312.94 369.88,330.68 " fill="none" id="UPwSmallStrainElement-backto-UPwSmallStrainFICElement" style="stroke:#181818;stroke-width:1.0;"/><polygon fill="none" points="442.51,271,424.7939,277.7926,432.4127,287.0638,442.51,271" style="stroke:#181818;stroke-width:1.0;"/></g><!--reverse link UPwSmallStrainFICElement to UPwUpdatedLagrangianFICElement--><g id="link_UPwSmallStrainFICElement_UPwUpdatedLagrangianFICElement"><path codeLine="26" d="M344.9734,396.9354 C346.4734,414.5954 347.01,420.94 348.52,438.68 " fill="none" id="UPwSmallStrainFICElement-backto-UPwUpdatedLagrangianFICElement" style="stroke:#181818;stroke-width:1.0;"/><polygon fill="none" points="343.45,379,338.9949,397.4432,350.9519,396.4276,343.45,379" style="stroke:#181818;stroke-width:1.0;"/></g><!--reverse link UPwSmallStrainElement to UPwUpdatedLagrangianElement--><g id="link_UPwSmallStrainElement_UPwUpdatedLagrangianElement"><path codeLine="27" d="M512.1347,282.4791 C533.4647,300.1391 548.92,312.94 570.34,330.68 " fill="none" id="UPwSmallStrainElement-backto-UPwUpdatedLagrangianElement" style="stroke:#181818;stroke-width:1.0;"/><polygon fill="none" points="498.27,271,508.3083,287.1007,515.9611,277.8576,498.27,271" style="stroke:#181818;stroke-width:1.0;"/></g><!--reverse link UPwBaseElement to SmallStrainUPwDiffOrderElement--><g id="link_UPwBaseElement_SmallStrainUPwDiffOrderElement"><path codeLine="35" d="M1028.6635,166.9935 C1088.1735,184.8135 1154.77,204.76 1215.39,222.91 " fill="none" id="UPwBaseElement-backto-SmallStrainUPwDiffOrderElement" style="stroke:#181818;stroke-width:1.0;"/><polygon fill="none" points="1011.42,161.83,1026.9423,172.7413,1030.3847,161.2457,1011.42,161.83" style="stroke:#181818;stroke-width:1.0;"/></g><!--reverse link SmallStrainUPwDiffOrderElement to UpdatedLagrangianUPwDiffOrderElement--><g id="link_SmallStrainUPwDiffOrderElement_UpdatedLagrangianUPwDiffOrderElement"><path codeLine="36" d="M1341.4872,281.0736 C1367.7272,298.7936 1388.93,313.11 1415.23,330.86 " fill="none" id="SmallStrainUPwDiffOrderElement-backto-UpdatedLagrangianUPwDiffOrderElement" style="stroke:#181818;stroke-width:1.0;"/><polygon fill="none" points="1326.57,271,1338.1293,286.046,1344.845,276.1012,1326.57,271" style="stroke:#181818;stroke-width:1.0;"/></g><!--reverse link UPwBaseElement to UPwSmallStrainInterfaceElement--><g id="link_UPwBaseElement_UPwSmallStrainInterfaceElement"><path codeLine="38" d="M938.5,181 C938.5,198.66 938.5,204.94 938.5,222.68 " fill="none" id="UPwBaseElement-backto-UPwSmallStrainInterfaceElement" style="stroke:#181818;stroke-width:1.0;"/><polygon fill="none" points="938.5,163,932.5,181,944.5,181,938.5,163" style="stroke:#181818;stroke-width:1.0;"/></g><!--reverse link UPwSmallStrainInterfaceElement to TransientPwInterfaceElement--><g id="link_UPwSmallStrainInterfaceElement_TransientPwInterfaceElement"><path codeLine="39" d="M910.6045,285.4333 C897.4445,303.0933 890.1,312.94 876.88,330.68 " fill="none" id="UPwSmallStrainInterfaceElement-backto-TransientPwInterfaceElement" style="stroke:#181818;stroke-width:1.0;"/><polygon fill="none" points="921.36,271,905.7934,281.8481,915.4156,289.0184,921.36,271" style="stroke:#181818;stroke-width:1.0;"/></g><!--reverse link TransientPwInterfaceElement to SteadyStatePwInterfaceElement--><g id="link_TransientPwInterfaceElement_SteadyStatePwInterfaceElement"><path codeLine="40" d="M859.5,397 C859.5,414.66 859.5,420.94 859.5,438.68 " fill="none" id="TransientPwInterfaceElement-backto-SteadyStatePwInterfaceElement" style="stroke:#181818;stroke-width:1.0;"/><polygon fill="none" points="859.5,379,853.5,397,865.5,397,859.5,379" style="stroke:#181818;stroke-width:1.0;"/></g><!--reverse link UPwSmallStrainInterfaceElement to UPwSmallStrainLinkInterfaceElement--><g id="link_UPwSmallStrainInterfaceElement_UPwSmallStrainLinkInterfaceElement"><path codeLine="41" d="M997.1008,279.5295 C1030.0308,297.2495 1059.5,313.11 1092.5,330.86 " fill="none" id="UPwSmallStrainInterfaceElement-backto-UPwSmallStrainLinkInterfaceElement" style="stroke:#181818;stroke-width:1.0;"/><polygon fill="none" points="981.25,271,994.2576,284.8131,999.944,274.2459,981.25,271" style="stroke:#181818;stroke-width:1.0;"/></g><!--reverse link Element to InterfaceElement--><g id="link_Element_InterfaceElement"><path codeLine="44" d="M1379.8271,51.2517 C1326.1571,68.8617 1249.11,94.15 1184.59,115.32 " fill="none" id="Element-backto-InterfaceElement" style="stroke:#181818;stroke-width:1.0;"/><polygon fill="none" points="1396.93,45.64,1377.9565,45.5508,1381.6977,56.9527,1396.93,45.64" style="stroke:#181818;stroke-width:1.0;"/></g><!--reverse link Element to TransientPwLineElement--><g id="link_Element_TransientPwLineElement"><path codeLine="50" d="M1397.6503,66.6403 C1376.8203,84.3003 1361.92,96.94 1341,114.68 " fill="none" id="Element-backto-TransientPwLineElement" style="stroke:#181818;stroke-width:1.0;"/><polygon fill="none" points="1411.38,55,1393.7702,62.0637,1401.5304,71.2168,1411.38,55" style="stroke:#181818;stroke-width:1.0;"/></g><!--reverse link Element to GeoSteadyStatePwPipingElement--><g id="link_Element_GeoSteadyStatePwPipingElement"><path codeLine="51" d="M1479.6135,66.5884 C1500.6035,84.2484 1515.69,96.94 1536.78,114.68 " fill="none" id="Element-backto-GeoSteadyStatePwPipingElement" style="stroke:#181818;stroke-width:1.0;"/><polygon fill="none" points="1465.84,55,1475.7507,71.1795,1483.4763,61.9972,1465.84,55" style="stroke:#181818;stroke-width:1.0;"/></g><!--reverse link Element to TransientThermalElement--><g id="link_Element_TransientThermalElement"><path codeLine="55" d="M1497.5882,48.4858 C1558.8982,65.5858 1657.2,93 1736.02,114.99 " fill="none" id="Element-backto-TransientThermalElement" style="stroke:#181818;stroke-width:1.0;"/><polygon fill="none" points="1480.25,43.65,1495.9763,54.2652,1499.2002,42.7064,1480.25,43.65" style="stroke:#181818;stroke-width:1.0;"/></g><!--reverse link Element to CrBeamElement2D2N_Structural--><g id="link_Element_CrBeamElement2D2N_Structural"><path codeLine="63" d="M1498.1413,42.0217 C1592.6213,57.8917 1807.45,93.98 1950.49,118.01 " fill="none" id="Element-backto-CrBeamElement2D2N_Structural" style="stroke:#181818;stroke-width:1.0;"/><polygon fill="none" points="1480.39,39.04,1497.1474,47.9388,1499.1352,36.1046,1480.39,39.04" style="stroke:#181818;stroke-width:1.0;"/></g><!--reverse link CrBeamElement2D2N_Structural to CrBeamElementLinear2D2N_Structural--><g id="link_CrBeamElement2D2N_Structural_CrBeamElementLinear2D2N_Structural"><path codeLine="64" d="M2069.5,181 C2069.5,198.66 2069.5,204.94 2069.5,222.68 " fill="none" id="CrBeamElement2D2N_Structural-backto-CrBeamElementLinear2D2N_Structural" style="stroke:#181818;stroke-width:1.0;"/><polygon fill="none" points="2069.5,163,2063.5,181,2075.5,181,2069.5,163" style="stroke:#181818;stroke-width:1.0;"/></g><!--reverse link CrBeamElementLinear2D2N_Structural to GeoCrBeamElementLinear2D2N--><g id="link_CrBeamElementLinear2D2N_Structural_GeoCrBeamElementLinear2D2N"><path codeLine="65" d="M2069.5,289 C2069.5,306.66 2069.5,312.94 2069.5,330.68 " fill="none" id="CrBeamElementLinear2D2N_Structural-backto-GeoCrBeamElementLinear2D2N" style="stroke:#181818;stroke-width:1.0;"/><polygon fill="none" points="2069.5,271,2063.5,289,2075.5,289,2069.5,271" style="stroke:#181818;stroke-width:1.0;"/></g><!--SRC=[dLJBQiCm4BphAtpJoJNaM7fAqfP0Q0sEwR4ijfo8s8gHPKoX7r_vMVHq2Bb4ExEpZv6CBqBKpNCKrIKmqLRbKtQhego4fWbp2cSE5KB3CNWjIKMOG0YdyTSKI-Dk2mrPe2MQL52MYU10sGoEs8a3QwWynvqA9890_fC844I7LBstmyw0qpgNUVcnRvYTATn7yhPzO8Bm0ZBYxD_1K0PnSDHIHygk1X5DVuANtp3K5wqU5ufbwyWQ7ZCiNfYXaMfrnoFjjCm5B6a-A_q5tVxY_hUdHH5yyfpmsQX_APdTmmEgEQMBsgXMFrRa_V0qrCF5L-wo7pPkXv7lmIptvQ7ozpoHqI8ZhkYOMJZkvezPOxvgMKbxhE_afemJqvgoi_sTEeGKpeeUngSBuN9qlRSfRDLqaOQRBrVOPgBbY-IERmbK4sUpttny-odzAC3jH3cDWwkjnblK1rhIxGsjKnO3N2t_0G00]--></g></svg>