<?xml version="1.0" encoding="us-ascii" standalone="no"?><svg xmlns="http://www.w3.org/2000/svg" xmlns:xlink="http://www.w3.org/1999/xlink" contentStyleType="text/css" height="318px" preserveAspectRatio="none" style="width:978px;height:318px;background:#FFFFFF;" version="1.1" viewBox="0 0 978 318" width="978px" zoomAndPan="magnify"><defs/><g><!--class StressStatePolicy--><g id="elem_StressStatePolicy"><rect codeLine="2" fill="#F1F1F1" height="122.4844" id="StressStatePolicy" rx="2.5" ry="2.5" style="stroke:#181818;stroke-width:0.5;" width="298" x="340" y="7"/><ellipse cx="429.75" cy="23" fill="#A9DCDF" rx="11" ry="11" style="stroke:#181818;stroke-width:1.0;"/><path d="M431.9375,24.7656 L427.7969,24.7656 L427.375,25.7969 L427.7969,25.7969 Q428.4063,25.7969 428.6719,26.0313 Q428.9375,26.2656 428.9375,26.6563 Q428.9375,27.0313 428.6719,27.2656 Q428.4063,27.5 427.7969,27.5 L425.5,27.5 Q424.8906,27.5 424.6406,27.2656 Q424.375,27.0313 424.375,26.6406 Q424.375,26.2656 424.6563,26.0313 Q424.9219,25.7813 425.5469,25.7969 L428.2188,19.1406 L427.1094,19.1406 Q426.5,19.1406 426.2344,18.9063 Q425.9688,18.6719 425.9688,18.2813 Q425.9688,17.9063 426.2344,17.6719 Q426.5,17.4375 427.1094,17.4375 L430.7813,17.4375 L434.1719,25.7969 Q434.7656,25.7969 434.9531,25.9375 Q435.3438,26.2031 435.3438,26.6563 Q435.3438,27.0313 435.0781,27.2656 Q434.8281,27.5 434.2188,27.5 L431.9219,27.5 Q431.3125,27.5 431.0469,27.2656 Q430.7813,27.0313 430.7813,26.6406 Q430.7813,26.2656 431.0469,26.0313 Q431.3125,25.7969 431.9219,25.7969 L432.3438,25.7969 L431.9375,24.7656 Z M431.2188,23.0625 L429.8594,19.6875 L428.4844,23.0625 L431.2188,23.0625 Z " fill="#000000"/><text fill="#000000" font-family="sans-serif" font-size="14" font-style="italic" lengthAdjust="spacing" textLength="110" x="450.25" y="28.7969">StressStatePolicy</text><line style="stroke:#181818;stroke-width:0.5;" x1="341" x2="637" y1="39" y2="39"/><line style="stroke:#181818;stroke-width:0.5;" x1="341" x2="637" y1="47" y2="47"/><ellipse cx="351" cy="61.8105" fill="#84BE84" rx="3" ry="3" style="stroke:#038048;stroke-width:1.0;"/><text fill="#000000" font-family="sans-serif" font-size="14" font-style="italic" lengthAdjust="spacing" textLength="158" x="360" y="66.1074">Matrix CalculateBMatrix()</text><ellipse cx="351" cy="80.4316" fill="#84BE84" rx="3" ry="3" style="stroke:#038048;stroke-width:1.0;"/><text fill="#000000" font-family="sans-serif" font-size="14" font-style="italic" lengthAdjust="spacing" textLength="251" x="360" y="84.7285">double CalculateIntegrationCoefficient()</text><ellipse cx="351" cy="99.0527" fill="#84BE84" rx="3" ry="3" style="stroke:#038048;stroke-width:1.0;"/><text fill="#000000" font-family="sans-serif" font-size="14" font-style="italic" lengthAdjust="spacing" textLength="252" x="360" y="103.3496">Vector CalculateGreenLagrangeStrain()</text><ellipse cx="351" cy="117.6738" fill="#84BE84" rx="3" ry="3" style="stroke:#038048;stroke-width:1.0;"/><text fill="#000000" font-family="sans-serif" font-size="14" font-style="italic" lengthAdjust="spacing" textLength="272" x="360" y="121.9707">std::unique_ptr&lt;StressStatePolicy&gt; Clone()</text></g><!--class ThreeDimensionalStressState--><g id="elem_ThreeDimensionalStressState"><rect codeLine="10" fill="#F1F1F1" height="122.4844" id="ThreeDimensionalStressState" rx="2.5" ry="2.5" style="stroke:#181818;stroke-width:0.5;" width="298" x="7" y="189"/><ellipse cx="57.75" cy="205" fill="#ADD1B2" rx="11" ry="11" style="stroke:#181818;stroke-width:1.0;"/><path d="M60.5156,200.875 Q60.6719,200.6563 60.8594,200.5469 Q61.0469,200.4375 61.2656,200.4375 Q61.6406,200.4375 61.875,200.7031 Q62.1094,200.9531 62.1094,201.5625 L62.1094,203.0156 Q62.1094,203.625 61.875,203.8906 Q61.6406,204.1563 61.2656,204.1563 Q60.9219,204.1563 60.7188,203.9531 Q60.5156,203.7656 60.4063,203.25 Q60.3594,202.8906 60.1719,202.7031 Q59.8438,202.3281 59.2344,202.1094 Q58.625,201.8906 58,201.8906 Q57.2344,201.8906 56.5938,202.2188 Q55.9688,202.5469 55.4688,203.2969 Q54.9844,204.0469 54.9844,205.0781 L54.9844,206.1719 Q54.9844,207.4063 55.875,208.2344 Q56.7656,209.0469 58.3594,209.0469 Q59.2969,209.0469 59.9531,208.7969 Q60.3438,208.6406 60.7656,208.2031 Q61.0313,207.9375 61.1719,207.8594 Q61.3281,207.7813 61.5313,207.7813 Q61.8594,207.7813 62.1094,208.0469 Q62.375,208.2969 62.375,208.6406 Q62.375,208.9844 62.0313,209.3906 Q61.5313,209.9688 60.7344,210.2969 Q59.6563,210.75 58.3594,210.75 Q56.8438,210.75 55.6406,210.125 Q54.6563,209.625 53.9688,208.5625 Q53.2813,207.4844 53.2813,206.2031 L53.2813,205.0469 Q53.2813,203.7188 53.8906,202.5781 Q54.5156,201.4219 55.6094,200.8125 Q56.7031,200.1875 57.9375,200.1875 Q58.6719,200.1875 59.3125,200.3594 Q59.9688,200.5156 60.5156,200.875 Z " fill="#000000"/><text fill="#000000" font-family="sans-serif" font-size="14" lengthAdjust="spacing" textLength="188" x="78.25" y="210.7969">ThreeDimensionalStressState</text><line style="stroke:#181818;stroke-width:0.5;" x1="8" x2="304" y1="221" y2="221"/><line style="stroke:#181818;stroke-width:0.5;" x1="8" x2="304" y1="229" y2="229"/><ellipse cx="18" cy="243.8105" fill="#84BE84" rx="3" ry="3" style="stroke:#038048;stroke-width:1.0;"/><text fill="#000000" font-family="sans-serif" font-size="14" lengthAdjust="spacing" textLength="156" x="27" y="248.1074">Matrix CalculateBMatrix()</text><ellipse cx="18" cy="262.4316" fill="#84BE84" rx="3" ry="3" style="stroke:#038048;stroke-width:1.0;"/><text fill="#000000" font-family="sans-serif" font-size="14" lengthAdjust="spacing" textLength="250" x="27" y="266.7285">double CalculateIntegrationCoefficient()</text><ellipse cx="18" cy="281.0527" fill="#84BE84" rx="3" ry="3" style="stroke:#038048;stroke-width:1.0;"/><text fill="#000000" font-family="sans-serif" font-size="14" lengthAdjust="spacing" textLength="252" x="27" y="285.3496">Vector CalculateGreenLagrangeStrain()</text><ellipse cx="18" cy="299.6738" fill="#84BE84" rx="3" ry="3" style="stroke:#038048;stroke-width:1.0;"/><text fill="#000000" font-family="sans-serif" font-size="14" lengthAdjust="spacing" textLength="272" x="27" y="303.9707">std::unique_ptr&lt;StressStatePolicy&gt; Clone()</text></g><!--class PlaneStrainState--><g id="elem_PlaneStrainState"><rect codeLine="17" fill="#F1F1F1" height="122.4844" id="PlaneStrainState" rx="2.5" ry="2.5" style="stroke:#181818;stroke-width:0.5;" width="298" x="340" y="189"/><ellipse cx="431.75" cy="205" fill="#ADD1B2" rx="11" ry="11" style="stroke:#181818;stroke-width:1.0;"/><path d="M434.5156,200.875 Q434.6719,200.6563 434.8594,200.5469 Q435.0469,200.4375 435.2656,200.4375 Q435.6406,200.4375 435.875,200.7031 Q436.1094,200.9531 436.1094,201.5625 L436.1094,203.0156 Q436.1094,203.625 435.875,203.8906 Q435.6406,204.1563 435.2656,204.1563 Q434.9219,204.1563 434.7188,203.9531 Q434.5156,203.7656 434.4063,203.25 Q434.3594,202.8906 434.1719,202.7031 Q433.8438,202.3281 433.2344,202.1094 Q432.625,201.8906 432,201.8906 Q431.2344,201.8906 430.5938,202.2188 Q429.9688,202.5469 429.4688,203.2969 Q428.9844,204.0469 428.9844,205.0781 L428.9844,206.1719 Q428.9844,207.4063 429.875,208.2344 Q430.7656,209.0469 432.3594,209.0469 Q433.2969,209.0469 433.9531,208.7969 Q434.3438,208.6406 434.7656,208.2031 Q435.0313,207.9375 435.1719,207.8594 Q435.3281,207.7813 435.5313,207.7813 Q435.8594,207.7813 436.1094,208.0469 Q436.375,208.2969 436.375,208.6406 Q436.375,208.9844 436.0313,209.3906 Q435.5313,209.9688 434.7344,210.2969 Q433.6563,210.75 432.3594,210.75 Q430.8438,210.75 429.6406,210.125 Q428.6563,209.625 427.9688,208.5625 Q427.2813,207.4844 427.2813,206.2031 L427.2813,205.0469 Q427.2813,203.7188 427.8906,202.5781 Q428.5156,201.4219 429.6094,200.8125 Q430.7031,200.1875 431.9375,200.1875 Q432.6719,200.1875 433.3125,200.3594 Q433.9688,200.5156 434.5156,200.875 Z " fill="#000000"/><text fill="#000000" font-family="sans-serif" font-size="14" lengthAdjust="spacing" textLength="106" x="452.25" y="210.7969">PlaneStrainState</text><line style="stroke:#181818;stroke-width:0.5;" x1="341" x2="637" y1="221" y2="221"/><line style="stroke:#181818;stroke-width:0.5;" x1="341" x2="637" y1="229" y2="229"/><ellipse cx="351" cy="243.8105" fill="#84BE84" rx="3" ry="3" style="stroke:#038048;stroke-width:1.0;"/><text fill="#000000" font-family="sans-serif" font-size="14" lengthAdjust="spacing" textLength="156" x="360" y="248.1074">Matrix CalculateBMatrix()</text><ellipse cx="351" cy="262.4316" fill="#84BE84" rx="3" ry="3" style="stroke:#038048;stroke-width:1.0;"/><text fill="#000000" font-family="sans-serif" font-size="14" lengthAdjust="spacing" textLength="250" x="360" y="266.7285">double CalculateIntegrationCoefficient()</text><ellipse cx="351" cy="281.0527" fill="#84BE84" rx="3" ry="3" style="stroke:#038048;stroke-width:1.0;"/><text fill="#000000" font-family="sans-serif" font-size="14" lengthAdjust="spacing" textLength="252" x="360" y="285.3496">Vector CalculateGreenLagrangeStrain()</text><ellipse cx="351" cy="299.6738" fill="#84BE84" rx="3" ry="3" style="stroke:#038048;stroke-width:1.0;"/><text fill="#000000" font-family="sans-serif" font-size="14" lengthAdjust="spacing" textLength="272" x="360" y="303.9707">std::unique_ptr&lt;StressStatePolicy&gt; Clone()</text></g><!--class AxisymmetricStressState--><g id="elem_AxisymmetricStressState"><rect codeLine="24" fill="#F1F1F1" height="122.4844" id="AxisymmetricStressState" rx="2.5" ry="2.5" style="stroke:#181818;stroke-width:0.5;" width="298" x="673" y="189"/><ellipse cx="740.75" cy="205" fill="#ADD1B2" rx="11" ry="11" style="stroke:#181818;stroke-width:1.0;"/><path d="M743.5156,200.875 Q743.6719,200.6563 743.8594,200.5469 Q744.0469,200.4375 744.2656,200.4375 Q744.6406,200.4375 744.875,200.7031 Q745.1094,200.9531 745.1094,201.5625 L745.1094,203.0156 Q745.1094,203.625 744.875,203.8906 Q744.6406,204.1563 744.2656,204.1563 Q743.9219,204.1563 743.7188,203.9531 Q743.5156,203.7656 743.4063,203.25 Q743.3594,202.8906 743.1719,202.7031 Q742.8438,202.3281 742.2344,202.1094 Q741.625,201.8906 741,201.8906 Q740.2344,201.8906 739.5938,202.2188 Q738.9688,202.5469 738.4688,203.2969 Q737.9844,204.0469 737.9844,205.0781 L737.9844,206.1719 Q737.9844,207.4063 738.875,208.2344 Q739.7656,209.0469 741.3594,209.0469 Q742.2969,209.0469 742.9531,208.7969 Q743.3438,208.6406 743.7656,208.2031 Q744.0313,207.9375 744.1719,207.8594 Q744.3281,207.7813 744.5313,207.7813 Q744.8594,207.7813 745.1094,208.0469 Q745.375,208.2969 745.375,208.6406 Q745.375,208.9844 745.0313,209.3906 Q744.5313,209.9688 743.7344,210.2969 Q742.6563,210.75 741.3594,210.75 Q739.8438,210.75 738.6406,210.125 Q737.6563,209.625 736.9688,208.5625 Q736.2813,207.4844 736.2813,206.2031 L736.2813,205.0469 Q736.2813,203.7188 736.8906,202.5781 Q737.5156,201.4219 738.6094,200.8125 Q739.7031,200.1875 740.9375,200.1875 Q741.6719,200.1875 742.3125,200.3594 Q742.9688,200.5156 743.5156,200.875 Z " fill="#000000"/><text fill="#000000" font-family="sans-serif" font-size="14" lengthAdjust="spacing" textLength="154" x="761.25" y="210.7969">AxisymmetricStressState</text><line style="stroke:#181818;stroke-width:0.5;" x1="674" x2="970" y1="221" y2="221"/><line style="stroke:#181818;stroke-width:0.5;" x1="674" x2="970" y1="229" y2="229"/><ellipse cx="684" cy="243.8105" fill="#84BE84" rx="3" ry="3" style="stroke:#038048;stroke-width:1.0;"/><text fill="#000000" font-family="sans-serif" font-size="14" lengthAdjust="spacing" textLength="156" x="693" y="248.1074">Matrix CalculateBMatrix()</text><ellipse cx="684" cy="262.4316" fill="#84BE84" rx="3" ry="3" style="stroke:#038048;stroke-width:1.0;"/><text fill="#000000" font-family="sans-serif" font-size="14" lengthAdjust="spacing" textLength="250" x="693" y="266.7285">double CalculateIntegrationCoefficient()</text><ellipse cx="684" cy="281.0527" fill="#84BE84" rx="3" ry="3" style="stroke:#038048;stroke-width:1.0;"/><text fill="#000000" font-family="sans-serif" font-size="14" lengthAdjust="spacing" textLength="252" x="693" y="285.3496">Vector CalculateGreenLagrangeStrain()</text><ellipse cx="684" cy="299.6738" fill="#84BE84" rx="3" ry="3" style="stroke:#038048;stroke-width:1.0;"/><text fill="#000000" font-family="sans-serif" font-size="14" lengthAdjust="spacing" textLength="272" x="693" y="303.9707">std::unique_ptr&lt;StressStatePolicy&gt; Clone()</text></g><!--reverse link StressStatePolicy to ThreeDimensionalStressState--><g id="link_StressStatePolicy_ThreeDimensionalStressState"><path codeLine="31" d="M361.8151,137.749 C326.2751,156.959 302.78,169.66 267.24,188.87 " fill="none" id="StressStatePolicy-backto-ThreeDimensionalStressState" style="stroke:#181818;stroke-width:1.0;"/><polygon fill="none" points="377.65,129.19,358.9621,132.4707,364.6681,143.0273,377.65,129.19" style="stroke:#181818;stroke-width:1.0;"/></g><!--reverse link StressStatePolicy to PlaneStrainState--><g id="link_StressStatePolicy_PlaneStrainState"><path codeLine="32" d="M489,147.19 C489,166.4 489,169.66 489,188.87 " fill="none" id="StressStatePolicy-backto-PlaneStrainState" style="stroke:#181818;stroke-width:1.0;"/><polygon fill="none" points="489,129.19,483,147.19,495,147.19,489,129.19" style="stroke:#181818;stroke-width:1.0;"/></g><!--reverse link StressStatePolicy to AxisymmetricStressState--><g id="link_StressStatePolicy_AxisymmetricStressState"><path codeLine="33" d="M616.1849,137.749 C651.7249,156.959 675.22,169.66 710.76,188.87 " fill="none" id="StressStatePolicy-backto-AxisymmetricStressState" style="stroke:#181818;stroke-width:1.0;"/><polygon fill="none" points="600.35,129.19,613.3319,143.0273,619.0379,132.4707,600.35,129.19" style="stroke:#181818;stroke-width:1.0;"/></g><!--SRC=[rPD12i8m44NtFKMMYdW1AO9M446XK74hOnnr89reCWLBzUu6AYgMYYxTXl-6_oO9RBmuqAAq0UzL9WwzpmG4Ksj8bwgAbEfLS8zTrGB4qLabO7HXGcnS7tIwRxcjBJO6dxaP2-uT25bEBEvsf0bP6jWAjLZtnAOEaUSGIDvZQ0V43SRBTZ0ec4u5he_YueR4K2N6CWOmkaPHRReyXCaJof5zg0Jc1QgTFuh-OlUrqWyU3utK0D-7_5ttqPbycUSOgkc_Mt_pfyINVl_Jisf3tg-mBTUohXi0]--></g></svg>