<svg xmlns="http://www.w3.org/2000/svg" xmlns:xlink="http://www.w3.org/1999/xlink" contentStyleType="text/css" data-diagram-type="CLASS" height="281px" preserveAspectRatio="none" style="width:1624px;height:281px;background:#FFFFFF;" version="1.1" viewBox="0 0 1624 281" width="1624px" zoomAndPan="magnify"><defs/><g><!--class StressStatePolicy--><g class="entity" data-entity="StressStatePolicy" data-source-line="2" data-uid="ent0002" id="entity_StressStatePolicy"><rect fill="#F1F1F1" height="103.8633" rx="2.5" ry="2.5" style="stroke:#181818;stroke-width:0.5;" width="294.4746" x="665" y="7"/><ellipse cx="753.1323" cy="23" fill="#A9DCDF" rx="11" ry="11" style="stroke:#181818;stroke-width:1;"/><path d="M755.3198,24.7656 L751.1792,24.7656 L750.7573,25.7969 L751.1792,25.7969 Q751.7886,25.7969 752.0542,26.0313 Q752.3198,26.2656 752.3198,26.6563 Q752.3198,27.0313 752.0542,27.2656 Q751.7886,27.5 751.1792,27.5 L748.8823,27.5 Q748.2729,27.5 748.0229,27.2656 Q747.7573,27.0313 747.7573,26.6406 Q747.7573,26.2656 748.0386,26.0313 Q748.3042,25.7813 748.9292,25.7969 L751.6011,19.1406 L750.4917,19.1406 Q749.8823,19.1406 749.6167,18.9063 Q749.3511,18.6719 749.3511,18.2813 Q749.3511,17.9063 749.6167,17.6719 Q749.8823,17.4375 750.4917,17.4375 L754.1636,17.4375 L757.5542,25.7969 Q758.1479,25.7969 758.3354,25.9375 Q758.7261,26.2031 758.7261,26.6563 Q758.7261,27.0313 758.4604,27.2656 Q758.2104,27.5 757.6011,27.5 L755.3042,27.5 Q754.6948,27.5 754.4292,27.2656 Q754.1636,27.0313 754.1636,26.6406 Q754.1636,26.2656 754.4292,26.0313 Q754.6948,25.7969 755.3042,25.7969 L755.7261,25.7969 L755.3198,24.7656 Z M754.6011,23.0625 L753.2417,19.6875 L751.8667,23.0625 L754.6011,23.0625 Z " fill="#000000"/><text fill="#000000" font-family="sans-serif" font-size="14" font-style="italic" lengthAdjust="spacing" textLength="109.71" x="773.6323" y="28.7969">StressStatePolicy</text><line style="stroke:#181818;stroke-width:0.5;" x1="666" x2="958.4746" y1="39" y2="39"/><line style="stroke:#181818;stroke-width:0.5;" x1="666" x2="958.4746" y1="47" y2="47"/><ellipse cx="676" cy="61.8105" fill="#84BE84" rx="3" ry="3" style="stroke:#038048;stroke-width:1;"/><text fill="#000000" font-family="sans-serif" font-size="14" font-style="italic" lengthAdjust="spacing" textLength="157.1377" x="685" y="66.1074">Matrix CalculateBMatrix()</text><ellipse cx="676" cy="80.4316" fill="#84BE84" rx="3" ry="3" style="stroke:#038048;stroke-width:1;"/><text fill="#000000" font-family="sans-serif" font-size="14" font-style="italic" lengthAdjust="spacing" textLength="246.6885" x="685" y="84.7285">Vector CalculateGreenLagrangeStrain()</text><ellipse cx="676" cy="99.0527" fill="#84BE84" rx="3" ry="3" style="stroke:#038048;stroke-width:1;"/><text fill="#000000" font-family="sans-serif" font-size="14" font-style="italic" lengthAdjust="spacing" textLength="268.4746" x="685" y="103.3496">std::unique_ptr&lt;StressStatePolicy&gt; Clone()</text></g><!--class ThreeDimensionalStressState--><g class="entity" data-entity="ThreeDimensionalStressState" data-source-line="9" data-uid="ent0003" id="entity_ThreeDimensionalStressState"><rect fill="#F1F1F1" height="103.8633" rx="2.5" ry="2.5" style="stroke:#181818;stroke-width:0.5;" width="294.4746" x="7" y="171"/><ellipse cx="57.0015" cy="187" fill="#ADD1B2" rx="11" ry="11" style="stroke:#181818;stroke-width:1;"/><path d="M59.7671,182.875 Q59.9233,182.6563 60.1108,182.5469 Q60.2983,182.4375 60.5171,182.4375 Q60.8921,182.4375 61.1265,182.7031 Q61.3608,182.9531 61.3608,183.5625 L61.3608,185.0156 Q61.3608,185.625 61.1265,185.8906 Q60.8921,186.1563 60.5171,186.1563 Q60.1733,186.1563 59.9702,185.9531 Q59.7671,185.7656 59.6577,185.25 Q59.6108,184.8906 59.4233,184.7031 Q59.0952,184.3281 58.4858,184.1094 Q57.8765,183.8906 57.2515,183.8906 Q56.4858,183.8906 55.8452,184.2188 Q55.2202,184.5469 54.7202,185.2969 Q54.2358,186.0469 54.2358,187.0781 L54.2358,188.1719 Q54.2358,189.4063 55.1265,190.2344 Q56.0171,191.0469 57.6108,191.0469 Q58.5483,191.0469 59.2046,190.7969 Q59.5952,190.6406 60.0171,190.2031 Q60.2827,189.9375 60.4233,189.8594 Q60.5796,189.7813 60.7827,189.7813 Q61.1108,189.7813 61.3608,190.0469 Q61.6265,190.2969 61.6265,190.6406 Q61.6265,190.9844 61.2827,191.3906 Q60.7827,191.9688 59.9858,192.2969 Q58.9077,192.75 57.6108,192.75 Q56.0952,192.75 54.8921,192.125 Q53.9077,191.625 53.2202,190.5625 Q52.5327,189.4844 52.5327,188.2031 L52.5327,187.0469 Q52.5327,185.7188 53.1421,184.5781 Q53.7671,183.4219 54.8608,182.8125 Q55.9546,182.1875 57.189,182.1875 Q57.9233,182.1875 58.564,182.3594 Q59.2202,182.5156 59.7671,182.875 Z " fill="#000000"/><text fill="#000000" font-family="sans-serif" font-size="14" lengthAdjust="spacing" textLength="185.9717" x="77.5015" y="192.7969">ThreeDimensionalStressState</text><line style="stroke:#181818;stroke-width:0.5;" x1="8" x2="300.4746" y1="203" y2="203"/><line style="stroke:#181818;stroke-width:0.5;" x1="8" x2="300.4746" y1="211" y2="211"/><ellipse cx="18" cy="225.8105" fill="#84BE84" rx="3" ry="3" style="stroke:#038048;stroke-width:1;"/><text fill="#000000" font-family="sans-serif" font-size="14" lengthAdjust="spacing" textLength="157.1377" x="27" y="230.1074">Matrix CalculateBMatrix()</text><ellipse cx="18" cy="244.4316" fill="#84BE84" rx="3" ry="3" style="stroke:#038048;stroke-width:1;"/><text fill="#000000" font-family="sans-serif" font-size="14" lengthAdjust="spacing" textLength="246.6885" x="27" y="248.7285">Vector CalculateGreenLagrangeStrain()</text><ellipse cx="18" cy="263.0527" fill="#84BE84" rx="3" ry="3" style="stroke:#038048;stroke-width:1;"/><text fill="#000000" font-family="sans-serif" font-size="14" lengthAdjust="spacing" textLength="268.4746" x="27" y="267.3496">std::unique_ptr&lt;StressStatePolicy&gt; Clone()</text></g><!--class PlaneStrainStressState--><g class="entity" data-entity="PlaneStrainStressState" data-source-line="15" data-uid="ent0004" id="entity_PlaneStrainStressState"><rect fill="#F1F1F1" height="103.8633" rx="2.5" ry="2.5" style="stroke:#181818;stroke-width:0.5;" width="294.4746" x="336" y="171"/><ellipse cx="406.6152" cy="187" fill="#ADD1B2" rx="11" ry="11" style="stroke:#181818;stroke-width:1;"/><path d="M409.3809,182.875 Q409.5371,182.6563 409.7246,182.5469 Q409.9121,182.4375 410.1309,182.4375 Q410.5059,182.4375 410.7402,182.7031 Q410.9746,182.9531 410.9746,183.5625 L410.9746,185.0156 Q410.9746,185.625 410.7402,185.8906 Q410.5059,186.1563 410.1309,186.1563 Q409.7871,186.1563 409.584,185.9531 Q409.3809,185.7656 409.2715,185.25 Q409.2246,184.8906 409.0371,184.7031 Q408.709,184.3281 408.0996,184.1094 Q407.4902,183.8906 406.8652,183.8906 Q406.0996,183.8906 405.459,184.2188 Q404.834,184.5469 404.334,185.2969 Q403.8496,186.0469 403.8496,187.0781 L403.8496,188.1719 Q403.8496,189.4063 404.7402,190.2344 Q405.6309,191.0469 407.2246,191.0469 Q408.1621,191.0469 408.8184,190.7969 Q409.209,190.6406 409.6309,190.2031 Q409.8965,189.9375 410.0371,189.8594 Q410.1934,189.7813 410.3965,189.7813 Q410.7246,189.7813 410.9746,190.0469 Q411.2402,190.2969 411.2402,190.6406 Q411.2402,190.9844 410.8965,191.3906 Q410.3965,191.9688 409.5996,192.2969 Q408.5215,192.75 407.2246,192.75 Q405.709,192.75 404.5059,192.125 Q403.5215,191.625 402.834,190.5625 Q402.1465,189.4844 402.1465,188.2031 L402.1465,187.0469 Q402.1465,185.7188 402.7559,184.5781 Q403.3809,183.4219 404.4746,182.8125 Q405.5684,182.1875 406.8027,182.1875 Q407.5371,182.1875 408.1777,182.3594 Q408.834,182.5156 409.3809,182.875 Z " fill="#000000"/><text fill="#000000" font-family="sans-serif" font-size="14" lengthAdjust="spacing" textLength="144.7441" x="427.1152" y="192.7969">PlaneStrainStressState</text><line style="stroke:#181818;stroke-width:0.5;" x1="337" x2="629.4746" y1="203" y2="203"/><line style="stroke:#181818;stroke-width:0.5;" x1="337" x2="629.4746" y1="211" y2="211"/><ellipse cx="347" cy="225.8105" fill="#84BE84" rx="3" ry="3" style="stroke:#038048;stroke-width:1;"/><text fill="#000000" font-family="sans-serif" font-size="14" lengthAdjust="spacing" textLength="157.1377" x="356" y="230.1074">Matrix CalculateBMatrix()</text><ellipse cx="347" cy="244.4316" fill="#84BE84" rx="3" ry="3" style="stroke:#038048;stroke-width:1;"/><text fill="#000000" font-family="sans-serif" font-size="14" lengthAdjust="spacing" textLength="246.6885" x="356" y="248.7285">Vector CalculateGreenLagrangeStrain()</text><ellipse cx="347" cy="263.0527" fill="#84BE84" rx="3" ry="3" style="stroke:#038048;stroke-width:1;"/><text fill="#000000" font-family="sans-serif" font-size="14" lengthAdjust="spacing" textLength="268.4746" x="356" y="267.3496">std::unique_ptr&lt;StressStatePolicy&gt; Clone()</text></g><!--class AxisymmetricStressState--><g class="entity" data-entity="AxisymmetricStressState" data-source-line="21" data-uid="ent0005" id="entity_AxisymmetricStressState"><rect fill="#F1F1F1" height="103.8633" rx="2.5" ry="2.5" style="stroke:#181818;stroke-width:0.5;" width="294.4746" x="665" y="171"/><ellipse cx="730.1943" cy="187" fill="#ADD1B2" rx="11" ry="11" style="stroke:#181818;stroke-width:1;"/><path d="M732.96,182.875 Q733.1162,182.6563 733.3037,182.5469 Q733.4912,182.4375 733.71,182.4375 Q734.085,182.4375 734.3193,182.7031 Q734.5537,182.9531 734.5537,183.5625 L734.5537,185.0156 Q734.5537,185.625 734.3193,185.8906 Q734.085,186.1563 733.71,186.1563 Q733.3662,186.1563 733.1631,185.9531 Q732.96,185.7656 732.8506,185.25 Q732.8037,184.8906 732.6162,184.7031 Q732.2881,184.3281 731.6787,184.1094 Q731.0693,183.8906 730.4443,183.8906 Q729.6787,183.8906 729.0381,184.2188 Q728.4131,184.5469 727.9131,185.2969 Q727.4287,186.0469 727.4287,187.0781 L727.4287,188.1719 Q727.4287,189.4063 728.3193,190.2344 Q729.21,191.0469 730.8037,191.0469 Q731.7412,191.0469 732.3975,190.7969 Q732.7881,190.6406 733.21,190.2031 Q733.4756,189.9375 733.6162,189.8594 Q733.7725,189.7813 733.9756,189.7813 Q734.3037,189.7813 734.5537,190.0469 Q734.8193,190.2969 734.8193,190.6406 Q734.8193,190.9844 734.4756,191.3906 Q733.9756,191.9688 733.1787,192.2969 Q732.1006,192.75 730.8037,192.75 Q729.2881,192.75 728.085,192.125 Q727.1006,191.625 726.4131,190.5625 Q725.7256,189.4844 725.7256,188.2031 L725.7256,187.0469 Q725.7256,185.7188 726.335,184.5781 Q726.96,183.4219 728.0537,182.8125 Q729.1475,182.1875 730.3818,182.1875 Q731.1162,182.1875 731.7568,182.3594 Q732.4131,182.5156 732.96,182.875 Z " fill="#000000"/><text fill="#000000" font-family="sans-serif" font-size="14" lengthAdjust="spacing" textLength="155.5859" x="750.6943" y="192.7969">AxisymmetricStressState</text><line style="stroke:#181818;stroke-width:0.5;" x1="666" x2="958.4746" y1="203" y2="203"/><line style="stroke:#181818;stroke-width:0.5;" x1="666" x2="958.4746" y1="211" y2="211"/><ellipse cx="676" cy="225.8105" fill="#84BE84" rx="3" ry="3" style="stroke:#038048;stroke-width:1;"/><text fill="#000000" font-family="sans-serif" font-size="14" lengthAdjust="spacing" textLength="157.1377" x="685" y="230.1074">Matrix CalculateBMatrix()</text><ellipse cx="676" cy="244.4316" fill="#84BE84" rx="3" ry="3" style="stroke:#038048;stroke-width:1;"/><text fill="#000000" font-family="sans-serif" font-size="14" lengthAdjust="spacing" textLength="246.6885" x="685" y="248.7285">Vector CalculateGreenLagrangeStrain()</text><ellipse cx="676" cy="263.0527" fill="#84BE84" rx="3" ry="3" style="stroke:#038048;stroke-width:1;"/><text fill="#000000" font-family="sans-serif" font-size="14" lengthAdjust="spacing" textLength="268.4746" x="685" y="267.3496">std::unique_ptr&lt;StressStatePolicy&gt; Clone()</text></g><!--class Line2DInterfaceStressState--><g class="entity" data-entity="Line2DInterfaceStressState" data-source-line="27" data-uid="ent0006" id="entity_Line2DInterfaceStressState"><rect fill="#F1F1F1" height="103.8633" rx="2.5" ry="2.5" style="stroke:#181818;stroke-width:0.5;" width="294.4746" x="994" y="171"/><ellipse cx="1051.3843" cy="187" fill="#ADD1B2" rx="11" ry="11" style="stroke:#181818;stroke-width:1;"/><path d="M1054.1499,182.875 Q1054.3062,182.6563 1054.4937,182.5469 Q1054.6812,182.4375 1054.8999,182.4375 Q1055.2749,182.4375 1055.5093,182.7031 Q1055.7437,182.9531 1055.7437,183.5625 L1055.7437,185.0156 Q1055.7437,185.625 1055.5093,185.8906 Q1055.2749,186.1563 1054.8999,186.1563 Q1054.5562,186.1563 1054.353,185.9531 Q1054.1499,185.7656 1054.0405,185.25 Q1053.9937,184.8906 1053.8062,184.7031 Q1053.478,184.3281 1052.8687,184.1094 Q1052.2593,183.8906 1051.6343,183.8906 Q1050.8687,183.8906 1050.228,184.2188 Q1049.603,184.5469 1049.103,185.2969 Q1048.6187,186.0469 1048.6187,187.0781 L1048.6187,188.1719 Q1048.6187,189.4063 1049.5093,190.2344 Q1050.3999,191.0469 1051.9937,191.0469 Q1052.9312,191.0469 1053.5874,190.7969 Q1053.978,190.6406 1054.3999,190.2031 Q1054.6655,189.9375 1054.8062,189.8594 Q1054.9624,189.7813 1055.1655,189.7813 Q1055.4937,189.7813 1055.7437,190.0469 Q1056.0093,190.2969 1056.0093,190.6406 Q1056.0093,190.9844 1055.6655,191.3906 Q1055.1655,191.9688 1054.3687,192.2969 Q1053.2905,192.75 1051.9937,192.75 Q1050.478,192.75 1049.2749,192.125 Q1048.2905,191.625 1047.603,190.5625 Q1046.9155,189.4844 1046.9155,188.2031 L1046.9155,187.0469 Q1046.9155,185.7188 1047.5249,184.5781 Q1048.1499,183.4219 1049.2437,182.8125 Q1050.3374,182.1875 1051.5718,182.1875 Q1052.3062,182.1875 1052.9468,182.3594 Q1053.603,182.5156 1054.1499,182.875 Z " fill="#000000"/><text fill="#000000" font-family="sans-serif" font-size="14" lengthAdjust="spacing" textLength="171.2061" x="1071.8843" y="192.7969">Line2DInterfaceStressState</text><line style="stroke:#181818;stroke-width:0.5;" x1="995" x2="1287.4746" y1="203" y2="203"/><line style="stroke:#181818;stroke-width:0.5;" x1="995" x2="1287.4746" y1="211" y2="211"/><ellipse cx="1005" cy="225.8105" fill="#84BE84" rx="3" ry="3" style="stroke:#038048;stroke-width:1;"/><text fill="#000000" font-family="sans-serif" font-size="14" lengthAdjust="spacing" textLength="157.1377" x="1014" y="230.1074">Matrix CalculateBMatrix()</text><ellipse cx="1005" cy="244.4316" fill="#84BE84" rx="3" ry="3" style="stroke:#038048;stroke-width:1;"/><text fill="#000000" font-family="sans-serif" font-size="14" lengthAdjust="spacing" textLength="246.6885" x="1014" y="248.7285">Vector CalculateGreenLagrangeStrain()</text><ellipse cx="1005" cy="263.0527" fill="#84BE84" rx="3" ry="3" style="stroke:#038048;stroke-width:1;"/><text fill="#000000" font-family="sans-serif" font-size="14" lengthAdjust="spacing" textLength="268.4746" x="1014" y="267.3496">std::unique_ptr&lt;StressStatePolicy&gt; Clone()</text></g><!--class SurfaceInterfaceStressState--><g class="entity" data-entity="SurfaceInterfaceStressState" data-source-line="33" data-uid="ent0007" id="entity_SurfaceInterfaceStressState"><rect fill="#F1F1F1" height="103.8633" rx="2.5" ry="2.5" style="stroke:#181818;stroke-width:0.5;" width="294.4746" x="1323" y="171"/><ellipse cx="1378.4429" cy="187" fill="#ADD1B2" rx="11" ry="11" style="stroke:#181818;stroke-width:1;"/><path d="M1381.2085,182.875 Q1381.3647,182.6563 1381.5522,182.5469 Q1381.7397,182.4375 1381.9585,182.4375 Q1382.3335,182.4375 1382.5679,182.7031 Q1382.8022,182.9531 1382.8022,183.5625 L1382.8022,185.0156 Q1382.8022,185.625 1382.5679,185.8906 Q1382.3335,186.1563 1381.9585,186.1563 Q1381.6147,186.1563 1381.4116,185.9531 Q1381.2085,185.7656 1381.0991,185.25 Q1381.0522,184.8906 1380.8647,184.7031 Q1380.5366,184.3281 1379.9272,184.1094 Q1379.3179,183.8906 1378.6929,183.8906 Q1377.9272,183.8906 1377.2866,184.2188 Q1376.6616,184.5469 1376.1616,185.2969 Q1375.6772,186.0469 1375.6772,187.0781 L1375.6772,188.1719 Q1375.6772,189.4063 1376.5679,190.2344 Q1377.4585,191.0469 1379.0522,191.0469 Q1379.9897,191.0469 1380.646,190.7969 Q1381.0366,190.6406 1381.4585,190.2031 Q1381.7241,189.9375 1381.8647,189.8594 Q1382.021,189.7813 1382.2241,189.7813 Q1382.5522,189.7813 1382.8022,190.0469 Q1383.0679,190.2969 1383.0679,190.6406 Q1383.0679,190.9844 1382.7241,191.3906 Q1382.2241,191.9688 1381.4272,192.2969 Q1380.3491,192.75 1379.0522,192.75 Q1377.5366,192.75 1376.3335,192.125 Q1375.3491,191.625 1374.6616,190.5625 Q1373.9741,189.4844 1373.9741,188.2031 L1373.9741,187.0469 Q1373.9741,185.7188 1374.5835,184.5781 Q1375.2085,183.4219 1376.3022,182.8125 Q1377.396,182.1875 1378.6304,182.1875 Q1379.3647,182.1875 1380.0054,182.3594 Q1380.6616,182.5156 1381.2085,182.875 Z " fill="#000000"/><text fill="#000000" font-family="sans-serif" font-size="14" lengthAdjust="spacing" textLength="175.0889" x="1398.9429" y="192.7969">SurfaceInterfaceStressState</text><line style="stroke:#181818;stroke-width:0.5;" x1="1324" x2="1616.4746" y1="203" y2="203"/><line style="stroke:#181818;stroke-width:0.5;" x1="1324" x2="1616.4746" y1="211" y2="211"/><ellipse cx="1334" cy="225.8105" fill="#84BE84" rx="3" ry="3" style="stroke:#038048;stroke-width:1;"/><text fill="#000000" font-family="sans-serif" font-size="14" lengthAdjust="spacing" textLength="157.1377" x="1343" y="230.1074">Matrix CalculateBMatrix()</text><ellipse cx="1334" cy="244.4316" fill="#84BE84" rx="3" ry="3" style="stroke:#038048;stroke-width:1;"/><text fill="#000000" font-family="sans-serif" font-size="14" lengthAdjust="spacing" textLength="246.6885" x="1343" y="248.7285">Vector CalculateGreenLagrangeStrain()</text><ellipse cx="1334" cy="263.0527" fill="#84BE84" rx="3" ry="3" style="stroke:#038048;stroke-width:1;"/><text fill="#000000" font-family="sans-serif" font-size="14" lengthAdjust="spacing" textLength="268.4746" x="1343" y="267.3496">std::unique_ptr&lt;StressStatePolicy&gt; Clone()</text></g><!--reverse link StressStatePolicy to ThreeDimensionalStressState--><g class="link" data-entity-1="StressStatePolicy" data-entity-2="ThreeDimensionalStressState" data-source-line="39" data-uid="lnk8" id="link_StressStatePolicy_ThreeDimensionalStressState"><path codeLine="39" d="M647.1871,93.543 C548.5671,114.333 433.7,140.06 318,171 C312.53,172.46 306.96,173.99 301.35,175.56" fill="none" id="StressStatePolicy-backto-ThreeDimensionalStressState" style="stroke:#181818;stroke-width:1;"/><polygon fill="none" points="664.8,89.83,645.9495,87.672,648.4248,99.4139,664.8,89.83" style="stroke:#181818;stroke-width:1;"/></g><!--reverse link StressStatePolicy to PlaneStrainStressState--><g class="link" data-entity-1="StressStatePolicy" data-entity-2="PlaneStrainStressState" data-source-line="40" data-uid="lnk9" id="link_StressStatePolicy_PlaneStrainStressState"><path codeLine="40" d="M692.2007,118.9898 C653.4007,138.0898 625.49,151.84 586.69,170.94" fill="none" id="StressStatePolicy-backto-PlaneStrainStressState" style="stroke:#181818;stroke-width:1;"/><polygon fill="none" points="708.35,111.04,689.5507,113.6067,694.8506,124.3729,708.35,111.04" style="stroke:#181818;stroke-width:1;"/></g><!--reverse link StressStatePolicy to AxisymmetricStressState--><g class="link" data-entity-1="StressStatePolicy" data-entity-2="AxisymmetricStressState" data-source-line="41" data-uid="lnk10" id="link_StressStatePolicy_AxisymmetricStressState"><path codeLine="41" d="M812,129.26 C812,148.26 812,151.8 812,170.8" fill="none" id="StressStatePolicy-backto-AxisymmetricStressState" style="stroke:#181818;stroke-width:1;"/><polygon fill="none" points="812,111.26,806,129.26,818,129.26,812,111.26" style="stroke:#181818;stroke-width:1;"/></g><!--reverse link StressStatePolicy to Line2DInterfaceStressState--><g class="link" data-entity-1="StressStatePolicy" data-entity-2="Line2DInterfaceStressState" data-source-line="42" data-uid="lnk11" id="link_StressStatePolicy_Line2DInterfaceStressState"><path codeLine="42" d="M931.7993,118.9898 C970.5993,138.0898 998.51,151.84 1037.31,170.94" fill="none" id="StressStatePolicy-backto-Line2DInterfaceStressState" style="stroke:#181818;stroke-width:1;"/><polygon fill="none" points="915.65,111.04,929.1494,124.3729,934.4493,113.6067,915.65,111.04" style="stroke:#181818;stroke-width:1;"/></g><!--reverse link StressStatePolicy to SurfaceInterfaceStressState--><g class="link" data-entity-1="StressStatePolicy" data-entity-2="SurfaceInterfaceStressState" data-source-line="43" data-uid="lnk12" id="link_StressStatePolicy_SurfaceInterfaceStressState"><path codeLine="43" d="M976.8129,93.543 C1075.4329,114.333 1190.3,140.06 1306,171 C1311.47,172.46 1317.04,173.99 1322.65,175.56" fill="none" id="StressStatePolicy-backto-SurfaceInterfaceStressState" style="stroke:#181818;stroke-width:1;"/><polygon fill="none" points="959.2,89.83,975.5752,99.4139,978.0505,87.672,959.2,89.83" style="stroke:#181818;stroke-width:1;"/></g><!--SRC=[pPDD2y8m38Rl-nKzAhABHn713n11GPXubLYZ5hfCsmoKkVzkSKF5sQ6tNSlp9WzD0blB1YGBgS5Q4R51QoC6ncMYbRoAB12Yaq69vM81RDH5Z47BL3jiL3oqsX_S6YKdviLD3IBDuM203kZQWA9AnlAkrqj9dLFSdDZqApO3CTO9eGi6UH0KogkZgpnHCP9L2O5-2nNojSO_Q_xXzbHRQg2oI8EiXXTbht6ChfriaDPS4NOdCs8qUv3O8BCeVHWrIwrwgVrR6DPTWo_oVKjzj6TxVBX_ghv4pM_V0G00]--></g></svg>