<svg xmlns="http://www.w3.org/2000/svg" xmlns:xlink="http://www.w3.org/1999/xlink" contentStyleType="text/css" data-diagram-type="CLASS" height="282px" preserveAspectRatio="none" style="width:1148px;height:282px;background:#FFFFFF;" version="1.1" viewBox="0 0 1148 282" width="1148px" zoomAndPan="magnify"><defs/><g><!--class StressStatePolicy--><g class="entity" data-entity="StressStatePolicy" data-source-line="2" data-uid="ent0002" id="entity_StressStatePolicy"><rect fill="#F1F1F1" height="159.7266" rx="2.5" ry="2.5" style="stroke:#181818;stroke-width:0.5;" width="294.4746" x="420" y="7"/><ellipse cx="508.1323" cy="23" fill="#A9DCDF" rx="11" ry="11" style="stroke:#181818;stroke-width:1;"/><path d="M510.3198,24.7656 L506.1792,24.7656 L505.7573,25.7969 L506.1792,25.7969 Q506.7886,25.7969 507.0542,26.0313 Q507.3198,26.2656 507.3198,26.6563 Q507.3198,27.0313 507.0542,27.2656 Q506.7886,27.5 506.1792,27.5 L503.8823,27.5 Q503.2729,27.5 503.0229,27.2656 Q502.7573,27.0313 502.7573,26.6406 Q502.7573,26.2656 503.0386,26.0313 Q503.3042,25.7813 503.9292,25.7969 L506.6011,19.1406 L505.4917,19.1406 Q504.8823,19.1406 504.6167,18.9063 Q504.3511,18.6719 504.3511,18.2813 Q504.3511,17.9063 504.6167,17.6719 Q504.8823,17.4375 505.4917,17.4375 L509.1636,17.4375 L512.5542,25.7969 Q513.1479,25.7969 513.3354,25.9375 Q513.7261,26.2031 513.7261,26.6563 Q513.7261,27.0313 513.4604,27.2656 Q513.2104,27.5 512.6011,27.5 L510.3042,27.5 Q509.6948,27.5 509.4292,27.2656 Q509.1636,27.0313 509.1636,26.6406 Q509.1636,26.2656 509.4292,26.0313 Q509.6948,25.7969 510.3042,25.7969 L510.7261,25.7969 L510.3198,24.7656 Z M509.6011,23.0625 L508.2417,19.6875 L506.8667,23.0625 L509.6011,23.0625 Z " fill="#000000"/><text fill="#000000" font-family="sans-serif" font-size="14" font-style="italic" lengthAdjust="spacing" textLength="109.71" x="528.6323" y="28.7969">StressStatePolicy</text><line style="stroke:#181818;stroke-width:0.5;" x1="421" x2="713.4746" y1="39" y2="39"/><line style="stroke:#181818;stroke-width:0.5;" x1="421" x2="713.4746" y1="47" y2="47"/><ellipse cx="431" cy="61.8105" fill="#84BE84" rx="3" ry="3" style="stroke:#038048;stroke-width:1;"/><text fill="#000000" font-family="sans-serif" font-size="14" font-style="italic" lengthAdjust="spacing" textLength="157.1377" x="440" y="66.1074">Matrix CalculateBMatrix()</text><ellipse cx="431" cy="80.4316" fill="#84BE84" rx="3" ry="3" style="stroke:#038048;stroke-width:1;"/><text fill="#000000" font-family="sans-serif" font-size="14" font-style="italic" lengthAdjust="spacing" textLength="246.6885" x="440" y="84.7285">Vector CalculateGreenLagrangeStrain()</text><ellipse cx="431" cy="99.0527" fill="#84BE84" rx="3" ry="3" style="stroke:#038048;stroke-width:1;"/><text fill="#000000" font-family="sans-serif" font-size="14" font-style="italic" lengthAdjust="spacing" textLength="268.4746" x="440" y="103.3496">std::unique_ptr&lt;StressStatePolicy&gt; Clone()</text><ellipse cx="431" cy="117.6738" fill="#84BE84" rx="3" ry="3" style="stroke:#038048;stroke-width:1;"/><text fill="#000000" font-family="sans-serif" font-size="14" font-style="italic" lengthAdjust="spacing" textLength="195.3027" x="440" y="121.9707">const Vector&amp; GetVoigtVector()</text><ellipse cx="431" cy="136.2949" fill="#84BE84" rx="3" ry="3" style="stroke:#038048;stroke-width:1;"/><text fill="#000000" font-family="sans-serif" font-size="14" font-style="italic" lengthAdjust="spacing" textLength="153.2822" x="440" y="140.5918">SizeType GetVoigtSize()</text><ellipse cx="431" cy="154.916" fill="#84BE84" rx="3" ry="3" style="stroke:#038048;stroke-width:1;"/><text fill="#000000" font-family="sans-serif" font-size="14" font-style="italic" lengthAdjust="spacing" textLength="204.6201" x="440" y="159.2129">SizeType GetStressTensorSize()</text></g><!--class ThreeDimensionalStressState--><g class="entity" data-entity="ThreeDimensionalStressState" data-source-line="11" data-uid="ent0003" id="entity_ThreeDimensionalStressState"><rect fill="#F1F1F1" height="48" rx="2.5" ry="2.5" style="stroke:#181818;stroke-width:0.5;" width="217.9717" x="7" y="227"/><ellipse cx="22" cy="243" fill="#ADD1B2" rx="11" ry="11" style="stroke:#181818;stroke-width:1;"/><path d="M24.7656,238.875 Q24.9219,238.6563 25.1094,238.5469 Q25.2969,238.4375 25.5156,238.4375 Q25.8906,238.4375 26.125,238.7031 Q26.3594,238.9531 26.3594,239.5625 L26.3594,241.0156 Q26.3594,241.625 26.125,241.8906 Q25.8906,242.1563 25.5156,242.1563 Q25.1719,242.1563 24.9688,241.9531 Q24.7656,241.7656 24.6563,241.25 Q24.6094,240.8906 24.4219,240.7031 Q24.0938,240.3281 23.4844,240.1094 Q22.875,239.8906 22.25,239.8906 Q21.4844,239.8906 20.8438,240.2188 Q20.2188,240.5469 19.7188,241.2969 Q19.2344,242.0469 19.2344,243.0781 L19.2344,244.1719 Q19.2344,245.4063 20.125,246.2344 Q21.0156,247.0469 22.6094,247.0469 Q23.5469,247.0469 24.2031,246.7969 Q24.5938,246.6406 25.0156,246.2031 Q25.2813,245.9375 25.4219,245.8594 Q25.5781,245.7813 25.7813,245.7813 Q26.1094,245.7813 26.3594,246.0469 Q26.625,246.2969 26.625,246.6406 Q26.625,246.9844 26.2813,247.3906 Q25.7813,247.9688 24.9844,248.2969 Q23.9063,248.75 22.6094,248.75 Q21.0938,248.75 19.8906,248.125 Q18.9063,247.625 18.2188,246.5625 Q17.5313,245.4844 17.5313,244.2031 L17.5313,243.0469 Q17.5313,241.7188 18.1406,240.5781 Q18.7656,239.4219 19.8594,238.8125 Q20.9531,238.1875 22.1875,238.1875 Q22.9219,238.1875 23.5625,238.3594 Q24.2188,238.5156 24.7656,238.875 Z " fill="#000000"/><text fill="#000000" font-family="sans-serif" font-size="14" lengthAdjust="spacing" textLength="185.9717" x="36" y="248.7969">ThreeDimensionalStressState</text><line style="stroke:#181818;stroke-width:0.5;" x1="8" x2="223.9717" y1="259" y2="259"/><line style="stroke:#181818;stroke-width:0.5;" x1="8" x2="223.9717" y1="267" y2="267"/></g><!--class PlaneStrainStressState--><g class="entity" data-entity="PlaneStrainStressState" data-source-line="12" data-uid="ent0004" id="entity_PlaneStrainStressState"><rect fill="#F1F1F1" height="48" rx="2.5" ry="2.5" style="stroke:#181818;stroke-width:0.5;" width="176.7441" x="260.5" y="227"/><ellipse cx="275.5" cy="243" fill="#ADD1B2" rx="11" ry="11" style="stroke:#181818;stroke-width:1;"/><path d="M278.2656,238.875 Q278.4219,238.6563 278.6094,238.5469 Q278.7969,238.4375 279.0156,238.4375 Q279.3906,238.4375 279.625,238.7031 Q279.8594,238.9531 279.8594,239.5625 L279.8594,241.0156 Q279.8594,241.625 279.625,241.8906 Q279.3906,242.1563 279.0156,242.1563 Q278.6719,242.1563 278.4688,241.9531 Q278.2656,241.7656 278.1563,241.25 Q278.1094,240.8906 277.9219,240.7031 Q277.5938,240.3281 276.9844,240.1094 Q276.375,239.8906 275.75,239.8906 Q274.9844,239.8906 274.3438,240.2188 Q273.7188,240.5469 273.2188,241.2969 Q272.7344,242.0469 272.7344,243.0781 L272.7344,244.1719 Q272.7344,245.4063 273.625,246.2344 Q274.5156,247.0469 276.1094,247.0469 Q277.0469,247.0469 277.7031,246.7969 Q278.0938,246.6406 278.5156,246.2031 Q278.7813,245.9375 278.9219,245.8594 Q279.0781,245.7813 279.2813,245.7813 Q279.6094,245.7813 279.8594,246.0469 Q280.125,246.2969 280.125,246.6406 Q280.125,246.9844 279.7813,247.3906 Q279.2813,247.9688 278.4844,248.2969 Q277.4063,248.75 276.1094,248.75 Q274.5938,248.75 273.3906,248.125 Q272.4063,247.625 271.7188,246.5625 Q271.0313,245.4844 271.0313,244.2031 L271.0313,243.0469 Q271.0313,241.7188 271.6406,240.5781 Q272.2656,239.4219 273.3594,238.8125 Q274.4531,238.1875 275.6875,238.1875 Q276.4219,238.1875 277.0625,238.3594 Q277.7188,238.5156 278.2656,238.875 Z " fill="#000000"/><text fill="#000000" font-family="sans-serif" font-size="14" lengthAdjust="spacing" textLength="144.7441" x="289.5" y="248.7969">PlaneStrainStressState</text><line style="stroke:#181818;stroke-width:0.5;" x1="261.5" x2="436.2441" y1="259" y2="259"/><line style="stroke:#181818;stroke-width:0.5;" x1="261.5" x2="436.2441" y1="267" y2="267"/></g><!--class AxisymmetricStressState--><g class="entity" data-entity="AxisymmetricStressState" data-source-line="13" data-uid="ent0005" id="entity_AxisymmetricStressState"><rect fill="#F1F1F1" height="48" rx="2.5" ry="2.5" style="stroke:#181818;stroke-width:0.5;" width="187.5859" x="473" y="227"/><ellipse cx="488" cy="243" fill="#ADD1B2" rx="11" ry="11" style="stroke:#181818;stroke-width:1;"/><path d="M490.7656,238.875 Q490.9219,238.6563 491.1094,238.5469 Q491.2969,238.4375 491.5156,238.4375 Q491.8906,238.4375 492.125,238.7031 Q492.3594,238.9531 492.3594,239.5625 L492.3594,241.0156 Q492.3594,241.625 492.125,241.8906 Q491.8906,242.1563 491.5156,242.1563 Q491.1719,242.1563 490.9688,241.9531 Q490.7656,241.7656 490.6563,241.25 Q490.6094,240.8906 490.4219,240.7031 Q490.0938,240.3281 489.4844,240.1094 Q488.875,239.8906 488.25,239.8906 Q487.4844,239.8906 486.8438,240.2188 Q486.2188,240.5469 485.7188,241.2969 Q485.2344,242.0469 485.2344,243.0781 L485.2344,244.1719 Q485.2344,245.4063 486.125,246.2344 Q487.0156,247.0469 488.6094,247.0469 Q489.5469,247.0469 490.2031,246.7969 Q490.5938,246.6406 491.0156,246.2031 Q491.2813,245.9375 491.4219,245.8594 Q491.5781,245.7813 491.7813,245.7813 Q492.1094,245.7813 492.3594,246.0469 Q492.625,246.2969 492.625,246.6406 Q492.625,246.9844 492.2813,247.3906 Q491.7813,247.9688 490.9844,248.2969 Q489.9063,248.75 488.6094,248.75 Q487.0938,248.75 485.8906,248.125 Q484.9063,247.625 484.2188,246.5625 Q483.5313,245.4844 483.5313,244.2031 L483.5313,243.0469 Q483.5313,241.7188 484.1406,240.5781 Q484.7656,239.4219 485.8594,238.8125 Q486.9531,238.1875 488.1875,238.1875 Q488.9219,238.1875 489.5625,238.3594 Q490.2188,238.5156 490.7656,238.875 Z " fill="#000000"/><text fill="#000000" font-family="sans-serif" font-size="14" lengthAdjust="spacing" textLength="155.5859" x="502" y="248.7969">AxisymmetricStressState</text><line style="stroke:#181818;stroke-width:0.5;" x1="474" x2="659.5859" y1="259" y2="259"/><line style="stroke:#181818;stroke-width:0.5;" x1="474" x2="659.5859" y1="267" y2="267"/></g><!--class Line2DInterfaceStressState--><g class="entity" data-entity="Line2DInterfaceStressState" data-source-line="14" data-uid="ent0006" id="entity_Line2DInterfaceStressState"><rect fill="#F1F1F1" height="48" rx="2.5" ry="2.5" style="stroke:#181818;stroke-width:0.5;" width="203.2061" x="696.5" y="227"/><ellipse cx="711.5" cy="243" fill="#ADD1B2" rx="11" ry="11" style="stroke:#181818;stroke-width:1;"/><path d="M714.2656,238.875 Q714.4219,238.6563 714.6094,238.5469 Q714.7969,238.4375 715.0156,238.4375 Q715.3906,238.4375 715.625,238.7031 Q715.8594,238.9531 715.8594,239.5625 L715.8594,241.0156 Q715.8594,241.625 715.625,241.8906 Q715.3906,242.1563 715.0156,242.1563 Q714.6719,242.1563 714.4688,241.9531 Q714.2656,241.7656 714.1563,241.25 Q714.1094,240.8906 713.9219,240.7031 Q713.5938,240.3281 712.9844,240.1094 Q712.375,239.8906 711.75,239.8906 Q710.9844,239.8906 710.3438,240.2188 Q709.7188,240.5469 709.2188,241.2969 Q708.7344,242.0469 708.7344,243.0781 L708.7344,244.1719 Q708.7344,245.4063 709.625,246.2344 Q710.5156,247.0469 712.1094,247.0469 Q713.0469,247.0469 713.7031,246.7969 Q714.0938,246.6406 714.5156,246.2031 Q714.7813,245.9375 714.9219,245.8594 Q715.0781,245.7813 715.2813,245.7813 Q715.6094,245.7813 715.8594,246.0469 Q716.125,246.2969 716.125,246.6406 Q716.125,246.9844 715.7813,247.3906 Q715.2813,247.9688 714.4844,248.2969 Q713.4063,248.75 712.1094,248.75 Q710.5938,248.75 709.3906,248.125 Q708.4063,247.625 707.7188,246.5625 Q707.0313,245.4844 707.0313,244.2031 L707.0313,243.0469 Q707.0313,241.7188 707.6406,240.5781 Q708.2656,239.4219 709.3594,238.8125 Q710.4531,238.1875 711.6875,238.1875 Q712.4219,238.1875 713.0625,238.3594 Q713.7188,238.5156 714.2656,238.875 Z " fill="#000000"/><text fill="#000000" font-family="sans-serif" font-size="14" lengthAdjust="spacing" textLength="171.2061" x="725.5" y="248.7969">Line2DInterfaceStressState</text><line style="stroke:#181818;stroke-width:0.5;" x1="697.5" x2="898.7061" y1="259" y2="259"/><line style="stroke:#181818;stroke-width:0.5;" x1="697.5" x2="898.7061" y1="267" y2="267"/></g><!--class SurfaceInterfaceStressState--><g class="entity" data-entity="SurfaceInterfaceStressState" data-source-line="16" data-uid="ent0007" id="entity_SurfaceInterfaceStressState"><rect fill="#F1F1F1" height="48" rx="2.5" ry="2.5" style="stroke:#181818;stroke-width:0.5;" width="207.0889" x="934.5" y="227"/><ellipse cx="949.5" cy="243" fill="#ADD1B2" rx="11" ry="11" style="stroke:#181818;stroke-width:1;"/><path d="M952.2656,238.875 Q952.4219,238.6563 952.6094,238.5469 Q952.7969,238.4375 953.0156,238.4375 Q953.3906,238.4375 953.625,238.7031 Q953.8594,238.9531 953.8594,239.5625 L953.8594,241.0156 Q953.8594,241.625 953.625,241.8906 Q953.3906,242.1563 953.0156,242.1563 Q952.6719,242.1563 952.4688,241.9531 Q952.2656,241.7656 952.1563,241.25 Q952.1094,240.8906 951.9219,240.7031 Q951.5938,240.3281 950.9844,240.1094 Q950.375,239.8906 949.75,239.8906 Q948.9844,239.8906 948.3438,240.2188 Q947.7188,240.5469 947.2188,241.2969 Q946.7344,242.0469 946.7344,243.0781 L946.7344,244.1719 Q946.7344,245.4063 947.625,246.2344 Q948.5156,247.0469 950.1094,247.0469 Q951.0469,247.0469 951.7031,246.7969 Q952.0938,246.6406 952.5156,246.2031 Q952.7813,245.9375 952.9219,245.8594 Q953.0781,245.7813 953.2813,245.7813 Q953.6094,245.7813 953.8594,246.0469 Q954.125,246.2969 954.125,246.6406 Q954.125,246.9844 953.7813,247.3906 Q953.2813,247.9688 952.4844,248.2969 Q951.4063,248.75 950.1094,248.75 Q948.5938,248.75 947.3906,248.125 Q946.4063,247.625 945.7188,246.5625 Q945.0313,245.4844 945.0313,244.2031 L945.0313,243.0469 Q945.0313,241.7188 945.6406,240.5781 Q946.2656,239.4219 947.3594,238.8125 Q948.4531,238.1875 949.6875,238.1875 Q950.4219,238.1875 951.0625,238.3594 Q951.7188,238.5156 952.2656,238.875 Z " fill="#000000"/><text fill="#000000" font-family="sans-serif" font-size="14" lengthAdjust="spacing" textLength="175.0889" x="963.5" y="248.7969">SurfaceInterfaceStressState</text><line style="stroke:#181818;stroke-width:0.5;" x1="935.5" x2="1140.5889" y1="259" y2="259"/><line style="stroke:#181818;stroke-width:0.5;" x1="935.5" x2="1140.5889" y1="267" y2="267"/></g><!--reverse link StressStatePolicy to ThreeDimensionalStressState--><g class="link" data-entity-1="StressStatePolicy" data-entity-2="ThreeDimensionalStressState" data-source-line="18" data-uid="lnk8" id="link_StressStatePolicy_ThreeDimensionalStressState"><path codeLine="18" d="M403.0096,146.9047 C321.9096,176.0347 242.28,204.64 180.11,226.97" fill="none" id="StressStatePolicy-backto-ThreeDimensionalStressState" style="stroke:#181818;stroke-width:1;"/><polygon fill="none" points="419.95,140.82,400.9814,141.258,405.0379,152.5515,419.95,140.82" style="stroke:#181818;stroke-width:1;"/></g><!--reverse link StressStatePolicy to PlaneStrainStressState--><g class="link" data-entity-1="StressStatePolicy" data-entity-2="PlaneStrainStressState" data-source-line="19" data-uid="lnk9" id="link_StressStatePolicy_PlaneStrainStressState"><path codeLine="19" d="M446.1047,177.8394 C416.7147,199.6894 401.51,210.98 380.18,226.83" fill="none" id="StressStatePolicy-backto-PlaneStrainStressState" style="stroke:#181818;stroke-width:1;"/><polygon fill="none" points="460.55,167.1,442.5249,173.0243,449.6845,182.6544,460.55,167.1" style="stroke:#181818;stroke-width:1;"/></g><!--reverse link StressStatePolicy to AxisymmetricStressState--><g class="link" data-entity-1="StressStatePolicy" data-entity-2="AxisymmetricStressState" data-source-line="20" data-uid="lnk10" id="link_StressStatePolicy_AxisymmetricStressState"><path codeLine="20" d="M567,185.1 C567,206.95 567,210.98 567,226.83" fill="none" id="StressStatePolicy-backto-AxisymmetricStressState" style="stroke:#181818;stroke-width:1;"/><polygon fill="none" points="567,167.1,561,185.1,573,185.1,567,167.1" style="stroke:#181818;stroke-width:1;"/></g><!--reverse link StressStatePolicy to Line2DInterfaceStressState--><g class="link" data-entity-1="StressStatePolicy" data-entity-2="Line2DInterfaceStressState" data-source-line="21" data-uid="lnk11" id="link_StressStatePolicy_Line2DInterfaceStressState"><path codeLine="21" d="M694.5262,177.4366 C725.6762,199.2866 742.36,210.98 764.96,226.83" fill="none" id="StressStatePolicy-backto-Line2DInterfaceStressState" style="stroke:#181818;stroke-width:1;"/><polygon fill="none" points="679.79,167.1,691.0806,182.3487,697.9717,172.5245,679.79,167.1" style="stroke:#181818;stroke-width:1;"/></g><!--reverse link StressStatePolicy to SurfaceInterfaceStressState--><g class="link" data-entity-1="StressStatePolicy" data-entity-2="SurfaceInterfaceStressState" data-source-line="22" data-uid="lnk12" id="link_StressStatePolicy_SurfaceInterfaceStressState"><path codeLine="22" d="M731.1113,144.4446 C817.0813,174.0146 904.41,204.05 971.01,226.96" fill="none" id="StressStatePolicy-backto-SurfaceInterfaceStressState" style="stroke:#181818;stroke-width:1;"/><polygon fill="none" points="714.09,138.59,729.1597,150.1183,733.0628,138.7708,714.09,138.59" style="stroke:#181818;stroke-width:1;"/></g><!--SRC=[VP51Qm8n48Nl-ojoAYt5YqUHGgiWWeAmYzSoJQVhG7QYoIoujVxtfjtGYZ5xpBplCUzDuCsB0orA6_1UbUBG-r90S6CDwKwT2gKUJn2nirg3E3gg6HZTce2zz8FxXojkYrgi- -SM3f5NK3lW6iCQ84uyNjudavRfqEBhNjmqIVEaPiOo9aPjsKjSUQSMA5jBjVJl12xf4wjkZt_Sps2GwdDKoDww29-BehzOjGl5vjG4aIo3kSWSYOq1ZerJyVb8lciQ33VKgReYnl5yoOBk0pHU0f4esr_bDfB-vlHhD1gCdB5aEcJeNAaCFj0ounXe_Gq0]--></g></svg>