<svg width="1280" height="720" xmlns="http://www.w3.org/2000/svg" xmlns:xlink="http://www.w3.org/1999/xlink" overflow="hidden"><g><rect x="0" y="0" width="1280" height="720" fill="#FFFFFF"/><path d="M454 93.5 614 48 774 93.5 614 139Z" stroke="#042433" stroke-width="2" stroke-miterlimit="8" fill="none" fill-rule="evenodd"/><text font-family="Aptos,Aptos_MSFontService,sans-serif" font-weight="400" font-size="24" transform="translate(568.414 87)">Map trial</text><text font-family="Aptos,Aptos_MSFontService,sans-serif" font-weight="400" font-size="24" transform="translate(570.068 116)">stresses</text><rect x="454" y="192" width="326" height="58" stroke="#042433" stroke-width="2" stroke-miterlimit="8" fill="none"/><text font-family="Aptos,Aptos_MSFontService,sans-serif" font-weight="400" font-size="24" transform="translate(558.853 228)">Calculate</text><text font-family="Aptos,Aptos_MSFontService,sans-serif" font-style="italic" font-weight="400" font-size="24" transform="translate(664.519 228)">Î»</text><rect x="454" y="298" width="326" height="57" stroke="#042433" stroke-width="2" stroke-miterlimit="8" fill="none"/><text font-family="Aptos,Aptos_MSFontService,sans-serif" font-weight="400" font-size="24" transform="translate(509.849 334)">Update</text><text font-family="Aptos,Aptos_MSFontService,sans-serif" font-weight="400" font-size="24" transform="translate(591.016 334)">plastic</text><text font-family="Aptos,Aptos_MSFontService,sans-serif" font-weight="400" font-size="24" transform="translate(666.043 334)">strai</text><text font-family="Aptos,Aptos_MSFontService,sans-serif" font-weight="400" font-size="24" transform="translate(711.189 334)">n</text><rect x="454" y="403" width="326" height="58" stroke="#042433" stroke-width="2" stroke-miterlimit="8" fill="none"/><text font-family="Aptos,Aptos_MSFontService,sans-serif" font-weight="400" font-size="24" transform="translate(570.686 440)">Update</text><text font-family="Aptos,Aptos_MSFontService,sans-serif" font-style="italic" font-weight="400" font-size="24" transform="translate(651.853 440)">Îº</text><rect x="454" y="509" width="326" height="57" stroke="#042433" stroke-width="2" stroke-miterlimit="8" fill="none"/><text font-family="Aptos,Aptos_MSFontService,sans-serif" font-weight="400" font-size="24" transform="translate(471.303 545)">Update material parameters</text><rect x="454" y="614" width="326" height="58" stroke="#042433" stroke-width="2" stroke-miterlimit="8" fill="none"/><text font-family="Aptos,Aptos_MSFontService,sans-serif" font-weight="400" font-size="24" transform="translate(479.296 651)">Compute yield surface</text><text font-family="Aptos,Aptos_MSFontService,sans-serif" font-style="italic" font-weight="400" font-size="24" transform="translate(718.076 651)">F</text><text font-family="Aptos,Aptos_MSFontService,sans-serif" font-style="italic" font-weight="400" font-size="16" transform="translate(731.076 656)">MC</text><path d="M592 166 604.75 166 604.75 149 630.25 149 630.25 166 643 166 617.5 183Z" stroke="#042433" stroke-width="2" stroke-miterlimit="8" fill="none" fill-rule="evenodd"/><path d="M591 271.5 603.75 271.5 603.75 254 629.25 254 629.25 271.5 642 271.5 616.5 289Z" stroke="#042433" stroke-width="2" stroke-miterlimit="8" fill="none" fill-rule="evenodd"/><path d="M591 377 603.75 377 603.75 360 629.25 360 629.25 377 642 377 616.5 394Z" stroke="#042433" stroke-width="2" stroke-miterlimit="8" fill="none" fill-rule="evenodd"/><path d="M591 483 603.75 483 603.75 466 629.25 466 629.25 483 642 483 616.5 500Z" stroke="#042433" stroke-width="2" stroke-miterlimit="8" fill="none" fill-rule="evenodd"/><path d="M591 588.5 603.75 588.5 603.75 571 629.25 571 629.25 588.5 642 588.5 616.5 606Z" stroke="#042433" stroke-width="2" stroke-miterlimit="8" fill="none" fill-rule="evenodd"/><path d="M795.574 93.0366 798.959 93.4386 806.539 95.2166 813.983 97.6708 821.291 100.785 828.454 104.54 835.463 108.918 842.307 113.9 848.979 119.469 855.469 125.605 861.768 132.291 867.867 139.51 873.758 147.244 879.432 155.476 884.879 164.187 890.092 173.362 895.06 182.982 899.774 193.03 904.227 203.489 908.407 214.342 912.306 225.571 915.918 237.167 922.227 261.345 927.265 286.76 930.957 313.266 933.226 340.719 933.805 354.77 934 369.006 933.301 395.86 931.244 422.02 927.893 447.358 923.309 471.748 917.556 495.067 910.695 517.19 902.79 537.986 898.46 547.863 893.895 557.355 889.099 566.455 884.08 575.149 878.845 583.419 873.401 591.251 867.757 598.629 861.92 605.537 855.896 611.96 849.693 617.882 843.32 623.286 836.782 628.156 830.087 632.478 823.244 636.232 816.26 639.404 809.143 641.977 801.901 643.933 794.588 645.248 794.234 643.28 801.505 641.972 801.421 641.991 808.581 640.057 808.502 640.082 815.542 637.537 815.469 637.567 822.383 634.427 822.315 634.461 829.094 630.741 829.033 630.778 835.669 626.494 835.614 626.533 842.099 621.701 842.05 621.74 848.377 616.375 848.334 616.415 854.495 610.533 854.456 610.572 860.443 604.188 860.409 604.227 866.214 597.357 866.183 597.395 871.799 590.054 871.772 590.091 877.19 582.295 877.167 582.331 882.379 574.096 882.358 574.131 887.358 565.472 887.339 565.506 892.117 556.439 892.101 556.471 896.65 547.011 896.636 547.043 900.949 537.206 900.93 537.252 908.814 516.509 908.794 516.568 915.637 494.502 915.621 494.559 921.361 471.296 921.349 471.351 925.922 447.015 925.914 447.068 929.258 421.784 929.252 421.837 931.305 395.729 931.302 395.781 932 368.974 932 369.014 931.806 354.811 931.806 354.838 931.229 340.822 931.232 340.863 928.966 313.459 928.972 313.514 925.288 287.064 925.298 287.12 920.271 261.763 920.284 261.821 913.989 237.694 914.001 237.739 910.402 226.181 910.412 226.212 906.523 215.014 906.535 215.045 902.366 204.224 902.38 204.256 897.941 193.83 897.956 193.863 893.257 183.849 893.274 183.883 888.324 174.297 888.343 174.333 883.151 165.194 883.173 165.23 877.748 156.555 877.773 156.592 872.125 148.399 872.153 148.437 866.291 140.742 866.323 140.782 860.257 133.603 860.293 133.643 854.033 126.997 854.073 127.038 847.627 120.943 847.674 120.984 841.051 115.457 841.104 115.498 834.315 110.556 834.373 110.596 827.427 106.257 827.492 106.294 820.398 102.575 820.47 102.609 813.237 99.5273 813.316 99.5571 805.954 97.1299 806.039 97.1537 798.557 95.3985 798.668 95.418 795.338 95.0226ZM796.212 100.786 783.5 93 797.356 87.5019Z" fill="#156082"/><path d="M921.063 609.931 922.868 609.931 922.868 631.739 921.063 631.739ZM873.67 609.931 875.475 609.931 875.475 631.739 873.67 631.739Z" fill-rule="evenodd"/><text font-family="Cambria Math,Cambria Math_MSFontService,sans-serif" font-weight="400" font-size="24" transform="translate(878.369 628)">ğ¹</text><text font-family="Cambria Math,Cambria Math_MSFontService,sans-serif" font-weight="400" font-size="17.52" transform="translate(890.409 633)">ğ‘€ğ¶</text><text font-family="Aptos,Aptos_MSFontService,sans-serif" font-weight="400" font-size="24" transform="translate(925.762 628)">&gt;</text><text font-family="Aptos,Aptos_MSFontService,sans-serif" font-weight="400" font-size="24" transform="translate(943.429 628)">Îµ</text></g></svg>