<svg xmlns="http://www.w3.org/2000/svg" xmlns:xlink="http://www.w3.org/1999/xlink" contentStyleType="text/css" data-diagram-type="ACTIVITY" height="506px" preserveAspectRatio="none" style="width:292px;height:506px;background:#FFFFFF;" version="1.1" viewBox="0 0 292 506" width="292px" zoomAndPan="magnify"><defs/><g><ellipse cx="137.3406" cy="20" fill="#222222" rx="10" ry="10" style="stroke:#222222;stroke-width:1;"/><rect fill="#F1F1F1" height="33.9688" rx="12.5" ry="12.5" style="stroke:#181818;stroke-width:0.5;" width="83.3223" x="95.6794" y="50"/><text fill="#000000" font-family="sans-serif" font-size="12" lengthAdjust="spacing" textLength="63.3223" x="105.6794" y="71.1387">n_iter = 0;</text><rect fill="#F1F1F1" height="33.9688" rx="12.5" ry="12.5" style="stroke:#181818;stroke-width:0.5;" width="89.334" x="92.6736" y="147.9688"/><text fill="#000000" font-family="sans-serif" font-size="12" lengthAdjust="spacing" textLength="69.334" x="102.6736" y="169.1074">n_iter += 1</text><rect fill="#F1F1F1" height="33.9688" rx="12.5" ry="12.5" style="stroke:#181818;stroke-width:0.5;" width="200.6152" x="37.033" y="201.9375"/><text fill="#000000" font-family="sans-serif" font-size="12" lengthAdjust="spacing" textLength="180.6152" x="47.033" y="223.0762">Calculate &#955;, Map trial stresses</text><rect fill="#F1F1F1" height="33.9688" rx="12.5" ry="12.5" style="stroke:#181818;stroke-width:0.5;" width="209.5156" x="32.5828" y="255.9063"/><text fill="#000000" font-family="sans-serif" font-size="12" lengthAdjust="spacing" textLength="189.5156" x="42.5828" y="277.0449">Update plastic strain increment</text><rect fill="#F1F1F1" height="33.9688" rx="12.5" ry="12.5" style="stroke:#181818;stroke-width:0.5;" width="222.5879" x="26.0466" y="309.875"/><text fill="#000000" font-family="sans-serif" font-size="12" lengthAdjust="spacing" textLength="202.5879" x="36.0466" y="331.0137">Update equivalent plastic strain &#954;</text><rect fill="#F1F1F1" height="33.9688" rx="12.5" ry="12.5" style="stroke:#181818;stroke-width:0.5;" width="144.207" x="65.2371" y="363.8438"/><text fill="#000000" font-family="sans-serif" font-size="12" lengthAdjust="spacing" textLength="124.207" x="75.2371" y="384.9824">Update yield surface</text><polygon fill="#F1F1F1" points="137.3406,103.9688,149.3406,115.9688,137.3406,127.9688,125.3406,115.9688,137.3406,103.9688" style="stroke:#181818;stroke-width:0.5;"/><polygon fill="#F1F1F1" points="32,417.8125,242.6812,417.8125,254.6812,429.8125,242.6812,441.8125,32,441.8125,20,429.8125,32,417.8125" style="stroke:#181818;stroke-width:0.5;"/><text fill="#000000" font-family="sans-serif" font-size="11" lengthAdjust="spacing" textLength="13.7017" x="141.3406" y="452.0229">no</text><text fill="#000000" font-family="sans-serif" font-size="11" lengthAdjust="spacing" textLength="210.6812" x="32" y="433.6206">abs(F_MC(&#963;, &#954;)) &gt; &#949;, n_iter &lt; max_iter</text><text fill="#000000" font-family="sans-serif" font-size="11" lengthAdjust="spacing" textLength="19.0083" x="254.6812" y="427.2183">yes</text><ellipse cx="137.3406" cy="484.5229" fill="none" rx="11" ry="11" style="stroke:#222222;stroke-width:1;"/><ellipse cx="137.3406" cy="484.5229" fill="#222222" rx="6" ry="6" style="stroke:#222222;stroke-width:1;"/><line style="stroke:#181818;stroke-width:1;" x1="137.3406" x2="137.3406" y1="30" y2="50"/><polygon fill="#181818" points="133.3406,40,137.3406,50,141.3406,40,137.3406,44" style="stroke:#181818;stroke-width:1;"/><line style="stroke:#181818;stroke-width:1;" x1="137.3406" x2="137.3406" y1="181.9375" y2="201.9375"/><polygon fill="#181818" points="133.3406,191.9375,137.3406,201.9375,141.3406,191.9375,137.3406,195.9375" style="stroke:#181818;stroke-width:1;"/><line style="stroke:#181818;stroke-width:1;" x1="137.3406" x2="137.3406" y1="235.9063" y2="255.9063"/><polygon fill="#181818" points="133.3406,245.9063,137.3406,255.9063,141.3406,245.9063,137.3406,249.9063" style="stroke:#181818;stroke-width:1;"/><line style="stroke:#181818;stroke-width:1;" x1="137.3406" x2="137.3406" y1="289.875" y2="309.875"/><polygon fill="#181818" points="133.3406,299.875,137.3406,309.875,141.3406,299.875,137.3406,303.875" style="stroke:#181818;stroke-width:1;"/><line style="stroke:#181818;stroke-width:1;" x1="137.3406" x2="137.3406" y1="343.8438" y2="363.8438"/><polygon fill="#181818" points="133.3406,353.8438,137.3406,363.8438,141.3406,353.8438,137.3406,357.8438" style="stroke:#181818;stroke-width:1;"/><line style="stroke:#181818;stroke-width:1;" x1="137.3406" x2="137.3406" y1="127.9688" y2="147.9688"/><polygon fill="#181818" points="133.3406,137.9688,137.3406,147.9688,141.3406,137.9688,137.3406,141.9688" style="stroke:#181818;stroke-width:1;"/><line style="stroke:#181818;stroke-width:1;" x1="254.6812" x2="266.6812" y1="429.8125" y2="429.8125"/><polygon fill="#181818" points="262.6812,282.8906,266.6812,272.8906,270.6812,282.8906,266.6812,278.8906" style="stroke:#181818;stroke-width:1;"/><line style="stroke:#181818;stroke-width:1;" x1="266.6812" x2="266.6812" y1="115.9688" y2="429.8125"/><line style="stroke:#181818;stroke-width:1;" x1="266.6812" x2="149.3406" y1="115.9688" y2="115.9688"/><polygon fill="#181818" points="159.3406,111.9688,149.3406,115.9688,159.3406,119.9688,155.3406,115.9688" style="stroke:#181818;stroke-width:1;"/><line style="stroke:#181818;stroke-width:1;" x1="137.3406" x2="137.3406" y1="397.8125" y2="417.8125"/><polygon fill="#181818" points="133.3406,407.8125,137.3406,417.8125,141.3406,407.8125,137.3406,411.8125" style="stroke:#181818;stroke-width:1;"/><line style="stroke:#181818;stroke-width:1;" x1="137.3406" x2="137.3406" y1="83.9688" y2="103.9688"/><polygon fill="#181818" points="133.3406,93.9688,137.3406,103.9688,141.3406,93.9688,137.3406,97.9688" style="stroke:#181818;stroke-width:1;"/><line style="stroke:#181818;stroke-width:1;" x1="137.3406" x2="137.3406" y1="441.8125" y2="473.5229"/><polygon fill="#181818" points="133.3406,463.5229,137.3406,473.5229,141.3406,463.5229,137.3406,467.5229" style="stroke:#181818;stroke-width:1;"/><!--SRC=[NS-nJiD030RWFK_nZtTga61j6fPAR1sPApSnmjBrSfmT83FFnDA-G_fA95KhHMpsxy-IhKRPYWV4lHXdr7YiYio9oGfWVKjNDPwgkTzIQFf0nXZF9NQKO5aeG2spAkiLlQPs5YcGcZJpZ2H2OfFvoD6MXZzw-QGmfV_vU5gwGJYqq3w_KSFt0_7rBe4T7TIzx7TRT_affpNlyOpnjxn_jC6Hlg-bXoZSmEeHEuEBdI_KklG7]--></g></svg>