<svg xmlns="http://www.w3.org/2000/svg" xmlns:xlink="http://www.w3.org/1999/xlink" contentStyleType="text/css" data-diagram-type="ACTIVITY" height="506px" preserveAspectRatio="none" style="width:276px;height:506px;background:#FFFFFF;" version="1.1" viewBox="0 0 276 506" width="276px" zoomAndPan="magnify"><defs/><g><ellipse cx="127.0281" cy="20" fill="#222222" rx="10" ry="10" style="stroke:#222222;stroke-width:1;"/><rect fill="#F1F1F1" height="33.9688" rx="12.5" ry="12.5" style="stroke:#181818;stroke-width:0.5;" width="79.2793" x="87.3884" y="50"/><text fill="#000000" font-family="sans-serif" font-size="12" lengthAdjust="spacing" textLength="59.2793" x="97.3884" y="71.1387">n_iter = 0</text><rect fill="#F1F1F1" height="33.9688" rx="12.5" ry="12.5" style="stroke:#181818;stroke-width:0.5;" width="89.334" x="82.3611" y="147.9688"/><text fill="#000000" font-family="sans-serif" font-size="12" lengthAdjust="spacing" textLength="69.334" x="92.3611" y="169.1074">n_iter += 1</text><rect fill="#F1F1F1" height="33.9688" rx="12.5" ry="12.5" style="stroke:#181818;stroke-width:0.5;" width="200.6152" x="26.7205" y="201.9375"/><text fill="#000000" font-family="sans-serif" font-size="12" lengthAdjust="spacing" textLength="180.6152" x="36.7205" y="223.0762">Calculate &#955;, Map trial stresses</text><rect fill="#F1F1F1" height="33.9688" rx="12.5" ry="12.5" style="stroke:#181818;stroke-width:0.5;" width="209.5156" x="22.2703" y="255.9063"/><text fill="#000000" font-family="sans-serif" font-size="12" lengthAdjust="spacing" textLength="189.5156" x="32.2703" y="277.0449">Update plastic strain increment</text><rect fill="#F1F1F1" height="33.9688" rx="12.5" ry="12.5" style="stroke:#181818;stroke-width:0.5;" width="222.5879" x="15.7341" y="309.875"/><text fill="#000000" font-family="sans-serif" font-size="12" lengthAdjust="spacing" textLength="202.5879" x="25.7341" y="331.0137">Update equivalent plastic strain &#954;</text><rect fill="#F1F1F1" height="33.9688" rx="12.5" ry="12.5" style="stroke:#181818;stroke-width:0.5;" width="144.207" x="54.9246" y="363.8438"/><text fill="#000000" font-family="sans-serif" font-size="12" lengthAdjust="spacing" textLength="124.207" x="64.9246" y="384.9824">Update yield surface</text><polygon fill="#F1F1F1" points="127.0281,103.9688,139.0281,115.9688,127.0281,127.9688,115.0281,115.9688,127.0281,103.9688" style="stroke:#181818;stroke-width:0.5;"/><polygon fill="#F1F1F1" points="32,417.8125,222.0562,417.8125,234.0562,429.8125,222.0562,441.8125,32,441.8125,20,429.8125,32,417.8125" style="stroke:#181818;stroke-width:0.5;"/><text fill="#000000" font-family="sans-serif" font-size="11" lengthAdjust="spacing" textLength="13.7017" x="131.0281" y="452.0229">no</text><text fill="#000000" font-family="sans-serif" font-size="11" lengthAdjust="spacing" textLength="190.0562" x="32" y="433.6206">|F_MC(&#963;, &#954;)| &gt; &#949;, n_iter &lt; max_iter</text><text fill="#000000" font-family="sans-serif" font-size="11" lengthAdjust="spacing" textLength="19.0083" x="234.0562" y="427.2183">yes</text><ellipse cx="127.0281" cy="484.5229" fill="none" rx="11" ry="11" style="stroke:#222222;stroke-width:1;"/><ellipse cx="127.0281" cy="484.5229" fill="#222222" rx="6" ry="6" style="stroke:#222222;stroke-width:1;"/><line style="stroke:#181818;stroke-width:1;" x1="127.0281" x2="127.0281" y1="30" y2="50"/><polygon fill="#181818" points="123.0281,40,127.0281,50,131.0281,40,127.0281,44" style="stroke:#181818;stroke-width:1;"/><line style="stroke:#181818;stroke-width:1;" x1="127.0281" x2="127.0281" y1="181.9375" y2="201.9375"/><polygon fill="#181818" points="123.0281,191.9375,127.0281,201.9375,131.0281,191.9375,127.0281,195.9375" style="stroke:#181818;stroke-width:1;"/><line style="stroke:#181818;stroke-width:1;" x1="127.0281" x2="127.0281" y1="235.9063" y2="255.9063"/><polygon fill="#181818" points="123.0281,245.9063,127.0281,255.9063,131.0281,245.9063,127.0281,249.9063" style="stroke:#181818;stroke-width:1;"/><line style="stroke:#181818;stroke-width:1;" x1="127.0281" x2="127.0281" y1="289.875" y2="309.875"/><polygon fill="#181818" points="123.0281,299.875,127.0281,309.875,131.0281,299.875,127.0281,303.875" style="stroke:#181818;stroke-width:1;"/><line style="stroke:#181818;stroke-width:1;" x1="127.0281" x2="127.0281" y1="343.8438" y2="363.8438"/><polygon fill="#181818" points="123.0281,353.8438,127.0281,363.8438,131.0281,353.8438,127.0281,357.8438" style="stroke:#181818;stroke-width:1;"/><line style="stroke:#181818;stroke-width:1;" x1="127.0281" x2="127.0281" y1="127.9688" y2="147.9688"/><polygon fill="#181818" points="123.0281,137.9688,127.0281,147.9688,131.0281,137.9688,127.0281,141.9688" style="stroke:#181818;stroke-width:1;"/><line style="stroke:#181818;stroke-width:1;" x1="234.0562" x2="250.322" y1="429.8125" y2="429.8125"/><polygon fill="#181818" points="246.322,282.8906,250.322,272.8906,254.322,282.8906,250.322,278.8906" style="stroke:#181818;stroke-width:1;"/><line style="stroke:#181818;stroke-width:1;" x1="250.322" x2="250.322" y1="115.9688" y2="429.8125"/><line style="stroke:#181818;stroke-width:1;" x1="250.322" x2="139.0281" y1="115.9688" y2="115.9688"/><polygon fill="#181818" points="149.0281,111.9688,139.0281,115.9688,149.0281,119.9688,145.0281,115.9688" style="stroke:#181818;stroke-width:1;"/><line style="stroke:#181818;stroke-width:1;" x1="127.0281" x2="127.0281" y1="397.8125" y2="417.8125"/><polygon fill="#181818" points="123.0281,407.8125,127.0281,417.8125,131.0281,407.8125,127.0281,411.8125" style="stroke:#181818;stroke-width:1;"/><line style="stroke:#181818;stroke-width:1;" x1="127.0281" x2="127.0281" y1="83.9688" y2="103.9688"/><polygon fill="#181818" points="123.0281,93.9688,127.0281,103.9688,131.0281,93.9688,127.0281,97.9688" style="stroke:#181818;stroke-width:1;"/><line style="stroke:#181818;stroke-width:1;" x1="127.0281" x2="127.0281" y1="441.8125" y2="473.5229"/><polygon fill="#181818" points="123.0281,463.5229,127.0281,473.5229,131.0281,463.5229,127.0281,467.5229" style="stroke:#181818;stroke-width:1;"/><!--SRC=[NSwz2i9G30NWlKznnXOxw6hLHN3hw2oXHWnSRwytgJ_GpMToqNUehwGL1N5BJhx0KQDeoTYln3XYYc6HH0vCbW3VT335gEZtERcgSMICxfwZf02BGWvgaLLPtsWPrhq8ZjIawcya7kAho3lszcjutyY1t2lzvztjrvs5tHhQn0rL_2s8urOSf-rYLSxJnoL__MGjPkYkEJx59zZHwJrc44LwPitWQqFgwonHgyCJ]--></g></svg>