<svg width="1280" height="720" xmlns="http://www.w3.org/2000/svg" xmlns:xlink="http://www.w3.org/1999/xlink" overflow="hidden"><defs><clipPath id="clip0"><rect x="0" y="0" width="1280" height="720"/></clipPath><linearGradient x1="744.615" y1="127.443" x2="1197.38" y2="456.557" gradientUnits="userSpaceOnUse" spreadMethod="reflect" id="fill1"><stop offset="0" stop-color="#ABFCB4"/><stop offset="0.5" stop-color="#CBFCD0"/><stop offset="1" stop-color="#E5FDE7"/></linearGradient><linearGradient x1="319.883" y1="-27.5722" x2="763.117" y2="610.572" gradientUnits="userSpaceOnUse" spreadMethod="reflect" id="fill2"><stop offset="0" stop-color="#FFFF80"/><stop offset="0.5" stop-color="#FFFFB3"/><stop offset="1" stop-color="#FFFFDA"/></linearGradient></defs><g clip-path="url(#clip0)"><rect x="0" y="0" width="1280" height="720" fill="#FFFFFF"/><path d="M800 530 852.056 593.94 1145 598 1142.96 530 800 530Z" fill="#A6CAEC" fill-rule="evenodd"/><path d="M882.714 54 798 530 1144 527.957 1138.9 54 882.714 54Z" fill="url(#fill1)" fill-rule="evenodd"/><path d="M201 190.872 799.3 528 882 55 204.063 59.0863 201 190.872Z" stroke="#FFFFFF" stroke-width="2" stroke-miterlimit="8" fill="url(#fill2)" fill-rule="evenodd"/><path d="M194.5 594.833 1142.19 594.833 1142.19 600.167 194.5 600.167ZM1139.52 589.5 1155.52 597.5 1139.52 605.5Z"/><path d="M2.66667-4.36388e-07 2.66677 628.218-2.66656 628.218-2.66667 4.36388e-07ZM8.0001 625.551 0.000104987 641.551-7.9999 625.551Z" fill="#156082" transform="matrix(1 0 0 -1 677.5 679.051)"/><path d="M201 192 1030.71 660.68" stroke="#156082" stroke-width="4" stroke-miterlimit="8" fill="none" fill-rule="evenodd"/><path d="M0 0 342.488 1.69375" stroke="#AEAEAE" stroke-width="4" stroke-miterlimit="8" fill="none" fill-rule="evenodd" transform="matrix(1 0 0 -1 797 529.694)"/><path d="M0 0 86.2385 477.761" stroke="#AEAEAE" stroke-width="4" stroke-miterlimit="8" fill="none" fill-rule="evenodd" transform="matrix(1 0 0 -1 797 529.761)"/><text font-family="Aptos,Aptos_MSFontService,sans-serif" font-weight="400" font-size="24" transform="translate(919.772 586)">Apex</text><text font-family="Aptos,Aptos_MSFontService,sans-serif" font-weight="400" font-size="24" transform="translate(802.843 516)">Corner point</text><text font-family="Cambria Math,Cambria Math_MSFontService,sans-serif" font-weight="400" font-size="37" transform="translate(858.451 672)">ğ¹</text><text font-family="Cambria Math,Cambria Math_MSFontService,sans-serif" font-weight="400" font-size="27" transform="translate(877.205 679)">ğ‘¡ğ‘</text><text font-family="Cambria Math,Cambria Math_MSFontService,sans-serif" font-weight="400" font-size="37" transform="translate(262.923 219)">ğ¹</text><text font-family="Cambria Math,Cambria Math_MSFontService,sans-serif" font-weight="400" font-size="27" transform="translate(281.677 226)">ğ‘€ğ¶</text><text font-family="Cambria Math,Cambria Math_MSFontService,sans-serif" font-weight="400" font-size="37" transform="translate(324.917 219)">(</text><text font-family="Cambria Math,Cambria Math_MSFontService,sans-serif" font-weight="400" font-size="37" transform="translate(340.417 219)">ğˆ</text><text font-family="Cambria Math,Cambria Math_MSFontService,sans-serif" font-weight="400" font-size="37" transform="translate(363.917 219)">,</text><text font-family="Cambria Math,Cambria Math_MSFontService,sans-serif" font-weight="400" font-size="37" transform="translate(377.803 219)">ğœ™</text><text font-family="Cambria Math,Cambria Math_MSFontService,sans-serif" font-weight="400" font-size="37" transform="translate(404.103 219)">)</text><text font-family="Cambria Math,Cambria Math_MSFontService,sans-serif" font-weight="400" font-size="27" transform="translate(740.754 90)">ğœ•</text><text font-family="Cambria Math,Cambria Math_MSFontService,sans-serif" font-weight="400" font-size="27" transform="translate(756.267 90)">ğº</text><text font-family="Cambria Math,Cambria Math_MSFontService,sans-serif" font-weight="400" font-size="20" transform="translate(772.321 95)">ğ‘€ğ¶</text><text font-family="Cambria Math,Cambria Math_MSFontService,sans-serif" font-weight="400" font-size="27" transform="translate(803.281 90)">(</text><text font-family="Cambria Math,Cambria Math_MSFontService,sans-serif" font-weight="400" font-size="27" transform="translate(814.281 90)">ğˆ</text><text font-family="Cambria Math,Cambria Math_MSFontService,sans-serif" font-weight="400" font-size="27" transform="translate(831.114 90)">,</text><text font-family="Cambria Math,Cambria Math_MSFontService,sans-serif" font-weight="400" font-size="27" transform="translate(841.061 90)">ğœ“</text><text font-family="Cambria Math,Cambria Math_MSFontService,sans-serif" font-weight="400" font-size="27" transform="translate(860.287 90)">)</text><text font-family="Cambria Math,Cambria Math_MSFontService,sans-serif" font-weight="400" font-size="27" transform="translate(790.187 128)">ğœ•</text><text font-family="Cambria Math,Cambria Math_MSFontService,sans-serif" font-weight="400" font-size="27" transform="translate(805.021 128)">ğˆ</text><path d="M741.187 101.9 773.937 101.9 806.687 101.9 839.437 101.9 872.187 101.9 872.187 103.9 839.437 103.9 806.687 103.9 773.937 103.9 741.187 103.9Z" fill-rule="evenodd"/><text font-family="Cambria Math,Cambria Math_MSFontService,sans-serif" font-weight="400" font-size="27" transform="translate(1050.93 486)">ğœ•</text><text font-family="Cambria Math,Cambria Math_MSFontService,sans-serif" font-weight="400" font-size="27" transform="translate(1066.44 486)">ğ¹</text><text font-family="Cambria Math,Cambria Math_MSFontService,sans-serif" font-weight="400" font-size="20" transform="translate(1079.86 492)">ğ‘¡ğ¶</text><text font-family="Cambria Math,Cambria Math_MSFontService,sans-serif" font-weight="400" font-size="27" transform="translate(1060.71 524)">ğœ•</text><text font-family="Cambria Math,Cambria Math_MSFontService,sans-serif" font-weight="400" font-size="27" transform="translate(1075.54 524)">ğˆ</text><path d="M1051.04 498.548 1068.04 498.548 1085.04 498.548 1102.04 498.548 1102.04 500.548 1085.04 500.548 1068.04 500.548 1051.04 500.548Z" fill-rule="evenodd"/><text font-family="Aptos,Aptos_MSFontService,sans-serif" font-style="italic" font-weight="400" font-size="24" transform="translate(483.912 116)">Regulaire failure</text><text font-family="Aptos,Aptos_MSFontService,sans-serif" font-style="italic" font-weight="400" font-size="24" transform="translate(879.32 284)">Tensile</text><text font-family="Aptos,Aptos_MSFontService,sans-serif" font-style="italic" font-weight="400" font-size="24" transform="translate(955.567 284)">corner</text><text font-family="Aptos,Aptos_MSFontService,sans-serif" font-style="italic" font-weight="400" font-size="24" transform="translate(1028.07 284)">r</text><text font-family="Aptos,Aptos_MSFontService,sans-serif" font-style="italic" font-weight="400" font-size="24" transform="translate(1035.76 284)">eturn</text><text font-family="Aptos,Aptos_MSFontService,sans-serif" font-style="italic" font-weight="400" font-size="24" transform="translate(1011.39 569)">Axial</text><text font-family="Aptos,Aptos_MSFontService,sans-serif" font-style="italic" font-weight="400" font-size="24" transform="translate(1065.79 569)">return</text><text font-family="Cambria Math,Cambria Math_MSFontService,sans-serif" font-weight="400" font-size="24" transform="translate(575.174 32)">ğœ</text><text font-family="Cambria Math,Cambria Math_MSFontService,sans-serif" font-weight="400" font-size="24" transform="translate(593.354 32)">=</text><text font-family="Cambria Math,Cambria Math_MSFontService,sans-serif" font-weight="400" font-size="24" transform="translate(618.021 14)">ğœ</text><text font-family="Cambria Math,Cambria Math_MSFontService,sans-serif" font-weight="400" font-size="18" transform="translate(629.828 19)">1</text><text font-family="Cambria Math,Cambria Math_MSFontService,sans-serif" font-weight="400" font-size="24" transform="translate(646.321 14)">âˆ’</text><text font-family="Cambria Math,Cambria Math_MSFontService,sans-serif" font-weight="400" font-size="24" transform="translate(669.654 14)">ğœ</text><text font-family="Cambria Math,Cambria Math_MSFontService,sans-serif" font-weight="400" font-size="18" transform="translate(682.014 19)">3</text><text font-family="Cambria Math,Cambria Math_MSFontService,sans-serif" font-weight="400" font-size="24" transform="translate(648.928 48)">2</text><path d="M618.174 24.2533 643.174 24.2533 668.174 24.2533 693.174 24.2533 693.174 26.2533 668.174 26.2533 643.174 26.2533 618.174 26.2533Z" fill-rule="evenodd"/><text font-family="Cambria Math,Cambria Math_MSFontService,sans-serif" font-weight="400" font-size="24" transform="translate(1070.24 638)">ğœ</text><text font-family="Cambria Math,Cambria Math_MSFontService,sans-serif" font-weight="400" font-size="24" transform="translate(1091.49 638)">=</text><text font-family="Cambria Math,Cambria Math_MSFontService,sans-serif" font-weight="400" font-size="24" transform="translate(1116.16 620)">ğœ</text><text font-family="Cambria Math,Cambria Math_MSFontService,sans-serif" font-weight="400" font-size="18" transform="translate(1127.96 625)">1</text><text font-family="Cambria Math,Cambria Math_MSFontService,sans-serif" font-weight="400" font-size="24" transform="translate(1144.46 620)">+</text><text font-family="Cambria Math,Cambria Math_MSFontService,sans-serif" font-weight="400" font-size="24" transform="translate(1167.79 620)">ğœ</text><text font-family="Cambria Math,Cambria Math_MSFontService,sans-serif" font-weight="400" font-size="18" transform="translate(1180.15 625)">3</text><text font-family="Cambria Math,Cambria Math_MSFontService,sans-serif" font-weight="400" font-size="24" transform="translate(1147.06 654)">2</text><path d="M1116.28 630.432 1141.28 630.432 1166.28 630.432 1191.28 630.432 1191.28 632.432 1166.28 632.432 1141.28 632.432 1116.28 632.432Z" fill-rule="evenodd"/><text font-family="Aptos,Aptos_MSFontService,sans-serif" font-style="italic" font-weight="400" font-size="24" transform="translate(330.38 464)">Elastic</text><text font-family="Aptos,Aptos_MSFontService,sans-serif" font-style="italic" font-weight="400" font-size="24" transform="translate(404.74 464)">zone</text><path d="M943.822 703.354 397 52" stroke="#156082" stroke-width="4" stroke-miterlimit="8" stroke-dasharray="16 12" fill="none" fill-rule="evenodd"/></g></svg>