<svg width="1280" height="720" xmlns="http://www.w3.org/2000/svg" xmlns:xlink="http://www.w3.org/1999/xlink" overflow="hidden"><defs><clipPath id="clip0"><rect x="0" y="0" width="1280" height="720"/></clipPath><linearGradient x1="811.73" y1="129.313" x2="1263.27" y2="454.687" gradientUnits="userSpaceOnUse" spreadMethod="reflect" id="fill1"><stop offset="0" stop-color="#ABFCB4"/><stop offset="0.5" stop-color="#CBFCD0"/><stop offset="1" stop-color="#E5FDE7"/></linearGradient><linearGradient x1="420.857" y1="0.536488" x2="881.143" y2="582.464" gradientUnits="userSpaceOnUse" spreadMethod="reflect" id="fill2"><stop offset="0" stop-color="#FFFF80"/><stop offset="0.5" stop-color="#FFFFB3"/><stop offset="1" stop-color="#FFFFDA"/></linearGradient></defs><g clip-path="url(#clip0)"><rect x="0" y="0" width="1280" height="720" fill="#FFFFFF"/><path d="M202.508 594.666C190.544 443.686 250.282 299.189 350.615 236.422" stroke="#156082" stroke-width="2" stroke-miterlimit="8" fill="none" fill-rule="evenodd"/><path d="M867 531.979 1209.34 259 1212 382.596 921.1 596 867 531.979Z" stroke="#FFFFFF" stroke-width="2" stroke-miterlimit="8" fill="#F2CFEE" fill-rule="evenodd"/><path d="M1083.22 477.119 925 593.914 1213 598 1210.96 382 1083.22 477.119Z" stroke="#042433" stroke-width="2" stroke-miterlimit="8" fill="#A6CAEC" fill-rule="evenodd"/><path d="M950.85 54 866 530 1209 258.576C1209.07 221.797 1207.37 90.7789 1207.45 54L950.85 54Z" stroke="#042433" stroke-width="2" stroke-miterlimit="8" fill="url(#fill1)" fill-rule="evenodd"/><path d="M352 237.866 867.2 528 950 55 390.844 59.0863 352 237.866Z" stroke="#042433" stroke-width="2" stroke-miterlimit="8" fill="url(#fill2)" fill-rule="evenodd"/><path d="M131.503 593.833 1209.97 594.917 1209.96 600.25 131.497 599.167ZM1207.31 589.581 1223.3 597.597 1207.29 605.581Z"/><path d="M2.66667-4.36388e-07 2.66677 628.218-2.66656 628.218-2.66667 4.36388e-07ZM8.0001 625.551 0.000104987 641.551-7.9999 625.551Z" fill="#156082" transform="matrix(1 0 0 -1 745.5 679.051)"/><path d="M350 239 1098.05 660.841" stroke="#156082" stroke-width="4" stroke-miterlimit="8" fill="none" fill-rule="evenodd"/><path d="M1010.82 703.354 464 52" stroke="#156082" stroke-width="4" stroke-miterlimit="8" stroke-dasharray="16 12" fill="none" fill-rule="evenodd"/><path d="M0 0 86.2385 477.761" stroke="#AEAEAE" stroke-width="2" stroke-miterlimit="8" fill="none" fill-rule="evenodd" transform="matrix(1 0 0 -1 865 529.761)"/><text font-family="Aptos,Aptos_MSFontService,sans-serif" font-weight="400" font-size="24" transform="translate(987.598 586)">Apex</text><text font-family="Aptos,Aptos_MSFontService,sans-serif" font-weight="400" font-size="21.3333" transform="translate(752.724 550)">Corner point</text><text font-family="Cambria Math,Cambria Math_MSFontService,sans-serif" font-weight="400" font-size="37.3333" transform="translate(926.277 672)">ğ¹</text><text font-family="Cambria Math,Cambria Math_MSFontService,sans-serif" font-weight="400" font-size="27.2533" transform="translate(945.03 679)">ğ‘¡ğ‘</text><text font-family="Cambria Math,Cambria Math_MSFontService,sans-serif" font-weight="400" font-size="37.3333" transform="translate(458.509 290)">ğ¹</text><text font-family="Cambria Math,Cambria Math_MSFontService,sans-serif" font-weight="400" font-size="27.2533" transform="translate(477.262 298)">ğ‘€ğ¶</text><text font-family="Cambria Math,Cambria Math_MSFontService,sans-serif" font-weight="400" font-size="37.3333" transform="translate(520.502 290)">(</text><text font-family="Cambria Math,Cambria Math_MSFontService,sans-serif" font-weight="400" font-size="37.3333" transform="translate(536.002 290)">ğˆ</text><text font-family="Cambria Math,Cambria Math_MSFontService,sans-serif" font-weight="400" font-size="37.3333" transform="translate(559.502 290)">,</text><text font-family="Cambria Math,Cambria Math_MSFontService,sans-serif" font-weight="400" font-size="37.3333" transform="translate(573.389 290)">ğœ™</text><text font-family="Cambria Math,Cambria Math_MSFontService,sans-serif" font-weight="400" font-size="37.3333" transform="translate(599.689 290)">)</text><text font-family="Cambria Math,Cambria Math_MSFontService,sans-serif" font-weight="400" font-size="26.6667" transform="translate(875.753 90)">ğœ•</text><text font-family="Cambria Math,Cambria Math_MSFontService,sans-serif" font-weight="400" font-size="26.6667" transform="translate(891.266 90)">ğº</text><text font-family="Cambria Math,Cambria Math_MSFontService,sans-serif" font-weight="400" font-size="19.4667" transform="translate(907.32 96)">ğ‘€ğ¶</text><text font-family="Cambria Math,Cambria Math_MSFontService,sans-serif" font-weight="400" font-size="26.6667" transform="translate(891.18 128)">ğœ•</text><text font-family="Cambria Math,Cambria Math_MSFontService,sans-serif" font-weight="400" font-size="26.6667" transform="translate(906.013 128)">ğˆ</text><path d="M876.186 102.572 907.686 102.572 939.186 102.572 939.186 104.572 907.686 104.572 876.186 104.572Z" fill-rule="evenodd"/><text font-family="Cambria Math,Cambria Math_MSFontService,sans-serif" font-weight="400" font-size="26.6667" transform="translate(1131.1 460)">ğœ•</text><text font-family="Cambria Math,Cambria Math_MSFontService,sans-serif" font-weight="400" font-size="26.6667" transform="translate(1146.61 460)">ğº</text><text font-family="Cambria Math,Cambria Math_MSFontService,sans-serif" font-weight="400" font-size="19.4667" transform="translate(1162.66 466)">ğ‘¡ğ‘</text><text font-family="Cambria Math,Cambria Math_MSFontService,sans-serif" font-weight="400" font-size="26.6667" transform="translate(1141.08 498)">ğœ•</text><text font-family="Cambria Math,Cambria Math_MSFontService,sans-serif" font-weight="400" font-size="26.6667" transform="translate(1155.91 498)">ğˆ</text><path d="M1131.41 472.317 1148.74 472.317 1166.08 472.317 1183.41 472.317 1183.41 474.317 1166.08 474.317 1148.74 474.317 1131.41 474.317Z" fill-rule="evenodd"/><text font-family="Aptos,Aptos_MSFontService,sans-serif" font-style="italic" font-weight="400" font-size="24" transform="translate(551.738 116)">Regular</text><text font-family="Aptos,Aptos_MSFontService,sans-serif" font-style="italic" font-weight="400" font-size="24" transform="translate(640.405 116)">failure</text><text font-family="Aptos,Aptos_MSFontService,sans-serif" font-style="italic" font-weight="400" font-size="24" transform="translate(947.146 284)">Tensile</text><text font-family="Aptos,Aptos_MSFontService,sans-serif" font-style="italic" font-weight="400" font-size="24" transform="translate(1028.23 284)">corner return</text><text font-family="Aptos,Aptos_MSFontService,sans-serif" font-style="italic" font-weight="400" font-size="24" transform="translate(1005.47 553)">Tensile</text><text font-family="Aptos,Aptos_MSFontService,sans-serif" font-style="italic" font-weight="400" font-size="24" transform="translate(1086.55 553)">apex return</text><text font-family="Cambria Math,Cambria Math_MSFontService,sans-serif" font-weight="400" font-size="24" transform="translate(643 32)">ğœ</text><text font-family="Cambria Math,Cambria Math_MSFontService,sans-serif" font-weight="400" font-size="24" transform="translate(661.18 32)">=</text><text font-family="Cambria Math,Cambria Math_MSFontService,sans-serif" font-weight="400" font-size="24" transform="translate(685.847 14)">ğœ</text><text font-family="Cambria Math,Cambria Math_MSFontService,sans-serif" font-weight="400" font-size="17.52" transform="translate(697.653 19)">1</text><text font-family="Cambria Math,Cambria Math_MSFontService,sans-serif" font-weight="400" font-size="24" transform="translate(714.147 14)">âˆ’</text><text font-family="Cambria Math,Cambria Math_MSFontService,sans-serif" font-weight="400" font-size="24" transform="translate(737.48 14)">ğœ</text><text font-family="Cambria Math,Cambria Math_MSFontService,sans-serif" font-weight="400" font-size="17.52" transform="translate(749.84 19)">3</text><text font-family="Cambria Math,Cambria Math_MSFontService,sans-serif" font-weight="400" font-size="24" transform="translate(716.753 48)">2</text><path d="M686 24.2533 711 24.2533 736 24.2533 761 24.2533 761 26.2533 736 26.2533 711 26.2533 686 26.2533Z" fill-rule="evenodd"/><text font-family="Cambria Math,Cambria Math_MSFontService,sans-serif" font-weight="400" font-size="24" transform="translate(1138.06 638)">ğœ</text><text font-family="Cambria Math,Cambria Math_MSFontService,sans-serif" font-weight="400" font-size="24" transform="translate(1159.31 638)">=</text><text font-family="Cambria Math,Cambria Math_MSFontService,sans-serif" font-weight="400" font-size="24" transform="translate(1183.98 620)">ğœ</text><text font-family="Cambria Math,Cambria Math_MSFontService,sans-serif" font-weight="400" font-size="17.52" transform="translate(1195.79 625)">1</text><text font-family="Cambria Math,Cambria Math_MSFontService,sans-serif" font-weight="400" font-size="24" transform="translate(1212.28 620)">+</text><text font-family="Cambria Math,Cambria Math_MSFontService,sans-serif" font-weight="400" font-size="24" transform="translate(1235.61 620)">ğœ</text><text font-family="Cambria Math,Cambria Math_MSFontService,sans-serif" font-weight="400" font-size="17.52" transform="translate(1247.97 625)">3</text><text font-family="Cambria Math,Cambria Math_MSFontService,sans-serif" font-weight="400" font-size="24" transform="translate(1214.89 654)">2</text><path d="M1184.1 630.432 1209.1 630.432 1234.1 630.432 1259.1 630.432 1259.1 632.432 1234.1 632.432 1209.1 632.432 1184.1 632.432Z" fill-rule="evenodd"/><text font-family="Aptos,Aptos_MSFontService,sans-serif" font-style="italic" font-weight="400" font-size="24" transform="translate(398.206 464)">Elastic</text><text font-family="Aptos,Aptos_MSFontService,sans-serif" font-style="italic" font-weight="400" font-size="24" transform="translate(472.566 464)">zone</text><text font-family="Aptos,Aptos_MSFontService,sans-serif" font-style="italic" font-weight="400" font-size="24" transform="matrix(0.799432 -0.600757 0.600757 0.799432 1010.43 478)">Tensile</text><text font-family="Aptos,Aptos_MSFontService,sans-serif" font-style="italic" font-weight="400" font-size="24" transform="matrix(0.799432 -0.600757 0.600757 0.799432 1075.24 430)">cutoff return</text><path d="M1209 259 1211.53 382.82" stroke="#156082" stroke-width="2" stroke-miterlimit="8" fill="none" fill-rule="evenodd"/><path d="M0 0 38.5066 179.855" stroke="#AEAEAE" stroke-width="2" stroke-miterlimit="8" fill="none" fill-rule="evenodd" transform="matrix(1 0 0 -1 350 238.855)"/><path d="M348.692 236 387 58.4202 212 58 348.692 236Z" stroke="#042433" stroke-width="2" stroke-miterlimit="8" fill="#D1D1D1" fill-rule="evenodd"/><path d="M199.567 591 198.294 548.9 199.693 514.943 204.889 476.792 213.683 435.046 220.922 410.466 235.268 371.927 249.258 343.963 265.646 317.596 287.631 288.634 303.957 270.025 322.206 254.078 345 236.893 208.888 58.241 91.7151 57 86 590.822 199.567 591Z" stroke="#042433" stroke-width="2" stroke-miterlimit="8" fill="#DCEAF7" fill-rule="evenodd"/><text font-family="Aptos,Aptos_MSFontService,sans-serif" font-style="italic" font-weight="400" font-size="24" transform="matrix(-1.83697e-16 -1 1 -1.83697e-16 150.421 496)">Compression</text><text font-family="Aptos,Aptos_MSFontService,sans-serif" font-style="italic" font-weight="400" font-size="24" transform="matrix(-1.83697e-16 -1 1 -1.83697e-16 150.421 351)">cap return</text><text font-family="Cambria Math,Cambria Math_MSFontService,sans-serif" font-weight="400" font-size="26.6667" transform="translate(389.142 108)">ğœ•</text><text font-family="Cambria Math,Cambria Math_MSFontService,sans-serif" font-weight="400" font-size="26.6667" transform="translate(404.655 108)">ğº</text><text font-family="Cambria Math,Cambria Math_MSFontService,sans-serif" font-weight="400" font-size="19.4667" transform="translate(420.708 113)">ğ‘€ğ¶</text><text font-family="Cambria Math,Cambria Math_MSFontService,sans-serif" font-weight="400" font-size="26.6667" transform="translate(404.568 146)">ğœ•</text><text font-family="Cambria Math,Cambria Math_MSFontService,sans-serif" font-weight="400" font-size="26.6667" transform="translate(419.402 146)">ğˆ</text><path d="M389.575 120.014 421.075 120.014 452.575 120.014 452.575 122.014 421.075 122.014 389.575 122.014Z" fill-rule="evenodd"/><text font-family="Cambria Math,Cambria Math_MSFontService,sans-serif" font-weight="400" font-size="26.6667" transform="translate(179.608 105)">ğœ•</text><text font-family="Cambria Math,Cambria Math_MSFontService,sans-serif" font-weight="400" font-size="26.6667" transform="translate(195.121 105)">ğº</text><text font-family="Cambria Math,Cambria Math_MSFontService,sans-serif" font-weight="400" font-size="19.4667" transform="translate(210.395 111)">ğ‘ğ‘ğ‘</text><text font-family="Cambria Math,Cambria Math_MSFontService,sans-serif" font-weight="400" font-size="26.6667" transform="translate(197.008 144)">ğœ•</text><text font-family="Cambria Math,Cambria Math_MSFontService,sans-serif" font-weight="400" font-size="26.6667" transform="translate(211.841 144)">ğˆ</text><path d="M180.008 118.228 213.008 118.228 246.008 118.228 246.008 120.228 213.008 120.228 180.008 120.228Z" fill-rule="evenodd"/><text font-family="Aptos,Aptos_MSFontService,sans-serif" font-style="italic" font-weight="400" font-size="24" transform="matrix(-1.83697e-16 -1 1 -1.83697e-16 319.106 178)">Cap corner</text><text font-family="Aptos,Aptos_MSFontService,sans-serif" font-style="italic" font-weight="400" font-size="24" transform="matrix(-1.83697e-16 -1 1 -1.83697e-16 348.106 173)">return</text><text font-family="Aptos,Aptos_MSFontService,sans-serif" font-style="italic" font-weight="400" font-size="24" transform="translate(214.696 240)">Cap corner</text><text font-family="Aptos,Aptos_MSFontService,sans-serif" font-style="italic" font-weight="400" font-size="24" transform="translate(219.529 269)">point</text><text font-family="Cambria Math,Cambria Math_MSFontService,sans-serif" font-weight="400" font-size="37.3333" transform="translate(188.132 332)">ğ¹</text><text font-family="Cambria Math,Cambria Math_MSFontService,sans-serif" font-weight="400" font-size="27.2533" transform="translate(203.672 339)">ğ‘ğ‘ğ‘</text></g></svg>