<svg width="1280" height="720" xmlns="http://www.w3.org/2000/svg" xmlns:xlink="http://www.w3.org/1999/xlink" overflow="hidden"><defs><clipPath id="clip0"><rect x="0" y="0" width="1280" height="720"/></clipPath><linearGradient x1="811.73" y1="129.313" x2="1263.27" y2="454.687" gradientUnits="userSpaceOnUse" spreadMethod="reflect" id="fill1"><stop offset="0" stop-color="#ABFCB4"/><stop offset="0.5" stop-color="#CBFCD0"/><stop offset="1" stop-color="#E5FDE7"/></linearGradient><linearGradient x1="396.826" y1="-20.3534" x2="845.174" y2="603.353" gradientUnits="userSpaceOnUse" spreadMethod="reflect" id="fill2"><stop offset="0" stop-color="#FFFF80"/><stop offset="0.5" stop-color="#FFFFB3"/><stop offset="1" stop-color="#FFFFDA"/></linearGradient></defs><g clip-path="url(#clip0)"><rect x="0" y="0" width="1280" height="720" fill="#FFFFFF"/><path d="M867 531.979 1209.34 259 1212 382.596 921.1 596 867 531.979Z" stroke="#FFFFFF" stroke-width="2" stroke-miterlimit="8" fill="#F2CFEE" fill-rule="evenodd"/><path d="M1083.22 477.119 925 593.914 1213 598 1210.96 382 1083.22 477.119Z" stroke="#042433" stroke-width="2" stroke-miterlimit="8" fill="#A6CAEC" fill-rule="evenodd"/><path d="M950.85 54 866 530 1209 258.576C1209.07 221.797 1207.37 90.7789 1207.45 54L950.85 54Z" stroke="#042433" stroke-width="2" stroke-miterlimit="8" fill="url(#fill1)" fill-rule="evenodd"/><path d="M292 204.388 867.304 528 950 55 294.697 59.9673 292 204.388Z" stroke="#042433" stroke-width="2" stroke-miterlimit="8" fill="url(#fill2)" fill-rule="evenodd"/><path d="M0.00141528-2.66667 929.06-2.17359 929.057 3.15975-0.00141528 2.66667ZM926.399-7.50833 942.395 0.500157 926.391 8.49166Z" transform="matrix(1 0 0 -1 280.5 598)"/><path d="M2.66667-4.36388e-07 2.66677 628.218-2.66656 628.218-2.66667 4.36388e-07ZM8.0001 625.551 0.000104987 641.551-7.9999 625.551Z" fill="#156082" transform="matrix(1 0 0 -1 745.5 679.051)"/><path d="M291 207 1098.51 660.939" stroke="#156082" stroke-width="4" stroke-miterlimit="8" fill="none" fill-rule="evenodd"/><path d="M1010.82 703.354 464 52" stroke="#156082" stroke-width="4" stroke-miterlimit="8" stroke-dasharray="16 12" fill="none" fill-rule="evenodd"/><path d="M0 0 86.2385 477.761" stroke="#AEAEAE" stroke-width="2" stroke-miterlimit="8" fill="none" fill-rule="evenodd" transform="matrix(1 0 0 -1 865 529.761)"/><text font-family="Aptos,Aptos_MSFontService,sans-serif" font-weight="400" font-size="24" transform="translate(987.598 586)">Apex</text><text font-family="Aptos,Aptos_MSFontService,sans-serif" font-weight="400" font-size="21.3333" transform="translate(752.724 550)">Corner point</text><text font-family="Cambria Math,Cambria Math_MSFontService,sans-serif" font-weight="400" font-size="37.3333" transform="translate(926.277 672)">ğ¹</text><text font-family="Cambria Math,Cambria Math_MSFontService,sans-serif" font-weight="400" font-size="27.2533" transform="translate(945.03 679)">ğ‘¡ğ‘</text><text font-family="Cambria Math,Cambria Math_MSFontService,sans-serif" font-weight="400" font-size="37.3333" transform="translate(391.532 256)">ğ¹</text><text font-family="Cambria Math,Cambria Math_MSFontService,sans-serif" font-weight="400" font-size="27.2533" transform="translate(410.285 263)">ğ‘€ğ¶</text><text font-family="Cambria Math,Cambria Math_MSFontService,sans-serif" font-weight="400" font-size="37.3333" transform="translate(453.525 256)">(</text><text font-family="Cambria Math,Cambria Math_MSFontService,sans-serif" font-weight="400" font-size="37.3333" transform="translate(469.025 256)">ğˆ</text><text font-family="Cambria Math,Cambria Math_MSFontService,sans-serif" font-weight="400" font-size="37.3333" transform="translate(492.525 256)">,</text><text font-family="Cambria Math,Cambria Math_MSFontService,sans-serif" font-weight="400" font-size="37.3333" transform="translate(506.412 256)">ğœ™</text><text font-family="Cambria Math,Cambria Math_MSFontService,sans-serif" font-weight="400" font-size="37.3333" transform="translate(532.712 256)">)</text><text font-family="Cambria Math,Cambria Math_MSFontService,sans-serif" font-weight="400" font-size="26.6667" transform="translate(875.753 90)">ğœ•</text><text font-family="Cambria Math,Cambria Math_MSFontService,sans-serif" font-weight="400" font-size="26.6667" transform="translate(891.266 90)">ğº</text><text font-family="Cambria Math,Cambria Math_MSFontService,sans-serif" font-weight="400" font-size="19.4667" transform="translate(907.32 96)">ğ‘€ğ¶</text><text font-family="Cambria Math,Cambria Math_MSFontService,sans-serif" font-weight="400" font-size="26.6667" transform="translate(891.18 128)">ğœ•</text><text font-family="Cambria Math,Cambria Math_MSFontService,sans-serif" font-weight="400" font-size="26.6667" transform="translate(906.013 128)">ğˆ</text><path d="M876.186 102.572 907.686 102.572 939.186 102.572 939.186 104.572 907.686 104.572 876.186 104.572Z" fill-rule="evenodd"/><text font-family="Cambria Math,Cambria Math_MSFontService,sans-serif" font-weight="400" font-size="26.6667" transform="translate(1131.1 460)">ğœ•</text><text font-family="Cambria Math,Cambria Math_MSFontService,sans-serif" font-weight="400" font-size="26.6667" transform="translate(1146.61 460)">ğº</text><text font-family="Cambria Math,Cambria Math_MSFontService,sans-serif" font-weight="400" font-size="19.4667" transform="translate(1162.66 466)">ğ‘¡ğ‘</text><text font-family="Cambria Math,Cambria Math_MSFontService,sans-serif" font-weight="400" font-size="26.6667" transform="translate(1141.08 498)">ğœ•</text><text font-family="Cambria Math,Cambria Math_MSFontService,sans-serif" font-weight="400" font-size="26.6667" transform="translate(1155.91 498)">ğˆ</text><path d="M1131.41 472.317 1148.74 472.317 1166.08 472.317 1183.41 472.317 1183.41 474.317 1166.08 474.317 1148.74 474.317 1131.41 474.317Z" fill-rule="evenodd"/><text font-family="Aptos,Aptos_MSFontService,sans-serif" font-style="italic" font-weight="400" font-size="24" transform="translate(551.738 116)">Regular</text><text font-family="Aptos,Aptos_MSFontService,sans-serif" font-style="italic" font-weight="400" font-size="24" transform="translate(640.405 116)">failure</text><text font-family="Aptos,Aptos_MSFontService,sans-serif" font-style="italic" font-weight="400" font-size="24" transform="translate(947.146 284)">Tensile</text><text font-family="Aptos,Aptos_MSFontService,sans-serif" font-style="italic" font-weight="400" font-size="24" transform="translate(1028.23 284)">corner return</text><text font-family="Aptos,Aptos_MSFontService,sans-serif" font-style="italic" font-weight="400" font-size="24" transform="translate(1005.47 553)">Tensile</text><text font-family="Aptos,Aptos_MSFontService,sans-serif" font-style="italic" font-weight="400" font-size="24" transform="translate(1086.55 553)">apex return</text><text font-family="Cambria Math,Cambria Math_MSFontService,sans-serif" font-weight="400" font-size="24" transform="translate(643 32)">ğœ</text><text font-family="Cambria Math,Cambria Math_MSFontService,sans-serif" font-weight="400" font-size="24" transform="translate(661.18 32)">=</text><text font-family="Cambria Math,Cambria Math_MSFontService,sans-serif" font-weight="400" font-size="24" transform="translate(685.847 14)">ğœ</text><text font-family="Cambria Math,Cambria Math_MSFontService,sans-serif" font-weight="400" font-size="17.52" transform="translate(697.653 19)">1</text><text font-family="Cambria Math,Cambria Math_MSFontService,sans-serif" font-weight="400" font-size="24" transform="translate(714.147 14)">âˆ’</text><text font-family="Cambria Math,Cambria Math_MSFontService,sans-serif" font-weight="400" font-size="24" transform="translate(737.48 14)">ğœ</text><text font-family="Cambria Math,Cambria Math_MSFontService,sans-serif" font-weight="400" font-size="17.52" transform="translate(749.84 19)">3</text><text font-family="Cambria Math,Cambria Math_MSFontService,sans-serif" font-weight="400" font-size="24" transform="translate(716.753 48)">2</text><path d="M686 24.2533 711 24.2533 736 24.2533 761 24.2533 761 26.2533 736 26.2533 711 26.2533 686 26.2533Z" fill-rule="evenodd"/><text font-family="Cambria Math,Cambria Math_MSFontService,sans-serif" font-weight="400" font-size="24" transform="translate(1138.06 638)">ğœ</text><text font-family="Cambria Math,Cambria Math_MSFontService,sans-serif" font-weight="400" font-size="24" transform="translate(1159.31 638)">=</text><text font-family="Cambria Math,Cambria Math_MSFontService,sans-serif" font-weight="400" font-size="24" transform="translate(1183.98 620)">ğœ</text><text font-family="Cambria Math,Cambria Math_MSFontService,sans-serif" font-weight="400" font-size="17.52" transform="translate(1195.79 625)">1</text><text font-family="Cambria Math,Cambria Math_MSFontService,sans-serif" font-weight="400" font-size="24" transform="translate(1212.28 620)">+</text><text font-family="Cambria Math,Cambria Math_MSFontService,sans-serif" font-weight="400" font-size="24" transform="translate(1235.61 620)">ğœ</text><text font-family="Cambria Math,Cambria Math_MSFontService,sans-serif" font-weight="400" font-size="17.52" transform="translate(1247.97 625)">3</text><text font-family="Cambria Math,Cambria Math_MSFontService,sans-serif" font-weight="400" font-size="24" transform="translate(1214.89 654)">2</text><path d="M1184.1 630.432 1209.1 630.432 1234.1 630.432 1259.1 630.432 1259.1 632.432 1234.1 632.432 1209.1 632.432 1184.1 632.432Z" fill-rule="evenodd"/><text font-family="Aptos,Aptos_MSFontService,sans-serif" font-style="italic" font-weight="400" font-size="24" transform="translate(398.206 464)">Elastic</text><text font-family="Aptos,Aptos_MSFontService,sans-serif" font-style="italic" font-weight="400" font-size="24" transform="translate(472.566 464)">zone</text><text font-family="Aptos,Aptos_MSFontService,sans-serif" font-style="italic" font-weight="400" font-size="24" transform="matrix(0.799432 -0.600757 0.600757 0.799432 1010.43 478)">Tensile</text><text font-family="Aptos,Aptos_MSFontService,sans-serif" font-style="italic" font-weight="400" font-size="24" transform="matrix(0.799432 -0.600757 0.600757 0.799432 1075.24 430)">cutoff return</text><path d="M1209 259 1211.53 382.82" stroke="#156082" stroke-width="2" stroke-miterlimit="8" fill="none" fill-rule="evenodd"/></g></svg>