<svg width="1280" height="720" xmlns="http://www.w3.org/2000/svg" xmlns:xlink="http://www.w3.org/1999/xlink" overflow="hidden"><defs><clipPath id="clip0"><rect x="0" y="0" width="1280" height="720"/></clipPath><linearGradient x1="812.615" y1="127.443" x2="1265.38" y2="456.557" gradientUnits="userSpaceOnUse" spreadMethod="reflect" id="fill1"><stop offset="0" stop-color="#ABFCB4"/><stop offset="0.5" stop-color="#CBFCD0"/><stop offset="1" stop-color="#E5FDE7"/></linearGradient><linearGradient x1="387.883" y1="-27.5722" x2="831.117" y2="610.572" gradientUnits="userSpaceOnUse" spreadMethod="reflect" id="fill2"><stop offset="0" stop-color="#FFFF80"/><stop offset="0.5" stop-color="#FFFFB3"/><stop offset="1" stop-color="#FFFFDA"/></linearGradient></defs><g clip-path="url(#clip0)"><rect x="0" y="0" width="1280" height="720" fill="#FFFFFF"/><path d="M868 530 920.056 593.94 1213 598 1210.96 530 868 530Z" stroke="#042433" stroke-width="2" stroke-miterlimit="8" fill="#A6CAEC" fill-rule="evenodd"/><path d="M950.714 54 866 530 1212 527.957 1206.9 54 950.714 54Z" stroke="#042433" stroke-width="2" stroke-miterlimit="8" fill="url(#fill1)" fill-rule="evenodd"/><path d="M269 190.872 867.3 528 950 55 272.063 59.0863 269 190.872Z" stroke="#042433" stroke-width="2" stroke-miterlimit="8" fill="url(#fill2)" fill-rule="evenodd"/><path d="M261.5 594.833 1209.19 594.833 1209.19 600.167 261.5 600.167ZM1206.52 589.5 1222.52 597.5 1206.52 605.5Z"/><path d="M2.66667-4.36388e-07 2.66677 628.218-2.66656 628.218-2.66667 4.36388e-07ZM8.0001 625.551 0.000104987 641.551-7.9999 625.551Z" fill="#156082" transform="matrix(1 0 0 -1 745.5 679.051)"/><path d="M268 192 1097.71 660.68" stroke="#156082" stroke-width="4" stroke-miterlimit="8" fill="none" fill-rule="evenodd"/><path d="M1010.82 703.354 464 52" stroke="#156082" stroke-width="4" stroke-miterlimit="8" stroke-dasharray="16 12" fill="none" fill-rule="evenodd"/><path d="M0 0 342.488 1.69375" stroke="#AEAEAE" stroke-width="2" stroke-miterlimit="8" fill="none" fill-rule="evenodd" transform="matrix(1 0 0 -1 865 529.694)"/><path d="M0 0 86.2385 477.761" stroke="#AEAEAE" stroke-width="2" stroke-miterlimit="8" fill="none" fill-rule="evenodd" transform="matrix(1 0 0 -1 865 529.761)"/><text font-family="Aptos,Aptos_MSFontService,sans-serif" font-weight="400" font-size="24" transform="translate(987.598 586)">Apex</text><text font-family="Aptos,Aptos_MSFontService,sans-serif" font-weight="400" font-size="24" transform="translate(870.669 516)">Corner point</text><text font-family="Cambria Math,Cambria Math_MSFontService,sans-serif" font-weight="400" font-size="37" transform="translate(926.277 672)">ğ¹</text><text font-family="Cambria Math,Cambria Math_MSFontService,sans-serif" font-weight="400" font-size="27" transform="translate(945.03 679)">ğ‘¡ğ‘</text><text font-family="Cambria Math,Cambria Math_MSFontService,sans-serif" font-weight="400" font-size="37" transform="translate(330.749 219)">ğ¹</text><text font-family="Cambria Math,Cambria Math_MSFontService,sans-serif" font-weight="400" font-size="27" transform="translate(349.502 226)">ğ‘€ğ¶</text><text font-family="Cambria Math,Cambria Math_MSFontService,sans-serif" font-weight="400" font-size="37" transform="translate(392.742 219)">(</text><text font-family="Cambria Math,Cambria Math_MSFontService,sans-serif" font-weight="400" font-size="37" transform="translate(408.242 219)">ğˆ</text><text font-family="Cambria Math,Cambria Math_MSFontService,sans-serif" font-weight="400" font-size="37" transform="translate(431.742 219)">,</text><text font-family="Cambria Math,Cambria Math_MSFontService,sans-serif" font-weight="400" font-size="37" transform="translate(445.629 219)">ğœ™</text><text font-family="Cambria Math,Cambria Math_MSFontService,sans-serif" font-weight="400" font-size="37" transform="translate(471.929 219)">)</text><text font-family="Cambria Math,Cambria Math_MSFontService,sans-serif" font-weight="400" font-size="27" transform="translate(809.893 90)">ğœ•</text><text font-family="Cambria Math,Cambria Math_MSFontService,sans-serif" font-weight="400" font-size="27" transform="translate(825.406 90)">ğ¹</text><text font-family="Cambria Math,Cambria Math_MSFontService,sans-serif" font-weight="400" font-size="20" transform="translate(838.826 95)">ğ‘€ğ¶</text><text font-family="Cambria Math,Cambria Math_MSFontService,sans-serif" font-weight="400" font-size="27" transform="translate(869.786 90)">(</text><text font-family="Cambria Math,Cambria Math_MSFontService,sans-serif" font-weight="400" font-size="27" transform="translate(880.786 90)">ğˆ</text><text font-family="Cambria Math,Cambria Math_MSFontService,sans-serif" font-weight="400" font-size="27" transform="translate(897.62 90)">,</text><text font-family="Cambria Math,Cambria Math_MSFontService,sans-serif" font-weight="400" font-size="27" transform="translate(907.566 90)">ğœ“</text><text font-family="Cambria Math,Cambria Math_MSFontService,sans-serif" font-weight="400" font-size="27" transform="translate(926.793 90)">)</text><text font-family="Cambria Math,Cambria Math_MSFontService,sans-serif" font-weight="400" font-size="27" transform="translate(858.006 128)">ğœ•</text><text font-family="Cambria Math,Cambria Math_MSFontService,sans-serif" font-weight="400" font-size="27" transform="translate(872.84 128)">ğˆ</text><path d="M810.013 101.9 842.013 101.9 874.013 101.9 906.013 101.9 938.013 101.9 938.013 103.9 906.013 103.9 874.013 103.9 842.013 103.9 810.013 103.9Z" fill-rule="evenodd"/><text font-family="Cambria Math,Cambria Math_MSFontService,sans-serif" font-weight="400" font-size="27" transform="translate(1118.75 486)">ğœ•</text><text font-family="Cambria Math,Cambria Math_MSFontService,sans-serif" font-weight="400" font-size="27" transform="translate(1134.26 486)">ğ¹</text><text font-family="Cambria Math,Cambria Math_MSFontService,sans-serif" font-weight="400" font-size="20" transform="translate(1147.68 492)">ğ‘¡ğ¶</text><text font-family="Cambria Math,Cambria Math_MSFontService,sans-serif" font-weight="400" font-size="27" transform="translate(1128.53 524)">ğœ•</text><text font-family="Cambria Math,Cambria Math_MSFontService,sans-serif" font-weight="400" font-size="27" transform="translate(1143.36 524)">ğˆ</text><path d="M1118.86 498.548 1135.86 498.548 1152.86 498.548 1169.86 498.548 1169.86 500.548 1152.86 500.548 1135.86 500.548 1118.86 500.548Z" fill-rule="evenodd"/><text font-family="Aptos,Aptos_MSFontService,sans-serif" font-style="italic" font-weight="400" font-size="24" transform="translate(551.738 116)">Regular</text><text font-family="Aptos,Aptos_MSFontService,sans-serif" font-style="italic" font-weight="400" font-size="24" transform="translate(640.405 116)">failure</text><text font-family="Aptos,Aptos_MSFontService,sans-serif" font-style="italic" font-weight="400" font-size="24" transform="translate(947.146 284)">Tensile</text><text font-family="Aptos,Aptos_MSFontService,sans-serif" font-style="italic" font-weight="400" font-size="24" transform="translate(1023.39 284)">corner return</text><text font-family="Aptos,Aptos_MSFontService,sans-serif" font-style="italic" font-weight="400" font-size="24" transform="translate(1079.22 569)">Axial</text><text font-family="Aptos,Aptos_MSFontService,sans-serif" font-style="italic" font-weight="400" font-size="24" transform="translate(1133.62 569)">return</text><text font-family="Cambria Math,Cambria Math_MSFontService,sans-serif" font-weight="400" font-size="24" transform="translate(643 32)">ğœ</text><text font-family="Cambria Math,Cambria Math_MSFontService,sans-serif" font-weight="400" font-size="24" transform="translate(661.18 32)">=</text><text font-family="Cambria Math,Cambria Math_MSFontService,sans-serif" font-weight="400" font-size="24" transform="translate(685.847 14)">ğœ</text><text font-family="Cambria Math,Cambria Math_MSFontService,sans-serif" font-weight="400" font-size="18" transform="translate(697.653 19)">1</text><text font-family="Cambria Math,Cambria Math_MSFontService,sans-serif" font-weight="400" font-size="24" transform="translate(714.147 14)">âˆ’</text><text font-family="Cambria Math,Cambria Math_MSFontService,sans-serif" font-weight="400" font-size="24" transform="translate(737.48 14)">ğœ</text><text font-family="Cambria Math,Cambria Math_MSFontService,sans-serif" font-weight="400" font-size="18" transform="translate(749.84 19)">3</text><text font-family="Cambria Math,Cambria Math_MSFontService,sans-serif" font-weight="400" font-size="24" transform="translate(716.753 48)">2</text><path d="M686 24.2533 711 24.2533 736 24.2533 761 24.2533 761 26.2533 736 26.2533 711 26.2533 686 26.2533Z" fill-rule="evenodd"/><text font-family="Cambria Math,Cambria Math_MSFontService,sans-serif" font-weight="400" font-size="24" transform="translate(1138.06 638)">ğœ</text><text font-family="Cambria Math,Cambria Math_MSFontService,sans-serif" font-weight="400" font-size="24" transform="translate(1159.31 638)">=</text><text font-family="Cambria Math,Cambria Math_MSFontService,sans-serif" font-weight="400" font-size="24" transform="translate(1183.98 620)">ğœ</text><text font-family="Cambria Math,Cambria Math_MSFontService,sans-serif" font-weight="400" font-size="18" transform="translate(1195.79 625)">1</text><text font-family="Cambria Math,Cambria Math_MSFontService,sans-serif" font-weight="400" font-size="24" transform="translate(1212.28 620)">+</text><text font-family="Cambria Math,Cambria Math_MSFontService,sans-serif" font-weight="400" font-size="24" transform="translate(1235.61 620)">ğœ</text><text font-family="Cambria Math,Cambria Math_MSFontService,sans-serif" font-weight="400" font-size="18" transform="translate(1247.97 625)">3</text><text font-family="Cambria Math,Cambria Math_MSFontService,sans-serif" font-weight="400" font-size="24" transform="translate(1214.89 654)">2</text><path d="M1184.1 630.432 1209.1 630.432 1234.1 630.432 1259.1 630.432 1259.1 632.432 1234.1 632.432 1209.1 632.432 1184.1 632.432Z" fill-rule="evenodd"/><text font-family="Aptos,Aptos_MSFontService,sans-serif" font-style="italic" font-weight="400" font-size="24" transform="translate(398.206 464)">Elastic</text><text font-family="Aptos,Aptos_MSFontService,sans-serif" font-style="italic" font-weight="400" font-size="24" transform="translate(472.566 464)">zone</text></g></svg>