solid GiD
  facet normal               0              -0               1  
    outer loop
      vertex             1.5               0               0
      vertex             1.5               2               0
      vertex               1               0               0
    endloop
  endfacet
  facet normal               0               0               1  
    outer loop
      vertex             1.5               2               0
      vertex               1               2               0
      vertex               1               0               0
    endloop
  endfacet
endsolid GiD
